<svg width="531" height="676" viewBox="0 0 531 676" fill="none" xmlns="http://www.w3.org/2000/svg">
<path d="M242.808 217.66C240.939 217.682 239.077 217.883 237.256 218.26C237.256 218.26 231.126 200.77 209.162 209.43C209.162 209.43 203.454 179.79 166.787 194.81C166.787 194.81 157.615 169.88 131.253 170C127.551 170 123.876 170 120.226 170C93.8199 169.88 84.6921 194.81 84.6921 194.81C47.9253 179.79 42.1954 209.43 42.1954 209.43C20.2309 200.77 14.1012 218.26 14.1012 218.26C12.2796 217.883 10.4182 217.682 8.54904 217.66C-2.94405 217.16 0.476118 224.49 0.476118 224.49H250.892C250.892 224.49 254.29 217.16 242.808 217.66Z" fill="white"/>
<g opacity="0.8" filter="url(#filter0_i_1396_493)">
<path d="M521.808 47.6604C519.939 47.6816 518.077 47.8827 516.256 48.2604C516.256 48.2604 510.126 30.7704 488.162 39.4304C488.162 39.4304 482.454 9.79043 445.787 24.8104C445.787 24.8104 436.615 -0.119568 410.253 0.000431827C406.551 0.000431827 402.876 0.000431827 399.226 0.000431827C372.82 -0.119568 363.692 24.8104 363.692 24.8104C326.925 9.79043 321.195 39.4304 321.195 39.4304C299.231 30.7704 293.101 48.2604 293.101 48.2604C291.28 47.8827 289.418 47.6816 287.549 47.6604C276.056 47.1604 279.476 54.4904 279.476 54.4904H529.892C529.892 54.4904 533.29 47.1604 521.808 47.6604Z" fill="white"/>
</g>
<g opacity="0.8">
<path d="M521.808 447.66C519.939 447.682 518.077 447.883 516.256 448.26C516.256 448.26 510.126 430.77 488.162 439.43C488.162 439.43 482.454 409.79 445.787 424.81C445.787 424.81 436.615 399.88 410.253 400C406.551 400 402.876 400 399.226 400C372.82 399.88 363.692 424.81 363.692 424.81C326.925 409.79 321.195 439.43 321.195 439.43C299.231 430.77 293.101 448.26 293.101 448.26C291.28 447.883 289.418 447.682 287.549 447.66C276.056 447.16 279.476 454.49 279.476 454.49H529.892C529.892 454.49 533.29 447.16 521.808 447.66Z" fill="white" fill-opacity="0.8"/>
</g>
<g opacity="0.8" filter="url(#filter1_i_1396_493)">
<path d="M294.126 670.301C292.624 670.318 291.128 670.48 289.664 670.783C289.664 670.783 284.738 656.728 267.087 663.687C267.087 663.687 262.5 639.868 233.034 651.938C233.034 651.938 225.663 631.904 204.478 632C201.503 632 198.549 632 195.617 632C174.396 631.904 167.06 651.938 167.06 651.938C137.514 639.868 132.909 663.687 132.909 663.687C115.258 656.728 110.332 670.783 110.332 670.783C108.868 670.48 107.372 670.318 105.87 670.301C96.6341 669.899 99.3826 675.79 99.3826 675.79H300.623C300.623 675.79 303.353 669.899 294.126 670.301Z" fill="white" fill-opacity="0.8"/>
</g>
<defs>
<filter id="filter0_i_1396_493" x="279" y="0" width="253.362" height="56.4905" filterUnits="userSpaceOnUse" color-interpolation-filters="sRGB">
<feFlood flood-opacity="0" result="BackgroundImageFix"/>
<feBlend mode="normal" in="SourceGraphic" in2="BackgroundImageFix" result="shape"/>
<feColorMatrix in="SourceAlpha" type="matrix" values="0 0 0 0 0 0 0 0 0 0 0 0 0 0 0 0 0 0 127 0" result="hardAlpha"/>
<feOffset dx="5" dy="10"/>
<feGaussianBlur stdDeviation="1"/>
<feComposite in2="hardAlpha" operator="arithmetic" k2="-1" k3="1"/>
<feColorMatrix type="matrix" values="0 0 0 0 0 0 0 0 0 0 0 0 0 0 0 0 0 0 0.25 0"/>
<feBlend mode="normal" in2="shape" result="effect1_innerShadow_1396_493"/>
</filter>
<filter id="filter1_i_1396_493" x="99" y="632" width="206" height="47.7898" filterUnits="userSpaceOnUse" color-interpolation-filters="sRGB">
<feFlood flood-opacity="0" result="BackgroundImageFix"/>
<feBlend mode="normal" in="SourceGraphic" in2="BackgroundImageFix" result="shape"/>
<feColorMatrix in="SourceAlpha" type="matrix" values="0 0 0 0 0 0 0 0 0 0 0 0 0 0 0 0 0 0 127 0" result="hardAlpha"/>
<feOffset dx="14" dy="8"/>
<feGaussianBlur stdDeviation="2"/>
<feComposite in2="hardAlpha" operator="arithmetic" k2="-1" k3="1"/>
<feColorMatrix type="matrix" values="0 0 0 0 0 0 0 0 0 0 0 0 0 0 0 0 0 0 0.25 0"/>
<feBlend mode="normal" in2="shape" result="effect1_innerShadow_1396_493"/>
</filter>
</defs>
</svg>
