<svg width="263" height="137" viewBox="0 0 263 137" fill="none" xmlns="http://www.w3.org/2000/svg">
<path fill-rule="evenodd" clip-rule="evenodd" d="M16.0346 82.3349C14.1618 82.7926 12.2443 83.0538 10.3149 83.114C0.9119 83.7359 1.08743 78.6582 1.55915 76.5389C0.999853 74.0304 0.614056 67.9816 10.0352 68.333C11.9656 68.3247 13.8924 68.5567 15.7827 69.0249C15.7827 69.0249 21.6695 45.5719 44.5656 56.6958C44.5656 56.6958 49.7099 17.0417 87.9459 36.3631C87.9459 36.3631 96.7862 2.92495 124.007 2.5698L135.391 2.35429C162.651 1.67807 172.705 34.7586 172.705 34.7586C210.285 14.0019 216.95 53.4324 216.95 53.4324C239.408 41.4499 246.179 64.6633 246.179 64.6633C248.05 64.1239 249.967 63.8192 251.896 63.7544C260.619 63.0982 261.11 68.2571 260.762 71.0276C261.498 72.6039 262.013 78.8122 252.176 78.5354C251.377 78.5407 250.403 78.328 249.474 78.1253C248.157 77.8378 246.932 77.5703 246.431 77.9733C246.326 78.0576 246.157 78.4172 245.899 78.9663C244.057 82.8929 237.667 96.5073 217.612 88.3919C217.612 88.3919 212.323 121.633 174.045 105.564C174.045 105.564 165.149 133.607 137.883 133.989L126.498 134.205C99.2836 134.854 89.2862 107.168 89.2862 107.168C51.7473 124.673 45.2273 91.6553 45.2273 91.6553C22.7332 101.764 16.0346 82.3349 16.0346 82.3349Z" fill="#989595"/>
<path d="M125 61.4985L105.067 61.5548L105 49.1081L125 61.4985Z" fill="white"/>
<path d="M113 61C114.657 61 116 59.6569 116 58C116 56.3431 114.657 55 113 55C111.343 55 110 56.3431 110 58C110 59.6569 111.343 61 113 61Z" fill="black"/>
<path d="M135 61.4985L154.933 61.5548L155 49.1081L135 61.4985Z" fill="#FFFEFE"/>
<path d="M147 61C145.343 61 144 59.6569 144 58C144 56.3431 145.343 55 147 55C148.657 55 150 56.3431 150 58C150 59.6569 148.657 61 147 61Z" fill="black"/>
<circle cx="130" cy="77" r="5" fill="#030303"/>
</svg>
