<svg width="185" height="97" viewBox="0 0 185 97" fill="none" xmlns="http://www.w3.org/2000/svg">
<path fill-rule="evenodd" clip-rule="evenodd" d="M11.3122 58.0866C9.99099 58.4095 8.63824 58.5938 7.27705 58.6363C0.643615 59.075 0.767081 55.4931 1.09985 53.9978C0.705269 52.228 0.433323 47.9609 7.07966 48.2088C8.44154 48.2029 9.8009 48.3666 11.1345 48.6969C11.1345 48.6969 15.2877 32.1509 31.4407 39.9988C31.4407 39.9988 35.07 12.023 62.0453 25.6542C62.0453 25.6542 68.2821 2.06367 87.486 1.81311L95.5177 1.66106C114.75 1.184 121.842 24.5222 121.842 24.5222C148.355 9.87842 153.057 37.6965 153.057 37.6965C168.901 29.2428 173.678 45.6198 173.678 45.6198C174.998 45.2393 176.35 45.0243 177.711 44.9786C183.865 44.5157 184.212 48.1547 183.966 50.1094C184.485 51.2216 184.849 55.6014 177.909 55.4061C177.346 55.4098 176.658 55.2598 176.003 55.1168C175.074 54.9139 174.209 54.7252 173.856 55.0095C173.782 55.069 173.663 55.3227 173.481 55.7101C172.181 58.4803 167.673 68.0852 153.524 62.3598C153.524 62.3598 149.793 85.8116 122.788 74.4745C122.788 74.4745 116.512 94.259 97.2757 94.5285L89.244 94.6806C70.0441 95.1387 62.9909 75.6065 62.9909 75.6065C36.5074 87.9562 31.9076 64.6621 31.9076 64.6621C16.0381 71.7939 11.3122 58.0866 11.3122 58.0866Z" fill="#989595"/>
</svg>
