<svg width="132" height="133" viewBox="0 0 132 133" fill="none" xmlns="http://www.w3.org/2000/svg">
<path d="M125.412 81.564C125.412 81.564 131.633 50.5134 105.938 45.7381" stroke="#020202" stroke-width="2" stroke-linecap="round" stroke-linejoin="round"/>
<path d="M114.013 65.3763C117.365 61.7373 119.261 57.6452 119.261 53.323C119.261 47.6787 116.05 42.4356 110.557 38.0762C112.849 34.9904 114.107 31.2611 114.155 27.419C114.155 12.2762 93.418 0 67.8428 0C42.2676 0 21.5235 12.2762 21.5235 27.419C21.5787 31.1919 22.8073 34.8541 25.0391 37.8979C19.3978 42.287 16.1201 47.597 16.1201 53.323C16.1201 58.1725 18.4911 62.725 22.6458 66.6908C18.3518 68.8476 14.7421 72.1544 12.2196 76.242C9.69705 80.3297 8.36103 85.0373 8.3606 89.8395C8.3606 96.7136 11.0935 103.306 15.9581 108.167C20.8226 113.028 27.4204 115.758 34.3 115.758H105.421C112.301 115.758 118.899 113.028 123.763 108.167C128.628 103.306 131.361 96.7136 131.361 89.8395C131.361 84.4688 129.693 79.2304 126.585 74.8483C123.478 70.4661 119.085 67.1563 114.013 65.3763Z" fill="#6B6B6B"/>
<path d="M1.66057 84.7557C1.66057 84.7557 -4.553 53.7052 21.1337 48.9299" stroke="#020202" stroke-width="2" stroke-linecap="round" stroke-linejoin="round"/>
<path d="M34.3954 111.682L30.5528 127.634L23.3358 129.268" stroke="#020202" stroke-width="2" stroke-linecap="round" stroke-linejoin="round"/>
<path d="M103.239 111.682L105.598 127.924L112.635 130.226" stroke="#020202" stroke-width="2" stroke-linecap="round" stroke-linejoin="round"/>
<path d="M61.1311 24.894C63.1383 24.894 64.7656 22.9522 64.7656 20.5569C64.7656 18.1615 63.1383 16.2197 61.1311 16.2197C59.1238 16.2197 57.4966 18.1615 57.4966 20.5569C57.4966 22.9522 59.1238 24.894 61.1311 24.894Z" fill="white"/>
<path d="M61.4211 24.8926C62.9112 24.8926 64.1191 23.5725 64.1191 21.9442C64.1191 20.3159 62.9112 18.9958 61.4211 18.9958C59.9311 18.9958 58.7231 20.3159 58.7231 21.9442C58.7231 23.5725 59.9311 24.8926 61.4211 24.8926Z" fill="#221F20"/>
<path d="M74.3609 24.8947C76.3682 24.8947 77.9954 22.9529 77.9954 20.5576C77.9954 18.1623 76.3682 16.2205 74.3609 16.2205C72.3537 16.2205 70.7264 18.1623 70.7264 20.5576C70.7264 22.9529 72.3537 24.8947 74.3609 24.8947Z" fill="white"/>
<path d="M74.6506 24.8937C76.1407 24.8937 77.3486 23.5736 77.3486 21.9453C77.3486 20.317 76.1407 18.9969 74.6506 18.9969C73.1606 18.9969 71.9526 20.317 71.9526 21.9453C71.9526 23.5736 73.1606 24.8937 74.6506 24.8937Z" fill="#221F20"/>
<path d="M77.9943 29.6174C77.9943 32.8926 73.6834 35.5587 68.332 35.5587C62.9806 35.5587 58.6698 32.9 58.6698 29.6174" stroke="#020202" stroke-linecap="round" stroke-linejoin="round"/>
</svg>
