<svg width="178" height="186" viewBox="0 0 178 186" fill="none" xmlns="http://www.w3.org/2000/svg">
<g filter="url(#filter0_d_1672_1179)">
<path d="M170.498 102.117C170.498 102.117 178.701 61.1753 144.822 54.8789" stroke="#020202" stroke-width="2" stroke-linecap="round" stroke-linejoin="round"/>
<path d="M148.871 86.2012C153.291 81.403 155.79 76.0074 155.79 70.3083C155.79 62.8662 151.556 55.9529 144.314 50.2049C147.335 46.1361 148.995 41.2189 149.057 36.153C149.057 16.1866 121.715 0 87.993 0C54.2711 0 26.9192 16.1866 26.9192 36.153C26.992 41.1277 28.612 45.9565 31.5547 49.9699C24.1164 55.7571 19.7946 62.7585 19.7946 70.3083C19.7946 76.7027 22.9208 82.7053 28.3991 87.9344C22.7372 90.7782 17.9776 95.1383 14.6516 100.528C11.3256 105.918 9.56398 112.125 9.56342 118.457C9.56342 127.521 13.1668 136.213 19.581 142.622C25.9951 149.031 34.6945 152.632 43.7655 152.632H137.542C146.613 152.632 155.312 149.031 161.726 142.622C168.141 136.213 171.744 127.521 171.744 118.457C171.745 111.375 169.544 104.468 165.447 98.6903C161.349 92.9122 155.557 88.5482 148.871 86.2012Z" fill="#FACF63"/>
<path d="M7.83969 98.5898C7.83969 98.5898 2.27944 58.6516 35.2909 54.5157" stroke="#020202" stroke-width="2" stroke-linecap="round" stroke-linejoin="round"/>
<path fill-rule="evenodd" clip-rule="evenodd" d="M152.143 88.5266C155.943 84.0385 158.381 78.2285 158.899 70.7178C158.015 43.5017 114.287 40.5147 81.9674 41.6025C55.2478 42.5019 21.3206 45.4416 17.2385 70.7178C16.9698 78.6018 19.5608 84.7836 24.092 89.5404C13.2643 95.3875 5.6904 105.357 4 122.294C4 158.031 54.1106 157.599 83.8448 157.343C86.2029 157.322 88.4328 157.303 90.4995 157.303C92.3512 157.303 94.3202 157.316 96.383 157.33C125.653 157.527 173.815 157.851 173.815 122.294C173.815 104.299 165.614 94.1848 152.143 88.5266Z" fill="#FACF63"/>
<path d="M118.835 91.653C120.054 91.5168 109.449 95.2604 85.7912 95.3041C64.5725 95.3433 50.9275 91.2504 51.6592 91.2491C53.1223 91.1058 61.8893 94.2476 85.7916 94.6254C101.645 94.5961 113.714 92.2252 118.835 91.653Z" fill="#D7B152"/>
<path d="M43.4333 152.212L38.3667 173.246L28.8509 175.4" stroke="#020202" stroke-width="2" stroke-linecap="round" stroke-linejoin="round"/>
<path d="M132.702 152.212L135.813 173.629L145.091 176.663" stroke="#020202" stroke-width="2" stroke-linecap="round" stroke-linejoin="round"/>
</g>
<path d="M70.199 33.3682C70.199 35.4876 72.7763 37.2058 75.9555 37.2058C79.1347 37.2058 81.7119 35.4876 81.7119 33.3682" stroke="black" stroke-linecap="round"/>
<path d="M91.306 33.3682C91.306 35.4876 93.8832 37.2058 97.0624 37.2058C100.242 37.2058 102.819 35.4876 102.819 33.3682" stroke="black" stroke-linecap="round"/>
<path d="M90.2349 52.247C90.1844 54.086 90.8967 57.6392 94.1496 57.1395" stroke="white" stroke-linecap="round"/>
<path d="M91.1035 50.5809C93.2575 50.3332 97.9367 51.0629 99.4218 55.9624C100.266 58.7462 102.736 61.2801 109.242 60.2808M91.1035 49.0722C92.9594 48.5097 97.9923 45.3039 101.394 50.1088C102.457 51.6103 106.259 52.4632 109.242 51.0728" stroke="white" stroke-linecap="round"/>
<path d="M89.8467 49.1982C89.8467 51.4307 88.4575 53.0155 86.9888 53.0155C85.5201 53.0155 84.1309 51.4307 84.1309 49.1982C84.1309 46.9657 85.5201 45.3809 86.9888 45.3809C88.4575 45.3809 89.8467 46.9657 89.8467 49.1982Z" stroke="black"/>
<defs>
<filter id="filter0_d_1672_1179" x="0" y="0" width="177.815" height="185.664" filterUnits="userSpaceOnUse" color-interpolation-filters="sRGB">
<feFlood flood-opacity="0" result="BackgroundImageFix"/>
<feColorMatrix in="SourceAlpha" type="matrix" values="0 0 0 0 0 0 0 0 0 0 0 0 0 0 0 0 0 0 127 0" result="hardAlpha"/>
<feOffset dy="4"/>
<feGaussianBlur stdDeviation="2"/>
<feComposite in2="hardAlpha" operator="out"/>
<feColorMatrix type="matrix" values="0 0 0 0 0 0 0 0 0 0 0 0 0 0 0 0 0 0 0.25 0"/>
<feBlend mode="normal" in2="BackgroundImageFix" result="effect1_dropShadow_1672_1179"/>
<feBlend mode="normal" in="SourceGraphic" in2="effect1_dropShadow_1672_1179" result="shape"/>
</filter>
</defs>
</svg>
