<svg width="131" height="112" viewBox="0 0 131 112" fill="none" xmlns="http://www.w3.org/2000/svg">
<path d="M125.96 68.811C125.96 68.811 131.208 42.6152 109.531 38.5865" stroke="#2855F6" stroke-width="1.5" stroke-linecap="round" stroke-linejoin="round"/>
<path d="M115.976 54.816L115.461 55.3749L116.178 55.6265C120.359 57.0939 123.98 59.8224 126.542 63.4349C129.104 67.0475 130.479 71.3657 130.479 75.7931C130.479 81.4597 128.226 86.8943 124.216 90.9013C120.206 94.9083 114.767 97.1595 109.095 97.1595H49.0935C43.4221 97.1595 37.983 94.9083 33.9728 90.9013C29.9626 86.8943 27.7098 81.4597 27.7098 75.7932C27.7101 71.8345 28.8115 67.9538 30.8909 64.5842C32.9703 61.2145 35.946 58.4885 39.4859 56.7105L40.1201 56.392L39.6068 55.902C36.1689 52.6205 34.2561 48.9024 34.2561 44.9859C34.2561 40.362 36.9016 36.0131 41.5876 32.3672L41.9712 32.0688L41.6838 31.6769C39.8631 29.1937 38.8604 26.2062 38.8147 23.1284C38.8164 16.9902 43.0245 11.3444 50.0168 7.20558C56.9994 3.07251 66.6776 0.5 77.3919 0.5C88.1063 0.5 97.7828 3.07251 104.764 7.20555C111.755 11.3444 115.962 16.9905 115.963 23.129C115.924 26.264 114.896 29.3069 113.027 31.8249L112.738 32.2136L113.117 32.5146C117.68 36.1356 120.271 40.429 120.271 44.9859C120.271 48.477 118.742 51.8136 115.976 54.816Z" fill="#FFB1CE" stroke="#2855F6"/>
<path d="M21.5573 71.5039C21.5573 71.5039 16.3152 45.3081 37.9858 41.2794" stroke="#2855F6" stroke-width="1.5" stroke-linecap="round" stroke-linejoin="round"/>
<path d="M49.174 94.2202L45.9322 107.678L39.8436 109.057" stroke="#2855F6" stroke-width="1.5" stroke-linecap="round" stroke-linejoin="round"/>
<path d="M107.254 94.2202L109.244 107.923L115.181 109.865" stroke="#2855F6" stroke-width="1.5" stroke-linecap="round" stroke-linejoin="round"/>
<path d="M73.2762 31.9748C74.5333 31.9748 75.5523 30.8611 75.5523 29.4874C75.5523 28.1136 74.5333 27 73.2762 27C72.0191 27 71 28.1136 71 29.4874C71 30.8611 72.0191 31.9748 73.2762 31.9748Z" fill="#2855F6"/>
<path d="M82.2762 31.9748C83.5333 31.9748 84.5523 30.8611 84.5523 29.4874C84.5523 28.1136 83.5333 27 82.2762 27C81.0191 27 80 28.1136 80 29.4874C80 30.8611 81.0191 31.9748 82.2762 31.9748Z" fill="#2855F6"/>
<path d="M16.5896 99.7557L1.83925 75.9875L31.227 57.9706L36.8764 58.735L37.7305 60.1349L49.1186 78.8006L16.5896 99.7557Z" fill="white"/>
<path d="M31.227 57.9706L36.8764 58.735L37.7305 60.1349M31.227 57.9706L1.83925 75.9875L16.5896 99.7557L49.1186 78.8006L37.7305 60.1349M31.227 57.9706L33.0066 63.7872L37.7305 60.1349" stroke="#894D2B"/>
<path d="M28.4135 79.375C28.5407 79.5723 28.5804 79.7815 28.5326 80.0026C28.4849 80.2238 28.3624 80.398 28.1652 80.5252L19.0616 86.3952C18.8554 86.5282 18.6462 86.5679 18.434 86.5143C18.2128 86.4666 18.0387 86.3441 17.9115 86.1469L13.9923 80.0689C13.8594 79.8627 13.8152 79.6564 13.8598 79.45C13.8954 79.2493 14.0118 79.0854 14.209 78.9582C14.3973 78.8368 14.5901 78.8013 14.7876 78.8517C14.9851 78.902 15.1503 79.0303 15.2832 79.2365L18.7515 84.6152L22.0191 82.5083L19.5306 78.649C19.4035 78.4518 19.3622 78.25 19.4067 78.0435C19.4366 77.8339 19.5456 77.6684 19.7339 77.547C19.9221 77.4256 20.1224 77.3917 20.3346 77.4452C20.532 77.4956 20.6944 77.6194 20.8215 77.8166L23.31 81.6759L27.2634 79.1267C27.4606 78.9995 27.6698 78.9598 27.891 79.0076C28.1122 79.0553 28.2864 79.1778 28.4135 79.375Z" fill="#EE6363"/>
<path d="M26 72L31 79.5" stroke="#EE6363" stroke-linecap="round"/>
<path d="M28 71L33 78.5" stroke="#EE6363" stroke-linecap="round"/>
<path d="M67 23.6194C67.7347 24.3004 68.9736 25.0289 70.901 24.5817C72.8283 24.1345 73.5254 22.8484 73.9796 22" stroke="#2855F6" stroke-linecap="round"/>
<path d="M82.5539 22.0002C82.8365 22.9613 83.5277 24.2213 85.4123 24.8238C87.2969 25.4264 88.5541 24.6784 89.3787 24.1821" stroke="#2855F6" stroke-linecap="round"/>
<path d="M70 41.0122C70 38.2491 73.6369 35.9998 78.1516 35.9998C82.6663 35.9998 86.3031 38.2429 86.3031 41.0122" stroke="#2855F6" stroke-linecap="round" stroke-linejoin="round"/>
</svg>
