<svg width="179" height="170" viewBox="0 0 179 170" fill="none" xmlns="http://www.w3.org/2000/svg">
<g filter="url(#filter0_d_1128_354)">
<mask id="path-1-inside-1_1128_354" fill="white">
<path fill-rule="evenodd" clip-rule="evenodd" d="M45.0699 146.907C45.3458 143.569 43.0979 140.47 39.7343 139.765C36.9158 139.174 34.1398 140.438 32.6741 142.727C32.5346 142.688 32.393 142.654 32.2494 142.624C28.6064 141.86 25.0343 144.194 24.2709 147.837C23.8447 149.871 24.3839 151.883 25.5774 153.396C25.5452 153.512 25.5165 153.629 25.4915 153.749C24.8644 156.741 26.7819 159.675 29.7743 160.302C31.0152 160.563 32.246 160.385 33.3065 159.875C34.073 160.768 35.1292 161.425 36.3703 161.685C39.3271 162.305 42.227 160.44 42.9007 157.509C45.4399 157.48 47.7082 155.696 48.2506 153.108C48.7968 150.502 47.413 147.94 45.0699 146.907Z"/>
</mask>
<path fill-rule="evenodd" clip-rule="evenodd" d="M45.0699 146.907C45.3458 143.569 43.0979 140.47 39.7343 139.765C36.9158 139.174 34.1398 140.438 32.6741 142.727C32.5346 142.688 32.393 142.654 32.2494 142.624C28.6064 141.86 25.0343 144.194 24.2709 147.837C23.8447 149.871 24.3839 151.883 25.5774 153.396C25.5452 153.512 25.5165 153.629 25.4915 153.749C24.8644 156.741 26.7819 159.675 29.7743 160.302C31.0152 160.563 32.246 160.385 33.3065 159.875C34.073 160.768 35.1292 161.425 36.3703 161.685C39.3271 162.305 42.227 160.44 42.9007 157.509C45.4399 157.48 47.7082 155.696 48.2506 153.108C48.7968 150.502 47.413 147.94 45.0699 146.907Z" fill="#FFFEFC"/>
<path d="M45.0699 146.907L44.5716 146.866L44.5423 147.221L44.8683 147.365L45.0699 146.907ZM32.6741 142.727L32.5405 143.209L32.8961 143.307L33.0951 142.996L32.6741 142.727ZM25.5774 153.396L26.0591 153.53L26.127 153.286L25.97 153.086L25.5774 153.396ZM33.3065 159.875L33.686 159.549L33.4359 159.258L33.0898 159.424L33.3065 159.875ZM42.9007 157.509L42.895 157.009L42.5015 157.014L42.4134 157.397L42.9007 157.509ZM45.5682 146.949C45.8646 143.362 43.4503 140.033 39.8368 139.275L39.6317 140.254C42.7454 140.907 44.827 143.776 44.5716 146.866L45.5682 146.949ZM39.8368 139.275C36.8085 138.641 33.827 139.999 32.253 142.457L33.0951 142.996C34.4526 140.876 37.0232 139.707 39.6317 140.254L39.8368 139.275ZM32.8076 142.245C32.6579 142.203 32.506 142.166 32.3519 142.134L32.1468 143.113C32.28 143.141 32.4113 143.173 32.5405 143.209L32.8076 142.245ZM32.3519 142.134C28.4387 141.314 24.6016 143.822 23.7815 147.735L24.7602 147.94C25.467 144.567 28.7741 142.406 32.1468 143.113L32.3519 142.134ZM23.7815 147.735C23.3236 149.92 23.9036 152.081 25.1848 153.706L25.97 153.086C24.8643 151.685 24.3657 149.823 24.7602 147.94L23.7815 147.735ZM25.0956 153.262C25.0606 153.388 25.0294 153.516 25.0021 153.646L25.9809 153.851C26.0037 153.743 26.0298 153.635 26.0591 153.53L25.0956 153.262ZM25.0021 153.646C24.3184 156.909 26.4091 160.108 29.6718 160.792L29.8769 159.813C27.1547 159.243 25.4104 156.573 25.9809 153.851L25.0021 153.646ZM29.6718 160.792C31.0242 161.075 32.367 160.882 33.5233 160.325L33.0898 159.424C32.125 159.888 31.0062 160.05 29.8769 159.813L29.6718 160.792ZM32.9271 160.2C33.7627 161.174 34.9151 161.891 36.2678 162.175L36.4729 161.196C35.3433 160.959 34.3832 160.362 33.686 159.549L32.9271 160.2ZM36.2678 162.175C39.4916 162.85 42.6534 160.817 43.388 157.621L42.4134 157.397C41.8006 160.063 39.1625 161.76 36.4729 161.196L36.2678 162.175ZM47.7613 153.005C47.268 155.359 45.2047 156.983 42.895 157.009L42.9064 158.009C45.675 157.977 48.1485 156.033 48.74 153.21L47.7613 153.005ZM44.8683 147.365C46.9996 148.304 48.258 150.635 47.7613 153.005L48.74 153.21C49.3356 150.368 47.8263 147.575 45.2715 146.45L44.8683 147.365Z" fill="#23C289" mask="url(#path-1-inside-1_1128_354)"/>
</g>
<g filter="url(#filter1_d_1128_354)">
<mask id="path-3-inside-2_1128_354" fill="white">
<path fill-rule="evenodd" clip-rule="evenodd" d="M106.165 2.35857C116.963 5.42566 125.385 12.4076 129.766 20.8195C134.135 20.5744 138.702 21.0529 143.263 22.3484C162.143 27.7111 173.759 45.0422 169.21 61.0584C168.624 63.1221 167.798 65.0633 166.763 66.8678C173.365 74.4735 176.224 84.2787 173.567 93.6353C170.699 103.73 162.094 110.893 151.396 113.467C146.499 129.034 127.786 137.342 109.183 132.058C101.275 129.812 94.6407 125.465 89.9354 119.995C81.9823 129.715 67.18 134.055 52.4467 129.87C34.6899 124.827 23.3576 109.195 25.8578 94.0286C10.3379 87.1373 1.4022 71.7061 5.48468 57.3336C8.1847 47.8281 15.9722 40.922 25.8041 37.9991C25.8901 36.0088 26.2053 34.0135 26.7663 32.0383C31.2548 16.2365 49.8025 7.61826 68.4295 12.5403C76.3205 2.60564 91.278 -1.87008 106.165 2.35857Z"/>
</mask>
<path fill-rule="evenodd" clip-rule="evenodd" d="M106.165 2.35857C116.963 5.42566 125.385 12.4076 129.766 20.8195C134.135 20.5744 138.702 21.0529 143.263 22.3484C162.143 27.7111 173.759 45.0422 169.21 61.0584C168.624 63.1221 167.798 65.0633 166.763 66.8678C173.365 74.4735 176.224 84.2787 173.567 93.6353C170.699 103.73 162.094 110.893 151.396 113.467C146.499 129.034 127.786 137.342 109.183 132.058C101.275 129.812 94.6407 125.465 89.9354 119.995C81.9823 129.715 67.18 134.055 52.4467 129.87C34.6899 124.827 23.3576 109.195 25.8578 94.0286C10.3379 87.1373 1.4022 71.7061 5.48468 57.3336C8.1847 47.8281 15.9722 40.922 25.8041 37.9991C25.8901 36.0088 26.2053 34.0135 26.7663 32.0383C31.2548 16.2365 49.8025 7.61826 68.4295 12.5403C76.3205 2.60564 91.278 -1.87008 106.165 2.35857Z" fill="white"/>
<path d="M129.766 20.8195L128.879 21.2814L129.177 21.8541L129.822 21.8179L129.766 20.8195ZM166.763 66.8678L165.896 66.3704L165.542 66.9867L166.008 67.5233L166.763 66.8678ZM151.396 113.467L151.162 112.495L150.612 112.627L150.442 113.167L151.396 113.467ZM89.9354 119.995L90.6936 119.343L89.9163 118.439L89.1615 119.362L89.9354 119.995ZM25.8578 94.0286L26.8445 94.1913L26.9702 93.4284L26.2636 93.1147L25.8578 94.0286ZM25.8041 37.9991L26.0891 38.9576L26.7724 38.7545L26.8032 38.0422L25.8041 37.9991ZM68.4295 12.5403L68.1741 13.5072L68.806 13.6742L69.2126 13.1623L68.4295 12.5403ZM130.653 20.3576C126.137 11.6861 117.483 4.53393 106.438 1.39663L105.892 3.32052C116.442 6.31739 124.633 13.1292 128.879 21.2814L130.653 20.3576ZM143.536 21.3864C138.869 20.0607 134.19 19.5697 129.71 19.8211L129.822 21.8179C134.079 21.579 138.535 22.0451 142.99 23.3103L143.536 21.3864ZM170.172 61.3316C174.913 44.6419 162.793 26.8562 143.536 21.3864L142.99 23.3103C161.493 28.566 172.606 45.4424 168.248 60.7852L170.172 61.3316ZM167.631 67.3652C168.705 65.4911 169.563 63.4748 170.172 61.3316L168.248 60.7852C167.684 62.7695 166.89 64.6355 165.896 66.3704L167.631 67.3652ZM174.529 93.9085C177.294 84.1722 174.301 74.0263 167.518 66.2123L166.008 67.5233C172.429 74.9207 175.154 84.3853 172.605 93.362L174.529 93.9085ZM151.63 114.439C162.609 111.798 171.544 104.415 174.529 93.9085L172.605 93.362C169.854 103.045 161.579 109.988 151.162 112.495L151.63 114.439ZM108.91 133.02C127.887 138.41 147.249 129.985 152.35 113.767L150.442 113.167C145.75 128.084 127.686 136.274 109.457 131.096L108.91 133.02ZM89.1773 120.647C94.0136 126.269 100.818 130.721 108.91 133.02L109.457 131.096C101.732 128.902 95.2679 124.661 90.6936 119.343L89.1773 120.647ZM89.1615 119.362C81.4986 128.727 67.131 133.002 52.72 128.908L52.1735 130.832C67.229 135.109 82.4659 130.703 90.7094 120.628L89.1615 119.362ZM52.72 128.908C35.328 123.968 24.4464 108.738 26.8445 94.1913L24.8711 93.866C22.2688 109.652 34.0517 125.685 52.1735 130.832L52.72 128.908ZM4.52273 57.0604C0.269994 72.0322 9.60158 87.9045 25.452 94.9426L26.2636 93.1147C11.0742 86.3701 2.53441 71.3799 6.44662 57.6069L4.52273 57.0604ZM25.5191 37.0405C15.4203 40.0428 7.33246 47.1687 4.52273 57.0604L6.44662 57.6069C9.03695 48.4876 16.5241 41.8012 26.0891 38.9576L25.5191 37.0405ZM25.8044 31.765C25.2217 33.8162 24.8943 35.8887 24.805 37.9559L26.8032 38.0422C26.8858 36.1288 27.1888 34.2108 27.7283 32.3115L25.8044 31.765ZM68.685 11.5735C49.6831 6.5524 30.4814 15.2995 25.8044 31.765L27.7283 32.3115C32.0282 17.1735 49.9218 8.68413 68.1741 13.5072L68.685 11.5735ZM106.438 1.39663C91.2265 -2.92428 75.8273 1.61869 67.6465 11.9184L69.2126 13.1623C76.8136 3.59259 91.3296 -0.815871 105.892 3.32052L106.438 1.39663Z" fill="#23C289" mask="url(#path-3-inside-2_1128_354)"/>
</g>
<path d="M115.47 37.7487L115.212 38.0282L115.571 38.154C117.377 38.7881 118.942 39.9671 120.049 41.5281C121.156 43.089 121.75 44.955 121.75 46.868C121.75 49.3166 120.777 51.6649 119.044 53.3963C117.311 55.1278 114.961 56.1005 112.51 56.1005H86.49C84.0393 56.1005 81.6891 55.1278 79.9563 53.3963C78.2234 51.6649 77.25 49.3166 77.25 46.8681C77.2502 45.1575 77.726 43.4807 78.6246 42.0247C79.5231 40.5686 80.8089 39.3907 82.3385 38.6224L82.6556 38.4632L82.3989 38.2182C80.9125 36.7994 80.0888 35.1951 80.0888 33.5084C80.0888 31.5169 81.2281 29.6397 83.2554 28.0624L83.4472 27.9132L83.3035 27.7172C82.518 26.646 82.0855 25.3572 82.0657 24.0295C82.0665 21.3842 83.8803 18.9449 86.9073 17.1533C89.9294 15.3645 94.1203 14.25 98.7617 14.25C103.403 14.25 107.593 15.3645 110.615 17.1533C113.641 18.945 115.454 21.3843 115.455 24.0298C115.438 25.3822 114.995 26.6949 114.188 27.7812L114.044 27.9756L114.234 28.1261C116.207 29.6926 117.323 31.5458 117.323 33.5084C117.323 35.012 116.665 36.4512 115.47 37.7487Z" fill="#FFB1CE" stroke="#2855F6" stroke-width="0.5"/>
<path d="M94.3852 28.9918C94.3852 28.9918 91.6776 40.2561 82.4152 37.8951" stroke="#2855F6" stroke-width="0.5" stroke-linecap="round" stroke-linejoin="round"/>
<path d="M90.1921 54.4023L90.4743 58.507L88.1064 59.4052" stroke="#2855F6" stroke-width="0.5" stroke-linecap="round" stroke-linejoin="round"/>
<path d="M105.76 54.4023L106.042 58.507L103.674 59.4052" stroke="#2855F6" stroke-width="0.5" stroke-linecap="round" stroke-linejoin="round"/>
<path d="M90.1995 54.2163L93.4427 55.8379" stroke="#2855F6" stroke-width="0.5" stroke-linecap="round"/>
<path d="M105.767 54.2163L109.01 55.8379" stroke="#2855F6" stroke-width="0.5" stroke-linecap="round"/>
<path d="M95.967 30.7354C95.967 29.7103 97.1284 28.8758 98.5703 28.8758C100.012 28.8758 101.174 29.708 101.174 30.7354" stroke="#2855F6" stroke-width="0.5" stroke-linecap="round" stroke-linejoin="round"/>
<path d="M104.687 28.69C104.687 28.69 106.733 39.5747 115.82 37.6754" stroke="#2855F6" stroke-width="0.5" stroke-linecap="round" stroke-linejoin="round"/>
<path d="M97.3341 25.9996C97.172 26.6482 96.5355 27.2969 95.5504 27.2969C94.5652 27.2969 93.9288 26.8104 93.7666 25.9996" stroke="#2855F6" stroke-width="0.5" stroke-linecap="round"/>
<path d="M103.496 25.9996C103.334 26.6482 102.697 27.2969 101.712 27.2969C100.727 27.2969 100.091 26.8104 99.9285 25.9996" stroke="#2855F6" stroke-width="0.5" stroke-linecap="round"/>
<path fill-rule="evenodd" clip-rule="evenodd" d="M91.9978 29.4874C91.9883 29.1984 91.9295 28.4917 91.9295 28.4917C91.9295 28.4917 91.0642 28.8731 91.0061 28.9011C90.9874 28.9101 90.9613 28.926 90.9344 28.9433C90.9049 28.9607 90.8763 28.9801 90.8487 29.0014C90.8303 29.0143 90.8183 29.023 90.8183 29.023L90.8204 29.0243C90.7195 29.1094 90.6349 29.2212 90.5775 29.3545C90.3977 29.7722 90.5546 30.2428 90.9279 30.4056C91.3011 30.5684 91.7494 30.3618 91.9292 29.9441C91.9942 29.7931 92.0152 29.6352 91.9978 29.4874Z" fill="white"/>
<path fill-rule="evenodd" clip-rule="evenodd" d="M105.382 26.8705C105.158 26.8112 104.603 26.6933 104.603 26.6933C104.603 26.6933 104.696 27.4444 104.704 27.4954C104.706 27.5119 104.712 27.5355 104.72 27.5601C104.726 27.5867 104.734 27.6131 104.744 27.6392C104.75 27.6562 104.754 27.6674 104.754 27.6674L104.755 27.6661C104.797 27.7631 104.864 27.8537 104.952 27.9284C105.231 28.1625 105.628 28.1507 105.839 27.9022C106.05 27.6537 105.995 27.2625 105.716 27.0284C105.615 26.9438 105.499 26.8913 105.382 26.8705Z" fill="white"/>
<path d="M109.574 89.7363C109.574 89.7363 111.537 79.9388 103.43 78.432" stroke="#020202" stroke-width="0.5" stroke-linecap="round" stroke-linejoin="round"/>
<path d="M105.095 84.8487L105.61 84.2898C106.605 83.2092 107.133 82.0337 107.133 80.8253C107.133 79.2491 106.238 77.7248 104.576 76.406L104.197 76.105L104.486 75.7163C105.145 74.8279 105.508 73.7546 105.522 72.6486C105.521 70.5087 104.052 68.4827 101.487 66.9643C98.9322 65.4517 95.3702 64.5 91.4091 64.5C87.4481 64.5 83.8854 65.4517 81.3299 66.9643C78.7648 68.4826 77.2954 70.5084 77.2938 72.648C77.3104 73.7333 77.6642 74.7868 78.3063 75.6625L78.5936 76.0544L78.2101 76.3528C76.5033 77.6807 75.5888 79.2254 75.5888 80.8253C75.5888 82.1806 76.2494 83.4945 77.4931 84.6816L78.0064 85.1716L77.3723 85.4901C76.1001 86.1291 75.0308 87.1087 74.2835 88.3196C73.5363 89.5305 73.1405 90.925 73.1404 92.3476L105.095 84.8487ZM105.095 84.8487L105.812 85.1003M105.095 84.8487L105.812 85.1003M105.812 85.1003C107.314 85.6277 108.616 86.6083 109.537 87.9065C110.457 89.2047 110.951 90.7565 110.951 92.3475C110.951 94.3838 110.142 96.3368 108.701 97.7768C107.259 99.2168 105.305 100.026 103.267 100.026H80.8252C78.7869 100.026 76.8322 99.2168 75.3911 97.7768C73.9499 96.3368 73.1404 94.3839 73.1404 92.3476L105.812 85.1003Z" fill="#9B8CFF" stroke="#9B8CFF"/>
<path d="M94.2561 75.6416C94.2561 76.6295 92.9558 77.4338 91.3416 77.4338C89.7273 77.4338 88.427 76.6318 88.427 75.6416" stroke="#020202" stroke-width="0.5" stroke-linecap="round" stroke-linejoin="round"/>
<path d="M70.5263 90.7437C70.5263 90.7437 68.5657 80.9461 76.6708 79.4393" stroke="#020202" stroke-width="0.5" stroke-linecap="round" stroke-linejoin="round"/>
<path d="M80.8554 99.2397L79.6429 104.273L77.3657 104.789" stroke="#020202" stroke-width="0.5" stroke-linecap="round" stroke-linejoin="round"/>
<path d="M102.578 99.2397L103.322 104.365L105.543 105.091" stroke="#020202" stroke-width="0.5" stroke-linecap="round" stroke-linejoin="round"/>
<path d="M89.2783 74.9153C89.7485 74.9153 90.1296 74.4988 90.1296 73.985C90.1296 73.4712 89.7485 73.0547 89.2783 73.0547C88.8081 73.0547 88.427 73.4712 88.427 73.985C88.427 74.4988 88.8081 74.9153 89.2783 74.9153Z" fill="#221F20"/>
<path d="M93.4526 74.9153C93.9228 74.9153 94.3039 74.4988 94.3039 73.985C94.3039 73.4712 93.9228 73.0547 93.4526 73.0547C92.9825 73.0547 92.6013 73.4712 92.6013 73.985C92.6013 74.4988 92.9825 74.9153 93.4526 74.9153Z" fill="#221F20"/>
<path d="M83.528 109.558C83.528 109.558 85.4045 100.192 77.6541 98.7514" stroke="#020202" stroke-width="0.5" stroke-linecap="round" stroke-linejoin="round"/>
<path d="M79.2072 104.896L79.722 104.337C80.6708 103.307 81.1726 102.188 81.1726 101.04C81.1726 99.5419 80.3217 98.0904 78.7364 96.8322L78.3572 96.5312L78.6458 96.1424C79.2736 95.297 79.6188 94.2754 79.6324 93.2228C79.631 91.188 78.2341 89.2573 75.7858 87.8078C73.3473 86.3641 69.9461 85.4551 66.1627 85.4551C62.3793 85.4551 58.9775 86.3641 56.5384 87.8078C54.0897 89.2572 52.6924 91.1877 52.6907 93.2222C52.7066 94.2551 53.0433 95.2577 53.6544 96.0911L53.9417 96.483L53.5582 96.7814C51.9298 98.0484 51.0608 99.5192 51.0608 101.04C51.0608 102.328 51.6885 103.578 52.8745 104.71L53.3878 105.2L52.7537 105.519C51.5412 106.128 50.522 107.061 49.8097 108.216C49.0975 109.37 48.7203 110.699 48.7202 112.055L79.2072 104.896ZM79.2072 104.896L79.9242 105.147M79.2072 104.896L79.9242 105.147M79.9242 105.147C81.3562 105.65 82.5966 106.584 83.474 107.822C84.3515 109.059 84.8226 110.538 84.8225 112.055C84.8225 113.995 84.0509 115.857 82.6774 117.229C81.3038 118.602 79.4407 119.373 77.498 119.373H56.0447C54.102 119.373 52.2389 118.602 50.8654 117.229C49.4918 115.857 48.7202 113.995 48.7202 112.055L79.9242 105.147Z" fill="#DBDDFC" stroke="#DBDDFC"/>
<path d="M46.1993 110.521C46.1993 110.521 44.325 101.155 52.0732 99.7148" stroke="#020202" stroke-width="0.5" stroke-linecap="round" stroke-linejoin="round"/>
<path d="M56.0736 118.643L54.9145 123.455L52.7375 123.948" stroke="#020202" stroke-width="0.5" stroke-linecap="round" stroke-linejoin="round"/>
<path d="M76.8398 118.643L77.5514 123.543L79.674 124.237" stroke="#020202" stroke-width="0.5" stroke-linecap="round" stroke-linejoin="round"/>
<path d="M64.1468 92.4252C64.5963 92.4252 64.9607 92.027 64.9607 91.5358C64.9607 91.0447 64.5963 90.6465 64.1468 90.6465C63.6974 90.6465 63.333 91.0447 63.333 91.5358C63.333 92.027 63.6974 92.4252 64.1468 92.4252Z" fill="#221F20"/>
<path d="M68.1373 92.4257C68.5868 92.4257 68.9512 92.0275 68.9512 91.5363C68.9512 91.0452 68.5868 90.647 68.1373 90.647C67.6879 90.647 67.3235 91.0452 67.3235 91.5363C67.3235 92.0275 67.6879 92.4257 68.1373 92.4257Z" fill="#221F20"/>
<path d="M69.2249 93.8892C69.2249 94.8771 67.9245 95.6813 66.3103 95.6813C64.6961 95.6813 63.3958 94.8793 63.3958 93.8892" stroke="#020202" stroke-width="0.5" stroke-linecap="round" stroke-linejoin="round"/>
<path d="M134.84 107.046C134.84 107.046 136.643 98.0454 129.195 96.6612" stroke="#020202" stroke-width="0.5" stroke-linecap="round" stroke-linejoin="round"/>
<path d="M130.653 102.574L131.168 102.015C132.077 101.028 132.556 99.9576 132.556 98.8601C132.556 97.4288 131.743 96.0389 130.223 94.832L129.843 94.531L130.132 94.1423C130.733 93.3331 131.063 92.3554 131.076 91.348C131.075 89.4023 129.739 87.5522 127.389 86.1611C125.049 84.7758 121.784 83.9028 118.151 83.9028C114.518 83.9028 111.253 84.7758 108.912 86.1611C106.562 87.5521 105.226 89.402 105.224 91.3474C105.24 92.3359 105.562 93.2954 106.147 94.093L106.434 94.4849L106.05 94.7833C104.488 95.9987 103.658 97.4071 103.658 98.8601C103.658 100.091 104.258 101.288 105.395 102.373L105.908 102.863L105.274 103.182C104.112 103.766 103.135 104.66 102.453 105.766C101.77 106.872 101.409 108.146 101.409 109.446L130.653 102.574ZM130.653 102.574L131.37 102.826M130.653 102.574L131.37 102.826M131.37 102.826C132.742 103.308 133.931 104.203 134.772 105.389C135.613 106.575 136.064 107.992 136.064 109.445C136.064 111.305 135.325 113.089 134.008 114.405C132.692 115.72 130.906 116.459 129.045 116.459H108.428C106.566 116.459 104.781 115.72 103.464 114.405C102.148 113.089 101.409 111.305 101.409 109.446L131.37 102.826Z" fill="#C4C7FF" stroke="#C3C7FF"/>
<path d="M98.9666 107.972C98.9666 107.972 97.1654 98.9712 104.612 97.587" stroke="#020202" stroke-width="0.5" stroke-linecap="round" stroke-linejoin="round"/>
<path d="M108.456 115.777L107.342 120.401L105.25 120.875" stroke="#020202" stroke-width="0.5" stroke-linecap="round" stroke-linejoin="round"/>
<path d="M128.412 115.777L129.096 120.485L131.136 121.152" stroke="#020202" stroke-width="0.5" stroke-linecap="round" stroke-linejoin="round"/>
<path d="M116.114 90.5448C116.546 90.5448 116.896 90.1621 116.896 89.6901C116.896 89.2181 116.546 88.8354 116.114 88.8354C115.682 88.8354 115.332 89.2181 115.332 89.6901C115.332 90.1621 115.682 90.5448 116.114 90.5448Z" fill="#221F20"/>
<path d="M119.949 90.5453C120.381 90.5453 120.731 90.1626 120.731 89.6906C120.731 89.2186 120.381 88.8359 119.949 88.8359C119.517 88.8359 119.167 89.2186 119.167 89.6906C119.167 90.1626 119.517 90.5453 119.949 90.5453Z" fill="#221F20"/>
<path d="M120.829 92C120.829 92.9879 119.529 93.7922 117.915 93.7922C116.3 93.7922 115 92.9902 115 92" stroke="#020202" stroke-width="0.5" stroke-linecap="round" stroke-linejoin="round"/>
<defs>
<filter id="filter0_d_1128_354" x="20.1262" y="139.62" width="32.2432" height="30.1841" filterUnits="userSpaceOnUse" color-interpolation-filters="sRGB">
<feFlood flood-opacity="0" result="BackgroundImageFix"/>
<feColorMatrix in="SourceAlpha" type="matrix" values="0 0 0 0 0 0 0 0 0 0 0 0 0 0 0 0 0 0 127 0" result="hardAlpha"/>
<feOffset dy="4"/>
<feGaussianBlur stdDeviation="2"/>
<feComposite in2="hardAlpha" operator="out"/>
<feColorMatrix type="matrix" values="0 0 0 0 0 0 0 0 0 0 0 0 0 0 0 0 0 0 0.25 0"/>
<feBlend mode="normal" in2="BackgroundImageFix" result="effect1_dropShadow_1128_354"/>
<feBlend mode="normal" in="SourceGraphic" in2="effect1_dropShadow_1128_354" result="shape"/>
</filter>
<filter id="filter1_d_1128_354" x="0.498047" y="0.768066" width="178.055" height="140.881" filterUnits="userSpaceOnUse" color-interpolation-filters="sRGB">
<feFlood flood-opacity="0" result="BackgroundImageFix"/>
<feColorMatrix in="SourceAlpha" type="matrix" values="0 0 0 0 0 0 0 0 0 0 0 0 0 0 0 0 0 0 127 0" result="hardAlpha"/>
<feOffset dy="4"/>
<feGaussianBlur stdDeviation="2"/>
<feComposite in2="hardAlpha" operator="out"/>
<feColorMatrix type="matrix" values="0 0 0 0 0 0 0 0 0 0 0 0 0 0 0 0 0 0 0.25 0"/>
<feBlend mode="normal" in2="BackgroundImageFix" result="effect1_dropShadow_1128_354"/>
<feBlend mode="normal" in="SourceGraphic" in2="effect1_dropShadow_1128_354" result="shape"/>
</filter>
</defs>
</svg>
