<svg width="189" height="190" viewBox="0 0 189 190" fill="none" xmlns="http://www.w3.org/2000/svg">
<path d="M161.069 79C161.069 79 167.161 109.406 142 114.082" stroke="#2855F6" stroke-width="1.5" stroke-linecap="round" stroke-linejoin="round"/>
<path d="M144.674 123.68L144.159 124.239L144.876 124.491C149.745 126.199 153.962 129.377 156.945 133.583C159.928 137.79 161.53 142.819 161.529 147.974C161.529 154.573 158.906 160.901 154.236 165.567C149.566 170.233 143.233 172.855 136.628 172.855H66.9836C60.3793 172.855 54.0457 170.233 49.3759 165.567C44.7061 160.901 42.0828 154.573 42.0828 147.974C42.0832 143.364 43.3657 138.845 45.7871 134.922C48.2085 130.998 51.6737 127.823 55.7958 125.753L56.43 125.434L55.9166 124.944C51.9154 121.125 49.6812 116.79 49.6812 112.216C49.6812 106.816 52.7711 101.747 58.222 97.5056L58.6055 97.2073L58.3182 96.8154C56.1949 93.9195 55.0256 90.4354 54.9724 86.846C54.9741 79.6813 59.8853 73.106 68.0143 68.2945C76.1335 63.4886 87.3817 60.5 99.8299 60.5C112.278 60.5 123.524 63.4886 131.642 68.2944C139.769 73.1061 144.679 79.6816 144.68 86.8466C144.635 90.5026 143.436 94.0511 141.256 96.9875L140.967 97.3762L141.347 97.6772C146.654 101.889 149.68 106.894 149.68 112.216C149.68 116.293 147.894 120.184 144.674 123.68Z" fill="#FFB1CE" stroke="#2855F6"/>
<path d="M33.6469 79C33.6469 79 27.5623 109.406 52.7156 114.082" stroke="#2855F6" stroke-width="1.5" stroke-linecap="round" stroke-linejoin="round"/>
<path d="M67.077 169.363L63.3142 184.984L56.2471 186.584" stroke="#2855F6" stroke-width="1.5" stroke-linecap="round" stroke-linejoin="round"/>
<path d="M134.491 169.363L136.801 185.269L143.692 187.522" stroke="#2855F6" stroke-width="1.5" stroke-linecap="round" stroke-linejoin="round"/>
<path d="M95.0526 97.1131C96.5117 97.1131 97.6946 95.8205 97.6946 94.226C97.6946 92.6315 96.5117 91.3389 95.0526 91.3389C93.5935 91.3389 92.4106 92.6315 92.4106 94.226C92.4106 95.8205 93.5935 97.1131 95.0526 97.1131Z" fill="#2855F6"/>
<path d="M105.499 97.1131C106.958 97.1131 108.141 95.8205 108.141 94.226C108.141 92.6315 106.958 91.3389 105.499 91.3389C104.04 91.3389 102.857 92.6315 102.857 94.226C102.857 95.8205 104.04 97.1131 105.499 97.1131Z" fill="#2855F6"/>
<path d="M110.173 101.784C110.173 104.991 105.952 107.602 100.712 107.602C95.4713 107.602 91.25 104.999 91.25 101.784" stroke="#2855F6" stroke-linecap="round" stroke-linejoin="round"/>
<circle cx="86.5" cy="98.5" r="2.5" fill="#E37B72"/>
<circle cx="115.5" cy="98.5" r="2.5" fill="#E37B72"/>
<path d="M170 37C169.111 45.2353 162.963 48.2745 160 48.7647C167.111 49.9412 169.63 58.0784 170 62C171.778 52.5882 177.407 49.2549 180 48.7647C172.889 47.5882 170.37 40.4314 170 37Z" fill="#8579D4"/>
<path d="M182.5 128C181.922 133.271 177.926 135.216 176 135.529C180.622 136.282 182.259 141.49 182.5 144C183.656 137.976 187.315 135.843 189 135.529C184.378 134.776 182.741 130.196 182.5 128Z" fill="#8579D4"/>
<path d="M124 -5.00078e-09C123.467 4.94118 119.778 6.76471 118 7.05882C122.267 7.76471 123.778 12.6471 124 15C125.067 9.35294 128.444 7.35294 130 7.05882C125.733 6.35294 124.222 2.05882 124 -5.00078e-09Z" fill="#8579D4"/>
<path d="M49 23C48.3778 28.6 44.0741 30.6667 42 31C46.9778 31.8 48.7407 37.3333 49 40C50.2444 33.6 54.1852 31.3333 56 31C51.0222 30.2 49.2593 25.3333 49 23Z" fill="#8579D4"/>
<path d="M10 79C9.11111 87.2353 2.96296 90.2745 9.80545e-09 90.7647C7.11111 91.9412 9.62963 100.078 10 104C11.7778 94.5882 17.4074 91.2549 20 90.7647C12.8889 89.5882 10.3704 82.4314 10 79Z" fill="#8579D4"/>
</svg>
