<svg width="166" height="175" viewBox="0 0 166 175" fill="none" xmlns="http://www.w3.org/2000/svg">
<g filter="url(#filter0_d_1795_500)">
<path d="M154.424 103.862C154.424 103.862 162.346 64.3229 129.627 58.2421" stroke="#020202" stroke-width="2" stroke-linecap="round" stroke-linejoin="round"/>
<path d="M5.84116 103.927C5.84116 103.927 -2.07112 64.3873 30.638 58.3065" stroke="#020202" stroke-width="2" stroke-linecap="round" stroke-linejoin="round"/>
<path d="M139.91 83.2494C144.178 78.6155 146.592 73.4047 146.592 67.9008C146.592 60.7135 142.503 54.0369 135.509 48.4857C138.427 44.5563 140.03 39.8075 140.09 34.915C140.09 15.6323 113.684 0 81.1169 0C48.5497 0 22.1344 15.6323 22.1344 34.915C22.2047 39.7194 23.7692 44.3828 26.6111 48.2588C19.4276 53.8478 15.2538 60.6095 15.2538 67.9008C15.2538 74.0762 18.273 79.8733 23.5636 84.9233C18.0956 87.6697 13.499 91.8805 10.2869 97.0857C7.07475 102.291 5.37347 108.285 5.37292 114.401C5.37292 123.154 8.85295 131.549 15.0474 137.738C21.2419 143.928 29.6435 147.405 38.4038 147.405H128.969C137.729 147.405 146.131 143.928 152.325 137.738C158.52 131.549 162 123.154 162 114.401C162.001 107.562 159.876 100.891 155.918 95.3109C151.961 89.7306 146.368 85.516 139.91 83.2494Z" fill="#FACF63"/>
<path d="M38.5252 142.214L33.6321 162.528L24.4421 164.608" stroke="#020202" stroke-width="2" stroke-linecap="round" stroke-linejoin="round"/>
<path d="M126.19 142.214L129.194 162.898L138.155 165.828" stroke="#020202" stroke-width="2" stroke-linecap="round" stroke-linejoin="round"/>
</g>
<path d="M64 30C64 32.2091 66.4624 34 69.5 34C72.5376 34 75 32.2091 75 30" stroke="black" stroke-linecap="round"/>
<path d="M84 30C84 32.2091 86.4624 34 89.5 34C92.5376 34 95 32.2091 95 30" stroke="black" stroke-linecap="round"/>
<path d="M89 43C88.15 44.125 85.1944 46 80.5 46C75.8056 46 73 44.5 72 43" stroke="black" stroke-linecap="round"/>
<defs>
<filter id="filter0_d_1795_500" x="0" y="0" width="166" height="174.829" filterUnits="userSpaceOnUse" color-interpolation-filters="sRGB">
<feFlood flood-opacity="0" result="BackgroundImageFix"/>
<feColorMatrix in="SourceAlpha" type="matrix" values="0 0 0 0 0 0 0 0 0 0 0 0 0 0 0 0 0 0 127 0" result="hardAlpha"/>
<feOffset dy="4"/>
<feGaussianBlur stdDeviation="2"/>
<feComposite in2="hardAlpha" operator="out"/>
<feColorMatrix type="matrix" values="0 0 0 0 0 0 0 0 0 0 0 0 0 0 0 0 0 0 0.25 0"/>
<feBlend mode="normal" in2="BackgroundImageFix" result="effect1_dropShadow_1795_500"/>
<feBlend mode="normal" in="SourceGraphic" in2="effect1_dropShadow_1795_500" result="shape"/>
</filter>
</defs>
</svg>
