<svg width="293" height="339" viewBox="0 0 293 339" fill="none" xmlns="http://www.w3.org/2000/svg">
<path d="M31.8516 118.717C49.4427 118.717 63.7032 105.43 63.7032 89.038C63.7032 72.6466 49.4427 59.3586 31.8516 59.3586C14.2604 59.3586 0 72.6466 0 89.038C0 105.43 14.2604 118.717 31.8516 118.717Z" fill="#F3746E"/>
<path d="M261.148 118.717C278.739 118.717 293 105.43 293 89.038C293 72.6466 278.739 59.3586 261.148 59.3586C243.557 59.3586 229.297 72.6466 229.297 89.038C229.297 105.43 243.557 118.717 261.148 118.717Z" fill="#F3746E"/>
<path d="M89.4833 128.229C119.788 128.229 144.354 103.662 144.354 73.3576C144.354 43.0532 119.788 18.4866 89.4833 18.4866C59.1789 18.4866 34.6123 43.0532 34.6123 73.3576C34.6123 103.662 59.1789 128.229 89.4833 128.229Z" fill="#FCF2F2" stroke="#E37B72" stroke-width="3" stroke-miterlimit="10"/>
<path d="M206.278 128.229C236.582 128.229 261.149 103.662 261.149 73.3576C261.149 43.0532 236.582 18.4866 206.278 18.4866C175.973 18.4866 151.406 43.0532 151.406 73.3576C151.406 103.662 175.973 128.229 206.278 128.229Z" fill="#FCF2F2" stroke="#E37B72" stroke-width="3" stroke-miterlimit="10"/>
<path d="M148.699 118.718C183.881 118.718 212.402 92.1417 212.402 59.3588C212.402 26.5758 183.881 0 148.699 0C113.516 0 84.9954 26.5758 84.9954 59.3588C84.9954 92.1417 113.516 118.718 148.699 118.718Z" fill="#F3746E"/>
<path d="M31.8515 112.548C31.8515 112.548 29.9433 182.866 84.9953 213.45" stroke="#E37B72" stroke-width="2" stroke-miterlimit="10"/>
<path d="M263.321 116.093C263.321 116.093 265.229 183.974 210.177 213.458" stroke="#E37B72" stroke-width="2" stroke-miterlimit="10"/>
<path d="M84.9954 128.221C84.9954 128.221 85.7496 195.009 124.525 219.756" stroke="#E37B72" stroke-width="2" stroke-miterlimit="10"/>
<path d="M206.277 128.221C206.277 128.221 205.561 195.009 166.748 219.756" stroke="#E37B72" stroke-width="2" stroke-miterlimit="10"/>
<path d="M210.577 213.45C210.577 213.45 216.89 244.985 190.816 249.835" stroke="#020202" stroke-width="4" stroke-linecap="round" stroke-linejoin="round"/>
<path d="M196.714 273.789C200.115 270.094 202.039 265.938 202.039 261.548C202.039 255.816 198.78 250.491 193.206 246.063C195.532 242.93 196.809 239.142 196.857 235.24C196.857 219.861 175.814 207.394 149.86 207.394C123.907 207.394 102.856 219.861 102.856 235.24C102.912 239.072 104.159 242.791 106.423 245.882C100.699 250.34 97.3726 255.733 97.3726 261.548C97.3726 266.473 99.7786 271.097 103.995 275.124C99.6372 277.315 95.9741 280.673 93.4143 284.825C90.8545 288.976 89.4987 293.757 89.4983 298.634C89.4983 305.615 92.2716 312.311 97.2081 317.247C102.145 322.184 108.84 324.957 115.821 324.957H187.995C194.976 324.957 201.671 322.184 206.608 317.247C211.544 312.311 214.318 305.615 214.318 298.634C214.318 293.18 212.625 287.86 209.471 283.409C206.318 278.958 201.86 275.597 196.714 273.789Z" fill="#FFD15A"/>
<path d="M84.9955 213.45C84.9955 213.45 78.6901 244.985 104.757 249.835" stroke="#020202" stroke-width="4" stroke-linecap="round" stroke-linejoin="round"/>
<path d="M105.767 318.327L101.868 334.528L94.5442 336.188" stroke="#020202" stroke-width="4" stroke-linecap="round" stroke-linejoin="round"/>
<path d="M200.938 316.419L215.261 324.927L221.566 320.839" stroke="#020202" stroke-width="4" stroke-linecap="round" stroke-linejoin="round"/>
<path d="M143.049 232.676C145.086 232.676 146.738 230.704 146.738 228.271C146.738 225.838 145.086 223.866 143.049 223.866C141.012 223.866 139.361 225.838 139.361 228.271C139.361 230.704 141.012 232.676 143.049 232.676Z" fill="white"/>
<path d="M143.343 232.676C144.855 232.676 146.081 231.335 146.081 229.682C146.081 228.028 144.855 226.687 143.343 226.687C141.831 226.687 140.605 228.028 140.605 229.682C140.605 231.335 141.831 232.676 143.343 232.676Z" fill="#221F20"/>
<path d="M156.475 232.676C158.512 232.676 160.163 230.704 160.163 228.271C160.163 225.838 158.512 223.866 156.475 223.866C154.438 223.866 152.786 225.838 152.786 228.271C152.786 230.704 154.438 232.676 156.475 232.676Z" fill="white"/>
<path d="M156.769 232.676C158.281 232.676 159.507 231.335 159.507 229.682C159.507 228.028 158.281 226.687 156.769 226.687C155.257 226.687 154.031 228.028 154.031 229.682C154.031 231.335 155.257 232.676 156.769 232.676Z" fill="#221F20"/>
<path d="M139.678 240.007C141.703 240.007 143.344 238.366 143.344 236.341C143.344 234.317 141.703 232.676 139.678 232.676C137.654 232.676 136.012 234.317 136.012 236.341C136.012 238.366 137.654 240.007 139.678 240.007Z" fill="#F0524A"/>
<path d="M160.163 240.007C162.188 240.007 163.829 238.366 163.829 236.341C163.829 234.317 162.188 232.676 160.163 232.676C158.139 232.676 156.498 234.317 156.498 236.341C156.498 238.366 158.139 240.007 160.163 240.007Z" fill="#F0524A"/>
<path d="M160.163 237.473C160.163 240.799 155.789 243.507 150.358 243.507C144.928 243.507 140.553 240.807 140.553 237.473" stroke="#020202" stroke-width="2" stroke-linecap="round" stroke-linejoin="round"/>
</svg>
