<svg width="249" height="272" viewBox="0 0 272 249" fill="none" xmlns="http://www.w3.org/2000/svg">
<g filter="url(#filter0_d_531_133)">
<path d="M58.3974 91.1464C71.1364 94.0044 83.6222 86.6985 86.2852 74.8283C88.9482 62.9581 80.7801 51.0185 68.0411 48.1606C55.3021 45.3027 42.8163 52.6086 40.1533 64.4788C37.4902 76.349 45.6584 88.2885 58.3974 91.1464Z" fill="#F3746E"/>
<path d="M224.448 128.399C237.187 131.257 249.672 123.951 252.335 112.081C254.999 100.211 246.83 88.2711 234.091 85.4132C221.352 82.5552 208.867 89.8611 206.204 101.731C203.541 113.602 211.709 125.541 224.448 128.399Z" fill="#F3746E"/>
<path d="M98.5874 107.397C120.533 112.32 142.315 98.5212 147.238 76.5756C152.161 54.6301 138.362 32.8485 116.417 27.9251C94.4711 23.0017 72.6895 36.8009 67.7661 58.7465C62.8427 80.692 76.6419 102.474 98.5874 107.397Z" fill="#FCF2F2" stroke="#E37B72" stroke-width="3" stroke-miterlimit="10"/>
<path d="M183.166 126.372C205.112 131.295 226.893 117.496 231.817 95.5506C236.74 73.605 222.941 51.8235 200.995 46.9001C179.05 41.9767 157.268 55.7759 152.345 77.7214C147.421 99.667 161.22 121.449 183.166 126.372Z" fill="#FCF2F2" stroke="#E37B72" stroke-width="3" stroke-miterlimit="10"/>
<path d="M143.014 110.13C168.492 115.846 193.464 101.234 198.79 77.4936C204.116 53.7531 187.78 29.8741 162.302 24.1582C136.824 18.4423 111.852 33.0541 106.526 56.7946C101.2 80.535 117.537 104.414 143.014 110.13Z" fill="#F3746E"/>
<path d="M59.3999 86.6784C59.3999 86.6784 46.5938 137.291 81.492 168.383" stroke="#E37B72" stroke-width="2" stroke-miterlimit="10"/>
<path d="M226.447 126.851C226.447 126.851 216.801 176.319 172.144 188.726" stroke="#E37B72" stroke-width="2" stroke-miterlimit="10"/>
<path d="M95.3389 106.663C95.3389 106.663 85.0344 155.151 109.094 179.371" stroke="#E37B72" stroke-width="2" stroke-miterlimit="10"/>
<path d="M183.168 126.367C183.168 126.367 171.798 174.616 139.67 186.231" stroke="#E37B72" stroke-width="2" stroke-miterlimit="10"/>
<path d="M172.434 188.786C172.434 188.786 171.883 212.648 152.213 211.924" stroke="#020202" stroke-width="2" stroke-linecap="round" stroke-linejoin="round"/>
<path d="M152.593 230.229C155.657 228.105 157.725 225.408 158.438 222.229C159.369 218.078 157.875 213.693 154.558 209.581C156.751 207.689 158.291 205.154 158.96 202.336C161.458 191.199 148.245 178.752 129.45 174.535C110.655 170.319 93.3854 175.927 90.8869 187.064C90.3049 189.848 90.6036 192.744 91.7414 195.351C86.8716 197.649 83.5867 201.014 82.6419 205.225C81.8418 208.791 82.833 212.531 85.2319 216.132C81.7204 217.01 78.5221 218.847 75.9939 221.438C73.4657 224.028 71.7071 227.27 70.9145 230.802V230.802C69.7802 235.858 70.7008 241.157 73.4737 245.534C76.2466 249.911 80.6446 253.007 85.7002 254.141L137.966 265.867C143.022 267.001 148.321 266.08 152.698 263.307C157.075 260.534 160.171 256.136 161.305 251.081C162.191 247.131 161.829 243.003 160.269 239.268C158.708 235.533 156.026 232.374 152.593 230.229V230.229Z" fill="#FFD15A"/>
<path d="M81.4923 168.383C81.4923 168.383 71.8028 190.195 89.8915 197.942" stroke="#020202" stroke-width="2" stroke-linecap="round" stroke-linejoin="round"/>
<path d="M79.4956 247.707L74.0396 258.805L68.4665 258.817" stroke="#020202" stroke-width="2" stroke-linecap="round" stroke-linejoin="round"/>
<path d="M148.725 261.786L157.715 270.274L162.946 268.339" stroke="#020202" stroke-width="2" stroke-linecap="round" stroke-linejoin="round"/>
<path d="M120.41 191.737C121.885 192.068 123.401 190.908 123.796 189.146C124.191 187.385 123.316 185.688 121.841 185.357C120.366 185.026 118.85 186.186 118.454 187.948C118.059 189.71 118.934 191.406 120.41 191.737Z" fill="white"/>
<path d="M120.623 191.785C121.718 192.031 122.823 191.259 123.092 190.062C123.36 188.864 122.691 187.694 121.595 187.448C120.5 187.203 119.395 187.974 119.126 189.172C118.858 190.37 119.528 191.54 120.623 191.785Z" fill="#221F20"/>
<path d="M130.132 193.919C131.607 194.25 133.123 193.09 133.518 191.328C133.914 189.566 133.038 187.87 131.563 187.539C130.088 187.208 128.572 188.368 128.176 190.13C127.781 191.891 128.657 193.588 130.132 193.919Z" fill="white"/>
<path d="M130.345 193.966C131.44 194.212 132.545 193.44 132.814 192.243C133.083 191.045 132.413 189.875 131.318 189.63C130.223 189.384 129.117 190.156 128.848 191.353C128.58 192.551 129.25 193.721 130.345 193.966Z" fill="#221F20"/>
<path d="M116.776 196.498C118.243 196.827 119.698 195.906 120.027 194.439C120.355 192.973 119.434 191.518 117.968 191.189C116.501 190.861 115.046 191.782 114.717 193.248C114.389 194.714 115.31 196.17 116.776 196.498Z" fill="#F0524A"/>
<path d="M131.611 199.827C133.077 200.156 134.533 199.234 134.861 197.768C135.19 196.302 134.269 194.847 132.802 194.518C131.336 194.189 129.881 195.111 129.552 196.577C129.224 198.043 130.145 199.498 131.611 199.827Z" fill="#F0524A"/>
<path d="M132.023 197.992C131.483 200.4 127.875 201.65 123.942 200.768C120.009 199.886 117.28 197.22 117.822 194.806" stroke="#020202" stroke-width="2" stroke-linecap="round" stroke-linejoin="round"/>
</g>
<defs>
<filter id="filter0_d_531_133" x="35.6499" y="22.9197" width="221.189" height="256.355" filterUnits="userSpaceOnUse" color-interpolation-filters="sRGB">
<feFlood flood-opacity="0" result="BackgroundImageFix"/>
<feColorMatrix in="SourceAlpha" type="matrix" values="0 0 0 0 0 0 0 0 0 0 0 0 0 0 0 0 0 0 127 0" result="hardAlpha"/>
<feOffset dy="4"/>
<feGaussianBlur stdDeviation="2"/>
<feComposite in2="hardAlpha" operator="out"/>
<feColorMatrix type="matrix" values="0 0 0 0 0 0 0 0 0 0 0 0 0 0 0 0 0 0 0.25 0"/>
<feBlend mode="normal" in2="BackgroundImageFix" result="effect1_dropShadow_531_133"/>
<feBlend mode="normal" in="SourceGraphic" in2="effect1_dropShadow_531_133" result="shape"/>
</filter>
</defs>
</svg>
