<svg width="179" height="186" viewBox="0 0 179 186" fill="none" xmlns="http://www.w3.org/2000/svg">
<g filter="url(#filter0_d_1672_1369)">
<path d="M171.498 102.117C171.498 102.117 179.701 61.1753 145.822 54.8789" stroke="#020202" stroke-width="2" stroke-linecap="round" stroke-linejoin="round"/>
<path d="M149.871 86.2012C154.291 81.403 156.79 76.0074 156.79 70.3083C156.79 62.8662 152.556 55.9529 145.314 50.2049C148.335 46.1361 149.995 41.2189 150.057 36.153C150.057 16.1866 122.715 0 88.993 0C55.2711 0 27.9193 16.1866 27.9193 36.153C27.992 41.1277 29.612 45.9565 32.5547 49.9699C25.1165 55.7571 20.7947 62.7585 20.7947 70.3083C20.7947 76.7027 23.9209 82.7053 29.3991 87.9344C23.7372 90.7782 18.9776 95.1383 15.6516 100.528C12.3256 105.918 10.564 112.125 10.5634 118.457C10.5634 127.521 14.1669 136.213 20.581 142.622C26.9951 149.031 35.6946 152.632 44.7655 152.632H138.542C147.613 152.632 156.312 149.031 162.726 142.622C169.141 136.213 172.744 127.521 172.744 118.457C172.745 111.375 170.544 104.468 166.447 98.6903C162.349 92.9122 156.557 88.5482 149.871 86.2012Z" fill="#FACF63"/>
<path d="M5.83969 100.59C5.83969 100.59 0.279442 60.6516 33.2909 56.5157" stroke="#020202" stroke-width="2" stroke-linecap="round" stroke-linejoin="round"/>
<path fill-rule="evenodd" clip-rule="evenodd" d="M153.143 88.5266C156.943 84.0385 159.381 78.2285 159.899 70.7178C159.015 43.5017 115.287 40.5147 82.9674 41.6025C56.2478 42.5019 22.3206 45.4416 18.2385 70.7178C17.9698 78.6018 20.5608 84.7836 25.092 89.5404C14.2643 95.3875 6.6904 105.357 5 122.294C5 158.031 55.1106 157.599 84.8448 157.343C87.2029 157.322 89.4328 157.303 91.4995 157.303C93.3512 157.303 95.3202 157.316 97.383 157.33C126.653 157.527 174.815 157.851 174.815 122.294C174.815 104.299 166.614 94.1848 153.143 88.5266Z" fill="#FACF63"/>
<path d="M119.835 91.653C121.054 91.5168 110.449 95.2604 86.7912 95.3041C65.5725 95.3433 51.9275 91.2504 52.6592 91.2491C54.1223 91.1058 62.8893 94.2476 86.7916 94.6254C102.645 94.5961 114.714 92.2252 119.835 91.653Z" fill="#D7B152"/>
<path d="M44.4333 152.212L39.3667 173.246L29.8509 175.4" stroke="#020202" stroke-width="2" stroke-linecap="round" stroke-linejoin="round"/>
<path d="M133.702 152.212L136.813 173.629L146.091 176.663" stroke="#020202" stroke-width="2" stroke-linecap="round" stroke-linejoin="round"/>
</g>
<path d="M71.199 33.3682C71.199 35.4876 73.7763 37.2058 76.9555 37.2058C80.1347 37.2058 82.7119 35.4876 82.7119 33.3682" stroke="black" stroke-linecap="round"/>
<path d="M92.306 33.3682C92.306 35.4876 94.8832 37.2058 98.0624 37.2058C101.242 37.2058 103.819 35.4876 103.819 33.3682" stroke="black" stroke-linecap="round"/>
<path d="M90.8467 50.1982C90.8467 52.4307 89.4575 54.0155 87.9888 54.0155C86.5201 54.0155 85.1309 52.4307 85.1309 50.1982C85.1309 47.9657 86.5201 46.3809 87.9888 46.3809C89.4575 46.3809 90.8467 47.9657 90.8467 50.1982Z" stroke="black"/>
<path d="M96.5889 54.7785L98.966 56.2253C99.3001 56.4323 99.5793 56.7169 99.7798 57.055C99.9803 57.393 100.096 57.7745 100.118 58.167L100.192 59.3971C100.248 60.3519 100.799 61.2073 101.638 61.6074C102.204 61.8673 102.807 62.0386 103.425 62.1153C103.941 62.1841 104.435 62.3705 104.868 62.6599C105.301 62.9494 105.662 63.3342 105.923 63.785C105.962 63.8521 105.999 63.9209 106.036 63.9915C106.573 65.0743 107.346 66.0138 108.327 66.682C110.801 68.3663 115.202 69.8724 119.239 63.627C119.239 63.627 122.688 55.5578 115.417 54.0021C115.337 53.9852 115.256 53.966 115.177 53.9457C114.674 53.8131 112.221 53.2996 109.186 55.0911C109.186 55.0911 107.909 55.6357 106.373 53.6415C106.219 53.4327 106.077 53.2147 105.949 52.9887C105.652 52.4605 104.539 51.0633 101.767 52.9757C101.513 53.1567 101.284 53.3697 101.085 53.6094C100.888 53.839 100.376 54.142 99.0743 53.9344C98.8126 53.892 98.549 53.863 98.2844 53.8475C97.2062 53.7899 94.9245 53.7651 96.5889 54.7785Z" stroke="white" stroke-miterlimit="10"/>
<defs>
<filter id="filter0_d_1672_1369" x="0.486633" y="0" width="178.328" height="185.664" filterUnits="userSpaceOnUse" color-interpolation-filters="sRGB">
<feFlood flood-opacity="0" result="BackgroundImageFix"/>
<feColorMatrix in="SourceAlpha" type="matrix" values="0 0 0 0 0 0 0 0 0 0 0 0 0 0 0 0 0 0 127 0" result="hardAlpha"/>
<feOffset dy="4"/>
<feGaussianBlur stdDeviation="2"/>
<feComposite in2="hardAlpha" operator="out"/>
<feColorMatrix type="matrix" values="0 0 0 0 0 0 0 0 0 0 0 0 0 0 0 0 0 0 0.25 0"/>
<feBlend mode="normal" in2="BackgroundImageFix" result="effect1_dropShadow_1672_1369"/>
<feBlend mode="normal" in="SourceGraphic" in2="effect1_dropShadow_1672_1369" result="shape"/>
</filter>
</defs>
</svg>
