<svg width="172" height="180" viewBox="0 0 172 180" fill="none" xmlns="http://www.w3.org/2000/svg">
<g filter="url(#filter0_d_1672_1057)">
<path d="M164.797 98.6201C164.797 98.6201 172.719 59.0807 140 52.9999" stroke="#020202" stroke-width="2" stroke-linecap="round" stroke-linejoin="round"/>
<path d="M143.91 83.2494C148.178 78.6155 150.592 73.4047 150.592 67.9008C150.592 60.7135 146.503 54.0369 139.509 48.4857C142.427 44.5563 144.03 39.8075 144.09 34.915C144.09 15.6323 117.684 0 85.1169 0C52.5497 0 26.1344 15.6323 26.1344 34.915C26.2047 39.7194 27.7692 44.3828 30.6111 48.2588C23.4276 53.8478 19.2538 60.6095 19.2538 67.9008C19.2538 74.0762 22.273 79.8733 27.5636 84.9233C22.0956 87.6697 17.499 91.8805 14.2869 97.0857C11.0747 102.291 9.37347 108.285 9.37292 114.401C9.37292 123.154 12.853 131.549 19.0474 137.738C25.2419 143.928 33.6435 147.405 42.4038 147.405H132.969C141.729 147.405 150.131 143.928 156.325 137.738C162.52 131.549 166 123.154 166 114.401C166.001 107.562 163.876 100.891 159.918 95.3109C155.961 89.7306 150.368 85.516 143.91 83.2494Z" fill="#FACF63"/>
<path d="M9.83969 96.5898C9.83969 96.5898 4.27944 56.6516 37.2909 52.5157" stroke="#020202" stroke-width="2" stroke-linecap="round" stroke-linejoin="round"/>
<path fill-rule="evenodd" clip-rule="evenodd" d="M147.071 85.4952C150.74 81.1609 153.094 75.5499 153.595 68.2966C152.741 42.0124 110.511 39.1277 79.2974 40.1783C53.4927 41.0468 20.7272 43.8858 16.7849 68.2966C16.5255 75.9105 19.0277 81.8806 23.4037 86.4745C12.947 92.1214 5.6325 101.749 4 118.107C4 152.62 52.3947 152.202 81.1107 151.955C83.388 151.935 85.5416 151.917 87.5375 151.917C89.3258 151.917 91.2274 151.929 93.2196 151.943C121.487 152.133 168 152.445 168 118.107C168 100.728 160.08 90.9597 147.071 85.4952Z" fill="#FACF63"/>
<path d="M114.903 88.5145C116.08 88.3829 105.838 91.9984 82.9903 92.0406C62.4983 92.0785 49.3205 88.1257 50.0272 88.1245C51.4402 87.9861 59.907 91.0203 82.9907 91.3852C98.3009 91.3569 109.957 89.0671 114.903 88.5145Z" fill="#D7B152"/>
<path d="M42.0831 147L37.19 167.314L28.0001 169.394" stroke="#020202" stroke-width="2" stroke-linecap="round" stroke-linejoin="round"/>
<path d="M128.296 147L131.299 167.683L140.26 170.614" stroke="#020202" stroke-width="2" stroke-linecap="round" stroke-linejoin="round"/>
</g>
<path d="M68 32C68 34.2091 70.4624 36 73.5 36C76.5376 36 79 34.2091 79 32" stroke="black" stroke-linecap="round"/>
<path d="M88 32C88 34.2091 90.4624 36 93.5 36C96.5376 36 99 34.2091 99 32" stroke="black" stroke-linecap="round"/>
<path d="M89.5856 53.4051C89.5073 55.1801 90.138 58.6226 93.287 58.1924" stroke="white" stroke-linecap="round"/>
<path d="M91.979 51.555C94.0629 51.3505 98.5695 52.1303 99.9248 56.8852C100.695 59.5869 103.039 62.0734 109.338 61.213M92.6759 47.8509C94.477 47.3376 98.8811 47.4844 102.089 52.1788C103.091 53.6458 106.054 55.0214 108.956 53.7266" stroke="white" stroke-linecap="round"/>
<path d="M86.5 45.5C86.5 46.6577 86.1863 47.6832 85.7053 48.4046C85.222 49.1296 84.6092 49.5 84 49.5C83.3908 49.5 82.778 49.1296 82.2947 48.4046C81.8137 47.6832 81.5 46.6577 81.5 45.5C81.5 44.3423 81.8137 43.3168 82.2947 42.5954C82.778 41.8704 83.3908 41.5 84 41.5C84.6092 41.5 85.222 41.8704 85.7053 42.5954C86.1863 43.3168 86.5 44.3423 86.5 45.5Z" stroke="black"/>
<defs>
<filter id="filter0_d_1672_1057" x="0" y="0" width="172" height="179.614" filterUnits="userSpaceOnUse" color-interpolation-filters="sRGB">
<feFlood flood-opacity="0" result="BackgroundImageFix"/>
<feColorMatrix in="SourceAlpha" type="matrix" values="0 0 0 0 0 0 0 0 0 0 0 0 0 0 0 0 0 0 127 0" result="hardAlpha"/>
<feOffset dy="4"/>
<feGaussianBlur stdDeviation="2"/>
<feComposite in2="hardAlpha" operator="out"/>
<feColorMatrix type="matrix" values="0 0 0 0 0 0 0 0 0 0 0 0 0 0 0 0 0 0 0.25 0"/>
<feBlend mode="normal" in2="BackgroundImageFix" result="effect1_dropShadow_1672_1057"/>
<feBlend mode="normal" in="SourceGraphic" in2="effect1_dropShadow_1672_1057" result="shape"/>
</filter>
</defs>
</svg>
