<svg width="149" height="127" viewBox="0 0 149 127" fill="none" xmlns="http://www.w3.org/2000/svg">
<path d="M1.58089 81.9136C1.58089 81.9136 -3.87738 54.67 18.6665 50.4801" stroke="#2855F6" stroke-width="1.5" stroke-linecap="round" stroke-linejoin="round"/>
<path d="M96.2294 67.0221L95.7146 67.581L96.4316 67.8326C100.783 69.3601 104.553 72.2003 107.22 75.9607C109.886 79.7211 111.318 84.2161 111.318 88.8247C111.318 94.7233 108.973 100.38 104.798 104.551C100.624 108.722 94.9623 111.066 89.0587 111.066H26.657C20.7534 111.066 15.0917 108.722 10.9173 104.551C6.743 100.38 4.39795 94.7233 4.39795 88.8248C4.39832 84.7041 5.54473 80.6645 7.70928 77.1569C9.87383 73.6494 12.9714 70.8118 16.6562 68.961L17.2903 68.6425L16.777 68.1525C13.1989 64.7371 11.2061 60.8654 11.2061 56.7853C11.2061 51.9682 13.9622 47.4401 18.8386 43.6461L19.2221 43.3477L18.9348 42.9558C17.0388 40.3699 15.9947 37.2588 15.947 34.0536C15.9487 27.66 20.3318 21.7828 27.607 17.4766C34.8726 13.1761 44.9414 10.5 56.0873 10.5C67.2332 10.5 77.3004 13.1761 84.5643 17.4766C91.8381 21.7829 96.2197 27.6603 96.2211 34.0542C96.1803 37.3189 95.1104 40.4876 93.1634 43.1097L92.8747 43.4985L93.254 43.7994C98.0016 47.5676 100.701 52.0379 100.701 56.7853C100.701 60.4222 99.1082 63.8969 96.2294 67.0221Z" fill="#FFB1CE" stroke="#2855F6"/>
<path d="M116.369 25.088C116.369 25.088 120.976 52.4871 98.3198 55.9784" stroke="#2855F6" stroke-width="1.5" stroke-linecap="round" stroke-linejoin="round"/>
<path d="M26.7407 107.989L23.3692 121.985L17.0371 123.419" stroke="#2855F6" stroke-width="1.5" stroke-linecap="round" stroke-linejoin="round"/>
<path d="M87.144 107.989L89.2138 122.24L95.3877 124.259" stroke="#2855F6" stroke-width="1.5" stroke-linecap="round" stroke-linejoin="round"/>
<path d="M54.927 34.9335C56.2344 34.9335 57.2942 33.7753 57.2942 32.3466C57.2942 30.9179 56.2344 29.7598 54.927 29.7598C53.6197 29.7598 52.5598 30.9179 52.5598 32.3466C52.5598 33.7753 53.6197 34.9335 54.927 34.9335Z" fill="#2855F6"/>
<path d="M64.2871 34.9335C65.5945 34.9335 66.6543 33.7753 66.6543 32.3466C66.6543 30.9179 65.5945 29.7598 64.2871 29.7598C62.9798 29.7598 61.9199 30.9179 61.9199 32.3466C61.9199 33.7753 62.9798 34.9335 64.2871 34.9335Z" fill="#2855F6"/>
<path d="M54 38.48C54 39.6266 56.552 40.56 59.7199 40.56C62.8879 40.56 65.4399 39.6292 65.4399 38.48" stroke="#2855F6" stroke-linecap="round" stroke-linejoin="round"/>
<rect x="81.25" y="0.25" width="67.5" height="24.5" fill="white" stroke="#4360EC" stroke-width="0.5"/>
<path d="M92.176 18.12C91.4 18.12 90.692 17.944 90.052 17.592C89.42 17.24 88.984 16.78 88.744 16.212C88.704 16.116 88.684 16.036 88.684 15.972C88.684 15.852 88.728 15.748 88.816 15.66C88.904 15.564 89.024 15.5 89.176 15.468C89.2 15.46 89.24 15.456 89.296 15.456C89.424 15.456 89.544 15.496 89.656 15.576C89.776 15.648 89.864 15.748 89.92 15.876C90.064 16.188 90.348 16.452 90.772 16.668C91.196 16.884 91.664 16.992 92.176 16.992C92.776 16.992 93.284 16.856 93.7 16.584C94.116 16.304 94.324 15.924 94.324 15.444C94.324 14.988 94.148 14.6 93.796 14.28C93.444 13.952 92.908 13.752 92.188 13.68C91.196 13.584 90.416 13.296 89.848 12.816C89.28 12.328 88.996 11.72 88.996 10.992C88.996 10.48 89.14 10.04 89.428 9.672C89.724 9.296 90.124 9.012 90.628 8.82C91.14 8.62 91.712 8.52 92.344 8.52C93.032 8.52 93.612 8.66 94.084 8.94C94.556 9.22 94.956 9.62 95.284 10.14C95.38 10.292 95.428 10.436 95.428 10.572C95.428 10.748 95.348 10.892 95.188 11.004C95.1 11.06 94.996 11.088 94.876 11.088C94.756 11.088 94.644 11.06 94.54 11.004C94.436 10.94 94.356 10.856 94.3 10.752C94.084 10.392 93.812 10.12 93.484 9.936C93.164 9.744 92.756 9.648 92.26 9.648C91.652 9.648 91.16 9.768 90.784 10.008C90.408 10.24 90.22 10.58 90.22 11.028C90.22 11.444 90.388 11.792 90.724 12.072C91.06 12.352 91.66 12.536 92.524 12.624C93.484 12.72 94.228 13.012 94.756 13.5C95.284 13.98 95.548 14.616 95.548 15.408C95.548 15.984 95.392 16.48 95.08 16.896C94.768 17.304 94.352 17.612 93.832 17.82C93.32 18.02 92.768 18.12 92.176 18.12ZM98.0857 18C97.9097 18 97.7617 17.94 97.6417 17.82C97.5217 17.7 97.4617 17.552 97.4617 17.376V9.252C97.4617 9.068 97.5217 8.92 97.6417 8.808C97.7617 8.688 97.9097 8.628 98.0857 8.628C98.2697 8.628 98.4177 8.688 98.5297 8.808C98.6497 8.92 98.7097 9.068 98.7097 9.252V12.696H104.278V9.252C104.278 9.068 104.338 8.92 104.458 8.808C104.578 8.688 104.726 8.628 104.902 8.628C105.078 8.628 105.222 8.688 105.334 8.808C105.454 8.92 105.514 9.068 105.514 9.252V17.376C105.514 17.56 105.454 17.712 105.334 17.832C105.222 17.944 105.078 18 104.902 18C104.726 18 104.578 17.94 104.458 17.82C104.338 17.7 104.278 17.552 104.278 17.376V13.8H98.7097V17.376C98.7097 17.552 98.6497 17.7 98.5297 17.82C98.4177 17.94 98.2697 18 98.0857 18ZM112.247 18.12C111.319 18.12 110.491 17.916 109.763 17.508C109.043 17.1 108.483 16.532 108.083 15.804C107.683 15.068 107.483 14.236 107.483 13.308C107.483 12.38 107.683 11.552 108.083 10.824C108.483 10.096 109.043 9.528 109.763 9.12C110.491 8.712 111.319 8.508 112.247 8.508C113.167 8.508 113.987 8.712 114.707 9.12C115.435 9.528 115.999 10.096 116.399 10.824C116.807 11.552 117.011 12.38 117.011 13.308C117.011 14.236 116.807 15.068 116.399 15.804C115.999 16.532 115.439 17.1 114.719 17.508C113.999 17.916 113.175 18.12 112.247 18.12ZM112.247 16.992C112.927 16.992 113.539 16.832 114.083 16.512C114.627 16.184 115.051 15.74 115.355 15.18C115.659 14.62 115.811 13.996 115.811 13.308C115.811 12.62 115.659 11.996 115.355 11.436C115.051 10.876 114.627 10.436 114.083 10.116C113.547 9.796 112.935 9.636 112.247 9.636C111.559 9.636 110.943 9.796 110.399 10.116C109.863 10.436 109.443 10.876 109.139 11.436C108.835 11.996 108.683 12.62 108.683 13.308C108.683 13.996 108.835 14.62 109.139 15.18C109.443 15.74 109.867 16.184 110.411 16.512C110.955 16.832 111.567 16.992 112.247 16.992ZM122.89 18.192C122.13 18.192 121.45 18.052 120.85 17.772C120.258 17.484 119.794 17.088 119.458 16.584C119.13 16.08 118.966 15.504 118.966 14.856V9.252C118.966 9.068 119.026 8.92 119.146 8.808C119.266 8.688 119.414 8.628 119.59 8.628C119.774 8.628 119.922 8.688 120.034 8.808C120.154 8.92 120.214 9.068 120.214 9.252V14.856C120.214 15.28 120.326 15.66 120.55 15.996C120.782 16.332 121.098 16.596 121.498 16.788C121.906 16.972 122.37 17.064 122.89 17.064C123.386 17.064 123.83 16.972 124.222 16.788C124.614 16.596 124.918 16.332 125.134 15.996C125.358 15.66 125.47 15.28 125.47 14.856V9.252C125.47 9.068 125.53 8.92 125.65 8.808C125.77 8.688 125.918 8.628 126.094 8.628C126.27 8.628 126.414 8.688 126.526 8.808C126.646 8.92 126.706 9.068 126.706 9.252V14.856C126.706 15.496 126.542 16.072 126.214 16.584C125.894 17.088 125.442 17.484 124.858 17.772C124.282 18.052 123.626 18.192 122.89 18.192ZM129.714 18C129.538 18 129.39 17.94 129.27 17.82C129.158 17.7 129.102 17.552 129.102 17.376V9.252C129.102 9.076 129.162 8.928 129.282 8.808C129.402 8.688 129.546 8.628 129.714 8.628C129.89 8.628 130.038 8.688 130.158 8.808C130.278 8.928 130.338 9.076 130.338 9.252V16.752H134.682C134.858 16.752 135.006 16.812 135.126 16.932C135.246 17.052 135.306 17.2 135.306 17.376C135.306 17.552 135.246 17.7 135.126 17.82C135.006 17.94 134.858 18 134.682 18H129.714ZM137.426 18C137.25 18 137.102 17.94 136.982 17.82C136.862 17.7 136.802 17.552 136.802 17.376V9.252C136.802 9.068 136.862 8.92 136.982 8.808C137.102 8.688 137.25 8.628 137.426 8.628H139.598C140.502 8.628 141.306 8.828 142.01 9.228C142.714 9.628 143.262 10.184 143.654 10.896C144.046 11.6 144.242 12.404 144.242 13.308C144.242 14.212 144.046 15.02 143.654 15.732C143.262 16.444 142.714 17 142.01 17.4C141.306 17.8 140.502 18 139.598 18H137.426ZM139.598 16.896C140.262 16.896 140.854 16.744 141.374 16.44C141.902 16.136 142.31 15.712 142.598 15.168C142.894 14.616 143.042 13.996 143.042 13.308C143.042 12.62 142.894 12.004 142.598 11.46C142.31 10.916 141.902 10.492 141.374 10.188C140.854 9.884 140.262 9.732 139.598 9.732H138.05V16.896H139.598Z" fill="#16875E"/>
</svg>
