<svg width="172" height="180" viewBox="0 0 172 180" fill="none" xmlns="http://www.w3.org/2000/svg">
<g filter="url(#filter0_d_1672_1642)">
<path d="M164.797 98.6201C164.797 98.6201 172.719 59.0807 140 52.9999" stroke="#020202" stroke-width="2" stroke-linecap="round" stroke-linejoin="round"/>
<path d="M9.83969 96.5898C9.83969 96.5898 4.27944 56.6516 37.2909 52.5157" stroke="#020202" stroke-width="2" stroke-linecap="round" stroke-linejoin="round"/>
<path d="M143.91 83.2494C148.178 78.6155 150.592 73.4047 150.592 67.9008C150.592 60.7135 146.503 54.0369 139.509 48.4857C142.427 44.5563 144.03 39.8075 144.09 34.915C144.09 15.6323 117.684 0 85.1169 0C52.5497 0 26.1344 15.6323 26.1344 34.915C26.2047 39.7194 27.7692 44.3828 30.6111 48.2588C23.4276 53.8478 19.2538 60.6095 19.2538 67.9008C19.2538 74.0762 22.273 79.8733 27.5636 84.9233C22.0956 87.6697 17.499 91.8805 14.2869 97.0857C11.0747 102.291 9.37347 108.285 9.37292 114.401C9.37292 123.154 12.853 131.549 19.0474 137.738C25.2419 143.928 33.6435 147.405 42.4038 147.405H132.969C141.729 147.405 150.131 143.928 156.325 137.738C162.52 131.549 166 123.154 166 114.401C166.001 107.562 163.876 100.891 159.918 95.3109C155.961 89.7306 150.368 85.516 143.91 83.2494Z" fill="#FACF63"/>
<path fill-rule="evenodd" clip-rule="evenodd" d="M147.07 85.4952C150.74 81.1609 153.094 75.5499 153.595 68.2966C152.741 42.0124 110.511 39.1277 79.2974 40.1783C53.4927 41.0468 20.7272 43.8858 16.7849 68.2966C16.5255 75.9105 19.0277 81.8806 23.4037 86.4745C12.947 92.1214 5.6325 101.749 4 118.107C4 152.62 52.3947 152.202 81.1107 151.955C83.388 151.935 85.5416 151.917 87.5375 151.917C89.3258 151.917 91.2274 151.929 93.2196 151.943C121.487 152.133 168 152.445 168 118.107C168 100.728 160.079 90.9597 147.07 85.4952Z" fill="#FACF63"/>
<path d="M114.903 88.5145C116.08 88.3829 105.838 91.9984 82.9903 92.0406C62.4982 92.0785 49.3205 88.1257 50.0271 88.1245C51.4401 87.9861 59.9069 91.0203 82.9907 91.3852C98.3009 91.3569 109.957 89.0671 114.903 88.5145Z" fill="#D7B152"/>
<path d="M42.0831 147L37.19 167.314L28 169.394" stroke="#020202" stroke-width="2" stroke-linecap="round" stroke-linejoin="round"/>
<path d="M128.296 147L131.299 167.683L140.26 170.614" stroke="#020202" stroke-width="2" stroke-linecap="round" stroke-linejoin="round"/>
</g>
<path d="M68 32C68 34.2091 70.4624 36 73.5 36C76.5376 36 79 34.2091 79 32" stroke="black" stroke-linecap="round"/>
<path d="M88 32C88 34.2091 90.4624 36 93.5 36C96.5376 36 99 34.2091 99 32" stroke="black" stroke-linecap="round"/>
<path d="M85.5 49.5C85.5 50.6577 85.1863 51.6832 84.7053 52.4046C84.222 53.1296 83.6092 53.5 83 53.5C82.3908 53.5 81.778 53.1296 81.2947 52.4046C80.8137 51.6832 80.5 50.6577 80.5 49.5C80.5 48.3423 80.8137 47.3168 81.2947 46.5954C81.778 45.8704 82.3908 45.5 83 45.5C83.6092 45.5 84.222 45.8704 84.7053 46.5954C85.1863 47.3168 85.5 48.3423 85.5 49.5Z" stroke="black"/>
<path d="M100.589 59.7785L102.966 61.2253C103.3 61.4323 103.579 61.7169 103.78 62.055C103.98 62.393 104.096 62.7745 104.118 63.167L104.192 64.3971C104.248 65.3519 104.799 66.2073 105.638 66.6074C106.204 66.8673 106.807 67.0386 107.425 67.1153C107.941 67.1841 108.435 67.3705 108.868 67.6599C109.301 67.9494 109.662 68.3342 109.923 68.785C109.962 68.8521 109.999 68.9209 110.036 68.9915C110.573 70.0743 111.346 71.0138 112.327 71.682C114.801 73.3663 119.202 74.8724 123.239 68.627C123.239 68.627 126.688 60.5578 119.417 59.0021C119.337 58.9852 119.256 58.966 119.177 58.9457C118.674 58.8131 116.221 58.2996 113.186 60.0911C113.186 60.0911 111.909 60.6357 110.373 58.6415C110.219 58.4327 110.077 58.2147 109.949 57.9887C109.652 57.4605 108.539 56.0633 105.767 57.9757C105.513 58.1567 105.284 58.3697 105.085 58.6094C104.888 58.839 104.376 59.142 103.074 58.9344C102.813 58.892 102.549 58.863 102.284 58.8475C101.206 58.7899 98.9245 58.7651 100.589 59.7785Z" stroke="white" stroke-miterlimit="10"/>
<defs>
<filter id="filter0_d_1672_1642" x="0" y="0" width="172" height="179.614" filterUnits="userSpaceOnUse" color-interpolation-filters="sRGB">
<feFlood flood-opacity="0" result="BackgroundImageFix"/>
<feColorMatrix in="SourceAlpha" type="matrix" values="0 0 0 0 0 0 0 0 0 0 0 0 0 0 0 0 0 0 127 0" result="hardAlpha"/>
<feOffset dy="4"/>
<feGaussianBlur stdDeviation="2"/>
<feComposite in2="hardAlpha" operator="out"/>
<feColorMatrix type="matrix" values="0 0 0 0 0 0 0 0 0 0 0 0 0 0 0 0 0 0 0.25 0"/>
<feBlend mode="normal" in2="BackgroundImageFix" result="effect1_dropShadow_1672_1642"/>
<feBlend mode="normal" in="SourceGraphic" in2="effect1_dropShadow_1672_1642" result="shape"/>
</filter>
</defs>
</svg>
