<svg width="203" height="174" viewBox="0 0 203 174" fill="none" xmlns="http://www.w3.org/2000/svg">
<path d="M47.5809 128.914C47.5809 128.914 42.1226 101.67 64.6665 97.4806" stroke="#2855F6" stroke-width="1.5" stroke-linecap="round" stroke-linejoin="round"/>
<path d="M142.229 114.022L141.715 114.581L142.432 114.833C146.783 116.36 150.553 119.2 153.22 122.961C155.886 126.721 157.318 131.216 157.318 135.825C157.318 141.723 154.973 147.38 150.798 151.551C146.624 155.722 140.962 158.066 135.059 158.066H72.657C66.7534 158.066 61.0917 155.722 56.9173 151.551C52.743 147.38 50.3979 141.723 50.3979 135.825C50.3983 131.704 51.5447 127.664 53.7093 124.157C55.8738 120.649 58.9714 117.812 62.6562 115.961L63.2903 115.642L62.777 115.152C59.1989 111.737 57.2061 107.865 57.2061 103.785C57.2061 98.9682 59.9622 94.4401 64.8386 90.6461L65.2221 90.3477L64.9348 89.9558C63.0388 87.3699 61.9947 84.2588 61.947 81.0536C61.9487 74.66 66.3318 68.7828 73.607 64.4766C80.8726 60.1761 90.9414 57.5 102.087 57.5C113.233 57.5 123.3 60.1761 130.564 64.4766C137.838 68.7829 142.22 74.6603 142.221 81.0542C142.18 84.3189 141.11 87.4876 139.163 90.1097L138.875 90.4985L139.254 90.7994C144.002 94.5676 146.701 99.0379 146.701 103.785C146.701 107.422 145.108 110.897 142.229 114.022Z" fill="#FFB1CE" stroke="#2855F6"/>
<path d="M162.369 72.0876C162.369 72.0876 166.976 99.4867 144.32 102.978" stroke="#2855F6" stroke-width="1.5" stroke-linecap="round" stroke-linejoin="round"/>
<path d="M72.7407 154.989L69.3692 168.986L63.0371 170.419" stroke="#2855F6" stroke-width="1.5" stroke-linecap="round" stroke-linejoin="round"/>
<path d="M133.144 154.989L135.214 169.241L141.388 171.26" stroke="#2855F6" stroke-width="1.5" stroke-linecap="round" stroke-linejoin="round"/>
<path d="M100.927 81.9335C102.234 81.9335 103.294 80.7753 103.294 79.3466C103.294 77.9179 102.234 76.7598 100.927 76.7598C99.6197 76.7598 98.5598 77.9179 98.5598 79.3466C98.5598 80.7753 99.6197 81.9335 100.927 81.9335Z" fill="#2855F6"/>
<path d="M110.287 81.9335C111.595 81.9335 112.654 80.7753 112.654 79.3466C112.654 77.9179 111.595 76.7598 110.287 76.7598C108.98 76.7598 107.92 77.9179 107.92 79.3466C107.92 80.7753 108.98 81.9335 110.287 81.9335Z" fill="#2855F6"/>
<rect x="123.25" y="47.25" width="79.5" height="24.5" fill="white" stroke="#4360EC" stroke-width="0.5"/>
<path d="M128.156 63C127.98 63 127.832 62.94 127.712 62.82C127.592 62.7 127.532 62.552 127.532 62.376V54.252C127.532 54.068 127.592 53.92 127.712 53.808C127.832 53.688 127.98 53.628 128.156 53.628H133.58C133.764 53.628 133.912 53.684 134.024 53.796C134.136 53.9 134.192 54.04 134.192 54.216C134.192 54.384 134.136 54.52 134.024 54.624C133.912 54.728 133.764 54.78 133.58 54.78H128.78V57.696H132.224C132.408 57.696 132.556 57.752 132.668 57.864C132.78 57.968 132.836 58.104 132.836 58.272C132.836 58.44 132.78 58.58 132.668 58.692C132.556 58.796 132.408 58.848 132.224 58.848H128.78V61.848H133.58C133.764 61.848 133.912 61.9 134.024 62.004C134.136 62.108 134.192 62.244 134.192 62.412C134.192 62.588 134.136 62.732 134.024 62.844C133.912 62.948 133.764 63 133.58 63H128.156ZM144.43 63.012C144.254 63.012 144.106 62.956 143.986 62.844C143.874 62.724 143.818 62.576 143.818 62.4V58.968C143.818 58.464 143.694 58.092 143.446 57.852C143.198 57.604 142.874 57.48 142.474 57.48C142.058 57.48 141.714 57.624 141.442 57.912C141.178 58.2 141.046 58.568 141.046 59.016H140.05C140.05 58.496 140.162 58.04 140.386 57.648C140.61 57.248 140.922 56.936 141.322 56.712C141.73 56.488 142.194 56.376 142.714 56.376C143.17 56.376 143.574 56.476 143.926 56.676C144.278 56.876 144.55 57.172 144.742 57.564C144.942 57.948 145.042 58.416 145.042 58.968V62.4C145.042 62.576 144.986 62.724 144.874 62.844C144.762 62.956 144.614 63.012 144.43 63.012ZM136.426 63.012C136.25 63.012 136.102 62.956 135.982 62.844C135.87 62.724 135.814 62.576 135.814 62.4V57.06C135.814 56.876 135.87 56.728 135.982 56.616C136.102 56.504 136.25 56.448 136.426 56.448C136.61 56.448 136.758 56.504 136.87 56.616C136.982 56.728 137.038 56.876 137.038 57.06V62.4C137.038 62.576 136.982 62.724 136.87 62.844C136.758 62.956 136.61 63.012 136.426 63.012ZM140.434 63.012C140.258 63.012 140.11 62.956 139.99 62.844C139.878 62.724 139.822 62.576 139.822 62.4V58.968C139.822 58.464 139.698 58.092 139.45 57.852C139.202 57.604 138.878 57.48 138.478 57.48C138.062 57.48 137.718 57.624 137.446 57.912C137.174 58.2 137.038 58.568 137.038 59.016H136.282C136.282 58.496 136.386 58.04 136.594 57.648C136.802 57.248 137.09 56.936 137.458 56.712C137.826 56.488 138.246 56.376 138.718 56.376C139.174 56.376 139.578 56.476 139.93 56.676C140.282 56.876 140.554 57.172 140.746 57.564C140.946 57.948 141.046 58.416 141.046 58.968V62.4C141.046 62.576 140.99 62.724 140.878 62.844C140.766 62.956 140.618 63.012 140.434 63.012ZM150.16 63.048C149.496 63.048 148.904 62.908 148.384 62.628C147.872 62.34 147.468 61.948 147.172 61.452C146.884 60.948 146.74 60.372 146.74 59.724C146.74 59.068 146.876 58.492 147.148 57.996C147.428 57.492 147.812 57.1 148.3 56.82C148.788 56.532 149.348 56.388 149.98 56.388C150.604 56.388 151.14 56.528 151.588 56.808C152.036 57.08 152.376 57.46 152.608 57.948C152.848 58.428 152.968 58.984 152.968 59.616C152.968 59.768 152.916 59.896 152.812 60C152.708 60.096 152.576 60.144 152.416 60.144H147.58V59.184H152.38L151.888 59.52C151.88 59.12 151.8 58.764 151.648 58.452C151.496 58.132 151.28 57.88 151 57.696C150.72 57.512 150.38 57.42 149.98 57.42C149.524 57.42 149.132 57.52 148.804 57.72C148.484 57.92 148.24 58.196 148.072 58.548C147.904 58.892 147.82 59.284 147.82 59.724C147.82 60.164 147.92 60.556 148.12 60.9C148.32 61.244 148.596 61.516 148.948 61.716C149.3 61.916 149.704 62.016 150.16 62.016C150.408 62.016 150.66 61.972 150.916 61.884C151.18 61.788 151.392 61.68 151.552 61.56C151.672 61.472 151.8 61.428 151.936 61.428C152.08 61.42 152.204 61.46 152.308 61.548C152.444 61.668 152.516 61.8 152.524 61.944C152.532 62.088 152.468 62.212 152.332 62.316C152.06 62.532 151.72 62.708 151.312 62.844C150.912 62.98 150.528 63.048 150.16 63.048ZM155.117 58.896C155.117 58.416 155.233 57.988 155.465 57.612C155.705 57.228 156.025 56.924 156.425 56.7C156.825 56.476 157.265 56.364 157.745 56.364C158.225 56.364 158.581 56.444 158.813 56.604C159.053 56.756 159.145 56.94 159.089 57.156C159.065 57.268 159.017 57.356 158.945 57.42C158.881 57.476 158.805 57.512 158.717 57.528C158.629 57.544 158.533 57.54 158.429 57.516C157.917 57.412 157.457 57.404 157.049 57.492C156.641 57.58 156.317 57.744 156.077 57.984C155.845 58.224 155.729 58.528 155.729 58.896H155.117ZM155.129 63C154.937 63 154.789 62.952 154.685 62.856C154.581 62.752 154.529 62.6 154.529 62.4V57.036C154.529 56.844 154.581 56.696 154.685 56.592C154.789 56.488 154.937 56.436 155.129 56.436C155.329 56.436 155.477 56.488 155.573 56.592C155.677 56.688 155.729 56.836 155.729 57.036V62.4C155.729 62.592 155.677 62.74 155.573 62.844C155.477 62.948 155.329 63 155.129 63ZM162.621 63.048C162.021 63.048 161.489 62.908 161.025 62.628C160.569 62.34 160.209 61.948 159.945 61.452C159.681 60.948 159.549 60.372 159.549 59.724C159.549 59.068 159.689 58.492 159.969 57.996C160.257 57.492 160.649 57.1 161.145 56.82C161.641 56.532 162.213 56.388 162.861 56.388C163.501 56.388 164.069 56.532 164.565 56.82C165.061 57.1 165.449 57.492 165.729 57.996C166.017 58.492 166.161 59.068 166.161 59.724H165.453C165.453 60.372 165.329 60.948 165.081 61.452C164.841 61.948 164.509 62.34 164.085 62.628C163.661 62.908 163.173 63.048 162.621 63.048ZM162.837 65.724C162.269 65.724 161.737 65.612 161.241 65.388C160.745 65.164 160.325 64.836 159.981 64.404C159.877 64.268 159.837 64.128 159.861 63.984C159.893 63.84 159.973 63.724 160.101 63.636C160.245 63.54 160.393 63.508 160.545 63.54C160.705 63.572 160.833 63.652 160.929 63.78C161.145 64.052 161.417 64.264 161.745 64.416C162.073 64.568 162.445 64.644 162.861 64.644C163.245 64.644 163.597 64.552 163.917 64.368C164.245 64.184 164.505 63.912 164.697 63.552C164.889 63.192 164.985 62.752 164.985 62.232V60.528L165.381 59.472L166.161 59.724V62.316C166.161 62.948 166.021 63.52 165.741 64.032C165.461 64.552 165.069 64.964 164.565 65.268C164.069 65.572 163.493 65.724 162.837 65.724ZM162.861 61.968C163.277 61.968 163.645 61.872 163.965 61.68C164.285 61.488 164.533 61.224 164.709 60.888C164.893 60.552 164.985 60.164 164.985 59.724C164.985 59.284 164.893 58.896 164.709 58.56C164.533 58.216 164.285 57.948 163.965 57.756C163.645 57.564 163.277 57.468 162.861 57.468C162.445 57.468 162.077 57.564 161.757 57.756C161.437 57.948 161.185 58.216 161.001 58.56C160.817 58.896 160.725 59.284 160.725 59.724C160.725 60.164 160.817 60.552 161.001 60.888C161.185 61.224 161.437 61.488 161.757 61.68C162.077 61.872 162.445 61.968 162.861 61.968ZM171.066 63.048C170.402 63.048 169.81 62.908 169.29 62.628C168.778 62.34 168.374 61.948 168.078 61.452C167.79 60.948 167.646 60.372 167.646 59.724C167.646 59.068 167.782 58.492 168.054 57.996C168.334 57.492 168.718 57.1 169.206 56.82C169.694 56.532 170.254 56.388 170.886 56.388C171.51 56.388 172.046 56.528 172.494 56.808C172.942 57.08 173.282 57.46 173.514 57.948C173.754 58.428 173.874 58.984 173.874 59.616C173.874 59.768 173.822 59.896 173.718 60C173.614 60.096 173.482 60.144 173.322 60.144H168.486V59.184H173.286L172.794 59.52C172.786 59.12 172.706 58.764 172.554 58.452C172.402 58.132 172.186 57.88 171.906 57.696C171.626 57.512 171.286 57.42 170.886 57.42C170.43 57.42 170.038 57.52 169.71 57.72C169.39 57.92 169.146 58.196 168.978 58.548C168.81 58.892 168.726 59.284 168.726 59.724C168.726 60.164 168.826 60.556 169.026 60.9C169.226 61.244 169.502 61.516 169.854 61.716C170.206 61.916 170.61 62.016 171.066 62.016C171.314 62.016 171.566 61.972 171.822 61.884C172.086 61.788 172.298 61.68 172.458 61.56C172.578 61.472 172.706 61.428 172.842 61.428C172.986 61.42 173.11 61.46 173.214 61.548C173.35 61.668 173.422 61.8 173.43 61.944C173.438 62.088 173.374 62.212 173.238 62.316C172.966 62.532 172.626 62.708 172.218 62.844C171.818 62.98 171.434 63.048 171.066 63.048ZM180.979 63.012C180.803 63.012 180.655 62.956 180.535 62.844C180.423 62.724 180.367 62.576 180.367 62.4V59.448C180.367 58.992 180.283 58.62 180.115 58.332C179.947 58.044 179.719 57.832 179.431 57.696C179.151 57.552 178.827 57.48 178.459 57.48C178.123 57.48 177.819 57.548 177.547 57.684C177.275 57.82 177.059 58.004 176.899 58.236C176.739 58.46 176.659 58.72 176.659 59.016H175.903C175.903 58.512 176.023 58.064 176.263 57.672C176.511 57.272 176.847 56.956 177.271 56.724C177.695 56.492 178.171 56.376 178.699 56.376C179.251 56.376 179.743 56.496 180.175 56.736C180.615 56.968 180.959 57.312 181.207 57.768C181.463 58.224 181.591 58.784 181.591 59.448V62.4C181.591 62.576 181.531 62.724 181.411 62.844C181.299 62.956 181.155 63.012 180.979 63.012ZM176.047 63.012C175.871 63.012 175.723 62.956 175.603 62.844C175.491 62.724 175.435 62.576 175.435 62.4V57.048C175.435 56.864 175.491 56.716 175.603 56.604C175.723 56.492 175.871 56.436 176.047 56.436C176.231 56.436 176.379 56.492 176.491 56.604C176.603 56.716 176.659 56.864 176.659 57.048V62.4C176.659 62.576 176.603 62.724 176.491 62.844C176.379 62.956 176.231 63.012 176.047 63.012ZM186.591 63.048C185.951 63.048 185.379 62.904 184.875 62.616C184.379 62.32 183.987 61.924 183.699 61.428C183.419 60.924 183.279 60.356 183.279 59.724C183.279 59.076 183.419 58.5 183.699 57.996C183.979 57.492 184.363 57.1 184.851 56.82C185.339 56.532 185.899 56.388 186.531 56.388C187.003 56.388 187.435 56.48 187.827 56.664C188.219 56.84 188.571 57.108 188.883 57.468C188.995 57.596 189.035 57.728 189.003 57.864C188.971 58 188.883 58.12 188.739 58.224C188.627 58.304 188.503 58.332 188.367 58.308C188.231 58.276 188.107 58.204 187.995 58.092C187.603 57.676 187.115 57.468 186.531 57.468C186.123 57.468 185.763 57.564 185.451 57.756C185.139 57.94 184.895 58.2 184.719 58.536C184.543 58.872 184.455 59.268 184.455 59.724C184.455 60.156 184.543 60.54 184.719 60.876C184.903 61.212 185.155 61.48 185.475 61.68C185.795 61.872 186.167 61.968 186.591 61.968C186.871 61.968 187.115 61.936 187.323 61.872C187.539 61.8 187.735 61.692 187.911 61.548C188.039 61.444 188.171 61.388 188.307 61.38C188.443 61.364 188.563 61.4 188.667 61.488C188.803 61.6 188.879 61.728 188.895 61.872C188.911 62.008 188.863 62.132 188.751 62.244C188.175 62.78 187.455 63.048 186.591 63.048ZM191.998 65.88C191.918 65.88 191.822 65.856 191.71 65.808C191.358 65.648 191.262 65.396 191.422 65.052L195.082 56.784C195.242 56.448 195.494 56.352 195.838 56.496C196.198 56.648 196.298 56.9 196.138 57.252L192.466 65.508C192.37 65.756 192.214 65.88 191.998 65.88ZM193.414 62.736C193.262 62.8 193.118 62.808 192.982 62.76C192.854 62.704 192.75 62.6 192.67 62.448L189.922 57.228C189.842 57.076 189.83 56.932 189.886 56.796C189.95 56.652 190.058 56.548 190.21 56.484C190.362 56.42 190.506 56.416 190.642 56.472C190.778 56.52 190.882 56.62 190.954 56.772L193.582 61.992C193.662 62.144 193.69 62.292 193.666 62.436C193.65 62.572 193.566 62.672 193.414 62.736ZM197.639 60.78C197.463 60.78 197.315 60.72 197.195 60.6C197.083 60.472 197.027 60.328 197.027 60.168V54.252C197.027 54.076 197.083 53.928 197.195 53.808C197.315 53.688 197.463 53.628 197.639 53.628C197.815 53.628 197.959 53.688 198.071 53.808C198.191 53.928 198.251 54.076 198.251 54.252V60.168C198.251 60.336 198.187 60.48 198.059 60.6C197.939 60.72 197.799 60.78 197.639 60.78ZM197.639 63C197.415 63 197.219 62.92 197.051 62.76C196.891 62.6 196.811 62.404 196.811 62.172C196.811 61.94 196.891 61.744 197.051 61.584C197.219 61.416 197.415 61.332 197.639 61.332C197.871 61.332 198.067 61.416 198.227 61.584C198.387 61.744 198.467 61.94 198.467 62.172C198.467 62.404 198.383 62.6 198.215 62.76C198.055 62.92 197.863 63 197.639 63Z" fill="#F0524A" fill-opacity="0.72"/>
<path d="M115.346 71.7018C114.528 71.1238 113.204 70.5652 111.352 71.2629C109.501 71.9607 108.98 73.3275 108.642 74.2285" stroke="#2855F6" stroke-linecap="round"/>
<path d="M103.787 74.0192C103.521 73.0535 102.851 71.782 100.977 71.1478C99.1024 70.5137 97.8328 71.2403 97 71.7227" stroke="#2855F6" stroke-linecap="round"/>
<path d="M113 87C113 88.6569 109.866 90 106 90C102.134 90 99 88.6569 99 87C99 85.3431 102.134 84 106 84C109.866 84 113 85.3431 113 87Z" fill="white" fill-opacity="0.85"/>
<path d="M179 15C178.111 23.2353 171.963 26.2745 169 26.7647C176.111 27.9412 178.63 36.0784 179 40C180.778 30.5882 186.407 27.2549 189 26.7647C181.889 25.5882 179.37 18.4314 179 15Z" fill="#FFA49C"/>
<path d="M182.5 128C181.922 133.271 177.926 135.216 176 135.529C180.622 136.282 182.259 141.49 182.5 144C183.656 137.976 187.315 135.843 189 135.529C184.378 134.776 182.741 130.196 182.5 128Z" fill="#FFA49C"/>
<path d="M124 -5.00078e-09C123.467 4.94118 119.778 6.76471 118 7.05882C122.267 7.76471 123.778 12.6471 124 15C125.067 9.35294 128.444 7.35294 130 7.05882C125.733 6.35294 124.222 2.05882 124 -5.00078e-09Z" fill="#FFA49C"/>
<path d="M49 23C48.3778 28.6 44.0741 30.6667 42 31C46.9778 31.8 48.7407 37.3333 49 40C50.2444 33.6 54.1852 31.3333 56 31C51.0222 30.2 49.2593 25.3333 49 23Z" fill="#FFA49C"/>
<path d="M10 79C9.11111 87.2353 2.96296 90.2745 9.80545e-09 90.7647C7.11111 91.9412 9.62963 100.078 10 104C11.7778 94.5882 17.4074 91.2549 20 90.7647C12.8889 89.5882 10.3704 82.4314 10 79Z" fill="#FFA49C"/>
</svg>
