<svg width="287" height="329" viewBox="0 0 287 329" fill="none" xmlns="http://www.w3.org/2000/svg">
<g filter="url(#filter0_d_688_33)">
<path d="M34.9972 112.809C51.6923 112.809 65.2263 100.198 65.2263 84.6416C65.2263 69.0851 51.6923 56.474 34.9972 56.474C18.3021 56.474 4.76807 69.0851 4.76807 84.6416C4.76807 100.198 18.3021 112.809 34.9972 112.809Z" fill="#F3746E"/>
<path d="M252.614 112.809C269.309 112.809 282.843 100.198 282.843 84.6416C282.843 69.0851 269.309 56.474 252.614 56.474C235.919 56.474 222.385 69.0851 222.385 84.6416C222.385 100.198 235.919 112.809 252.614 112.809Z" fill="#F3746E"/>
<path d="M89.6932 121.836C118.454 121.836 141.769 98.5205 141.769 69.7597C141.769 40.9989 118.454 17.6837 89.6932 17.6837C60.9324 17.6837 37.6172 40.9989 37.6172 69.7597C37.6172 98.5205 60.9324 121.836 89.6932 121.836Z" fill="#FCF2F2" stroke="#E37B72" stroke-width="3" stroke-miterlimit="10"/>
<path d="M200.538 121.836C229.299 121.836 252.614 98.5205 252.614 69.7597C252.614 40.9989 229.299 17.6837 200.538 17.6837C171.777 17.6837 148.462 40.9989 148.462 69.7597C148.462 98.5205 171.777 121.836 200.538 121.836Z" fill="#FCF2F2" stroke="#E37B72" stroke-width="3" stroke-miterlimit="10"/>
<path d="M145.892 112.809C179.282 112.809 206.35 87.5871 206.35 56.4741C206.35 25.361 179.282 0.138916 145.892 0.138916C112.502 0.138916 85.4338 25.361 85.4338 56.4741C85.4338 87.5871 112.502 112.809 145.892 112.809Z" fill="#F3746E"/>
<path d="M34.9971 106.954C34.9971 106.954 33.1861 173.69 85.4339 202.716" stroke="#E37B72" stroke-width="2" stroke-miterlimit="10"/>
<path d="M254.676 110.318C254.676 110.318 256.487 174.742 204.239 202.724" stroke="#E37B72" stroke-width="2" stroke-miterlimit="10"/>
<path d="M85.4338 121.829C85.4338 121.829 86.1497 185.215 122.95 208.701" stroke="#E37B72" stroke-width="2" stroke-miterlimit="10"/>
<path d="M200.538 121.828C200.538 121.828 199.858 185.214 163.022 208.701" stroke="#E37B72" stroke-width="2" stroke-miterlimit="10"/>
<path d="M204.619 202.716C204.619 202.716 210.61 232.645 185.864 237.248" stroke="#020202" stroke-width="3" stroke-linecap="round" stroke-linejoin="round"/>
<path d="M191.462 259.982C194.69 256.475 196.515 252.53 196.515 248.364C196.515 242.924 193.423 237.87 188.133 233.669C190.34 230.694 191.552 227.1 191.598 223.397C191.598 208.801 171.626 196.968 146.995 196.968C122.363 196.968 102.385 208.801 102.385 223.397C102.438 227.033 103.621 230.563 105.771 233.497C100.337 237.727 97.1807 242.845 97.1807 248.364C97.1807 253.039 99.4642 257.427 103.466 261.249C99.33 263.328 95.8535 266.515 93.4241 270.455C90.9947 274.395 89.7079 278.933 89.7075 283.561C89.7075 290.187 92.3396 296.541 97.0246 301.226C101.71 305.911 108.064 308.543 114.69 308.543H183.187C189.812 308.543 196.167 305.911 200.852 301.226C205.537 296.541 208.169 290.187 208.169 283.561C208.169 278.385 206.562 273.336 203.569 269.112C200.576 264.888 196.346 261.698 191.462 259.982Z" fill="#FFD15A"/>
<path d="M85.434 202.716C85.434 202.716 79.4498 232.645 104.189 237.248" stroke="#020202" stroke-width="3" stroke-linecap="round" stroke-linejoin="round"/>
<path d="M105.148 302.251L101.447 317.627L94.4963 319.202" stroke="#020202" stroke-width="3" stroke-linecap="round" stroke-linejoin="round"/>
<path d="M195.47 300.44L209.064 308.515L215.048 304.635" stroke="#020202" stroke-width="3" stroke-linecap="round" stroke-linejoin="round"/>
<path d="M140.531 220.963C142.464 220.963 144.031 219.091 144.031 216.782C144.031 214.474 142.464 212.602 140.531 212.602C138.597 212.602 137.03 214.474 137.03 216.782C137.03 219.091 138.597 220.963 140.531 220.963Z" fill="white"/>
<path d="M140.81 220.963C142.245 220.963 143.408 219.69 143.408 218.121C143.408 216.551 142.245 215.279 140.81 215.279C139.375 215.279 138.211 216.551 138.211 218.121C138.211 219.69 139.375 220.963 140.81 220.963Z" fill="#221F20"/>
<path d="M153.272 220.963C155.205 220.963 156.772 219.091 156.772 216.782C156.772 214.474 155.205 212.602 153.272 212.602C151.339 212.602 149.772 214.474 149.772 216.782C149.772 219.091 151.339 220.963 153.272 220.963Z" fill="white"/>
<path d="M153.552 220.963C154.987 220.963 156.15 219.69 156.15 218.121C156.15 216.551 154.987 215.279 153.552 215.279C152.116 215.279 150.953 216.551 150.953 218.121C150.953 219.69 152.116 220.963 153.552 220.963Z" fill="#221F20"/>
<path d="M137.331 227.92C139.253 227.92 140.81 226.363 140.81 224.442C140.81 222.52 139.253 220.963 137.331 220.963C135.41 220.963 133.852 222.52 133.852 224.442C133.852 226.363 135.41 227.92 137.331 227.92Z" fill="#F0524A"/>
<path d="M156.773 227.92C158.694 227.92 160.252 226.363 160.252 224.442C160.252 222.52 158.694 220.963 156.773 220.963C154.851 220.963 153.294 222.52 153.294 224.442C153.294 226.363 154.851 227.92 156.773 227.92Z" fill="#F0524A"/>
<path d="M156.773 225.516C156.773 228.672 152.621 231.242 147.467 231.242C142.313 231.242 138.161 228.679 138.161 225.516" stroke="#020202" stroke-width="2" stroke-linecap="round" stroke-linejoin="round"/>
</g>
<defs>
<filter id="filter0_d_688_33" x="0.768066" y="0.138916" width="286.075" height="328.563" filterUnits="userSpaceOnUse" color-interpolation-filters="sRGB">
<feFlood flood-opacity="0" result="BackgroundImageFix"/>
<feColorMatrix in="SourceAlpha" type="matrix" values="0 0 0 0 0 0 0 0 0 0 0 0 0 0 0 0 0 0 127 0" result="hardAlpha"/>
<feOffset dy="4"/>
<feGaussianBlur stdDeviation="2"/>
<feComposite in2="hardAlpha" operator="out"/>
<feColorMatrix type="matrix" values="0 0 0 0 0 0 0 0 0 0 0 0 0 0 0 0 0 0 0.25 0"/>
<feBlend mode="normal" in2="BackgroundImageFix" result="effect1_dropShadow_688_33"/>
<feBlend mode="normal" in="SourceGraphic" in2="effect1_dropShadow_688_33" result="shape"/>
</filter>
</defs>
</svg>
