<svg width="173" height="195" viewBox="0 0 173 195" fill="none" xmlns="http://www.w3.org/2000/svg">
<path d="M130.822 159.702L153.783 177.722L150.147 186.781" stroke="#020202" stroke-width="2" stroke-linecap="round" stroke-linejoin="round"/>
<path d="M147.908 91.4119L147.393 91.9708L148.11 92.2225C155.129 94.6863 161.21 99.2675 165.511 105.333C169.812 111.399 172.122 118.649 172.121 126.083C172.121 135.597 168.339 144.722 161.606 151.45C154.872 158.178 145.74 161.958 136.217 161.958H36.4039C26.8815 161.958 17.7491 158.178 11.0159 151.45C4.28263 144.722 0.5 135.597 0.5 126.083C0.500594 119.436 2.3498 112.92 5.84125 107.262C9.3327 101.605 14.3291 97.0276 20.2727 94.0423L20.9068 93.7238L20.3935 93.2338C14.6299 87.7323 11.3899 81.4658 11.3899 74.8347C11.3899 67.0056 15.8702 59.6843 23.714 53.5815L24.0976 53.2831L23.8102 52.8912C20.7402 48.7041 19.0498 43.6666 18.9732 38.4768C18.9748 28.1004 26.0859 18.6174 37.7708 11.7011C49.446 4.79048 65.6062 0.5 83.4787 0.5C101.351 0.5 117.509 4.79048 129.181 11.7011C140.864 18.6174 147.972 28.1003 147.974 38.4768C147.908 43.7627 146.176 48.8934 143.024 53.1389L142.735 53.5276L143.114 53.8286C150.751 59.8899 155.14 67.1183 155.14 74.8347C155.14 80.7453 152.55 86.3725 147.908 91.4119Z" fill="#FACF63" stroke="white"/>
<path d="M54.7712 113.867C-1.24336 91.2951 15.4416 86.2364 15.4416 86.2364" stroke="#020202" stroke-width="2" stroke-linecap="round" stroke-linejoin="round"/>
<path d="M73.9558 63.2378C73.9558 62.0561 77.0641 61.0941 80.9227 61.0941C84.7812 61.0941 87.8895 62.0534 87.8895 63.2378" stroke="#020202" stroke-linecap="round" stroke-linejoin="round"/>
<path d="M113.613 118.331C169.986 84.9484 151.836 85.0569 151.836 85.0569" stroke="#020202" stroke-width="2" stroke-linecap="round" stroke-linejoin="round"/>
<path d="M31.5379 163.559L34.9056 188.969L23.0667 194" stroke="#020202" stroke-width="2" stroke-linecap="round" stroke-linejoin="round"/>
<path d="M31.6413 162.917L40.2159 152.199" stroke="black" stroke-width="2" stroke-linecap="round"/>
<path d="M72.3359 51.1402C74.993 51.1402 77.147 48.5697 77.147 45.3989C77.147 42.2281 74.993 39.6577 72.3359 39.6577C69.6788 39.6577 67.5248 42.2281 67.5248 45.3989C67.5248 48.5697 69.6788 51.1402 72.3359 51.1402Z" fill="white"/>
<path d="M72.8839 47.1605C74.6598 47.1605 76.0994 45.4809 76.0994 43.4091C76.0994 41.3373 74.6598 39.6577 72.8839 39.6577C71.1081 39.6577 69.6685 41.3373 69.6685 43.4091C69.6685 45.4809 71.1081 47.1605 72.8839 47.1605Z" fill="#221F20"/>
<path d="M89.8486 51.1411C92.5057 51.1411 94.6597 48.5707 94.6597 45.3999C94.6597 42.2291 92.5057 39.6587 89.8486 39.6587C87.1915 39.6587 85.0375 42.2291 85.0375 45.3999C85.0375 48.5707 87.1915 51.1411 89.8486 51.1411Z" fill="white"/>
<path d="M90.0331 47.1605C91.809 47.1605 93.2486 45.4809 93.2486 43.4091C93.2486 41.3373 91.809 39.6577 90.0331 39.6577C88.2572 39.6577 86.8176 41.3373 86.8176 43.4091C86.8176 45.4809 88.2572 47.1605 90.0331 47.1605Z" fill="#221F20"/>
</svg>
