<svg width="241" height="204" viewBox="0 0 241 204" fill="none" xmlns="http://www.w3.org/2000/svg">
<ellipse cx="120.5" cy="179" rx="120.5" ry="25" fill="#868585"/>
<path d="M176.972 85.2637L176.457 85.8226L177.174 86.0742C183.717 88.3706 189.384 92.6406 193.393 98.294C197.402 103.947 199.555 110.705 199.554 117.634C199.554 126.502 196.028 135.007 189.753 141.278C183.477 147.549 174.965 151.072 166.09 151.072H72.9645C64.089 151.072 55.5772 147.549 49.3014 141.278C43.0256 135.007 39.5 126.502 39.5 117.634C39.5006 111.439 41.2241 105.366 44.4783 100.092C47.7326 94.819 52.3894 90.5529 57.9292 87.7704L58.5634 87.4519L58.05 86.9619C52.6772 81.8334 49.6602 75.995 49.6602 69.82C49.6602 62.5294 53.8322 55.7075 61.1455 50.0174L61.5291 49.719L61.2417 49.3271C58.3816 45.4263 56.8067 40.7332 56.7353 35.8982C56.7369 26.2338 63.3603 17.3955 74.2569 10.9458C85.1437 4.50185 100.215 0.5 116.885 0.5C133.555 0.5 148.623 4.50185 159.508 10.9458C170.402 17.3955 177.023 26.2338 177.025 35.8982C176.964 40.8228 175.35 45.6027 172.413 49.5581L172.124 49.9468L172.503 50.2478C179.624 55.8991 183.71 62.6344 183.71 69.82C183.71 75.3241 181.299 80.5665 176.972 85.2637Z" fill="#FACF63" stroke="white"/>
<path d="M99.7079 92.4922C45.3232 96.7932 57.3808 85.5204 57.3808 85.5204" stroke="#020202" stroke-width="2" stroke-linecap="round" stroke-linejoin="round"/>
<path d="M84.9035 146.999L87.7525 166.013L79.4663 169.67" stroke="#020202" stroke-width="2" stroke-linecap="round" stroke-linejoin="round"/>
<path d="M140.904 147L144.564 167.92L136.361 171.773" stroke="#020202" stroke-width="2" stroke-linecap="round" stroke-linejoin="round"/>
<path d="M108 59C108 57.8975 110.9 57 114.5 57C118.1 57 121 57.895 121 59" stroke="#020202" stroke-linecap="round" stroke-linejoin="round"/>
<path d="M130.459 93.4058C191.583 93.2346 176.937 84.7343 176.937 84.7343" stroke="#020202" stroke-width="2" stroke-linecap="round" stroke-linejoin="round"/>
<path d="M106.489 47.713C108.968 47.713 110.977 45.3148 110.977 42.3565C110.977 39.3982 108.968 37 106.489 37C104.01 37 102 39.3982 102 42.3565C102 45.3148 104.01 47.713 106.489 47.713Z" fill="white"/>
<path d="M107 44C108.657 44 110 42.433 110 40.5C110 38.567 108.657 37 107 37C105.343 37 104 38.567 104 40.5C104 42.433 105.343 44 107 44Z" fill="#221F20"/>
<path d="M122.828 47.714C125.307 47.714 127.317 45.3158 127.317 42.3575C127.317 39.3992 125.307 37.001 122.828 37.001C120.349 37.001 118.339 39.3992 118.339 42.3575C118.339 45.3158 120.349 47.714 122.828 47.714Z" fill="white"/>
<path d="M123 44C124.657 44 126 42.433 126 40.5C126 38.567 124.657 37 123 37C121.343 37 120 38.567 120 40.5C120 42.433 121.343 44 123 44Z" fill="#221F20"/>
</svg>
