<svg width="158" height="161" viewBox="0 0 158 161" fill="none" xmlns="http://www.w3.org/2000/svg">
<path d="M135.135 83.508L134.62 84.0669L135.337 84.3186C141.743 86.5672 147.292 90.7482 151.218 96.284C155.143 101.82 157.252 108.437 157.251 115.221C157.251 123.905 153.799 132.233 147.654 138.373C141.508 144.513 133.174 147.963 124.483 147.963H33.2679C24.5772 147.963 16.2425 144.513 10.0974 138.373C3.95222 132.233 0.5 123.905 0.5 115.222C0.500542 109.155 2.18822 103.208 5.37471 98.0449C8.5612 92.8813 13.1211 88.7041 18.5456 85.9795L19.1797 85.661L18.6664 85.171C13.4051 80.149 10.4518 74.4328 10.4518 68.388C10.4518 61.2512 14.5358 54.5719 21.6976 48.9997L22.0812 48.7013L21.7938 48.3094C18.9936 44.4903 17.4518 39.8956 17.3818 35.1619C17.3835 25.7008 23.8676 17.0466 34.539 10.7302C45.2007 4.41944 59.9609 0.5 76.2874 0.5C92.614 0.5 107.372 4.41944 118.031 10.7301C128.7 17.0468 135.182 25.7015 135.184 35.1631C135.124 39.9841 133.544 44.6634 130.668 48.5355L130.38 48.9243L130.759 49.2253C137.732 54.7596 141.732 61.354 141.732 68.388C141.732 73.776 139.371 78.9086 135.135 83.508Z" fill="#FACF63" stroke="white"/>
<path d="M56.8311 53.2917C56.8311 53.2917 46.2799 92.2893 18.1909 86.04" stroke="#020202" stroke-width="2" stroke-linecap="round" stroke-linejoin="round"/>
<path d="M46.2448 141.633L47.2339 156.022L38.9332 159.171" stroke="#020202" stroke-width="2" stroke-linecap="round" stroke-linejoin="round"/>
<path d="M100.818 141.633L101.807 156.022L93.5059 159.171" stroke="#020202" stroke-width="2" stroke-linecap="round" stroke-linejoin="round"/>
<path d="M46.2695 140.98L57.6389 146.665" stroke="black" stroke-width="2" stroke-linecap="round"/>
<path d="M100.843 140.98L112.212 146.665" stroke="black" stroke-width="2" stroke-linecap="round"/>
<path d="M64.8052 54.2343C64.8052 50.0338 70.334 46.6144 77.1973 46.6144C84.0606 46.6144 89.5894 50.0243 89.5894 54.2343" stroke="#020202" stroke-linecap="round" stroke-linejoin="round"/>
<path d="M99.6024 51.454C99.6024 51.454 107.484 89.3229 136.416 83.8553" stroke="#020202" stroke-width="2" stroke-linecap="round" stroke-linejoin="round"/>
<path d="M68.4887 42.713C70.9678 42.713 72.9774 40.3148 72.9774 37.3565C72.9774 34.3982 70.9678 32 68.4887 32C66.0097 32 64 34.3982 64 37.3565C64 40.3148 66.0097 42.713 68.4887 42.713Z" fill="white"/>
<path d="M69.5567 40.2509C71.397 40.2509 72.8888 38.6206 72.8888 36.6096C72.8888 34.5985 71.397 32.9683 69.5567 32.9683C67.7165 32.9683 66.2246 34.5985 66.2246 36.6096C66.2246 38.6206 67.7165 40.2509 69.5567 40.2509Z" fill="#221F20"/>
<path d="M84.8281 42.714C87.3071 42.714 89.3168 40.3158 89.3168 37.3575C89.3168 34.3992 87.3071 32.001 84.8281 32.001C82.349 32.001 80.3394 34.3992 80.3394 37.3575C80.3394 40.3158 82.349 42.714 84.8281 42.714Z" fill="white"/>
<path d="M85.8956 40.2524C87.7359 40.2524 89.2277 38.6221 89.2277 36.611C89.2277 34.6 87.7359 32.9697 85.8956 32.9697C84.0553 32.9697 82.5635 34.6 82.5635 36.611C82.5635 38.6221 84.0553 40.2524 85.8956 40.2524Z" fill="#221F20"/>
</svg>
