<svg width="162" height="164" viewBox="0 0 162 164" fill="none" xmlns="http://www.w3.org/2000/svg">
<path d="M154.652 100.734C154.652 100.734 162.336 62.3856 130.603 56.488" stroke="#020202" stroke-width="2" stroke-linecap="round" stroke-linejoin="round"/>
<path d="M140.575 80.7419C144.715 76.2476 147.056 71.1938 147.056 65.8556C147.056 58.8848 143.091 52.4093 136.307 47.0253C139.137 43.2142 140.692 38.6085 140.75 33.8634C140.75 15.1615 115.139 0 83.5532 0C51.967 0 26.3474 15.1615 26.3474 33.8634C26.4155 38.523 27.9329 43.046 30.6892 46.8052C23.7221 52.2259 19.674 58.7839 19.674 65.8556C19.674 71.845 22.6022 77.4675 27.7334 82.3654C22.4301 85.0291 17.972 89.1131 14.8566 94.1614C11.7413 99.2098 10.0912 105.024 10.0907 110.955C10.0907 119.445 13.4659 127.587 19.4738 133.59C25.4817 139.593 33.6302 142.965 42.1267 142.965H129.964C138.461 142.965 146.609 139.593 152.617 133.59C158.625 127.587 162 119.445 162 110.955C162.001 104.322 159.94 97.8522 156.102 92.44C152.264 87.0279 146.839 82.9403 140.575 80.7419Z" fill="#FACF63"/>
<path d="M1.81582 104.676C1.81582 104.676 -5.85813 66.3275 25.8658 60.4299" stroke="#020202" stroke-width="2" stroke-linecap="round" stroke-linejoin="round"/>
<path d="M42.2443 137.931L37.4986 157.632L28.5854 159.65" stroke="#020202" stroke-width="2" stroke-linecap="round" stroke-linejoin="round"/>
<path d="M127.269 137.931L130.182 157.991L138.873 160.833" stroke="#020202" stroke-width="2" stroke-linecap="round" stroke-linejoin="round"/>
<path d="M75.2639 30.745C77.7429 30.745 79.7526 28.3468 79.7526 25.3885C79.7526 22.4302 77.7429 20.032 75.2639 20.032C72.7848 20.032 70.7751 22.4302 70.7751 25.3885C70.7751 28.3468 72.7848 30.745 75.2639 30.745Z" fill="white"/>
<path d="M76.3321 28.2826C78.1724 28.2826 79.6642 26.6524 79.6642 24.6413C79.6642 22.6303 78.1724 21 76.3321 21C74.4918 21 73 22.6303 73 24.6413C73 26.6524 74.4918 28.2826 76.3321 28.2826Z" fill="#221F20"/>
<path d="M91.6032 30.746C94.0823 30.746 96.0919 28.3478 96.0919 25.3895C96.0919 22.4311 94.0823 20.033 91.6032 20.033C89.1242 20.033 87.1145 22.4311 87.1145 25.3895C87.1145 28.3478 89.1242 30.746 91.6032 30.746Z" fill="white"/>
<path d="M92.6709 28.2841C94.5111 28.2841 96.003 26.6538 96.003 24.6428C96.003 22.6317 94.5111 21.0015 92.6709 21.0015C90.8306 21.0015 89.3387 22.6317 89.3387 24.6428C89.3387 26.6538 90.8306 28.2841 92.6709 28.2841Z" fill="#221F20"/>
<path d="M72.224 43.916C72.224 39.8711 77.548 36.5783 84.1572 36.5783C90.7663 36.5783 96.0903 39.862 96.0903 43.916" stroke="#020202" stroke-linecap="round" stroke-linejoin="round"/>
</svg>
