<svg width="162" height="171" viewBox="0 0 162 171" fill="none" xmlns="http://www.w3.org/2000/svg">
<path d="M137.972 85.2637L137.457 85.8226L138.174 86.0742C144.717 88.3706 150.384 92.6406 154.393 98.294C158.402 103.947 160.555 110.705 160.554 117.634C160.554 126.502 157.028 135.007 150.753 141.278C144.477 147.549 135.965 151.072 127.09 151.072H33.9645C25.089 151.072 16.5772 147.549 10.3014 141.278C4.02561 135.007 0.5 126.502 0.5 117.634C0.500554 111.439 2.22411 105.366 5.47834 100.092C8.73257 94.819 13.3894 90.5529 18.9292 87.7704L19.5634 87.4519L19.05 86.9619C13.6772 81.8334 10.6602 75.995 10.6602 69.82C10.6602 62.5294 14.8322 55.7075 22.1455 50.0174L22.5291 49.719L22.2417 49.3271C19.3816 45.4263 17.8067 40.7332 17.7353 35.8982C17.7369 26.2338 24.3603 17.3955 35.2569 10.9458C46.1437 4.50185 61.2149 0.5 77.8848 0.5C94.5547 0.5 109.623 4.50185 120.508 10.9458C131.402 17.3955 138.023 26.2338 138.025 35.8982C137.964 40.8228 136.35 45.6027 133.413 49.5581L133.124 49.9468L133.503 50.2478C140.624 55.8991 144.71 62.6344 144.71 69.82C144.71 75.3241 142.299 80.5665 137.972 85.2637Z" fill="#FACF63" stroke="white"/>
<path d="M62.221 53.6553C62.221 53.6553 52.5308 93.9702 19.3808 85.5203" stroke="#020202" stroke-width="2" stroke-linecap="round" stroke-linejoin="round"/>
<path d="M47.2133 144.598L50.0623 163.612L41.7761 167.269" stroke="#020202" stroke-width="2" stroke-linecap="round" stroke-linejoin="round"/>
<path d="M102.929 144.598L106.589 165.519L98.3863 169.372" stroke="#020202" stroke-width="2" stroke-linecap="round" stroke-linejoin="round"/>
<path d="M47 144L48 140" stroke="black" stroke-width="2" stroke-linecap="round"/>
<path d="M103 144L105 140" stroke="black" stroke-width="2" stroke-linecap="round"/>
<path d="M70 59C70 56.795 72.9 55 76.5 55C80.1 55 83 56.79 83 59" stroke="#020202" stroke-linecap="round" stroke-linejoin="round"/>
<path d="M99.0911 52.5759C99.0911 52.5759 106.415 91.5321 138.937 84.7343" stroke="#020202" stroke-width="2" stroke-linecap="round" stroke-linejoin="round"/>
<path d="M68.4886 47.713C70.9677 47.713 72.9774 45.3148 72.9774 42.3565C72.9774 39.3982 70.9677 37 68.4886 37C66.0096 37 63.9999 39.3982 63.9999 42.3565C63.9999 45.3148 66.0096 47.713 68.4886 47.713Z" fill="white"/>
<path d="M68.9999 44C70.6568 44 71.9999 42.433 71.9999 40.5C71.9999 38.567 70.6568 37 68.9999 37C67.3431 37 65.9999 38.567 65.9999 40.5C65.9999 42.433 67.3431 44 68.9999 44Z" fill="#221F20"/>
<path d="M84.8279 47.714C87.3069 47.714 89.3166 45.3158 89.3166 42.3575C89.3166 39.3992 87.3069 37.001 84.8279 37.001C82.3488 37.001 80.3392 39.3992 80.3392 42.3575C80.3392 45.3158 82.3488 47.714 84.8279 47.714Z" fill="white"/>
<path d="M84.9999 44C86.6568 44 87.9999 42.433 87.9999 40.5C87.9999 38.567 86.6568 37 84.9999 37C83.3431 37 81.9999 38.567 81.9999 40.5C81.9999 42.433 83.3431 44 84.9999 44Z" fill="#221F20"/>
</svg>
