<svg width="263" height="383" viewBox="0 0 263 383" fill="none" xmlns="http://www.w3.org/2000/svg">
<ellipse cx="132.5" cy="358" rx="120.5" ry="25" fill="#868585"/>
<path d="M183.413 237.558L183.124 237.947L183.503 238.248C190.624 243.899 194.71 250.634 194.71 257.82C194.71 263.324 192.299 268.566 187.972 273.264L188.34 273.602L188.174 274.074C194.717 276.371 200.384 280.641 204.393 286.294C208.402 291.947 210.555 298.705 210.554 305.634C210.554 314.502 207.028 323.007 200.753 329.278C194.477 335.549 185.965 339.072 177.09 339.072H83.9645C75.089 339.072 66.5772 335.549 60.3014 329.278C54.0256 323.007 50.5 314.502 50.5 305.634C50.5006 299.439 52.2241 293.366 55.4783 288.092C58.7326 282.819 63.3894 278.553 68.9292 275.77L69.5634 275.452L69.05 274.962C63.6772 269.833 60.6602 263.995 60.6602 257.82C60.6602 250.529 64.8322 243.707 72.1455 238.017L72.5291 237.719L72.2417 237.327C69.3816 233.426 67.8067 228.733 67.7353 223.898C67.7369 214.234 74.3603 205.396 85.2569 198.946C96.1437 192.502 111.215 188.5 127.885 188.5C144.555 188.5 159.623 192.502 170.508 198.946C181.402 205.396 188.023 214.235 188.025 223.899C187.963 228.824 186.35 233.603 183.413 237.558Z" fill="#FACF63" stroke="white"/>
<path d="M112.221 241.655C112.221 241.655 102.531 281.97 69.3808 273.52" stroke="#020202" stroke-width="2" stroke-linecap="round" stroke-linejoin="round"/>
<path d="M97.2133 332.598L98.2232 347.289L89.7486 350.504" stroke="#020202" stroke-width="2" stroke-linecap="round" stroke-linejoin="round"/>
<path d="M152.929 332.598L153.939 347.289L145.464 350.504" stroke="#020202" stroke-width="2" stroke-linecap="round" stroke-linejoin="round"/>
<path d="M97.2388 331.932L108.846 337.736" stroke="black" stroke-width="2" stroke-linecap="round"/>
<path d="M152.954 331.932L164.562 337.736" stroke="black" stroke-width="2" stroke-linecap="round"/>
<path d="M120 247C120 244.795 122.9 243 126.5 243C130.1 243 133 244.79 133 247" stroke="#020202" stroke-linecap="round" stroke-linejoin="round"/>
<path d="M149.091 240.576C149.091 240.576 156.415 279.532 188.937 272.734" stroke="#020202" stroke-width="2" stroke-linecap="round" stroke-linejoin="round"/>
<path d="M118.489 235.713C120.968 235.713 122.977 233.315 122.977 230.356C122.977 227.398 120.968 225 118.489 225C116.01 225 114 227.398 114 230.356C114 233.315 116.01 235.713 118.489 235.713Z" fill="white"/>
<path d="M119 232C120.657 232 122 230.433 122 228.5C122 226.567 120.657 225 119 225C117.343 225 116 226.567 116 228.5C116 230.433 117.343 232 119 232Z" fill="#221F20"/>
<path d="M134.828 235.714C137.307 235.714 139.317 233.316 139.317 230.357C139.317 227.399 137.307 225.001 134.828 225.001C132.349 225.001 130.339 227.399 130.339 230.357C130.339 233.316 132.349 235.714 134.828 235.714Z" fill="white"/>
<path d="M135 232C136.657 232 138 230.433 138 228.5C138 226.567 136.657 225 135 225C133.343 225 132 226.567 132 228.5C132 230.433 133.343 232 135 232Z" fill="#221F20"/>
<path opacity="0.2" d="M127.24 55.5C204.5 55.5 259.5 333.5 253 358C246.5 382.5 127.24 382.5 127.24 382.5C127.24 382.5 18.0001 381.5 12.0001 358C6.00016 334.5 32.0001 55.5 127.24 55.5Z" fill="#312E2E"/>
<path fill-rule="evenodd" clip-rule="evenodd" d="M16.0346 97.3349C14.1618 97.7926 12.2443 98.0538 10.3149 98.114C0.911778 98.7359 1.08743 93.6581 1.55918 91.5388C0.999881 89.0303 0.614147 82.9816 10.0352 83.333C11.9656 83.3247 13.8923 83.5567 15.7827 84.0249C15.7827 84.0249 21.6695 60.5719 44.5656 71.6958C44.5656 71.6958 49.7099 32.0417 87.9459 51.3632C87.9459 51.3632 96.7862 17.925 124.007 17.5698L135.391 17.3543C162.651 16.6781 172.705 49.7586 172.705 49.7586C210.285 29.0019 216.95 68.4324 216.95 68.4324C239.408 56.4499 246.179 79.6633 246.179 79.6633C248.05 79.1239 249.967 78.8192 251.896 78.7544C260.619 78.0982 261.11 83.2571 260.762 86.0276C261.498 87.6039 262.013 93.8122 252.176 93.5354C251.377 93.5407 250.403 93.328 249.474 93.1253C248.157 92.8378 246.932 92.5703 246.431 92.9733C246.326 93.0576 246.157 93.4172 245.899 93.9663C244.057 97.8929 237.667 111.507 217.612 103.392C217.612 103.392 212.323 136.633 174.045 120.564C174.045 120.564 165.149 148.607 137.883 148.989L126.498 149.205C99.2836 149.854 89.2862 122.168 89.2862 122.168C51.7473 139.673 45.2273 106.655 45.2273 106.655C22.7332 116.764 16.0346 97.3349 16.0346 97.3349Z" fill="#989595"/>
<path fill-rule="evenodd" clip-rule="evenodd" d="M181.72 31.0907L198.694 4.10753L169.589 33.8424L174.511 34.7182L174.511 34.7183L183.052 36.2381L169.923 60.505L190.739 37.606L190.756 37.609L194.498 33.7041L181.72 31.0907Z" fill="#FFD15A"/>
</svg>
