<svg width="158" height="161" viewBox="0 0 158 161" fill="none" xmlns="http://www.w3.org/2000/svg">
<path d="M135.135 83.508L134.62 84.0669L135.337 84.3186C141.743 86.5672 147.292 90.7482 151.218 96.284C155.143 101.82 157.252 108.437 157.251 115.221C157.251 123.905 153.799 132.233 147.654 138.373C141.508 144.513 133.174 147.963 124.483 147.963H33.2679C24.5772 147.963 16.2425 144.513 10.0974 138.373C3.95222 132.233 0.5 123.905 0.5 115.222C0.500542 109.155 2.18822 103.208 5.37471 98.0449C8.5612 92.8813 13.1211 88.7041 18.5456 85.9795L19.1797 85.661L18.6664 85.171C13.4051 80.149 10.4518 74.4329 10.4518 68.388C10.4518 61.2512 14.5358 54.5719 21.6976 48.9997L22.0812 48.7013L21.7938 48.3094C18.9936 44.4903 17.4518 39.8956 17.3818 35.1619C17.3835 25.7009 23.8676 17.0466 34.539 10.7302C45.2007 4.41944 59.9609 0.5 76.2874 0.5C92.614 0.5 107.372 4.41944 118.031 10.7301C128.7 17.0466 135.182 25.7008 135.184 35.1619C135.124 39.9833 133.544 44.6631 130.668 48.5355L130.38 48.9243L130.759 49.2253C137.732 54.7595 141.732 61.354 141.732 68.388C141.732 73.776 139.371 78.9085 135.135 83.508Z" fill="#FACF63" stroke="white"/>
<path d="M56.8311 53.2916C56.8311 53.2916 46.2799 92.2892 18.1909 86.0399" stroke="#020202" stroke-width="2" stroke-linecap="round" stroke-linejoin="round"/>
<path d="M46.2449 141.633L47.2341 156.022L38.9333 159.171" stroke="#020202" stroke-width="2" stroke-linecap="round" stroke-linejoin="round"/>
<path d="M100.818 141.633L101.807 156.022L93.5062 159.171" stroke="#020202" stroke-width="2" stroke-linecap="round" stroke-linejoin="round"/>
<path d="M46.2698 140.98L57.6391 146.665" stroke="black" stroke-width="2" stroke-linecap="round"/>
<path d="M100.843 140.98L112.212 146.665" stroke="black" stroke-width="2" stroke-linecap="round"/>
<path d="M99.6021 51.454C99.6021 51.454 107.484 89.3229 136.416 83.8553" stroke="#020202" stroke-width="2" stroke-linecap="round" stroke-linejoin="round"/>
<path d="M66.4887 44.713C68.9678 44.713 70.9774 42.3148 70.9774 39.3565C70.9774 36.3982 68.9678 34 66.4887 34C64.0097 34 62 36.3982 62 39.3565C62 42.3148 64.0097 44.713 66.4887 44.713Z" fill="white"/>
<path d="M67.3321 41.2826C69.1724 41.2826 70.6642 39.6524 70.6642 37.6413C70.6642 35.6303 69.1724 34 67.3321 34C65.4918 34 64 35.6303 64 37.6413C64 39.6524 65.4918 41.2826 67.3321 41.2826Z" fill="#221F20"/>
<path d="M82.8279 44.714C85.307 44.714 87.3167 42.3158 87.3167 39.3575C87.3167 36.3992 85.307 34.001 82.8279 34.001C80.3489 34.001 78.3392 36.3992 78.3392 39.3575C78.3392 42.3158 80.3489 44.714 82.8279 44.714Z" fill="white"/>
<path d="M83.6707 41.2841C85.511 41.2841 87.0028 39.6538 87.0028 37.6428C87.0028 35.6317 85.511 34.0015 83.6707 34.0015C81.8305 34.0015 80.3386 35.6317 80.3386 37.6428C80.3386 39.6538 81.8305 41.2841 83.6707 41.2841Z" fill="#221F20"/>
<path d="M83.5 50C83.5 50.1834 83.3816 50.4481 82.9543 50.7671C82.5361 51.0794 81.899 51.3818 81.0669 51.6445C79.4086 52.1682 77.0868 52.5 74.5 52.5C71.9132 52.5 69.5914 52.1682 67.9331 51.6445C67.101 51.3818 66.4639 51.0794 66.0457 50.7671C65.6184 50.4481 65.5 50.1834 65.5 50C65.5 49.8166 65.6184 49.5519 66.0457 49.2329C66.4639 48.9206 67.101 48.6182 67.9331 48.3555C69.5914 47.8318 71.9132 47.5 74.5 47.5C77.0868 47.5 79.4086 47.8318 81.0669 48.3555C81.899 48.6182 82.5361 48.9206 82.9543 49.2329C83.3816 49.5519 83.5 49.8166 83.5 50Z" stroke="black"/>
</svg>
