<svg width="263" height="368" viewBox="0 0 263 368" fill="none" xmlns="http://www.w3.org/2000/svg">
<ellipse cx="132.5" cy="343" rx="120.5" ry="25" fill="#868585"/>
<path d="M183.413 222.558L183.124 222.947L183.503 223.248C190.624 228.899 194.71 235.634 194.71 242.82C194.71 248.324 192.299 253.566 187.972 258.264L188.34 258.602L188.174 259.074C194.717 261.371 200.384 265.641 204.393 271.294C208.402 276.947 210.555 283.705 210.554 290.634C210.554 299.502 207.028 308.007 200.753 314.278C194.477 320.549 185.965 324.072 177.09 324.072H83.9645C75.089 324.072 66.5772 320.549 60.3014 314.278C54.0256 308.007 50.5 299.502 50.5 290.634C50.5006 284.439 52.2241 278.366 55.4783 273.092C58.7326 267.819 63.3894 263.553 68.9292 260.77L69.5634 260.452L69.05 259.962C63.6772 254.833 60.6602 248.995 60.6602 242.82C60.6602 235.529 64.8322 228.707 72.1455 223.017L72.5291 222.719L72.2417 222.327C69.3816 218.426 67.8067 213.733 67.7353 208.898C67.7369 199.234 74.3603 190.396 85.2569 183.946C96.1437 177.502 111.215 173.5 127.885 173.5C144.555 173.5 159.623 177.502 170.508 183.946C181.402 190.396 188.023 199.235 188.025 208.899C187.963 213.824 186.35 218.603 183.413 222.558Z" fill="#FACF63" stroke="white"/>
<path d="M112.221 226.655C112.221 226.655 102.531 266.97 69.3808 258.52" stroke="#020202" stroke-width="2" stroke-linecap="round" stroke-linejoin="round"/>
<path d="M97.2133 317.598L98.2232 332.289L89.7486 335.504" stroke="#020202" stroke-width="2" stroke-linecap="round" stroke-linejoin="round"/>
<path d="M152.929 317.598L153.939 332.289L145.464 335.504" stroke="#020202" stroke-width="2" stroke-linecap="round" stroke-linejoin="round"/>
<path d="M97.2388 316.932L108.846 322.735" stroke="black" stroke-width="2" stroke-linecap="round"/>
<path d="M152.954 316.932L164.562 322.735" stroke="black" stroke-width="2" stroke-linecap="round"/>
<path d="M120 232C120 229.795 122.9 228 126.5 228C130.1 228 133 229.79 133 232" stroke="#020202" stroke-linecap="round" stroke-linejoin="round"/>
<path d="M149.091 225.576C149.091 225.576 156.415 264.532 188.937 257.734" stroke="#020202" stroke-width="2" stroke-linecap="round" stroke-linejoin="round"/>
<path d="M118.489 220.713C120.968 220.713 122.977 218.315 122.977 215.356C122.977 212.398 120.968 210 118.489 210C116.01 210 114 212.398 114 215.356C114 218.315 116.01 220.713 118.489 220.713Z" fill="white"/>
<path d="M119 219C120.657 219 122 217.433 122 215.5C122 213.567 120.657 212 119 212C117.343 212 116 213.567 116 215.5C116 217.433 117.343 219 119 219Z" fill="#221F20"/>
<path d="M134.828 220.714C137.307 220.714 139.317 218.316 139.317 215.357C139.317 212.399 137.307 210.001 134.828 210.001C132.349 210.001 130.339 212.399 130.339 215.357C130.339 218.316 132.349 220.714 134.828 220.714Z" fill="white"/>
<path d="M135 219C136.657 219 138 217.433 138 215.5C138 213.567 136.657 212 135 212C133.343 212 132 213.567 132 215.5C132 217.433 133.343 219 135 219Z" fill="#221F20"/>
<path opacity="0.2" d="M127.24 40.5C204.5 40.5 259.5 318.5 253 343C246.5 367.5 127.24 367.5 127.24 367.5C127.24 367.5 17.9999 366.5 11.9999 343C5.99992 319.5 31.9999 40.5 127.24 40.5Z" fill="#312E2E"/>
<path fill-rule="evenodd" clip-rule="evenodd" d="M16.0345 82.3348C14.1617 82.7926 12.2443 83.0538 10.3149 83.114C0.911839 83.7358 1.08737 78.6582 1.55912 76.5388C0.999822 74.0303 0.614025 67.9816 10.0351 68.333C11.9655 68.3247 13.8923 68.5566 15.7827 69.0249C15.7827 69.0249 21.6695 45.5718 44.5655 56.6958C44.5655 56.6958 49.7098 17.0417 87.9458 36.3631C87.9458 36.3631 96.7861 2.92492 124.006 2.56977L135.391 2.35426C162.651 1.67804 172.705 34.7586 172.705 34.7586C210.285 14.0019 216.95 53.4324 216.95 53.4324C239.408 41.4499 246.179 64.6633 246.179 64.6633C248.05 64.1239 249.967 63.8191 251.896 63.7543C260.619 63.0981 261.11 68.257 260.762 71.0276C261.498 72.6039 262.013 78.8122 252.176 78.5354C251.377 78.5407 250.403 78.328 249.474 78.1253C248.157 77.8378 246.932 77.5703 246.43 77.9732C246.326 78.0575 246.157 78.4172 245.899 78.9663C244.057 82.8929 237.667 96.5073 217.611 88.3919C217.611 88.3919 212.323 121.633 174.045 105.564C174.045 105.564 165.149 133.607 137.883 133.989L126.498 134.205C99.2835 134.854 89.2861 107.168 89.2861 107.168C51.7473 124.673 45.2272 91.6553 45.2272 91.6553C22.7332 101.764 16.0345 82.3348 16.0345 82.3348Z" fill="#989595"/>
<path d="M122.768 59.9999C122.188 62.3213 119.91 64.6428 116.384 64.6428C112.858 64.6428 110.58 62.9017 110 59.9999" stroke="black" stroke-linecap="round"/>
<path d="M144.822 59.9999C144.242 62.3213 141.964 64.6428 138.438 64.6428C134.912 64.6428 132.635 62.9017 132.054 59.9999" stroke="black" stroke-linecap="round"/>
</svg>
