<svg width="243" height="328" viewBox="0 0 243 328" fill="none" xmlns="http://www.w3.org/2000/svg">
<ellipse cx="121.5" cy="303" rx="120.5" ry="25" fill="#868585"/>
<path d="M176.972 218.264L176.457 218.823L177.174 219.074C183.717 221.371 189.384 225.641 193.393 231.294C197.402 236.947 199.555 243.705 199.554 250.634C199.554 259.502 196.028 268.007 189.753 274.278C183.477 280.549 174.965 284.072 166.09 284.072H72.9645C64.089 284.072 55.5772 280.549 49.3014 274.278C43.0256 268.007 39.5 259.502 39.5 250.634C39.5006 244.439 41.2241 238.366 44.4783 233.092C47.7326 227.819 52.3894 223.553 57.9292 220.77L58.5634 220.452L58.05 219.962C52.6772 214.833 49.6602 208.995 49.6602 202.82C49.6602 195.529 53.8322 188.707 61.1455 183.017L61.5291 182.719L61.2417 182.327C58.3816 178.426 56.8067 173.733 56.7353 168.898C56.7369 159.234 63.3603 150.396 74.2569 143.946C85.1437 137.502 100.215 133.5 116.885 133.5C133.555 133.5 148.623 137.502 159.508 143.946C170.402 150.395 177.023 159.234 177.025 168.898C176.964 173.823 175.35 178.603 172.413 182.558L172.124 182.947L172.503 183.248C179.624 188.899 183.71 195.634 183.71 202.82C183.71 208.324 181.299 213.566 176.972 218.264Z" fill="#FACF63" stroke="white"/>
<path d="M101.221 186.655C101.221 186.655 91.5307 226.97 58.3808 218.52" stroke="#020202" stroke-width="2" stroke-linecap="round" stroke-linejoin="round"/>
<path d="M86.2131 277.598L87.2229 292.289L78.7483 295.504" stroke="#020202" stroke-width="2" stroke-linecap="round" stroke-linejoin="round"/>
<path d="M141.929 277.598L142.939 292.289L134.464 295.504" stroke="#020202" stroke-width="2" stroke-linecap="round" stroke-linejoin="round"/>
<path d="M86.2383 276.932L97.8457 282.735" stroke="black" stroke-width="2" stroke-linecap="round"/>
<path d="M141.954 276.932L153.562 282.735" stroke="black" stroke-width="2" stroke-linecap="round"/>
<path d="M109 192C109 189.795 111.9 188 115.5 188C119.1 188 122 189.79 122 192" stroke="#020202" stroke-linecap="round" stroke-linejoin="round"/>
<path d="M138.091 185.576C138.091 185.576 145.415 224.532 177.937 217.734" stroke="#020202" stroke-width="2" stroke-linecap="round" stroke-linejoin="round"/>
<path d="M107.489 180.713C109.968 180.713 111.977 178.315 111.977 175.356C111.977 172.398 109.968 170 107.489 170C105.01 170 103 172.398 103 175.356C103 178.315 105.01 180.713 107.489 180.713Z" fill="white"/>
<path d="M108 177C109.657 177 111 175.433 111 173.5C111 171.567 109.657 170 108 170C106.343 170 105 171.567 105 173.5C105 175.433 106.343 177 108 177Z" fill="#221F20"/>
<path d="M123.828 180.714C126.307 180.714 128.317 178.316 128.317 175.357C128.317 172.399 126.307 170.001 123.828 170.001C121.349 170.001 119.339 172.399 119.339 175.357C119.339 178.316 121.349 180.714 123.828 180.714Z" fill="white"/>
<path d="M124 177C125.657 177 127 175.433 127 173.5C127 171.567 125.657 170 124 170C122.343 170 121 171.567 121 173.5C121 175.433 122.343 177 124 177Z" fill="#221F20"/>
<path opacity="0.2" d="M116.24 0.5C193.5 0.5 248.5 278.5 242 303C235.5 327.5 116.24 327.5 116.24 327.5C116.24 327.5 6.99988 326.5 0.9999 303C-5.00008 279.5 20.9999 0.5 116.24 0.5Z" fill="#312E2E"/>
</svg>
