<svg width="198" height="182" viewBox="0 0 198 182" fill="none" xmlns="http://www.w3.org/2000/svg">
<ellipse cx="99" cy="136.5" rx="99" ry="19.5" fill="#868585"/>
<path d="M140.056 149L161.478 165.813L158.085 174.265" stroke="#020202" stroke-width="2" stroke-linecap="round" stroke-linejoin="round"/>
<path d="M155.972 85.2637L155.457 85.8226L156.174 86.0742C162.717 88.3706 168.384 92.6406 172.393 98.294C176.402 103.947 178.555 110.705 178.554 117.634C178.554 126.502 175.028 135.007 168.753 141.278C162.477 147.549 153.965 151.072 145.09 151.072H51.9645C43.089 151.072 34.5772 147.549 28.3014 141.278C22.0256 135.007 18.5 126.502 18.5 117.634C18.5006 111.439 20.2241 105.366 23.4783 100.092C26.7326 94.819 31.3894 90.5529 36.9292 87.7704L37.5634 87.4519L37.05 86.9619C31.6772 81.8334 28.6602 75.995 28.6602 69.82C28.6602 62.5294 32.8322 55.7075 40.1455 50.0174L40.5291 49.719L40.2417 49.3271C37.3816 45.4263 35.8067 40.7332 35.7353 35.8982C35.7369 26.2338 42.3603 17.3955 53.2569 10.9458C64.1437 4.50185 79.2149 0.5 95.8848 0.5C112.555 0.5 127.623 4.50185 138.508 10.9458C149.402 17.3955 156.023 26.2338 156.025 35.8982C155.964 40.8228 154.35 45.6028 151.413 49.5581L151.124 49.9468L151.503 50.2478C158.624 55.8991 162.71 62.6344 162.71 69.82C162.71 75.3241 160.299 80.5665 155.972 85.2637Z" fill="#FACF63" stroke="white"/>
<path d="M69.101 106.237C16.84 85.1773 32.4069 80.4576 32.4069 80.4576" stroke="#020202" stroke-width="2" stroke-linecap="round" stroke-linejoin="round"/>
<path d="M87 59C87 57.8975 89.9 57 93.5 57C97.1 57 100 57.895 100 59" stroke="#020202" stroke-linecap="round" stroke-linejoin="round"/>
<path d="M124 110.401C176.595 79.2559 159.661 79.3571 159.661 79.3571" stroke="#020202" stroke-width="2" stroke-linecap="round" stroke-linejoin="round"/>
<path d="M47.4246 152.598L50.5666 176.306L39.521 181" stroke="#020202" stroke-width="2" stroke-linecap="round" stroke-linejoin="round"/>
<path d="M47.521 152L55.521 142" stroke="black" stroke-width="2" stroke-linecap="round"/>
<path d="M85.4886 47.713C87.9677 47.713 89.9773 45.3148 89.9773 42.3565C89.9773 39.3982 87.9677 37 85.4886 37C83.0096 37 80.9999 39.3982 80.9999 42.3565C80.9999 45.3148 83.0096 47.713 85.4886 47.713Z" fill="white"/>
<path d="M85.9999 44C87.6568 44 88.9999 42.433 88.9999 40.5C88.9999 38.567 87.6568 37 85.9999 37C84.3431 37 82.9999 38.567 82.9999 40.5C82.9999 42.433 84.3431 44 85.9999 44Z" fill="#221F20"/>
<path d="M101.828 47.714C104.307 47.714 106.317 45.3158 106.317 42.3575C106.317 39.3992 104.307 37.001 101.828 37.001C99.3488 37.001 97.3391 39.3992 97.3391 42.3575C97.3391 45.3158 99.3488 47.714 101.828 47.714Z" fill="white"/>
<path d="M102 44C103.657 44 105 42.433 105 40.5C105 38.567 103.657 37 102 37C100.343 37 98.9999 38.567 98.9999 40.5C98.9999 42.433 100.343 44 102 44Z" fill="#221F20"/>
</svg>
