<svg width="158" height="161" viewBox="0 0 158 161" fill="none" xmlns="http://www.w3.org/2000/svg">
<path d="M135.135 83.508L134.62 84.0669L135.337 84.3186C141.743 86.5672 147.292 90.7482 151.218 96.284C155.143 101.82 157.252 108.437 157.251 115.221C157.251 123.905 153.799 132.233 147.654 138.373C141.508 144.513 133.174 147.963 124.483 147.963H33.2679C24.5772 147.963 16.2425 144.513 10.0974 138.373C3.95222 132.233 0.5 123.905 0.5 115.222C0.500542 109.155 2.18822 103.208 5.37471 98.0449C8.5612 92.8813 13.1211 88.7041 18.5456 85.9795L19.1797 85.661L18.6664 85.171C13.4051 80.149 10.4518 74.4328 10.4518 68.388C10.4518 61.2512 14.5358 54.5719 21.6976 48.9997L22.0812 48.7013L21.7938 48.3094C18.9936 44.4903 17.4518 39.8956 17.3818 35.1619C17.3835 25.7008 23.8676 17.0466 34.539 10.7302C45.2007 4.41944 59.9609 0.5 76.2874 0.5C92.614 0.5 107.372 4.41944 118.031 10.7301C128.7 17.0468 135.182 25.7015 135.184 35.1631C135.124 39.9841 133.544 44.6634 130.668 48.5355L130.38 48.9243L130.759 49.2253C137.732 54.7596 141.732 61.354 141.732 68.388C141.732 73.776 139.371 78.9086 135.135 83.508Z" fill="#FACF63" stroke="white"/>
<path d="M56.8311 53.2917C56.8311 53.2917 46.2799 92.2893 18.1909 86.04" stroke="#020202" stroke-width="2" stroke-linecap="round" stroke-linejoin="round"/>
<path d="M46.2448 141.633L47.2339 156.022L38.9332 159.171" stroke="#020202" stroke-width="2" stroke-linecap="round" stroke-linejoin="round"/>
<path d="M100.818 141.633L101.807 156.022L93.5059 159.171" stroke="#020202" stroke-width="2" stroke-linecap="round" stroke-linejoin="round"/>
<path d="M46.2695 140.98L57.6389 146.665" stroke="black" stroke-width="2" stroke-linecap="round"/>
<path d="M100.843 140.98L112.212 146.665" stroke="black" stroke-width="2" stroke-linecap="round"/>
<path d="M99.6024 51.454C99.6024 51.454 107.484 89.3229 136.416 83.8553" stroke="#020202" stroke-width="2" stroke-linecap="round" stroke-linejoin="round"/>
<path d="M66.4887 44.713C68.9678 44.713 70.9774 42.3148 70.9774 39.3565C70.9774 36.3982 68.9678 34 66.4887 34C64.0097 34 62 36.3982 62 39.3565C62 42.3148 64.0097 44.713 66.4887 44.713Z" fill="white"/>
<path d="M66.3321 43.2826C68.1724 43.2826 69.6642 41.6524 69.6642 39.6413C69.6642 37.6303 68.1724 36 66.3321 36C64.4918 36 63 37.6303 63 39.6413C63 41.6524 64.4918 43.2826 66.3321 43.2826Z" fill="#221F20"/>
<path d="M82.8281 44.714C85.3071 44.714 87.3168 42.3158 87.3168 39.3575C87.3168 36.3992 85.3071 34.001 82.8281 34.001C80.349 34.001 78.3394 36.3992 78.3394 39.3575C78.3394 42.3158 80.349 44.714 82.8281 44.714Z" fill="white"/>
<path d="M82.671 43.2841C84.5113 43.2841 86.0031 41.6538 86.0031 39.6428C86.0031 37.6317 84.5113 36.0015 82.671 36.0015C80.8307 36.0015 79.3389 37.6317 79.3389 39.6428C79.3389 41.6538 80.8307 43.2841 82.671 43.2841Z" fill="#221F20"/>
<path d="M82.5 51.5C82.5 52.4512 81.7159 53.447 80.1404 54.2348C78.5947 55.0076 76.4245 55.5 74 55.5C71.5755 55.5 69.4053 55.0076 67.8596 54.2348C66.2841 53.447 65.5 52.4512 65.5 51.5C65.5 50.5488 66.2841 49.553 67.8596 48.7652C69.4053 47.9924 71.5755 47.5 74 47.5C76.4245 47.5 78.5947 47.9924 80.1404 48.7652C81.7159 49.553 82.5 50.5488 82.5 51.5Z" stroke="black"/>
</svg>
