<svg width="263" height="368" viewBox="0 0 263 368" fill="none" xmlns="http://www.w3.org/2000/svg">
<ellipse cx="132.5" cy="343" rx="120.5" ry="25" fill="#868585"/>
<path d="M183.413 222.558L183.124 222.947L183.503 223.248C190.624 228.899 194.71 235.634 194.71 242.82C194.71 248.324 192.299 253.566 187.972 258.264L188.34 258.602L188.174 259.074C194.717 261.371 200.384 265.641 204.393 271.294C208.402 276.947 210.555 283.705 210.554 290.634C210.554 299.502 207.028 308.007 200.753 314.278C194.477 320.549 185.965 324.072 177.09 324.072H83.9645C75.089 324.072 66.5772 320.549 60.3014 314.278C54.0256 308.007 50.5 299.502 50.5 290.634C50.5006 284.439 52.2241 278.366 55.4783 273.092C58.7326 267.819 63.3894 263.553 68.9292 260.77L69.5634 260.452L69.05 259.962C63.6772 254.833 60.6602 248.995 60.6602 242.82C60.6602 235.529 64.8322 228.707 72.1455 223.017L72.5291 222.719L72.2417 222.327C69.3816 218.426 67.8067 213.733 67.7353 208.898C67.7369 199.234 74.3603 190.396 85.2569 183.946C96.1437 177.502 111.215 173.5 127.885 173.5C144.555 173.5 159.623 177.502 170.508 183.946C181.402 190.396 188.023 199.235 188.025 208.899C187.963 213.824 186.35 218.603 183.413 222.558Z" fill="#FACF63" stroke="white"/>
<path d="M112.221 226.655C112.221 226.655 102.531 266.97 69.3808 258.52" stroke="#020202" stroke-width="2" stroke-linecap="round" stroke-linejoin="round"/>
<path d="M97.2133 317.598L98.2232 332.289L89.7486 335.504" stroke="#020202" stroke-width="2" stroke-linecap="round" stroke-linejoin="round"/>
<path d="M152.929 317.598L153.939 332.289L145.464 335.504" stroke="#020202" stroke-width="2" stroke-linecap="round" stroke-linejoin="round"/>
<path d="M97.2388 316.932L108.846 322.736" stroke="black" stroke-width="2" stroke-linecap="round"/>
<path d="M152.954 316.932L164.562 322.736" stroke="black" stroke-width="2" stroke-linecap="round"/>
<path d="M114.713 235.81C114.713 231.522 120.358 228.031 127.365 228.031C134.372 228.031 140.016 231.512 140.016 235.81" stroke="#020202" stroke-linecap="round" stroke-linejoin="round"/>
<path d="M149.091 225.576C149.091 225.576 156.415 264.532 188.937 257.734" stroke="#020202" stroke-width="2" stroke-linecap="round" stroke-linejoin="round"/>
<path d="M122.775 215.947C122.195 218.269 119.917 220.59 116.391 220.59C112.865 220.59 110.587 218.849 110.007 215.947" stroke="black" stroke-linecap="round"/>
<path d="M144.829 215.947C144.249 218.269 141.971 220.59 138.445 220.59C134.919 220.59 132.641 218.849 132.061 215.947" stroke="black" stroke-linecap="round"/>
<path fill-rule="evenodd" clip-rule="evenodd" d="M102.882 232.448C102.848 231.413 102.637 228.884 102.637 228.884C102.637 228.884 99.5405 230.249 99.3324 230.349C99.2654 230.382 99.1719 230.438 99.0759 230.501C98.9703 230.563 98.8677 230.632 98.769 230.709C98.7033 230.755 98.6603 230.786 98.6603 230.786L98.6678 230.79C98.3068 231.095 98.0037 231.495 97.7984 231.972C97.155 233.467 97.7164 235.151 99.0523 235.734C100.388 236.317 101.993 235.577 102.636 234.082C102.869 233.542 102.944 232.977 102.882 232.448Z" fill="white"/>
<path fill-rule="evenodd" clip-rule="evenodd" d="M104.882 221.448C104.848 220.413 104.637 217.884 104.637 217.884C104.637 217.884 101.54 219.249 101.332 219.349C101.265 219.382 101.172 219.438 101.076 219.501C100.97 219.563 100.868 219.632 100.769 219.709C100.703 219.755 100.66 219.786 100.66 219.786L100.668 219.79C100.307 220.095 100.004 220.495 99.7984 220.972C99.155 222.467 99.7164 224.151 101.052 224.734C102.388 225.317 103.993 224.577 104.636 223.082C104.869 222.542 104.944 221.977 104.882 221.448Z" fill="white"/>
<path fill-rule="evenodd" clip-rule="evenodd" d="M154.901 229.684C154.619 228.685 154.056 226.199 154.056 226.199C154.056 226.199 157.533 226.461 157.77 226.486C157.846 226.495 157.956 226.518 158.071 226.545C158.193 226.569 158.315 226.6 158.434 226.639C158.514 226.661 158.567 226.677 158.567 226.677L158.561 226.684C159.011 226.853 159.432 227.133 159.78 227.52C160.872 228.73 160.83 230.527 159.688 231.533C158.545 232.539 156.733 232.372 155.642 231.161C155.247 230.724 155.001 230.21 154.901 229.684Z" fill="white"/>
<path fill-rule="evenodd" clip-rule="evenodd" d="M148.901 220.684C148.619 219.685 148.056 217.199 148.056 217.199C148.056 217.199 151.533 217.461 151.77 217.486C151.846 217.495 151.956 217.518 152.071 217.545C152.193 217.569 152.315 217.6 152.434 217.639C152.514 217.661 152.567 217.677 152.567 217.677L152.561 217.684C153.011 217.853 153.432 218.133 153.78 218.52C154.872 219.73 154.83 221.527 153.688 222.533C152.545 223.539 150.733 223.372 149.642 222.161C149.247 221.724 149.001 221.21 148.901 220.684Z" fill="white"/>
<path opacity="0.2" d="M127.24 40.5C204.5 40.5 259.5 318.5 253 343C246.5 367.5 127.24 367.5 127.24 367.5C127.24 367.5 17.9999 366.5 11.9999 343C5.99992 319.5 31.9999 40.5 127.24 40.5Z" fill="#312E2E"/>
<path fill-rule="evenodd" clip-rule="evenodd" d="M16.0345 82.3351C14.1617 82.7928 12.2443 83.054 10.3149 83.1142C0.911839 83.7361 1.08737 78.6584 1.55912 76.5391C0.999822 74.0306 0.614025 67.9818 10.0351 68.3332C11.9655 68.3249 13.8923 68.5569 15.7827 69.0251C15.7827 69.0251 21.6695 45.5721 44.5655 56.696C44.5655 56.696 49.7098 17.042 87.9458 36.3634C87.9458 36.3634 96.7861 2.92517 124.006 2.57002L135.391 2.3545C162.651 1.67829 172.705 34.7588 172.705 34.7588C210.285 14.0021 216.95 53.4326 216.95 53.4326C239.408 41.4501 246.179 64.6636 246.179 64.6636C248.05 64.1241 249.967 63.8194 251.896 63.7546C260.619 63.0984 261.11 68.2573 260.762 71.0278C261.498 72.6041 262.013 78.8124 252.176 78.5356C251.377 78.5409 250.403 78.3283 249.474 78.1255C248.157 77.838 246.932 77.5705 246.43 77.9735C246.326 78.0578 246.157 78.4174 245.899 78.9665C244.057 82.8931 237.667 96.5075 217.611 88.3922C217.611 88.3922 212.323 121.634 174.045 105.564C174.045 105.564 165.149 133.607 137.883 133.989L126.498 134.205C99.2835 134.854 89.2861 107.169 89.2861 107.169C51.7473 124.674 45.2272 91.6555 45.2272 91.6555C22.7332 101.764 16.0345 82.3351 16.0345 82.3351Z" fill="#989595"/>
<path d="M121 80C121 77.795 123.9 76 127.5 76C131.1 76 134 77.79 134 80" stroke="#020202" stroke-linecap="round" stroke-linejoin="round"/>
<path d="M122.768 59.9999C122.188 62.3213 119.91 64.6428 116.384 64.6428C112.858 64.6428 110.58 62.9017 110 59.9999" stroke="black" stroke-linecap="round"/>
<path d="M144.822 59.9999C144.242 62.3213 141.964 64.6428 138.438 64.6428C134.912 64.6428 132.635 62.9017 132.054 59.9999" stroke="black" stroke-linecap="round"/>
</svg>
