<svg width="158" height="161" viewBox="0 0 158 161" fill="none" xmlns="http://www.w3.org/2000/svg">
<path d="M135.135 83.508L134.62 84.0669L135.337 84.3186C141.743 86.5672 147.292 90.7482 151.218 96.284C155.143 101.82 157.252 108.437 157.251 115.221C157.251 123.905 153.799 132.233 147.654 138.373C141.508 144.513 133.174 147.963 124.483 147.963H33.2679C24.5772 147.963 16.2425 144.513 10.0974 138.373C3.95222 132.233 0.5 123.905 0.5 115.222C0.500542 109.155 2.18822 103.208 5.37471 98.0449C8.5612 92.8813 13.1211 88.7041 18.5456 85.9795L19.1797 85.661L18.6664 85.171C13.4051 80.149 10.4518 74.4329 10.4518 68.388C10.4518 61.2512 14.5358 54.5719 21.6976 48.9997L22.0812 48.7013L21.7938 48.3094C18.9936 44.4903 17.4518 39.8956 17.3818 35.1619C17.3835 25.7009 23.8676 17.0466 34.539 10.7302C45.2007 4.41944 59.9609 0.5 76.2874 0.5C92.614 0.5 107.372 4.41944 118.031 10.7301C128.7 17.0466 135.182 25.7008 135.184 35.1619C135.124 39.9833 133.544 44.6631 130.668 48.5355L130.38 48.9243L130.759 49.2253C137.732 54.7595 141.732 61.354 141.732 68.388C141.732 73.776 139.371 78.9085 135.135 83.508Z" fill="#FACF63" stroke="white"/>
<path d="M56.8311 53.2916C56.8311 53.2916 46.2799 92.2892 18.1909 86.0399" stroke="#020202" stroke-width="2" stroke-linecap="round" stroke-linejoin="round"/>
<path d="M46.2448 141.633L47.2339 156.022L38.9332 159.171" stroke="#020202" stroke-width="2" stroke-linecap="round" stroke-linejoin="round"/>
<path d="M100.818 141.633L101.807 156.022L93.5062 159.171" stroke="#020202" stroke-width="2" stroke-linecap="round" stroke-linejoin="round"/>
<path d="M46.2698 140.98L57.6391 146.665" stroke="black" stroke-width="2" stroke-linecap="round"/>
<path d="M100.843 140.98L112.212 146.665" stroke="black" stroke-width="2" stroke-linecap="round"/>
<path d="M64.8055 54.2344C64.8055 50.0339 70.3342 46.6145 77.1975 46.6145C84.0608 46.6145 89.5896 50.0244 89.5896 54.2344" stroke="#020202" stroke-linecap="round" stroke-linejoin="round"/>
<path d="M99.6021 51.454C99.6021 51.454 107.484 89.3229 136.416 83.8553" stroke="#020202" stroke-width="2" stroke-linecap="round" stroke-linejoin="round"/>
<path d="M70.7325 36.9999C70.1521 39.3213 67.8743 41.6428 64.3484 41.6428C60.8226 41.6428 58.5447 39.9017 57.9644 36.9999" stroke="black" stroke-linecap="round"/>
<path d="M92.7867 36.9999C92.2063 39.3213 89.9285 41.6428 86.4026 41.6428C82.8768 41.6428 80.5989 39.9017 80.0186 36.9999" stroke="black" stroke-linecap="round"/>
<path fill-rule="evenodd" clip-rule="evenodd" d="M56.8818 44.9303C56.8477 43.8959 56.6373 41.3666 56.6373 41.3666C56.6373 41.3666 53.5405 42.7316 53.3324 42.8319C53.2654 42.8642 53.1719 42.9209 53.0759 42.983C52.9703 43.0452 52.8677 43.1147 52.769 43.191C52.7033 43.2371 52.6603 43.2683 52.6603 43.2683L52.6678 43.2727C52.3068 43.5775 52.0037 43.9776 51.7984 44.4545C51.155 45.9494 51.7164 47.6337 53.0523 48.2165C54.3882 48.7992 55.9927 48.0598 56.636 46.5648C56.8686 46.0244 56.9438 45.4593 56.8818 44.9303Z" fill="white"/>
</svg>
