<svg width="243" height="327" viewBox="0 0 243 327" fill="none" xmlns="http://www.w3.org/2000/svg">
<ellipse cx="121.5" cy="302" rx="120.5" ry="25" fill="#868585"/>
<path d="M176.972 217.264L176.457 217.823L177.174 218.074C183.717 220.371 189.384 224.641 193.393 230.294C197.402 235.947 199.555 242.705 199.554 249.634C199.554 258.502 196.028 267.007 189.753 273.278C183.477 279.549 174.965 283.072 166.09 283.072H72.9645C64.089 283.072 55.5772 279.549 49.3014 273.278C43.0256 267.007 39.5 258.502 39.5 249.634C39.5006 243.439 41.2241 237.366 44.4783 232.092C47.7326 226.819 52.3894 222.553 57.9292 219.77L58.5634 219.452L58.05 218.962C52.6772 213.833 49.6602 207.995 49.6602 201.82C49.6602 194.529 53.8322 187.707 61.1455 182.017L61.5291 181.719L61.2417 181.327C58.3816 177.426 56.8067 172.733 56.7353 167.898C56.7369 158.234 63.3603 149.396 74.2569 142.946C85.1437 136.502 100.215 132.5 116.885 132.5C133.555 132.5 148.623 136.502 159.508 142.946C170.402 149.395 177.023 158.234 177.025 167.898C176.964 172.823 175.35 177.603 172.413 181.558L172.124 181.947L172.503 182.248C179.624 187.899 183.71 194.634 183.71 201.82C183.71 207.324 181.299 212.566 176.972 217.264Z" fill="#FACF63" stroke="white"/>
<path d="M101.221 185.655C101.221 185.655 91.5307 225.97 58.3808 217.52" stroke="#020202" stroke-width="2" stroke-linecap="round" stroke-linejoin="round"/>
<path d="M86.2132 276.598L87.223 291.289L78.7484 294.504" stroke="#020202" stroke-width="2" stroke-linecap="round" stroke-linejoin="round"/>
<path d="M141.929 276.598L142.939 291.289L134.464 294.504" stroke="#020202" stroke-width="2" stroke-linecap="round" stroke-linejoin="round"/>
<path d="M86.2386 275.932L97.8461 281.735" stroke="black" stroke-width="2" stroke-linecap="round"/>
<path d="M141.954 275.932L153.562 281.735" stroke="black" stroke-width="2" stroke-linecap="round"/>
<path d="M109 191C109 188.795 111.9 187 115.5 187C119.1 187 122 188.79 122 191" stroke="#020202" stroke-linecap="round" stroke-linejoin="round"/>
<path d="M138.091 184.576C138.091 184.576 145.415 223.532 177.937 216.734" stroke="#020202" stroke-width="2" stroke-linecap="round" stroke-linejoin="round"/>
<path d="M107.489 179.713C109.968 179.713 111.977 177.315 111.977 174.356C111.977 171.398 109.968 169 107.489 169C105.01 169 103 171.398 103 174.356C103 177.315 105.01 179.713 107.489 179.713Z" fill="white"/>
<path d="M108 176C109.657 176 111 174.433 111 172.5C111 170.567 109.657 169 108 169C106.343 169 105 170.567 105 172.5C105 174.433 106.343 176 108 176Z" fill="#221F20"/>
<path d="M123.828 179.714C126.307 179.714 128.317 177.316 128.317 174.357C128.317 171.399 126.307 169.001 123.828 169.001C121.349 169.001 119.339 171.399 119.339 174.357C119.339 177.316 121.349 179.714 123.828 179.714Z" fill="white"/>
<path d="M124 176C125.657 176 127 174.433 127 172.5C127 170.567 125.657 169 124 169C122.343 169 121 170.567 121 172.5C121 174.433 122.343 176 124 176Z" fill="#221F20"/>
<path opacity="0.2" d="M116.373 0C193.845 1.30888e-10 248.995 194.685 242.477 211.843C235.96 229 116.373 229 116.373 229C116.373 229 6.83397 228.3 0.817562 211.843C-5.19885 195.385 20.8723 -1.61349e-10 116.373 0Z" fill="#312E2E"/>
</svg>
