<svg width="251" height="335" viewBox="0 0 251 335" fill="none" xmlns="http://www.w3.org/2000/svg">
<g filter="url(#filter0_d_2675_596)">
<ellipse cx="125.5" cy="302" rx="120.5" ry="25" fill="#868585"/>
</g>
<g filter="url(#filter1_d_2675_596)">
<path d="M180.972 208.264L180.457 208.823L181.174 209.074C187.717 211.371 193.384 215.641 197.393 221.294C201.402 226.947 203.555 233.705 203.554 240.634C203.554 249.502 200.028 258.007 193.753 264.278C187.477 270.549 178.965 274.072 170.09 274.072H76.9645C68.089 274.072 59.5772 270.549 53.3014 264.278C47.0256 258.007 43.5 249.502 43.5 240.634C43.5006 234.439 45.2241 228.366 48.4783 223.092C51.7326 217.819 56.3894 213.553 61.9292 210.77L62.5634 210.452L62.05 209.962C56.6772 204.833 53.6602 198.995 53.6602 192.82C53.6602 185.529 57.8322 178.707 65.1455 173.017L65.5291 172.719L65.2417 172.327C62.3816 168.426 60.8067 163.733 60.7353 158.898C60.7369 149.234 67.3603 140.396 78.2569 133.946C89.1437 127.502 104.215 123.5 120.885 123.5C137.555 123.5 152.623 127.502 163.508 133.946C174.402 140.395 181.023 149.234 181.025 158.898C180.964 163.823 179.35 168.603 176.413 172.558L176.124 172.947L176.503 173.248C183.624 178.899 187.71 185.634 187.71 192.82C187.71 198.324 185.299 203.566 180.972 208.264Z" fill="#FACF63" stroke="white"/>
<path d="M105.221 176.655C105.221 176.655 95.5308 216.97 62.3808 208.52" stroke="#020202" stroke-width="2" stroke-linecap="round" stroke-linejoin="round"/>
<path d="M90.2133 267.598L93.0623 286.612L84.7761 290.269" stroke="#020202" stroke-width="2" stroke-linecap="round" stroke-linejoin="round"/>
<path d="M145.929 267.598L149.589 288.519L141.386 292.372" stroke="#020202" stroke-width="2" stroke-linecap="round" stroke-linejoin="round"/>
<path d="M90 267L91 263" stroke="black" stroke-width="2" stroke-linecap="round"/>
<path d="M146 267L148 263" stroke="black" stroke-width="2" stroke-linecap="round"/>
<path d="M113 182C113 179.795 115.9 178 119.5 178C123.1 178 126 179.79 126 182" stroke="#020202" stroke-linecap="round" stroke-linejoin="round"/>
<path d="M142.091 175.576C142.091 175.576 149.415 214.532 181.937 207.734" stroke="#020202" stroke-width="2" stroke-linecap="round" stroke-linejoin="round"/>
<path d="M111.489 170.713C113.968 170.713 115.977 168.315 115.977 165.356C115.977 162.398 113.968 160 111.489 160C109.01 160 107 162.398 107 165.356C107 168.315 109.01 170.713 111.489 170.713Z" fill="white"/>
<path d="M112 167C113.657 167 115 165.433 115 163.5C115 161.567 113.657 160 112 160C110.343 160 109 161.567 109 163.5C109 165.433 110.343 167 112 167Z" fill="#221F20"/>
<path d="M127.828 170.714C130.307 170.714 132.317 168.316 132.317 165.357C132.317 162.399 130.307 160.001 127.828 160.001C125.349 160.001 123.339 162.399 123.339 165.357C123.339 168.316 125.349 170.714 127.828 170.714Z" fill="white"/>
<path d="M128 167C129.657 167 131 165.433 131 163.5C131 161.567 129.657 160 128 160C126.343 160 125 161.567 125 163.5C125 165.433 126.343 167 128 167Z" fill="#221F20"/>
</g>
<g opacity="0.2" filter="url(#filter2_d_2675_596)">
<path d="M120.373 0C197.845 0 252.995 143.676 246.477 156.338C239.96 169 120.373 169 120.373 169C120.373 169 10.834 168.483 4.81756 156.338C-1.19885 144.193 24.8723 -1.19074e-10 120.373 0Z" fill="#312E2E"/>
</g>
<defs>
<filter id="filter0_d_2675_596" x="1" y="277" width="249" height="58" filterUnits="userSpaceOnUse" color-interpolation-filters="sRGB">
<feFlood flood-opacity="0" result="BackgroundImageFix"/>
<feColorMatrix in="SourceAlpha" type="matrix" values="0 0 0 0 0 0 0 0 0 0 0 0 0 0 0 0 0 0 127 0" result="hardAlpha"/>
<feOffset dy="4"/>
<feGaussianBlur stdDeviation="2"/>
<feComposite in2="hardAlpha" operator="out"/>
<feColorMatrix type="matrix" values="0 0 0 0 0 0 0 0 0 0 0 0 0 0 0 0 0 0 0.25 0"/>
<feBlend mode="normal" in2="BackgroundImageFix" result="effect1_dropShadow_2675_596"/>
<feBlend mode="normal" in="SourceGraphic" in2="effect1_dropShadow_2675_596" result="shape"/>
</filter>
<filter id="filter1_d_2675_596" x="39" y="123" width="169.054" height="178.313" filterUnits="userSpaceOnUse" color-interpolation-filters="sRGB">
<feFlood flood-opacity="0" result="BackgroundImageFix"/>
<feColorMatrix in="SourceAlpha" type="matrix" values="0 0 0 0 0 0 0 0 0 0 0 0 0 0 0 0 0 0 127 0" result="hardAlpha"/>
<feOffset dy="4"/>
<feGaussianBlur stdDeviation="2"/>
<feComposite in2="hardAlpha" operator="out"/>
<feColorMatrix type="matrix" values="0 0 0 0 0 0 0 0 0 0 0 0 0 0 0 0 0 0 0.25 0"/>
<feBlend mode="normal" in2="BackgroundImageFix" result="effect1_dropShadow_2675_596"/>
<feBlend mode="normal" in="SourceGraphic" in2="effect1_dropShadow_2675_596" result="shape"/>
</filter>
<filter id="filter2_d_2675_596" x="0" y="0" width="251" height="177" filterUnits="userSpaceOnUse" color-interpolation-filters="sRGB">
<feFlood flood-opacity="0" result="BackgroundImageFix"/>
<feColorMatrix in="SourceAlpha" type="matrix" values="0 0 0 0 0 0 0 0 0 0 0 0 0 0 0 0 0 0 127 0" result="hardAlpha"/>
<feOffset dy="4"/>
<feGaussianBlur stdDeviation="2"/>
<feComposite in2="hardAlpha" operator="out"/>
<feColorMatrix type="matrix" values="0 0 0 0 0 0 0 0 0 0 0 0 0 0 0 0 0 0 0.25 0"/>
<feBlend mode="normal" in2="BackgroundImageFix" result="effect1_dropShadow_2675_596"/>
<feBlend mode="normal" in="SourceGraphic" in2="effect1_dropShadow_2675_596" result="shape"/>
</filter>
</defs>
</svg>
