<svg width="162" height="164" viewBox="0 0 162 164" fill="none" xmlns="http://www.w3.org/2000/svg">
<path d="M137.972 85.2637L137.457 85.8226L138.174 86.0742C144.717 88.3706 150.384 92.6406 154.393 98.294C158.402 103.947 160.555 110.705 160.554 117.634C160.554 126.502 157.028 135.007 150.753 141.278C144.477 147.549 135.965 151.072 127.09 151.072H33.9645C25.089 151.072 16.5772 147.549 10.3014 141.278C4.02561 135.007 0.5 126.502 0.5 117.634C0.500554 111.439 2.22411 105.366 5.47834 100.092C8.73257 94.819 13.3894 90.5529 18.9292 87.7704L19.5634 87.4519L19.05 86.9619C13.6772 81.8334 10.6602 75.995 10.6602 69.82C10.6602 62.5294 14.8322 55.7075 22.1455 50.0174L22.5291 49.719L22.2417 49.3271C19.3816 45.4263 17.8067 40.7332 17.7353 35.8982C17.7369 26.2338 24.3603 17.3955 35.2569 10.9458C46.1437 4.50185 61.2149 0.5 77.8848 0.5C94.5547 0.5 109.623 4.50185 120.508 10.9458C131.402 17.3955 138.023 26.2338 138.025 35.8982C137.964 40.8228 136.35 45.6027 133.413 49.5581L133.124 49.9468L133.503 50.2478C140.624 55.8991 144.71 62.6344 144.71 69.82C144.71 75.3241 142.299 80.5665 137.972 85.2637Z" fill="#FACF63" stroke="white"/>
<path d="M62.2209 53.6553C62.2209 53.6553 52.5307 93.9702 19.3808 85.5203" stroke="#020202" stroke-width="2" stroke-linecap="round" stroke-linejoin="round"/>
<path d="M47.2131 144.598L48.2229 159.289L39.7483 162.504" stroke="#020202" stroke-width="2" stroke-linecap="round" stroke-linejoin="round"/>
<path d="M102.929 144.598L103.939 159.289L95.4641 162.504" stroke="#020202" stroke-width="2" stroke-linecap="round" stroke-linejoin="round"/>
<path d="M47.2383 143.932L58.8457 149.735" stroke="black" stroke-width="2" stroke-linecap="round"/>
<path d="M102.954 143.932L114.562 149.735" stroke="black" stroke-width="2" stroke-linecap="round"/>
<path d="M70 59C70 56.795 72.9 55 76.5 55C80.1 55 83 56.79 83 59" stroke="#020202" stroke-linecap="round" stroke-linejoin="round"/>
<path d="M99.0914 52.5759C99.0914 52.5759 106.415 91.5321 138.937 84.7343" stroke="#020202" stroke-width="2" stroke-linecap="round" stroke-linejoin="round"/>
<path d="M68.4887 47.713C70.9678 47.713 72.9774 45.3148 72.9774 42.3565C72.9774 39.3982 70.9678 37 68.4887 37C66.0097 37 64 39.3982 64 42.3565C64 45.3148 66.0097 47.713 68.4887 47.713Z" fill="white"/>
<path d="M69 44C70.6569 44 72 42.433 72 40.5C72 38.567 70.6569 37 69 37C67.3432 37 66 38.567 66 40.5C66 42.433 67.3432 44 69 44Z" fill="#221F20"/>
<path d="M84.8281 47.714C87.3071 47.714 89.3168 45.3158 89.3168 42.3575C89.3168 39.3992 87.3071 37.001 84.8281 37.001C82.349 37.001 80.3394 39.3992 80.3394 42.3575C80.3394 45.3158 82.349 47.714 84.8281 47.714Z" fill="white"/>
<path d="M85 44C86.6569 44 88 42.433 88 40.5C88 38.567 86.6569 37 85 37C83.3432 37 82 38.567 82 40.5C82 42.433 83.3432 44 85 44Z" fill="#221F20"/>
</svg>
