<svg width="158" height="161" viewBox="0 0 158 161" fill="none" xmlns="http://www.w3.org/2000/svg">
<path d="M135.135 83.508L134.62 84.0669L135.337 84.3186C141.743 86.5672 147.292 90.7482 151.218 96.284C155.143 101.82 157.252 108.437 157.251 115.221C157.251 123.905 153.799 132.233 147.654 138.373C141.508 144.513 133.174 147.963 124.483 147.963H33.2679C24.5772 147.963 16.2425 144.513 10.0974 138.373C3.95222 132.233 0.5 123.905 0.5 115.222C0.500542 109.155 2.18822 103.208 5.37471 98.0449C8.5612 92.8813 13.1211 88.7041 18.5456 85.9795L19.1797 85.661L18.6664 85.171C13.4051 80.149 10.4518 74.4329 10.4518 68.388C10.4518 61.2512 14.5358 54.5719 21.6976 48.9997L22.0812 48.7013L21.7938 48.3094C18.9936 44.4903 17.4518 39.8956 17.3818 35.1619C17.3835 25.7009 23.8676 17.0466 34.539 10.7302C45.2007 4.41944 59.9609 0.5 76.2874 0.5C92.614 0.5 107.372 4.41944 118.031 10.7301C128.7 17.0466 135.182 25.7008 135.184 35.1619C135.124 39.9833 133.544 44.6631 130.668 48.5355L130.38 48.9243L130.759 49.2253C137.732 54.7595 141.732 61.354 141.732 68.388C141.732 73.776 139.371 78.9085 135.135 83.508Z" fill="#FACF63" stroke="white"/>
<path d="M56.8312 53.2916C56.8312 53.2916 46.28 92.2892 18.191 86.0399" stroke="#020202" stroke-width="2" stroke-linecap="round" stroke-linejoin="round"/>
<path d="M46.2449 141.633L47.234 156.022L38.9332 159.171" stroke="#020202" stroke-width="2" stroke-linecap="round" stroke-linejoin="round"/>
<path d="M100.818 141.633L101.807 156.022L93.5062 159.171" stroke="#020202" stroke-width="2" stroke-linecap="round" stroke-linejoin="round"/>
<path d="M46.2698 140.98L57.6391 146.665" stroke="black" stroke-width="2" stroke-linecap="round"/>
<path d="M100.843 140.98L112.212 146.665" stroke="black" stroke-width="2" stroke-linecap="round"/>
<path d="M99.6022 51.454C99.6022 51.454 107.484 89.3229 136.416 83.8553" stroke="#020202" stroke-width="2" stroke-linecap="round" stroke-linejoin="round"/>
<path d="M66.4887 44.713C68.9678 44.713 70.9774 42.3148 70.9774 39.3565C70.9774 36.3982 68.9678 34 66.4887 34C64.0097 34 62 36.3982 62 39.3565C62 42.3148 64.0097 44.713 66.4887 44.713Z" fill="white"/>
<path d="M65.3321 42.2826C67.1724 42.2826 68.6642 40.6524 68.6642 38.6413C68.6642 36.6303 67.1724 35 65.3321 35C63.4918 35 62 36.6303 62 38.6413C62 40.6524 63.4918 42.2826 65.3321 42.2826Z" fill="#221F20"/>
<path d="M82.8279 44.714C85.307 44.714 87.3167 42.3158 87.3167 39.3575C87.3167 36.3992 85.307 34.001 82.8279 34.001C80.3489 34.001 78.3392 36.3992 78.3392 39.3575C78.3392 42.3158 80.3489 44.714 82.8279 44.714Z" fill="white"/>
<path d="M81.3321 42.2826C83.1724 42.2826 84.6642 40.6524 84.6642 38.6413C84.6642 36.6303 83.1724 35 81.3321 35C79.4918 35 78 36.6303 78 38.6413C78 40.6524 79.4918 42.2826 81.3321 42.2826Z" fill="#221F20"/>
<path d="M70 50.5001C70 50.5001 75.5 49 79 50.5001" stroke="black"/>
</svg>
