<svg width="162" height="164" viewBox="0 0 162 164" fill="none" xmlns="http://www.w3.org/2000/svg">
<path d="M154.652 100.734C154.652 100.734 162.336 62.3856 130.603 56.488" stroke="#020202" stroke-width="2" stroke-linecap="round" stroke-linejoin="round"/>
<path d="M140.576 80.7419C144.715 76.2476 147.056 71.1938 147.056 65.8556C147.056 58.8848 143.091 52.4093 136.307 47.0253C139.137 43.2142 140.692 38.6085 140.75 33.8634C140.75 15.1615 115.14 0 83.5533 0C51.9671 0 26.3475 15.1615 26.3475 33.8634C26.4156 38.523 27.933 43.046 30.6893 46.8052C23.7222 52.2259 19.6741 58.7839 19.6741 65.8556C19.6741 71.845 22.6023 77.4675 27.7336 82.3654C22.4303 85.0291 17.9721 89.1131 14.8568 94.1614C11.7414 99.2098 10.0914 105.024 10.0908 110.955C10.0908 119.445 13.466 127.587 19.4739 133.59C25.4819 139.593 33.6303 142.965 42.1268 142.965H129.964C138.461 142.965 146.609 139.593 152.617 133.59C158.625 127.587 162 119.445 162 110.955C162.001 104.322 159.94 97.8522 156.102 92.44C152.264 87.0279 146.839 82.9403 140.576 80.7419Z" fill="#FACF63"/>
<path d="M1.81582 104.676C1.81582 104.676 -5.85813 66.3274 25.8658 60.4298" stroke="#020202" stroke-width="2" stroke-linecap="round" stroke-linejoin="round"/>
<path d="M42.2443 137.931L37.4986 157.632L28.5854 159.65" stroke="#020202" stroke-width="2" stroke-linecap="round" stroke-linejoin="round"/>
<path d="M127.269 137.931L130.182 157.991L138.873 160.833" stroke="#020202" stroke-width="2" stroke-linecap="round" stroke-linejoin="round"/>
<path d="M75.2639 30.745C77.7429 30.745 79.7526 28.3468 79.7526 25.3885C79.7526 22.4302 77.7429 20.032 75.2639 20.032C72.7848 20.032 70.7751 22.4302 70.7751 25.3885C70.7751 28.3468 72.7848 30.745 75.2639 30.745Z" fill="white"/>
<path d="M75.6222 30.7432C77.4624 30.7432 78.9543 29.1129 78.9543 27.1019C78.9543 25.0908 77.4624 23.4606 75.6222 23.4606C73.7819 23.4606 72.29 25.0908 72.29 27.1019C72.29 29.1129 73.7819 30.7432 75.6222 30.7432Z" fill="#221F20"/>
<path d="M91.6032 30.7458C94.0823 30.7458 96.0919 28.3476 96.0919 25.3893C96.0919 22.431 94.0823 20.0328 91.6032 20.0328C89.1242 20.0328 87.1145 22.431 87.1145 25.3893C87.1145 28.3476 89.1242 30.7458 91.6032 30.7458Z" fill="white"/>
<path d="M91.9608 30.7444C93.8011 30.7444 95.2929 29.1142 95.2929 27.1031C95.2929 25.0921 93.8011 23.4618 91.9608 23.4618C90.1205 23.4618 88.6287 25.0921 88.6287 27.1031C88.6287 29.1142 90.1205 30.7444 91.9608 30.7444Z" fill="#221F20"/>
<path d="M72.224 43.9159C72.224 39.871 77.548 36.5782 84.1572 36.5782C90.7663 36.5782 96.0903 39.8618 96.0903 43.9159" stroke="#020202" stroke-linecap="round" stroke-linejoin="round"/>
</svg>
