<svg width="162" height="182" viewBox="0 0 162 182" fill="none" xmlns="http://www.w3.org/2000/svg">
<path d="M122.056 149L143.478 165.813L140.085 174.265" stroke="#020202" stroke-width="2" stroke-linecap="round" stroke-linejoin="round"/>
<path d="M137.972 85.2637L137.457 85.8226L138.174 86.0742C144.717 88.3706 150.384 92.6406 154.393 98.294C158.402 103.947 160.555 110.705 160.554 117.634C160.554 126.502 157.028 135.007 150.753 141.278C144.477 147.549 135.965 151.072 127.09 151.072H33.9645C25.089 151.072 16.5772 147.549 10.3014 141.278C4.02561 135.007 0.5 126.502 0.5 117.634C0.500554 111.439 2.22411 105.366 5.47834 100.092C8.73257 94.819 13.3894 90.5529 18.9292 87.7704L19.5634 87.4519L19.05 86.9619C13.6772 81.8334 10.6602 75.995 10.6602 69.82C10.6602 62.5294 14.8322 55.7075 22.1455 50.0174L22.5291 49.719L22.2417 49.3271C19.3816 45.4263 17.8067 40.7332 17.7353 35.8982C17.7369 26.2338 24.3603 17.3955 35.2569 10.9458C46.1437 4.50185 61.2149 0.5 77.8848 0.5C94.5547 0.5 109.623 4.50185 120.508 10.9458C131.402 17.3955 138.023 26.2338 138.025 35.8982C137.964 40.8228 136.35 45.6028 133.413 49.5581L133.124 49.9468L133.503 50.2478C140.624 55.8991 144.71 62.6344 144.71 69.82C144.71 75.3241 142.299 80.5665 137.972 85.2637Z" fill="#FACF63" stroke="white"/>
<path d="M51.101 106.237C-1.16002 85.1773 14.4069 80.4576 14.4069 80.4576" stroke="#020202" stroke-width="2" stroke-linecap="round" stroke-linejoin="round"/>
<path d="M69 59C69 57.8975 71.9 57 75.5 57C79.1 57 82 57.895 82 59" stroke="#020202" stroke-linecap="round" stroke-linejoin="round"/>
<path d="M106 110.401C158.595 79.2559 141.661 79.3571 141.661 79.3571" stroke="#020202" stroke-width="2" stroke-linecap="round" stroke-linejoin="round"/>
<path d="M29.4246 152.598L32.5666 176.306L21.521 181" stroke="#020202" stroke-width="2" stroke-linecap="round" stroke-linejoin="round"/>
<path d="M29.521 152L37.521 142" stroke="black" stroke-width="2" stroke-linecap="round"/>
<path d="M67.4886 47.713C69.9677 47.713 71.9773 45.3148 71.9773 42.3565C71.9773 39.3982 69.9677 37 67.4886 37C65.0096 37 62.9999 39.3982 62.9999 42.3565C62.9999 45.3148 65.0096 47.713 67.4886 47.713Z" fill="white"/>
<path d="M67.9999 44C69.6568 44 70.9999 42.433 70.9999 40.5C70.9999 38.567 69.6568 37 67.9999 37C66.3431 37 64.9999 38.567 64.9999 40.5C64.9999 42.433 66.3431 44 67.9999 44Z" fill="#221F20"/>
<path d="M83.8279 47.714C86.3069 47.714 88.3166 45.3158 88.3166 42.3575C88.3166 39.3992 86.3069 37.001 83.8279 37.001C81.3488 37.001 79.3391 39.3992 79.3391 42.3575C79.3391 45.3158 81.3488 47.714 83.8279 47.714Z" fill="white"/>
<path d="M83.9999 44C85.6568 44 86.9999 42.433 86.9999 40.5C86.9999 38.567 85.6568 37 83.9999 37C82.3431 37 80.9999 38.567 80.9999 40.5C80.9999 42.433 82.3431 44 83.9999 44Z" fill="#221F20"/>
</svg>
