<svg width="754" height="483" viewBox="0 0 754 483" fill="none" xmlns="http://www.w3.org/2000/svg">
<rect x="1" width="702" height="468.297" fill="#67B3E5"/>
<g filter="url(#filter0_d_558_67)">
<path d="M35.5923 130.776C24.5227 119.904 7.91846 124.389 1 127.991V467.183H703V118.077C682.2 123.424 677.595 137.831 677.893 144.366C652.004 134.474 631.472 150.27 624.442 159.404C571.773 118.589 538.371 155.542 528.253 179.12C476.923 169.585 463.197 212.278 462.751 234.817C459.002 230.629 446.534 234.854 440.768 237.49C434.43 223.143 417.372 223.938 409.635 226.128C394.102 232.901 391.409 244.694 392.004 249.744C378.971 245.199 372.514 251.637 370.914 255.425C365.022 250.345 355.143 251.377 350.94 252.529C347.191 216.081 317.687 214.098 303.403 217.662C308.581 193.958 292.617 179.863 283.987 175.779C251.671 158.758 231.02 181.385 224.734 194.827C210.361 188.411 197.395 195.495 192.708 199.84C172.979 192.978 160.162 201.659 156.219 206.857C149.791 185.113 130.926 173.959 122.296 171.1C102.032 165.842 85.4349 173.291 79.6695 177.672C79.1339 151.383 58.691 151.049 48.5365 154.168C47.0189 141.068 39.2747 133.115 35.5923 130.776Z" fill="#92C7E9"/>
</g>
<g filter="url(#filter1_d_558_67)">
<path d="M9.47799 175.571C8.67481 174.412 3.49134 173.008 1 172.451V468.297H703V208.889C695.325 205.055 682.028 207.291 676.339 208.889C672.591 191.862 657.152 181.291 649.901 178.134C611.527 160.394 585.572 183 577.392 196.52C557.58 185.377 546.008 198.86 542.699 206.994C501.737 190.681 486.216 222.334 483.576 240.2C468.584 237.169 459.63 247.852 457.027 253.572C432.039 246.262 423.115 265.383 421.776 275.858C400.715 271.312 396.045 286.518 396.342 294.689C373.764 280.426 353.394 292.461 346.032 300.261C332.646 283.324 314.202 284.364 306.654 287.001C309.688 256.425 287.169 243.506 275.531 240.869C255.005 236.59 239.834 248.075 234.814 254.352C227.407 238.306 211.053 234.963 203.802 235.297C192.023 235.03 183.128 243.135 180.153 247.22C175.602 225.113 157.954 213.717 149.7 210.783C127.032 202.136 108.946 210.226 102.736 215.352C104.164 205.011 96.9352 196.78 93.1424 193.957C84.5751 187.539 74.7734 189.723 70.9434 191.617C70.7649 178.335 61.2755 169.145 56.5532 166.211C33.1717 151.859 15.4275 166.471 9.47799 175.571Z" fill="#B7E0F2"/>
</g>
<g filter="url(#filter2_d_558_67)">
<path d="M20.0663 250.078C20.7799 234.126 7.80136 225.014 1.2229 222.452V468.297H703V216.103C698.629 216.103 693.894 224.42 692.073 228.579C674.59 217.529 663.158 229.544 659.627 236.933C622.609 226.15 608.672 251.674 606.33 265.784C592.95 248.585 573.772 245.325 565.856 245.845C536.866 243.706 521.888 267.455 518.023 279.597C474.404 273.448 461.492 305.7 460.489 322.595C444.522 314.129 430.496 319.067 425.478 322.595C417.539 307.98 401.58 308.559 394.593 310.676C378.894 313.973 375.043 328.536 375.08 335.405C364.287 333.088 355.791 338.078 352.892 340.863C343.615 335.427 335.721 336.89 332.934 338.301C328.83 300.784 298.889 298.534 284.431 302.098C286.483 275.186 269.23 261.328 260.348 257.764C226.63 244.664 208.389 266.193 203.483 278.594C182.61 269.861 168.249 283.57 163.678 291.516C146.73 280.733 132.458 288.88 127.44 294.301C103.535 255.536 67.7509 264.707 52.8471 274.139C51.5091 247.226 30.4357 246.884 20.0663 250.078Z" fill="#DBF3FF"/>
</g>
<g filter="url(#filter3_d_558_67)">
<path d="M1.2229 291.85C11.9931 289.726 37.531 291.511 54.5593 315.265C54.7906 315.588 55.0204 315.914 55.2486 316.245C63.6031 312.272 82.5622 309.072 91.5628 328.053C108.532 321.035 144.564 318.117 152.94 362.585C161.258 361.842 179.185 365.236 184.353 384.752C189.589 381.633 203.78 377.267 218.662 384.752C223.155 378.44 236.218 367.464 252.526 374.058C257.761 376.026 268.5 383.527 269.569 397.785C278.258 395.26 295.836 395.758 296.638 417.947C306.218 412.378 329.833 405.182 347.656 420.955C349.995 406.771 363.006 380.341 396.335 388.094C395.369 370.791 403.174 336.809 442.117 339.304C450.769 340.046 470.01 346.188 477.763 364.813C480.028 362.956 487.387 359.8 498.705 362.028C504.683 350.369 523.657 332.821 551.728 355.901C556.704 336.073 579.309 302.032 629.926 324.488C629.184 313.683 634.805 293.677 663.233 300.093C664.161 288.36 673.414 265.94 703 270.129V468.297H1.2229V291.85Z" fill="white"/>
</g>
<defs>
<filter id="filter0_d_558_67" x="1" y="88.0769" width="753" height="389.106" filterUnits="userSpaceOnUse" color-interpolation-filters="sRGB">
<feFlood flood-opacity="0" result="BackgroundImageFix"/>
<feColorMatrix in="SourceAlpha" type="matrix" values="0 0 0 0 0 0 0 0 0 0 0 0 0 0 0 0 0 0 127 0" result="hardAlpha"/>
<feOffset dx="31" dy="-10"/>
<feGaussianBlur stdDeviation="10"/>
<feComposite in2="hardAlpha" operator="out"/>
<feColorMatrix type="matrix" values="0 0 0 0 0 0 0 0 0 0 0 0 0 0 0 0 0 0 0.04 0"/>
<feBlend mode="normal" in2="BackgroundImageFix" result="effect1_dropShadow_558_67"/>
<feBlend mode="normal" in="SourceGraphic" in2="effect1_dropShadow_558_67" result="shape"/>
</filter>
<filter id="filter1_d_558_67" x="1" y="128.183" width="746" height="352.114" filterUnits="userSpaceOnUse" color-interpolation-filters="sRGB">
<feFlood flood-opacity="0" result="BackgroundImageFix"/>
<feColorMatrix in="SourceAlpha" type="matrix" values="0 0 0 0 0 0 0 0 0 0 0 0 0 0 0 0 0 0 127 0" result="hardAlpha"/>
<feOffset dx="22" dy="-10"/>
<feGaussianBlur stdDeviation="11"/>
<feComposite in2="hardAlpha" operator="out"/>
<feColorMatrix type="matrix" values="0 0 0 0 0 0 0 0 0 0 0 0 0 0 0 0 0 0 0.04 0"/>
<feBlend mode="normal" in2="BackgroundImageFix" result="effect1_dropShadow_558_67"/>
<feBlend mode="normal" in="SourceGraphic" in2="effect1_dropShadow_558_67" result="shape"/>
</filter>
<filter id="filter2_d_558_67" x="0.2229" y="182.103" width="749.777" height="300.194" filterUnits="userSpaceOnUse" color-interpolation-filters="sRGB">
<feFlood flood-opacity="0" result="BackgroundImageFix"/>
<feColorMatrix in="SourceAlpha" type="matrix" values="0 0 0 0 0 0 0 0 0 0 0 0 0 0 0 0 0 0 127 0" result="hardAlpha"/>
<feOffset dx="23" dy="-10"/>
<feGaussianBlur stdDeviation="12"/>
<feComposite in2="hardAlpha" operator="out"/>
<feColorMatrix type="matrix" values="0 0 0 0 0 0 0 0 0 0 0 0 0 0 0 0 0 0 0.04 0"/>
<feBlend mode="normal" in2="BackgroundImageFix" result="effect1_dropShadow_558_67"/>
<feBlend mode="normal" in="SourceGraphic" in2="effect1_dropShadow_558_67" result="shape"/>
</filter>
<filter id="filter3_d_558_67" x="1.2229" y="239.614" width="745.777" height="238.683" filterUnits="userSpaceOnUse" color-interpolation-filters="sRGB">
<feFlood flood-opacity="0" result="BackgroundImageFix"/>
<feColorMatrix in="SourceAlpha" type="matrix" values="0 0 0 0 0 0 0 0 0 0 0 0 0 0 0 0 0 0 127 0" result="hardAlpha"/>
<feOffset dx="24" dy="-10"/>
<feGaussianBlur stdDeviation="10"/>
<feComposite in2="hardAlpha" operator="out"/>
<feColorMatrix type="matrix" values="0 0 0 0 0 0 0 0 0 0 0 0 0 0 0 0 0 0 0.05 0"/>
<feBlend mode="normal" in2="BackgroundImageFix" result="effect1_dropShadow_558_67"/>
<feBlend mode="normal" in="SourceGraphic" in2="effect1_dropShadow_558_67" result="shape"/>
</filter>
</defs>
</svg>
