<svg width="403" height="220" viewBox="0 0 403 220" fill="none" xmlns="http://www.w3.org/2000/svg">
<path d="M192.857 67.433C192.857 67.433 198 41.7619 176.758 37.814" stroke="#020202" stroke-width="2" stroke-linecap="round" stroke-linejoin="round"/>
<path d="M180.175 31.1814L179.887 31.5701L180.266 31.8711C184.735 35.4185 187.272 39.6232 187.272 44.0848C187.272 47.5028 185.775 50.7702 183.066 53.7111L183.434 54.0499L183.268 54.5217C187.363 55.959 190.91 58.6316 193.42 62.17C195.929 65.7085 197.276 69.9382 197.276 74.2748C197.276 79.8253 195.069 85.1484 191.141 89.0733C187.213 92.9982 181.886 95.2032 176.331 95.2032H117.531C111.976 95.2032 106.648 92.9982 102.72 89.0733C98.7921 85.1484 96.5854 79.8253 96.5854 74.2749C96.5858 70.3974 97.6645 66.5962 99.7013 63.2957C101.738 59.9951 104.653 57.325 108.12 55.5835L108.754 55.2649L108.241 54.775C104.873 51.5605 103.001 47.9193 103.001 44.0848C103.001 39.5577 105.591 35.2985 110.181 31.7267L110.565 31.4283L110.278 31.0365C108.495 28.6047 107.513 25.6791 107.468 22.665C107.47 16.6548 111.59 11.1248 118.441 7.06986C125.282 3.02064 134.764 0.5 145.262 0.5C155.761 0.5 165.242 3.02064 172.081 7.06983C178.93 11.1249 183.049 16.6551 183.051 22.6656C183.012 25.7357 182.006 28.7155 180.175 31.1814Z" fill="#A7A7A7" stroke="white"/>
<path d="M93.5461 67.6191C93.5461 67.6191 88.4091 41.9481 109.646 38.0001" stroke="#020202" stroke-width="2" stroke-linecap="round" stroke-linejoin="round"/>
<path d="M117.61 92.3328L114.433 105.521L108.466 106.872" stroke="#020202" stroke-width="2" stroke-linecap="round" stroke-linejoin="round"/>
<path d="M174.526 92.3328L176.477 105.761L182.294 107.664" stroke="#020202" stroke-width="2" stroke-linecap="round" stroke-linejoin="round"/>
<path d="M140.005 30.1714C141.664 30.1714 143.01 28.5661 143.01 26.5857C143.01 24.6054 141.664 23 140.005 23C138.345 23 137 24.6054 137 26.5857C137 28.5661 138.345 30.1714 140.005 30.1714Z" fill="white"/>
<path d="M140.245 30.1703C141.477 30.1703 142.475 29.0789 142.475 27.7327C142.475 26.3865 141.477 25.2952 140.245 25.2952C139.013 25.2952 138.014 26.3865 138.014 27.7327C138.014 29.0789 139.013 30.1703 140.245 30.1703Z" fill="#221F20"/>
<path d="M150.942 30.1719C152.602 30.1719 153.947 28.5666 153.947 26.5862C153.947 24.6059 152.602 23.0005 150.942 23.0005C149.283 23.0005 147.938 24.6059 147.938 26.5862C147.938 28.5666 149.283 30.1719 150.942 30.1719Z" fill="white"/>
<path d="M151.182 30.1713C152.414 30.1713 153.413 29.0799 153.413 27.7337C153.413 26.3875 152.414 25.2961 151.182 25.2961C149.95 25.2961 148.952 26.3875 148.952 27.7337C148.952 29.0799 149.95 30.1713 151.182 30.1713Z" fill="#221F20"/>
<path d="M268.772 70.433C268.772 70.433 273.915 44.7619 252.672 40.814" stroke="#020202" stroke-width="2" stroke-linecap="round" stroke-linejoin="round"/>
<path d="M256.09 34.1814L255.801 34.5701L256.18 34.8711C260.65 38.4185 263.187 42.6232 263.187 47.0848C263.187 50.5028 261.69 53.7702 258.981 56.7111L259.349 57.0499L259.183 57.5217C263.278 58.959 266.825 61.6316 269.334 65.17C271.843 68.7085 273.191 72.9382 273.19 77.2748C273.19 82.8253 270.984 88.1484 267.056 92.0733C263.128 95.9982 257.8 98.2032 252.245 98.2032H193.445C187.89 98.2032 182.563 95.9982 178.635 92.0733C174.707 88.1484 172.5 82.8253 172.5 77.2749C172.5 73.3974 173.579 69.5962 175.616 66.2957C177.653 62.9951 180.567 60.325 184.035 58.5835L184.669 58.2649L184.156 57.775C180.788 54.5605 178.915 50.9193 178.915 47.0848C178.915 42.5577 181.505 38.2985 186.096 34.7267L186.48 34.4283L186.192 34.0365C184.409 31.6047 183.427 28.6791 183.382 25.665C183.384 19.6548 187.505 14.1248 194.355 10.0699C201.196 6.02064 210.679 3.5 221.177 3.5C231.675 3.5 241.156 6.02064 247.995 10.0698C254.845 14.1249 258.964 19.6551 258.965 25.6656C258.927 28.7357 257.921 31.7155 256.09 34.1814Z" fill="#A7A7A7" stroke="white"/>
<path d="M193.524 95.3328L190.347 108.521L184.381 109.872" stroke="#020202" stroke-width="2" stroke-linecap="round" stroke-linejoin="round"/>
<path d="M250.441 95.3328L252.391 108.761L258.209 110.664" stroke="#020202" stroke-width="2" stroke-linecap="round" stroke-linejoin="round"/>
<path d="M214.919 32.1714C216.579 32.1714 217.924 30.5661 217.924 28.5857C217.924 26.6054 216.579 25 214.919 25C213.26 25 211.915 26.6054 211.915 28.5857C211.915 30.5661 213.26 32.1714 214.919 32.1714Z" fill="white"/>
<path d="M215.159 32.1703C216.391 32.1703 217.39 31.0789 217.39 29.7327C217.39 28.3865 216.391 27.2952 215.159 27.2952C213.927 27.2952 212.929 28.3865 212.929 29.7327C212.929 31.0789 213.927 32.1703 215.159 32.1703Z" fill="#221F20"/>
<path d="M225.857 32.1719C227.517 32.1719 228.862 30.5666 228.862 28.5862C228.862 26.6059 227.517 25.0005 225.857 25.0005C224.198 25.0005 222.853 26.6059 222.853 28.5862C222.853 30.5666 224.198 32.1719 225.857 32.1719Z" fill="white"/>
<path d="M226.097 32.1713C227.329 32.1713 228.327 31.0799 228.327 29.7337C228.327 28.3875 227.329 27.2961 226.097 27.2961C224.865 27.2961 223.866 28.3875 223.866 29.7337C223.866 31.0799 224.865 32.1713 226.097 32.1713Z" fill="#221F20"/>
<path d="M136.099 96.6191C136.099 96.6191 141.243 70.9481 120 67.0001" stroke="#020202" stroke-width="2" stroke-linecap="round" stroke-linejoin="round"/>
<path d="M127.175 60.1814L126.887 60.5701L127.266 60.8711C131.735 64.4185 134.272 68.6232 134.272 73.0848C134.272 76.5028 132.775 79.7702 130.066 82.7111L130.434 83.0499L130.268 83.5217C134.363 84.959 137.91 87.6316 140.42 91.17C142.929 94.7085 144.276 98.9382 144.276 103.275C144.276 108.825 142.069 114.148 138.141 118.073C134.213 121.998 128.886 124.203 123.331 124.203H64.5308C58.9756 124.203 53.6481 121.998 49.7201 118.073C45.7921 114.148 43.5854 108.825 43.5854 103.275C43.5858 99.3974 44.6645 95.5962 46.7013 92.2957C48.7381 88.9951 51.6529 86.325 55.1202 84.5835L55.7543 84.2649L55.241 83.775C51.8733 80.5605 50.0006 76.9193 50.0006 73.0848C50.0006 68.5577 52.5907 64.2985 57.1814 60.7267L57.565 60.4283L57.2776 60.0365C55.4946 57.6047 54.5127 54.6791 54.4679 51.665C54.4696 45.6548 58.5901 40.1248 65.4407 36.0699C72.2817 32.0206 81.7641 29.5 92.2624 29.5C102.761 29.5 112.242 32.0206 119.081 36.0698C125.93 40.1249 130.049 45.6551 130.051 51.6656C130.012 54.7357 129.006 57.7155 127.175 60.1814Z" fill="#A7A7A7" stroke="white"/>
<path d="M37.5461 99.0719C37.5461 99.0719 32.4091 73.4009 53.6455 69.4529" stroke="#020202" stroke-width="2" stroke-linecap="round" stroke-linejoin="round"/>
<path d="M64.6098 121.333L61.4329 134.521L55.4663 135.872" stroke="#020202" stroke-width="2" stroke-linecap="round" stroke-linejoin="round"/>
<path d="M121.526 121.333L123.477 134.761L129.294 136.664" stroke="#020202" stroke-width="2" stroke-linecap="round" stroke-linejoin="round"/>
<path d="M88.0048 58.1714C89.6643 58.1714 91.0096 56.5661 91.0096 54.5857C91.0096 52.6054 89.6643 51 88.0048 51C86.3453 51 85 52.6054 85 54.5857C85 56.5661 86.3453 58.1714 88.0048 58.1714Z" fill="white"/>
<path d="M88.2447 58.1703C89.4766 58.1703 90.4753 57.0789 90.4753 55.7327C90.4753 54.3865 89.4766 53.2952 88.2447 53.2952C87.0128 53.2952 86.0142 54.3865 86.0142 55.7327C86.0142 57.0789 87.0128 58.1703 88.2447 58.1703Z" fill="#221F20"/>
<path d="M98.9423 58.1719C100.602 58.1719 101.947 56.5666 101.947 54.5862C101.947 52.6059 100.602 51.0005 98.9423 51.0005C97.2828 51.0005 95.9375 52.6059 95.9375 54.5862C95.9375 56.5666 97.2828 58.1719 98.9423 58.1719Z" fill="white"/>
<path d="M99.1822 58.1713C100.414 58.1713 101.413 57.0799 101.413 55.7337C101.413 54.3875 100.414 53.2961 99.1822 53.2961C97.9503 53.2961 96.9517 54.3875 96.9517 55.7337C96.9517 57.0799 97.9503 58.1713 99.1822 58.1713Z" fill="#221F20"/>
<path d="M114.394 156.341C114.394 156.341 120.064 128.04 96.6455 123.688" stroke="#020202" stroke-width="2" stroke-linecap="round" stroke-linejoin="round"/>
<path d="M100.454 116.406L100.166 116.795L100.545 117.096C105.479 121.013 108.288 125.661 108.288 130.601C108.288 134.385 106.631 137.999 103.638 141.248L104.006 141.587L103.84 142.059C108.365 143.647 112.284 146.6 115.056 150.509C117.828 154.419 119.317 159.092 119.317 163.884C119.317 170.016 116.879 175.898 112.539 180.234C108.199 184.571 102.312 187.007 96.1745 187.007H31.3513C25.2134 187.007 19.3271 184.571 14.9871 180.234C10.6471 175.898 8.20898 170.016 8.20898 163.884C8.20937 159.6 9.40127 155.4 11.6517 151.753C13.9021 148.106 17.1226 145.156 20.9536 143.232L21.5877 142.913L21.0744 142.423C17.3549 138.873 15.2814 134.846 15.2814 130.601C15.2814 125.589 18.1491 120.88 23.2175 116.936L23.6011 116.638L23.3137 116.246C21.3417 113.557 20.2558 110.321 20.2063 106.987C20.2079 100.336 24.7676 94.2252 32.3283 89.75C39.8792 85.2806 50.3424 82.5 61.9237 82.5C73.505 82.5 83.9664 85.2806 91.5157 89.75C99.0748 94.2253 103.633 100.336 103.634 106.988C103.592 110.383 102.479 113.679 100.454 116.406Z" fill="#A7A7A7" stroke="white"/>
<path d="M1.60207 159.25C1.60207 159.25 -4.06125 130.949 19.3507 126.597" stroke="#020202" stroke-width="2" stroke-linecap="round" stroke-linejoin="round"/>
<path d="M31.4381 183.792L27.9358 198.331L21.3579 199.82" stroke="#020202" stroke-width="2" stroke-linecap="round" stroke-linejoin="round"/>
<path d="M94.1855 183.792L96.3356 198.596L102.749 200.693" stroke="#020202" stroke-width="2" stroke-linecap="round" stroke-linejoin="round"/>
<path d="M63.8444 113.057C65.6739 113.057 67.157 111.288 67.157 109.104C67.157 106.921 65.6739 105.151 63.8444 105.151C62.0149 105.151 60.5317 106.921 60.5317 109.104C60.5317 111.288 62.0149 113.057 63.8444 113.057Z" fill="white"/>
<path d="M64.109 113.056C65.4671 113.056 66.568 111.853 66.568 110.369C66.568 108.885 65.4671 107.682 64.109 107.682C62.7509 107.682 61.6499 108.885 61.6499 110.369C61.6499 111.853 62.7509 113.056 64.109 113.056Z" fill="#221F20"/>
<path d="M75.9025 113.058C77.732 113.058 79.2151 111.288 79.2151 109.105C79.2151 106.922 77.732 105.152 75.9025 105.152C74.073 105.152 72.5898 106.922 72.5898 109.105C72.5898 111.288 74.073 113.058 75.9025 113.058Z" fill="white"/>
<path d="M76.1671 113.057C77.5252 113.057 78.6261 111.854 78.6261 110.37C78.6261 108.886 77.5252 107.683 76.1671 107.683C74.809 107.683 73.708 108.886 73.708 110.37C73.708 111.854 74.809 113.057 76.1671 113.057Z" fill="#221F20"/>
<path d="M345.857 75.433C345.857 75.433 351 49.7619 329.758 45.814" stroke="#020202" stroke-width="2" stroke-linecap="round" stroke-linejoin="round"/>
<path d="M333.175 39.1814L332.887 39.5701L333.266 39.8711C337.735 43.4185 340.272 47.6232 340.272 52.0848C340.272 55.5028 338.775 58.7702 336.066 61.7111L336.434 62.0499L336.268 62.5217C340.363 63.959 343.91 66.6316 346.42 70.17C348.929 73.7085 350.276 77.9382 350.276 82.2748C350.276 87.8253 348.069 93.1484 344.141 97.0733C340.213 100.998 334.886 103.203 329.331 103.203H270.531C264.976 103.203 259.648 100.998 255.72 97.0733C251.792 93.1484 249.585 87.8253 249.585 82.2749C249.586 78.3974 250.665 74.5962 252.701 71.2957C254.738 67.9951 257.653 65.325 261.12 63.5835L261.754 63.2649L261.241 62.775C257.873 59.5605 256.001 55.9193 256.001 52.0848C256.001 47.5577 258.591 43.2985 263.181 39.7267L263.565 39.4283L263.278 39.0365C261.495 36.6047 260.513 33.6791 260.468 30.665C260.47 24.6548 264.59 19.1248 271.441 15.0699C278.282 11.0206 287.764 8.5 298.262 8.5C308.761 8.5 318.242 11.0206 325.081 15.0698C331.93 19.1249 336.049 24.6551 336.051 30.6656C336.012 33.7357 335.006 36.7155 333.175 39.1814Z" fill="#A7A7A7" stroke="white"/>
<path d="M243.546 78.0719C243.546 78.0719 238.409 52.4009 259.646 48.4529" stroke="#020202" stroke-width="2" stroke-linecap="round" stroke-linejoin="round"/>
<path d="M270.61 100.333L267.433 113.521L261.466 114.872" stroke="#020202" stroke-width="2" stroke-linecap="round" stroke-linejoin="round"/>
<path d="M327.526 100.333L329.477 113.761L335.294 115.664" stroke="#020202" stroke-width="2" stroke-linecap="round" stroke-linejoin="round"/>
<path d="M288.005 32.1714C289.664 32.1714 291.01 30.5661 291.01 28.5857C291.01 26.6054 289.664 25 288.005 25C286.345 25 285 26.6054 285 28.5857C285 30.5661 286.345 32.1714 288.005 32.1714Z" fill="white"/>
<path d="M288.245 32.1703C289.477 32.1703 290.475 31.0789 290.475 29.7327C290.475 28.3865 289.477 27.2952 288.245 27.2952C287.013 27.2952 286.014 28.3865 286.014 29.7327C286.014 31.0789 287.013 32.1703 288.245 32.1703Z" fill="#221F20"/>
<path d="M298.942 32.1719C300.602 32.1719 301.947 30.5666 301.947 28.5862C301.947 26.6059 300.602 25.0005 298.942 25.0005C297.283 25.0005 295.938 26.6059 295.938 28.5862C295.938 30.5666 297.283 32.1719 298.942 32.1719Z" fill="white"/>
<path d="M299.182 32.1713C300.414 32.1713 301.413 31.0799 301.413 29.7337C301.413 28.3875 300.414 27.2961 299.182 27.2961C297.95 27.2961 296.952 28.3875 296.952 29.7337C296.952 31.0799 297.95 32.1713 299.182 32.1713Z" fill="#221F20"/>
<path d="M397.857 113.433C397.857 113.433 403 87.7619 381.758 83.814" stroke="#020202" stroke-width="2" stroke-linecap="round" stroke-linejoin="round"/>
<path d="M385.175 77.1814L384.887 77.5701L385.266 77.8711C389.735 81.4185 392.272 85.6232 392.272 90.0848C392.272 93.5028 390.775 96.7702 388.066 99.7111L388.434 100.05L388.268 100.522C392.363 101.959 395.91 104.632 398.42 108.17C400.929 111.708 402.276 115.938 402.276 120.275C402.276 125.825 400.069 131.148 396.141 135.073C392.213 138.998 386.886 141.203 381.331 141.203H322.531C316.976 141.203 311.648 138.998 307.72 135.073C303.792 131.148 301.585 125.825 301.585 120.275C301.586 116.397 302.665 112.596 304.701 109.296C306.738 105.995 309.653 103.325 313.12 101.583L313.754 101.265L313.241 100.775C309.873 97.5605 308.001 93.9193 308.001 90.0848C308.001 85.5577 310.591 81.2985 315.181 77.7267L315.565 77.4283L315.278 77.0365C313.495 74.6047 312.513 71.6791 312.468 68.665C312.47 62.6548 316.59 57.1248 323.441 53.0699C330.282 49.0206 339.764 46.5 350.262 46.5C360.761 46.5 370.242 49.0206 377.081 53.0698C383.93 57.1249 388.049 62.6551 388.051 68.6656C388.012 71.7357 387.006 74.7155 385.175 77.1814Z" fill="#A7A7A7" stroke="white"/>
<path d="M295.546 116.072C295.546 116.072 290.409 90.4009 311.646 86.4529" stroke="#020202" stroke-width="2" stroke-linecap="round" stroke-linejoin="round"/>
<path d="M322.61 138.333L319.433 151.521L313.466 152.872" stroke="#020202" stroke-width="2" stroke-linecap="round" stroke-linejoin="round"/>
<path d="M379.526 138.333L381.477 151.761L387.294 153.664" stroke="#020202" stroke-width="2" stroke-linecap="round" stroke-linejoin="round"/>
<path d="M340.005 70.1714C341.664 70.1714 343.01 68.5661 343.01 66.5857C343.01 64.6054 341.664 63 340.005 63C338.345 63 337 64.6054 337 66.5857C337 68.5661 338.345 70.1714 340.005 70.1714Z" fill="white"/>
<path d="M340.245 70.1703C341.477 70.1703 342.475 69.0789 342.475 67.7327C342.475 66.3865 341.477 65.2952 340.245 65.2952C339.013 65.2952 338.014 66.3865 338.014 67.7327C338.014 69.0789 339.013 70.1703 340.245 70.1703Z" fill="#221F20"/>
<path d="M350.942 70.1719C352.602 70.1719 353.947 68.5666 353.947 66.5862C353.947 64.6059 352.602 63.0005 350.942 63.0005C349.283 63.0005 347.938 64.6059 347.938 66.5862C347.938 68.5666 349.283 70.1719 350.942 70.1719Z" fill="white"/>
<path d="M351.182 70.1713C352.414 70.1713 353.413 69.0799 353.413 67.7337C353.413 66.3875 352.414 65.2961 351.182 65.2961C349.95 65.2961 348.952 66.3875 348.952 67.7337C348.952 69.0799 349.95 70.1713 351.182 70.1713Z" fill="#221F20"/>
<path d="M237.735 133.86C237.735 133.86 243.119 106.985 220.881 102.852" stroke="#020202" stroke-width="2" stroke-linecap="round" stroke-linejoin="round"/>
<path d="M224.477 95.9229L224.189 96.3116L224.568 96.6126C229.25 100.329 231.911 104.737 231.911 109.417C231.911 113.002 230.341 116.428 227.502 119.51L227.87 119.849L227.704 120.321C231.996 121.827 235.713 124.628 238.343 128.336C240.972 132.044 242.384 136.477 242.384 141.022C242.384 146.839 240.072 152.417 235.955 156.53C231.839 160.644 226.255 162.954 220.434 162.954H158.879C153.057 162.954 147.474 160.644 143.357 156.53C139.241 152.417 136.928 146.839 136.928 141.022C136.929 136.958 138.059 132.975 140.194 129.516C142.328 126.057 145.383 123.259 149.016 121.434L149.651 121.115L149.137 120.625C145.609 117.257 143.644 113.439 143.644 109.417C143.644 104.668 146.361 100.203 151.17 96.4613L151.554 96.163L151.267 95.7711C149.397 93.2214 148.368 90.1539 148.321 86.9936C148.322 80.6901 152.644 74.8945 159.819 70.6474C166.985 66.4059 176.916 63.7664 187.91 63.7664C198.903 63.7664 208.833 66.4059 215.997 70.6473C223.171 74.8946 227.491 80.6904 227.492 86.9943C227.452 90.2132 226.397 93.3375 224.477 95.9229Z" fill="#D2D2D2" stroke="white"/>
<path d="M130.629 136.622C130.629 136.622 125.252 109.748 147.483 105.615" stroke="#020202" stroke-width="2" stroke-linecap="round" stroke-linejoin="round"/>
<path d="M158.961 159.926L155.635 173.732L149.389 175.147" stroke="#020202" stroke-width="2" stroke-linecap="round" stroke-linejoin="round"/>
<path d="M218.545 159.926L220.587 173.984L226.677 175.976" stroke="#020202" stroke-width="2" stroke-linecap="round" stroke-linejoin="round"/>
<path d="M181.628 90.8746C183.365 90.8746 184.773 89.194 184.773 87.1208C184.773 85.0477 183.365 83.3671 181.628 83.3671C179.89 83.3671 178.482 85.0477 178.482 87.1208C178.482 89.194 179.89 90.8746 181.628 90.8746Z" fill="white"/>
<path d="M181.879 90.8732C183.168 90.8732 184.214 89.7308 184.214 88.3215C184.214 86.9122 183.168 85.7697 181.879 85.7697C180.589 85.7697 179.543 86.9122 179.543 88.3215C179.543 89.7308 180.589 90.8732 181.879 90.8732Z" fill="#221F20"/>
<path d="M193.078 90.875C194.815 90.875 196.223 89.1944 196.223 87.1213C196.223 85.0481 194.815 83.3675 193.078 83.3675C191.34 83.3675 189.932 85.0481 189.932 87.1213C189.932 89.1944 191.34 90.875 193.078 90.875Z" fill="white"/>
<path d="M193.329 90.8741C194.618 90.8741 195.664 89.7317 195.664 88.3224C195.664 86.913 194.618 85.7706 193.329 85.7706C192.039 85.7706 190.994 86.913 190.994 88.3224C190.994 89.7317 192.039 90.8741 193.329 90.8741Z" fill="#221F20"/>
<path d="M196.3 94.0365C196.195 96.8692 192.381 99.037 187.752 98.8656C183.124 98.6941 179.481 96.2565 179.586 93.4174" stroke="#020202" stroke-linecap="round" stroke-linejoin="round"/>
<path d="M365.678 148.593C365.678 148.593 371.062 121.719 348.824 117.586" stroke="#020202" stroke-width="2" stroke-linecap="round" stroke-linejoin="round"/>
<path d="M352.42 110.657L352.131 111.045L352.51 111.346C357.193 115.063 359.854 119.47 359.854 124.151C359.854 127.736 358.283 131.162 355.445 134.244L355.812 134.583L355.647 135.055C359.938 136.561 363.655 139.362 366.285 143.07C368.915 146.778 370.327 151.211 370.326 155.755C370.326 161.572 368.014 167.151 363.897 171.264C359.781 175.377 354.198 177.688 348.376 177.688H286.821C280.999 177.688 275.416 175.377 271.3 171.264C267.183 167.151 264.871 161.572 264.871 155.755C264.871 151.692 266.001 147.708 268.136 144.249C270.271 140.791 273.325 137.992 276.959 136.167L277.593 135.849L277.08 135.359C273.551 131.991 271.586 128.173 271.586 124.151C271.586 119.402 274.304 114.937 279.113 111.195L279.496 110.897L279.209 110.505C277.339 107.955 276.31 104.888 276.263 101.727C276.265 95.4237 280.586 89.6282 287.762 85.381C294.927 81.1395 304.858 78.5 315.852 78.5C326.846 78.5 336.775 81.1395 343.939 85.381C351.113 89.6282 355.433 95.424 355.435 101.728C355.394 104.947 354.339 108.071 352.42 110.657Z" fill="#D2D2D2" stroke="white"/>
<path d="M258.572 151.356C258.572 151.356 253.194 124.482 275.426 120.349" stroke="#020202" stroke-width="2" stroke-linecap="round" stroke-linejoin="round"/>
<path d="M286.903 174.659L283.578 188.466L277.332 189.88" stroke="#020202" stroke-width="2" stroke-linecap="round" stroke-linejoin="round"/>
<path d="M346.487 174.659L348.529 188.717L354.619 190.709" stroke="#020202" stroke-width="2" stroke-linecap="round" stroke-linejoin="round"/>
<path d="M309.57 105.608C311.307 105.608 312.716 103.928 312.716 101.854C312.716 99.7813 311.307 98.1007 309.57 98.1007C307.833 98.1007 306.424 99.7813 306.424 101.854C306.424 103.928 307.833 105.608 309.57 105.608Z" fill="white"/>
<path d="M309.821 105.607C311.111 105.607 312.156 104.464 312.156 103.055C312.156 101.646 311.111 100.503 309.821 100.503C308.531 100.503 307.486 101.646 307.486 103.055C307.486 104.464 308.531 105.607 309.821 105.607Z" fill="#221F20"/>
<path d="M321.02 105.609C322.757 105.609 324.166 103.928 324.166 101.855C324.166 99.7818 322.757 98.1012 321.02 98.1012C319.283 98.1012 317.875 99.7818 317.875 101.855C317.875 103.928 319.283 105.609 321.02 105.609Z" fill="white"/>
<path d="M321.271 105.608C322.561 105.608 323.606 104.465 323.606 103.056C323.606 101.647 322.561 100.504 321.271 100.504C319.981 100.504 318.936 101.647 318.936 103.056C318.936 104.465 319.981 105.608 321.271 105.608Z" fill="#221F20"/>
<path d="M324.242 108.77C324.137 111.603 320.323 113.771 315.695 113.599C311.066 113.428 307.423 110.99 307.528 108.151" stroke="#020202" stroke-linecap="round" stroke-linejoin="round"/>
<path d="M295.92 123.819C295.92 123.819 301.016 98.3814 279.967 94.4694" stroke="#020202" stroke-width="2" stroke-linecap="round" stroke-linejoin="round"/>
<path d="M283.35 87.8946L283.061 88.2833L283.44 88.5843C287.868 92.0988 290.381 96.2641 290.381 100.683C290.381 104.069 288.898 107.305 286.215 110.219L286.582 110.557L286.417 111.029C290.474 112.453 293.988 115.101 296.473 118.606C298.959 122.112 300.294 126.302 300.294 130.598C300.294 136.097 298.108 141.37 294.216 145.259C290.325 149.147 285.047 151.331 279.544 151.331H221.28C215.776 151.331 210.499 149.147 206.607 145.259C202.716 141.37 200.53 136.097 200.53 130.598C200.53 126.757 201.599 122.991 203.617 119.721C205.634 116.452 208.522 113.806 211.957 112.081L212.591 111.763L212.078 111.273C208.741 108.088 206.887 104.481 206.887 100.683C206.887 96.1991 209.452 91.9799 214 88.4413L214.384 88.1429L214.096 87.751C212.33 85.3421 211.358 82.4441 211.313 79.4585C211.315 73.5053 215.396 68.0269 222.184 64.0094C228.962 59.9975 238.357 57.5 248.759 57.5C259.161 57.5 268.554 59.9975 275.331 64.0093C282.117 68.027 286.197 73.5056 286.198 79.4591C286.16 82.5002 285.163 85.452 283.35 87.8946Z" fill="#6B6B6B" stroke="white"/>
<path d="M194.541 126.434C194.541 126.434 189.451 100.996 210.494 97.0843" stroke="#020202" stroke-width="2" stroke-linecap="round" stroke-linejoin="round"/>
<path d="M221.358 148.491L218.21 161.56L212.298 162.898" stroke="#020202" stroke-width="2" stroke-linecap="round" stroke-linejoin="round"/>
<path d="M277.756 148.491L279.689 161.798L285.453 163.683" stroke="#020202" stroke-width="2" stroke-linecap="round" stroke-linejoin="round"/>
<path d="M234.571 85.5878C236.215 85.5878 237.548 83.9971 237.548 82.0348C237.548 80.0725 236.215 78.4817 234.571 78.4817C232.926 78.4817 231.593 80.0725 231.593 82.0348C231.593 83.9971 232.926 85.5878 234.571 85.5878Z" fill="white"/>
<path d="M234.808 85.5866C236.029 85.5866 237.018 84.5052 237.018 83.1712C237.018 81.8373 236.029 80.7559 234.808 80.7559C233.587 80.7559 232.598 81.8373 232.598 83.1712C232.598 84.5052 233.587 85.5866 234.808 85.5866Z" fill="#221F20"/>
<path d="M245.409 85.5883C247.053 85.5883 248.386 83.9975 248.386 82.0352C248.386 80.0729 247.053 78.4821 245.409 78.4821C243.764 78.4821 242.431 80.0729 242.431 82.0352C242.431 83.9975 243.764 85.5883 245.409 85.5883Z" fill="white"/>
<path d="M245.646 85.5872C246.866 85.5872 247.856 84.5058 247.856 83.1719C247.856 81.8379 246.866 80.7565 245.646 80.7565C244.425 80.7565 243.436 81.8379 243.436 83.1719C243.436 84.5058 244.425 85.5872 245.646 85.5872Z" fill="#221F20"/>
<path d="M248.385 89.4571C248.385 92.1401 244.854 94.3243 240.47 94.3243C236.086 94.3243 232.554 92.1462 232.554 89.4571" stroke="#020202" stroke-linecap="round" stroke-linejoin="round"/>
<path d="M178.92 122.819C178.92 122.819 184.016 97.3814 162.967 93.4694" stroke="#020202" stroke-width="2" stroke-linecap="round" stroke-linejoin="round"/>
<path d="M166.35 86.8946L166.061 87.2833L166.44 87.5843C170.868 91.0988 173.381 95.2641 173.381 99.6831C173.381 103.069 171.898 106.305 169.215 109.219L169.582 109.557L169.417 110.029C173.474 111.453 176.988 114.101 179.473 117.606C181.959 121.112 183.294 125.302 183.294 129.598C183.294 135.097 181.108 140.37 177.216 144.259C173.325 148.147 168.047 150.331 162.544 150.331H104.28C98.7764 150.331 93.4985 148.147 89.6072 144.259C85.7158 140.37 83.5298 135.097 83.5298 129.598C83.5301 125.757 84.5988 121.991 86.6166 118.721C88.6344 115.452 91.5219 112.806 94.9569 111.081L95.5911 110.763L95.0777 110.273C91.7414 107.088 89.8865 103.481 89.8865 99.6831C89.8865 95.1991 92.4519 90.9799 97.0001 87.4413L97.3837 87.1429L97.0963 86.751C95.3301 84.3421 94.3575 81.4441 94.3131 78.4585C94.3148 72.5053 98.3962 67.0269 105.184 63.0094C111.962 58.9975 121.357 56.5 131.759 56.5C142.161 56.5 151.554 58.9975 158.331 63.0093C165.117 67.027 169.197 72.5056 169.198 78.4591C169.16 81.5002 168.163 84.452 166.35 86.8946Z" fill="#6B6B6B" stroke="white"/>
<path d="M77.5411 125.434C77.5411 125.434 72.4509 99.9963 93.4939 96.0843" stroke="#020202" stroke-width="2" stroke-linecap="round" stroke-linejoin="round"/>
<path d="M104.358 147.491L101.21 160.56L95.2979 161.898" stroke="#020202" stroke-width="2" stroke-linecap="round" stroke-linejoin="round"/>
<path d="M160.756 147.491L162.689 160.798L168.453 162.683" stroke="#020202" stroke-width="2" stroke-linecap="round" stroke-linejoin="round"/>
<path d="M132.977 86.1061C134.622 86.1061 135.955 84.5154 135.955 82.5531C135.955 80.5908 134.622 79 132.977 79C131.333 79 130 80.5908 130 82.5531C130 84.5154 131.333 86.1061 132.977 86.1061Z" fill="white"/>
<path d="M133.215 86.1049C134.435 86.1049 135.425 85.0235 135.425 83.6895C135.425 82.3556 134.435 81.2742 133.215 81.2742C131.994 81.2742 131.004 82.3556 131.004 83.6895C131.004 85.0235 131.994 86.1049 133.215 86.1049Z" fill="#221F20"/>
<path d="M143.815 86.1066C145.46 86.1066 146.793 84.5158 146.793 82.5535C146.793 80.5912 145.46 79.0005 143.815 79.0005C142.171 79.0005 140.838 80.5912 140.838 82.5535C140.838 84.5158 142.171 86.1066 143.815 86.1066Z" fill="white"/>
<path d="M144.053 86.1056C145.273 86.1056 146.263 85.0242 146.263 83.6902C146.263 82.3563 145.273 81.2749 144.053 81.2749C142.832 81.2749 141.842 82.3563 141.842 83.6902C141.842 85.0242 142.832 86.1056 144.053 86.1056Z" fill="#221F20"/>
<path d="M131.385 88.4571C131.385 91.1401 127.854 93.3243 123.47 93.3243C119.086 93.3243 115.554 91.1462 115.554 88.4571" stroke="#020202" stroke-linecap="round" stroke-linejoin="round"/>
<path d="M177.663 163.106C177.663 163.106 183.697 132.991 158.777 128.36" stroke="#020202" stroke-width="2" stroke-linecap="round" stroke-linejoin="round"/>
<path d="M162.855 120.631L162.566 121.02L162.945 121.321C168.201 125.492 171.197 130.447 171.197 135.716C171.197 139.753 169.429 143.606 166.24 147.068L166.608 147.407L166.443 147.878C171.263 149.57 175.439 152.717 178.393 156.882C181.347 161.048 182.933 166.027 182.933 171.133C182.933 177.667 180.335 183.934 175.711 188.554C171.087 193.175 164.815 195.771 158.275 195.771H89.2965C82.7567 195.771 76.4848 193.175 71.8606 188.554C67.2364 183.934 64.6387 177.667 64.6387 171.133C64.6391 166.568 65.909 162.093 68.3069 158.207C70.7047 154.322 74.136 151.178 78.2179 149.128L78.8521 148.81L78.3387 148.32C74.3764 144.538 72.1644 140.245 72.1644 135.716C72.1644 130.37 75.2236 125.351 80.6217 121.151L81.0052 120.852L80.7179 120.46C78.6155 117.593 77.4577 114.143 77.405 110.589C77.4066 103.495 82.2693 96.9843 90.3198 92.2192C98.3605 87.4599 109.5 84.5 121.829 84.5C134.157 84.5 145.295 87.4599 153.334 92.2192C161.383 96.9844 166.244 103.496 166.245 110.59C166.2 114.21 165.014 117.723 162.855 120.631Z" fill="#6B6B6B" stroke="white"/>
<path d="M57.6407 166.202C57.6407 166.202 51.6143 136.087 76.5271 131.456" stroke="#020202" stroke-width="2" stroke-linecap="round" stroke-linejoin="round"/>
<path d="M89.3894 192.316L85.6626 207.788L78.6631 209.373" stroke="#020202" stroke-width="2" stroke-linecap="round" stroke-linejoin="round"/>
<path d="M156.159 192.316L158.447 208.07L165.271 210.302" stroke="#020202" stroke-width="2" stroke-linecap="round" stroke-linejoin="round"/>
<path d="M126.819 118.584C128.766 118.584 130.344 116.7 130.344 114.377C130.344 112.054 128.766 110.171 126.819 110.171C124.872 110.171 123.294 112.054 123.294 114.377C123.294 116.7 124.872 118.584 126.819 118.584Z" fill="white"/>
<path d="M127.1 118.582C128.545 118.582 129.717 117.302 129.717 115.723C129.717 114.143 128.545 112.863 127.1 112.863C125.655 112.863 124.483 114.143 124.483 115.723C124.483 117.302 125.655 118.582 127.1 118.582Z" fill="#221F20"/>
<path d="M139.65 118.584C141.597 118.584 143.175 116.701 143.175 114.378C143.175 112.054 141.597 110.171 139.65 110.171C137.703 110.171 136.125 112.054 136.125 114.378C136.125 116.701 137.703 118.584 139.65 118.584Z" fill="white"/>
<path d="M139.931 118.583C141.376 118.583 142.548 117.303 142.548 115.724C142.548 114.144 141.376 112.864 139.931 112.864C138.486 112.864 137.314 114.144 137.314 115.724C137.314 117.303 138.486 118.583 139.931 118.583Z" fill="#221F20"/>
<path d="M141.052 124.191C141.052 127.288 137.495 129.799 133.108 129.799C128.72 129.799 125.163 127.288 125.163 124.191" stroke="black"/>
<path d="M125.163 124.191H141.052" stroke="black" stroke-linecap="round"/>
<path d="M101.889 60C101.889 63.0972 98.3324 65.608 93.9447 65.608C89.557 65.608 86 63.0972 86 60" stroke="black"/>
<path d="M86 60H101.889" stroke="black" stroke-linecap="round"/>
<path d="M228.889 35C228.889 38.0972 225.332 40.608 220.945 40.608C216.557 40.608 213 38.0972 213 35" stroke="black"/>
<path d="M213 35H228.889" stroke="black" stroke-linecap="round"/>
<path d="M353.889 73C353.889 76.0972 350.332 78.608 345.945 78.608C341.557 78.608 338 76.0972 338 73" stroke="black"/>
<path d="M338 73H353.889" stroke="black" stroke-linecap="round"/>
<path d="M328.852 171.263C328.852 171.263 334.745 141.85 310.405 137.326" stroke="#020202" stroke-width="2" stroke-linecap="round" stroke-linejoin="round"/>
<path d="M314.379 129.77L314.091 130.159L314.47 130.46C319.601 134.533 322.525 139.37 322.525 144.511C322.525 148.45 320.8 152.211 317.687 155.59L318.055 155.929L317.889 156.401C322.595 158.053 326.672 161.124 329.555 165.191C332.439 169.257 333.988 174.119 333.987 179.102C333.987 185.481 331.451 191.599 326.937 196.11C322.423 200.62 316.3 203.155 309.916 203.155H242.544C236.16 203.155 230.037 200.62 225.523 196.11C221.009 191.599 218.473 185.481 218.473 179.103C218.473 174.646 219.713 170.278 222.054 166.485C224.394 162.691 227.744 159.623 231.729 157.621L232.363 157.303L231.85 156.813C227.981 153.12 225.823 148.93 225.823 144.511C225.823 139.294 228.808 134.395 234.079 130.294L234.462 129.996L234.175 129.604C232.123 126.805 230.993 123.438 230.942 119.97C230.943 113.047 235.689 106.691 243.55 102.038C251.401 97.3905 262.279 94.5 274.318 94.5C286.358 94.5 297.234 97.3905 305.084 102.038C312.943 106.691 317.687 113.047 317.688 119.97C317.644 123.503 316.486 126.933 314.379 129.77Z" fill="#6B6B6B" stroke="white"/>
<path d="M211.626 174.287C211.626 174.287 205.74 144.873 230.072 140.35" stroke="#020202" stroke-width="2" stroke-linecap="round" stroke-linejoin="round"/>
<path d="M242.635 199.793L238.995 214.904L232.158 216.452" stroke="#020202" stroke-width="2" stroke-linecap="round" stroke-linejoin="round"/>
<path d="M307.848 199.793L310.083 215.179L316.748 217.359" stroke="#020202" stroke-width="2" stroke-linecap="round" stroke-linejoin="round"/>
<path d="M257.912 127.057C259.814 127.057 261.355 125.217 261.355 122.948C261.355 120.679 259.814 118.84 257.912 118.84C256.011 118.84 254.469 120.679 254.469 122.948C254.469 125.217 256.011 127.057 257.912 127.057Z" fill="white"/>
<path d="M258.187 127.055C259.599 127.055 260.743 125.805 260.743 124.262C260.743 122.72 259.599 121.469 258.187 121.469C256.776 121.469 255.631 122.72 255.631 124.262C255.631 125.805 256.776 127.055 258.187 127.055Z" fill="#221F20"/>
<path d="M270.444 127.057C272.346 127.057 273.887 125.218 273.887 122.949C273.887 120.679 272.346 118.84 270.444 118.84C268.543 118.84 267.001 120.679 267.001 122.949C267.001 125.218 268.543 127.057 270.444 127.057Z" fill="white"/>
<path d="M270.719 127.056C272.13 127.056 273.275 125.805 273.275 124.263C273.275 122.72 272.13 121.47 270.719 121.47C269.307 121.47 268.163 122.72 268.163 124.263C268.163 125.805 269.307 127.056 270.719 127.056Z" fill="#221F20"/>
<path d="M273.886 131.531C273.886 134.633 269.803 137.159 264.733 137.159C259.664 137.159 255.581 134.64 255.581 131.531" stroke="#020202" stroke-linecap="round" stroke-linejoin="round"/>
</svg>
