<svg width="352" height="274" viewBox="0 0 352 274" fill="none" xmlns="http://www.w3.org/2000/svg">
<path fill-rule="evenodd" clip-rule="evenodd" d="M250.58 77.8842C247.647 74.0824 245.875 69.7746 245.577 65.1404C244.44 47.5039 265.072 31.8173 291.66 30.1033C318.248 28.3894 340.723 41.2972 341.86 58.9337C342.997 76.5702 322.365 92.2569 295.777 93.9708C287.362 94.5132 279.359 93.591 272.314 91.5177L246.354 95.5559C243.864 95.9431 241.987 93.3561 243.188 91.1937L250.58 77.8842Z" fill="#E0DDDD"/>
<path fill-rule="evenodd" clip-rule="evenodd" d="M108.982 64.1457C112.486 60.8441 114.91 56.8622 115.917 52.3288C119.748 35.0758 101.591 16.3685 75.3628 10.5448C49.1347 4.72106 24.767 13.9863 20.9362 31.2392C17.1053 48.4921 35.2619 67.1994 61.4901 73.0232C69.7914 74.8664 77.9063 75.1981 85.2427 74.2434L110.499 82.2697C112.911 83.0362 115.177 80.7717 114.315 78.4569L108.982 64.1457Z" fill="#E0DDDD"/>
<path d="M125.412 198.564C125.412 198.564 131.633 167.513 105.938 162.738" stroke="#020202" stroke-width="2" stroke-linecap="round" stroke-linejoin="round"/>
<path d="M114.013 182.376C117.365 178.737 119.261 174.645 119.261 170.323C119.261 164.679 116.05 159.436 110.557 155.076C112.848 151.99 114.107 148.261 114.154 144.419C114.154 129.276 93.4178 117 67.8426 117C42.2674 117 21.5233 129.276 21.5233 144.419C21.5784 148.192 22.8071 151.854 25.0389 154.898C19.3976 159.287 16.1199 164.597 16.1199 170.323C16.1199 175.173 18.4908 179.725 22.6456 183.691C18.3515 185.848 14.7418 189.154 12.2193 193.242C9.6968 197.33 8.36078 202.037 8.36035 206.84V206.84C8.36035 213.714 11.0932 220.306 15.9578 225.167C20.8224 230.028 27.4202 232.758 34.2997 232.758H105.421C112.301 232.758 118.899 230.028 123.763 225.167C128.628 220.306 131.361 213.714 131.361 206.84C131.361 201.469 129.692 196.23 126.585 191.848C123.477 187.466 119.084 184.156 114.013 182.376V182.376Z" fill="#6B6B6B"/>
<path d="M1.66057 201.756C1.66057 201.756 -4.553 170.705 21.1337 165.93" stroke="#020202" stroke-width="2" stroke-linecap="round" stroke-linejoin="round"/>
<path d="M34.3955 228.682L30.5529 244.634L23.3359 246.268" stroke="#020202" stroke-width="2" stroke-linecap="round" stroke-linejoin="round"/>
<path d="M103.239 228.682L105.598 244.924L112.635 247.226" stroke="#020202" stroke-width="2" stroke-linecap="round" stroke-linejoin="round"/>
<path d="M61.1311 141.894C63.1383 141.894 64.7656 139.952 64.7656 137.557C64.7656 135.162 63.1383 133.22 61.1311 133.22C59.1238 133.22 57.4966 135.162 57.4966 137.557C57.4966 139.952 59.1238 141.894 61.1311 141.894Z" fill="white"/>
<path d="M61.4211 141.893C62.9112 141.893 64.1191 140.573 64.1191 138.944C64.1191 137.316 62.9112 135.996 61.4211 135.996C59.9311 135.996 58.7231 137.316 58.7231 138.944C58.7231 140.573 59.9311 141.893 61.4211 141.893Z" fill="#221F20"/>
<path d="M74.361 141.895C76.3683 141.895 77.9955 139.953 77.9955 137.558C77.9955 135.162 76.3683 133.22 74.361 133.22C72.3538 133.22 70.7266 135.162 70.7266 137.558C70.7266 139.953 72.3538 141.895 74.361 141.895Z" fill="white"/>
<path d="M74.6506 141.894C76.1407 141.894 77.3486 140.574 77.3486 138.945C77.3486 137.317 76.1407 135.997 74.6506 135.997C73.1606 135.997 71.9526 137.317 71.9526 138.945C71.9526 140.574 73.1606 141.894 74.6506 141.894Z" fill="#221F20"/>
<path d="M58.6697 152.559C58.6697 149.283 62.9805 146.617 68.3319 146.617C73.6833 146.617 77.9941 149.276 77.9941 152.559" stroke="#020202" stroke-linecap="round" stroke-linejoin="round"/>
<path d="M223.857 145.433C223.857 145.433 229 119.762 207.758 115.814" stroke="#020202" stroke-width="2" stroke-linecap="round" stroke-linejoin="round"/>
<path d="M214.434 132.05C217.205 129.041 218.772 125.658 218.772 122.085C218.772 117.418 216.118 113.084 211.577 109.479C213.471 106.928 214.512 103.845 214.551 100.669C214.551 88.1493 197.407 78 176.262 78C155.118 78 137.968 88.1493 137.968 100.669C138.014 103.788 139.029 106.816 140.874 109.332C136.21 112.961 133.501 117.351 133.501 122.085C133.501 126.094 135.461 129.858 138.896 133.137C135.346 134.92 132.361 137.654 130.276 141.033C128.19 144.413 127.086 148.305 127.085 152.275V152.275C127.085 157.958 129.345 163.408 133.367 167.427C137.388 171.446 142.843 173.703 148.531 173.703H207.331C213.018 173.703 218.473 171.446 222.495 167.427C226.517 163.408 228.776 157.958 228.776 152.275C228.776 147.835 227.397 143.504 224.828 139.881C222.258 136.258 218.627 133.522 214.434 132.05V132.05Z" fill="#A7A7A7"/>
<path d="M121.546 148.072C121.546 148.072 116.409 122.401 137.646 118.453" stroke="#020202" stroke-width="2" stroke-linecap="round" stroke-linejoin="round"/>
<path d="M148.61 170.333L145.433 183.521L139.466 184.872" stroke="#020202" stroke-width="2" stroke-linecap="round" stroke-linejoin="round"/>
<path d="M205.526 170.333L207.477 183.761L213.294 185.664" stroke="#020202" stroke-width="2" stroke-linecap="round" stroke-linejoin="round"/>
<path d="M170.713 98.5811C172.373 98.5811 173.718 96.9757 173.718 94.9954C173.718 93.015 172.373 91.4097 170.713 91.4097C169.054 91.4097 167.708 93.015 167.708 94.9954C167.708 96.9757 169.054 98.5811 170.713 98.5811Z" fill="white"/>
<path d="M170.953 98.5799C172.185 98.5799 173.184 97.4886 173.184 96.1424C173.184 94.7962 172.185 93.7048 170.953 93.7048C169.721 93.7048 168.723 94.7962 168.723 96.1424C168.723 97.4886 169.721 98.5799 170.953 98.5799Z" fill="#221F20"/>
<path d="M181.651 98.5817C183.311 98.5817 184.656 96.9763 184.656 94.996C184.656 93.0157 183.311 91.4103 181.651 91.4103C179.992 91.4103 178.646 93.0157 178.646 94.996C178.646 96.9763 179.992 98.5817 181.651 98.5817Z" fill="white"/>
<path d="M181.891 98.581C183.123 98.581 184.121 97.4896 184.121 96.1434C184.121 94.7972 183.123 93.7058 181.891 93.7058C180.659 93.7058 179.66 94.7972 179.66 96.1434C179.66 97.4896 180.659 98.581 181.891 98.581Z" fill="#221F20"/>
<path d="M345.223 221.407C345.223 221.407 351.585 189.655 325.31 184.772" stroke="#020202" stroke-width="2" stroke-linecap="round" stroke-linejoin="round"/>
<path d="M333.567 204.854C336.995 201.132 338.933 196.948 338.933 192.528C338.933 186.756 335.65 181.395 330.033 176.937C332.376 173.781 333.663 169.968 333.712 166.039C333.712 150.554 312.506 138 286.353 138C260.2 138 238.987 150.554 238.987 166.039C239.044 169.897 240.3 173.642 242.582 176.754C236.814 181.243 233.462 186.673 233.462 192.528C233.462 197.487 235.886 202.142 240.135 206.198C235.744 208.403 232.053 211.785 229.473 215.965C226.894 220.145 225.527 224.959 225.527 229.87V229.87C225.527 236.899 228.322 243.641 233.296 248.611C238.271 253.582 245.017 256.374 252.052 256.374H324.781C331.816 256.374 338.563 253.582 343.538 248.611C348.512 243.641 351.307 236.899 351.307 229.87C351.307 224.378 349.601 219.021 346.423 214.54C343.245 210.058 338.753 206.674 333.567 204.854V204.854Z" fill="#6B6B6B"/>
<path d="M218.675 224.671C218.675 224.671 212.322 192.919 238.589 188.036" stroke="#020202" stroke-width="2" stroke-linecap="round" stroke-linejoin="round"/>
<path d="M252.15 252.205L248.22 268.518L240.84 270.189" stroke="#020202" stroke-width="2" stroke-linecap="round" stroke-linejoin="round"/>
<path d="M322.55 252.205L324.962 268.815L332.158 271.169" stroke="#020202" stroke-width="2" stroke-linecap="round" stroke-linejoin="round"/>
<path d="M279.49 163.456C281.543 163.456 283.207 161.471 283.207 159.021C283.207 156.572 281.543 154.586 279.49 154.586C277.437 154.586 275.773 156.572 275.773 159.021C275.773 161.471 277.437 163.456 279.49 163.456Z" fill="white"/>
<path d="M279.787 163.455C281.311 163.455 282.546 162.105 282.546 160.44C282.546 158.775 281.311 157.425 279.787 157.425C278.263 157.425 277.028 158.775 277.028 160.44C277.028 162.105 278.263 163.455 279.787 163.455Z" fill="#221F20"/>
<path d="M293.019 163.457C295.071 163.457 296.735 161.472 296.735 159.022C296.735 156.573 295.071 154.587 293.019 154.587C290.966 154.587 289.302 156.573 289.302 159.022C289.302 161.472 290.966 163.457 293.019 163.457Z" fill="white"/>
<path d="M293.315 163.456C294.839 163.456 296.074 162.106 296.074 160.441C296.074 158.776 294.839 157.426 293.315 157.426C291.791 157.426 290.556 158.776 290.556 160.441C290.556 162.106 291.791 163.456 293.315 163.456Z" fill="#221F20"/>
<path d="M276.973 174.362C276.973 171.013 281.381 168.287 286.854 168.287C292.326 168.287 296.734 171.006 296.734 174.362" stroke="#020202" stroke-linecap="round" stroke-linejoin="round"/>
<path d="M172 102H181.025" stroke="black" stroke-linecap="round"/>
</svg>
