<svg width="352" height="226" viewBox="0 0 352 226" fill="none" xmlns="http://www.w3.org/2000/svg">
<path d="M137.099 70.6191C137.099 70.6191 142.243 44.9481 121 41.0001" stroke="#020202" stroke-width="2" stroke-linecap="round" stroke-linejoin="round"/>
<path d="M128.175 34.1814L127.887 34.5701L128.266 34.8711C132.735 38.4185 135.272 42.6232 135.272 47.0848C135.272 50.5028 133.775 53.7702 131.066 56.7111L131.434 57.0499L131.268 57.5217C135.363 58.959 138.91 61.6316 141.42 65.17C143.929 68.7085 145.276 72.9382 145.276 77.2748C145.276 82.8253 143.069 88.1484 139.141 92.0733C135.213 95.9982 129.886 98.2032 124.331 98.2032H65.5308C59.9756 98.2032 54.6481 95.9982 50.7201 92.0733C46.7921 88.1484 44.5854 82.8253 44.5854 77.2749C44.5858 73.3974 45.6645 69.5962 47.7013 66.2957C49.7381 62.9951 52.6529 60.325 56.1202 58.5835L56.7543 58.2649L56.241 57.775C52.8733 54.5605 51.0006 50.9193 51.0006 47.0848C51.0006 42.5577 53.5907 38.2985 58.1814 34.7267L58.565 34.4283L58.2776 34.0365C56.4946 31.6047 55.5127 28.6791 55.4679 25.665C55.4696 19.6548 59.5901 14.1248 66.4407 10.0699C73.2817 6.02064 82.7641 3.5 93.2624 3.5C103.761 3.5 113.242 6.02064 120.081 10.0698C126.93 14.1249 131.049 19.6551 131.051 25.6656C131.012 28.7357 130.006 31.7155 128.175 34.1814Z" fill="#A7A7A7" stroke="white"/>
<path d="M38.5461 73.0719C38.5461 73.0719 33.4091 47.4008 54.6455 43.4528" stroke="#020202" stroke-width="2" stroke-linecap="round" stroke-linejoin="round"/>
<path d="M65.6095 95.3328L62.4327 108.521L56.4661 109.872" stroke="#020202" stroke-width="2" stroke-linecap="round" stroke-linejoin="round"/>
<path d="M122.526 95.3328L124.477 108.761L130.294 110.664" stroke="#020202" stroke-width="2" stroke-linecap="round" stroke-linejoin="round"/>
<path d="M89.0048 32.1714C90.6643 32.1714 92.0096 30.5661 92.0096 28.5857C92.0096 26.6054 90.6643 25 89.0048 25C87.3453 25 86 26.6054 86 28.5857C86 30.5661 87.3453 32.1714 89.0048 32.1714Z" fill="white"/>
<path d="M89.2447 32.1703C90.4766 32.1703 91.4753 31.0789 91.4753 29.7327C91.4753 28.3865 90.4766 27.2952 89.2447 27.2952C88.0128 27.2952 87.0142 28.3865 87.0142 29.7327C87.0142 31.0789 88.0128 32.1703 89.2447 32.1703Z" fill="#221F20"/>
<path d="M99.9426 32.1719C101.602 32.1719 102.947 30.5666 102.947 28.5862C102.947 26.6059 101.602 25.0005 99.9426 25.0005C98.283 25.0005 96.9377 26.6059 96.9377 28.5862C96.9377 30.5666 98.283 32.1719 99.9426 32.1719Z" fill="white"/>
<path d="M100.182 32.1713C101.414 32.1713 102.413 31.0799 102.413 29.7337C102.413 28.3875 101.414 27.2961 100.182 27.2961C98.9503 27.2961 97.9517 28.3875 97.9517 29.7337C97.9517 31.0799 98.9503 32.1713 100.182 32.1713Z" fill="#221F20"/>
<path d="M103.857 109.433C103.857 109.433 109 83.762 87.7578 79.814" stroke="#020202" stroke-width="2" stroke-linecap="round" stroke-linejoin="round"/>
<path d="M91.1752 73.1814L90.8865 73.5701L91.2658 73.8711C95.7353 77.4185 98.2722 81.6232 98.2722 86.0848C98.2722 89.5028 96.7752 92.7702 94.0662 95.7111L94.434 96.0499L94.2684 96.5217C98.3633 97.959 101.91 100.632 104.42 104.17C106.929 107.708 108.276 111.938 108.276 116.275C108.276 121.825 106.069 127.148 102.141 131.073C98.2133 134.998 92.8857 137.203 87.3306 137.203H28.5308C22.9756 137.203 17.6481 134.998 13.7201 131.073C9.79209 127.148 7.58545 121.825 7.58545 116.275C7.5858 112.397 8.66455 108.596 10.7013 105.296C12.7381 101.995 15.6529 99.325 19.1202 97.5835L19.7543 97.2649L19.241 96.775C15.8733 93.5605 14.0006 89.9193 14.0006 86.0848C14.0006 81.5577 16.5907 77.2985 21.1814 73.7267L21.565 73.4283L21.2776 73.0365C19.4946 70.6047 18.5127 67.6791 18.4679 64.665C18.4696 58.6548 22.5901 53.1248 29.4407 49.0699C36.2817 45.0206 45.7641 42.5 56.2624 42.5C66.7606 42.5 76.2415 45.0206 83.0809 49.0698C89.9302 53.1249 94.0493 58.6551 94.0507 64.6656C94.0123 67.7357 93.0061 70.7155 91.1752 73.1814Z" fill="#A7A7A7" stroke="white"/>
<path d="M1.54612 112.072C1.54612 112.072 -3.59094 86.4008 17.6455 82.4528" stroke="#020202" stroke-width="2" stroke-linecap="round" stroke-linejoin="round"/>
<path d="M28.6095 134.333L25.4327 147.521L19.4661 148.872" stroke="#020202" stroke-width="2" stroke-linecap="round" stroke-linejoin="round"/>
<path d="M85.5264 134.333L87.4766 147.761L93.2942 149.664" stroke="#020202" stroke-width="2" stroke-linecap="round" stroke-linejoin="round"/>
<path d="M58.0048 70.1714C59.6643 70.1714 61.0096 68.5661 61.0096 66.5857C61.0096 64.6054 59.6643 63 58.0048 63C56.3453 63 55 64.6054 55 66.5857C55 68.5661 56.3453 70.1714 58.0048 70.1714Z" fill="white"/>
<path d="M58.2447 70.1703C59.4766 70.1703 60.4753 69.0789 60.4753 67.7327C60.4753 66.3865 59.4766 65.2952 58.2447 65.2952C57.0128 65.2952 56.0142 66.3865 56.0142 67.7327C56.0142 69.0789 57.0128 70.1703 58.2447 70.1703Z" fill="#221F20"/>
<path d="M68.9426 70.1719C70.6021 70.1719 71.9474 68.5666 71.9474 66.5862C71.9474 64.6059 70.6021 63.0005 68.9426 63.0005C67.283 63.0005 65.9377 64.6059 65.9377 66.5862C65.9377 68.5666 67.283 70.1719 68.9426 70.1719Z" fill="white"/>
<path d="M69.1822 70.1713C70.4141 70.1713 71.4128 69.0799 71.4128 67.7337C71.4128 66.3875 70.4141 65.2961 69.1822 65.2961C67.9503 65.2961 66.9517 66.3875 66.9517 67.7337C66.9517 69.0799 67.9503 70.1713 69.1822 70.1713Z" fill="#221F20"/>
<path d="M230.857 79.433C230.857 79.433 236 53.762 214.758 49.814" stroke="#020202" stroke-width="2" stroke-linecap="round" stroke-linejoin="round"/>
<path d="M218.175 43.1814L217.887 43.5701L218.266 43.8711C222.735 47.4185 225.272 51.6232 225.272 56.0848C225.272 59.5028 223.775 62.7702 221.066 65.7111L221.434 66.0499L221.268 66.5217C225.363 67.959 228.91 70.6316 231.42 74.17C233.929 77.7085 235.276 81.9382 235.276 86.2748C235.276 91.8253 233.069 97.1484 229.141 101.073C225.213 104.998 219.886 107.203 214.331 107.203H155.531C149.976 107.203 144.648 104.998 140.72 101.073C136.792 97.1484 134.585 91.8253 134.585 86.2749C134.586 82.3974 135.665 78.5962 137.701 75.2957C139.738 71.9951 142.653 69.325 146.12 67.5835L146.754 67.2649L146.241 66.775C142.873 63.5605 141.001 59.9193 141.001 56.0848C141.001 51.5577 143.591 47.2985 148.181 43.7267L148.565 43.4283L148.278 43.0365C146.495 40.6047 145.513 37.6791 145.468 34.665C145.47 28.6548 149.59 23.1248 156.441 19.0699C163.282 15.0206 172.764 12.5 183.262 12.5C193.761 12.5 203.242 15.0206 210.081 19.0698C216.93 23.1249 221.049 28.6551 221.051 34.6656C221.012 37.7357 220.006 40.7155 218.175 43.1814Z" fill="#A7A7A7" stroke="white"/>
<path d="M131.546 79.6191C131.546 79.6191 126.409 53.9481 147.646 50.0001" stroke="#020202" stroke-width="2" stroke-linecap="round" stroke-linejoin="round"/>
<path d="M155.61 104.333L152.433 117.521L146.466 118.872" stroke="#020202" stroke-width="2" stroke-linecap="round" stroke-linejoin="round"/>
<path d="M212.526 104.333L214.477 117.761L220.294 119.664" stroke="#020202" stroke-width="2" stroke-linecap="round" stroke-linejoin="round"/>
<path d="M178.005 42.1714C179.664 42.1714 181.01 40.5661 181.01 38.5857C181.01 36.6054 179.664 35 178.005 35C176.345 35 175 36.6054 175 38.5857C175 40.5661 176.345 42.1714 178.005 42.1714Z" fill="white"/>
<path d="M178.245 42.1703C179.477 42.1703 180.475 41.0789 180.475 39.7327C180.475 38.3865 179.477 37.2952 178.245 37.2952C177.013 37.2952 176.014 38.3865 176.014 39.7327C176.014 41.0789 177.013 42.1703 178.245 42.1703Z" fill="#221F20"/>
<path d="M188.943 42.1719C190.602 42.1719 191.947 40.5666 191.947 38.5862C191.947 36.6059 190.602 35.0005 188.943 35.0005C187.283 35.0005 185.938 36.6059 185.938 38.5862C185.938 40.5666 187.283 42.1719 188.943 42.1719Z" fill="white"/>
<path d="M189.182 42.1713C190.414 42.1713 191.413 41.0799 191.413 39.7337C191.413 38.3875 190.414 37.2961 189.182 37.2961C187.95 37.2961 186.952 38.3875 186.952 39.7337C186.952 41.0799 187.95 42.1713 189.182 42.1713Z" fill="#221F20"/>
<path d="M313.857 67.433C313.857 67.433 319.001 41.762 297.758 37.814" stroke="#020202" stroke-width="2" stroke-linecap="round" stroke-linejoin="round"/>
<path d="M301.175 31.1814L300.887 31.5701L301.266 31.8711C305.735 35.4185 308.272 39.6232 308.272 44.0848C308.272 47.5028 306.775 50.7702 304.066 53.7111L304.434 54.0499L304.268 54.5217C308.363 55.959 311.91 58.6316 314.42 62.17C316.929 65.7085 318.276 69.9382 318.276 74.2748C318.276 79.8253 316.069 85.1484 312.141 89.0733C308.213 92.9982 302.886 95.2032 297.331 95.2032H238.531C232.976 95.2032 227.648 92.9982 223.72 89.0733C219.792 85.1484 217.585 79.8253 217.585 74.2749C217.586 70.3974 218.665 66.5962 220.701 63.2957C222.738 59.9951 225.653 57.325 229.12 55.5835L229.754 55.2649L229.241 54.775C225.873 51.5605 224.001 47.9193 224.001 44.0848C224.001 39.5577 226.591 35.2985 231.181 31.7267L231.565 31.4283L231.278 31.0365C229.495 28.6047 228.513 25.6791 228.468 22.665C228.47 16.6548 232.59 11.1248 239.441 7.06986C246.282 3.02064 255.764 0.5 266.262 0.5C276.761 0.5 286.242 3.02064 293.081 7.06983C299.93 11.1249 304.049 16.6551 304.051 22.6656C304.012 25.7357 303.006 28.7155 301.175 31.1814Z" fill="#A7A7A7" stroke="white"/>
<path d="M238.61 92.3328L235.433 105.521L229.466 106.872" stroke="#020202" stroke-width="2" stroke-linecap="round" stroke-linejoin="round"/>
<path d="M295.526 92.3328L297.477 105.761L303.294 107.664" stroke="#020202" stroke-width="2" stroke-linecap="round" stroke-linejoin="round"/>
<path d="M260.005 29.1714C261.664 29.1714 263.01 27.5661 263.01 25.5857C263.01 23.6054 261.664 22 260.005 22C258.345 22 257 23.6054 257 25.5857C257 27.5661 258.345 29.1714 260.005 29.1714Z" fill="white"/>
<path d="M260.245 29.1703C261.477 29.1703 262.475 28.0789 262.475 26.7327C262.475 25.3865 261.477 24.2952 260.245 24.2952C259.013 24.2952 258.014 25.3865 258.014 26.7327C258.014 28.0789 259.013 29.1703 260.245 29.1703Z" fill="#221F20"/>
<path d="M270.943 29.1719C272.602 29.1719 273.947 27.5666 273.947 25.5862C273.947 23.6059 272.602 22.0005 270.943 22.0005C269.283 22.0005 267.938 23.6059 267.938 25.5862C267.938 27.5666 269.283 29.1719 270.943 29.1719Z" fill="white"/>
<path d="M271.182 29.1713C272.414 29.1713 273.413 28.0799 273.413 26.7337C273.413 25.3875 272.414 24.2961 271.182 24.2961C269.95 24.2961 268.952 25.3875 268.952 26.7337C268.952 28.0799 269.95 29.1713 271.182 29.1713Z" fill="#221F20"/>
<path d="M346.857 155.433C346.857 155.433 352 129.762 330.758 125.814" stroke="#020202" stroke-width="2" stroke-linecap="round" stroke-linejoin="round"/>
<path d="M334.175 119.181L333.887 119.57L334.266 119.871C338.735 123.418 341.272 127.623 341.272 132.085C341.272 135.503 339.775 138.77 337.066 141.711L337.434 142.05L337.268 142.522C341.363 143.959 344.91 146.632 347.42 150.17C349.929 153.708 351.276 157.938 351.276 162.275C351.276 167.825 349.069 173.148 345.141 177.073C341.213 180.998 335.886 183.203 330.331 183.203H271.531C265.976 183.203 260.648 180.998 256.72 177.073C252.792 173.148 250.585 167.825 250.585 162.275C250.586 158.397 251.665 154.596 253.701 151.296C255.738 147.995 258.653 145.325 262.12 143.583L262.754 143.265L262.241 142.775C258.873 139.56 257.001 135.919 257.001 132.085C257.001 127.558 259.591 123.298 264.181 119.727L264.565 119.428L264.278 119.036C262.495 116.605 261.513 113.679 261.468 110.665C261.47 104.655 265.59 99.1248 272.441 95.0699C279.282 91.0206 288.764 88.5 299.262 88.5C309.761 88.5 319.242 91.0206 326.081 95.0698C332.93 99.1249 337.049 104.655 337.051 110.666C337.012 113.736 336.006 116.716 334.175 119.181Z" fill="#A7A7A7" stroke="white"/>
<path d="M244.546 158.072C244.546 158.072 239.409 132.401 260.646 128.453" stroke="#020202" stroke-width="2" stroke-linecap="round" stroke-linejoin="round"/>
<path d="M271.61 180.333L268.433 193.521L262.466 194.872" stroke="#020202" stroke-width="2" stroke-linecap="round" stroke-linejoin="round"/>
<path d="M328.526 180.333L330.477 193.761L336.294 195.664" stroke="#020202" stroke-width="2" stroke-linecap="round" stroke-linejoin="round"/>
<path d="M289.005 112.171C290.664 112.171 292.01 110.566 292.01 108.586C292.01 106.605 290.664 105 289.005 105C287.345 105 286 106.605 286 108.586C286 110.566 287.345 112.171 289.005 112.171Z" fill="white"/>
<path d="M289.245 112.17C290.477 112.17 291.475 111.079 291.475 109.733C291.475 108.386 290.477 107.295 289.245 107.295C288.013 107.295 287.014 108.386 287.014 109.733C287.014 111.079 288.013 112.17 289.245 112.17Z" fill="#221F20"/>
<path d="M299.943 112.172C301.602 112.172 302.947 110.567 302.947 108.586C302.947 106.606 301.602 105 299.943 105C298.283 105 296.938 106.606 296.938 108.586C296.938 110.567 298.283 112.172 299.943 112.172Z" fill="white"/>
<path d="M300.182 112.171C301.414 112.171 302.413 111.08 302.413 109.734C302.413 108.387 301.414 107.296 300.182 107.296C298.95 107.296 297.952 108.387 297.952 109.734C297.952 111.08 298.95 112.171 300.182 112.171Z" fill="#221F20"/>
<path d="M205.852 147.263C205.852 147.263 211.745 117.85 187.406 113.326" stroke="#020202" stroke-width="2" stroke-linecap="round" stroke-linejoin="round"/>
<path d="M191.379 105.77L191.09 106.159L191.47 106.46C196.601 110.533 199.525 115.37 199.525 120.511C199.525 124.45 197.8 128.211 194.687 131.59L195.054 131.929L194.889 132.401C199.595 134.053 203.671 137.124 206.555 141.191C209.439 145.257 210.988 150.119 210.987 155.102C210.987 161.481 208.451 167.599 203.937 172.11C199.423 176.62 193.3 179.155 186.915 179.155H119.544C113.16 179.155 107.037 176.62 102.523 172.11C98.0084 167.599 95.4724 161.481 95.4724 155.103C95.4728 150.646 96.7126 146.278 99.0534 142.485C101.394 138.691 104.744 135.623 108.729 133.621L109.363 133.303L108.85 132.813C104.981 129.12 102.823 124.93 102.823 120.511C102.823 115.294 105.808 110.395 111.079 106.294L111.462 105.996L111.175 105.604C109.123 102.805 107.993 99.4384 107.941 95.9696C107.943 89.0469 112.688 82.6907 120.549 78.0378C128.401 73.3905 139.279 70.5 151.318 70.5C163.358 70.5 174.234 73.3905 182.083 78.0377C189.943 82.6908 194.687 89.0472 194.688 95.9702C194.644 99.5033 193.486 102.933 191.379 105.77Z" fill="#D2D2D2" stroke="white"/>
<path d="M88.6257 150.287C88.6257 150.287 82.7398 120.873 107.072 116.35" stroke="#020202" stroke-width="2" stroke-linecap="round" stroke-linejoin="round"/>
<path d="M119.635 175.793L115.995 190.904L109.158 192.452" stroke="#020202" stroke-width="2" stroke-linecap="round" stroke-linejoin="round"/>
<path d="M184.848 175.793L187.083 191.179L193.749 193.359" stroke="#020202" stroke-width="2" stroke-linecap="round" stroke-linejoin="round"/>
<path d="M144.443 100.217C146.344 100.217 147.886 98.3775 147.886 96.1084C147.886 93.8394 146.344 92 144.443 92C142.541 92 141 93.8394 141 96.1084C141 98.3775 142.541 100.217 144.443 100.217Z" fill="white"/>
<path d="M144.717 100.215C146.129 100.215 147.273 98.965 147.273 97.4225C147.273 95.8801 146.129 94.6296 144.717 94.6296C143.306 94.6296 142.162 95.8801 142.162 97.4225C142.162 98.965 143.306 100.215 144.717 100.215Z" fill="#221F20"/>
<path d="M156.975 100.217C158.877 100.217 160.418 98.378 160.418 96.1089C160.418 93.8399 158.877 92.0005 156.975 92.0005C155.074 92.0005 153.532 93.8399 153.532 96.1089C153.532 98.378 155.074 100.217 156.975 100.217Z" fill="white"/>
<path d="M157.249 100.216C158.661 100.216 159.805 98.966 159.805 97.4235C159.805 95.881 158.661 94.6306 157.249 94.6306C155.838 94.6306 154.694 95.881 154.694 97.4235C154.694 98.966 155.838 100.216 157.249 100.216Z" fill="#221F20"/>
<path d="M160.501 103.678C160.386 106.778 156.212 109.151 151.146 108.963C146.081 108.775 142.093 106.107 142.208 103" stroke="#020202" stroke-linecap="round" stroke-linejoin="round"/>
<path d="M69.2979 74.0306C69.2318 75.8174 66.5263 77.1737 63.2347 77.0518C59.9431 76.9299 57.3453 75.3812 57.4116 73.5903" stroke="#020202" stroke-linecap="round" stroke-linejoin="round"/>
<path d="M272.298 34.0306C272.232 35.8174 269.526 37.1737 266.235 37.0518C262.943 36.9299 260.345 35.3812 260.412 33.5903" stroke="#020202" stroke-linecap="round" stroke-linejoin="round"/>
<path d="M301.298 117.031C301.232 118.817 298.526 120.174 295.235 120.052C291.943 119.93 289.345 118.381 289.412 116.59" stroke="#020202" stroke-linecap="round" stroke-linejoin="round"/>
<path d="M137.169 172.636C137.169 172.636 143.625 140.416 116.963 135.461" stroke="#020202" stroke-width="2" stroke-linecap="round" stroke-linejoin="round"/>
<path d="M121.354 127.212L121.066 127.601L121.445 127.902C127.073 132.369 130.287 137.679 130.287 143.331C130.287 147.661 128.39 151.791 124.974 155.5L125.342 155.839L125.176 156.31C130.341 158.123 134.815 161.494 137.979 165.956C141.144 170.419 142.843 175.754 142.843 181.223C142.843 188.223 140.06 194.937 135.106 199.887C130.152 204.837 123.433 207.618 116.426 207.618H42.6263C35.6201 207.618 28.901 204.837 23.947 199.887C18.993 194.937 16.21 188.223 16.21 181.223C16.2104 176.333 17.5709 171.539 20.1398 167.376C22.7086 163.213 26.3846 159.846 30.7577 157.649L31.3918 157.331L30.8785 156.841C26.6345 152.79 24.2617 148.189 24.2617 143.331C24.2617 137.596 27.5431 132.217 33.3237 127.72L33.7072 127.422L33.4199 127.03C31.1661 123.956 29.9251 120.258 29.8686 116.448C29.8703 108.841 35.0846 101.865 43.7033 96.7637C52.3124 91.6679 64.2371 88.5 77.4325 88.5C90.6278 88.5 102.551 91.6679 111.158 96.7637C119.775 101.865 124.987 108.841 124.989 116.449C124.94 120.329 123.669 124.095 121.354 127.212Z" fill="#6B6B6B" stroke="white"/>
<path d="M8.75771 175.948C8.75771 175.948 2.31013 143.728 28.9643 138.773" stroke="#020202" stroke-width="2" stroke-linecap="round" stroke-linejoin="round"/>
<path d="M42.7253 203.888L38.738 220.441L31.2493 222.136" stroke="#020202" stroke-width="2" stroke-linecap="round" stroke-linejoin="round"/>
<path d="M114.162 203.888L116.61 220.742L123.912 223.13" stroke="#020202" stroke-width="2" stroke-linecap="round" stroke-linejoin="round"/>
<path d="M82.7714 125.001C84.8542 125.001 86.5427 122.986 86.5427 120.5C86.5427 118.015 84.8542 116 82.7714 116C80.6885 116 79 118.015 79 120.5C79 122.986 80.6885 125.001 82.7714 125.001Z" fill="white"/>
<path d="M83.0721 124.999C84.6183 124.999 85.8717 123.63 85.8717 121.94C85.8717 120.25 84.6183 118.881 83.0721 118.881C81.5259 118.881 80.2725 120.25 80.2725 121.94C80.2725 123.63 81.5259 124.999 83.0721 124.999Z" fill="#221F20"/>
<path d="M96.4994 125.001C98.5823 125.001 100.271 122.987 100.271 120.501C100.271 118.015 98.5823 116 96.4994 116C94.4165 116 92.728 118.015 92.728 120.501C92.728 122.987 94.4165 125.001 96.4994 125.001Z" fill="white"/>
<path d="M96.8001 125C98.3463 125 99.5997 123.631 99.5997 121.941C99.5997 120.251 98.3463 118.882 96.8001 118.882C95.2539 118.882 94.0005 120.251 94.0005 121.941C94.0005 123.631 95.2539 125 96.8001 125Z" fill="#221F20"/>
<path d="M98 131C98 134.314 94.1944 137 89.5 137C84.8056 137 81 134.314 81 131" stroke="black"/>
<path d="M81 131H98" stroke="black" stroke-linecap="round"/>
<path d="M193 47C193 50.3137 189.194 53 184.5 53C179.806 53 176 50.3137 176 47" stroke="black"/>
<path d="M176 47H193" stroke="black" stroke-linecap="round"/>
<path d="M103 36C103 39.3137 99.1944 42 94.5 42C89.8056 42 86 39.3137 86 36" stroke="black"/>
<path d="M86 36H103" stroke="black" stroke-linecap="round"/>
<path d="M290.846 171.094C290.846 171.094 297.489 137.938 270.053 132.839" stroke="#020202" stroke-width="2" stroke-linecap="round" stroke-linejoin="round"/>
<path d="M274.583 124.359L274.295 124.748L274.674 125.049C280.467 129.647 283.778 135.116 283.778 140.938C283.778 145.398 281.824 149.652 278.307 153.47L278.675 153.808L278.509 154.28C283.827 156.147 288.433 159.617 291.691 164.212C294.949 168.806 296.699 174.299 296.698 179.93C296.698 187.137 293.833 194.05 288.733 199.146C283.632 204.243 276.714 207.106 269.501 207.106H193.558C186.344 207.106 179.426 204.243 174.326 199.146C169.225 194.05 166.36 187.137 166.36 179.93C166.36 174.895 167.761 169.959 170.406 165.673C173.051 161.387 176.835 157.92 181.338 155.659L181.972 155.34L181.459 154.85C177.089 150.68 174.645 145.941 174.645 140.938C174.645 135.031 178.025 129.491 183.976 124.862L184.359 124.563L184.072 124.172C181.751 121.006 180.473 117.198 180.415 113.274C180.417 105.439 185.787 98.2566 194.658 93.0057C203.52 87.7604 215.794 84.5 229.374 84.5C242.955 84.5 255.227 87.7604 264.086 93.0056C272.956 98.2567 278.324 105.439 278.326 113.275C278.276 117.271 276.966 121.15 274.583 124.359Z" fill="#6B6B6B" stroke="white"/>
<path d="M158.705 174.502C158.705 174.502 152.071 141.346 179.499 136.247" stroke="#020202" stroke-width="2" stroke-linecap="round" stroke-linejoin="round"/>
<path d="M193.659 203.253L189.556 220.286L181.85 222.031" stroke="#020202" stroke-width="2" stroke-linecap="round" stroke-linejoin="round"/>
<path d="M267.17 203.253L269.689 220.597L277.203 223.054" stroke="#020202" stroke-width="2" stroke-linecap="round" stroke-linejoin="round"/>
<path d="M210.881 121.262C213.024 121.262 214.762 119.189 214.762 116.631C214.762 114.073 213.024 112 210.881 112C208.738 112 207 114.073 207 116.631C207 119.189 208.738 121.262 210.881 121.262Z" fill="white"/>
<path d="M211.19 121.261C212.782 121.261 214.071 119.851 214.071 118.112C214.071 116.374 212.782 114.964 211.19 114.964C209.599 114.964 208.31 116.374 208.31 118.112C208.31 119.851 209.599 121.261 211.19 121.261Z" fill="#221F20"/>
<path d="M225.007 121.263C227.151 121.263 228.888 119.189 228.888 116.632C228.888 114.074 227.151 112 225.007 112C222.864 112 221.126 114.074 221.126 116.632C221.126 119.189 222.864 121.263 225.007 121.263Z" fill="white"/>
<path d="M225.317 121.262C226.908 121.262 228.198 119.852 228.198 118.113C228.198 116.375 226.908 114.965 225.317 114.965C223.726 114.965 222.436 116.375 222.436 118.113C222.436 119.852 223.726 121.262 225.317 121.262Z" fill="#221F20"/>
<path d="M228.887 126.306C228.887 129.803 224.284 132.65 218.57 132.65C212.856 132.65 208.253 129.811 208.253 126.306" stroke="#020202" stroke-linecap="round" stroke-linejoin="round"/>
</svg>
