<svg width="390" height="243" viewBox="0 0 390 243" fill="none" xmlns="http://www.w3.org/2000/svg">
<g filter="url(#filter0_d_1128_1663)">
<path d="M483.251 342.686C463.127 346.656 415.41 343.319 383.593 298.936C383.161 298.333 382.732 297.723 382.305 297.104C366.695 304.528 331.271 310.508 314.453 275.042C282.748 288.155 215.423 293.608 199.771 210.52C184.23 211.908 150.734 205.567 141.077 169.101C131.295 174.929 104.778 183.088 76.9713 169.101C68.5766 180.896 44.1693 201.404 13.6983 189.082C3.91594 185.405 -16.1483 171.391 -18.1464 144.749C-34.3809 149.467 -67.2246 148.538 -68.7232 107.077C-86.6228 117.484 -130.747 130.929 -164.049 101.457C-168.42 127.96 -192.73 177.343 -255.004 162.857C-253.2 195.188 -267.784 258.683 -340.548 254.02C-356.713 252.633 -392.665 241.158 -407.151 206.357C-411.383 209.826 -425.134 215.724 -446.28 211.561C-457.45 233.346 -492.903 266.134 -545.353 223.008C-554.649 260.056 -596.887 323.662 -691.463 281.702C-690.076 301.891 -700.58 339.272 -753.696 327.284C-755.43 349.207 -772.719 391.098 -828 383.272L-828 13L483.251 13.0001L483.251 342.686Z" fill="white" fill-opacity="0.3" shape-rendering="crispEdges"/>
</g>
<defs>
<filter id="filter0_d_1128_1663" x="-828" y="0" width="1355.25" height="411.233" filterUnits="userSpaceOnUse" color-interpolation-filters="sRGB">
<feFlood flood-opacity="0" result="BackgroundImageFix"/>
<feColorMatrix in="SourceAlpha" type="matrix" values="0 0 0 0 0 0 0 0 0 0 0 0 0 0 0 0 0 0 127 0" result="hardAlpha"/>
<feOffset dx="24" dy="7"/>
<feGaussianBlur stdDeviation="10"/>
<feComposite in2="hardAlpha" operator="out"/>
<feColorMatrix type="matrix" values="0 0 0 0 0 0 0 0 0 0 0 0 0 0 0 0 0 0 0.05 0"/>
<feBlend mode="normal" in2="BackgroundImageFix" result="effect1_dropShadow_1128_1663"/>
<feBlend mode="normal" in="SourceGraphic" in2="effect1_dropShadow_1128_1663" result="shape"/>
</filter>
</defs>
</svg>
