<svg width="325" height="220" viewBox="0 0 325 220" fill="none" xmlns="http://www.w3.org/2000/svg">
<path fill-rule="evenodd" clip-rule="evenodd" d="M104.322 65.8708C101.572 62.5716 99.8671 58.7944 99.495 54.6904C98.0786 39.0719 116.5 24.6359 140.641 22.4466C164.782 20.2574 185.501 31.1439 186.917 46.7624C188.333 62.3809 169.912 76.8169 145.771 79.0061C138.126 79.6994 130.825 79.0815 124.372 77.4176C124.32 77.4296 124.267 77.4405 124.213 77.4502L101.533 81.5345C99.0201 81.9871 97.0342 79.4558 98.1989 77.2847L104.322 65.8708Z" fill="#E0DDDD"/>
<path fill-rule="evenodd" clip-rule="evenodd" d="M230.707 175.998C227.774 172.196 226.002 167.888 225.704 163.254C224.567 145.618 245.199 129.931 271.787 128.217C298.375 126.503 320.85 139.411 321.987 157.047C323.124 174.684 302.492 190.371 275.904 192.085C267.489 192.627 259.486 191.705 252.441 189.631L226.481 193.67C223.991 194.057 222.114 191.47 223.315 189.307L230.707 175.998Z" fill="#E0DDDD"/>
<path d="M125.567 167.779C125.567 167.779 131.795 136.69 106.069 131.909" stroke="#020202" stroke-width="2" stroke-linecap="round" stroke-linejoin="round"/>
<path d="M114.154 151.572C117.51 147.928 119.408 143.831 119.408 139.503C119.408 133.852 116.193 128.602 110.694 124.237C112.988 121.148 114.248 117.414 114.295 113.567C114.295 98.4052 93.533 86.1138 67.9259 86.1138C42.3189 86.1138 21.549 98.4052 21.549 113.567C21.6042 117.344 22.8344 121.011 25.0689 124.059C19.4206 128.453 16.1388 133.77 16.1388 139.503C16.1388 144.359 18.5127 148.917 22.6727 152.888C18.3733 155.047 14.759 158.358 12.2334 162.451C9.70775 166.543 8.37006 171.257 8.36963 176.065V176.065C8.36963 182.948 11.1059 189.549 15.9766 194.415C20.8472 199.282 27.4532 202.016 34.3413 202.016H105.551C112.44 202.016 119.046 199.282 123.916 194.415C128.787 189.549 131.523 182.948 131.523 176.065C131.524 170.688 129.853 165.443 126.741 161.055C123.63 156.668 119.232 153.354 114.154 151.572V151.572Z" fill="#6B6B6B"/>
<path d="M1.66139 170.975C1.66139 170.975 -4.55991 139.886 21.1588 135.105" stroke="#020202" stroke-width="2" stroke-linecap="round" stroke-linejoin="round"/>
<path d="M34.4371 197.934L30.5897 213.907L23.3638 215.543" stroke="#020202" stroke-width="2" stroke-linecap="round" stroke-linejoin="round"/>
<path d="M103.367 197.934L105.729 214.197L112.774 216.502" stroke="#020202" stroke-width="2" stroke-linecap="round" stroke-linejoin="round"/>
<path d="M61.2059 111.039C63.2157 111.039 64.8449 109.095 64.8449 106.696C64.8449 104.298 63.2157 102.354 61.2059 102.354C59.1961 102.354 57.5669 104.298 57.5669 106.696C57.5669 109.095 59.1961 111.039 61.2059 111.039Z" fill="white"/>
<path d="M61.4963 111.037C62.9882 111.037 64.1976 109.716 64.1976 108.085C64.1976 106.455 62.9882 105.133 61.4963 105.133C60.0044 105.133 58.7949 106.455 58.7949 108.085C58.7949 109.716 60.0044 111.037 61.4963 111.037Z" fill="#221F20"/>
<path d="M74.4525 111.039C76.4623 111.039 78.0915 109.095 78.0915 106.697C78.0915 104.299 76.4623 102.354 74.4525 102.354C72.4427 102.354 70.8135 104.299 70.8135 106.697C70.8135 109.095 72.4427 111.039 74.4525 111.039Z" fill="white"/>
<path d="M74.7424 111.038C76.2343 111.038 77.4437 109.717 77.4437 108.086C77.4437 106.456 76.2343 105.134 74.7424 105.134C73.2505 105.134 72.041 106.456 72.041 108.086C72.041 109.717 73.2505 111.038 74.7424 111.038Z" fill="#221F20"/>
<path d="M63.6982 115.563H72.723" stroke="black" stroke-linecap="round"/>
</svg>
