<svg width="208" height="208" viewBox="0 0 208 208" fill="none" xmlns="http://www.w3.org/2000/svg">
<path d="M127.355 154.805C127.355 154.805 133.824 122.521 107.108 117.556" stroke="#020202" stroke-width="2" stroke-linecap="round" stroke-linejoin="round"/>
<path d="M1.68682 154.25C1.68682 154.25 -4.77367 121.965 21.9338 117" stroke="#020202" stroke-width="2" stroke-linecap="round" stroke-linejoin="round"/>
<path d="M45.499 186L41.5037 202.586L34 204.285" stroke="#020202" stroke-width="2" stroke-linecap="round" stroke-linejoin="round"/>
<path d="M89.7734 186L92.2261 202.888L99.5424 205.281" stroke="#020202" stroke-width="2" stroke-linecap="round" stroke-linejoin="round"/>
<path d="M111.51 109.291L111.221 109.68L111.6 109.981C117.24 114.457 120.461 119.778 120.461 125.442C120.461 129.781 118.56 133.92 115.137 137.636L115.505 137.974L115.339 138.446C120.514 140.263 124.997 143.64 128.168 148.112C131.339 152.584 133.042 157.929 133.042 163.41C133.042 170.424 130.253 177.152 125.289 182.112C120.325 187.072 113.592 189.859 106.571 189.859H32.6235C25.6031 189.859 18.8702 187.072 13.9061 182.112C8.94204 177.152 6.15332 170.424 6.15332 163.41C6.15376 158.509 7.51707 153.706 10.0911 149.534C12.6652 145.363 16.3487 141.989 20.7307 139.788L21.3648 139.469L20.8515 138.979C16.5989 134.92 14.2212 130.309 14.2212 125.442C14.2212 119.695 17.5094 114.305 23.3017 109.799L23.6852 109.5L23.3978 109.108C21.1395 106.028 19.8959 102.323 19.8393 98.505C19.841 90.8821 25.066 83.8921 33.7022 78.7804C42.3286 73.6743 54.2774 70.5 67.4993 70.5C80.7212 70.5 92.668 73.6743 101.293 78.7803C109.927 83.8922 115.15 90.8824 115.152 98.5056C115.103 102.394 113.829 106.168 111.51 109.291Z" fill="#FACF63" stroke="white"/>
<path fill-rule="evenodd" clip-rule="evenodd" d="M114.581 50.8842C111.648 47.0824 109.876 42.7746 109.577 38.1404C108.44 20.5039 129.072 4.81726 155.66 3.10334C182.248 1.38941 204.724 14.2972 205.861 31.9337C206.998 49.5702 186.365 65.2569 159.777 66.9708C151.362 67.5132 143.359 66.591 136.314 64.5177L110.354 68.5559C107.865 68.9431 105.987 66.3561 107.188 64.1937L114.581 50.8842Z" fill="#E0DDDD"/>
</svg>
