<svg width="201" height="220" viewBox="0 0 201 220" fill="none" xmlns="http://www.w3.org/2000/svg">
<path fill-rule="evenodd" clip-rule="evenodd" d="M104.322 65.8708C101.572 62.5716 99.8671 58.7944 99.495 54.6904C98.0786 39.0719 116.5 24.6359 140.641 22.4466C164.782 20.2574 185.501 31.1439 186.917 46.7624C188.333 62.3809 169.912 76.8169 145.771 79.0061C138.126 79.6994 130.825 79.0815 124.372 77.4176C124.32 77.4296 124.267 77.4405 124.213 77.4502L101.533 81.5345C99.0201 81.9871 97.0342 79.4558 98.1989 77.2847L104.322 65.8708Z" fill="#E0DDDD"/>
<path d="M125.567 167.779C125.567 167.779 131.795 136.69 106.069 131.909" stroke="#020202" stroke-width="2" stroke-linecap="round" stroke-linejoin="round"/>
<path d="M114.154 151.572C117.51 147.928 119.408 143.831 119.408 139.503C119.408 133.852 116.193 128.602 110.694 124.237C112.988 121.148 114.248 117.414 114.296 113.567C114.296 98.4052 93.5331 86.1138 67.9261 86.1138C42.319 86.1138 21.5491 98.4052 21.5491 113.567C21.6043 117.344 22.8345 121.011 25.069 124.059C19.4207 128.453 16.1389 133.77 16.1389 139.503C16.1389 144.359 18.5129 148.917 22.6728 152.888C18.3734 155.047 14.7592 158.358 12.2335 162.451C9.70787 166.543 8.37018 171.257 8.36975 176.065C8.36975 182.948 11.106 189.549 15.9767 194.415C20.8473 199.282 27.4533 202.016 34.3414 202.016H105.552C112.44 202.016 119.046 199.282 123.916 194.415C128.787 189.549 131.523 182.948 131.523 176.065C131.524 170.688 129.853 165.443 126.741 161.055C123.63 156.668 119.232 153.354 114.154 151.572Z" fill="#6B6B6B"/>
<path d="M1.66139 170.975C1.66139 170.975 -4.55991 139.886 21.1588 135.105" stroke="#020202" stroke-width="2" stroke-linecap="round" stroke-linejoin="round"/>
<path d="M34.437 197.934L30.5896 213.907L23.3636 215.543" stroke="#020202" stroke-width="2" stroke-linecap="round" stroke-linejoin="round"/>
<path d="M103.367 197.934L105.729 214.197L112.774 216.502" stroke="#020202" stroke-width="2" stroke-linecap="round" stroke-linejoin="round"/>
<path d="M61.206 111.039C63.2158 111.039 64.845 109.095 64.845 106.696C64.845 104.298 63.2158 102.354 61.206 102.354C59.1963 102.354 57.567 104.298 57.567 106.696C57.567 109.095 59.1963 111.039 61.206 111.039Z" fill="white"/>
<path d="M61.4964 111.037C62.9883 111.037 64.1977 109.716 64.1977 108.085C64.1977 106.455 62.9883 105.133 61.4964 105.133C60.0045 105.133 58.795 106.455 58.795 108.085C58.795 109.716 60.0045 111.037 61.4964 111.037Z" fill="#221F20"/>
<path d="M74.4522 111.039C76.462 111.039 78.0913 109.095 78.0913 106.697C78.0913 104.299 76.462 102.354 74.4522 102.354C72.4425 102.354 70.8132 104.299 70.8132 106.697C70.8132 109.095 72.4425 111.039 74.4522 111.039Z" fill="white"/>
<path d="M74.7423 111.038C76.2342 111.038 77.4436 109.717 77.4436 108.086C77.4436 106.456 76.2342 105.134 74.7423 105.134C73.2503 105.134 72.0409 106.456 72.0409 108.086C72.0409 109.717 73.2503 111.038 74.7423 111.038Z" fill="#221F20"/>
<path d="M63.6982 115.563H72.723" stroke="black" stroke-linecap="round"/>
</svg>
