<svg width="1456" height="891" viewBox="0 0 1456 891" fill="none" xmlns="http://www.w3.org/2000/svg">
<rect x="1" y="1" width="702" height="468.297" fill="#67B3E5"/>
<g filter="url(#filter0_d_890_83)">
<path d="M35.5923 131.775C24.5227 120.904 7.91846 125.389 1 128.991V468.183H703V119.077C682.2 124.424 677.595 138.83 677.893 145.365C652.004 135.474 631.472 151.269 624.442 160.404C571.773 119.589 538.371 156.542 528.253 180.12C476.923 170.585 463.197 213.278 462.751 235.817C459.002 231.628 446.534 235.854 440.768 238.49C434.43 224.143 417.372 224.937 409.635 227.128C394.102 233.901 391.409 245.694 392.004 250.743C378.971 246.199 372.514 252.637 370.914 256.424C365.022 251.345 355.143 252.377 350.94 253.528C347.191 217.08 317.687 215.098 303.403 218.662C308.581 194.958 292.617 180.863 283.987 176.778C251.671 159.757 231.02 182.385 224.734 195.827C210.361 189.41 197.395 196.495 192.708 200.839C172.979 193.977 160.162 202.659 156.219 207.857C149.791 186.113 130.926 174.959 122.296 172.1C102.032 166.842 85.4349 174.291 79.6695 178.672C79.1339 152.383 58.691 152.049 48.5365 155.168C47.0189 142.068 39.2747 134.115 35.5923 131.775Z" fill="#92C7E9"/>
</g>
<g filter="url(#filter1_d_890_83)">
<path d="M9.47799 176.571C8.67481 175.412 3.49134 174.008 1 173.451V469.297H703V209.889C695.325 206.056 682.028 208.292 676.339 209.889C672.591 192.862 657.152 182.291 649.901 179.134C611.527 161.395 585.572 184 577.392 197.52C557.58 186.377 546.008 199.86 542.699 207.995C501.737 191.681 486.216 223.335 483.576 241.201C468.584 238.17 459.63 248.852 457.027 254.572C432.039 247.262 423.115 266.384 421.776 276.858C400.715 272.312 396.045 287.518 396.342 295.69C373.764 281.427 353.394 293.461 346.032 301.261C332.646 284.324 314.202 285.364 306.654 288.001C309.688 257.425 287.169 244.506 275.531 241.869C255.005 237.59 239.834 249.075 234.814 255.352C227.407 239.306 211.053 235.963 203.802 236.298C192.023 236.03 183.128 244.135 180.153 248.221C175.602 226.113 157.954 214.717 149.7 211.783C127.032 203.136 108.946 211.226 102.736 216.352C104.164 206.011 96.9352 197.78 93.1424 194.957C84.5751 188.539 74.7734 190.723 70.9434 192.617C70.7649 179.335 61.2755 170.146 56.5532 167.211C33.1717 152.859 15.4275 167.471 9.47799 176.571Z" fill="#B7E0F2"/>
</g>
<g filter="url(#filter2_d_890_83)">
<path d="M20.0663 251.078C20.7799 235.126 7.80136 226.014 1.2229 223.452V469.297H703V217.103C698.629 217.103 693.894 225.42 692.073 229.579C674.59 218.529 663.158 230.544 659.627 237.934C622.609 227.151 608.672 252.675 606.33 266.784C592.95 249.585 573.772 246.325 565.856 246.845C536.866 244.706 521.888 268.455 518.023 280.597C474.404 274.448 461.492 306.7 460.489 323.595C444.522 315.129 430.496 320.067 425.478 323.595C417.539 308.98 401.58 309.559 394.593 311.676C378.894 314.973 375.043 329.536 375.08 336.405C364.287 334.088 355.791 339.079 352.892 341.863C343.615 336.427 335.721 337.89 332.934 339.301C328.83 301.784 298.889 299.534 284.431 303.099C286.483 276.186 269.23 262.329 260.348 258.764C226.63 245.664 208.389 267.193 203.483 279.595C182.61 270.861 168.249 284.57 163.678 292.516C146.73 281.733 132.458 289.88 127.44 295.301C103.535 256.536 67.7509 265.708 52.8471 275.139C51.5091 248.226 30.4357 247.885 20.0663 251.078Z" fill="#DBF3FF"/>
</g>
<g filter="url(#filter3_d_890_83)">
<path d="M1.2229 292.85C11.9931 290.726 37.531 292.511 54.5593 316.265C54.7906 316.588 55.0204 316.914 55.2486 317.245C63.6031 313.272 82.5622 310.072 91.5628 329.053C108.532 322.035 144.564 319.117 152.94 363.585C161.258 362.842 179.185 366.236 184.353 385.752C189.589 382.633 203.78 378.267 218.662 385.752C223.155 379.44 236.218 368.464 252.526 375.058C257.761 377.026 268.5 384.527 269.569 398.785C278.258 396.26 295.836 396.758 296.638 418.947C306.218 413.378 329.833 406.182 347.656 421.955C349.995 407.771 363.006 381.341 396.335 389.094C395.369 371.791 403.174 337.809 442.117 340.304C450.769 341.046 470.01 347.188 477.763 365.813C480.028 363.956 487.387 360.8 498.705 363.028C504.683 351.369 523.657 333.821 551.728 356.901C556.704 337.073 579.309 303.032 629.926 325.488C629.184 314.683 634.805 294.677 663.233 301.093C664.161 289.36 673.414 266.94 703 271.129V469.297H1.2229V292.85Z" fill="white"/>
</g>
<rect width="702" height="468.297" transform="matrix(-1 0 0 1 1405 0)" fill="#67B3E5"/>
<g filter="url(#filter4_d_890_83)">
<path d="M1370.41 130.775C1381.48 119.904 1398.08 124.389 1405 127.991V467.183H703V118.077C723.8 123.424 728.405 137.83 728.107 144.365C753.996 134.474 774.528 150.269 781.558 159.404C834.227 118.589 867.629 155.542 877.747 179.12C929.077 169.585 942.803 212.278 943.249 234.817C946.998 230.628 959.466 234.854 965.232 237.49C971.57 223.143 988.628 223.937 996.365 226.128C1011.9 232.901 1014.59 244.694 1014 249.743C1027.03 245.199 1033.49 251.637 1035.09 255.424C1040.98 250.345 1050.86 251.377 1055.06 252.528C1058.81 216.08 1088.31 214.098 1102.6 217.662C1097.42 193.958 1113.38 179.863 1122.01 175.778C1154.33 158.757 1174.98 181.385 1181.27 194.827C1195.64 188.41 1208.61 195.495 1213.29 199.839C1233.02 192.977 1245.84 201.659 1249.78 206.857C1256.21 185.113 1275.07 173.959 1283.7 171.1C1303.97 165.842 1320.57 173.291 1326.33 177.672C1326.87 151.383 1347.31 151.049 1357.46 154.168C1358.98 141.068 1366.73 133.115 1370.41 130.775Z" fill="#92C7E9"/>
</g>
<g filter="url(#filter5_d_890_83)">
<path d="M1396.52 175.571C1397.33 174.412 1402.51 173.008 1405 172.451V468.297H703V208.889C710.675 205.056 723.972 207.292 729.661 208.889C733.409 191.862 748.848 181.291 756.099 178.134C794.473 160.395 820.428 183 828.608 196.52C848.42 185.377 859.992 198.86 863.301 206.995C904.263 190.681 919.784 222.335 922.424 240.201C937.416 237.17 946.37 247.852 948.973 253.572C973.961 246.262 982.885 265.384 984.224 275.858C1005.29 271.312 1009.96 286.518 1009.66 294.69C1032.24 280.427 1052.61 292.461 1059.97 300.261C1073.35 283.324 1091.8 284.364 1099.35 287.001C1096.31 256.425 1118.83 243.506 1130.47 240.869C1150.99 236.59 1166.17 248.075 1171.19 254.352C1178.59 238.306 1194.95 234.963 1202.2 235.298C1213.98 235.03 1222.87 243.135 1225.85 247.221C1230.4 225.113 1248.05 213.717 1256.3 210.783C1278.97 202.136 1297.05 210.226 1303.26 215.352C1301.84 205.011 1309.06 196.78 1312.86 193.957C1321.42 187.539 1331.23 189.723 1335.06 191.617C1335.24 178.335 1344.72 169.146 1349.45 166.211C1372.83 151.859 1390.57 166.471 1396.52 175.571Z" fill="#B7E0F2"/>
</g>
<g filter="url(#filter6_d_890_83)">
<path d="M1385.93 250.078C1385.22 234.126 1398.2 225.014 1404.78 222.452V468.297H703V216.103C707.371 216.103 712.106 224.42 713.927 228.579C731.41 217.529 742.843 229.544 746.373 236.934C783.391 226.151 797.329 251.675 799.67 265.784C813.05 248.585 832.228 245.325 840.144 245.845C869.134 243.706 884.112 267.455 887.978 279.597C931.596 273.448 944.508 305.7 945.511 322.595C961.478 314.129 975.505 319.067 980.522 322.595C988.461 307.98 1004.42 308.559 1011.41 310.676C1027.11 313.973 1030.96 328.536 1030.92 335.405C1041.71 333.088 1050.21 338.079 1053.11 340.863C1062.38 335.427 1070.28 336.89 1073.07 338.301C1077.17 300.784 1107.11 298.534 1121.57 302.099C1119.52 275.186 1136.77 261.329 1145.65 257.764C1179.37 244.664 1197.61 266.193 1202.52 278.595C1223.39 269.861 1237.75 283.57 1242.32 291.516C1259.27 280.733 1273.54 288.88 1278.56 294.301C1302.47 255.536 1338.25 264.708 1353.15 274.139C1354.49 247.226 1375.56 246.885 1385.93 250.078Z" fill="#DBF3FF"/>
</g>
<g filter="url(#filter7_d_890_83)">
<path d="M1404.78 291.85C1394.01 289.726 1368.47 291.511 1351.44 315.265C1351.21 315.588 1350.98 315.914 1350.75 316.245C1342.4 312.272 1323.44 309.072 1314.44 328.053C1297.47 321.035 1261.44 318.117 1253.06 362.585C1244.74 361.842 1226.82 365.236 1221.65 384.752C1216.41 381.633 1202.22 377.267 1187.34 384.752C1182.84 378.44 1169.78 367.464 1153.47 374.058C1148.24 376.026 1137.5 383.527 1136.43 397.785C1127.74 395.26 1110.16 395.758 1109.36 417.947C1099.78 412.378 1076.17 405.182 1058.34 420.955C1056.01 406.771 1042.99 380.341 1009.67 388.094C1010.63 370.791 1002.83 336.809 963.883 339.304C955.231 340.046 935.99 346.188 928.237 364.813C925.972 362.956 918.613 359.8 907.295 362.028C901.317 350.369 882.343 332.821 854.272 355.901C849.297 336.073 826.691 302.032 776.074 324.488C776.817 313.683 771.195 293.677 742.767 300.093C741.839 288.36 732.586 265.94 703 270.129V468.297H1404.78V291.85Z" fill="white"/>
</g>
<rect x="1" y="426" width="1404" height="465" fill="white"/>
<defs>
<filter id="filter0_d_890_83" x="1" y="89.0767" width="753" height="389.106" filterUnits="userSpaceOnUse" color-interpolation-filters="sRGB">
<feFlood flood-opacity="0" result="BackgroundImageFix"/>
<feColorMatrix in="SourceAlpha" type="matrix" values="0 0 0 0 0 0 0 0 0 0 0 0 0 0 0 0 0 0 127 0" result="hardAlpha"/>
<feOffset dx="31" dy="-10"/>
<feGaussianBlur stdDeviation="10"/>
<feComposite in2="hardAlpha" operator="out"/>
<feColorMatrix type="matrix" values="0 0 0 0 0 0 0 0 0 0 0 0 0 0 0 0 0 0 0.04 0"/>
<feBlend mode="normal" in2="BackgroundImageFix" result="effect1_dropShadow_890_83"/>
<feBlend mode="normal" in="SourceGraphic" in2="effect1_dropShadow_890_83" result="shape"/>
</filter>
<filter id="filter1_d_890_83" x="1" y="129.184" width="746" height="352.114" filterUnits="userSpaceOnUse" color-interpolation-filters="sRGB">
<feFlood flood-opacity="0" result="BackgroundImageFix"/>
<feColorMatrix in="SourceAlpha" type="matrix" values="0 0 0 0 0 0 0 0 0 0 0 0 0 0 0 0 0 0 127 0" result="hardAlpha"/>
<feOffset dx="22" dy="-10"/>
<feGaussianBlur stdDeviation="11"/>
<feComposite in2="hardAlpha" operator="out"/>
<feColorMatrix type="matrix" values="0 0 0 0 0 0 0 0 0 0 0 0 0 0 0 0 0 0 0.04 0"/>
<feBlend mode="normal" in2="BackgroundImageFix" result="effect1_dropShadow_890_83"/>
<feBlend mode="normal" in="SourceGraphic" in2="effect1_dropShadow_890_83" result="shape"/>
</filter>
<filter id="filter2_d_890_83" x="0.2229" y="183.103" width="749.777" height="300.194" filterUnits="userSpaceOnUse" color-interpolation-filters="sRGB">
<feFlood flood-opacity="0" result="BackgroundImageFix"/>
<feColorMatrix in="SourceAlpha" type="matrix" values="0 0 0 0 0 0 0 0 0 0 0 0 0 0 0 0 0 0 127 0" result="hardAlpha"/>
<feOffset dx="23" dy="-10"/>
<feGaussianBlur stdDeviation="12"/>
<feComposite in2="hardAlpha" operator="out"/>
<feColorMatrix type="matrix" values="0 0 0 0 0 0 0 0 0 0 0 0 0 0 0 0 0 0 0.04 0"/>
<feBlend mode="normal" in2="BackgroundImageFix" result="effect1_dropShadow_890_83"/>
<feBlend mode="normal" in="SourceGraphic" in2="effect1_dropShadow_890_83" result="shape"/>
</filter>
<filter id="filter3_d_890_83" x="1.2229" y="240.614" width="745.777" height="238.683" filterUnits="userSpaceOnUse" color-interpolation-filters="sRGB">
<feFlood flood-opacity="0" result="BackgroundImageFix"/>
<feColorMatrix in="SourceAlpha" type="matrix" values="0 0 0 0 0 0 0 0 0 0 0 0 0 0 0 0 0 0 127 0" result="hardAlpha"/>
<feOffset dx="24" dy="-10"/>
<feGaussianBlur stdDeviation="10"/>
<feComposite in2="hardAlpha" operator="out"/>
<feColorMatrix type="matrix" values="0 0 0 0 0 0 0 0 0 0 0 0 0 0 0 0 0 0 0.05 0"/>
<feBlend mode="normal" in2="BackgroundImageFix" result="effect1_dropShadow_890_83"/>
<feBlend mode="normal" in="SourceGraphic" in2="effect1_dropShadow_890_83" result="shape"/>
</filter>
<filter id="filter4_d_890_83" x="703" y="88.0767" width="753" height="389.106" filterUnits="userSpaceOnUse" color-interpolation-filters="sRGB">
<feFlood flood-opacity="0" result="BackgroundImageFix"/>
<feColorMatrix in="SourceAlpha" type="matrix" values="0 0 0 0 0 0 0 0 0 0 0 0 0 0 0 0 0 0 127 0" result="hardAlpha"/>
<feOffset dx="31" dy="-10"/>
<feGaussianBlur stdDeviation="10"/>
<feComposite in2="hardAlpha" operator="out"/>
<feColorMatrix type="matrix" values="0 0 0 0 0 0 0 0 0 0 0 0 0 0 0 0 0 0 0.04 0"/>
<feBlend mode="normal" in2="BackgroundImageFix" result="effect1_dropShadow_890_83"/>
<feBlend mode="normal" in="SourceGraphic" in2="effect1_dropShadow_890_83" result="shape"/>
</filter>
<filter id="filter5_d_890_83" x="703" y="128.184" width="746" height="352.114" filterUnits="userSpaceOnUse" color-interpolation-filters="sRGB">
<feFlood flood-opacity="0" result="BackgroundImageFix"/>
<feColorMatrix in="SourceAlpha" type="matrix" values="0 0 0 0 0 0 0 0 0 0 0 0 0 0 0 0 0 0 127 0" result="hardAlpha"/>
<feOffset dx="22" dy="-10"/>
<feGaussianBlur stdDeviation="11"/>
<feComposite in2="hardAlpha" operator="out"/>
<feColorMatrix type="matrix" values="0 0 0 0 0 0 0 0 0 0 0 0 0 0 0 0 0 0 0.04 0"/>
<feBlend mode="normal" in2="BackgroundImageFix" result="effect1_dropShadow_890_83"/>
<feBlend mode="normal" in="SourceGraphic" in2="effect1_dropShadow_890_83" result="shape"/>
</filter>
<filter id="filter6_d_890_83" x="702" y="182.103" width="749.777" height="300.194" filterUnits="userSpaceOnUse" color-interpolation-filters="sRGB">
<feFlood flood-opacity="0" result="BackgroundImageFix"/>
<feColorMatrix in="SourceAlpha" type="matrix" values="0 0 0 0 0 0 0 0 0 0 0 0 0 0 0 0 0 0 127 0" result="hardAlpha"/>
<feOffset dx="23" dy="-10"/>
<feGaussianBlur stdDeviation="12"/>
<feComposite in2="hardAlpha" operator="out"/>
<feColorMatrix type="matrix" values="0 0 0 0 0 0 0 0 0 0 0 0 0 0 0 0 0 0 0.04 0"/>
<feBlend mode="normal" in2="BackgroundImageFix" result="effect1_dropShadow_890_83"/>
<feBlend mode="normal" in="SourceGraphic" in2="effect1_dropShadow_890_83" result="shape"/>
</filter>
<filter id="filter7_d_890_83" x="703" y="239.614" width="745.777" height="238.683" filterUnits="userSpaceOnUse" color-interpolation-filters="sRGB">
<feFlood flood-opacity="0" result="BackgroundImageFix"/>
<feColorMatrix in="SourceAlpha" type="matrix" values="0 0 0 0 0 0 0 0 0 0 0 0 0 0 0 0 0 0 127 0" result="hardAlpha"/>
<feOffset dx="24" dy="-10"/>
<feGaussianBlur stdDeviation="10"/>
<feComposite in2="hardAlpha" operator="out"/>
<feColorMatrix type="matrix" values="0 0 0 0 0 0 0 0 0 0 0 0 0 0 0 0 0 0 0.05 0"/>
<feBlend mode="normal" in2="BackgroundImageFix" result="effect1_dropShadow_890_83"/>
<feBlend mode="normal" in="SourceGraphic" in2="effect1_dropShadow_890_83" result="shape"/>
</filter>
</defs>
</svg>
