<svg width="171" height="131" viewBox="0 0 171 131" fill="none" xmlns="http://www.w3.org/2000/svg">
<path d="M117.866 47.4478C117.866 47.4478 121.441 29.6075 106.678 26.8638" stroke="#020202" stroke-width="2" stroke-linecap="round" stroke-linejoin="round"/>
<path d="M110.95 37.8085L110.435 38.3674L111.152 38.619C113.968 39.6075 116.407 41.4453 118.133 43.8786C119.858 46.3119 120.785 49.2206 120.784 52.2027C120.784 56.0195 119.267 59.6801 116.566 62.3791C113.865 65.0781 110.201 66.5945 106.381 66.5945H65.5176C61.6974 66.5945 58.0338 65.0781 55.3326 62.3791C52.6314 59.6801 51.114 56.0195 51.114 52.2028C51.1143 49.5364 51.8561 46.9225 53.2567 44.6528C54.6573 42.3831 56.6617 40.547 59.0461 39.3493L59.6802 39.0308L59.1669 38.5408C56.847 36.3265 55.5723 33.8334 55.5723 31.2219C55.5723 28.1389 57.3358 25.2189 60.5038 22.754L60.8873 22.4556L60.6 22.0638C59.3798 20.3996 58.7078 18.3976 58.6768 16.335C58.6785 12.2343 61.4911 8.43302 66.2276 5.62945C70.9545 2.83161 77.5165 1.08496 84.7898 1.08496C92.0631 1.08496 98.6241 2.83161 103.35 5.62943C108.085 8.43309 110.897 12.2346 110.899 16.3357C110.872 18.4367 110.183 20.4761 108.93 22.1637L108.642 22.5525L109.021 22.8534C112.105 25.3014 113.832 28.1838 113.832 31.2219C113.832 33.5499 112.813 35.7854 110.95 37.8085Z" fill="#FACF63" stroke="white"/>
<path d="M46.7645 49.2822C46.7645 49.2822 43.1945 31.442 57.9529 28.6983" stroke="#020202" stroke-width="2" stroke-linecap="round" stroke-linejoin="round"/>
<path d="M65.5726 64.752L63.3648 73.9174L59.2183 74.8562" stroke="#020202" stroke-width="2" stroke-linecap="round" stroke-linejoin="round"/>
<path d="M105.127 64.752L106.483 74.0843L110.525 75.4066" stroke="#020202" stroke-width="2" stroke-linecap="round" stroke-linejoin="round"/>
<path d="M80.9337 14.8881C82.087 14.8881 83.0219 13.7725 83.0219 12.3962C83.0219 11.02 82.087 9.9043 80.9337 9.9043C79.7804 9.9043 78.8455 11.02 78.8455 12.3962C78.8455 13.7725 79.7804 14.8881 80.9337 14.8881Z" fill="white"/>
<path d="M81.1002 14.887C81.9563 14.887 82.6503 14.1286 82.6503 13.193C82.6503 12.2575 81.9563 11.499 81.1002 11.499C80.2441 11.499 79.55 12.2575 79.55 13.193C79.55 14.1286 80.2441 14.887 81.1002 14.887Z" fill="#221F20"/>
<path d="M88.535 14.8881C89.6883 14.8881 90.6232 13.7725 90.6232 12.3962C90.6232 11.02 89.6883 9.9043 88.535 9.9043C87.3817 9.9043 86.4468 11.02 86.4468 12.3962C86.4468 13.7725 87.3817 14.8881 88.535 14.8881Z" fill="white"/>
<path d="M88.7013 14.8875C89.5574 14.8875 90.2514 14.1291 90.2514 13.1935C90.2514 12.2579 89.5574 11.4995 88.7013 11.4995C87.8451 11.4995 87.1511 12.2579 87.1511 13.1935C87.1511 14.1291 87.8451 14.8875 88.7013 14.8875Z" fill="#221F20"/>
<path d="M79.5196 21.0151C79.5196 19.1334 81.9964 17.6015 85.0711 17.6015C88.1457 17.6015 90.6226 19.1291 90.6226 21.0151" stroke="#020202" stroke-linecap="round" stroke-linejoin="round"/>
<path d="M167.266 101.56C167.266 101.56 170.76 84.1227 156.331 81.441" stroke="#020202" stroke-width="2" stroke-linecap="round" stroke-linejoin="round"/>
<path d="M160.498 92.1306L159.983 92.6894L160.7 92.9411C163.45 93.9064 165.832 95.7013 167.518 98.0778C169.203 100.454 170.108 103.295 170.107 106.207C170.107 109.935 168.626 113.51 165.988 116.146C163.349 118.782 159.771 120.263 156.04 120.263H116.1C112.369 120.263 108.791 118.782 106.153 116.146C103.515 113.51 102.033 109.935 102.033 106.207C102.033 103.603 102.758 101.05 104.126 98.8338C105.494 96.6172 107.451 94.824 109.78 93.6543L110.414 93.3358L109.901 92.8458C107.635 90.6829 106.391 88.2489 106.391 85.7004C106.391 82.6916 108.112 79.8405 111.207 77.4327L111.59 77.1343L111.303 76.7424C110.112 75.1177 109.455 73.1633 109.425 71.1496C109.427 67.1471 112.172 63.4348 116.8 60.6956C121.418 57.9622 127.83 56.2554 134.937 56.2554C142.044 56.2554 148.455 57.9622 153.072 60.6956C157.699 63.4349 160.443 67.1474 160.445 71.1503C160.419 73.2015 159.747 75.1924 158.523 76.84L158.235 77.2288L158.614 77.5298C161.627 79.9211 163.312 82.7355 163.312 85.7004C163.312 87.9723 162.318 90.1546 160.498 92.1306Z" fill="#6B6B6B" stroke="white"/>
<path d="M97.7706 103.353C97.7706 103.353 94.2812 85.9152 108.706 83.2335" stroke="#020202" stroke-width="2" stroke-linecap="round" stroke-linejoin="round"/>
<path d="M116.154 118.473L113.996 127.432L109.943 128.349" stroke="#020202" stroke-width="2" stroke-linecap="round" stroke-linejoin="round"/>
<path d="M154.815 118.473L156.14 127.595L160.091 128.887" stroke="#020202" stroke-width="2" stroke-linecap="round" stroke-linejoin="round"/>
<path d="M133.1 73.7746C134.227 73.7746 135.141 72.6841 135.141 71.339C135.141 69.9938 134.227 68.9033 133.1 68.9033C131.973 68.9033 131.059 69.9938 131.059 71.339C131.059 72.6841 131.973 73.7746 133.1 73.7746Z" fill="white"/>
<path d="M133.626 73.267C134.463 73.267 135.141 72.5257 135.141 71.6113C135.141 70.6969 134.463 69.9556 133.626 69.9556C132.789 69.9556 132.111 70.6969 132.111 71.6113C132.111 72.5257 132.789 73.267 133.626 73.267Z" fill="#221F20"/>
<path d="M140.529 73.7751C141.657 73.7751 142.57 72.6846 142.57 71.3394C142.57 69.9943 141.657 68.9038 140.529 68.9038C139.402 68.9038 138.488 69.9943 138.488 71.3394C138.488 72.6846 139.402 73.7751 140.529 73.7751Z" fill="white"/>
<path d="M141.055 73.2675C141.892 73.2675 142.57 72.5262 142.57 71.6118C142.57 70.6974 141.892 69.9561 141.055 69.9561C140.218 69.9561 139.54 70.6974 139.54 71.6118C139.54 72.5262 140.218 73.2675 141.055 73.2675Z" fill="#221F20"/>
<path d="M69.5768 100.793C69.5768 100.793 72.9718 83.8482 58.9497 81.2421" stroke="#020202" stroke-width="2" stroke-linecap="round" stroke-linejoin="round"/>
<path d="M62.9886 91.6204L62.4738 92.1793L63.1908 92.431C65.8606 93.3681 68.1733 95.1106 69.8092 97.4176C71.4452 99.7245 72.3237 102.482 72.3234 105.31C72.3234 108.928 70.8848 112.399 68.3238 114.958C65.7629 117.517 62.2894 118.954 58.6675 118.954H19.8542C16.2323 118.954 12.7588 117.517 10.1978 114.958C7.63689 112.399 6.19824 108.928 6.19824 105.31C6.19847 102.782 6.90177 100.303 8.2297 98.1516C9.55763 95.9997 11.4579 94.2589 13.7186 93.1234L14.3527 92.8049L13.8394 92.3149C11.6393 90.2148 10.4329 87.853 10.4329 85.3813C10.4329 82.4633 12.1019 79.6963 15.1073 77.358L15.4908 77.0596L15.2035 76.6677C14.0476 75.0913 13.411 73.1949 13.3817 71.241C13.3833 67.3585 16.0465 63.7548 20.5414 61.0943C25.0266 58.4394 31.2549 56.7812 38.1596 56.7812C45.0643 56.7812 51.2916 58.4394 55.7757 61.0942C60.2698 63.7549 62.9321 67.3588 62.9334 71.2416C62.9083 73.232 62.2559 75.1639 61.0688 76.7626L60.7802 77.1513L61.1594 77.4523C64.0854 79.7746 65.72 82.5059 65.72 85.3813C65.72 87.5847 64.7556 89.7022 62.9886 91.6204Z" fill="#6B6B6B" stroke="white"/>
<path d="M2.04189 102.535C2.04189 102.535 -1.34905 85.5899 12.669 82.9838" stroke="#020202" stroke-width="2" stroke-linecap="round" stroke-linejoin="round"/>
<path d="M19.9064 117.229L17.8094 125.935L13.8708 126.827" stroke="#020202" stroke-width="2" stroke-linecap="round" stroke-linejoin="round"/>
<path d="M57.4768 117.229L58.7642 126.094L62.6043 127.35" stroke="#020202" stroke-width="2" stroke-linecap="round" stroke-linejoin="round"/>
<path d="M28.3453 74.6889C29.4407 74.6889 30.3287 73.6292 30.3287 72.322C30.3287 71.0148 29.4407 69.9551 28.3453 69.9551C27.2498 69.9551 26.3618 71.0148 26.3618 72.322C26.3618 73.6292 27.2498 74.6889 28.3453 74.6889Z" fill="white"/>
<path d="M27.8342 73.1731C28.6474 73.1731 29.3066 72.4527 29.3066 71.5641C29.3066 70.6755 28.6474 69.9551 27.8342 69.9551C27.021 69.9551 26.3618 70.6755 26.3618 71.5641C26.3618 72.4527 27.021 73.1731 27.8342 73.1731Z" fill="#221F20"/>
<path d="M35.5652 74.6894C36.6607 74.6894 37.5487 73.6297 37.5487 72.3225C37.5487 71.0153 36.6607 69.9556 35.5652 69.9556C34.4698 69.9556 33.5818 71.0153 33.5818 72.3225C33.5818 73.6297 34.4698 74.6894 35.5652 74.6894Z" fill="white"/>
<path d="M35.0539 73.1736C35.8671 73.1736 36.5263 72.4532 36.5263 71.5646C36.5263 70.6759 35.8671 69.9556 35.0539 69.9556C34.2408 69.9556 33.5815 70.6759 33.5815 71.5646C33.5815 72.4532 34.2408 73.1736 35.0539 73.1736Z" fill="#221F20"/>
<path d="M36.8804 77.3181C36.8804 79.0608 34.879 80.4736 32.4101 80.4736C29.9411 80.4736 27.9397 79.0608 27.9397 77.3181" stroke="black"/>
<path d="M27.9397 77.3184H36.8804" stroke="black" stroke-linecap="round"/>
</svg>
