<svg width="171" height="94" viewBox="0 0 171 94" fill="none" xmlns="http://www.w3.org/2000/svg">
<path d="M69.5768 45.7935C69.5768 45.7935 72.9718 28.8482 58.9497 26.2421" stroke="#020202" stroke-width="2" stroke-linecap="round" stroke-linejoin="round"/>
<path d="M61.0688 21.7626L60.7802 22.1513L61.1594 22.4523C64.0854 24.7746 65.72 27.5059 65.72 30.3813C65.72 32.5847 64.7556 34.7022 62.9886 36.6205L63.3564 36.9592L63.1908 37.431C65.8606 38.3681 68.1733 40.1106 69.8092 42.4176C71.4452 44.7245 72.3237 47.4822 72.3234 50.3095C72.3234 53.9282 70.8848 57.3988 68.3238 59.9577C65.7629 62.5166 62.2894 63.9543 58.6675 63.9543H19.8542C16.2323 63.9543 12.7588 62.5166 10.1978 59.9577C7.63689 57.3988 6.19824 53.9282 6.19824 50.3096C6.19847 47.7816 6.90177 45.3034 8.2297 43.1516C9.55763 40.9997 11.4579 39.2588 13.7186 38.1234L14.3527 37.8049L13.8394 37.3149C11.6393 35.2148 10.4329 32.853 10.4329 30.3813C10.4329 27.4633 12.1019 24.6963 15.1073 22.358L15.4908 22.0596L15.2035 21.6677C14.0476 20.0913 13.411 18.1949 13.3817 16.241C13.3833 12.3585 16.0465 8.75481 20.5414 6.09427C25.0266 3.43944 31.2549 1.78125 38.1596 1.78125C45.0643 1.78125 51.2916 3.43944 55.7757 6.09424C60.2698 8.75489 62.9321 12.3588 62.9334 16.2416C62.9083 18.232 62.2559 20.1639 61.0688 21.7626Z" fill="#6B6B6B" stroke="white"/>
<path d="M2.04189 47.5352C2.04189 47.5352 -1.34905 30.5899 12.669 27.9838" stroke="#020202" stroke-width="2" stroke-linecap="round" stroke-linejoin="round"/>
<path d="M19.9064 62.2295L17.8094 70.9352L13.8708 71.8268" stroke="#020202" stroke-width="2" stroke-linecap="round" stroke-linejoin="round"/>
<path d="M57.4768 62.2295L58.7642 71.0937L62.6043 72.3496" stroke="#020202" stroke-width="2" stroke-linecap="round" stroke-linejoin="round"/>
<path d="M28.3453 19.6889C29.4407 19.6889 30.3287 18.6292 30.3287 17.322C30.3287 16.0148 29.4407 14.9551 28.3453 14.9551C27.2498 14.9551 26.3618 16.0148 26.3618 17.322C26.3618 18.6292 27.2498 19.6889 28.3453 19.6889Z" fill="white"/>
<path d="M27.8342 18.1731C28.6474 18.1731 29.3066 17.4527 29.3066 16.5641C29.3066 15.6755 28.6474 14.9551 27.8342 14.9551C27.021 14.9551 26.3618 15.6755 26.3618 16.5641C26.3618 17.4527 27.021 18.1731 27.8342 18.1731Z" fill="#221F20"/>
<path d="M35.5652 19.6894C36.6607 19.6894 37.5487 18.6297 37.5487 17.3225C37.5487 16.0153 36.6607 14.9556 35.5652 14.9556C34.4698 14.9556 33.5818 16.0153 33.5818 17.3225C33.5818 18.6297 34.4698 19.6894 35.5652 19.6894Z" fill="white"/>
<path d="M35.0539 18.1736C35.8671 18.1736 36.5263 17.4532 36.5263 16.5646C36.5263 15.6759 35.8671 14.9556 35.0539 14.9556C34.2408 14.9556 33.5815 15.6759 33.5815 16.5646C33.5815 17.4532 34.2408 18.1736 35.0539 18.1736Z" fill="#221F20"/>
<path d="M36.8804 22.3181C36.8804 24.0608 34.879 25.4736 32.4101 25.4736C29.9411 25.4736 27.9397 24.0608 27.9397 22.3181" stroke="black"/>
<path d="M27.9397 22.3184H36.8804" stroke="black" stroke-linecap="round"/>
<path d="M167.266 46.5601C167.266 46.5601 170.76 29.1227 156.331 26.441" stroke="#020202" stroke-width="2" stroke-linecap="round" stroke-linejoin="round"/>
<path d="M158.523 21.84L158.235 22.2288L158.614 22.5298C161.627 24.9211 163.312 27.7355 163.312 30.7004C163.312 32.9723 162.318 35.1546 160.498 37.1306L160.866 37.4693L160.7 37.9411C163.45 38.9064 165.832 40.7013 167.518 43.0778C169.203 45.4542 170.108 48.2948 170.107 51.2073C170.107 54.9349 168.626 58.5099 165.988 61.1459C163.349 63.7818 159.771 65.2628 156.04 65.2628H116.1C112.369 65.2628 108.791 63.7818 106.153 61.1459C103.515 58.5099 102.033 54.9349 102.033 51.2074C102.033 48.6033 102.758 46.0505 104.126 43.8338C105.494 41.6172 107.451 39.824 109.78 38.6543L110.414 38.3358L109.901 37.8458C107.635 35.6829 106.391 33.2489 106.391 30.7004C106.391 27.6916 108.112 24.8405 111.207 22.4327L111.59 22.1343L111.303 21.7424C110.112 20.1177 109.455 18.1633 109.425 16.1496C109.427 12.1471 112.172 8.43482 116.8 5.69565C121.418 2.96219 127.83 1.25537 134.937 1.25537C142.044 1.25537 148.455 2.96219 153.072 5.69562C157.699 8.4349 160.443 12.1474 160.445 16.1503C160.419 18.2015 159.747 20.1924 158.523 21.84Z" fill="#6B6B6B" stroke="white"/>
<path d="M97.7706 48.3525C97.7706 48.3525 94.2812 30.9152 108.706 28.2335" stroke="#020202" stroke-width="2" stroke-linecap="round" stroke-linejoin="round"/>
<path d="M116.154 63.4731L113.996 72.4316L109.943 73.3492" stroke="#020202" stroke-width="2" stroke-linecap="round" stroke-linejoin="round"/>
<path d="M154.815 63.4731L156.14 72.5947L160.091 73.8871" stroke="#020202" stroke-width="2" stroke-linecap="round" stroke-linejoin="round"/>
<path d="M133.1 18.7746C134.227 18.7746 135.141 17.6841 135.141 16.339C135.141 14.9938 134.227 13.9033 133.1 13.9033C131.973 13.9033 131.059 14.9938 131.059 16.339C131.059 17.6841 131.973 18.7746 133.1 18.7746Z" fill="white"/>
<path d="M133.626 18.267C134.463 18.267 135.141 17.5257 135.141 16.6113C135.141 15.6969 134.463 14.9556 133.626 14.9556C132.789 14.9556 132.111 15.6969 132.111 16.6113C132.111 17.5257 132.789 18.267 133.626 18.267Z" fill="#221F20"/>
<path d="M140.529 18.7751C141.657 18.7751 142.57 17.6846 142.57 16.3394C142.57 14.9943 141.657 13.9038 140.529 13.9038C139.402 13.9038 138.488 14.9943 138.488 16.3394C138.488 17.6846 139.402 18.7751 140.529 18.7751Z" fill="white"/>
<path d="M141.055 18.2675C141.892 18.2675 142.57 17.5262 142.57 16.6118C142.57 15.6974 141.892 14.9561 141.055 14.9561C140.218 14.9561 139.54 15.6974 139.54 16.6118C139.54 17.5262 140.218 18.2675 141.055 18.2675Z" fill="#221F20"/>
<path d="M117.866 64.4478C117.866 64.4478 121.441 46.6075 106.678 43.8638" stroke="#020202" stroke-width="2" stroke-linecap="round" stroke-linejoin="round"/>
<path d="M108.93 39.1637L108.642 39.5525L109.021 39.8534C112.105 42.3014 113.832 45.1838 113.832 48.2219C113.832 50.5499 112.813 52.7854 110.95 54.8085L111.317 55.1473L111.152 55.619C113.968 56.6075 116.407 58.4453 118.133 60.8786C119.858 63.3119 120.785 66.2206 120.784 69.2027C120.784 73.0195 119.267 76.6801 116.566 79.3791C113.865 82.0781 110.201 83.5945 106.381 83.5945H65.5176C61.6974 83.5945 58.0338 82.0781 55.3326 79.3791C52.6314 76.6801 51.114 73.0195 51.114 69.2028C51.1143 66.5364 51.8561 63.9225 53.2567 61.6528C54.6573 59.3831 56.6617 57.547 59.0461 56.3493L59.6802 56.0308L59.1669 55.5408C56.847 53.3265 55.5723 50.8334 55.5723 48.2219C55.5723 45.1389 57.3358 42.2189 60.5038 39.754L60.8873 39.4556L60.6 39.0638C59.3798 37.3996 58.7078 35.3976 58.6768 33.335C58.6785 29.2343 61.4911 25.433 66.2276 22.6295C70.9545 19.8316 77.5165 18.085 84.7898 18.085C92.0631 18.085 98.6241 19.8316 103.35 22.6294C108.085 25.4331 110.897 29.2346 110.899 33.3357C110.872 35.4367 110.183 37.4761 108.93 39.1637Z" fill="#FACF63" stroke="white"/>
<path d="M46.7645 66.2822C46.7645 66.2822 43.1945 48.442 57.9529 45.6983" stroke="#020202" stroke-width="2" stroke-linecap="round" stroke-linejoin="round"/>
<path d="M65.5726 81.752L63.3648 90.9174L59.2183 91.8562" stroke="#020202" stroke-width="2" stroke-linecap="round" stroke-linejoin="round"/>
<path d="M105.127 81.752L106.483 91.0843L110.525 92.4066" stroke="#020202" stroke-width="2" stroke-linecap="round" stroke-linejoin="round"/>
<path d="M80.9337 31.8881C82.087 31.8881 83.0219 30.7725 83.0219 29.3962C83.0219 28.02 82.087 26.9043 80.9337 26.9043C79.7804 26.9043 78.8455 28.02 78.8455 29.3962C78.8455 30.7725 79.7804 31.8881 80.9337 31.8881Z" fill="white"/>
<path d="M81.1002 31.887C81.9563 31.887 82.6503 31.1286 82.6503 30.193C82.6503 29.2575 81.9563 28.499 81.1002 28.499C80.2441 28.499 79.55 29.2575 79.55 30.193C79.55 31.1286 80.2441 31.887 81.1002 31.887Z" fill="#221F20"/>
<path d="M88.535 31.8881C89.6883 31.8881 90.6232 30.7725 90.6232 29.3962C90.6232 28.02 89.6883 26.9043 88.535 26.9043C87.3817 26.9043 86.4468 28.02 86.4468 29.3962C86.4468 30.7725 87.3817 31.8881 88.535 31.8881Z" fill="white"/>
<path d="M88.7013 31.8875C89.5574 31.8875 90.2514 31.1291 90.2514 30.1935C90.2514 29.2579 89.5574 28.4995 88.7013 28.4995C87.8451 28.4995 87.1511 29.2579 87.1511 30.1935C87.1511 31.1291 87.8451 31.8875 88.7013 31.8875Z" fill="#221F20"/>
<path d="M79.5196 38.0151C79.5196 36.1334 81.9964 34.6015 85.0711 34.6015C88.1457 34.6015 90.6226 36.1291 90.6226 38.0151" stroke="#020202" stroke-linecap="round" stroke-linejoin="round"/>
</svg>
