<svg width="196" height="139" viewBox="0 0 196 139" fill="none" xmlns="http://www.w3.org/2000/svg">
<path d="M77.3113 36.0884C77.3113 36.0884 80.0162 22.5873 68.8442 20.511" stroke="#020202" stroke-width="2" stroke-linecap="round" stroke-linejoin="round"/>
<path d="M73.964 28.6133L73.4492 29.1722L74.1662 29.4238C76.2735 30.1635 78.0989 31.5388 79.3901 33.3597C80.6814 35.1806 81.3747 37.3572 81.3745 39.5888C81.3745 42.445 80.239 45.1843 78.2177 47.204C76.1963 49.2238 73.4547 50.3585 70.5959 50.3585H39.6717C36.8129 50.3585 34.0713 49.2238 32.0499 47.204C30.0286 45.1843 28.8931 42.445 28.8931 39.5889C28.8932 37.5936 29.4484 35.6375 30.4965 33.9391C31.5446 32.2407 33.0445 30.8666 34.8288 29.9704L35.463 29.6519L34.9496 29.1619C33.2104 27.5018 32.267 25.6449 32.267 23.7111C32.267 21.4283 33.5724 19.2503 35.952 17.3988L36.3356 17.1004L36.0482 16.7085C35.14 15.4698 34.6396 13.9796 34.6164 12.4442C34.6181 9.40154 36.706 6.55821 40.271 4.44807C43.8263 2.34364 48.7701 1.02588 54.2564 1.02588C59.7427 1.02588 64.6856 2.34363 68.2402 4.44805C71.8044 6.55822 73.8916 9.40166 73.8932 12.4446C73.8733 14.0088 73.3605 15.5271 72.4276 16.7836L72.1389 17.1723L72.5182 17.4733C74.8349 19.3121 76.1133 21.4618 76.1133 23.7111C76.1133 25.4351 75.3592 27.0987 73.964 28.6133Z" fill="#A7A7A7" stroke="white"/>
<path d="M25.4798 37.3784C25.4798 37.3784 22.7781 23.8774 33.9469 21.801" stroke="#020202" stroke-width="2" stroke-linecap="round" stroke-linejoin="round"/>
<path d="M39.7131 49.0859L38.0423 56.0221L34.9043 56.7326" stroke="#020202" stroke-width="2" stroke-linecap="round" stroke-linejoin="round"/>
<path d="M69.647 49.0859L70.6727 56.1484L73.7322 57.1491" stroke="#020202" stroke-width="2" stroke-linecap="round" stroke-linejoin="round"/>
<path d="M45.7063 14.2902C46.5791 14.2902 47.2866 13.4459 47.2866 12.4044C47.2866 11.3629 46.5791 10.5186 45.7063 10.5186C44.8335 10.5186 44.126 11.3629 44.126 12.4044C44.126 13.4459 44.8335 14.2902 45.7063 14.2902Z" fill="white"/>
<path d="M45.2991 14.1343C45.947 14.1343 46.4722 13.5603 46.4722 12.8523C46.4722 12.1443 45.947 11.5703 45.2991 11.5703C44.6512 11.5703 44.126 12.1443 44.126 12.8523C44.126 13.5603 44.6512 14.1343 45.2991 14.1343Z" fill="#221F20"/>
<path d="M51.4587 14.2902C52.3315 14.2902 53.039 13.4459 53.039 12.4044C53.039 11.3629 52.3315 10.5186 51.4587 10.5186C50.5859 10.5186 49.8784 11.3629 49.8784 12.4044C49.8784 13.4459 50.5859 14.2902 51.4587 14.2902Z" fill="white"/>
<path d="M51.0513 14.1347C51.6992 14.1347 52.2244 13.5608 52.2244 12.8528C52.2244 12.1448 51.6992 11.5708 51.0513 11.5708C50.4034 11.5708 49.8782 12.1448 49.8782 12.8528C49.8782 13.5608 50.4034 14.1347 51.0513 14.1347Z" fill="#221F20"/>
<path d="M55.095 56.502C55.095 56.502 57.7999 43.0009 46.6279 40.9246" stroke="#020202" stroke-width="2" stroke-linecap="round" stroke-linejoin="round"/>
<path d="M48.235 37.2948L47.9463 37.6836L48.3255 37.9846C50.6423 39.8233 51.9207 41.973 51.9207 44.2224C51.9207 45.9463 51.1665 47.6099 49.7714 49.1245L50.1391 49.4633L49.9735 49.935C52.0809 50.6747 53.9062 52.05 55.1975 53.8709C56.4887 55.6918 57.1821 57.8684 57.1819 60.1C57.1819 62.9562 56.0464 65.6955 54.0251 67.7152C52.0037 69.735 49.2621 70.8698 46.4033 70.8698H15.4791C12.6203 70.8698 9.87865 69.735 7.85729 67.7152C5.83595 65.6955 4.70044 62.9562 4.70044 60.1001C4.70062 58.1048 5.25573 56.1488 6.30385 54.4503C7.35197 52.7519 8.85187 51.3778 10.6362 50.4816L11.2703 50.1631L10.757 49.6731C9.01777 48.013 8.07434 46.1561 8.07434 44.2224C8.07434 41.9395 9.37977 39.7615 11.7594 37.9101L12.1429 37.6117L11.8556 37.2198C10.9473 35.981 10.447 34.4908 10.4238 32.9555C10.4255 29.9128 12.5134 27.0694 16.0784 24.9593C19.6337 22.8549 24.5775 21.5371 30.0638 21.5371C35.55 21.5371 40.493 22.8549 44.0475 24.9593C47.6119 27.0695 49.6991 29.9131 49.7005 32.9561C49.6807 34.5203 49.1679 36.0384 48.235 37.2948Z" fill="#A7A7A7" stroke="white"/>
<path d="M1.28722 57.8896C1.28722 57.8896 -1.41449 44.3886 9.75429 42.3123" stroke="#020202" stroke-width="2" stroke-linecap="round" stroke-linejoin="round"/>
<path d="M45.4543 69.5972L46.48 76.6596L49.5396 77.6603" stroke="#020202" stroke-width="2" stroke-linecap="round" stroke-linejoin="round"/>
<path d="M19.9358 36.9049C20.8086 36.9049 21.5161 36.0606 21.5161 35.0191C21.5161 33.9776 20.8086 33.1333 19.9358 33.1333C19.063 33.1333 18.3555 33.9776 18.3555 35.0191C18.3555 36.0606 19.063 36.9049 19.9358 36.9049Z" fill="white"/>
<path d="M20.062 36.9043C20.7099 36.9043 21.2351 36.3303 21.2351 35.6223C21.2351 34.9143 20.7099 34.3403 20.062 34.3403C19.4141 34.3403 18.8889 34.9143 18.8889 35.6223C18.8889 36.3303 19.4141 36.9043 20.062 36.9043Z" fill="#221F20"/>
<path d="M25.6882 36.9054C26.561 36.9054 27.2685 36.0611 27.2685 35.0196C27.2685 33.9781 26.561 33.1338 25.6882 33.1338C24.8154 33.1338 24.1079 33.9781 24.1079 35.0196C24.1079 36.0611 24.8154 36.9054 25.6882 36.9054Z" fill="white"/>
<path d="M25.8142 36.9048C26.4621 36.9048 26.9873 36.3308 26.9873 35.6228C26.9873 34.9148 26.4621 34.3408 25.8142 34.3408C25.1663 34.3408 24.6411 34.9148 24.6411 35.6228C24.6411 36.3308 25.1663 36.9048 25.8142 36.9048Z" fill="#221F20"/>
<path d="M142.925 38.0942C142.925 38.0942 145.63 24.5932 134.458 22.5169" stroke="#020202" stroke-width="2" stroke-linecap="round" stroke-linejoin="round"/>
<path d="M136.065 18.8871L135.776 19.2759L136.155 19.5768C138.472 21.4156 139.75 23.5653 139.75 25.8146C139.75 27.5386 138.996 29.2022 137.601 30.7168L137.969 31.0555L137.803 31.5273C139.91 32.267 141.736 33.6423 143.027 35.4632C144.318 37.2841 145.012 39.4607 145.012 41.6923C145.012 44.5485 143.876 47.2878 141.855 49.3075C139.833 51.3273 137.092 52.462 134.233 52.462H103.309C100.45 52.462 97.7082 51.3273 95.6869 49.3075C93.6655 47.2878 92.53 44.5485 92.53 41.6924C92.5302 39.6971 93.0853 37.7411 94.1334 36.0426C95.1816 34.3442 96.6815 32.9701 98.4658 32.0739L99.0999 31.7554L98.5866 31.2654C96.8474 29.6053 95.9039 27.7484 95.9039 25.8146C95.9039 23.5318 97.2094 21.3538 99.589 19.5023L99.9725 19.2039L99.6852 18.8121C98.7769 17.5733 98.2766 16.0831 98.2534 14.5477C98.255 11.5051 100.343 8.66173 103.908 6.55159C107.463 4.44715 112.407 3.12939 117.893 3.12939C123.38 3.12939 128.323 4.44715 131.877 6.55156C135.442 8.6618 137.529 11.5054 137.53 14.5484C137.51 16.1125 136.997 17.6307 136.065 18.8871Z" fill="#A7A7A7" stroke="white"/>
<path d="M90.6944 38.1919C90.6944 38.1919 87.9927 24.6909 99.1615 22.6145" stroke="#020202" stroke-width="2" stroke-linecap="round" stroke-linejoin="round"/>
<path d="M103.35 51.1895L101.679 58.1257L98.5413 58.8361" stroke="#020202" stroke-width="2" stroke-linecap="round" stroke-linejoin="round"/>
<path d="M133.284 51.1895L134.31 58.2519L137.369 59.2526" stroke="#020202" stroke-width="2" stroke-linecap="round" stroke-linejoin="round"/>
<path d="M117.758 16.3937C118.631 16.3937 119.338 15.5494 119.338 14.5079C119.338 13.4664 118.631 12.6221 117.758 12.6221C116.885 12.6221 116.177 13.4664 116.177 14.5079C116.177 15.5494 116.885 16.3937 117.758 16.3937Z" fill="white"/>
<path d="M118.402 15.7119C119.05 15.7119 119.575 15.1379 119.575 14.4299C119.575 13.7219 119.05 13.1479 118.402 13.1479C117.754 13.1479 117.229 13.7219 117.229 14.4299C117.229 15.1379 117.754 15.7119 118.402 15.7119Z" fill="#221F20"/>
<path d="M123.51 16.3937C124.383 16.3937 125.091 15.5494 125.091 14.5079C125.091 13.4664 124.383 12.6221 123.51 12.6221C122.637 12.6221 121.93 13.4664 121.93 14.5079C121.93 15.5494 122.637 16.3937 123.51 16.3937Z" fill="white"/>
<path d="M124.155 15.7124C124.803 15.7124 125.328 15.1384 125.328 14.4304C125.328 13.7224 124.803 13.1484 124.155 13.1484C123.507 13.1484 122.982 13.7224 122.982 14.4304C122.982 15.1384 123.507 15.7124 124.155 15.7124Z" fill="#221F20"/>
<path d="M184.954 35.4648C184.954 35.4648 187.659 21.9638 176.487 19.8875" stroke="#020202" stroke-width="2" stroke-linecap="round" stroke-linejoin="round"/>
<path d="M178.093 16.2577L177.805 16.6465L178.184 16.9475C180.501 18.7862 181.779 20.9359 181.779 23.1852C181.779 24.9092 181.025 26.5728 179.63 28.0874L179.998 28.4261L179.832 28.8979C181.939 29.6376 183.765 31.0129 185.056 32.8338C186.347 34.6547 187.041 36.8313 187.04 39.0629C187.04 41.9191 185.905 44.6584 183.883 46.6781C181.862 48.6979 179.12 49.8326 176.262 49.8326H145.337C142.479 49.8326 139.737 48.6979 137.716 46.6781C135.694 44.6584 134.559 41.9191 134.559 39.063C134.559 37.0677 135.114 35.1117 136.162 33.4132C137.21 31.7148 138.71 30.3407 140.495 29.4445L141.129 29.126L140.615 28.636C138.876 26.9759 137.933 25.119 137.933 23.1852C137.933 20.9024 139.238 18.7244 141.618 16.8729L142.001 16.5745L141.714 16.1827C140.806 14.9439 140.305 13.4537 140.282 11.9184C140.284 8.87566 142.372 6.03233 145.937 3.92219C149.492 1.81776 154.436 0.5 159.922 0.5C165.408 0.5 170.351 1.81775 173.906 3.92217C177.47 6.03241 179.558 8.87597 179.559 11.919C179.539 13.4831 179.026 15.0013 178.093 16.2577Z" fill="#A7A7A7" stroke="white"/>
<path d="M145.379 48.5601L143.708 55.4963L140.57 56.2067" stroke="#020202" stroke-width="2" stroke-linecap="round" stroke-linejoin="round"/>
<path d="M175.313 48.5601L176.338 55.6225L179.398 56.6232" stroke="#020202" stroke-width="2" stroke-linecap="round" stroke-linejoin="round"/>
<path d="M161.409 14.2902C162.282 14.2902 162.99 13.4459 162.99 12.4044C162.99 11.3629 162.282 10.5186 161.409 10.5186C160.537 10.5186 159.829 11.3629 159.829 12.4044C159.829 13.4459 160.537 14.2902 161.409 14.2902Z" fill="white"/>
<path d="M162.054 13.6084C162.702 13.6084 163.227 13.0344 163.227 12.3264C163.227 11.6184 162.702 11.0444 162.054 11.0444C161.406 11.0444 160.881 11.6184 160.881 12.3264C160.881 13.0344 161.406 13.6084 162.054 13.6084Z" fill="#221F20"/>
<path d="M167.162 14.2902C168.035 14.2902 168.742 13.4459 168.742 12.4044C168.742 11.3629 168.035 10.5186 167.162 10.5186C166.289 10.5186 165.582 11.3629 165.582 12.4044C165.582 13.4459 166.289 14.2902 167.162 14.2902Z" fill="white"/>
<path d="M167.806 13.6089C168.454 13.6089 168.98 13.0349 168.98 12.3269C168.98 11.6189 168.454 11.0449 167.806 11.0449C167.159 11.0449 166.633 11.6189 166.633 12.3269C166.633 13.0349 167.159 13.6089 167.806 13.6089Z" fill="#221F20"/>
<path d="M193.413 80.6943C193.413 80.6943 196.118 67.1933 184.946 65.117" stroke="#020202" stroke-width="2" stroke-linecap="round" stroke-linejoin="round"/>
<path d="M186.553 61.4872L186.264 61.8759L186.644 62.1769C188.96 64.0157 190.239 66.1654 190.239 68.4147C190.239 70.1387 189.485 71.8023 188.089 73.3169L188.457 73.6556L188.292 74.1274C190.399 74.8671 192.224 76.2424 193.516 78.0633C194.807 79.8842 195.5 82.0608 195.5 84.2924C195.5 87.1486 194.365 89.8879 192.343 91.9076C190.322 93.9274 187.58 95.0621 184.721 95.0621H153.797C150.938 95.0621 148.197 93.9274 146.175 91.9076C144.154 89.8879 143.019 87.1486 143.019 84.2925C143.019 82.2972 143.574 80.3411 144.622 78.6427C145.67 76.9443 147.17 75.5702 148.954 74.674L149.588 74.3555L149.075 73.8655C147.336 72.2054 146.392 70.3485 146.392 68.4147C146.392 66.1319 147.698 63.9539 150.078 62.1024L150.461 61.804L150.174 61.4122C149.265 60.1734 148.765 58.6832 148.742 57.1478C148.744 54.1052 150.831 51.2618 154.396 49.1517C157.952 47.0472 162.896 45.7295 168.382 45.7295C173.868 45.7295 178.811 47.0472 182.366 49.1517C185.93 51.2619 188.017 54.1055 188.019 57.1485C187.999 58.7126 187.486 60.2308 186.553 61.4872Z" fill="#A7A7A7" stroke="white"/>
<path d="M139.605 82.082C139.605 82.082 136.904 68.581 148.072 66.5047" stroke="#020202" stroke-width="2" stroke-linecap="round" stroke-linejoin="round"/>
<path d="M153.839 93.7896L152.168 100.726L149.03 101.436" stroke="#020202" stroke-width="2" stroke-linecap="round" stroke-linejoin="round"/>
<path d="M183.772 93.7896L184.798 100.852L187.858 101.853" stroke="#020202" stroke-width="2" stroke-linecap="round" stroke-linejoin="round"/>
<path d="M166.669 57.942C167.541 57.942 168.249 57.0977 168.249 56.0562C168.249 55.0147 167.541 54.1704 166.669 54.1704C165.796 54.1704 165.088 55.0147 165.088 56.0562C165.088 57.0977 165.796 57.942 166.669 57.942Z" fill="white"/>
<path d="M167.313 57.2602C167.961 57.2602 168.486 56.6863 168.486 55.9783C168.486 55.2702 167.961 54.6963 167.313 54.6963C166.665 54.6963 166.14 55.2702 166.14 55.9783C166.14 56.6863 166.665 57.2602 167.313 57.2602Z" fill="#221F20"/>
<path d="M172.421 57.942C173.294 57.942 174.001 57.0977 174.001 56.0562C174.001 55.0147 173.294 54.1704 172.421 54.1704C171.548 54.1704 170.841 55.0147 170.841 56.0562C170.841 57.0977 171.548 57.942 172.421 57.942Z" fill="white"/>
<path d="M173.066 57.2607C173.714 57.2607 174.239 56.6868 174.239 55.9787C174.239 55.2707 173.714 54.6968 173.066 54.6968C172.418 54.6968 171.893 55.2707 171.893 55.9787C171.893 56.6868 172.418 57.2607 173.066 57.2607Z" fill="#221F20"/>
<path d="M116.1 77.1392C116.1 77.1392 119.199 61.67 106.398 59.2909" stroke="#020202" stroke-width="2" stroke-linecap="round" stroke-linejoin="round"/>
<path d="M108.298 55.1756L108.009 55.5643L108.388 55.8653C111.053 57.9804 112.535 60.4624 112.535 63.0695C112.535 65.0674 111.661 66.9904 110.053 68.7357L110.421 69.0744L110.255 69.5462C112.684 70.3987 114.788 71.9838 116.276 74.0825C117.764 76.1812 118.564 78.6898 118.563 81.2618C118.563 84.5537 117.255 87.7109 114.925 90.0387C112.595 92.3666 109.435 93.6744 106.14 93.6744H70.7082C67.4134 93.6744 64.2535 92.3666 61.9238 90.0387C59.5941 87.7109 58.2854 84.5537 58.2854 81.2619C58.2856 78.9622 58.9254 76.7078 60.1334 74.7502C61.3414 72.7927 63.0701 71.209 65.1266 70.1761L65.7608 69.8576L65.2474 69.3676C63.2449 67.4561 62.1511 65.3107 62.1511 63.0695C62.1511 60.4237 63.6643 57.9092 66.4016 55.7795L66.7851 55.4811L66.4977 55.0892C65.448 53.6575 64.8698 51.9352 64.8431 50.1607C64.8448 46.6381 67.2614 43.3603 71.3577 40.9356C75.4444 38.5167 81.1222 37.0044 87.419 37.0044C93.7158 37.0044 99.3927 38.5167 103.478 40.9356C107.574 43.3604 109.99 46.6384 109.991 50.1613C109.968 51.969 109.376 53.7236 108.298 55.1756Z" fill="#D2D2D2" stroke="white"/>
<path d="M54.4473 78.729C54.4473 78.729 51.3517 63.2598 64.1486 60.8808" stroke="#020202" stroke-width="2" stroke-linecap="round" stroke-linejoin="round"/>
<path d="M70.7556 92.1431L68.8413 100.09L65.2458 100.904" stroke="#020202" stroke-width="2" stroke-linecap="round" stroke-linejoin="round"/>
<path d="M105.053 92.1431L106.229 100.235L109.734 101.382" stroke="#020202" stroke-width="2" stroke-linecap="round" stroke-linejoin="round"/>
<path d="M87.4845 49.7668C88.4845 49.7668 89.2952 48.7994 89.2952 47.606C89.2952 46.4127 88.4845 45.4453 87.4845 45.4453C86.4845 45.4453 85.6738 46.4127 85.6738 47.606C85.6738 48.7994 86.4845 49.7668 87.4845 49.7668Z" fill="white"/>
<path d="M88.0697 49.4348C88.812 49.4348 89.4138 48.7771 89.4138 47.9659C89.4138 47.1547 88.812 46.4971 88.0697 46.4971C87.3274 46.4971 86.7256 47.1547 86.7256 47.9659C86.7256 48.7771 87.3274 49.4348 88.0697 49.4348Z" fill="#221F20"/>
<path d="M94.0756 49.7668C95.0756 49.7668 95.8862 48.7994 95.8862 47.606C95.8862 46.4127 95.0756 45.4453 94.0756 45.4453C93.0756 45.4453 92.2649 46.4127 92.2649 47.606C92.2649 48.7994 93.0756 49.7668 94.0756 49.7668Z" fill="white"/>
<path d="M94.6608 49.4353C95.4031 49.4353 96.0049 48.7776 96.0049 47.9664C96.0049 47.1552 95.4031 46.4976 94.6608 46.4976C93.9184 46.4976 93.3167 47.1552 93.3167 47.9664C93.3167 48.7776 93.9184 49.4353 94.6608 49.4353Z" fill="#221F20"/>
<path d="M95.9298 51.5868C95.8694 53.2174 93.6741 54.4652 91.0099 54.3665C88.3457 54.2678 86.2485 52.8647 86.3091 51.2305" stroke="#020202" stroke-linecap="round" stroke-linejoin="round"/>
<path d="M26.2479 38.6241C26.2131 39.5638 24.7902 40.2772 23.0591 40.213C21.328 40.1489 19.9617 39.3344 19.9966 38.3926" stroke="#020202" stroke-linecap="round" stroke-linejoin="round"/>
<path d="M166.666 61.1357C166.666 60.1954 168.062 59.4299 169.794 59.4299C171.526 59.4299 172.922 60.1933 172.922 61.1357" stroke="#020202" stroke-linecap="round" stroke-linejoin="round"/>
<path d="M72.5768 90.7935C72.5768 90.7935 75.9718 73.8482 61.9497 71.2421" stroke="#020202" stroke-width="2" stroke-linecap="round" stroke-linejoin="round"/>
<path d="M64.0688 66.7626L63.7802 67.1513L64.1594 67.4523C67.0854 69.7746 68.72 72.5059 68.72 75.3813C68.72 77.5847 67.7556 79.7022 65.9886 81.6205L66.3564 81.9592L66.1908 82.431C68.8606 83.3681 71.1733 85.1106 72.8092 87.4176C74.4452 89.7245 75.3237 92.4822 75.3234 95.3095C75.3234 98.9282 73.8848 102.399 71.3238 104.958C68.7629 107.517 65.2894 108.954 61.6675 108.954H22.8542C19.2323 108.954 15.7588 107.517 13.1978 104.958C10.6369 102.399 9.19824 98.9282 9.19824 95.3096C9.19847 92.7816 9.90177 90.3034 11.2297 88.1516C12.5576 85.9997 14.4579 84.2588 16.7186 83.1234L17.3527 82.8049L16.8394 82.3149C14.6393 80.2148 13.4329 77.853 13.4329 75.3813C13.4329 72.4633 15.1019 69.6963 18.1073 67.358L18.4908 67.0596L18.2035 66.6677C17.0476 65.0913 16.411 63.1949 16.3817 61.241C16.3833 57.3585 19.0465 53.7548 23.5414 51.0943C28.0266 48.4394 34.2549 46.7812 41.1596 46.7812C48.0643 46.7812 54.2916 48.4394 58.7757 51.0942C63.2698 53.7549 65.9321 57.3588 65.9334 61.2416C65.9083 63.232 65.2559 65.1639 64.0688 66.7626Z" fill="#6B6B6B" stroke="white"/>
<path d="M5.04189 92.5352C5.04189 92.5352 1.65095 75.5899 15.669 72.9838" stroke="#020202" stroke-width="2" stroke-linecap="round" stroke-linejoin="round"/>
<path d="M22.9064 107.229L20.8094 115.935L16.8708 116.827" stroke="#020202" stroke-width="2" stroke-linecap="round" stroke-linejoin="round"/>
<path d="M60.4768 107.229L61.7642 116.094L65.6043 117.35" stroke="#020202" stroke-width="2" stroke-linecap="round" stroke-linejoin="round"/>
<path d="M31.3453 64.6889C32.4407 64.6889 33.3287 63.6292 33.3287 62.322C33.3287 61.0148 32.4407 59.9551 31.3453 59.9551C30.2498 59.9551 29.3618 61.0148 29.3618 62.322C29.3618 63.6292 30.2498 64.6889 31.3453 64.6889Z" fill="white"/>
<path d="M30.8342 63.1731C31.6474 63.1731 32.3066 62.4527 32.3066 61.5641C32.3066 60.6755 31.6474 59.9551 30.8342 59.9551C30.021 59.9551 29.3618 60.6755 29.3618 61.5641C29.3618 62.4527 30.021 63.1731 30.8342 63.1731Z" fill="#221F20"/>
<path d="M38.5652 64.6894C39.6607 64.6894 40.5487 63.6297 40.5487 62.3225C40.5487 61.0153 39.6607 59.9556 38.5652 59.9556C37.4698 59.9556 36.5818 61.0153 36.5818 62.3225C36.5818 63.6297 37.4698 64.6894 38.5652 64.6894Z" fill="white"/>
<path d="M38.0539 63.1736C38.8671 63.1736 39.5263 62.4532 39.5263 61.5646C39.5263 60.6759 38.8671 59.9556 38.0539 59.9556C37.2408 59.9556 36.5815 60.6759 36.5815 61.5646C36.5815 62.4532 37.2408 63.1736 38.0539 63.1736Z" fill="#221F20"/>
<path d="M39.8804 67.3181C39.8804 69.0608 37.879 70.4736 35.4101 70.4736C32.9411 70.4736 30.9397 69.0608 30.9397 67.3181" stroke="black"/>
<path d="M30.9397 67.3184H39.8804" stroke="black" stroke-linecap="round"/>
<path d="M170.266 91.5601C170.266 91.5601 173.76 74.1227 159.331 71.441" stroke="#020202" stroke-width="2" stroke-linecap="round" stroke-linejoin="round"/>
<path d="M161.523 66.84L161.235 67.2288L161.614 67.5298C164.627 69.9211 166.312 72.7355 166.312 75.7004C166.312 77.9723 165.318 80.1546 163.498 82.1306L163.866 82.4693L163.7 82.9411C166.45 83.9064 168.832 85.7013 170.518 88.0778C172.203 90.4542 173.108 93.2948 173.107 96.2073C173.107 99.9349 171.626 103.51 168.988 106.146C166.349 108.782 162.771 110.263 159.04 110.263H119.1C115.369 110.263 111.791 108.782 109.153 106.146C106.515 103.51 105.033 99.9349 105.033 96.2074C105.033 93.6033 105.758 91.0505 107.126 88.8338C108.494 86.6172 110.451 84.824 112.78 83.6543L113.414 83.3358L112.901 82.8458C110.635 80.6829 109.391 78.2489 109.391 75.7004C109.391 72.6916 111.112 69.8405 114.207 67.4327L114.59 67.1343L114.303 66.7424C113.112 65.1177 112.455 63.1633 112.425 61.1496C112.427 57.1471 115.172 53.4348 119.8 50.6956C124.418 47.9622 130.83 46.2554 137.937 46.2554C145.044 46.2554 151.455 47.9622 156.072 50.6956C160.699 53.4349 163.443 57.1474 163.445 61.1503C163.419 63.2015 162.747 65.1924 161.523 66.84Z" fill="#6B6B6B" stroke="white"/>
<path d="M100.771 93.3525C100.771 93.3525 97.2812 75.9152 111.706 73.2335" stroke="#020202" stroke-width="2" stroke-linecap="round" stroke-linejoin="round"/>
<path d="M119.154 108.473L116.996 117.432L112.943 118.349" stroke="#020202" stroke-width="2" stroke-linecap="round" stroke-linejoin="round"/>
<path d="M157.815 108.473L159.14 117.595L163.091 118.887" stroke="#020202" stroke-width="2" stroke-linecap="round" stroke-linejoin="round"/>
<path d="M136.1 63.7746C137.227 63.7746 138.141 62.6841 138.141 61.339C138.141 59.9938 137.227 58.9033 136.1 58.9033C134.973 58.9033 134.059 59.9938 134.059 61.339C134.059 62.6841 134.973 63.7746 136.1 63.7746Z" fill="white"/>
<path d="M136.626 63.267C137.463 63.267 138.141 62.5257 138.141 61.6113C138.141 60.6969 137.463 59.9556 136.626 59.9556C135.789 59.9556 135.111 60.6969 135.111 61.6113C135.111 62.5257 135.789 63.267 136.626 63.267Z" fill="#221F20"/>
<path d="M143.529 63.7751C144.657 63.7751 145.57 62.6846 145.57 61.3394C145.57 59.9943 144.657 58.9038 143.529 58.9038C142.402 58.9038 141.488 59.9943 141.488 61.3394C141.488 62.6846 142.402 63.7751 143.529 63.7751Z" fill="white"/>
<path d="M144.055 63.2675C144.892 63.2675 145.57 62.5262 145.57 61.6118C145.57 60.6974 144.892 59.9561 144.055 59.9561C143.218 59.9561 142.54 60.6974 142.54 61.6118C142.54 62.5262 143.218 63.2675 144.055 63.2675Z" fill="#221F20"/>
<path d="M120.866 109.448C120.866 109.448 124.441 91.6075 109.678 88.8638" stroke="#020202" stroke-width="2" stroke-linecap="round" stroke-linejoin="round"/>
<path d="M111.93 84.1637L111.642 84.5525L112.021 84.8534C115.105 87.3014 116.832 90.1838 116.832 93.2219C116.832 95.5499 115.813 97.7854 113.95 99.8085L114.317 100.147L114.152 100.619C116.968 101.607 119.407 103.445 121.133 105.879C122.858 108.312 123.785 111.221 123.784 114.203C123.784 118.02 122.267 121.68 119.566 124.379C116.865 127.078 113.201 128.595 109.381 128.595H68.5176C64.6974 128.595 61.0338 127.078 58.3326 124.379C55.6314 121.68 54.114 118.02 54.114 114.203C54.1143 111.536 54.8561 108.922 56.2567 106.653C57.6573 104.383 59.6617 102.547 62.0461 101.349L62.6802 101.031L62.1669 100.541C59.847 98.3265 58.5723 95.8334 58.5723 93.2219C58.5723 90.1389 60.3358 87.2189 63.5038 84.754L63.8873 84.4556L63.6 84.0638C62.3798 82.3996 61.7078 80.3976 61.6768 78.335C61.6785 74.2343 64.4911 70.433 69.2276 67.6295C73.9545 64.8316 80.5165 63.085 87.7898 63.085C95.0631 63.085 101.624 64.8316 106.35 67.6294C111.085 70.4331 113.897 74.2346 113.899 78.3357C113.872 80.4367 113.183 82.4761 111.93 84.1637Z" fill="#FACF63" stroke="white"/>
<path d="M49.7645 111.282C49.7645 111.282 46.1945 93.442 60.9529 90.6983" stroke="#020202" stroke-width="2" stroke-linecap="round" stroke-linejoin="round"/>
<path d="M68.5726 126.752L66.3648 135.917L62.2183 136.856" stroke="#020202" stroke-width="2" stroke-linecap="round" stroke-linejoin="round"/>
<path d="M108.127 126.752L109.483 136.084L113.525 137.407" stroke="#020202" stroke-width="2" stroke-linecap="round" stroke-linejoin="round"/>
<path d="M83.9337 76.8881C85.087 76.8881 86.0219 75.7725 86.0219 74.3962C86.0219 73.02 85.087 71.9043 83.9337 71.9043C82.7804 71.9043 81.8455 73.02 81.8455 74.3962C81.8455 75.7725 82.7804 76.8881 83.9337 76.8881Z" fill="white"/>
<path d="M84.1002 76.887C84.9563 76.887 85.6503 76.1286 85.6503 75.193C85.6503 74.2575 84.9563 73.499 84.1002 73.499C83.2441 73.499 82.55 74.2575 82.55 75.193C82.55 76.1286 83.2441 76.887 84.1002 76.887Z" fill="#221F20"/>
<path d="M91.535 76.8881C92.6883 76.8881 93.6232 75.7725 93.6232 74.3962C93.6232 73.02 92.6883 71.9043 91.535 71.9043C90.3817 71.9043 89.4468 73.02 89.4468 74.3962C89.4468 75.7725 90.3817 76.8881 91.535 76.8881Z" fill="white"/>
<path d="M91.7013 76.8875C92.5574 76.8875 93.2514 76.1291 93.2514 75.1935C93.2514 74.2579 92.5574 73.4995 91.7013 73.4995C90.8451 73.4995 90.1511 74.2579 90.1511 75.1935C90.1511 76.1291 90.8451 76.8875 91.7013 76.8875Z" fill="#221F20"/>
<path d="M82.5196 83.0151C82.5196 81.1334 84.9964 79.6015 88.0711 79.6015C91.1457 79.6015 93.6226 81.1291 93.6226 83.0151" stroke="#020202" stroke-linecap="round" stroke-linejoin="round"/>
</svg>
