<svg width="371" height="188" viewBox="0 0 371 188" fill="none" xmlns="http://www.w3.org/2000/svg">
<path d="M125.412 109.564C125.412 109.564 131.633 78.5134 105.938 73.7381" stroke="#020202" stroke-width="2" stroke-linecap="round" stroke-linejoin="round"/>
<path d="M114.013 93.3763C117.365 89.7373 119.261 85.6452 119.261 81.323C119.261 75.6787 116.05 70.4356 110.557 66.0762C112.849 62.9904 114.107 59.2611 114.155 55.419C114.155 40.2762 93.418 28 67.8428 28C42.2676 28 21.5235 40.2762 21.5235 55.419C21.5787 59.1919 22.8073 62.8541 25.0391 65.8979C19.3978 70.287 16.1201 75.597 16.1201 81.323C16.1201 86.1725 18.4911 90.725 22.6458 94.6908C18.3518 96.8476 14.7421 100.154 12.2196 104.242C9.69705 108.33 8.36103 113.037 8.3606 117.84V117.84C8.3606 124.714 11.0935 131.306 15.9581 136.167C20.8226 141.028 27.4204 143.758 34.3 143.758H105.421C112.301 143.758 118.899 141.028 123.763 136.167C128.628 131.306 131.361 124.714 131.361 117.84C131.361 112.469 129.693 107.23 126.585 102.848C123.477 98.4661 119.085 95.1563 114.013 93.3763V93.3763Z" fill="#6B6B6B"/>
<path d="M1.66057 112.756C1.66057 112.756 -4.553 81.7052 21.1337 76.9299" stroke="#020202" stroke-width="2" stroke-linecap="round" stroke-linejoin="round"/>
<path d="M34.3955 139.682L30.5529 155.634L23.3359 157.268" stroke="#020202" stroke-width="2" stroke-linecap="round" stroke-linejoin="round"/>
<path d="M100.04 140.561L103.301 156.647L97.4538 161.188" stroke="#020202" stroke-width="2" stroke-linecap="round" stroke-linejoin="round"/>
<path d="M61.1311 52.894C63.1383 52.894 64.7656 50.9523 64.7656 48.5569C64.7656 46.1616 63.1383 44.2198 61.1311 44.2198C59.1238 44.2198 57.4966 46.1616 57.4966 48.5569C57.4966 50.9523 59.1238 52.894 61.1311 52.894Z" fill="white"/>
<path d="M59.698 51.8967C61.1881 51.8967 62.396 50.5767 62.396 48.9484C62.396 47.32 61.1881 46 59.698 46C58.2079 46 57 47.32 57 48.9484C57 50.5767 58.2079 51.8967 59.698 51.8967Z" fill="#221F20"/>
<path d="M74.3608 52.8947C76.3681 52.8947 77.9953 50.9529 77.9953 48.5575C77.9953 46.1622 76.3681 44.2204 74.3608 44.2204C72.3535 44.2204 70.7263 46.1622 70.7263 48.5575C70.7263 50.9529 72.3535 52.8947 74.3608 52.8947Z" fill="white"/>
<path d="M72.9275 51.8979C74.4176 51.8979 75.6255 50.5779 75.6255 48.9496C75.6255 47.3212 74.4176 46.0012 72.9275 46.0012C71.4374 46.0012 70.2295 47.3212 70.2295 48.9496C70.2295 50.5779 71.4374 51.8979 72.9275 51.8979Z" fill="#221F20"/>
<path d="M58.6699 63.5586C58.6699 60.2835 62.9808 57.6173 68.3321 57.6173C73.6835 57.6173 77.9944 60.276 77.9944 63.5586" stroke="#020202" stroke-linecap="round" stroke-linejoin="round"/>
<path d="M218.857 67.4331C218.857 67.4331 224 41.762 202.758 37.814" stroke="#020202" stroke-width="2" stroke-linecap="round" stroke-linejoin="round"/>
<path d="M209.434 54.0499C212.205 51.0413 213.772 47.6582 213.772 44.0848C213.772 39.4184 211.118 35.0836 206.577 31.4795C208.471 28.9283 209.512 25.8451 209.551 22.6687C209.551 10.1493 192.407 0 171.262 0C150.118 0 132.968 10.1493 132.968 22.6687C133.014 25.7879 134.029 28.8156 135.874 31.3321C131.21 34.9608 128.501 39.3509 128.501 44.0848C128.501 48.0941 130.461 51.8579 133.896 55.1367C130.346 56.9198 127.361 59.6537 125.276 63.0331C123.19 66.4126 122.086 70.3046 122.085 74.2749V74.2749C122.085 79.958 124.345 85.4084 128.367 89.427C132.388 93.4456 137.843 95.7032 143.531 95.7032H202.331C208.018 95.7032 213.473 93.4456 217.495 89.427C221.517 85.4084 223.776 79.958 223.776 74.2749C223.776 69.8346 222.397 65.5038 219.828 61.8808C217.258 58.2578 213.627 55.5215 209.434 54.0499V54.0499Z" fill="#A7A7A7"/>
<path d="M116.546 70.072C116.546 70.072 111.409 44.4009 132.646 40.453" stroke="#020202" stroke-width="2" stroke-linecap="round" stroke-linejoin="round"/>
<path d="M143.61 92.3328L140.433 105.521L134.466 106.872" stroke="#020202" stroke-width="2" stroke-linecap="round" stroke-linejoin="round"/>
<path d="M200.526 92.3328L202.477 105.761L208.294 107.664" stroke="#020202" stroke-width="2" stroke-linecap="round" stroke-linejoin="round"/>
<path d="M165.713 20.5811C167.373 20.5811 168.718 18.9757 168.718 16.9954C168.718 15.015 167.373 13.4097 165.713 13.4097C164.054 13.4097 162.708 15.015 162.708 16.9954C162.708 18.9757 164.054 20.5811 165.713 20.5811Z" fill="white"/>
<path d="M165.231 19.8751C166.462 19.8751 167.461 18.7838 167.461 17.4376C167.461 16.0913 166.462 15 165.231 15C163.999 15 163 16.0913 163 17.4376C163 18.7838 163.999 19.8751 165.231 19.8751Z" fill="#221F20"/>
<path d="M176.651 20.5816C178.311 20.5816 179.656 18.9762 179.656 16.9959C179.656 15.0155 178.311 13.4102 176.651 13.4102C174.992 13.4102 173.646 15.0155 173.646 16.9959C173.646 18.9762 174.992 20.5816 176.651 20.5816Z" fill="white"/>
<path d="M176.168 19.8761C177.4 19.8761 178.399 18.7848 178.399 17.4385C178.399 16.0923 177.4 15.001 176.168 15.001C174.936 15.001 173.938 16.0923 173.938 17.4385C173.938 18.7848 174.936 19.8761 176.168 19.8761Z" fill="#221F20"/>
<path d="M167 24.5H175.5" stroke="black" stroke-linecap="round"/>
<path d="M364.223 134.407C364.223 134.407 370.585 102.655 344.31 97.7717" stroke="#020202" stroke-width="2" stroke-linecap="round" stroke-linejoin="round"/>
<path d="M352.567 117.854C355.995 114.132 357.933 109.948 357.933 105.528C357.933 99.7562 354.65 94.3945 349.033 89.9366C351.376 86.7811 352.663 82.9675 352.712 79.0386C352.712 63.5536 331.506 51 305.353 51C279.2 51 257.987 63.5536 257.987 79.0386C258.044 82.8967 259.3 86.6417 261.582 89.7543C255.814 94.2426 252.462 99.6726 252.462 105.528C252.462 110.487 254.886 115.142 259.135 119.198C254.744 121.403 251.053 124.785 248.473 128.965C245.894 133.145 244.527 137.959 244.527 142.87V142.87C244.527 149.899 247.322 156.641 252.296 161.611C257.271 166.582 264.017 169.374 271.052 169.374H343.781C350.816 169.374 357.563 166.582 362.538 161.611C367.512 156.641 370.307 149.899 370.307 142.87C370.307 137.378 368.601 132.021 365.423 127.54C362.245 123.058 357.753 119.674 352.567 117.854V117.854Z" fill="#6B6B6B"/>
<path d="M237.675 137.671C237.675 137.671 231.322 105.919 257.589 101.036" stroke="#020202" stroke-width="2" stroke-linecap="round" stroke-linejoin="round"/>
<path d="M281.724 165L276.209 180.847L281.514 186.243" stroke="#020202" stroke-width="2" stroke-linecap="round" stroke-linejoin="round"/>
<path d="M341.55 165.205L343.962 181.815L351.158 184.169" stroke="#020202" stroke-width="2" stroke-linecap="round" stroke-linejoin="round"/>
<path d="M298.49 76.4565C300.543 76.4565 302.207 74.4708 302.207 72.0213C302.207 69.5719 300.543 67.5862 298.49 67.5862C296.437 67.5862 294.773 69.5719 294.773 72.0213C294.773 74.4708 296.437 76.4565 298.49 76.4565Z" fill="white"/>
<path d="M299.759 75.03C301.283 75.03 302.518 73.6801 302.518 72.015C302.518 70.3499 301.283 69 299.759 69C298.235 69 297 70.3499 297 72.015C297 73.6801 298.235 75.03 299.759 75.03Z" fill="#221F20"/>
<path d="M312.019 76.4573C314.071 76.4573 315.735 74.4716 315.735 72.0221C315.735 69.5727 314.071 67.587 312.019 67.587C309.966 67.587 308.302 69.5727 308.302 72.0221C308.302 74.4716 309.966 76.4573 312.019 76.4573Z" fill="white"/>
<path d="M313.287 75.0309C314.811 75.0309 316.046 73.6811 316.046 72.016C316.046 70.3508 314.811 69.001 313.287 69.001C311.764 69.001 310.528 70.3508 310.528 72.016C310.528 73.6811 311.764 75.0309 313.287 75.0309Z" fill="#221F20"/>
<path d="M295.973 87.3622C295.973 84.0131 300.381 81.2867 305.854 81.2867C311.326 81.2867 315.734 84.0055 315.734 87.3622" stroke="#020202" stroke-linecap="round" stroke-linejoin="round"/>
</svg>
