<svg width="359" height="230" viewBox="0 0 359 230" fill="none" xmlns="http://www.w3.org/2000/svg">
<path d="M254.744 99.4829C254.744 99.4829 262.331 61.6108 230.993 55.7864" stroke="#020202" stroke-width="2" stroke-linecap="round" stroke-linejoin="round"/>
<path d="M240.474 79.4002L239.959 79.9591L240.676 80.2107C246.764 82.3475 252.037 86.3206 255.767 91.581C259.497 96.8414 261.501 103.129 261.5 109.576C261.5 117.828 258.22 125.742 252.38 131.577C246.541 137.411 238.62 140.689 230.362 140.689H143.616C135.357 140.689 127.437 137.411 121.598 131.577C115.758 125.742 112.478 117.828 112.478 109.577C112.478 103.812 114.082 98.1611 117.11 93.2543C120.138 88.3476 124.471 84.3781 129.626 81.789L130.26 81.4705L129.746 80.9805C124.746 76.2077 121.942 70.7776 121.942 65.0375C121.942 58.2605 125.82 51.9148 132.627 46.6184L133.011 46.32L132.724 45.9281C130.064 42.3003 128.599 37.9357 128.532 33.4391C128.534 24.4537 134.692 16.2302 144.837 10.2255C154.972 4.2266 169.005 0.5 184.528 0.5C200.051 0.5 214.081 4.2266 224.214 10.2255C234.356 16.2302 240.512 24.4537 240.514 33.4391C240.457 38.019 238.956 42.4645 236.225 46.1431L235.936 46.5318L236.315 46.8328C242.943 52.0932 246.742 58.3582 246.742 65.0375C246.742 70.154 244.5 75.0294 240.474 79.4002Z" fill="#6B6B6B" stroke="white"/>
<path d="M103.806 103.376C103.806 103.376 96.2271 65.5038 127.557 59.6795" stroke="#020202" stroke-width="2" stroke-linecap="round" stroke-linejoin="round"/>
<path d="M143.732 136.217L139.045 155.674L130.243 157.667" stroke="#020202" stroke-width="2" stroke-linecap="round" stroke-linejoin="round"/>
<path d="M227.7 136.217L230.577 156.028L239.16 158.835" stroke="#020202" stroke-width="2" stroke-linecap="round" stroke-linejoin="round"/>
<path d="M175.433 45.5799C177.881 45.5799 179.866 43.2115 179.866 40.29C179.866 37.3684 177.881 35 175.433 35C172.985 35 171 37.3684 171 40.29C171 43.2115 172.985 45.5799 175.433 45.5799Z" fill="white"/>
<path d="M175.787 45.5784C177.604 45.5784 179.077 43.9684 179.077 41.9823C179.077 39.9963 177.604 38.3862 175.787 38.3862C173.969 38.3862 172.496 39.9963 172.496 41.9823C172.496 43.9684 173.969 45.5784 175.787 45.5784Z" fill="#221F20"/>
<path d="M191.569 45.5809C194.017 45.5809 196.002 43.2125 196.002 40.2909C196.002 37.3694 194.017 35.001 191.569 35.001C189.121 35.001 187.136 37.3694 187.136 40.2909C187.136 43.2125 189.121 45.5809 191.569 45.5809Z" fill="white"/>
<path d="M191.923 45.5799C193.74 45.5799 195.213 43.9698 195.213 41.9838C195.213 39.9977 193.74 38.3877 191.923 38.3877C190.105 38.3877 188.632 39.9977 188.632 41.9838C188.632 43.9698 190.105 45.5799 191.923 45.5799Z" fill="#221F20"/>
<path d="M146.063 162.103C146.063 162.103 153.317 125.898 123.358 120.33" stroke="#020202" stroke-width="2" stroke-linecap="round" stroke-linejoin="round"/>
<path d="M132.405 142.89L131.89 143.449L132.607 143.7C138.423 145.741 143.46 149.537 147.023 154.562C150.587 159.587 152.5 165.594 152.5 171.752C152.5 179.635 149.366 187.194 143.788 192.768C138.21 198.342 130.644 201.474 122.755 201.474H39.8275C31.9384 201.474 24.3726 198.342 18.7943 192.768C13.216 187.194 10.0823 179.635 10.0823 171.752C10.0828 166.246 11.6148 160.848 14.5073 156.16C17.3998 151.473 21.5391 147.681 26.4632 145.208L27.0973 144.889L26.584 144.399C21.8069 139.84 19.1298 134.654 19.1298 129.174C19.1298 122.705 22.8319 116.644 29.3364 111.583L29.7199 111.285L29.4325 110.893C26.8924 107.429 25.4937 103.261 25.4302 98.9667C25.4319 90.388 31.3116 82.5325 41.0062 76.7943C50.691 71.0618 64.1018 67.5 78.9382 67.5C93.7746 67.5 107.183 71.0618 116.866 76.7943C126.558 82.5326 132.436 90.3883 132.438 98.9674C132.383 103.341 130.95 107.586 128.342 111.098L128.053 111.487L128.432 111.788C134.765 116.814 138.391 122.798 138.391 129.174C138.391 134.059 136.251 138.714 132.405 142.89Z" fill="#A7A7A7" stroke="white"/>
<path d="M1.77022 165.825C1.77022 165.825 -5.47476 129.62 24.4758 124.052" stroke="#020202" stroke-width="2" stroke-linecap="round" stroke-linejoin="round"/>
<path d="M39.9388 197.22L35.4584 215.821L27.0435 217.726" stroke="#020202" stroke-width="2" stroke-linecap="round" stroke-linejoin="round"/>
<path d="M120.21 197.22L122.961 216.159L131.166 218.843" stroke="#020202" stroke-width="2" stroke-linecap="round" stroke-linejoin="round"/>
<path d="M71.1127 96.0261C73.4531 96.0261 75.3505 93.762 75.3505 90.9691C75.3505 88.1761 73.4531 85.912 71.1127 85.912C68.7722 85.912 66.8749 88.1761 66.8749 90.9691C66.8749 93.762 68.7722 96.0261 71.1127 96.0261Z" fill="white"/>
<path d="M72.1458 93.8755C73.8833 93.8755 75.2917 92.3364 75.2917 90.4378C75.2917 88.5391 73.8833 87 72.1458 87C70.4084 87 69 88.5391 69 90.4378C69 92.3364 70.4084 93.8755 72.1458 93.8755Z" fill="#221F20"/>
<path d="M86.5385 96.027C88.8789 96.027 90.7762 93.7629 90.7762 90.9699C90.7762 88.177 88.8789 85.9128 86.5385 85.9128C84.198 85.9128 82.3007 88.177 82.3007 90.9699C82.3007 93.7629 84.198 96.027 86.5385 96.027Z" fill="white"/>
<path d="M87.5714 93.8768C89.3088 93.8768 90.7172 92.3376 90.7172 90.439C90.7172 88.5404 89.3088 87.0012 87.5714 87.0012C85.834 87.0012 84.4255 88.5404 84.4255 90.439C84.4255 92.3376 85.834 93.8768 87.5714 93.8768Z" fill="#221F20"/>
<path d="M90.775 101.534C90.775 105.353 85.7486 108.461 79.5089 108.461C73.2692 108.461 68.2428 105.361 68.2428 101.534" stroke="#020202" stroke-linecap="round" stroke-linejoin="round"/>
<path d="M351.406 172.394C351.406 172.394 358.377 137.601 329.586 132.25" stroke="#020202" stroke-width="2" stroke-linecap="round" stroke-linejoin="round"/>
<path d="M338.266 153.917L337.751 154.476L338.468 154.727C344.053 156.688 348.891 160.332 352.313 165.158C355.735 169.984 357.573 175.753 357.572 181.667C357.572 189.237 354.563 196.497 349.206 201.85C343.849 207.202 336.583 210.21 329.006 210.21H249.313C241.737 210.21 234.471 207.202 229.114 201.85C223.757 196.497 220.748 189.237 220.748 181.667C220.748 176.379 222.219 171.195 224.997 166.693C227.775 162.192 231.75 158.55 236.479 156.175L237.113 155.857L236.6 155.367C232.012 150.987 229.442 146.009 229.442 140.75C229.442 134.54 232.995 128.721 239.243 123.86L239.627 123.562L239.34 123.17C236.901 119.844 235.558 115.842 235.497 111.72C235.499 103.485 241.143 95.9417 250.456 90.4291C259.76 84.9222 272.644 81.5 286.899 81.5C301.154 81.5 314.036 84.9222 323.337 90.4291C332.649 95.9418 338.291 103.486 338.292 111.721C338.24 115.919 336.864 119.995 334.36 123.367L334.071 123.756L334.45 124.057C340.534 128.885 344.014 134.63 344.014 140.75C344.014 145.437 341.96 149.907 338.266 153.917Z" fill="#D2D2D2" stroke="white"/>
<path d="M212.74 175.971C212.74 175.971 205.778 141.178 234.56 135.827" stroke="#020202" stroke-width="2" stroke-linecap="round" stroke-linejoin="round"/>
<path d="M249.42 206.142L245.115 224.017L237.028 225.847" stroke="#020202" stroke-width="2" stroke-linecap="round" stroke-linejoin="round"/>
<path d="M326.561 206.142L329.205 224.342L337.089 226.921" stroke="#020202" stroke-width="2" stroke-linecap="round" stroke-linejoin="round"/>
<path d="M279.378 108.894C281.627 108.894 283.451 106.718 283.451 104.034C283.451 101.35 281.627 99.1744 279.378 99.1744C277.129 99.1744 275.306 101.35 275.306 104.034C275.306 106.718 277.129 108.894 279.378 108.894Z" fill="white"/>
<path d="M278.023 107.607C279.693 107.607 281.046 106.128 281.046 104.304C281.046 102.479 279.693 101 278.023 101C276.354 101 275 102.479 275 104.304C275 106.128 276.354 107.607 278.023 107.607Z" fill="#221F20"/>
<path d="M294.203 108.895C296.452 108.895 298.275 106.719 298.275 104.035C298.275 101.351 296.452 99.1753 294.203 99.1753C291.953 99.1753 290.13 101.351 290.13 104.035C290.13 106.719 291.953 108.895 294.203 108.895Z" fill="white"/>
<path d="M292.847 107.609C294.517 107.609 295.87 106.13 295.87 104.305C295.87 102.481 294.517 101.001 292.847 101.001C291.177 101.001 289.824 102.481 289.824 104.305C289.824 106.13 291.177 107.609 292.847 107.609Z" fill="#221F20"/>
<path d="M193.833 50C193.833 53.866 189.393 57 183.917 57C178.44 57 174 53.866 174 50" stroke="black"/>
<path d="M174 50H193.833" stroke="black" stroke-linecap="round"/>
<path d="M295.833 116C295.833 119.866 291.393 123 285.917 123C280.44 123 276 119.866 276 116" stroke="black"/>
<path d="M276 116H295.833" stroke="black" stroke-linecap="round"/>
</svg>
