<svg width="352" height="304" viewBox="0 0 352 304" fill="none" xmlns="http://www.w3.org/2000/svg">
<path d="M255.744 99.4829C255.744 99.4829 263.331 61.6108 231.993 55.7864" stroke="#020202" stroke-width="2" stroke-linecap="round" stroke-linejoin="round"/>
<path d="M241.474 79.4002L240.959 79.9591L241.676 80.2107C247.764 82.3475 253.037 86.3206 256.767 91.581C260.497 96.8414 262.501 103.129 262.5 109.576C262.5 117.828 259.22 125.742 253.38 131.577C247.541 137.411 239.62 140.689 231.362 140.689H144.616C136.357 140.689 128.437 137.411 122.598 131.577C116.758 125.742 113.478 117.828 113.478 109.577C113.478 103.812 115.082 98.1611 118.11 93.2543C121.138 88.3476 125.471 84.3781 130.626 81.789L131.26 81.4705L130.746 80.9805C125.746 76.2077 122.942 70.7776 122.942 65.0375C122.942 58.2605 126.82 51.9148 133.627 46.6184L134.011 46.32L133.724 45.9281C131.064 42.3003 129.599 37.9357 129.532 33.4391C129.534 24.4537 135.692 16.2302 145.837 10.2255C155.972 4.2266 170.005 0.5 185.528 0.5C201.051 0.5 215.081 4.2266 225.214 10.2255C235.356 16.2302 241.512 24.4537 241.514 33.4391C241.457 38.019 239.956 42.4645 237.225 46.1431L236.936 46.5318L237.315 46.8328C243.943 52.0932 247.742 58.3582 247.742 65.0375C247.742 70.154 245.5 75.0294 241.474 79.4002Z" fill="#6B6B6B" stroke="white"/>
<path d="M104.806 103.376C104.806 103.376 97.2271 65.5038 128.557 59.6795" stroke="#020202" stroke-width="2" stroke-linecap="round" stroke-linejoin="round"/>
<path d="M144.732 136.217L140.045 155.674L131.243 157.667" stroke="#020202" stroke-width="2" stroke-linecap="round" stroke-linejoin="round"/>
<path d="M228.7 136.217L231.577 156.028L240.16 158.835" stroke="#020202" stroke-width="2" stroke-linecap="round" stroke-linejoin="round"/>
<path d="M177.433 42.5799C179.881 42.5799 181.866 40.2115 181.866 37.29C181.866 34.3684 179.881 32 177.433 32C174.985 32 173 34.3684 173 37.29C173 40.2115 174.985 42.5799 177.433 42.5799Z" fill="white"/>
<path d="M177.291 42.1922C179.108 42.1922 180.581 40.5822 180.581 38.5961C180.581 36.61 179.108 35 177.291 35C175.473 35 174 36.61 174 38.5961C174 40.5822 175.473 42.1922 177.291 42.1922Z" fill="#221F20"/>
<path d="M193.569 42.5809C196.017 42.5809 198.002 40.2125 198.002 37.2909C198.002 34.3694 196.017 32.001 193.569 32.001C191.121 32.001 189.136 34.3694 189.136 37.2909C189.136 40.2125 191.121 42.5809 193.569 42.5809Z" fill="white"/>
<path d="M193.427 42.1936C195.244 42.1936 196.717 40.5836 196.717 38.5976C196.717 36.6115 195.244 35.0015 193.427 35.0015C191.609 35.0015 190.136 36.6115 190.136 38.5976C190.136 40.5836 191.609 42.1936 193.427 42.1936Z" fill="#221F20"/>
<path d="M196.532 49C196.532 52.8188 191.506 55.9275 185.266 55.9275C179.026 55.9275 174 52.8274 174 49" stroke="#020202" stroke-linecap="round" stroke-linejoin="round"/>
<path d="M146.063 253.103C146.063 253.103 153.317 216.898 123.358 211.33" stroke="#020202" stroke-width="2" stroke-linecap="round" stroke-linejoin="round"/>
<path d="M132.405 233.89L131.89 234.449L132.607 234.7C138.423 236.741 143.46 240.537 147.023 245.562C150.587 250.587 152.5 256.594 152.5 262.752C152.5 270.635 149.366 278.194 143.788 283.768C138.21 289.342 130.644 292.474 122.755 292.474H39.8275C31.9385 292.474 24.3726 289.342 18.7944 283.768C13.2161 278.194 10.0823 270.635 10.0823 262.752C10.0828 257.246 11.6148 251.848 14.5074 247.16C17.3999 242.473 21.5392 238.681 26.4633 236.208L27.0974 235.889L26.5841 235.399C21.8069 230.84 19.1299 225.654 19.1299 220.174C19.1299 213.705 22.832 207.644 29.3364 202.583L29.7199 202.285L29.4326 201.893C26.8925 198.429 25.4938 194.261 25.4302 189.967C25.4319 181.388 31.3117 173.533 41.0062 167.794C50.6911 162.062 64.1019 158.5 78.9383 158.5C93.7746 158.5 107.183 162.062 116.866 167.794C126.558 173.533 132.436 181.388 132.438 189.967C132.383 194.341 130.95 198.586 128.342 202.098L128.053 202.487L128.432 202.788C134.765 207.814 138.391 213.798 138.391 220.174C138.391 225.059 136.251 229.714 132.405 233.89Z" fill="#A7A7A7" stroke="white"/>
<path d="M1.77022 256.825C1.77022 256.825 -5.47476 220.62 24.4758 215.052" stroke="#020202" stroke-width="2" stroke-linecap="round" stroke-linejoin="round"/>
<path d="M39.9388 288.22L35.4584 306.821L27.0435 308.726" stroke="#020202" stroke-width="2" stroke-linecap="round" stroke-linejoin="round"/>
<path d="M120.21 288.22L122.961 307.159L131.166 309.843" stroke="#020202" stroke-width="2" stroke-linecap="round" stroke-linejoin="round"/>
<path d="M71.1127 187.026C73.4531 187.026 75.3505 184.762 75.3505 181.969C75.3505 179.176 73.4531 176.912 71.1127 176.912C68.7722 176.912 66.8749 179.176 66.8749 181.969C66.8749 184.762 68.7722 187.026 71.1127 187.026Z" fill="white"/>
<path d="M71.1458 186.876C72.8833 186.876 74.2917 185.336 74.2917 183.438C74.2917 181.539 72.8833 180 71.1458 180C69.4084 180 68 181.539 68 183.438C68 185.336 69.4084 186.876 71.1458 186.876Z" fill="#221F20"/>
<path d="M86.5385 187.027C88.8789 187.027 90.7762 184.763 90.7762 181.97C90.7762 179.177 88.8789 176.913 86.5385 176.913C84.198 176.913 82.3007 179.177 82.3007 181.97C82.3007 184.763 84.198 187.027 86.5385 187.027Z" fill="white"/>
<path d="M86.5714 186.877C88.3088 186.877 89.7172 185.337 89.7172 183.439C89.7172 181.54 88.3088 180.001 86.5714 180.001C84.834 180.001 83.4255 181.54 83.4255 183.439C83.4255 185.337 84.834 186.877 86.5714 186.877Z" fill="#221F20"/>
<path d="M90.775 192.534C90.775 196.353 85.7486 199.462 79.5089 199.462C73.2692 199.462 68.2428 196.362 68.2428 192.534" stroke="#020202" stroke-linecap="round" stroke-linejoin="round"/>
<path d="M344.406 243.394C344.406 243.394 351.377 208.601 322.586 203.25" stroke="#020202" stroke-width="2" stroke-linecap="round" stroke-linejoin="round"/>
<path d="M331.266 224.917L330.751 225.476L331.468 225.727C337.053 227.688 341.891 231.332 345.313 236.158C348.735 240.984 350.573 246.753 350.572 252.667C350.572 260.237 347.563 267.497 342.206 272.85C336.849 278.202 329.583 281.21 322.006 281.21H242.313C234.737 281.21 227.471 278.202 222.114 272.85C216.757 267.497 213.748 260.237 213.748 252.667C213.748 247.379 215.219 242.195 217.997 237.693C220.775 233.192 224.75 229.55 229.479 227.175L230.113 226.857L229.6 226.367C225.012 221.987 222.442 217.009 222.442 211.75C222.442 205.54 225.995 199.721 232.243 194.86L232.627 194.562L232.34 194.17C229.901 190.844 228.558 186.842 228.497 182.72C228.499 174.485 234.143 166.942 243.456 161.429C252.76 155.922 265.644 152.5 279.899 152.5C294.154 152.5 307.036 155.922 316.337 161.429C325.649 166.942 331.291 174.486 331.292 182.721C331.24 186.919 329.864 190.995 327.36 194.367L327.071 194.756L327.45 195.057C333.534 199.885 337.014 205.63 337.014 211.75C337.014 216.437 334.96 220.907 331.266 224.917Z" fill="#D2D2D2" stroke="white"/>
<path d="M205.74 246.971C205.74 246.971 198.778 212.178 227.56 206.827" stroke="#020202" stroke-width="2" stroke-linecap="round" stroke-linejoin="round"/>
<path d="M242.42 277.142L238.115 295.017L230.028 296.847" stroke="#020202" stroke-width="2" stroke-linecap="round" stroke-linejoin="round"/>
<path d="M319.561 277.142L322.205 295.342L330.089 297.921" stroke="#020202" stroke-width="2" stroke-linecap="round" stroke-linejoin="round"/>
<path d="M272.378 179.894C274.627 179.894 276.451 177.718 276.451 175.034C276.451 172.35 274.627 170.174 272.378 170.174C270.129 170.174 268.306 172.35 268.306 175.034C268.306 177.718 270.129 179.894 272.378 179.894Z" fill="white"/>
<path d="M272.023 179.607C273.693 179.607 275.046 178.128 275.046 176.304C275.046 174.479 273.693 173 272.023 173C270.354 173 269 174.479 269 176.304C269 178.128 270.354 179.607 272.023 179.607Z" fill="#221F20"/>
<path d="M287.203 179.895C289.452 179.895 291.275 177.719 291.275 175.035C291.275 172.351 289.452 170.175 287.203 170.175C284.953 170.175 283.13 172.351 283.13 175.035C283.13 177.719 284.953 179.895 287.203 179.895Z" fill="white"/>
<path d="M286.847 179.609C288.517 179.609 289.87 178.13 289.87 176.305C289.87 174.481 288.517 173.001 286.847 173.001C285.177 173.001 283.824 174.481 283.824 176.305C283.824 178.13 285.177 179.609 286.847 179.609Z" fill="#221F20"/>
</svg>
