<svg width="359" height="228" viewBox="0 0 359 228" fill="none" xmlns="http://www.w3.org/2000/svg">
<path d="M237.412 81.564C237.412 81.564 243.633 50.5134 217.938 45.7381" stroke="#020202" stroke-width="2" stroke-linecap="round" stroke-linejoin="round"/>
<path d="M226.013 65.3763C229.365 61.7373 231.261 57.6452 231.261 53.323C231.261 47.6787 228.05 42.4356 222.557 38.0762C224.849 34.9904 226.107 31.2611 226.155 27.419C226.155 12.2762 205.418 0 179.843 0C154.268 0 133.524 12.2762 133.524 27.419C133.579 31.1919 134.807 34.8541 137.039 37.8979C131.398 42.287 128.12 47.597 128.12 53.323C128.12 58.1725 130.491 62.725 134.646 66.6908C130.352 68.8476 126.742 72.1544 124.22 76.242C121.697 80.3297 120.361 85.0373 120.361 89.8395C120.361 96.7136 123.093 103.306 127.958 108.167C132.823 113.028 139.42 115.758 146.3 115.758H217.421C224.301 115.758 230.899 113.028 235.763 108.167C240.628 103.306 243.361 96.7136 243.361 89.8395C243.361 84.4688 241.693 79.2304 238.585 74.8483C235.478 70.4661 231.085 67.1563 226.013 65.3763Z" fill="#6B6B6B"/>
<path d="M113.661 84.7557C113.661 84.7557 107.447 53.7052 133.134 48.9299" stroke="#020202" stroke-width="2" stroke-linecap="round" stroke-linejoin="round"/>
<path d="M146.395 111.682L142.553 127.634L135.336 129.268" stroke="#020202" stroke-width="2" stroke-linecap="round" stroke-linejoin="round"/>
<path d="M215.239 111.682L217.598 127.924L224.635 130.226" stroke="#020202" stroke-width="2" stroke-linecap="round" stroke-linejoin="round"/>
<path d="M173.131 24.894C175.138 24.894 176.766 22.9522 176.766 20.5569C176.766 18.1615 175.138 16.2197 173.131 16.2197C171.124 16.2197 169.497 18.1615 169.497 20.5569C169.497 22.9522 171.124 24.894 173.131 24.894Z" fill="white"/>
<path d="M173.421 24.8926C174.911 24.8926 176.119 23.5725 176.119 21.9442C176.119 20.3159 174.911 18.9958 173.421 18.9958C171.931 18.9958 170.723 20.3159 170.723 21.9442C170.723 23.5725 171.931 24.8926 173.421 24.8926Z" fill="#221F20"/>
<path d="M186.361 24.8947C188.368 24.8947 189.995 22.9529 189.995 20.5576C189.995 18.1623 188.368 16.2205 186.361 16.2205C184.354 16.2205 182.726 18.1623 182.726 20.5576C182.726 22.9529 184.354 24.8947 186.361 24.8947Z" fill="white"/>
<path d="M186.651 24.8937C188.141 24.8937 189.349 23.5736 189.349 21.9453C189.349 20.317 188.141 18.9969 186.651 18.9969C185.161 18.9969 183.953 20.317 183.953 21.9453C183.953 23.5736 185.161 24.8937 186.651 24.8937Z" fill="#221F20"/>
<path d="M189.994 29.6174C189.994 32.8926 185.683 35.5587 180.332 35.5587C174.981 35.5587 170.67 32.9 170.67 29.6174" stroke="#020202" stroke-linecap="round" stroke-linejoin="round"/>
<path d="M128.223 168.407C128.223 168.407 134.585 136.655 108.31 131.772" stroke="#020202" stroke-width="2" stroke-linecap="round" stroke-linejoin="round"/>
<path d="M116.567 151.854C119.995 148.132 121.933 143.948 121.933 139.528C121.933 133.756 118.65 128.395 113.033 123.937C115.376 120.781 116.663 116.968 116.712 113.039C116.712 97.5536 95.5064 85 69.3532 85C43.2001 85 21.9872 97.5536 21.9872 113.039C22.0436 116.897 23.3001 120.642 25.5823 123.754C19.8135 128.243 16.4617 133.673 16.4617 139.528C16.4617 144.487 18.8863 149.142 23.1349 153.198C18.7438 155.403 15.0525 158.785 12.473 162.965C9.89351 167.145 8.52729 171.959 8.52686 176.87C8.52686 183.899 11.3215 190.641 16.296 195.611C21.2705 200.582 28.0174 203.374 35.0524 203.374H107.781C114.816 203.374 121.563 200.582 126.537 195.611C131.512 190.641 134.307 183.899 134.307 176.87C134.307 171.378 132.601 166.021 129.423 161.54C126.245 157.058 121.753 153.674 116.567 151.854Z" fill="#A7A7A7"/>
<path d="M1.6755 171.671C1.6755 171.671 -4.67848 139.919 21.5887 135.036" stroke="#020202" stroke-width="2" stroke-linecap="round" stroke-linejoin="round"/>
<path d="M35.15 199.205L31.2206 215.518L23.8406 217.189" stroke="#020202" stroke-width="2" stroke-linecap="round" stroke-linejoin="round"/>
<path d="M105.55 199.205L107.962 215.815L115.158 218.169" stroke="#020202" stroke-width="2" stroke-linecap="round" stroke-linejoin="round"/>
<path d="M62.4901 110.456C64.5427 110.456 66.2067 108.471 66.2067 106.021C66.2067 103.572 64.5427 101.586 62.4901 101.586C60.4374 101.586 58.7734 103.572 58.7734 106.021C58.7734 108.471 60.4374 110.456 62.4901 110.456Z" fill="white"/>
<path d="M62.7866 110.455C64.3103 110.455 65.5455 109.105 65.5455 107.44C65.5455 105.775 64.3103 104.425 62.7866 104.425C61.2628 104.425 60.0276 105.775 60.0276 107.44C60.0276 109.105 61.2628 110.455 62.7866 110.455Z" fill="#221F20"/>
<path d="M76.0187 110.457C78.0714 110.457 79.7354 108.472 79.7354 106.022C79.7354 103.573 78.0714 101.587 76.0187 101.587C73.9661 101.587 72.3021 103.573 72.3021 106.022C72.3021 108.472 73.9661 110.457 76.0187 110.457Z" fill="white"/>
<path d="M76.315 110.456C77.8387 110.456 79.0739 109.106 79.0739 107.441C79.0739 105.776 77.8387 104.426 76.315 104.426C74.7913 104.426 73.556 105.776 73.556 107.441C73.556 109.106 74.7913 110.456 76.315 110.456Z" fill="#221F20"/>
<path d="M79.7343 115.287C79.7343 118.636 75.326 121.362 69.8537 121.362C64.3814 121.362 59.9731 118.643 59.9731 115.287" stroke="#020202" stroke-linecap="round" stroke-linejoin="round"/>
<path d="M352.349 176.178C352.349 176.178 358.617 144.894 332.729 140.083" stroke="#020202" stroke-width="2" stroke-linecap="round" stroke-linejoin="round"/>
<path d="M340.865 159.869C344.242 156.202 346.152 152.079 346.152 147.725C346.152 142.038 342.917 136.755 337.383 132.363C339.691 129.254 340.959 125.497 341.007 121.626C341.007 106.369 320.114 94 294.346 94C268.578 94 247.678 106.369 247.678 121.626C247.734 125.427 248.972 129.117 251.22 132.183C245.536 136.606 242.234 141.956 242.234 147.725C242.234 152.611 244.623 157.197 248.809 161.193C244.482 163.366 240.846 166.698 238.304 170.816C235.763 174.935 234.416 179.678 234.416 184.516C234.416 191.442 237.169 198.084 242.071 202.982C246.972 207.879 253.619 210.63 260.551 210.63H332.208C339.139 210.63 345.787 207.879 350.688 202.982C355.589 198.084 358.343 191.442 358.343 184.516C358.343 179.105 356.662 173.827 353.531 169.412C350.4 164.997 345.974 161.662 340.865 159.869Z" fill="#D2D2D2"/>
<path d="M227.666 179.394C227.666 179.394 221.405 148.11 247.285 143.299" stroke="#020202" stroke-width="2" stroke-linecap="round" stroke-linejoin="round"/>
<path d="M260.647 206.523L256.775 222.595L249.504 224.241" stroke="#020202" stroke-width="2" stroke-linecap="round" stroke-linejoin="round"/>
<path d="M330.009 206.523L332.386 222.888L339.476 225.207" stroke="#020202" stroke-width="2" stroke-linecap="round" stroke-linejoin="round"/>
<path d="M287.584 119.082C289.606 119.082 291.246 117.125 291.246 114.712C291.246 112.298 289.606 110.342 287.584 110.342C285.562 110.342 283.922 112.298 283.922 114.712C283.922 117.125 285.562 119.082 287.584 119.082Z" fill="white"/>
<path d="M287.876 119.08C289.378 119.08 290.595 117.75 290.595 116.109C290.595 114.469 289.378 113.139 287.876 113.139C286.375 113.139 285.158 114.469 285.158 116.109C285.158 117.75 286.375 119.08 287.876 119.08Z" fill="#221F20"/>
<path d="M300.914 119.082C302.936 119.082 304.575 117.126 304.575 114.712C304.575 112.299 302.936 110.343 300.914 110.343C298.891 110.343 297.252 112.299 297.252 114.712C297.252 117.126 298.891 119.082 300.914 119.082Z" fill="white"/>
<path d="M301.206 119.081C302.707 119.081 303.924 117.751 303.924 116.111C303.924 114.47 302.707 113.14 301.206 113.14C299.704 113.14 298.487 114.47 298.487 116.111C298.487 117.751 299.704 119.081 301.206 119.081Z" fill="#221F20"/>
<path d="M304.324 124C304.324 127.275 300.014 129.941 294.662 129.941C289.311 129.941 285 127.283 285 124" stroke="#020202" stroke-linecap="round" stroke-linejoin="round"/>
</svg>
