<svg width="372" height="229" viewBox="0 0 372 229" fill="none" xmlns="http://www.w3.org/2000/svg">
<path d="M146.099 68.6191C146.099 68.6191 151.243 42.9481 130 39.0001" stroke="#020202" stroke-width="2" stroke-linecap="round" stroke-linejoin="round"/>
<path d="M140.066 54.7111L139.551 55.27L140.268 55.5217C144.363 56.959 147.91 59.6316 150.42 63.17C152.929 66.7085 154.276 70.9382 154.276 75.2748C154.276 80.8253 152.069 86.1484 148.141 90.0733C144.213 93.9982 138.886 96.2032 133.331 96.2032H74.5308C68.9756 96.2032 63.6481 93.9982 59.7201 90.0733C55.7921 86.1484 53.5854 80.8253 53.5854 75.2749C53.5858 71.3974 54.6645 67.5962 56.7013 64.2957C58.7381 60.9951 61.6529 58.325 65.1202 56.5835L65.7543 56.2649L65.241 55.775C61.8733 52.5605 60.0006 48.9193 60.0006 45.0848C60.0006 40.5577 62.5907 36.2985 67.1814 32.7267L67.565 32.4283L67.2776 32.0365C65.4946 29.6047 64.5127 26.6791 64.4679 23.665C64.4696 17.6548 68.5901 12.1248 75.4407 8.06986C82.2817 4.02064 91.7641 1.5 102.262 1.5C112.761 1.5 122.242 4.02064 129.081 8.06983C135.93 12.1249 140.049 17.6551 140.051 23.6656C140.012 26.7357 139.006 29.7155 137.175 32.1814L136.887 32.5701L137.266 32.8711C141.735 36.4185 144.272 40.6232 144.272 45.0848C144.272 48.5028 142.775 51.7702 140.066 54.7111Z" fill="#A7A7A7" stroke="white"/>
<path d="M47.5461 71.0719C47.5461 71.0719 42.4091 45.4009 63.6455 41.4529" stroke="#020202" stroke-width="2" stroke-linecap="round" stroke-linejoin="round"/>
<path d="M74.6095 93.3328L71.4327 106.521L65.4661 107.872" stroke="#020202" stroke-width="2" stroke-linecap="round" stroke-linejoin="round"/>
<path d="M131.526 93.3328L133.477 106.761L139.294 108.664" stroke="#020202" stroke-width="2" stroke-linecap="round" stroke-linejoin="round"/>
<path d="M86.0048 27.1714C87.6643 27.1714 89.0096 25.5661 89.0096 23.5857C89.0096 21.6054 87.6643 20 86.0048 20C84.3453 20 83 21.6054 83 23.5857C83 25.5661 84.3453 27.1714 86.0048 27.1714Z" fill="white"/>
<path d="M85.2306 26.8751C86.4625 26.8751 87.4611 25.7838 87.4611 24.4376C87.4611 23.0913 86.4625 22 85.2306 22C83.9987 22 83 23.0913 83 24.4376C83 25.7838 83.9987 26.8751 85.2306 26.8751Z" fill="#221F20"/>
<path d="M96.9426 27.1719C98.6021 27.1719 99.9474 25.5666 99.9474 23.5862C99.9474 21.6059 98.6021 20.0005 96.9426 20.0005C95.283 20.0005 93.9377 21.6059 93.9377 23.5862C93.9377 25.5666 95.283 27.1719 96.9426 27.1719Z" fill="white"/>
<path d="M96.1681 26.8761C97.4 26.8761 98.3986 25.7848 98.3986 24.4385C98.3986 23.0923 97.4 22.001 96.1681 22.001C94.9362 22.001 93.9375 23.0923 93.9375 24.4385C93.9375 25.7848 94.9362 26.8761 96.1681 26.8761Z" fill="#221F20"/>
<path d="M103.857 107.433C103.857 107.433 109 81.7619 87.7578 77.814" stroke="#020202" stroke-width="2" stroke-linecap="round" stroke-linejoin="round"/>
<path d="M91.1752 71.1814L90.8865 71.5701L91.2658 71.8711C95.7353 75.4185 98.2722 79.6232 98.2722 84.0848C98.2722 87.5028 96.7752 90.7702 94.0662 93.7111L94.434 94.0499L94.2684 94.5217C98.3633 95.959 101.91 98.6316 104.42 102.17C106.929 105.708 108.276 109.938 108.276 114.275C108.276 119.825 106.069 125.148 102.141 129.073C98.2133 132.998 92.8857 135.203 87.3306 135.203H28.5308C22.9756 135.203 17.6481 132.998 13.7201 129.073C9.79209 125.148 7.58545 119.825 7.58545 114.275C7.5858 110.397 8.66455 106.596 10.7013 103.296C12.7381 99.9951 15.6529 97.325 19.1202 95.5835L19.7543 95.2649L19.241 94.775C15.8733 91.5605 14.0006 87.9193 14.0006 84.0848C14.0006 79.5577 16.5907 75.2985 21.1814 71.7267L21.565 71.4283L21.2776 71.0365C19.4946 68.6047 18.5127 65.6791 18.4679 62.665C18.4696 56.6548 22.5901 51.1248 29.4407 47.0699C36.2817 43.0206 45.7641 40.5 56.2624 40.5C66.7606 40.5 76.2415 43.0206 83.0809 47.0698C89.9302 51.1249 94.0493 56.6551 94.0507 62.6656C94.0123 65.7357 93.0061 68.7155 91.1752 71.1814Z" fill="#A7A7A7" stroke="white"/>
<path d="M1.54612 110.072C1.54612 110.072 -3.59094 84.4009 17.6455 80.4529" stroke="#020202" stroke-width="2" stroke-linecap="round" stroke-linejoin="round"/>
<path d="M85.5264 132.333L87.4766 145.761L93.2942 147.664" stroke="#020202" stroke-width="2" stroke-linecap="round" stroke-linejoin="round"/>
<path d="M37.0048 70.1714C38.6643 70.1714 40.0096 68.5661 40.0096 66.5857C40.0096 64.6054 38.6643 63 37.0048 63C35.3453 63 34 64.6054 34 66.5857C34 68.5661 35.3453 70.1714 37.0048 70.1714Z" fill="white"/>
<path d="M37.2447 70.1703C38.4766 70.1703 39.4753 69.0789 39.4753 67.7327C39.4753 66.3865 38.4766 65.2952 37.2447 65.2952C36.0128 65.2952 35.0142 66.3865 35.0142 67.7327C35.0142 69.0789 36.0128 70.1703 37.2447 70.1703Z" fill="#221F20"/>
<path d="M47.9426 70.1719C49.6021 70.1719 50.9474 68.5666 50.9474 66.5862C50.9474 64.6059 49.6021 63.0005 47.9426 63.0005C46.283 63.0005 44.9377 64.6059 44.9377 66.5862C44.9377 68.5666 46.283 70.1719 47.9426 70.1719Z" fill="white"/>
<path d="M48.1822 70.1713C49.4141 70.1713 50.4128 69.0799 50.4128 67.7337C50.4128 66.3875 49.4141 65.2961 48.1822 65.2961C46.9503 65.2961 45.9517 66.3875 45.9517 67.7337C45.9517 69.0799 46.9503 70.1713 48.1822 70.1713Z" fill="#221F20"/>
<path d="M270.857 72.433C270.857 72.433 276 46.7619 254.758 42.814" stroke="#020202" stroke-width="2" stroke-linecap="round" stroke-linejoin="round"/>
<path d="M258.175 36.1814L257.887 36.5701L258.266 36.8711C262.735 40.4185 265.272 44.6232 265.272 49.0848C265.272 52.5028 263.775 55.7702 261.066 58.7111L261.434 59.0499L261.268 59.5217C265.363 60.959 268.91 63.6316 271.42 67.17C273.929 70.7085 275.276 74.9382 275.276 79.2748C275.276 84.8253 273.069 90.1484 269.141 94.0733C265.213 97.9982 259.886 100.203 254.331 100.203H195.531C189.976 100.203 184.648 97.9982 180.72 94.0733C176.792 90.1484 174.585 84.8253 174.585 79.2749C174.586 75.3974 175.665 71.5962 177.701 68.2957C179.738 64.9951 182.653 62.325 186.12 60.5835L186.754 60.2649L186.241 59.775C182.873 56.5605 181.001 52.9193 181.001 49.0848C181.001 44.5577 183.591 40.2985 188.181 36.7267L188.565 36.4283L188.278 36.0365C186.495 33.6047 185.513 30.6791 185.468 27.665C185.47 21.6548 189.59 16.1248 196.441 12.0699C203.282 8.02064 212.764 5.5 223.262 5.5C233.761 5.5 243.242 8.02064 250.081 12.0698C256.93 16.1249 261.049 21.6551 261.051 27.6656C261.012 30.7357 260.006 33.7155 258.175 36.1814Z" fill="#A7A7A7" stroke="white"/>
<path d="M171.546 72.6191C171.546 72.6191 166.409 46.9481 187.646 43.0001" stroke="#020202" stroke-width="2" stroke-linecap="round" stroke-linejoin="round"/>
<path d="M195.61 97.3328L192.433 110.521L186.466 111.872" stroke="#020202" stroke-width="2" stroke-linecap="round" stroke-linejoin="round"/>
<path d="M252.526 97.3328L254.477 110.761L260.294 112.664" stroke="#020202" stroke-width="2" stroke-linecap="round" stroke-linejoin="round"/>
<path d="M223.005 31.1714C224.664 31.1714 226.01 29.5661 226.01 27.5857C226.01 25.6054 224.664 24 223.005 24C221.345 24 220 25.6054 220 27.5857C220 29.5661 221.345 31.1714 223.005 31.1714Z" fill="white"/>
<path d="M224.231 29.8751C225.462 29.8751 226.461 28.7838 226.461 27.4376C226.461 26.0913 225.462 25 224.231 25C222.999 25 222 26.0913 222 27.4376C222 28.7838 222.999 29.8751 224.231 29.8751Z" fill="#221F20"/>
<path d="M233.943 31.1719C235.602 31.1719 236.947 29.5666 236.947 27.5862C236.947 25.6059 235.602 24.0005 233.943 24.0005C232.283 24.0005 230.938 25.6059 230.938 27.5862C230.938 29.5666 232.283 31.1719 233.943 31.1719Z" fill="white"/>
<path d="M235.168 29.8761C236.4 29.8761 237.399 28.7848 237.399 27.4385C237.399 26.0923 236.4 25.001 235.168 25.001C233.936 25.001 232.938 26.0923 232.938 27.4385C232.938 28.7848 233.936 29.8761 235.168 29.8761Z" fill="#221F20"/>
<path d="M350.772 67.433C350.772 67.433 355.915 41.7619 334.672 37.814" stroke="#020202" stroke-width="2" stroke-linecap="round" stroke-linejoin="round"/>
<path d="M338.09 31.1814L337.801 31.5701L338.18 31.8711C342.65 35.4185 345.187 39.6232 345.187 44.0848C345.187 47.5028 343.69 50.7702 340.981 53.7111L341.349 54.0499L341.183 54.5217C345.278 55.959 348.825 58.6316 351.334 62.17C353.843 65.7085 355.191 69.9382 355.19 74.2748C355.19 79.8253 352.984 85.1484 349.056 89.0733C345.128 92.9982 339.8 95.2032 334.245 95.2032H275.445C269.89 95.2032 264.563 92.9982 260.635 89.0733C256.707 85.1484 254.5 79.8253 254.5 74.2749C254.5 70.3974 255.579 66.5962 257.616 63.2957C259.653 59.9951 262.567 57.325 266.035 55.5835L266.669 55.2649L266.156 54.775C262.788 51.5605 260.915 47.9193 260.915 44.0848C260.915 39.5577 263.505 35.2985 268.096 31.7267L268.48 31.4283L268.192 31.0365C266.409 28.6047 265.427 25.6791 265.382 22.665C265.384 16.6548 269.505 11.1248 276.355 7.06986C283.196 3.02064 292.679 0.5 303.177 0.5C313.675 0.5 323.156 3.02064 329.995 7.06983C336.845 11.1249 340.964 16.6551 340.965 22.6656C340.927 25.7357 339.921 28.7155 338.09 31.1814Z" fill="#A7A7A7" stroke="white"/>
<path d="M275.524 92.3328L272.347 105.521L266.381 106.872" stroke="#020202" stroke-width="2" stroke-linecap="round" stroke-linejoin="round"/>
<path d="M332.441 92.3328L334.391 105.761L340.209 107.664" stroke="#020202" stroke-width="2" stroke-linecap="round" stroke-linejoin="round"/>
<path d="M306.005 27.1714C307.664 27.1714 309.01 25.5661 309.01 23.5857C309.01 21.6054 307.664 20 306.005 20C304.345 20 303 21.6054 303 23.5857C303 25.5661 304.345 27.1714 306.005 27.1714Z" fill="white"/>
<path d="M307.231 25.8751C308.462 25.8751 309.461 24.7838 309.461 23.4376C309.461 22.0913 308.462 21 307.231 21C305.999 21 305 22.0913 305 23.4376C305 24.7838 305.999 25.8751 307.231 25.8751Z" fill="#221F20"/>
<path d="M316.942 27.1719C318.602 27.1719 319.947 25.5666 319.947 23.5862C319.947 21.6059 318.602 20.0005 316.942 20.0005C315.283 20.0005 313.938 21.6059 313.938 23.5862C313.938 25.5666 315.283 27.1719 316.942 27.1719Z" fill="white"/>
<path d="M318.168 25.8761C319.4 25.8761 320.399 24.7848 320.399 23.4385C320.399 22.0923 319.4 21.001 318.168 21.001C316.936 21.001 315.938 22.0923 315.938 23.4385C315.938 24.7848 316.936 25.8761 318.168 25.8761Z" fill="#221F20"/>
<path d="M366.857 153.433C366.857 153.433 372 127.762 350.758 123.814" stroke="#020202" stroke-width="2" stroke-linecap="round" stroke-linejoin="round"/>
<path d="M354.175 117.181L353.887 117.57L354.266 117.871C358.735 121.418 361.272 125.623 361.272 130.085C361.272 133.503 359.775 136.77 357.066 139.711L357.434 140.05L357.268 140.522C361.363 141.959 364.91 144.632 367.42 148.17C369.929 151.708 371.276 155.938 371.276 160.275C371.276 165.825 369.069 171.148 365.141 175.073C361.213 178.998 355.886 181.203 350.331 181.203H291.531C285.976 181.203 280.648 178.998 276.72 175.073C272.792 171.148 270.585 165.825 270.585 160.275C270.586 156.397 271.665 152.596 273.701 149.296C275.738 145.995 278.653 143.325 282.12 141.583L282.754 141.265L282.241 140.775C278.873 137.56 277.001 133.919 277.001 130.085C277.001 125.558 279.591 121.298 284.181 117.727L284.565 117.428L284.278 117.036C282.495 114.605 281.513 111.679 281.468 108.665C281.47 102.655 285.59 97.1248 292.441 93.0699C299.282 89.0206 308.764 86.5 319.262 86.5C329.761 86.5 339.242 89.0206 346.081 93.0698C352.93 97.1249 357.049 102.655 357.051 108.666C357.012 111.736 356.006 114.716 354.175 117.181Z" fill="#A7A7A7" stroke="white"/>
<path d="M264.546 156.072C264.546 156.072 259.409 130.401 280.646 126.453" stroke="#020202" stroke-width="2" stroke-linecap="round" stroke-linejoin="round"/>
<path d="M291.61 178.333L288.433 191.521L282.466 192.872" stroke="#020202" stroke-width="2" stroke-linecap="round" stroke-linejoin="round"/>
<path d="M348.526 178.333L350.477 191.761L356.294 193.664" stroke="#020202" stroke-width="2" stroke-linecap="round" stroke-linejoin="round"/>
<path d="M316.005 110.171C317.664 110.171 319.01 108.566 319.01 106.586C319.01 104.605 317.664 103 316.005 103C314.345 103 313 104.605 313 106.586C313 108.566 314.345 110.171 316.005 110.171Z" fill="white"/>
<path d="M317.231 108.875C318.462 108.875 319.461 107.784 319.461 106.438C319.461 105.091 318.462 104 317.231 104C315.999 104 315 105.091 315 106.438C315 107.784 315.999 108.875 317.231 108.875Z" fill="#221F20"/>
<path d="M326.942 110.172C328.602 110.172 329.947 108.567 329.947 106.586C329.947 104.606 328.602 103 326.942 103C325.283 103 323.938 104.606 323.938 106.586C323.938 108.567 325.283 110.172 326.942 110.172Z" fill="white"/>
<path d="M328.168 108.876C329.4 108.876 330.399 107.785 330.399 106.439C330.399 105.092 329.4 104.001 328.168 104.001C326.936 104.001 325.938 105.092 325.938 106.439C325.938 107.785 326.936 108.876 328.168 108.876Z" fill="#221F20"/>
<path d="M219.852 146.673C219.852 146.673 225.745 117.26 201.406 112.736" stroke="#020202" stroke-width="2" stroke-linecap="round" stroke-linejoin="round"/>
<path d="M205.379 105.18L205.091 105.569L205.47 105.87C210.601 109.943 213.525 114.779 213.525 119.921C213.525 123.86 211.8 127.621 208.687 131L209.055 131.339L208.889 131.811C213.595 133.462 217.672 136.534 220.555 140.601C223.439 144.667 224.988 149.528 224.987 154.512C224.987 160.891 222.451 167.009 217.937 171.519C213.423 176.03 207.3 178.564 200.916 178.564H133.544C127.16 178.564 121.037 176.03 116.523 171.519C112.009 167.009 109.473 160.891 109.473 154.512C109.473 150.056 110.713 145.687 113.054 141.894C115.394 138.101 118.744 135.032 122.729 133.031L123.363 132.712L122.85 132.222C118.981 128.53 116.823 124.34 116.823 119.921C116.823 114.704 119.808 109.805 125.079 105.704L125.462 105.406L125.175 105.014C123.123 102.215 121.993 98.8481 121.942 95.3793C121.943 88.4565 126.689 82.1004 134.55 77.4474C142.401 72.8002 153.279 69.9097 165.318 69.9097C177.358 69.9097 188.234 72.8002 196.084 77.4474C203.943 82.1005 208.687 88.4568 208.688 95.3799C208.644 98.913 207.486 102.342 205.379 105.18Z" fill="#D2D2D2" stroke="white"/>
<path d="M102.626 149.696C102.626 149.696 96.7398 120.283 121.072 115.76" stroke="#020202" stroke-width="2" stroke-linecap="round" stroke-linejoin="round"/>
<path d="M133.635 175.202L129.995 190.314L123.158 191.861" stroke="#020202" stroke-width="2" stroke-linecap="round" stroke-linejoin="round"/>
<path d="M198.849 175.202L201.083 190.589L207.749 192.769" stroke="#020202" stroke-width="2" stroke-linecap="round" stroke-linejoin="round"/>
<path d="M165.443 94.6265C167.344 94.6265 168.886 92.7871 168.886 90.5181C168.886 88.2491 167.344 86.4097 165.443 86.4097C163.541 86.4097 162 88.2491 162 90.5181C162 92.7871 163.541 94.6265 165.443 94.6265Z" fill="white"/>
<path d="M166.556 93.9955C167.967 93.9955 169.111 92.745 169.111 91.2026C169.111 89.6601 167.967 88.4097 166.556 88.4097C165.144 88.4097 164 89.6601 164 91.2026C164 92.745 165.144 93.9955 166.556 93.9955Z" fill="#221F20"/>
<path d="M177.975 94.627C179.877 94.627 181.418 92.7876 181.418 90.5186C181.418 88.2496 179.877 86.4102 177.975 86.4102C176.074 86.4102 174.532 88.2496 174.532 90.5186C174.532 92.7876 176.074 94.627 177.975 94.627Z" fill="white"/>
<path d="M179.088 93.9964C180.499 93.9964 181.644 92.746 181.644 91.2035C181.644 89.6611 180.499 88.4106 179.088 88.4106C177.676 88.4106 176.532 89.6611 176.532 91.2035C176.532 92.746 177.676 93.9964 179.088 93.9964Z" fill="#221F20"/>
<path d="M181.501 98.0873C181.386 101.188 177.212 103.56 172.146 103.373C167.081 103.185 163.093 100.517 163.208 97.4097" stroke="#020202" stroke-linecap="round" stroke-linejoin="round"/>
<path d="M49.0067 73.4403C48.9405 75.2271 46.2351 76.5834 42.9435 76.4615C39.6519 76.3395 37.054 74.7908 37.1204 73" stroke="#020202" stroke-linecap="round" stroke-linejoin="round"/>
<path d="M316 116.244C316 114.456 318.653 113 321.947 113C325.241 113 327.895 114.452 327.895 116.244" stroke="#020202" stroke-linecap="round" stroke-linejoin="round"/>
<path d="M137.097 172.636C137.097 172.636 143.553 140.416 116.891 135.461" stroke="#020202" stroke-width="2" stroke-linecap="round" stroke-linejoin="round"/>
<path d="M121.282 127.212L120.993 127.601L121.373 127.902C127.001 132.369 130.215 137.679 130.215 143.331C130.215 147.661 128.318 151.791 124.902 155.5L125.27 155.839L125.104 156.31C130.269 158.123 134.742 161.494 137.907 165.956C141.072 170.419 142.771 175.754 142.771 181.223C142.771 188.223 139.987 194.937 135.034 199.887C130.08 204.837 123.36 207.618 116.354 207.618H42.554C35.5479 207.618 28.8287 204.837 23.8747 199.887C18.9207 194.937 16.1377 188.223 16.1377 181.223C16.1381 176.333 17.4987 171.539 20.0675 167.376C22.6363 163.213 26.3124 159.846 30.6854 157.649L31.3195 157.331L30.8062 156.841C26.5622 152.79 24.1895 148.189 24.1895 143.331C24.1895 137.596 27.4709 132.217 33.2514 127.72L33.6349 127.422L33.3476 127.03C31.0939 123.956 29.8528 120.258 29.7964 116.448C29.7981 108.841 35.0123 101.865 43.6311 96.7637C52.2401 91.6679 64.1649 88.5 77.3602 88.5C90.5555 88.5 102.478 91.6679 111.085 96.7637C119.702 101.865 124.915 108.841 124.916 116.449C124.868 120.329 123.596 124.095 121.282 127.212Z" fill="#6B6B6B" stroke="white"/>
<path d="M8.68545 175.948C8.68545 175.948 2.23786 143.728 28.892 138.773" stroke="#020202" stroke-width="2" stroke-linecap="round" stroke-linejoin="round"/>
<path d="M42.6533 203.888L38.666 220.441L31.1772 222.136" stroke="#020202" stroke-width="2" stroke-linecap="round" stroke-linejoin="round"/>
<path d="M114.09 203.888L116.538 220.742L123.84 223.13" stroke="#020202" stroke-width="2" stroke-linecap="round" stroke-linejoin="round"/>
<path d="M58.6991 123.001C60.782 123.001 62.4705 120.986 62.4705 118.5C62.4705 116.015 60.782 114 58.6991 114C56.6162 114 54.9277 116.015 54.9277 118.5C54.9277 120.986 56.6162 123.001 58.6991 123.001Z" fill="white"/>
<path d="M57.7273 120.119C59.2735 120.119 60.5269 118.749 60.5269 117.059C60.5269 115.37 59.2735 114 57.7273 114C56.1812 114 54.9277 115.37 54.9277 117.059C54.9277 118.749 56.1812 120.119 57.7273 120.119Z" fill="#221F20"/>
<path d="M72.4271 123.001C74.51 123.001 76.1985 120.987 76.1985 118.501C76.1985 116.015 74.51 114 72.4271 114C70.3443 114 68.6558 116.015 68.6558 118.501C68.6558 120.987 70.3443 123.001 72.4271 123.001Z" fill="white"/>
<path d="M71.4551 120.12C73.0013 120.12 74.2547 118.75 74.2547 117.06C74.2547 115.371 73.0013 114.001 71.4551 114.001C69.9089 114.001 68.6555 115.371 68.6555 117.06C68.6555 118.75 69.9089 120.12 71.4551 120.12Z" fill="#221F20"/>
<path d="M74.9277 128C74.9277 131.314 71.1222 134 66.4277 134C61.7333 134 57.9277 131.314 57.9277 128" stroke="black"/>
<path d="M57.9277 128H74.9277" stroke="black" stroke-linecap="round"/>
<path d="M322.846 174.094C322.846 174.094 329.489 140.938 302.053 135.839" stroke="#020202" stroke-width="2" stroke-linecap="round" stroke-linejoin="round"/>
<path d="M306.583 127.359L306.295 127.748L306.674 128.049C312.467 132.647 315.778 138.116 315.778 143.938C315.778 148.398 313.824 152.652 310.307 156.47L310.675 156.808L310.509 157.28C315.827 159.147 320.433 162.617 323.691 167.212C326.949 171.806 328.699 177.299 328.698 182.93C328.698 190.137 325.833 197.05 320.733 202.146C315.632 207.243 308.714 210.106 301.501 210.106H225.558C218.344 210.106 211.426 207.243 206.326 202.146C201.225 197.05 198.36 190.137 198.36 182.93C198.36 177.895 199.761 172.959 202.406 168.673C205.051 164.387 208.835 160.92 213.338 158.659L213.972 158.34L213.459 157.85C209.089 153.68 206.645 148.941 206.645 143.938C206.645 138.031 210.025 132.491 215.976 127.862L216.359 127.563L216.072 127.172C213.751 124.006 212.473 120.198 212.415 116.274C212.417 108.439 217.787 101.257 226.658 96.0057C235.52 90.7604 247.794 87.5 261.374 87.5C274.955 87.5 287.227 90.7604 296.086 96.0056C304.956 101.257 310.324 108.439 310.326 116.275C310.276 120.271 308.966 124.15 306.583 127.359Z" fill="#6B6B6B" stroke="white"/>
<path d="M190.705 177.502C190.705 177.502 184.071 144.346 211.499 139.247" stroke="#020202" stroke-width="2" stroke-linecap="round" stroke-linejoin="round"/>
<path d="M225.659 206.253L221.556 223.286L213.85 225.031" stroke="#020202" stroke-width="2" stroke-linecap="round" stroke-linejoin="round"/>
<path d="M299.17 206.253L301.689 223.597L309.203 226.054" stroke="#020202" stroke-width="2" stroke-linecap="round" stroke-linejoin="round"/>
<path d="M257.881 121.262C260.024 121.262 261.762 119.189 261.762 116.631C261.762 114.073 260.024 112 257.881 112C255.738 112 254 114.073 254 116.631C254 119.189 255.738 121.262 257.881 121.262Z" fill="white"/>
<path d="M258.881 120.296C260.472 120.296 261.762 118.887 261.762 117.148C261.762 115.41 260.472 114 258.881 114C257.29 114 256 115.41 256 117.148C256 118.887 257.29 120.296 258.881 120.296Z" fill="#221F20"/>
<path d="M272.007 121.263C274.151 121.263 275.888 119.189 275.888 116.632C275.888 114.074 274.151 112 272.007 112C269.864 112 268.126 114.074 268.126 116.632C268.126 119.189 269.864 121.263 272.007 121.263Z" fill="white"/>
<path d="M273.007 120.297C274.598 120.297 275.888 118.888 275.888 117.149C275.888 115.41 274.598 114.001 273.007 114.001C271.416 114.001 270.126 115.41 270.126 117.149C270.126 118.888 271.416 120.297 273.007 120.297Z" fill="#221F20"/>
</svg>
