<svg width="352" height="185" viewBox="0 0 352 185" fill="none" xmlns="http://www.w3.org/2000/svg">
<path d="M246.744 99.4829C246.744 99.4829 254.331 61.6108 222.993 55.7864" stroke="#020202" stroke-width="2" stroke-linecap="round" stroke-linejoin="round"/>
<path d="M232.474 79.4002L231.959 79.9591L232.676 80.2107C238.764 82.3475 244.037 86.3206 247.767 91.581C251.497 96.8414 253.501 103.129 253.5 109.576C253.5 117.828 250.22 125.742 244.38 131.577C238.541 137.411 230.62 140.689 222.362 140.689H135.616C127.357 140.689 119.437 137.411 113.598 131.577C107.758 125.742 104.478 117.828 104.478 109.577C104.478 103.812 106.082 98.1611 109.11 93.2543C112.138 88.3476 116.471 84.3781 121.626 81.789L122.26 81.4705L121.746 80.9805C116.746 76.2077 113.942 70.7776 113.942 65.0375C113.942 58.2605 117.82 51.9148 124.627 46.6184L125.011 46.32L124.724 45.9281C122.064 42.3003 120.599 37.9357 120.532 33.4391C120.534 24.4537 126.692 16.2302 136.837 10.2255C146.972 4.2266 161.005 0.5 176.528 0.5C192.051 0.5 206.081 4.2266 216.214 10.2255C226.356 16.2302 232.512 24.4537 232.514 33.4391C232.457 38.019 230.956 42.4645 228.225 46.1431L227.936 46.5318L228.315 46.8328C234.943 52.0932 238.742 58.3582 238.742 65.0375C238.742 70.154 236.5 75.0294 232.474 79.4002Z" fill="#6B6B6B" stroke="white"/>
<path d="M187.532 45C187.532 48.8188 182.506 51.9275 176.266 51.9275C170.026 51.9275 165 48.8274 165 45" stroke="#020202" stroke-linecap="round" stroke-linejoin="round"/>
<path d="M95.8057 103.376C95.8057 103.376 88.2271 65.5038 119.557 59.6795" stroke="#020202" stroke-width="2" stroke-linecap="round" stroke-linejoin="round"/>
<path d="M135.732 136.217L131.045 155.674L122.243 157.667" stroke="#020202" stroke-width="2" stroke-linecap="round" stroke-linejoin="round"/>
<path d="M219.7 136.217L222.577 156.028L231.16 158.835" stroke="#020202" stroke-width="2" stroke-linecap="round" stroke-linejoin="round"/>
<path d="M168.433 42.5799C170.881 42.5799 172.866 40.2115 172.866 37.29C172.866 34.3684 170.881 32 168.433 32C165.985 32 164 34.3684 164 37.29C164 40.2115 165.985 42.5799 168.433 42.5799Z" fill="white"/>
<path d="M168.291 42.1922C170.108 42.1922 171.581 40.5822 171.581 38.5961C171.581 36.61 170.108 35 168.291 35C166.473 35 165 36.61 165 38.5961C165 40.5822 166.473 42.1922 168.291 42.1922Z" fill="#221F20"/>
<path d="M184.569 42.5809C187.017 42.5809 189.002 40.2125 189.002 37.2909C189.002 34.3694 187.017 32.001 184.569 32.001C182.121 32.001 180.136 34.3694 180.136 37.2909C180.136 40.2125 182.121 42.5809 184.569 42.5809Z" fill="white"/>
<path d="M184.427 42.1936C186.244 42.1936 187.717 40.5836 187.717 38.5976C187.717 36.6115 186.244 35.0015 184.427 35.0015C182.609 35.0015 181.136 36.6115 181.136 38.5976C181.136 40.5836 182.609 42.1936 184.427 42.1936Z" fill="#221F20"/>
<path d="M146.063 176.103C146.063 176.103 153.317 139.898 123.358 134.33" stroke="#020202" stroke-width="2" stroke-linecap="round" stroke-linejoin="round"/>
<path d="M132.405 156.89L131.89 157.449L132.607 157.7C138.423 159.741 143.46 163.537 147.023 168.562C150.587 173.587 152.5 179.594 152.5 185.752C152.5 193.635 149.366 201.194 143.788 206.768C138.21 212.342 130.644 215.474 122.755 215.474H39.8275C31.9385 215.474 24.3726 212.342 18.7944 206.768C13.2161 201.194 10.0823 193.635 10.0823 185.752C10.0828 180.246 11.6148 174.848 14.5074 170.16C17.3999 165.473 21.5392 161.681 26.4633 159.208L27.0974 158.889L26.5841 158.399C21.8069 153.84 19.1299 148.654 19.1299 143.174C19.1299 136.705 22.832 130.644 29.3364 125.583L29.7199 125.285L29.4326 124.893C26.8925 121.429 25.4938 117.261 25.4302 112.967C25.4319 104.388 31.3117 96.5325 41.0062 90.7943C50.6911 85.0618 64.1019 81.5 78.9383 81.5C93.7746 81.5 107.183 85.0618 116.866 90.7943C126.558 96.5326 132.436 104.388 132.438 112.967C132.383 117.341 130.95 121.586 128.342 125.098L128.053 125.487L128.432 125.788C134.765 130.814 138.391 136.798 138.391 143.174C138.391 148.059 136.251 152.714 132.405 156.89Z" fill="#A7A7A7" stroke="white"/>
<path d="M1.77022 179.825C1.77022 179.825 -5.47476 143.62 24.4758 138.052" stroke="#020202" stroke-width="2" stroke-linecap="round" stroke-linejoin="round"/>
<path d="M71.1127 110.026C73.4531 110.026 75.3505 107.762 75.3505 104.969C75.3505 102.176 73.4531 99.912 71.1127 99.912C68.7722 99.912 66.8749 102.176 66.8749 104.969C66.8749 107.762 68.7722 110.026 71.1127 110.026Z" fill="white"/>
<path d="M71.1458 109.876C72.8833 109.876 74.2917 108.336 74.2917 106.438C74.2917 104.539 72.8833 103 71.1458 103C69.4084 103 68 104.539 68 106.438C68 108.336 69.4084 109.876 71.1458 109.876Z" fill="#221F20"/>
<path d="M86.5385 110.027C88.8789 110.027 90.7762 107.763 90.7762 104.97C90.7762 102.177 88.8789 99.9128 86.5385 99.9128C84.198 99.9128 82.3007 102.177 82.3007 104.97C82.3007 107.763 84.198 110.027 86.5385 110.027Z" fill="white"/>
<path d="M86.5714 109.877C88.3088 109.877 89.7172 108.337 89.7172 106.439C89.7172 104.54 88.3088 103.001 86.5714 103.001C84.834 103.001 83.4255 104.54 83.4255 106.439C83.4255 108.337 84.834 109.877 86.5714 109.877Z" fill="#221F20"/>
<path d="M90.775 115.534C90.775 119.353 85.7486 122.462 79.5089 122.462C73.2692 122.462 68.2428 119.362 68.2428 115.534" stroke="#020202" stroke-linecap="round" stroke-linejoin="round"/>
<path d="M344.406 166.394C344.406 166.394 351.377 131.601 322.586 126.25" stroke="#020202" stroke-width="2" stroke-linecap="round" stroke-linejoin="round"/>
<path d="M331.266 147.917L330.751 148.476L331.468 148.727C337.053 150.688 341.891 154.332 345.313 159.158C348.735 163.984 350.573 169.753 350.572 175.667C350.572 183.237 347.563 190.497 342.206 195.85C336.849 201.202 329.583 204.21 322.006 204.21H242.313C234.737 204.21 227.471 201.202 222.114 195.85C216.757 190.497 213.748 183.237 213.748 175.667C213.748 170.379 215.219 165.195 217.997 160.693C220.775 156.192 224.75 152.55 229.479 150.175L230.113 149.857L229.6 149.367C225.012 144.987 222.442 140.009 222.442 134.75C222.442 128.54 225.995 122.721 232.243 117.86L232.627 117.562L232.34 117.17C229.901 113.844 228.558 109.842 228.497 105.72C228.499 97.4855 234.143 89.9417 243.456 84.4291C252.76 78.9222 265.644 75.5 279.899 75.5C294.154 75.5 307.036 78.9222 316.337 84.4291C325.649 89.9418 331.291 97.4858 331.292 105.721C331.24 109.919 329.864 113.995 327.36 117.367L327.071 117.756L327.45 118.057C333.534 122.885 337.014 128.63 337.014 134.75C337.014 139.437 334.96 143.907 331.266 147.917Z" fill="#D2D2D2" stroke="white"/>
<path d="M205.74 169.971C205.74 169.971 198.778 135.178 227.56 129.827" stroke="#020202" stroke-width="2" stroke-linecap="round" stroke-linejoin="round"/>
<path d="M272.378 102.894C274.627 102.894 276.451 100.718 276.451 98.0343C276.451 95.3503 274.627 93.1744 272.378 93.1744C270.129 93.1744 268.306 95.3503 268.306 98.0343C268.306 100.718 270.129 102.894 272.378 102.894Z" fill="white"/>
<path d="M272.023 102.607C273.693 102.607 275.046 101.128 275.046 99.3037C275.046 97.4791 273.693 96 272.023 96C270.354 96 269 97.4791 269 99.3037C269 101.128 270.354 102.607 272.023 102.607Z" fill="#221F20"/>
<path d="M287.203 102.895C289.452 102.895 291.275 100.719 291.275 98.0351C291.275 95.3511 289.452 93.1753 287.203 93.1753C284.953 93.1753 283.13 95.3511 283.13 98.0351C283.13 100.719 284.953 102.895 287.203 102.895Z" fill="white"/>
<path d="M286.847 102.609C288.517 102.609 289.87 101.13 289.87 99.3052C289.87 97.4806 288.517 96.0015 286.847 96.0015C285.177 96.0015 283.824 97.4806 283.824 99.3052C283.824 101.13 285.177 102.609 286.847 102.609Z" fill="#221F20"/>
<path d="M291.532 107C291.532 110.819 286.506 113.927 280.266 113.927C274.026 113.927 269 110.827 269 107" stroke="#020202" stroke-linecap="round" stroke-linejoin="round"/>
</svg>
