<svg width="135" height="136" viewBox="0 0 135 136" fill="none" xmlns="http://www.w3.org/2000/svg">
<path d="M128.223 83.4072C128.223 83.4072 134.585 51.655 108.31 46.7718" stroke="#020202" stroke-width="2" stroke-linecap="round" stroke-linejoin="round"/>
<path d="M116.567 66.8537C119.995 63.1324 121.933 58.9479 121.933 54.5279C121.933 48.7562 118.65 43.3945 113.033 38.9366C115.376 35.7811 116.663 31.9675 116.712 28.0386C116.712 12.5536 95.5064 0 69.3532 0C43.2001 0 21.9872 12.5536 21.9872 28.0386C22.0436 31.8967 23.3001 35.6417 25.5823 38.7543C19.8135 43.2426 16.4617 48.6726 16.4617 54.5279C16.4617 59.4871 18.8863 64.1425 23.1349 68.1979C18.7438 70.4034 15.0525 73.7849 12.473 77.9649C9.89351 82.1449 8.52729 86.9589 8.52686 91.8697C8.52686 98.8991 11.3215 105.641 16.296 110.611C21.2705 115.582 28.0174 118.374 35.0524 118.374H107.781C114.816 118.374 121.563 115.582 126.537 110.611C131.512 105.641 134.307 98.8991 134.307 91.8697C134.307 86.3776 132.601 81.0209 129.423 76.5396C126.245 72.0584 121.753 68.6739 116.567 66.8537Z" fill="#A7A7A7"/>
<path d="M1.6755 86.6711C1.6755 86.6711 -4.67848 54.9189 21.5887 50.0357" stroke="#020202" stroke-width="2" stroke-linecap="round" stroke-linejoin="round"/>
<path d="M35.15 114.205L31.2206 130.518L23.8406 132.189" stroke="#020202" stroke-width="2" stroke-linecap="round" stroke-linejoin="round"/>
<path d="M105.55 114.205L107.962 130.815L115.158 133.169" stroke="#020202" stroke-width="2" stroke-linecap="round" stroke-linejoin="round"/>
<path d="M62.4901 25.4565C64.5427 25.4565 66.2067 23.4708 66.2067 21.0213C66.2067 18.5719 64.5427 16.5862 62.4901 16.5862C60.4374 16.5862 58.7734 18.5719 58.7734 21.0213C58.7734 23.4708 60.4374 25.4565 62.4901 25.4565Z" fill="white"/>
<path d="M62.7866 25.4551C64.3103 25.4551 65.5455 24.1053 65.5455 22.4402C65.5455 20.775 64.3103 19.4252 62.7866 19.4252C61.2628 19.4252 60.0276 20.775 60.0276 22.4402C60.0276 24.1053 61.2628 25.4551 62.7866 25.4551Z" fill="#221F20"/>
<path d="M76.0187 25.4572C78.0714 25.4572 79.7354 23.4715 79.7354 21.0221C79.7354 18.5726 78.0714 16.5869 76.0187 16.5869C73.9661 16.5869 72.3021 18.5726 72.3021 21.0221C72.3021 23.4715 73.9661 25.4572 76.0187 25.4572Z" fill="white"/>
<path d="M76.315 25.4562C77.8387 25.4562 79.0739 24.1064 79.0739 22.4413C79.0739 20.7761 77.8387 19.4263 76.315 19.4263C74.7913 19.4263 73.556 20.7761 73.556 22.4413C73.556 24.1064 74.7913 25.4562 76.315 25.4562Z" fill="#221F20"/>
<path d="M79.7343 30.2867C79.7343 33.6359 75.326 36.3623 69.8537 36.3623C64.3814 36.3623 59.9731 33.6435 59.9731 30.2867" stroke="#020202" stroke-linecap="round" stroke-linejoin="round"/>
</svg>
