<svg width="459" height="448" viewBox="0 0 459 448" fill="none" xmlns="http://www.w3.org/2000/svg">
<g filter="url(#filter0_d_538_14)">
<path d="M368.44 225.688C380.002 213.126 386.54 199 386.54 184.079C386.54 164.594 375.464 146.494 356.518 131.444C364.422 120.792 368.764 107.918 368.927 94.6543C368.927 42.3791 297.398 0 209.178 0C120.959 0 49.4043 42.3791 49.4043 94.6543C49.5946 107.679 53.8327 120.321 61.531 130.829C42.072 145.981 30.7657 164.312 30.7657 184.079C30.7657 200.82 38.9442 216.536 53.2756 230.226C38.4637 237.672 26.0122 249.087 17.3111 263.198C8.60997 277.31 4.00148 293.561 4 310.139V310.139C4 333.869 13.4268 356.628 30.2068 373.408C46.9867 390.188 69.7451 399.614 93.4755 399.614H338.802C362.533 399.614 385.291 390.188 402.071 373.408C418.851 356.628 428.278 333.869 428.278 310.139C428.28 291.598 422.523 273.515 411.804 258.387C401.085 243.259 385.932 231.833 368.44 225.688V225.688Z" fill="#FFD15A"/>
<path d="M59.3002 377.079L46.0456 432.149L21.1514 437.789" stroke="#020202" stroke-width="4" stroke-linecap="round" stroke-linejoin="round"/>
<path d="M382.797 370.593L431.483 399.512L452.916 385.616" stroke="#020202" stroke-width="4" stroke-linecap="round" stroke-linejoin="round"/>
<path d="M186.027 85.9377C192.951 85.9377 198.564 79.2343 198.564 70.9653C198.564 62.6963 192.951 55.9929 186.027 55.9929C179.103 55.9929 173.49 62.6963 173.49 70.9653C173.49 79.2343 179.103 85.9377 186.027 85.9377Z" fill="white"/>
<path d="M183.82 76.4655C188.96 76.4655 193.127 71.9085 193.127 66.2873C193.127 60.6661 188.96 56.1091 183.82 56.1091C178.68 56.1091 174.514 60.6661 174.514 66.2873C174.514 71.9085 178.68 76.4655 183.82 76.4655Z" fill="#221F20"/>
<path d="M231.661 85.9377C238.585 85.9377 244.198 79.2343 244.198 70.9653C244.198 62.6963 238.585 55.9929 231.661 55.9929C224.737 55.9929 219.125 62.6963 219.125 70.9653C219.125 79.2343 224.737 85.9377 231.661 85.9377Z" fill="white"/>
<path d="M229.727 76.4655C234.867 76.4655 239.034 71.9085 239.034 66.2873C239.034 60.6661 234.867 56.1091 229.727 56.1091C224.588 56.1091 220.421 60.6661 220.421 66.2873C220.421 71.9085 224.588 76.4655 229.727 76.4655Z" fill="#221F20"/>
<path d="M174.567 110.857C181.449 110.857 187.027 105.279 187.027 98.3972C187.027 91.5158 181.449 85.9373 174.567 85.9373C167.686 85.9373 162.107 91.5158 162.107 98.3972C162.107 105.279 167.686 110.857 174.567 110.857Z" fill="#F0524A"/>
<path d="M244.199 110.857C251.081 110.857 256.659 105.279 256.659 98.3972C256.659 91.5158 251.081 85.9373 244.199 85.9373C237.318 85.9373 231.74 91.5158 231.74 98.3972C231.74 105.279 237.318 110.857 244.199 110.857Z" fill="#F0524A"/>
<path d="M244.199 102.243C244.199 113.55 229.329 122.753 210.87 122.753C192.411 122.753 177.541 113.575 177.541 102.243" stroke="#020202" stroke-width="4" stroke-linecap="round" stroke-linejoin="round"/>
</g>
<defs>
<filter id="filter0_d_538_14" x="0" y="0" width="458.917" height="447.79" filterUnits="userSpaceOnUse" color-interpolation-filters="sRGB">
<feFlood flood-opacity="0" result="BackgroundImageFix"/>
<feColorMatrix in="SourceAlpha" type="matrix" values="0 0 0 0 0 0 0 0 0 0 0 0 0 0 0 0 0 0 127 0" result="hardAlpha"/>
<feOffset dy="4"/>
<feGaussianBlur stdDeviation="2"/>
<feComposite in2="hardAlpha" operator="out"/>
<feColorMatrix type="matrix" values="0 0 0 0 0 0 0 0 0 0 0 0 0 0 0 0 0 0 0.25 0"/>
<feBlend mode="normal" in2="BackgroundImageFix" result="effect1_dropShadow_538_14"/>
<feBlend mode="normal" in="SourceGraphic" in2="effect1_dropShadow_538_14" result="shape"/>
</filter>
</defs>
</svg>
