<svg width="390" height="345" viewBox="0 0 390 345" fill="none" xmlns="http://www.w3.org/2000/svg">
<g filter="url(#filter0_d_538_14)">
<path d="M354.44 225.688C366.002 213.126 372.54 199 372.54 184.079C372.54 164.594 361.464 146.494 342.518 131.444C350.422 120.792 354.764 107.918 354.927 94.6543C354.927 42.3791 283.398 0 195.178 0C106.959 0 35.4043 42.3791 35.4043 94.6543C35.5946 107.679 39.8327 120.321 47.531 130.829C28.072 145.981 16.7657 164.312 16.7657 184.079C16.7657 200.82 24.9442 216.536 39.2756 230.226C24.4637 237.672 12.0122 249.087 3.31111 263.198C-5.39003 277.31 -9.99852 293.561 -10 310.139C-10 333.869 -0.573153 356.628 16.2068 373.408C32.9867 390.188 55.7451 399.615 79.4755 399.615H324.802C348.533 399.615 371.291 390.188 388.071 373.408C404.851 356.628 414.278 333.869 414.278 310.139C414.28 291.598 408.523 273.515 397.804 258.387C387.085 243.259 371.932 231.833 354.44 225.688Z" fill="#FFD15A"/>
<path d="M172.027 85.9377C178.951 85.9377 184.564 79.2343 184.564 70.9653C184.564 62.6963 178.951 55.9929 172.027 55.9929C165.103 55.9929 159.49 62.6963 159.49 70.9653C159.49 79.2343 165.103 85.9377 172.027 85.9377Z" fill="white"/>
<path d="M169.82 76.4655C174.96 76.4655 179.127 71.9085 179.127 66.2873C179.127 60.6661 174.96 56.1091 169.82 56.1091C164.68 56.1091 160.514 60.6661 160.514 66.2873C160.514 71.9085 164.68 76.4655 169.82 76.4655Z" fill="#221F20"/>
<path d="M217.661 85.9377C224.585 85.9377 230.198 79.2343 230.198 70.9653C230.198 62.6963 224.585 55.9929 217.661 55.9929C210.737 55.9929 205.125 62.6963 205.125 70.9653C205.125 79.2343 210.737 85.9377 217.661 85.9377Z" fill="white"/>
<path d="M215.727 76.4655C220.867 76.4655 225.034 71.9085 225.034 66.2873C225.034 60.6661 220.867 56.1091 215.727 56.1091C210.588 56.1091 206.421 60.6661 206.421 66.2873C206.421 71.9085 210.588 76.4655 215.727 76.4655Z" fill="#221F20"/>
<path d="M160.567 110.857C167.449 110.857 173.027 105.279 173.027 98.3972C173.027 91.5158 167.449 85.9373 160.567 85.9373C153.686 85.9373 148.107 91.5158 148.107 98.3972C148.107 105.279 153.686 110.857 160.567 110.857Z" fill="#F0524A"/>
<path d="M230.199 110.857C237.081 110.857 242.659 105.279 242.659 98.3972C242.659 91.5158 237.081 85.9373 230.199 85.9373C223.318 85.9373 217.74 91.5158 217.74 98.3972C217.74 105.279 223.318 110.857 230.199 110.857Z" fill="#F0524A"/>
<path d="M230.199 102.243C230.199 113.55 215.329 122.753 196.87 122.753C178.411 122.753 163.541 113.575 163.541 102.243" stroke="#020202" stroke-width="4" stroke-linecap="round" stroke-linejoin="round"/>
</g>
<defs>
<filter id="filter0_d_538_14" x="-14" y="0" width="458.917" height="447.79" filterUnits="userSpaceOnUse" color-interpolation-filters="sRGB">
<feFlood flood-opacity="0" result="BackgroundImageFix"/>
<feColorMatrix in="SourceAlpha" type="matrix" values="0 0 0 0 0 0 0 0 0 0 0 0 0 0 0 0 0 0 127 0" result="hardAlpha"/>
<feOffset dy="4"/>
<feGaussianBlur stdDeviation="2"/>
<feComposite in2="hardAlpha" operator="out"/>
<feColorMatrix type="matrix" values="0 0 0 0 0 0 0 0 0 0 0 0 0 0 0 0 0 0 0.25 0"/>
<feBlend mode="normal" in2="BackgroundImageFix" result="effect1_dropShadow_538_14"/>
<feBlend mode="normal" in="SourceGraphic" in2="effect1_dropShadow_538_14" result="shape"/>
</filter>
</defs>
</svg>
