<svg width="133" height="134" viewBox="0 0 133 134" fill="none" xmlns="http://www.w3.org/2000/svg">
<path d="M126.349 82.1785C126.349 82.1785 132.617 50.894 106.729 46.0827" stroke="#020202" stroke-width="2" stroke-linecap="round" stroke-linejoin="round"/>
<path d="M114.865 65.8688C118.242 62.2023 120.152 58.0794 120.152 53.7246C120.152 48.0379 116.917 42.7552 111.383 38.363C113.691 35.2539 114.959 31.4965 115.007 27.6255C115.007 12.3686 94.1141 0 68.3463 0C42.5784 0 21.6781 12.3686 21.6781 27.6255C21.7337 31.4268 22.9716 35.1166 25.2202 38.1834C19.5364 42.6056 16.234 47.9556 16.234 53.7246C16.234 58.6107 18.6228 63.1975 22.8089 67.1932C18.4825 69.3662 14.8455 72.6979 12.304 76.8163C9.76254 80.9347 8.41645 85.6778 8.41602 90.5162V90.5162C8.41602 97.4421 11.1695 104.084 16.0707 108.982C20.9719 113.879 27.6194 116.63 34.5508 116.63H106.208C113.139 116.63 119.787 113.879 124.688 108.982C129.589 104.084 132.343 97.4421 132.343 90.5162C132.343 85.105 130.662 79.8272 127.531 75.412C124.4 70.9968 119.974 67.6622 114.865 65.8688V65.8688Z" fill="#D2D2D2"/>
<path d="M1.66554 85.3944C1.66554 85.3944 -4.59483 54.1099 21.2853 49.2987" stroke="#020202" stroke-width="2" stroke-linecap="round" stroke-linejoin="round"/>
<path d="M34.647 112.523L30.7755 128.595L23.5042 130.241" stroke="#020202" stroke-width="2" stroke-linecap="round" stroke-linejoin="round"/>
<path d="M104.009 112.523L106.386 128.888L113.476 131.207" stroke="#020202" stroke-width="2" stroke-linecap="round" stroke-linejoin="round"/>
<path d="M61.5841 25.0815C63.6065 25.0815 65.246 23.1251 65.246 20.7117C65.246 18.2983 63.6065 16.3419 61.5841 16.3419C59.5617 16.3419 57.9222 18.2983 57.9222 20.7117C57.9222 23.1251 59.5617 25.0815 61.5841 25.0815Z" fill="white"/>
<path d="M61.8763 25.0801C63.3776 25.0801 64.5946 23.7501 64.5946 22.1095C64.5946 20.4689 63.3776 19.1389 61.8763 19.1389C60.375 19.1389 59.158 20.4689 59.158 22.1095C59.158 23.7501 60.375 25.0801 61.8763 25.0801Z" fill="#221F20"/>
<path d="M74.9136 25.0821C76.936 25.0821 78.5754 23.1257 78.5754 20.7123C78.5754 18.299 76.936 16.3425 74.9136 16.3425C72.8912 16.3425 71.2517 18.299 71.2517 20.7123C71.2517 23.1257 72.8912 25.0821 74.9136 25.0821Z" fill="white"/>
<path d="M75.2055 25.0813C76.7068 25.0813 77.9238 23.7513 77.9238 22.1107C77.9238 20.4701 76.7068 19.1401 75.2055 19.1401C73.7042 19.1401 72.4872 20.4701 72.4872 22.1107C72.4872 23.7513 73.7042 25.0813 75.2055 25.0813Z" fill="#221F20"/>
<path d="M78.3245 30C78.3245 33.2751 74.0136 35.9413 68.6622 35.9413C63.3108 35.9413 59 33.2826 59 30" stroke="#020202" stroke-linecap="round" stroke-linejoin="round"/>
</svg>
