<svg width="354" height="166" viewBox="0 0 354 166" fill="none" xmlns="http://www.w3.org/2000/svg">
<g opacity="0.8" filter="url(#filter0_i_2113_650)">
<path d="M346.517 87.3593C344.974 87.3768 343.437 87.5429 341.932 87.8548C341.932 87.8548 336.87 73.4111 318.731 80.5627C318.731 80.5627 314.018 56.0852 283.737 68.4891C283.737 68.4891 276.163 47.9013 254.392 48.0004C251.335 48.0004 248.3 48.0004 245.286 48.0004C223.479 47.9013 215.941 68.4891 215.941 68.4891C185.578 56.0852 180.846 80.5627 180.846 80.5627C162.707 73.4111 157.645 87.8548 157.645 87.8548C156.141 87.5429 154.604 87.3768 153.06 87.3593C143.569 86.9464 146.393 92.9997 146.393 92.9997H353.193C353.193 92.9997 356 86.9464 346.517 87.3593Z" fill="#989595" fill-opacity="0.52"/>
</g>
<g opacity="0.8" filter="url(#filter1_i_2113_650)">
<path d="M185.134 27.1141C184.07 27.1261 183.011 27.2405 181.975 27.4554C181.975 27.4554 178.488 17.5053 165.992 22.432C165.992 22.432 162.745 5.56979 141.885 14.1147C141.885 14.1147 136.667 -0.0680225 121.67 0.000245667C119.564 0.000245667 117.473 0.000245667 115.397 0.000245667C100.374 -0.0680225 95.1814 14.1147 95.1814 14.1147C74.2648 5.56979 71.005 22.432 71.005 22.432C58.5094 17.5053 55.0222 27.4554 55.0222 27.4554C53.9859 27.2405 52.9269 27.1261 51.8636 27.1141C45.3251 26.8296 47.2709 30.9997 47.2709 30.9997H189.733C189.733 30.9997 191.666 26.8296 185.134 27.1141Z" fill="#989595" fill-opacity="0.8"/>
</g>
<g opacity="0.8" filter="url(#filter2_i_2113_650)">
<path d="M306.134 162.114C305.07 162.126 304.011 162.241 302.975 162.455C302.975 162.455 299.488 152.505 286.992 157.432C286.992 157.432 283.745 140.57 262.885 149.115C262.885 149.115 257.667 134.932 242.67 135C240.564 135 238.473 135 236.397 135C221.374 134.932 216.181 149.115 216.181 149.115C195.265 140.57 192.005 157.432 192.005 157.432C179.509 152.505 176.022 162.455 176.022 162.455C174.986 162.241 173.927 162.126 172.864 162.114C166.325 161.83 168.271 166 168.271 166H310.733C310.733 166 312.666 161.83 306.134 162.114Z" fill="#989595" fill-opacity="0.8"/>
</g>
<g opacity="0.8" filter="url(#filter3_i_2113_650)">
<path d="M91.1337 139.114C90.0704 139.126 89.0115 139.241 87.9751 139.455C87.9751 139.455 84.4879 129.505 71.9923 134.432C71.9923 134.432 68.7452 117.57 47.8854 126.115C47.8854 126.115 42.6673 111.932 27.6699 112C25.5642 112 23.4731 112 21.3968 112C6.37426 111.932 1.18142 126.115 1.18142 126.115C-19.7352 117.57 -22.995 134.432 -22.995 134.432C-35.4906 129.505 -38.9778 139.455 -38.9778 139.455C-40.0141 139.241 -41.0731 139.126 -42.1364 139.114C-48.6749 138.83 -46.7291 143 -46.7291 143H95.7328C95.7328 143 97.6659 138.83 91.1337 139.114Z" fill="#989595" fill-opacity="0.52"/>
</g>
<defs>
<filter id="filter0_i_2113_650" x="146" y="48" width="209.581" height="46.9998" filterUnits="userSpaceOnUse" color-interpolation-filters="sRGB">
<feFlood flood-opacity="0" result="BackgroundImageFix"/>
<feBlend mode="normal" in="SourceGraphic" in2="BackgroundImageFix" result="shape"/>
<feColorMatrix in="SourceAlpha" type="matrix" values="0 0 0 0 0 0 0 0 0 0 0 0 0 0 0 0 0 0 127 0" result="hardAlpha"/>
<feOffset dx="5" dy="10"/>
<feGaussianBlur stdDeviation="1"/>
<feComposite in2="hardAlpha" operator="arithmetic" k2="-1" k3="1"/>
<feColorMatrix type="matrix" values="0 0 0 0 0 0 0 0 0 0 0 0 0 0 0 0 0 0 0.25 0"/>
<feBlend mode="normal" in2="shape" result="effect1_innerShadow_2113_650"/>
</filter>
<filter id="filter1_i_2113_650" x="47" y="0" width="145" height="32.9998" filterUnits="userSpaceOnUse" color-interpolation-filters="sRGB">
<feFlood flood-opacity="0" result="BackgroundImageFix"/>
<feBlend mode="normal" in="SourceGraphic" in2="BackgroundImageFix" result="shape"/>
<feColorMatrix in="SourceAlpha" type="matrix" values="0 0 0 0 0 0 0 0 0 0 0 0 0 0 0 0 0 0 127 0" result="hardAlpha"/>
<feOffset dx="5" dy="10"/>
<feGaussianBlur stdDeviation="1"/>
<feComposite in2="hardAlpha" operator="arithmetic" k2="-1" k3="1"/>
<feColorMatrix type="matrix" values="0 0 0 0 0 0 0 0 0 0 0 0 0 0 0 0 0 0 0.25 0"/>
<feBlend mode="normal" in2="shape" result="effect1_innerShadow_2113_650"/>
</filter>
<filter id="filter2_i_2113_650" x="168" y="135" width="145" height="32.9998" filterUnits="userSpaceOnUse" color-interpolation-filters="sRGB">
<feFlood flood-opacity="0" result="BackgroundImageFix"/>
<feBlend mode="normal" in="SourceGraphic" in2="BackgroundImageFix" result="shape"/>
<feColorMatrix in="SourceAlpha" type="matrix" values="0 0 0 0 0 0 0 0 0 0 0 0 0 0 0 0 0 0 127 0" result="hardAlpha"/>
<feOffset dx="5" dy="10"/>
<feGaussianBlur stdDeviation="1"/>
<feComposite in2="hardAlpha" operator="arithmetic" k2="-1" k3="1"/>
<feColorMatrix type="matrix" values="0 0 0 0 0 0 0 0 0 0 0 0 0 0 0 0 0 0 0.25 0"/>
<feBlend mode="normal" in2="shape" result="effect1_innerShadow_2113_650"/>
</filter>
<filter id="filter3_i_2113_650" x="-47" y="112" width="145" height="32.9998" filterUnits="userSpaceOnUse" color-interpolation-filters="sRGB">
<feFlood flood-opacity="0" result="BackgroundImageFix"/>
<feBlend mode="normal" in="SourceGraphic" in2="BackgroundImageFix" result="shape"/>
<feColorMatrix in="SourceAlpha" type="matrix" values="0 0 0 0 0 0 0 0 0 0 0 0 0 0 0 0 0 0 127 0" result="hardAlpha"/>
<feOffset dx="5" dy="10"/>
<feGaussianBlur stdDeviation="1"/>
<feComposite in2="hardAlpha" operator="arithmetic" k2="-1" k3="1"/>
<feColorMatrix type="matrix" values="0 0 0 0 0 0 0 0 0 0 0 0 0 0 0 0 0 0 0.25 0"/>
<feBlend mode="normal" in2="shape" result="effect1_innerShadow_2113_650"/>
</filter>
</defs>
</svg>
