<svg width="377" height="189" viewBox="0 0 377 189" fill="none" xmlns="http://www.w3.org/2000/svg">
<g opacity="0.8" filter="url(#filter0_i_2135_670)">
<path d="M340.517 121.359C338.974 121.377 337.437 121.543 335.932 121.855C335.932 121.855 330.87 107.411 312.731 114.563C312.731 114.563 308.018 90.0852 277.737 102.489C277.737 102.489 270.163 81.9013 248.392 82.0004C245.335 82.0004 242.3 82.0004 239.286 82.0004C217.479 81.9013 209.941 102.489 209.941 102.489C179.578 90.0852 174.846 114.563 174.846 114.563C156.707 107.411 151.645 121.855 151.645 121.855C150.141 121.543 148.604 121.377 147.06 121.359C137.569 120.946 140.393 127 140.393 127H347.193C347.193 127 350 120.946 340.517 121.359Z" fill="#989595" fill-opacity="0.51"/>
</g>
<g opacity="0.8" filter="url(#filter1_i_2135_670)">
<path d="M436.517 39.3593C434.974 39.3768 433.437 39.5429 431.932 39.8548C431.932 39.8548 426.87 25.4111 408.731 32.5627C408.731 32.5627 404.018 8.0852 373.737 20.4891C373.737 20.4891 366.163 -0.0987426 344.392 0.000356614C341.335 0.000356614 338.3 0.000356614 335.286 0.000356614C313.479 -0.0987426 305.941 20.4891 305.941 20.4891C275.578 8.0852 270.846 32.5627 270.846 32.5627C252.707 25.4111 247.645 39.8548 247.645 39.8548C246.141 39.5429 244.604 39.3768 243.06 39.3593C233.569 38.9464 236.393 44.9997 236.393 44.9997H443.193C443.193 44.9997 446 38.9464 436.517 39.3593Z" fill="#989595"/>
</g>
<g opacity="0.8" filter="url(#filter2_i_2135_670)">
<path d="M138.134 111.114C137.07 111.126 136.011 111.241 134.975 111.455C134.975 111.455 131.488 101.505 118.992 106.432C118.992 106.432 115.745 89.5698 94.8854 98.1147C94.8854 98.1147 89.6673 83.932 74.6699 84.0002C72.5642 84.0002 70.4731 84.0002 68.3968 84.0002C53.3743 83.932 48.1814 98.1147 48.1814 98.1147C27.2648 89.5698 24.005 106.432 24.005 106.432C11.5094 101.505 8.02222 111.455 8.02222 111.455C6.98585 111.241 5.92694 111.126 4.86356 111.114C-1.67487 110.83 0.270864 115 0.270864 115H142.733C142.733 115 144.666 110.83 138.134 111.114Z" fill="#989595"/>
</g>
<g opacity="0.8" filter="url(#filter3_i_2135_670)">
<path d="M239.134 72.1141C238.07 72.1261 237.011 72.2405 235.975 72.4554C235.975 72.4554 232.488 62.5053 219.992 67.432C219.992 67.432 216.745 50.5698 195.885 59.1147C195.885 59.1147 190.667 44.932 175.67 45.0002C173.564 45.0002 171.473 45.0002 169.397 45.0002C154.374 44.932 149.181 59.1147 149.181 59.1147C128.265 50.5698 125.005 67.432 125.005 67.432C112.509 62.5053 109.022 72.4554 109.022 72.4554C107.986 72.2405 106.927 72.1261 105.864 72.1141C99.3251 71.8296 101.271 75.9997 101.271 75.9997H243.733C243.733 75.9997 245.666 71.8296 239.134 72.1141Z" fill="#989595" fill-opacity="0.35"/>
</g>
<g opacity="0.8" filter="url(#filter4_i_2135_670)">
<path d="M138.134 57.1141C137.07 57.1261 136.011 57.2405 134.975 57.4554C134.975 57.4554 131.488 47.5053 118.992 52.432C118.992 52.432 115.745 35.5698 94.8854 44.1147C94.8854 44.1147 89.6673 29.932 74.6699 30.0002C72.5642 30.0002 70.4731 30.0002 68.3968 30.0002C53.3743 29.932 48.1814 44.1147 48.1814 44.1147C27.2648 35.5698 24.005 52.432 24.005 52.432C11.5094 47.5053 8.02222 57.4554 8.02222 57.4554C6.98585 57.2405 5.92694 57.1261 4.86356 57.1141C-1.67487 56.8296 0.270864 60.9997 0.270864 60.9997H142.733C142.733 60.9997 144.666 56.8296 138.134 57.1141Z" fill="#989595" fill-opacity="0.44"/>
</g>
<g opacity="0.8" filter="url(#filter5_i_2135_670)">
<path d="M382.134 88.1141C381.07 88.1261 380.011 88.2405 378.975 88.4554C378.975 88.4554 375.488 78.5053 362.992 83.432C362.992 83.432 359.745 66.5698 338.885 75.1147C338.885 75.1147 333.667 60.932 318.67 61.0002C316.564 61.0002 314.473 61.0002 312.397 61.0002C297.374 60.932 292.181 75.1147 292.181 75.1147C271.265 66.5698 268.005 83.432 268.005 83.432C255.509 78.5053 252.022 88.4554 252.022 88.4554C250.986 88.2405 249.927 88.1261 248.864 88.1141C242.325 87.8296 244.271 91.9997 244.271 91.9997H386.733C386.733 91.9997 388.666 87.8296 382.134 88.1141Z" fill="#989595" fill-opacity="0.44"/>
</g>
<g opacity="0.8" filter="url(#filter6_i_2135_670)">
<path d="M233.134 152.114C232.07 152.126 231.011 152.241 229.975 152.455C229.975 152.455 226.488 142.505 213.992 147.432C213.992 147.432 210.745 130.57 189.885 139.115C189.885 139.115 184.667 124.932 169.67 125C167.564 125 165.473 125 163.397 125C148.374 124.932 143.181 139.115 143.181 139.115C122.265 130.57 119.005 147.432 119.005 147.432C106.509 142.505 103.022 152.455 103.022 152.455C101.986 152.241 100.927 152.126 99.8636 152.114C93.3251 151.83 95.2709 156 95.2709 156H237.733C237.733 156 239.666 151.83 233.134 152.114Z" fill="#989595" fill-opacity="0.8"/>
</g>
<g opacity="0.8" filter="url(#filter7_i_2135_670)">
<path d="M151.134 185.114C150.07 185.126 149.011 185.241 147.975 185.455C147.975 185.455 144.488 175.505 131.992 180.432C131.992 180.432 128.745 163.57 107.885 172.115C107.885 172.115 102.667 157.932 87.6699 158C85.5642 158 83.4731 158 81.3968 158C66.3743 157.932 61.1814 172.115 61.1814 172.115C40.2648 163.57 37.005 180.432 37.005 180.432C24.5094 175.505 21.0222 185.455 21.0222 185.455C19.9859 185.241 18.9269 185.126 17.8636 185.114C11.3251 184.83 13.2709 189 13.2709 189H155.733C155.733 189 157.666 184.83 151.134 185.114Z" fill="#989595" fill-opacity="0.4"/>
</g>
<g opacity="0.8" filter="url(#filter8_i_2135_670)">
<path d="M360.134 175.114C359.07 175.126 358.011 175.241 356.975 175.455C356.975 175.455 353.488 165.505 340.992 170.432C340.992 170.432 337.745 153.57 316.885 162.115C316.885 162.115 311.667 147.932 296.67 148C294.564 148 292.473 148 290.397 148C275.374 147.932 270.181 162.115 270.181 162.115C249.265 153.57 246.005 170.432 246.005 170.432C233.509 165.505 230.022 175.455 230.022 175.455C228.986 175.241 227.927 175.126 226.864 175.114C220.325 174.83 222.271 179 222.271 179H364.733C364.733 179 366.666 174.83 360.134 175.114Z" fill="#989595"/>
</g>
<defs>
<filter id="filter0_i_2135_670" x="140" y="82" width="209.581" height="46.9998" filterUnits="userSpaceOnUse" color-interpolation-filters="sRGB">
<feFlood flood-opacity="0" result="BackgroundImageFix"/>
<feBlend mode="normal" in="SourceGraphic" in2="BackgroundImageFix" result="shape"/>
<feColorMatrix in="SourceAlpha" type="matrix" values="0 0 0 0 0 0 0 0 0 0 0 0 0 0 0 0 0 0 127 0" result="hardAlpha"/>
<feOffset dx="5" dy="10"/>
<feGaussianBlur stdDeviation="1"/>
<feComposite in2="hardAlpha" operator="arithmetic" k2="-1" k3="1"/>
<feColorMatrix type="matrix" values="0 0 0 0 0 0 0 0 0 0 0 0 0 0 0 0 0 0 0.25 0"/>
<feBlend mode="normal" in2="shape" result="effect1_innerShadow_2135_670"/>
</filter>
<filter id="filter1_i_2135_670" x="236" y="0" width="209.581" height="46.9998" filterUnits="userSpaceOnUse" color-interpolation-filters="sRGB">
<feFlood flood-opacity="0" result="BackgroundImageFix"/>
<feBlend mode="normal" in="SourceGraphic" in2="BackgroundImageFix" result="shape"/>
<feColorMatrix in="SourceAlpha" type="matrix" values="0 0 0 0 0 0 0 0 0 0 0 0 0 0 0 0 0 0 127 0" result="hardAlpha"/>
<feOffset dx="5" dy="10"/>
<feGaussianBlur stdDeviation="1"/>
<feComposite in2="hardAlpha" operator="arithmetic" k2="-1" k3="1"/>
<feColorMatrix type="matrix" values="0 0 0 0 0 0 0 0 0 0 0 0 0 0 0 0 0 0 0.25 0"/>
<feBlend mode="normal" in2="shape" result="effect1_innerShadow_2135_670"/>
</filter>
<filter id="filter2_i_2135_670" x="0" y="84" width="145" height="32.9998" filterUnits="userSpaceOnUse" color-interpolation-filters="sRGB">
<feFlood flood-opacity="0" result="BackgroundImageFix"/>
<feBlend mode="normal" in="SourceGraphic" in2="BackgroundImageFix" result="shape"/>
<feColorMatrix in="SourceAlpha" type="matrix" values="0 0 0 0 0 0 0 0 0 0 0 0 0 0 0 0 0 0 127 0" result="hardAlpha"/>
<feOffset dx="5" dy="10"/>
<feGaussianBlur stdDeviation="1"/>
<feComposite in2="hardAlpha" operator="arithmetic" k2="-1" k3="1"/>
<feColorMatrix type="matrix" values="0 0 0 0 0 0 0 0 0 0 0 0 0 0 0 0 0 0 0.25 0"/>
<feBlend mode="normal" in2="shape" result="effect1_innerShadow_2135_670"/>
</filter>
<filter id="filter3_i_2135_670" x="101" y="45" width="145" height="32.9998" filterUnits="userSpaceOnUse" color-interpolation-filters="sRGB">
<feFlood flood-opacity="0" result="BackgroundImageFix"/>
<feBlend mode="normal" in="SourceGraphic" in2="BackgroundImageFix" result="shape"/>
<feColorMatrix in="SourceAlpha" type="matrix" values="0 0 0 0 0 0 0 0 0 0 0 0 0 0 0 0 0 0 127 0" result="hardAlpha"/>
<feOffset dx="5" dy="10"/>
<feGaussianBlur stdDeviation="1"/>
<feComposite in2="hardAlpha" operator="arithmetic" k2="-1" k3="1"/>
<feColorMatrix type="matrix" values="0 0 0 0 0 0 0 0 0 0 0 0 0 0 0 0 0 0 0.25 0"/>
<feBlend mode="normal" in2="shape" result="effect1_innerShadow_2135_670"/>
</filter>
<filter id="filter4_i_2135_670" x="0" y="30" width="145" height="32.9998" filterUnits="userSpaceOnUse" color-interpolation-filters="sRGB">
<feFlood flood-opacity="0" result="BackgroundImageFix"/>
<feBlend mode="normal" in="SourceGraphic" in2="BackgroundImageFix" result="shape"/>
<feColorMatrix in="SourceAlpha" type="matrix" values="0 0 0 0 0 0 0 0 0 0 0 0 0 0 0 0 0 0 127 0" result="hardAlpha"/>
<feOffset dx="5" dy="10"/>
<feGaussianBlur stdDeviation="1"/>
<feComposite in2="hardAlpha" operator="arithmetic" k2="-1" k3="1"/>
<feColorMatrix type="matrix" values="0 0 0 0 0 0 0 0 0 0 0 0 0 0 0 0 0 0 0.25 0"/>
<feBlend mode="normal" in2="shape" result="effect1_innerShadow_2135_670"/>
</filter>
<filter id="filter5_i_2135_670" x="244" y="61" width="145" height="32.9998" filterUnits="userSpaceOnUse" color-interpolation-filters="sRGB">
<feFlood flood-opacity="0" result="BackgroundImageFix"/>
<feBlend mode="normal" in="SourceGraphic" in2="BackgroundImageFix" result="shape"/>
<feColorMatrix in="SourceAlpha" type="matrix" values="0 0 0 0 0 0 0 0 0 0 0 0 0 0 0 0 0 0 127 0" result="hardAlpha"/>
<feOffset dx="5" dy="10"/>
<feGaussianBlur stdDeviation="1"/>
<feComposite in2="hardAlpha" operator="arithmetic" k2="-1" k3="1"/>
<feColorMatrix type="matrix" values="0 0 0 0 0 0 0 0 0 0 0 0 0 0 0 0 0 0 0.25 0"/>
<feBlend mode="normal" in2="shape" result="effect1_innerShadow_2135_670"/>
</filter>
<filter id="filter6_i_2135_670" x="95" y="125" width="145" height="32.9998" filterUnits="userSpaceOnUse" color-interpolation-filters="sRGB">
<feFlood flood-opacity="0" result="BackgroundImageFix"/>
<feBlend mode="normal" in="SourceGraphic" in2="BackgroundImageFix" result="shape"/>
<feColorMatrix in="SourceAlpha" type="matrix" values="0 0 0 0 0 0 0 0 0 0 0 0 0 0 0 0 0 0 127 0" result="hardAlpha"/>
<feOffset dx="5" dy="10"/>
<feGaussianBlur stdDeviation="1"/>
<feComposite in2="hardAlpha" operator="arithmetic" k2="-1" k3="1"/>
<feColorMatrix type="matrix" values="0 0 0 0 0 0 0 0 0 0 0 0 0 0 0 0 0 0 0.25 0"/>
<feBlend mode="normal" in2="shape" result="effect1_innerShadow_2135_670"/>
</filter>
<filter id="filter7_i_2135_670" x="13" y="158" width="145" height="32.9998" filterUnits="userSpaceOnUse" color-interpolation-filters="sRGB">
<feFlood flood-opacity="0" result="BackgroundImageFix"/>
<feBlend mode="normal" in="SourceGraphic" in2="BackgroundImageFix" result="shape"/>
<feColorMatrix in="SourceAlpha" type="matrix" values="0 0 0 0 0 0 0 0 0 0 0 0 0 0 0 0 0 0 127 0" result="hardAlpha"/>
<feOffset dx="5" dy="10"/>
<feGaussianBlur stdDeviation="1"/>
<feComposite in2="hardAlpha" operator="arithmetic" k2="-1" k3="1"/>
<feColorMatrix type="matrix" values="0 0 0 0 0 0 0 0 0 0 0 0 0 0 0 0 0 0 0.25 0"/>
<feBlend mode="normal" in2="shape" result="effect1_innerShadow_2135_670"/>
</filter>
<filter id="filter8_i_2135_670" x="222" y="148" width="145" height="32.9998" filterUnits="userSpaceOnUse" color-interpolation-filters="sRGB">
<feFlood flood-opacity="0" result="BackgroundImageFix"/>
<feBlend mode="normal" in="SourceGraphic" in2="BackgroundImageFix" result="shape"/>
<feColorMatrix in="SourceAlpha" type="matrix" values="0 0 0 0 0 0 0 0 0 0 0 0 0 0 0 0 0 0 127 0" result="hardAlpha"/>
<feOffset dx="5" dy="10"/>
<feGaussianBlur stdDeviation="1"/>
<feComposite in2="hardAlpha" operator="arithmetic" k2="-1" k3="1"/>
<feColorMatrix type="matrix" values="0 0 0 0 0 0 0 0 0 0 0 0 0 0 0 0 0 0 0.25 0"/>
<feBlend mode="normal" in2="shape" result="effect1_innerShadow_2135_670"/>
</filter>
</defs>
</svg>
