<svg width="390" height="159" viewBox="0 0 390 159" fill="none" xmlns="http://www.w3.org/2000/svg">
<g opacity="0.8" filter="url(#filter0_i_2122_654)">
<path d="M341.517 92.3593C339.974 92.3768 338.437 92.5429 336.932 92.8548C336.932 92.8548 331.87 78.4111 313.731 85.5627C313.731 85.5627 309.018 61.0852 278.737 73.4891C278.737 73.4891 271.163 52.9013 249.392 53.0004C246.335 53.0004 243.3 53.0004 240.286 53.0004C218.479 52.9013 210.941 73.4891 210.941 73.4891C180.578 61.0852 175.846 85.5627 175.846 85.5627C157.707 78.4111 152.645 92.8548 152.645 92.8548C151.141 92.5429 149.604 92.3768 148.06 92.3593C138.569 91.9464 141.393 97.9997 141.393 97.9997H348.193C348.193 97.9997 351 91.9464 341.517 92.3593Z" fill="#989595" fill-opacity="0.51"/>
</g>
<g opacity="0.8" filter="url(#filter1_i_2122_654)">
<path d="M434.517 39.3593C432.974 39.3768 431.437 39.5429 429.932 39.8548C429.932 39.8548 424.87 25.4111 406.731 32.5627C406.731 32.5627 402.018 8.0852 371.737 20.4891C371.737 20.4891 364.163 -0.0987426 342.392 0.000356614C339.335 0.000356614 336.3 0.000356614 333.286 0.000356614C311.479 -0.0987426 303.941 20.4891 303.941 20.4891C273.578 8.0852 268.846 32.5627 268.846 32.5627C250.707 25.4111 245.645 39.8548 245.645 39.8548C244.141 39.5429 242.604 39.3768 241.06 39.3593C231.569 38.9464 234.393 44.9997 234.393 44.9997H441.193C441.193 44.9997 444 38.9464 434.517 39.3593Z" fill="#989595"/>
</g>
<g opacity="0.8" filter="url(#filter2_i_2122_654)">
<path d="M187.134 88.1141C186.07 88.1261 185.011 88.2405 183.975 88.4554C183.975 88.4554 180.488 78.5053 167.992 83.432C167.992 83.432 164.745 66.5698 143.885 75.1147C143.885 75.1147 138.667 60.932 123.67 61.0002C121.564 61.0002 119.473 61.0002 117.397 61.0002C102.374 60.932 97.1814 75.1147 97.1814 75.1147C76.2648 66.5698 73.005 83.432 73.005 83.432C60.5094 78.5053 57.0222 88.4554 57.0222 88.4554C55.9859 88.2405 54.9269 88.1261 53.8636 88.1141C47.3251 87.8296 49.2709 91.9997 49.2709 91.9997H191.733C191.733 91.9997 193.666 87.8296 187.134 88.1141Z" fill="#989595"/>
</g>
<g opacity="0.8" filter="url(#filter3_i_2122_654)">
<path d="M251.134 57.1141C250.07 57.1261 249.011 57.2405 247.975 57.4554C247.975 57.4554 244.488 47.5053 231.992 52.432C231.992 52.432 228.745 35.5698 207.885 44.1147C207.885 44.1147 202.667 29.932 187.67 30.0002C185.564 30.0002 183.473 30.0002 181.397 30.0002C166.374 29.932 161.181 44.1147 161.181 44.1147C140.265 35.5698 137.005 52.432 137.005 52.432C124.509 47.5053 121.022 57.4554 121.022 57.4554C119.986 57.2405 118.927 57.1261 117.864 57.1141C111.325 56.8296 113.271 60.9997 113.271 60.9997H255.733C255.733 60.9997 257.666 56.8296 251.134 57.1141Z" fill="#989595" fill-opacity="0.35"/>
</g>
<g opacity="0.8" filter="url(#filter4_i_2122_654)">
<path d="M129.134 41.1141C128.07 41.1261 127.011 41.2405 125.975 41.4554C125.975 41.4554 122.488 31.5053 109.992 36.432C109.992 36.432 106.745 19.5698 85.8854 28.1147C85.8854 28.1147 80.6673 13.932 65.6699 14.0002C63.5642 14.0002 61.4731 14.0002 59.3968 14.0002C44.3743 13.932 39.1814 28.1147 39.1814 28.1147C18.2648 19.5698 15.005 36.432 15.005 36.432C2.50938 31.5053 -0.977784 41.4554 -0.977784 41.4554C-2.01415 41.2405 -3.07306 41.1261 -4.13644 41.1141C-10.6749 40.8296 -8.72914 44.9997 -8.72914 44.9997H133.733C133.733 44.9997 135.666 40.8296 129.134 41.1141Z" fill="#989595" fill-opacity="0.44"/>
</g>
<g opacity="0.8" filter="url(#filter5_i_2122_654)">
<path d="M260.134 132.114C259.07 132.126 258.011 132.241 256.975 132.455C256.975 132.455 253.488 122.505 240.992 127.432C240.992 127.432 237.745 110.57 216.885 119.115C216.885 119.115 211.667 104.932 196.67 105C194.564 105 192.473 105 190.397 105C175.374 104.932 170.181 119.115 170.181 119.115C149.265 110.57 146.005 127.432 146.005 127.432C133.509 122.505 130.022 132.455 130.022 132.455C128.986 132.241 127.927 132.126 126.864 132.114C120.325 131.83 122.271 136 122.271 136H264.733C264.733 136 266.666 131.83 260.134 132.114Z" fill="#989595" fill-opacity="0.8"/>
</g>
<g opacity="0.8" filter="url(#filter6_i_2122_654)">
<path d="M151.134 155.114C150.07 155.126 149.011 155.241 147.975 155.455C147.975 155.455 144.488 145.505 131.992 150.432C131.992 150.432 128.745 133.57 107.885 142.115C107.885 142.115 102.667 127.932 87.6699 128C85.5642 128 83.4731 128 81.3968 128C66.3743 127.932 61.1814 142.115 61.1814 142.115C40.2648 133.57 37.005 150.432 37.005 150.432C24.5094 145.505 21.0222 155.455 21.0222 155.455C19.9859 155.241 18.9269 155.126 17.8636 155.114C11.3251 154.83 13.2709 159 13.2709 159H155.733C155.733 159 157.666 154.83 151.134 155.114Z" fill="#989595" fill-opacity="0.4"/>
</g>
<g opacity="0.8" filter="url(#filter7_i_2122_654)">
<path d="M359.134 155.114C358.07 155.126 357.011 155.241 355.975 155.455C355.975 155.455 352.488 145.505 339.992 150.432C339.992 150.432 336.745 133.57 315.885 142.115C315.885 142.115 310.667 127.932 295.67 128C293.564 128 291.473 128 289.397 128C274.374 127.932 269.181 142.115 269.181 142.115C248.265 133.57 245.005 150.432 245.005 150.432C232.509 145.505 229.022 155.455 229.022 155.455C227.986 155.241 226.927 155.126 225.864 155.114C219.325 154.83 221.271 159 221.271 159H363.733C363.733 159 365.666 154.83 359.134 155.114Z" fill="#989595"/>
</g>
<defs>
<filter id="filter0_i_2122_654" x="141" y="53" width="209.581" height="46.9998" filterUnits="userSpaceOnUse" color-interpolation-filters="sRGB">
<feFlood flood-opacity="0" result="BackgroundImageFix"/>
<feBlend mode="normal" in="SourceGraphic" in2="BackgroundImageFix" result="shape"/>
<feColorMatrix in="SourceAlpha" type="matrix" values="0 0 0 0 0 0 0 0 0 0 0 0 0 0 0 0 0 0 127 0" result="hardAlpha"/>
<feOffset dx="5" dy="10"/>
<feGaussianBlur stdDeviation="1"/>
<feComposite in2="hardAlpha" operator="arithmetic" k2="-1" k3="1"/>
<feColorMatrix type="matrix" values="0 0 0 0 0 0 0 0 0 0 0 0 0 0 0 0 0 0 0.25 0"/>
<feBlend mode="normal" in2="shape" result="effect1_innerShadow_2122_654"/>
</filter>
<filter id="filter1_i_2122_654" x="234" y="0" width="209.581" height="46.9998" filterUnits="userSpaceOnUse" color-interpolation-filters="sRGB">
<feFlood flood-opacity="0" result="BackgroundImageFix"/>
<feBlend mode="normal" in="SourceGraphic" in2="BackgroundImageFix" result="shape"/>
<feColorMatrix in="SourceAlpha" type="matrix" values="0 0 0 0 0 0 0 0 0 0 0 0 0 0 0 0 0 0 127 0" result="hardAlpha"/>
<feOffset dx="5" dy="10"/>
<feGaussianBlur stdDeviation="1"/>
<feComposite in2="hardAlpha" operator="arithmetic" k2="-1" k3="1"/>
<feColorMatrix type="matrix" values="0 0 0 0 0 0 0 0 0 0 0 0 0 0 0 0 0 0 0.25 0"/>
<feBlend mode="normal" in2="shape" result="effect1_innerShadow_2122_654"/>
</filter>
<filter id="filter2_i_2122_654" x="49" y="61" width="145" height="32.9998" filterUnits="userSpaceOnUse" color-interpolation-filters="sRGB">
<feFlood flood-opacity="0" result="BackgroundImageFix"/>
<feBlend mode="normal" in="SourceGraphic" in2="BackgroundImageFix" result="shape"/>
<feColorMatrix in="SourceAlpha" type="matrix" values="0 0 0 0 0 0 0 0 0 0 0 0 0 0 0 0 0 0 127 0" result="hardAlpha"/>
<feOffset dx="5" dy="10"/>
<feGaussianBlur stdDeviation="1"/>
<feComposite in2="hardAlpha" operator="arithmetic" k2="-1" k3="1"/>
<feColorMatrix type="matrix" values="0 0 0 0 0 0 0 0 0 0 0 0 0 0 0 0 0 0 0.25 0"/>
<feBlend mode="normal" in2="shape" result="effect1_innerShadow_2122_654"/>
</filter>
<filter id="filter3_i_2122_654" x="113" y="30" width="145" height="32.9998" filterUnits="userSpaceOnUse" color-interpolation-filters="sRGB">
<feFlood flood-opacity="0" result="BackgroundImageFix"/>
<feBlend mode="normal" in="SourceGraphic" in2="BackgroundImageFix" result="shape"/>
<feColorMatrix in="SourceAlpha" type="matrix" values="0 0 0 0 0 0 0 0 0 0 0 0 0 0 0 0 0 0 127 0" result="hardAlpha"/>
<feOffset dx="5" dy="10"/>
<feGaussianBlur stdDeviation="1"/>
<feComposite in2="hardAlpha" operator="arithmetic" k2="-1" k3="1"/>
<feColorMatrix type="matrix" values="0 0 0 0 0 0 0 0 0 0 0 0 0 0 0 0 0 0 0.25 0"/>
<feBlend mode="normal" in2="shape" result="effect1_innerShadow_2122_654"/>
</filter>
<filter id="filter4_i_2122_654" x="-9" y="14" width="145" height="32.9998" filterUnits="userSpaceOnUse" color-interpolation-filters="sRGB">
<feFlood flood-opacity="0" result="BackgroundImageFix"/>
<feBlend mode="normal" in="SourceGraphic" in2="BackgroundImageFix" result="shape"/>
<feColorMatrix in="SourceAlpha" type="matrix" values="0 0 0 0 0 0 0 0 0 0 0 0 0 0 0 0 0 0 127 0" result="hardAlpha"/>
<feOffset dx="5" dy="10"/>
<feGaussianBlur stdDeviation="1"/>
<feComposite in2="hardAlpha" operator="arithmetic" k2="-1" k3="1"/>
<feColorMatrix type="matrix" values="0 0 0 0 0 0 0 0 0 0 0 0 0 0 0 0 0 0 0.25 0"/>
<feBlend mode="normal" in2="shape" result="effect1_innerShadow_2122_654"/>
</filter>
<filter id="filter5_i_2122_654" x="122" y="105" width="145" height="32.9998" filterUnits="userSpaceOnUse" color-interpolation-filters="sRGB">
<feFlood flood-opacity="0" result="BackgroundImageFix"/>
<feBlend mode="normal" in="SourceGraphic" in2="BackgroundImageFix" result="shape"/>
<feColorMatrix in="SourceAlpha" type="matrix" values="0 0 0 0 0 0 0 0 0 0 0 0 0 0 0 0 0 0 127 0" result="hardAlpha"/>
<feOffset dx="5" dy="10"/>
<feGaussianBlur stdDeviation="1"/>
<feComposite in2="hardAlpha" operator="arithmetic" k2="-1" k3="1"/>
<feColorMatrix type="matrix" values="0 0 0 0 0 0 0 0 0 0 0 0 0 0 0 0 0 0 0.25 0"/>
<feBlend mode="normal" in2="shape" result="effect1_innerShadow_2122_654"/>
</filter>
<filter id="filter6_i_2122_654" x="13" y="128" width="145" height="32.9998" filterUnits="userSpaceOnUse" color-interpolation-filters="sRGB">
<feFlood flood-opacity="0" result="BackgroundImageFix"/>
<feBlend mode="normal" in="SourceGraphic" in2="BackgroundImageFix" result="shape"/>
<feColorMatrix in="SourceAlpha" type="matrix" values="0 0 0 0 0 0 0 0 0 0 0 0 0 0 0 0 0 0 127 0" result="hardAlpha"/>
<feOffset dx="5" dy="10"/>
<feGaussianBlur stdDeviation="1"/>
<feComposite in2="hardAlpha" operator="arithmetic" k2="-1" k3="1"/>
<feColorMatrix type="matrix" values="0 0 0 0 0 0 0 0 0 0 0 0 0 0 0 0 0 0 0.25 0"/>
<feBlend mode="normal" in2="shape" result="effect1_innerShadow_2122_654"/>
</filter>
<filter id="filter7_i_2122_654" x="221" y="128" width="145" height="32.9998" filterUnits="userSpaceOnUse" color-interpolation-filters="sRGB">
<feFlood flood-opacity="0" result="BackgroundImageFix"/>
<feBlend mode="normal" in="SourceGraphic" in2="BackgroundImageFix" result="shape"/>
<feColorMatrix in="SourceAlpha" type="matrix" values="0 0 0 0 0 0 0 0 0 0 0 0 0 0 0 0 0 0 127 0" result="hardAlpha"/>
<feOffset dx="5" dy="10"/>
<feGaussianBlur stdDeviation="1"/>
<feComposite in2="hardAlpha" operator="arithmetic" k2="-1" k3="1"/>
<feColorMatrix type="matrix" values="0 0 0 0 0 0 0 0 0 0 0 0 0 0 0 0 0 0 0.25 0"/>
<feBlend mode="normal" in2="shape" result="effect1_innerShadow_2122_654"/>
</filter>
</defs>
</svg>
