<svg width="376" height="146" viewBox="0 0 376 146" fill="none" xmlns="http://www.w3.org/2000/svg">
<g opacity="0.8" filter="url(#filter0_i_2113_651)">
<path d="M334.517 82.3593C332.974 82.3768 331.437 82.5429 329.932 82.8548C329.932 82.8548 324.87 68.4111 306.731 75.5627C306.731 75.5627 302.018 51.0852 271.737 63.4891C271.737 63.4891 264.163 42.9013 242.392 43.0004C239.335 43.0004 236.3 43.0004 233.286 43.0004C211.479 42.9013 203.941 63.4891 203.941 63.4891C173.578 51.0852 168.846 75.5627 168.846 75.5627C150.707 68.4111 145.645 82.8548 145.645 82.8548C144.141 82.5429 142.604 82.3768 141.06 82.3593C131.569 81.9464 134.393 87.9997 134.393 87.9997H341.193C341.193 87.9997 344 81.9464 334.517 82.3593Z" fill="#989595" fill-opacity="0.8"/>
</g>
<g opacity="0.8" filter="url(#filter1_i_2113_651)">
<path d="M159.134 58.1141C158.07 58.1261 157.011 58.2405 155.975 58.4554C155.975 58.4554 152.488 48.5053 139.992 53.432C139.992 53.432 136.745 36.5698 115.885 45.1147C115.885 45.1147 110.667 30.932 95.6699 31.0002C93.5642 31.0002 91.4731 31.0002 89.3968 31.0002C74.3743 30.932 69.1814 45.1147 69.1814 45.1147C48.2648 36.5698 45.005 53.432 45.005 53.432C32.5094 48.5053 29.0222 58.4554 29.0222 58.4554C27.9859 58.2405 26.9269 58.1261 25.8636 58.1141C19.3251 57.8296 21.2709 61.9997 21.2709 61.9997H163.733C163.733 61.9997 165.666 57.8296 159.134 58.1141Z" fill="#989595" fill-opacity="0.31"/>
</g>
<g opacity="0.8" filter="url(#filter2_i_2113_651)">
<path d="M387.134 27.1141C386.07 27.1261 385.011 27.2405 383.975 27.4554C383.975 27.4554 380.488 17.5053 367.992 22.432C367.992 22.432 364.745 5.56979 343.885 14.1147C343.885 14.1147 338.667 -0.0680225 323.67 0.000245667C321.564 0.000245667 319.473 0.000245667 317.397 0.000245667C302.374 -0.0680225 297.181 14.1147 297.181 14.1147C276.265 5.56979 273.005 22.432 273.005 22.432C260.509 17.5053 257.022 27.4554 257.022 27.4554C255.986 27.2405 254.927 27.1261 253.864 27.1141C247.325 26.8296 249.271 30.9997 249.271 30.9997H391.733C391.733 30.9997 393.666 26.8296 387.134 27.1141Z" fill="#989595" fill-opacity="0.8"/>
</g>
<g opacity="0.8" filter="url(#filter3_i_2113_651)">
<path d="M337.134 142.114C336.07 142.126 335.011 142.241 333.975 142.455C333.975 142.455 330.488 132.505 317.992 137.432C317.992 137.432 314.745 120.57 293.885 129.115C293.885 129.115 288.667 114.932 273.67 115C271.564 115 269.473 115 267.397 115C252.374 114.932 247.181 129.115 247.181 129.115C226.265 120.57 223.005 137.432 223.005 137.432C210.509 132.505 207.022 142.455 207.022 142.455C205.986 142.241 204.927 142.126 203.864 142.114C197.325 141.83 199.271 146 199.271 146H341.733C341.733 146 343.666 141.83 337.134 142.114Z" fill="#989595" fill-opacity="0.31"/>
</g>
<g opacity="0.8" filter="url(#filter4_i_2113_651)">
<path d="M138.134 106.114C137.07 106.126 136.011 106.241 134.975 106.455C134.975 106.455 131.488 96.5053 118.992 101.432C118.992 101.432 115.745 84.5698 94.8854 93.1147C94.8854 93.1147 89.6673 78.932 74.6699 79.0002C72.5642 79.0002 70.4731 79.0002 68.3968 79.0002C53.3743 78.932 48.1814 93.1147 48.1814 93.1147C27.2648 84.5698 24.005 101.432 24.005 101.432C11.5094 96.5053 8.02222 106.455 8.02222 106.455C6.98585 106.241 5.92694 106.126 4.86356 106.114C-1.67487 105.83 0.270864 110 0.270864 110H142.733C142.733 110 144.666 105.83 138.134 106.114Z" fill="#989595" fill-opacity="0.8"/>
</g>
<defs>
<filter id="filter0_i_2113_651" x="134" y="43" width="209.581" height="46.9998" filterUnits="userSpaceOnUse" color-interpolation-filters="sRGB">
<feFlood flood-opacity="0" result="BackgroundImageFix"/>
<feBlend mode="normal" in="SourceGraphic" in2="BackgroundImageFix" result="shape"/>
<feColorMatrix in="SourceAlpha" type="matrix" values="0 0 0 0 0 0 0 0 0 0 0 0 0 0 0 0 0 0 127 0" result="hardAlpha"/>
<feOffset dx="5" dy="10"/>
<feGaussianBlur stdDeviation="1"/>
<feComposite in2="hardAlpha" operator="arithmetic" k2="-1" k3="1"/>
<feColorMatrix type="matrix" values="0 0 0 0 0 0 0 0 0 0 0 0 0 0 0 0 0 0 0.25 0"/>
<feBlend mode="normal" in2="shape" result="effect1_innerShadow_2113_651"/>
</filter>
<filter id="filter1_i_2113_651" x="21" y="31" width="145" height="32.9998" filterUnits="userSpaceOnUse" color-interpolation-filters="sRGB">
<feFlood flood-opacity="0" result="BackgroundImageFix"/>
<feBlend mode="normal" in="SourceGraphic" in2="BackgroundImageFix" result="shape"/>
<feColorMatrix in="SourceAlpha" type="matrix" values="0 0 0 0 0 0 0 0 0 0 0 0 0 0 0 0 0 0 127 0" result="hardAlpha"/>
<feOffset dx="5" dy="10"/>
<feGaussianBlur stdDeviation="1"/>
<feComposite in2="hardAlpha" operator="arithmetic" k2="-1" k3="1"/>
<feColorMatrix type="matrix" values="0 0 0 0 0 0 0 0 0 0 0 0 0 0 0 0 0 0 0.25 0"/>
<feBlend mode="normal" in2="shape" result="effect1_innerShadow_2113_651"/>
</filter>
<filter id="filter2_i_2113_651" x="249" y="0" width="145" height="32.9998" filterUnits="userSpaceOnUse" color-interpolation-filters="sRGB">
<feFlood flood-opacity="0" result="BackgroundImageFix"/>
<feBlend mode="normal" in="SourceGraphic" in2="BackgroundImageFix" result="shape"/>
<feColorMatrix in="SourceAlpha" type="matrix" values="0 0 0 0 0 0 0 0 0 0 0 0 0 0 0 0 0 0 127 0" result="hardAlpha"/>
<feOffset dx="5" dy="10"/>
<feGaussianBlur stdDeviation="1"/>
<feComposite in2="hardAlpha" operator="arithmetic" k2="-1" k3="1"/>
<feColorMatrix type="matrix" values="0 0 0 0 0 0 0 0 0 0 0 0 0 0 0 0 0 0 0.25 0"/>
<feBlend mode="normal" in2="shape" result="effect1_innerShadow_2113_651"/>
</filter>
<filter id="filter3_i_2113_651" x="199" y="115" width="145" height="32.9998" filterUnits="userSpaceOnUse" color-interpolation-filters="sRGB">
<feFlood flood-opacity="0" result="BackgroundImageFix"/>
<feBlend mode="normal" in="SourceGraphic" in2="BackgroundImageFix" result="shape"/>
<feColorMatrix in="SourceAlpha" type="matrix" values="0 0 0 0 0 0 0 0 0 0 0 0 0 0 0 0 0 0 127 0" result="hardAlpha"/>
<feOffset dx="5" dy="10"/>
<feGaussianBlur stdDeviation="1"/>
<feComposite in2="hardAlpha" operator="arithmetic" k2="-1" k3="1"/>
<feColorMatrix type="matrix" values="0 0 0 0 0 0 0 0 0 0 0 0 0 0 0 0 0 0 0.25 0"/>
<feBlend mode="normal" in2="shape" result="effect1_innerShadow_2113_651"/>
</filter>
<filter id="filter4_i_2113_651" x="0" y="79" width="145" height="32.9998" filterUnits="userSpaceOnUse" color-interpolation-filters="sRGB">
<feFlood flood-opacity="0" result="BackgroundImageFix"/>
<feBlend mode="normal" in="SourceGraphic" in2="BackgroundImageFix" result="shape"/>
<feColorMatrix in="SourceAlpha" type="matrix" values="0 0 0 0 0 0 0 0 0 0 0 0 0 0 0 0 0 0 127 0" result="hardAlpha"/>
<feOffset dx="5" dy="10"/>
<feGaussianBlur stdDeviation="1"/>
<feComposite in2="hardAlpha" operator="arithmetic" k2="-1" k3="1"/>
<feColorMatrix type="matrix" values="0 0 0 0 0 0 0 0 0 0 0 0 0 0 0 0 0 0 0.25 0"/>
<feBlend mode="normal" in2="shape" result="effect1_innerShadow_2113_651"/>
</filter>
</defs>
</svg>
