<svg width="434" height="129" viewBox="0 0 434 129" fill="none" xmlns="http://www.w3.org/2000/svg">
<g opacity="0.8" filter="url(#filter0_i_2113_636)">
<path d="M196.092 93.4906C194.582 93.5077 193.079 93.6702 191.608 93.9752C191.608 93.9752 186.658 79.8502 168.919 86.8441C168.919 86.8441 164.31 62.9068 134.697 75.0369C134.697 75.0369 127.29 54.9034 106 55.0003C103.011 55.0003 100.042 55.0003 97.0948 55.0003C75.7691 54.9034 68.3974 75.0369 68.3974 75.0369C38.7045 62.9068 34.0771 86.8441 34.0771 86.8441C16.3385 79.8502 11.3882 93.9752 11.3882 93.9752C9.91698 93.6702 8.41378 93.5077 6.90421 93.4906C-2.37761 93.0868 0.384513 99.0065 0.384513 99.0065H202.621C202.621 99.0065 205.365 93.0868 196.092 93.4906Z" fill="#989595" fill-opacity="0.8"/>
</g>
<g opacity="0.8" filter="url(#filter1_i_2113_636)">
<path d="M377.372 124.787C376.361 124.798 375.354 124.907 374.368 125.111C374.368 125.111 371.051 115.648 359.167 120.334C359.167 120.334 356.079 104.297 336.241 112.424C336.241 112.424 331.278 98.9353 317.015 99.0002C315.012 99.0002 313.023 99.0002 311.049 99.0002C296.762 98.9353 291.823 112.424 291.823 112.424C271.93 104.297 268.83 120.334 268.83 120.334C256.946 115.648 253.63 125.111 253.63 125.111C252.644 124.907 251.637 124.798 250.625 124.787C244.407 124.516 246.258 128.482 246.258 128.482H381.746C381.746 128.482 383.584 124.516 377.372 124.787Z" fill="#989595" fill-opacity="0.8"/>
</g>
<g opacity="0.8" filter="url(#filter2_i_2113_636)">
<path d="M429.372 25.7868C428.361 25.7983 427.354 25.9071 426.368 26.1114C426.368 26.1114 423.051 16.6484 411.167 21.3339C411.167 21.3339 408.079 5.29714 388.241 13.4238C388.241 13.4238 383.278 -0.0646927 369.015 0.000233641C367.012 0.000233641 365.023 0.000233641 363.049 0.000233641C348.762 -0.0646927 343.823 13.4238 343.823 13.4238C323.93 5.29714 320.83 21.3339 320.83 21.3339C308.946 16.6484 305.63 26.1114 305.63 26.1114C304.644 25.9071 303.637 25.7983 302.625 25.7868C296.407 25.5163 298.258 29.4822 298.258 29.4822H433.746C433.746 29.4822 435.584 25.5163 429.372 25.7868Z" fill="#989595" fill-opacity="0.8"/>
</g>
<defs>
<filter id="filter0_i_2113_636" x="0" y="55" width="205" height="46.0065" filterUnits="userSpaceOnUse" color-interpolation-filters="sRGB">
<feFlood flood-opacity="0" result="BackgroundImageFix"/>
<feBlend mode="normal" in="SourceGraphic" in2="BackgroundImageFix" result="shape"/>
<feColorMatrix in="SourceAlpha" type="matrix" values="0 0 0 0 0 0 0 0 0 0 0 0 0 0 0 0 0 0 127 0" result="hardAlpha"/>
<feOffset dx="5" dy="10"/>
<feGaussianBlur stdDeviation="1"/>
<feComposite in2="hardAlpha" operator="arithmetic" k2="-1" k3="1"/>
<feColorMatrix type="matrix" values="0 0 0 0 0 0 0 0 0 0 0 0 0 0 0 0 0 0 0.25 0"/>
<feBlend mode="normal" in2="shape" result="effect1_innerShadow_2113_636"/>
</filter>
<filter id="filter1_i_2113_636" x="246" y="99" width="138" height="31.4822" filterUnits="userSpaceOnUse" color-interpolation-filters="sRGB">
<feFlood flood-opacity="0" result="BackgroundImageFix"/>
<feBlend mode="normal" in="SourceGraphic" in2="BackgroundImageFix" result="shape"/>
<feColorMatrix in="SourceAlpha" type="matrix" values="0 0 0 0 0 0 0 0 0 0 0 0 0 0 0 0 0 0 127 0" result="hardAlpha"/>
<feOffset dx="5" dy="10"/>
<feGaussianBlur stdDeviation="1"/>
<feComposite in2="hardAlpha" operator="arithmetic" k2="-1" k3="1"/>
<feColorMatrix type="matrix" values="0 0 0 0 0 0 0 0 0 0 0 0 0 0 0 0 0 0 0.25 0"/>
<feBlend mode="normal" in2="shape" result="effect1_innerShadow_2113_636"/>
</filter>
<filter id="filter2_i_2113_636" x="298" y="0" width="138" height="31.4822" filterUnits="userSpaceOnUse" color-interpolation-filters="sRGB">
<feFlood flood-opacity="0" result="BackgroundImageFix"/>
<feBlend mode="normal" in="SourceGraphic" in2="BackgroundImageFix" result="shape"/>
<feColorMatrix in="SourceAlpha" type="matrix" values="0 0 0 0 0 0 0 0 0 0 0 0 0 0 0 0 0 0 127 0" result="hardAlpha"/>
<feOffset dx="5" dy="10"/>
<feGaussianBlur stdDeviation="1"/>
<feComposite in2="hardAlpha" operator="arithmetic" k2="-1" k3="1"/>
<feColorMatrix type="matrix" values="0 0 0 0 0 0 0 0 0 0 0 0 0 0 0 0 0 0 0.25 0"/>
<feBlend mode="normal" in2="shape" result="effect1_innerShadow_2113_636"/>
</filter>
</defs>
</svg>
