<svg width="373" height="172" viewBox="0 0 373 172" fill="none" xmlns="http://www.w3.org/2000/svg">
<g opacity="0.8" filter="url(#filter0_i_2122_655)">
<path d="M348.517 101.359C346.974 101.377 345.437 101.543 343.932 101.855C343.932 101.855 338.87 87.4111 320.731 94.5627C320.731 94.5627 316.018 70.0852 285.737 82.4891C285.737 82.4891 278.163 61.9013 256.392 62.0004C253.335 62.0004 250.3 62.0004 247.286 62.0004C225.479 61.9013 217.941 82.4891 217.941 82.4891C187.578 70.0852 182.846 94.5627 182.846 94.5627C164.707 87.4111 159.645 101.855 159.645 101.855C158.141 101.543 156.604 101.377 155.06 101.359C145.569 100.946 148.393 107 148.393 107H355.193C355.193 107 358 100.946 348.517 101.359Z" fill="#989595" fill-opacity="0.51"/>
</g>
<g opacity="0.8" filter="url(#filter1_i_2122_655)">
<path d="M400.517 39.3593C398.974 39.3768 397.437 39.5429 395.932 39.8548C395.932 39.8548 390.87 25.4111 372.731 32.5627C372.731 32.5627 368.018 8.0852 337.737 20.4891C337.737 20.4891 330.163 -0.0987426 308.392 0.000356614C305.335 0.000356614 302.3 0.000356614 299.286 0.000356614C277.479 -0.0987426 269.941 20.4891 269.941 20.4891C239.578 8.0852 234.846 32.5627 234.846 32.5627C216.707 25.4111 211.645 39.8548 211.645 39.8548C210.141 39.5429 208.604 39.3768 207.06 39.3593C197.569 38.9464 200.393 44.9997 200.393 44.9997H407.193C407.193 44.9997 410 38.9464 400.517 39.3593Z" fill="#989595"/>
</g>
<g opacity="0.8" filter="url(#filter2_i_2122_655)">
<path d="M156.134 96.1141C155.07 96.1261 154.011 96.2405 152.975 96.4554C152.975 96.4554 149.488 86.5053 136.992 91.432C136.992 91.432 133.745 74.5698 112.885 83.1147C112.885 83.1147 107.667 68.932 92.6699 69.0002C90.5642 69.0002 88.4731 69.0002 86.3968 69.0002C71.3743 68.932 66.1814 83.1147 66.1814 83.1147C45.2648 74.5698 42.005 91.432 42.005 91.432C29.5094 86.5053 26.0222 96.4554 26.0222 96.4554C24.9859 96.2405 23.9269 96.1261 22.8636 96.1141C16.3251 95.8296 18.2709 99.9997 18.2709 99.9997H160.733C160.733 99.9997 162.666 95.8296 156.134 96.1141Z" fill="#989595"/>
</g>
<g opacity="0.8" filter="url(#filter3_i_2122_655)">
<path d="M233.134 57.1141C232.07 57.1261 231.011 57.2405 229.975 57.4554C229.975 57.4554 226.488 47.5053 213.992 52.432C213.992 52.432 210.745 35.5698 189.885 44.1147C189.885 44.1147 184.667 29.932 169.67 30.0002C167.564 30.0002 165.473 30.0002 163.397 30.0002C148.374 29.932 143.181 44.1147 143.181 44.1147C122.265 35.5698 119.005 52.432 119.005 52.432C106.509 47.5053 103.022 57.4554 103.022 57.4554C101.986 57.2405 100.927 57.1261 99.8636 57.1141C93.3251 56.8296 95.2709 60.9997 95.2709 60.9997H237.733C237.733 60.9997 239.666 56.8296 233.134 57.1141Z" fill="#989595" fill-opacity="0.35"/>
</g>
<g opacity="0.8" filter="url(#filter4_i_2122_655)">
<path d="M156.134 49.1141C155.07 49.1261 154.011 49.2405 152.975 49.4554C152.975 49.4554 149.488 39.5053 136.992 44.432C136.992 44.432 133.745 27.5698 112.885 36.1147C112.885 36.1147 107.667 21.932 92.6699 22.0002C90.5642 22.0002 88.4731 22.0002 86.3968 22.0002C71.3743 21.932 66.1814 36.1147 66.1814 36.1147C45.2648 27.5698 42.005 44.432 42.005 44.432C29.5094 39.5053 26.0222 49.4554 26.0222 49.4554C24.9859 49.2405 23.9269 49.1261 22.8636 49.1141C16.3251 48.8296 18.2709 52.9997 18.2709 52.9997H160.733C160.733 52.9997 162.666 48.8296 156.134 49.1141Z" fill="#989595" fill-opacity="0.44"/>
</g>
<g opacity="0.8" filter="url(#filter5_i_2122_655)">
<path d="M347.134 72.1141C346.07 72.1261 345.011 72.2405 343.975 72.4554C343.975 72.4554 340.488 62.5053 327.992 67.432C327.992 67.432 324.745 50.5698 303.885 59.1147C303.885 59.1147 298.667 44.932 283.67 45.0002C281.564 45.0002 279.473 45.0002 277.397 45.0002C262.374 44.932 257.181 59.1147 257.181 59.1147C236.265 50.5698 233.005 67.432 233.005 67.432C220.509 62.5053 217.022 72.4554 217.022 72.4554C215.986 72.2405 214.927 72.1261 213.864 72.1141C207.325 71.8296 209.271 75.9997 209.271 75.9997H351.733C351.733 75.9997 353.666 71.8296 347.134 72.1141Z" fill="#989595" fill-opacity="0.44"/>
</g>
<g opacity="0.8" filter="url(#filter6_i_2122_655)">
<path d="M242.134 132.114C241.07 132.126 240.011 132.241 238.975 132.455C238.975 132.455 235.488 122.505 222.992 127.432C222.992 127.432 219.745 110.57 198.885 119.115C198.885 119.115 193.667 104.932 178.67 105C176.564 105 174.473 105 172.397 105C157.374 104.932 152.181 119.115 152.181 119.115C131.265 110.57 128.005 127.432 128.005 127.432C115.509 122.505 112.022 132.455 112.022 132.455C110.986 132.241 109.927 132.126 108.864 132.114C102.325 131.83 104.271 136 104.271 136H246.733C246.733 136 248.666 131.83 242.134 132.114Z" fill="#989595" fill-opacity="0.8"/>
</g>
<g opacity="0.8" filter="url(#filter7_i_2122_655)">
<path d="M138.134 168.114C137.07 168.126 136.011 168.241 134.975 168.455C134.975 168.455 131.488 158.505 118.992 163.432C118.992 163.432 115.745 146.57 94.8854 155.115C94.8854 155.115 89.6673 140.932 74.6699 141C72.5642 141 70.4731 141 68.3968 141C53.3743 140.932 48.1814 155.115 48.1814 155.115C27.2648 146.57 24.005 163.432 24.005 163.432C11.5094 158.505 8.02222 168.455 8.02222 168.455C6.98585 168.241 5.92694 168.126 4.86356 168.114C-1.67487 167.83 0.270864 172 0.270864 172H142.733C142.733 172 144.666 167.83 138.134 168.114Z" fill="#989595" fill-opacity="0.4"/>
</g>
<g opacity="0.8" filter="url(#filter8_i_2122_655)">
<path d="M339.134 155.114C338.07 155.126 337.011 155.241 335.975 155.455C335.975 155.455 332.488 145.505 319.992 150.432C319.992 150.432 316.745 133.57 295.885 142.115C295.885 142.115 290.667 127.932 275.67 128C273.564 128 271.473 128 269.397 128C254.374 127.932 249.181 142.115 249.181 142.115C228.265 133.57 225.005 150.432 225.005 150.432C212.509 145.505 209.022 155.455 209.022 155.455C207.986 155.241 206.927 155.126 205.864 155.114C199.325 154.83 201.271 159 201.271 159H343.733C343.733 159 345.666 154.83 339.134 155.114Z" fill="#989595"/>
</g>
<defs>
<filter id="filter0_i_2122_655" x="148" y="62" width="209.581" height="46.9998" filterUnits="userSpaceOnUse" color-interpolation-filters="sRGB">
<feFlood flood-opacity="0" result="BackgroundImageFix"/>
<feBlend mode="normal" in="SourceGraphic" in2="BackgroundImageFix" result="shape"/>
<feColorMatrix in="SourceAlpha" type="matrix" values="0 0 0 0 0 0 0 0 0 0 0 0 0 0 0 0 0 0 127 0" result="hardAlpha"/>
<feOffset dx="5" dy="10"/>
<feGaussianBlur stdDeviation="1"/>
<feComposite in2="hardAlpha" operator="arithmetic" k2="-1" k3="1"/>
<feColorMatrix type="matrix" values="0 0 0 0 0 0 0 0 0 0 0 0 0 0 0 0 0 0 0.25 0"/>
<feBlend mode="normal" in2="shape" result="effect1_innerShadow_2122_655"/>
</filter>
<filter id="filter1_i_2122_655" x="200" y="0" width="209.581" height="46.9998" filterUnits="userSpaceOnUse" color-interpolation-filters="sRGB">
<feFlood flood-opacity="0" result="BackgroundImageFix"/>
<feBlend mode="normal" in="SourceGraphic" in2="BackgroundImageFix" result="shape"/>
<feColorMatrix in="SourceAlpha" type="matrix" values="0 0 0 0 0 0 0 0 0 0 0 0 0 0 0 0 0 0 127 0" result="hardAlpha"/>
<feOffset dx="5" dy="10"/>
<feGaussianBlur stdDeviation="1"/>
<feComposite in2="hardAlpha" operator="arithmetic" k2="-1" k3="1"/>
<feColorMatrix type="matrix" values="0 0 0 0 0 0 0 0 0 0 0 0 0 0 0 0 0 0 0.25 0"/>
<feBlend mode="normal" in2="shape" result="effect1_innerShadow_2122_655"/>
</filter>
<filter id="filter2_i_2122_655" x="18" y="69" width="145" height="32.9998" filterUnits="userSpaceOnUse" color-interpolation-filters="sRGB">
<feFlood flood-opacity="0" result="BackgroundImageFix"/>
<feBlend mode="normal" in="SourceGraphic" in2="BackgroundImageFix" result="shape"/>
<feColorMatrix in="SourceAlpha" type="matrix" values="0 0 0 0 0 0 0 0 0 0 0 0 0 0 0 0 0 0 127 0" result="hardAlpha"/>
<feOffset dx="5" dy="10"/>
<feGaussianBlur stdDeviation="1"/>
<feComposite in2="hardAlpha" operator="arithmetic" k2="-1" k3="1"/>
<feColorMatrix type="matrix" values="0 0 0 0 0 0 0 0 0 0 0 0 0 0 0 0 0 0 0.25 0"/>
<feBlend mode="normal" in2="shape" result="effect1_innerShadow_2122_655"/>
</filter>
<filter id="filter3_i_2122_655" x="95" y="30" width="145" height="32.9998" filterUnits="userSpaceOnUse" color-interpolation-filters="sRGB">
<feFlood flood-opacity="0" result="BackgroundImageFix"/>
<feBlend mode="normal" in="SourceGraphic" in2="BackgroundImageFix" result="shape"/>
<feColorMatrix in="SourceAlpha" type="matrix" values="0 0 0 0 0 0 0 0 0 0 0 0 0 0 0 0 0 0 127 0" result="hardAlpha"/>
<feOffset dx="5" dy="10"/>
<feGaussianBlur stdDeviation="1"/>
<feComposite in2="hardAlpha" operator="arithmetic" k2="-1" k3="1"/>
<feColorMatrix type="matrix" values="0 0 0 0 0 0 0 0 0 0 0 0 0 0 0 0 0 0 0.25 0"/>
<feBlend mode="normal" in2="shape" result="effect1_innerShadow_2122_655"/>
</filter>
<filter id="filter4_i_2122_655" x="18" y="22" width="145" height="32.9998" filterUnits="userSpaceOnUse" color-interpolation-filters="sRGB">
<feFlood flood-opacity="0" result="BackgroundImageFix"/>
<feBlend mode="normal" in="SourceGraphic" in2="BackgroundImageFix" result="shape"/>
<feColorMatrix in="SourceAlpha" type="matrix" values="0 0 0 0 0 0 0 0 0 0 0 0 0 0 0 0 0 0 127 0" result="hardAlpha"/>
<feOffset dx="5" dy="10"/>
<feGaussianBlur stdDeviation="1"/>
<feComposite in2="hardAlpha" operator="arithmetic" k2="-1" k3="1"/>
<feColorMatrix type="matrix" values="0 0 0 0 0 0 0 0 0 0 0 0 0 0 0 0 0 0 0.25 0"/>
<feBlend mode="normal" in2="shape" result="effect1_innerShadow_2122_655"/>
</filter>
<filter id="filter5_i_2122_655" x="209" y="45" width="145" height="32.9998" filterUnits="userSpaceOnUse" color-interpolation-filters="sRGB">
<feFlood flood-opacity="0" result="BackgroundImageFix"/>
<feBlend mode="normal" in="SourceGraphic" in2="BackgroundImageFix" result="shape"/>
<feColorMatrix in="SourceAlpha" type="matrix" values="0 0 0 0 0 0 0 0 0 0 0 0 0 0 0 0 0 0 127 0" result="hardAlpha"/>
<feOffset dx="5" dy="10"/>
<feGaussianBlur stdDeviation="1"/>
<feComposite in2="hardAlpha" operator="arithmetic" k2="-1" k3="1"/>
<feColorMatrix type="matrix" values="0 0 0 0 0 0 0 0 0 0 0 0 0 0 0 0 0 0 0.25 0"/>
<feBlend mode="normal" in2="shape" result="effect1_innerShadow_2122_655"/>
</filter>
<filter id="filter6_i_2122_655" x="104" y="105" width="145" height="32.9998" filterUnits="userSpaceOnUse" color-interpolation-filters="sRGB">
<feFlood flood-opacity="0" result="BackgroundImageFix"/>
<feBlend mode="normal" in="SourceGraphic" in2="BackgroundImageFix" result="shape"/>
<feColorMatrix in="SourceAlpha" type="matrix" values="0 0 0 0 0 0 0 0 0 0 0 0 0 0 0 0 0 0 127 0" result="hardAlpha"/>
<feOffset dx="5" dy="10"/>
<feGaussianBlur stdDeviation="1"/>
<feComposite in2="hardAlpha" operator="arithmetic" k2="-1" k3="1"/>
<feColorMatrix type="matrix" values="0 0 0 0 0 0 0 0 0 0 0 0 0 0 0 0 0 0 0.25 0"/>
<feBlend mode="normal" in2="shape" result="effect1_innerShadow_2122_655"/>
</filter>
<filter id="filter7_i_2122_655" x="0" y="141" width="145" height="32.9998" filterUnits="userSpaceOnUse" color-interpolation-filters="sRGB">
<feFlood flood-opacity="0" result="BackgroundImageFix"/>
<feBlend mode="normal" in="SourceGraphic" in2="BackgroundImageFix" result="shape"/>
<feColorMatrix in="SourceAlpha" type="matrix" values="0 0 0 0 0 0 0 0 0 0 0 0 0 0 0 0 0 0 127 0" result="hardAlpha"/>
<feOffset dx="5" dy="10"/>
<feGaussianBlur stdDeviation="1"/>
<feComposite in2="hardAlpha" operator="arithmetic" k2="-1" k3="1"/>
<feColorMatrix type="matrix" values="0 0 0 0 0 0 0 0 0 0 0 0 0 0 0 0 0 0 0.25 0"/>
<feBlend mode="normal" in2="shape" result="effect1_innerShadow_2122_655"/>
</filter>
<filter id="filter8_i_2122_655" x="201" y="128" width="145" height="32.9998" filterUnits="userSpaceOnUse" color-interpolation-filters="sRGB">
<feFlood flood-opacity="0" result="BackgroundImageFix"/>
<feBlend mode="normal" in="SourceGraphic" in2="BackgroundImageFix" result="shape"/>
<feColorMatrix in="SourceAlpha" type="matrix" values="0 0 0 0 0 0 0 0 0 0 0 0 0 0 0 0 0 0 127 0" result="hardAlpha"/>
<feOffset dx="5" dy="10"/>
<feGaussianBlur stdDeviation="1"/>
<feComposite in2="hardAlpha" operator="arithmetic" k2="-1" k3="1"/>
<feColorMatrix type="matrix" values="0 0 0 0 0 0 0 0 0 0 0 0 0 0 0 0 0 0 0.25 0"/>
<feBlend mode="normal" in2="shape" result="effect1_innerShadow_2122_655"/>
</filter>
</defs>
</svg>
