<svg width="324" height="82" viewBox="0 0 324 82" fill="none" xmlns="http://www.w3.org/2000/svg">
<g opacity="0.8" filter="url(#filter0_i_2113_646)">
<path d="M196.092 61.4906C194.582 61.5077 193.079 61.6702 191.608 61.9752C191.608 61.9752 186.658 47.8502 168.919 54.8441C168.919 54.8441 164.31 30.9068 134.697 43.0369C134.697 43.0369 127.29 22.9034 106 23.0003C103.011 23.0003 100.042 23.0003 97.0948 23.0003C75.7691 22.9034 68.3974 43.0369 68.3974 43.0369C38.7045 30.9068 34.0771 54.8441 34.0771 54.8441C16.3385 47.8502 11.3882 61.9752 11.3882 61.9752C9.91698 61.6702 8.41378 61.5077 6.90421 61.4906C-2.37761 61.0868 0.384513 67.0065 0.384513 67.0065H202.621C202.621 67.0065 205.365 61.0868 196.092 61.4906Z" fill="#989595" fill-opacity="0.8"/>
</g>
<g opacity="0.8" filter="url(#filter1_i_2113_646)">
<path d="M268.796 24.4961C267.836 24.507 266.879 24.6104 265.943 24.8045C265.943 24.8045 262.792 15.8151 251.503 20.2661C251.503 20.2661 248.569 5.032 229.724 12.7519C229.724 12.7519 225.01 -0.0614546 211.46 0.000221947C209.558 0.000221947 207.669 0.000221947 205.793 0.000221947C192.221 -0.0614546 187.529 12.7519 187.529 12.7519C168.632 5.032 165.687 20.2661 165.687 20.2661C154.398 15.8151 151.248 24.8045 151.248 24.8045C150.311 24.6104 149.355 24.507 148.394 24.4961C142.487 24.2391 144.245 28.0065 144.245 28.0065H272.951C272.951 28.0065 274.698 24.2391 268.796 24.4961Z" fill="#989595" fill-opacity="0.8"/>
</g>
<g opacity="0.8" filter="url(#filter2_i_2113_646)">
<path d="M318.796 77.4961C317.836 77.507 316.879 77.6104 315.943 77.8045C315.943 77.8045 312.792 68.8151 301.503 73.2661C301.503 73.2661 298.569 58.032 279.724 65.7519C279.724 65.7519 275.01 52.9385 261.46 53.0002C259.558 53.0002 257.669 53.0002 255.793 53.0002C242.221 52.9385 237.529 65.7519 237.529 65.7519C218.632 58.032 215.687 73.2661 215.687 73.2661C204.398 68.8151 201.248 77.8045 201.248 77.8045C200.311 77.6104 199.355 77.507 198.394 77.4961C192.487 77.2391 194.245 81.0065 194.245 81.0065H322.951C322.951 81.0065 324.698 77.2391 318.796 77.4961Z" fill="#989595" fill-opacity="0.8"/>
</g>
<defs>
<filter id="filter0_i_2113_646" x="0" y="23" width="205" height="46.0065" filterUnits="userSpaceOnUse" color-interpolation-filters="sRGB">
<feFlood flood-opacity="0" result="BackgroundImageFix"/>
<feBlend mode="normal" in="SourceGraphic" in2="BackgroundImageFix" result="shape"/>
<feColorMatrix in="SourceAlpha" type="matrix" values="0 0 0 0 0 0 0 0 0 0 0 0 0 0 0 0 0 0 127 0" result="hardAlpha"/>
<feOffset dx="5" dy="10"/>
<feGaussianBlur stdDeviation="1"/>
<feComposite in2="hardAlpha" operator="arithmetic" k2="-1" k3="1"/>
<feColorMatrix type="matrix" values="0 0 0 0 0 0 0 0 0 0 0 0 0 0 0 0 0 0 0.25 0"/>
<feBlend mode="normal" in2="shape" result="effect1_innerShadow_2113_646"/>
</filter>
<filter id="filter1_i_2113_646" x="144" y="0" width="131.193" height="30.0065" filterUnits="userSpaceOnUse" color-interpolation-filters="sRGB">
<feFlood flood-opacity="0" result="BackgroundImageFix"/>
<feBlend mode="normal" in="SourceGraphic" in2="BackgroundImageFix" result="shape"/>
<feColorMatrix in="SourceAlpha" type="matrix" values="0 0 0 0 0 0 0 0 0 0 0 0 0 0 0 0 0 0 127 0" result="hardAlpha"/>
<feOffset dx="5" dy="10"/>
<feGaussianBlur stdDeviation="1"/>
<feComposite in2="hardAlpha" operator="arithmetic" k2="-1" k3="1"/>
<feColorMatrix type="matrix" values="0 0 0 0 0 0 0 0 0 0 0 0 0 0 0 0 0 0 0.25 0"/>
<feBlend mode="normal" in2="shape" result="effect1_innerShadow_2113_646"/>
</filter>
<filter id="filter2_i_2113_646" x="194" y="53" width="131.193" height="30.0065" filterUnits="userSpaceOnUse" color-interpolation-filters="sRGB">
<feFlood flood-opacity="0" result="BackgroundImageFix"/>
<feBlend mode="normal" in="SourceGraphic" in2="BackgroundImageFix" result="shape"/>
<feColorMatrix in="SourceAlpha" type="matrix" values="0 0 0 0 0 0 0 0 0 0 0 0 0 0 0 0 0 0 127 0" result="hardAlpha"/>
<feOffset dx="5" dy="10"/>
<feGaussianBlur stdDeviation="1"/>
<feComposite in2="hardAlpha" operator="arithmetic" k2="-1" k3="1"/>
<feColorMatrix type="matrix" values="0 0 0 0 0 0 0 0 0 0 0 0 0 0 0 0 0 0 0.25 0"/>
<feBlend mode="normal" in2="shape" result="effect1_innerShadow_2113_646"/>
</filter>
</defs>
</svg>
