<svg width="226" height="115" viewBox="0 0 226 115" fill="none" xmlns="http://www.w3.org/2000/svg">
<path fill-rule="evenodd" clip-rule="evenodd" d="M12.9276 69.5162C11.3008 69.9138 9.63535 70.1406 7.95947 70.1929C-0.207997 70.7331 -0.0555165 66.3226 0.354233 64.4818C-0.131583 62.3029 -0.466729 57.0489 7.71646 57.3541C9.3932 57.3469 11.0668 57.5484 12.7088 57.9552C12.7088 57.9552 17.8221 37.5838 37.7095 47.2461C37.7095 47.2461 42.1779 12.8026 75.3896 29.5852C75.3896 29.5852 83.0683 0.540787 106.712 0.232303L116.6 0.0451039C140.279 -0.542252 149.011 28.1914 149.011 28.1914C181.654 10.1622 187.442 44.4115 187.442 44.4115C206.95 34.0035 212.83 54.1667 212.83 54.1667C214.456 53.6981 216.121 53.4334 217.796 53.3772C225.373 52.8072 225.8 57.2882 225.497 59.6947C226.136 61.0639 226.584 66.4564 218.039 66.216C217.346 66.2206 216.5 66.0359 215.693 65.8598C214.549 65.61 213.484 65.3777 213.049 65.7277C212.958 65.8009 212.812 66.1133 212.588 66.5902C210.987 70.0009 205.438 81.8264 188.017 74.7773C188.017 74.7773 183.423 103.651 150.175 89.6928C150.175 89.6928 142.448 114.051 118.765 114.383L108.876 114.57C85.2376 115.134 76.5538 91.0865 76.5538 91.0865C43.9476 106.291 38.2843 77.6119 38.2843 77.6119C18.746 86.3924 12.9276 69.5162 12.9276 69.5162Z" fill="#989595"/>
</svg>
