<svg width="390" height="119" viewBox="0 0 390 119" fill="none" xmlns="http://www.w3.org/2000/svg">
<g opacity="0.8" filter="url(#filter0_i_2181_530)">
<path d="M430.134 34.1141C429.07 34.1261 428.011 34.2405 426.975 34.4554C426.975 34.4554 423.488 24.5053 410.992 29.432C410.992 29.432 407.745 12.5698 386.885 21.1147C386.885 21.1147 381.667 6.93198 366.67 7.00025C364.564 7.00025 362.473 7.00025 360.397 7.00025C345.374 6.93198 340.181 21.1147 340.181 21.1147C319.265 12.5698 316.005 29.432 316.005 29.432C303.509 24.5053 300.022 34.4554 300.022 34.4554C298.986 34.2405 297.927 34.1261 296.864 34.1141C290.325 33.8296 292.271 37.9997 292.271 37.9997H434.733C434.733 37.9997 436.666 33.8296 430.134 34.1141Z" fill="#989595" fill-opacity="0.44"/>
</g>
<path fill-rule="evenodd" clip-rule="evenodd" d="M-12.0724 71.5162C-13.6992 71.9138 -15.3646 72.1406 -17.0405 72.1929C-25.208 72.7331 -25.0555 68.3226 -24.6458 66.4818C-25.1316 64.3029 -25.4667 59.0489 -17.2835 59.3541C-15.6068 59.3469 -13.9332 59.5484 -12.2912 59.9552C-12.2912 59.9552 -7.17793 39.5838 12.7095 49.2461C12.7095 49.2461 17.1779 14.8026 50.3896 31.5852C50.3896 31.5852 58.0683 2.54079 81.7119 2.2323L91.6005 2.0451C115.279 1.45775 124.011 30.1914 124.011 30.1914C156.654 12.1622 162.442 46.4115 162.442 46.4115C181.95 36.0035 187.83 56.1667 187.83 56.1667C189.456 55.6981 191.121 55.4334 192.796 55.3772C200.373 54.8072 200.8 59.2882 200.497 61.6947C201.136 63.0639 201.584 68.4564 193.039 68.216C192.346 68.2206 191.5 68.0359 190.693 67.8598C189.549 67.61 188.484 67.3777 188.049 67.7277C187.958 67.8009 187.812 68.1133 187.588 68.5902C185.987 72.0009 180.438 83.8264 163.017 76.7773C163.017 76.7773 158.423 105.651 125.175 91.6928C125.175 91.6928 117.448 116.051 93.7649 116.383L83.8763 116.57C60.2376 117.134 51.5538 93.0865 51.5538 93.0865C18.9476 108.291 13.2843 79.6119 13.2843 79.6119C-6.25402 88.3924 -12.0724 71.5162 -12.0724 71.5162Z" fill="#989595"/>
<g opacity="0.8" filter="url(#filter1_i_2181_530)">
<path d="M457.134 86.1141C456.07 86.1261 455.011 86.2405 453.975 86.4554C453.975 86.4554 450.488 76.5053 437.992 81.432C437.992 81.432 434.745 64.5698 413.885 73.1147C413.885 73.1147 408.667 58.932 393.67 59.0002C391.564 59.0002 389.473 59.0002 387.397 59.0002C372.374 58.932 367.181 73.1147 367.181 73.1147C346.265 64.5698 343.005 81.432 343.005 81.432C330.509 76.5053 327.022 86.4554 327.022 86.4554C325.986 86.2405 324.927 86.1261 323.864 86.1141C317.325 85.8296 319.271 89.9997 319.271 89.9997H461.733C461.733 89.9997 463.666 85.8296 457.134 86.1141Z" fill="#989595"/>
</g>
<defs>
<filter id="filter0_i_2181_530" x="292" y="7" width="145" height="32.9998" filterUnits="userSpaceOnUse" color-interpolation-filters="sRGB">
<feFlood flood-opacity="0" result="BackgroundImageFix"/>
<feBlend mode="normal" in="SourceGraphic" in2="BackgroundImageFix" result="shape"/>
<feColorMatrix in="SourceAlpha" type="matrix" values="0 0 0 0 0 0 0 0 0 0 0 0 0 0 0 0 0 0 127 0" result="hardAlpha"/>
<feOffset dx="5" dy="10"/>
<feGaussianBlur stdDeviation="1"/>
<feComposite in2="hardAlpha" operator="arithmetic" k2="-1" k3="1"/>
<feColorMatrix type="matrix" values="0 0 0 0 0 0 0 0 0 0 0 0 0 0 0 0 0 0 0.25 0"/>
<feBlend mode="normal" in2="shape" result="effect1_innerShadow_2181_530"/>
</filter>
<filter id="filter1_i_2181_530" x="319" y="59" width="145" height="32.9998" filterUnits="userSpaceOnUse" color-interpolation-filters="sRGB">
<feFlood flood-opacity="0" result="BackgroundImageFix"/>
<feBlend mode="normal" in="SourceGraphic" in2="BackgroundImageFix" result="shape"/>
<feColorMatrix in="SourceAlpha" type="matrix" values="0 0 0 0 0 0 0 0 0 0 0 0 0 0 0 0 0 0 127 0" result="hardAlpha"/>
<feOffset dx="5" dy="10"/>
<feGaussianBlur stdDeviation="1"/>
<feComposite in2="hardAlpha" operator="arithmetic" k2="-1" k3="1"/>
<feColorMatrix type="matrix" values="0 0 0 0 0 0 0 0 0 0 0 0 0 0 0 0 0 0 0.25 0"/>
<feBlend mode="normal" in2="shape" result="effect1_innerShadow_2181_530"/>
</filter>
</defs>
</svg>
