<svg width="364" height="183" viewBox="0 0 364 183" fill="none" xmlns="http://www.w3.org/2000/svg">
<g opacity="0.8" filter="url(#filter0_i_2135_672)">
<path d="M340.517 115.359C338.974 115.377 337.437 115.543 335.932 115.855C335.932 115.855 330.87 101.411 312.731 108.563C312.731 108.563 308.018 84.0852 277.737 96.4891C277.737 96.4891 270.163 75.9013 248.392 76.0004C245.335 76.0004 242.3 76.0004 239.286 76.0004C217.479 75.9013 209.941 96.4891 209.941 96.4891C179.578 84.0852 174.846 108.563 174.846 108.563C156.707 101.411 151.645 115.855 151.645 115.855C150.141 115.543 148.604 115.377 147.06 115.359C137.569 114.946 140.393 121 140.393 121H347.193C347.193 121 350 114.946 340.517 115.359Z" fill="#989595" fill-opacity="0.51"/>
</g>
<g opacity="0.8" filter="url(#filter1_i_2135_672)">
<path d="M145.134 96.1141C144.07 96.1261 143.011 96.2405 141.975 96.4554C141.975 96.4554 138.488 86.5053 125.992 91.432C125.992 91.432 122.745 74.5698 101.885 83.1147C101.885 83.1147 96.6673 68.932 81.6699 69.0002C79.5642 69.0002 77.4731 69.0002 75.3968 69.0002C60.3743 68.932 55.1814 83.1147 55.1814 83.1147C34.2648 74.5698 31.005 91.432 31.005 91.432C18.5094 86.5053 15.0222 96.4554 15.0222 96.4554C13.9859 96.2405 12.9269 96.1261 11.8636 96.1141C5.32513 95.8296 7.27086 99.9997 7.27086 99.9997H149.733C149.733 99.9997 151.666 95.8296 145.134 96.1141Z" fill="#989595"/>
</g>
<g opacity="0.8" filter="url(#filter2_i_2135_672)">
<path d="M247.134 65.1141C246.07 65.1261 245.011 65.2405 243.975 65.4554C243.975 65.4554 240.488 55.5053 227.992 60.432C227.992 60.432 224.745 43.5698 203.885 52.1147C203.885 52.1147 198.667 37.932 183.67 38.0002C181.564 38.0002 179.473 38.0002 177.397 38.0002C162.374 37.932 157.181 52.1147 157.181 52.1147C136.265 43.5698 133.005 60.432 133.005 60.432C120.509 55.5053 117.022 65.4554 117.022 65.4554C115.986 65.2405 114.927 65.1261 113.864 65.1141C107.325 64.8296 109.271 68.9997 109.271 68.9997H251.733C251.733 68.9997 253.666 64.8296 247.134 65.1141Z" fill="#989595" fill-opacity="0.35"/>
</g>
<g opacity="0.8" filter="url(#filter3_i_2135_672)">
<path d="M138.134 34.1141C137.07 34.1261 136.011 34.2405 134.975 34.4554C134.975 34.4554 131.488 24.5053 118.992 29.432C118.992 29.432 115.745 12.5698 94.8854 21.1147C94.8854 21.1147 89.6673 6.93198 74.6699 7.00025C72.5642 7.00025 70.4731 7.00025 68.3968 7.00025C53.3743 6.93198 48.1814 21.1147 48.1814 21.1147C27.2648 12.5698 24.005 29.432 24.005 29.432C11.5094 24.5053 8.02222 34.4554 8.02222 34.4554C6.98585 34.2405 5.92694 34.1261 4.86356 34.1141C-1.67487 33.8296 0.270864 37.9997 0.270864 37.9997H142.733C142.733 37.9997 144.666 33.8296 138.134 34.1141Z" fill="#989595" fill-opacity="0.44"/>
</g>
<g opacity="0.8" filter="url(#filter4_i_2135_672)">
<path d="M386.134 84.1141C385.07 84.1261 384.011 84.2405 382.975 84.4554C382.975 84.4554 379.488 74.5053 366.992 79.432C366.992 79.432 363.745 62.5698 342.885 71.1147C342.885 71.1147 337.667 56.932 322.67 57.0002C320.564 57.0002 318.473 57.0002 316.397 57.0002C301.374 56.932 296.181 71.1147 296.181 71.1147C275.265 62.5698 272.005 79.432 272.005 79.432C259.509 74.5053 256.022 84.4554 256.022 84.4554C254.986 84.2405 253.927 84.1261 252.864 84.1141C246.325 83.8296 248.271 87.9997 248.271 87.9997H390.733C390.733 87.9997 392.666 83.8296 386.134 84.1141Z" fill="#989595" fill-opacity="0.44"/>
</g>
<g opacity="0.8" filter="url(#filter5_i_2135_672)">
<path d="M253.134 136.114C252.07 136.126 251.011 136.241 249.975 136.455C249.975 136.455 246.488 126.505 233.992 131.432C233.992 131.432 230.745 114.57 209.885 123.115C209.885 123.115 204.667 108.932 189.67 109C187.564 109 185.473 109 183.397 109C168.374 108.932 163.181 123.115 163.181 123.115C142.265 114.57 139.005 131.432 139.005 131.432C126.509 126.505 123.022 136.455 123.022 136.455C121.986 136.241 120.927 136.126 119.864 136.114C113.325 135.83 115.271 140 115.271 140H257.733C257.733 140 259.666 135.83 253.134 136.114Z" fill="#989595" fill-opacity="0.8"/>
</g>
<g opacity="0.8" filter="url(#filter6_i_2135_672)">
<path d="M144.134 179.114C143.07 179.126 142.011 179.241 140.975 179.455C140.975 179.455 137.488 169.505 124.992 174.432C124.992 174.432 121.745 157.57 100.885 166.115C100.885 166.115 95.6673 151.932 80.6699 152C78.5642 152 76.4731 152 74.3968 152C59.3743 151.932 54.1814 166.115 54.1814 166.115C33.2648 157.57 30.005 174.432 30.005 174.432C17.5094 169.505 14.0222 179.455 14.0222 179.455C12.9859 179.241 11.9269 179.126 10.8636 179.114C4.32513 178.83 6.27086 183 6.27086 183H148.733C148.733 183 150.666 178.83 144.134 179.114Z" fill="#989595" fill-opacity="0.4"/>
</g>
<g opacity="0.8" filter="url(#filter7_i_2135_672)">
<path d="M367.134 174.114C366.07 174.126 365.011 174.241 363.975 174.455C363.975 174.455 360.488 164.505 347.992 169.432C347.992 169.432 344.745 152.57 323.885 161.115C323.885 161.115 318.667 146.932 303.67 147C301.564 147 299.473 147 297.397 147C282.374 146.932 277.181 161.115 277.181 161.115C256.265 152.57 253.005 169.432 253.005 169.432C240.509 164.505 237.022 174.455 237.022 174.455C235.986 174.241 234.927 174.126 233.864 174.114C227.325 173.83 229.271 178 229.271 178H371.733C371.733 178 373.666 173.83 367.134 174.114Z" fill="#989595"/>
</g>
<g opacity="0.8" filter="url(#filter8_i_2135_672)">
<path d="M436.517 39.3593C434.974 39.3768 433.437 39.5429 431.932 39.8548C431.932 39.8548 426.87 25.4111 408.731 32.5627C408.731 32.5627 404.018 8.0852 373.737 20.4891C373.737 20.4891 366.163 -0.0987426 344.392 0.000356614C341.335 0.000356614 338.3 0.000356614 335.286 0.000356614C313.479 -0.0987426 305.941 20.4891 305.941 20.4891C275.578 8.0852 270.846 32.5627 270.846 32.5627C252.707 25.4111 247.645 39.8548 247.645 39.8548C246.141 39.5429 244.604 39.3768 243.06 39.3593C233.569 38.9464 236.393 44.9997 236.393 44.9997H443.193C443.193 44.9997 446 38.9464 436.517 39.3593Z" fill="#989595"/>
</g>
<defs>
<filter id="filter0_i_2135_672" x="140" y="76" width="209.582" height="46.9998" filterUnits="userSpaceOnUse" color-interpolation-filters="sRGB">
<feFlood flood-opacity="0" result="BackgroundImageFix"/>
<feBlend mode="normal" in="SourceGraphic" in2="BackgroundImageFix" result="shape"/>
<feColorMatrix in="SourceAlpha" type="matrix" values="0 0 0 0 0 0 0 0 0 0 0 0 0 0 0 0 0 0 127 0" result="hardAlpha"/>
<feOffset dx="5" dy="10"/>
<feGaussianBlur stdDeviation="1"/>
<feComposite in2="hardAlpha" operator="arithmetic" k2="-1" k3="1"/>
<feColorMatrix type="matrix" values="0 0 0 0 0 0 0 0 0 0 0 0 0 0 0 0 0 0 0.25 0"/>
<feBlend mode="normal" in2="shape" result="effect1_innerShadow_2135_672"/>
</filter>
<filter id="filter1_i_2135_672" x="7" y="69" width="145" height="32.9998" filterUnits="userSpaceOnUse" color-interpolation-filters="sRGB">
<feFlood flood-opacity="0" result="BackgroundImageFix"/>
<feBlend mode="normal" in="SourceGraphic" in2="BackgroundImageFix" result="shape"/>
<feColorMatrix in="SourceAlpha" type="matrix" values="0 0 0 0 0 0 0 0 0 0 0 0 0 0 0 0 0 0 127 0" result="hardAlpha"/>
<feOffset dx="5" dy="10"/>
<feGaussianBlur stdDeviation="1"/>
<feComposite in2="hardAlpha" operator="arithmetic" k2="-1" k3="1"/>
<feColorMatrix type="matrix" values="0 0 0 0 0 0 0 0 0 0 0 0 0 0 0 0 0 0 0.25 0"/>
<feBlend mode="normal" in2="shape" result="effect1_innerShadow_2135_672"/>
</filter>
<filter id="filter2_i_2135_672" x="109" y="38" width="145" height="32.9998" filterUnits="userSpaceOnUse" color-interpolation-filters="sRGB">
<feFlood flood-opacity="0" result="BackgroundImageFix"/>
<feBlend mode="normal" in="SourceGraphic" in2="BackgroundImageFix" result="shape"/>
<feColorMatrix in="SourceAlpha" type="matrix" values="0 0 0 0 0 0 0 0 0 0 0 0 0 0 0 0 0 0 127 0" result="hardAlpha"/>
<feOffset dx="5" dy="10"/>
<feGaussianBlur stdDeviation="1"/>
<feComposite in2="hardAlpha" operator="arithmetic" k2="-1" k3="1"/>
<feColorMatrix type="matrix" values="0 0 0 0 0 0 0 0 0 0 0 0 0 0 0 0 0 0 0.25 0"/>
<feBlend mode="normal" in2="shape" result="effect1_innerShadow_2135_672"/>
</filter>
<filter id="filter3_i_2135_672" x="0" y="7" width="145" height="32.9998" filterUnits="userSpaceOnUse" color-interpolation-filters="sRGB">
<feFlood flood-opacity="0" result="BackgroundImageFix"/>
<feBlend mode="normal" in="SourceGraphic" in2="BackgroundImageFix" result="shape"/>
<feColorMatrix in="SourceAlpha" type="matrix" values="0 0 0 0 0 0 0 0 0 0 0 0 0 0 0 0 0 0 127 0" result="hardAlpha"/>
<feOffset dx="5" dy="10"/>
<feGaussianBlur stdDeviation="1"/>
<feComposite in2="hardAlpha" operator="arithmetic" k2="-1" k3="1"/>
<feColorMatrix type="matrix" values="0 0 0 0 0 0 0 0 0 0 0 0 0 0 0 0 0 0 0.25 0"/>
<feBlend mode="normal" in2="shape" result="effect1_innerShadow_2135_672"/>
</filter>
<filter id="filter4_i_2135_672" x="248" y="57" width="145" height="32.9998" filterUnits="userSpaceOnUse" color-interpolation-filters="sRGB">
<feFlood flood-opacity="0" result="BackgroundImageFix"/>
<feBlend mode="normal" in="SourceGraphic" in2="BackgroundImageFix" result="shape"/>
<feColorMatrix in="SourceAlpha" type="matrix" values="0 0 0 0 0 0 0 0 0 0 0 0 0 0 0 0 0 0 127 0" result="hardAlpha"/>
<feOffset dx="5" dy="10"/>
<feGaussianBlur stdDeviation="1"/>
<feComposite in2="hardAlpha" operator="arithmetic" k2="-1" k3="1"/>
<feColorMatrix type="matrix" values="0 0 0 0 0 0 0 0 0 0 0 0 0 0 0 0 0 0 0.25 0"/>
<feBlend mode="normal" in2="shape" result="effect1_innerShadow_2135_672"/>
</filter>
<filter id="filter5_i_2135_672" x="115" y="109" width="145" height="32.9998" filterUnits="userSpaceOnUse" color-interpolation-filters="sRGB">
<feFlood flood-opacity="0" result="BackgroundImageFix"/>
<feBlend mode="normal" in="SourceGraphic" in2="BackgroundImageFix" result="shape"/>
<feColorMatrix in="SourceAlpha" type="matrix" values="0 0 0 0 0 0 0 0 0 0 0 0 0 0 0 0 0 0 127 0" result="hardAlpha"/>
<feOffset dx="5" dy="10"/>
<feGaussianBlur stdDeviation="1"/>
<feComposite in2="hardAlpha" operator="arithmetic" k2="-1" k3="1"/>
<feColorMatrix type="matrix" values="0 0 0 0 0 0 0 0 0 0 0 0 0 0 0 0 0 0 0.25 0"/>
<feBlend mode="normal" in2="shape" result="effect1_innerShadow_2135_672"/>
</filter>
<filter id="filter6_i_2135_672" x="6" y="152" width="145" height="32.9998" filterUnits="userSpaceOnUse" color-interpolation-filters="sRGB">
<feFlood flood-opacity="0" result="BackgroundImageFix"/>
<feBlend mode="normal" in="SourceGraphic" in2="BackgroundImageFix" result="shape"/>
<feColorMatrix in="SourceAlpha" type="matrix" values="0 0 0 0 0 0 0 0 0 0 0 0 0 0 0 0 0 0 127 0" result="hardAlpha"/>
<feOffset dx="5" dy="10"/>
<feGaussianBlur stdDeviation="1"/>
<feComposite in2="hardAlpha" operator="arithmetic" k2="-1" k3="1"/>
<feColorMatrix type="matrix" values="0 0 0 0 0 0 0 0 0 0 0 0 0 0 0 0 0 0 0.25 0"/>
<feBlend mode="normal" in2="shape" result="effect1_innerShadow_2135_672"/>
</filter>
<filter id="filter7_i_2135_672" x="229" y="147" width="145" height="32.9998" filterUnits="userSpaceOnUse" color-interpolation-filters="sRGB">
<feFlood flood-opacity="0" result="BackgroundImageFix"/>
<feBlend mode="normal" in="SourceGraphic" in2="BackgroundImageFix" result="shape"/>
<feColorMatrix in="SourceAlpha" type="matrix" values="0 0 0 0 0 0 0 0 0 0 0 0 0 0 0 0 0 0 127 0" result="hardAlpha"/>
<feOffset dx="5" dy="10"/>
<feGaussianBlur stdDeviation="1"/>
<feComposite in2="hardAlpha" operator="arithmetic" k2="-1" k3="1"/>
<feColorMatrix type="matrix" values="0 0 0 0 0 0 0 0 0 0 0 0 0 0 0 0 0 0 0.25 0"/>
<feBlend mode="normal" in2="shape" result="effect1_innerShadow_2135_672"/>
</filter>
<filter id="filter8_i_2135_672" x="236" y="0" width="209.582" height="46.9998" filterUnits="userSpaceOnUse" color-interpolation-filters="sRGB">
<feFlood flood-opacity="0" result="BackgroundImageFix"/>
<feBlend mode="normal" in="SourceGraphic" in2="BackgroundImageFix" result="shape"/>
<feColorMatrix in="SourceAlpha" type="matrix" values="0 0 0 0 0 0 0 0 0 0 0 0 0 0 0 0 0 0 127 0" result="hardAlpha"/>
<feOffset dx="5" dy="10"/>
<feGaussianBlur stdDeviation="1"/>
<feComposite in2="hardAlpha" operator="arithmetic" k2="-1" k3="1"/>
<feColorMatrix type="matrix" values="0 0 0 0 0 0 0 0 0 0 0 0 0 0 0 0 0 0 0.25 0"/>
<feBlend mode="normal" in2="shape" result="effect1_innerShadow_2135_672"/>
</filter>
</defs>
</svg>
