<svg width="350" height="137" viewBox="0 0 350 137" fill="none" xmlns="http://www.w3.org/2000/svg">
<g opacity="0.8" filter="url(#filter0_i_2113_652)">
<path d="M328.517 70.3593C326.974 70.3768 325.437 70.5429 323.932 70.8548C323.932 70.8548 318.87 56.4111 300.731 63.5627C300.731 63.5627 296.018 39.0852 265.737 51.4891C265.737 51.4891 258.163 30.9013 236.392 31.0004C233.335 31.0004 230.3 31.0004 227.286 31.0004C205.479 30.9013 197.941 51.4891 197.941 51.4891C167.578 39.0852 162.846 63.5627 162.846 63.5627C144.707 56.4111 139.645 70.8548 139.645 70.8548C138.141 70.5429 136.604 70.3768 135.06 70.3593C125.569 69.9464 128.393 75.9997 128.393 75.9997H335.193C335.193 75.9997 338 69.9464 328.517 70.3593Z" fill="#989595" fill-opacity="0.8"/>
</g>
<g opacity="0.8" filter="url(#filter1_i_2113_652)">
<path d="M174.134 66.1141C173.07 66.1261 172.011 66.2405 170.975 66.4554C170.975 66.4554 167.488 56.5053 154.992 61.432C154.992 61.432 151.745 44.5698 130.885 53.1147C130.885 53.1147 125.667 38.932 110.67 39.0002C108.564 39.0002 106.473 39.0002 104.397 39.0002C89.3743 38.932 84.1814 53.1147 84.1814 53.1147C63.2648 44.5698 60.005 61.432 60.005 61.432C47.5094 56.5053 44.0222 66.4554 44.0222 66.4554C42.9859 66.2405 41.9269 66.1261 40.8636 66.1141C34.3251 65.8296 36.2709 69.9997 36.2709 69.9997H178.733C178.733 69.9997 180.666 65.8296 174.134 66.1141Z" fill="#989595" fill-opacity="0.8"/>
</g>
<g opacity="0.8" filter="url(#filter2_i_2113_652)">
<path d="M246.134 27.1141C245.07 27.1261 244.011 27.2405 242.975 27.4554C242.975 27.4554 239.488 17.5053 226.992 22.432C226.992 22.432 223.745 5.56979 202.885 14.1147C202.885 14.1147 197.667 -0.0680225 182.67 0.000245667C180.564 0.000245667 178.473 0.000245667 176.397 0.000245667C161.374 -0.0680225 156.181 14.1147 156.181 14.1147C135.265 5.56979 132.005 22.432 132.005 22.432C119.509 17.5053 116.022 27.4554 116.022 27.4554C114.986 27.2405 113.927 27.1261 112.864 27.1141C106.325 26.8296 108.271 30.9997 108.271 30.9997H250.733C250.733 30.9997 252.666 26.8296 246.134 27.1141Z" fill="#989595" fill-opacity="0.4"/>
</g>
<g opacity="0.8" filter="url(#filter3_i_2113_652)">
<path d="M246.134 102.114C245.07 102.126 244.011 102.241 242.975 102.455C242.975 102.455 239.488 92.5053 226.992 97.432C226.992 97.432 223.745 80.5698 202.885 89.1147C202.885 89.1147 197.667 74.932 182.67 75.0002C180.564 75.0002 178.473 75.0002 176.397 75.0002C161.374 74.932 156.181 89.1147 156.181 89.1147C135.265 80.5698 132.005 97.432 132.005 97.432C119.509 92.5053 116.022 102.455 116.022 102.455C114.986 102.241 113.927 102.126 112.864 102.114C106.325 101.83 108.271 106 108.271 106H250.733C250.733 106 252.666 101.83 246.134 102.114Z" fill="#989595" fill-opacity="0.8"/>
</g>
<g opacity="0.8" filter="url(#filter4_i_2113_652)">
<path d="M345.134 122.114C344.07 122.126 343.011 122.241 341.975 122.455C341.975 122.455 338.488 112.505 325.992 117.432C325.992 117.432 322.745 100.57 301.885 109.115C301.885 109.115 296.667 94.932 281.67 95.0002C279.564 95.0002 277.473 95.0002 275.397 95.0002C260.374 94.932 255.181 109.115 255.181 109.115C234.265 100.57 231.005 117.432 231.005 117.432C218.509 112.505 215.022 122.455 215.022 122.455C213.986 122.241 212.927 122.126 211.864 122.114C205.325 121.83 207.271 126 207.271 126H349.733C349.733 126 351.666 121.83 345.134 122.114Z" fill="#989595" fill-opacity="0.8"/>
</g>
<g opacity="0.8" filter="url(#filter5_i_2113_652)">
<path d="M138.134 133.114C137.07 133.126 136.011 133.241 134.975 133.455C134.975 133.455 131.488 123.505 118.992 128.432C118.992 128.432 115.745 111.57 94.8854 120.115C94.8854 120.115 89.6673 105.932 74.6699 106C72.5642 106 70.4731 106 68.3968 106C53.3743 105.932 48.1814 120.115 48.1814 120.115C27.2648 111.57 24.005 128.432 24.005 128.432C11.5094 123.505 8.02222 133.455 8.02222 133.455C6.98585 133.241 5.92694 133.126 4.86356 133.114C-1.67487 132.83 0.270864 137 0.270864 137H142.733C142.733 137 144.666 132.83 138.134 133.114Z" fill="#989595" fill-opacity="0.4"/>
</g>
<defs>
<filter id="filter0_i_2113_652" x="128" y="31" width="209.581" height="46.9998" filterUnits="userSpaceOnUse" color-interpolation-filters="sRGB">
<feFlood flood-opacity="0" result="BackgroundImageFix"/>
<feBlend mode="normal" in="SourceGraphic" in2="BackgroundImageFix" result="shape"/>
<feColorMatrix in="SourceAlpha" type="matrix" values="0 0 0 0 0 0 0 0 0 0 0 0 0 0 0 0 0 0 127 0" result="hardAlpha"/>
<feOffset dx="5" dy="10"/>
<feGaussianBlur stdDeviation="1"/>
<feComposite in2="hardAlpha" operator="arithmetic" k2="-1" k3="1"/>
<feColorMatrix type="matrix" values="0 0 0 0 0 0 0 0 0 0 0 0 0 0 0 0 0 0 0.25 0"/>
<feBlend mode="normal" in2="shape" result="effect1_innerShadow_2113_652"/>
</filter>
<filter id="filter1_i_2113_652" x="36" y="39" width="145" height="32.9998" filterUnits="userSpaceOnUse" color-interpolation-filters="sRGB">
<feFlood flood-opacity="0" result="BackgroundImageFix"/>
<feBlend mode="normal" in="SourceGraphic" in2="BackgroundImageFix" result="shape"/>
<feColorMatrix in="SourceAlpha" type="matrix" values="0 0 0 0 0 0 0 0 0 0 0 0 0 0 0 0 0 0 127 0" result="hardAlpha"/>
<feOffset dx="5" dy="10"/>
<feGaussianBlur stdDeviation="1"/>
<feComposite in2="hardAlpha" operator="arithmetic" k2="-1" k3="1"/>
<feColorMatrix type="matrix" values="0 0 0 0 0 0 0 0 0 0 0 0 0 0 0 0 0 0 0.25 0"/>
<feBlend mode="normal" in2="shape" result="effect1_innerShadow_2113_652"/>
</filter>
<filter id="filter2_i_2113_652" x="108" y="0" width="145" height="32.9998" filterUnits="userSpaceOnUse" color-interpolation-filters="sRGB">
<feFlood flood-opacity="0" result="BackgroundImageFix"/>
<feBlend mode="normal" in="SourceGraphic" in2="BackgroundImageFix" result="shape"/>
<feColorMatrix in="SourceAlpha" type="matrix" values="0 0 0 0 0 0 0 0 0 0 0 0 0 0 0 0 0 0 127 0" result="hardAlpha"/>
<feOffset dx="5" dy="10"/>
<feGaussianBlur stdDeviation="1"/>
<feComposite in2="hardAlpha" operator="arithmetic" k2="-1" k3="1"/>
<feColorMatrix type="matrix" values="0 0 0 0 0 0 0 0 0 0 0 0 0 0 0 0 0 0 0.25 0"/>
<feBlend mode="normal" in2="shape" result="effect1_innerShadow_2113_652"/>
</filter>
<filter id="filter3_i_2113_652" x="108" y="75" width="145" height="32.9998" filterUnits="userSpaceOnUse" color-interpolation-filters="sRGB">
<feFlood flood-opacity="0" result="BackgroundImageFix"/>
<feBlend mode="normal" in="SourceGraphic" in2="BackgroundImageFix" result="shape"/>
<feColorMatrix in="SourceAlpha" type="matrix" values="0 0 0 0 0 0 0 0 0 0 0 0 0 0 0 0 0 0 127 0" result="hardAlpha"/>
<feOffset dx="5" dy="10"/>
<feGaussianBlur stdDeviation="1"/>
<feComposite in2="hardAlpha" operator="arithmetic" k2="-1" k3="1"/>
<feColorMatrix type="matrix" values="0 0 0 0 0 0 0 0 0 0 0 0 0 0 0 0 0 0 0.25 0"/>
<feBlend mode="normal" in2="shape" result="effect1_innerShadow_2113_652"/>
</filter>
<filter id="filter4_i_2113_652" x="207" y="95" width="145" height="32.9998" filterUnits="userSpaceOnUse" color-interpolation-filters="sRGB">
<feFlood flood-opacity="0" result="BackgroundImageFix"/>
<feBlend mode="normal" in="SourceGraphic" in2="BackgroundImageFix" result="shape"/>
<feColorMatrix in="SourceAlpha" type="matrix" values="0 0 0 0 0 0 0 0 0 0 0 0 0 0 0 0 0 0 127 0" result="hardAlpha"/>
<feOffset dx="5" dy="10"/>
<feGaussianBlur stdDeviation="1"/>
<feComposite in2="hardAlpha" operator="arithmetic" k2="-1" k3="1"/>
<feColorMatrix type="matrix" values="0 0 0 0 0 0 0 0 0 0 0 0 0 0 0 0 0 0 0.25 0"/>
<feBlend mode="normal" in2="shape" result="effect1_innerShadow_2113_652"/>
</filter>
<filter id="filter5_i_2113_652" x="0" y="106" width="145" height="32.9998" filterUnits="userSpaceOnUse" color-interpolation-filters="sRGB">
<feFlood flood-opacity="0" result="BackgroundImageFix"/>
<feBlend mode="normal" in="SourceGraphic" in2="BackgroundImageFix" result="shape"/>
<feColorMatrix in="SourceAlpha" type="matrix" values="0 0 0 0 0 0 0 0 0 0 0 0 0 0 0 0 0 0 127 0" result="hardAlpha"/>
<feOffset dx="5" dy="10"/>
<feGaussianBlur stdDeviation="1"/>
<feComposite in2="hardAlpha" operator="arithmetic" k2="-1" k3="1"/>
<feColorMatrix type="matrix" values="0 0 0 0 0 0 0 0 0 0 0 0 0 0 0 0 0 0 0.25 0"/>
<feBlend mode="normal" in2="shape" result="effect1_innerShadow_2113_652"/>
</filter>
</defs>
</svg>
