<svg width="377" height="206" viewBox="0 0 377 206" fill="none" xmlns="http://www.w3.org/2000/svg">
<g opacity="0.8" filter="url(#filter0_i_2133_664)">
<path d="M364.517 144.359C362.974 144.377 361.437 144.543 359.932 144.855C359.932 144.855 354.87 130.411 336.731 137.563C336.731 137.563 332.018 113.085 301.737 125.489C301.737 125.489 294.163 104.901 272.392 105C269.335 105 266.3 105 263.286 105C241.479 104.901 233.941 125.489 233.941 125.489C203.578 113.085 198.846 137.563 198.846 137.563C180.707 130.411 175.645 144.855 175.645 144.855C174.141 144.543 172.604 144.377 171.06 144.359C161.569 143.946 164.393 150 164.393 150H371.193C371.193 150 374 143.946 364.517 144.359Z" fill="#989595" fill-opacity="0.51"/>
</g>
<g opacity="0.8" filter="url(#filter1_i_2133_664)">
<path d="M454.517 39.3593C452.974 39.3768 451.437 39.5429 449.932 39.8548C449.932 39.8548 444.87 25.4111 426.731 32.5627C426.731 32.5627 422.018 8.0852 391.737 20.4891C391.737 20.4891 384.163 -0.0987426 362.392 0.000356614C359.335 0.000356614 356.3 0.000356614 353.286 0.000356614C331.479 -0.0987426 323.941 20.4891 323.941 20.4891C293.578 8.0852 288.846 32.5627 288.846 32.5627C270.707 25.4111 265.645 39.8548 265.645 39.8548C264.141 39.5429 262.604 39.3768 261.06 39.3593C251.569 38.9464 254.393 44.9997 254.393 44.9997H461.193C461.193 44.9997 464 38.9464 454.517 39.3593Z" fill="#989595"/>
</g>
<g opacity="0.8" filter="url(#filter2_i_2133_664)">
<path d="M162.134 132.114C161.07 132.126 160.011 132.241 158.975 132.455C158.975 132.455 155.488 122.505 142.992 127.432C142.992 127.432 139.745 110.57 118.885 119.115C118.885 119.115 113.667 104.932 98.6699 105C96.5642 105 94.4731 105 92.3968 105C77.3743 104.932 72.1814 119.115 72.1814 119.115C51.2648 110.57 48.005 127.432 48.005 127.432C35.5094 122.505 32.0222 132.455 32.0222 132.455C30.9859 132.241 29.9269 132.126 28.8636 132.114C22.3251 131.83 24.2709 136 24.2709 136H166.733C166.733 136 168.666 131.83 162.134 132.114Z" fill="#989595"/>
</g>
<g opacity="0.8" filter="url(#filter3_i_2133_664)">
<path d="M239.134 93.1141C238.07 93.1261 237.011 93.2405 235.975 93.4554C235.975 93.4554 232.488 83.5053 219.992 88.432C219.992 88.432 216.745 71.5698 195.885 80.1147C195.885 80.1147 190.667 65.932 175.67 66.0002C173.564 66.0002 171.473 66.0002 169.397 66.0002C154.374 65.932 149.181 80.1147 149.181 80.1147C128.265 71.5698 125.005 88.432 125.005 88.432C112.509 83.5053 109.022 93.4554 109.022 93.4554C107.986 93.2405 106.927 93.1261 105.864 93.1141C99.3251 92.8296 101.271 96.9997 101.271 96.9997H243.733C243.733 96.9997 245.666 92.8296 239.134 93.1141Z" fill="#989595" fill-opacity="0.35"/>
</g>
<g opacity="0.8" filter="url(#filter4_i_2133_664)">
<path d="M138.134 62.1141C137.07 62.1261 136.011 62.2405 134.975 62.4554C134.975 62.4554 131.488 52.5053 118.992 57.432C118.992 57.432 115.745 40.5698 94.8854 49.1147C94.8854 49.1147 89.6673 34.932 74.6699 35.0002C72.5642 35.0002 70.4731 35.0002 68.3968 35.0002C53.3743 34.932 48.1814 49.1147 48.1814 49.1147C27.2648 40.5698 24.005 57.432 24.005 57.432C11.5094 52.5053 8.02222 62.4554 8.02222 62.4554C6.98585 62.2405 5.92694 62.1261 4.86356 62.1141C-1.67487 61.8296 0.270864 65.9997 0.270864 65.9997H142.733C142.733 65.9997 144.666 61.8296 138.134 62.1141Z" fill="#989595" fill-opacity="0.44"/>
</g>
<g opacity="0.8" filter="url(#filter5_i_2133_664)">
<path d="M375.134 87.1141C374.07 87.1261 373.011 87.2405 371.975 87.4554C371.975 87.4554 368.488 77.5053 355.992 82.432C355.992 82.432 352.745 65.5698 331.885 74.1147C331.885 74.1147 326.667 59.932 311.67 60.0002C309.564 60.0002 307.473 60.0002 305.397 60.0002C290.374 59.932 285.181 74.1147 285.181 74.1147C264.265 65.5698 261.005 82.432 261.005 82.432C248.509 77.5053 245.022 87.4554 245.022 87.4554C243.986 87.2405 242.927 87.1261 241.864 87.1141C235.325 86.8296 237.271 90.9997 237.271 90.9997H379.733C379.733 90.9997 381.666 86.8296 375.134 87.1141Z" fill="#989595" fill-opacity="0.44"/>
</g>
<g opacity="0.8" filter="url(#filter6_i_2133_664)">
<path d="M214.134 169.114C213.07 169.126 212.011 169.241 210.975 169.455C210.975 169.455 207.488 159.505 194.992 164.432C194.992 164.432 191.745 147.57 170.885 156.115C170.885 156.115 165.667 141.932 150.67 142C148.564 142 146.473 142 144.397 142C129.374 141.932 124.181 156.115 124.181 156.115C103.265 147.57 100.005 164.432 100.005 164.432C87.5094 159.505 84.0222 169.455 84.0222 169.455C82.9859 169.241 81.9269 169.126 80.8636 169.114C74.3251 168.83 76.2709 173 76.2709 173H218.733C218.733 173 220.666 168.83 214.134 169.114Z" fill="#989595" fill-opacity="0.8"/>
</g>
<g opacity="0.8" filter="url(#filter7_i_2133_664)">
<path d="M138.134 200.114C137.07 200.126 136.011 200.241 134.975 200.455C134.975 200.455 131.488 190.505 118.992 195.432C118.992 195.432 115.745 178.57 94.8854 187.115C94.8854 187.115 89.6673 172.932 74.6699 173C72.5642 173 70.4731 173 68.3968 173C53.3743 172.932 48.1814 187.115 48.1814 187.115C27.2648 178.57 24.005 195.432 24.005 195.432C11.5094 190.505 8.02222 200.455 8.02222 200.455C6.98585 200.241 5.92694 200.126 4.86356 200.114C-1.67487 199.83 0.270864 204 0.270864 204H142.733C142.733 204 144.666 199.83 138.134 200.114Z" fill="#989595" fill-opacity="0.4"/>
</g>
<g opacity="0.8" filter="url(#filter8_i_2133_664)">
<path d="M346.134 202.114C345.07 202.126 344.011 202.241 342.975 202.455C342.975 202.455 339.488 192.505 326.992 197.432C326.992 197.432 323.745 180.57 302.885 189.115C302.885 189.115 297.667 174.932 282.67 175C280.564 175 278.473 175 276.397 175C261.374 174.932 256.181 189.115 256.181 189.115C235.265 180.57 232.005 197.432 232.005 197.432C219.509 192.505 216.022 202.455 216.022 202.455C214.986 202.241 213.927 202.126 212.864 202.114C206.325 201.83 208.271 206 208.271 206H350.733C350.733 206 352.666 201.83 346.134 202.114Z" fill="#989595"/>
</g>
<defs>
<filter id="filter0_i_2133_664" x="164" y="105" width="209.581" height="46.9998" filterUnits="userSpaceOnUse" color-interpolation-filters="sRGB">
<feFlood flood-opacity="0" result="BackgroundImageFix"/>
<feBlend mode="normal" in="SourceGraphic" in2="BackgroundImageFix" result="shape"/>
<feColorMatrix in="SourceAlpha" type="matrix" values="0 0 0 0 0 0 0 0 0 0 0 0 0 0 0 0 0 0 127 0" result="hardAlpha"/>
<feOffset dx="5" dy="10"/>
<feGaussianBlur stdDeviation="1"/>
<feComposite in2="hardAlpha" operator="arithmetic" k2="-1" k3="1"/>
<feColorMatrix type="matrix" values="0 0 0 0 0 0 0 0 0 0 0 0 0 0 0 0 0 0 0.25 0"/>
<feBlend mode="normal" in2="shape" result="effect1_innerShadow_2133_664"/>
</filter>
<filter id="filter1_i_2133_664" x="254" y="0" width="209.581" height="46.9998" filterUnits="userSpaceOnUse" color-interpolation-filters="sRGB">
<feFlood flood-opacity="0" result="BackgroundImageFix"/>
<feBlend mode="normal" in="SourceGraphic" in2="BackgroundImageFix" result="shape"/>
<feColorMatrix in="SourceAlpha" type="matrix" values="0 0 0 0 0 0 0 0 0 0 0 0 0 0 0 0 0 0 127 0" result="hardAlpha"/>
<feOffset dx="5" dy="10"/>
<feGaussianBlur stdDeviation="1"/>
<feComposite in2="hardAlpha" operator="arithmetic" k2="-1" k3="1"/>
<feColorMatrix type="matrix" values="0 0 0 0 0 0 0 0 0 0 0 0 0 0 0 0 0 0 0.25 0"/>
<feBlend mode="normal" in2="shape" result="effect1_innerShadow_2133_664"/>
</filter>
<filter id="filter2_i_2133_664" x="24" y="105" width="145" height="32.9998" filterUnits="userSpaceOnUse" color-interpolation-filters="sRGB">
<feFlood flood-opacity="0" result="BackgroundImageFix"/>
<feBlend mode="normal" in="SourceGraphic" in2="BackgroundImageFix" result="shape"/>
<feColorMatrix in="SourceAlpha" type="matrix" values="0 0 0 0 0 0 0 0 0 0 0 0 0 0 0 0 0 0 127 0" result="hardAlpha"/>
<feOffset dx="5" dy="10"/>
<feGaussianBlur stdDeviation="1"/>
<feComposite in2="hardAlpha" operator="arithmetic" k2="-1" k3="1"/>
<feColorMatrix type="matrix" values="0 0 0 0 0 0 0 0 0 0 0 0 0 0 0 0 0 0 0.25 0"/>
<feBlend mode="normal" in2="shape" result="effect1_innerShadow_2133_664"/>
</filter>
<filter id="filter3_i_2133_664" x="101" y="66" width="145" height="32.9998" filterUnits="userSpaceOnUse" color-interpolation-filters="sRGB">
<feFlood flood-opacity="0" result="BackgroundImageFix"/>
<feBlend mode="normal" in="SourceGraphic" in2="BackgroundImageFix" result="shape"/>
<feColorMatrix in="SourceAlpha" type="matrix" values="0 0 0 0 0 0 0 0 0 0 0 0 0 0 0 0 0 0 127 0" result="hardAlpha"/>
<feOffset dx="5" dy="10"/>
<feGaussianBlur stdDeviation="1"/>
<feComposite in2="hardAlpha" operator="arithmetic" k2="-1" k3="1"/>
<feColorMatrix type="matrix" values="0 0 0 0 0 0 0 0 0 0 0 0 0 0 0 0 0 0 0.25 0"/>
<feBlend mode="normal" in2="shape" result="effect1_innerShadow_2133_664"/>
</filter>
<filter id="filter4_i_2133_664" x="0" y="35" width="145" height="32.9998" filterUnits="userSpaceOnUse" color-interpolation-filters="sRGB">
<feFlood flood-opacity="0" result="BackgroundImageFix"/>
<feBlend mode="normal" in="SourceGraphic" in2="BackgroundImageFix" result="shape"/>
<feColorMatrix in="SourceAlpha" type="matrix" values="0 0 0 0 0 0 0 0 0 0 0 0 0 0 0 0 0 0 127 0" result="hardAlpha"/>
<feOffset dx="5" dy="10"/>
<feGaussianBlur stdDeviation="1"/>
<feComposite in2="hardAlpha" operator="arithmetic" k2="-1" k3="1"/>
<feColorMatrix type="matrix" values="0 0 0 0 0 0 0 0 0 0 0 0 0 0 0 0 0 0 0.25 0"/>
<feBlend mode="normal" in2="shape" result="effect1_innerShadow_2133_664"/>
</filter>
<filter id="filter5_i_2133_664" x="237" y="60" width="145" height="32.9998" filterUnits="userSpaceOnUse" color-interpolation-filters="sRGB">
<feFlood flood-opacity="0" result="BackgroundImageFix"/>
<feBlend mode="normal" in="SourceGraphic" in2="BackgroundImageFix" result="shape"/>
<feColorMatrix in="SourceAlpha" type="matrix" values="0 0 0 0 0 0 0 0 0 0 0 0 0 0 0 0 0 0 127 0" result="hardAlpha"/>
<feOffset dx="5" dy="10"/>
<feGaussianBlur stdDeviation="1"/>
<feComposite in2="hardAlpha" operator="arithmetic" k2="-1" k3="1"/>
<feColorMatrix type="matrix" values="0 0 0 0 0 0 0 0 0 0 0 0 0 0 0 0 0 0 0.25 0"/>
<feBlend mode="normal" in2="shape" result="effect1_innerShadow_2133_664"/>
</filter>
<filter id="filter6_i_2133_664" x="76" y="142" width="145" height="32.9998" filterUnits="userSpaceOnUse" color-interpolation-filters="sRGB">
<feFlood flood-opacity="0" result="BackgroundImageFix"/>
<feBlend mode="normal" in="SourceGraphic" in2="BackgroundImageFix" result="shape"/>
<feColorMatrix in="SourceAlpha" type="matrix" values="0 0 0 0 0 0 0 0 0 0 0 0 0 0 0 0 0 0 127 0" result="hardAlpha"/>
<feOffset dx="5" dy="10"/>
<feGaussianBlur stdDeviation="1"/>
<feComposite in2="hardAlpha" operator="arithmetic" k2="-1" k3="1"/>
<feColorMatrix type="matrix" values="0 0 0 0 0 0 0 0 0 0 0 0 0 0 0 0 0 0 0.25 0"/>
<feBlend mode="normal" in2="shape" result="effect1_innerShadow_2133_664"/>
</filter>
<filter id="filter7_i_2133_664" x="0" y="173" width="145" height="32.9998" filterUnits="userSpaceOnUse" color-interpolation-filters="sRGB">
<feFlood flood-opacity="0" result="BackgroundImageFix"/>
<feBlend mode="normal" in="SourceGraphic" in2="BackgroundImageFix" result="shape"/>
<feColorMatrix in="SourceAlpha" type="matrix" values="0 0 0 0 0 0 0 0 0 0 0 0 0 0 0 0 0 0 127 0" result="hardAlpha"/>
<feOffset dx="5" dy="10"/>
<feGaussianBlur stdDeviation="1"/>
<feComposite in2="hardAlpha" operator="arithmetic" k2="-1" k3="1"/>
<feColorMatrix type="matrix" values="0 0 0 0 0 0 0 0 0 0 0 0 0 0 0 0 0 0 0.25 0"/>
<feBlend mode="normal" in2="shape" result="effect1_innerShadow_2133_664"/>
</filter>
<filter id="filter8_i_2133_664" x="208" y="175" width="145" height="32.9998" filterUnits="userSpaceOnUse" color-interpolation-filters="sRGB">
<feFlood flood-opacity="0" result="BackgroundImageFix"/>
<feBlend mode="normal" in="SourceGraphic" in2="BackgroundImageFix" result="shape"/>
<feColorMatrix in="SourceAlpha" type="matrix" values="0 0 0 0 0 0 0 0 0 0 0 0 0 0 0 0 0 0 127 0" result="hardAlpha"/>
<feOffset dx="5" dy="10"/>
<feGaussianBlur stdDeviation="1"/>
<feComposite in2="hardAlpha" operator="arithmetic" k2="-1" k3="1"/>
<feColorMatrix type="matrix" values="0 0 0 0 0 0 0 0 0 0 0 0 0 0 0 0 0 0 0.25 0"/>
<feBlend mode="normal" in2="shape" result="effect1_innerShadow_2133_664"/>
</filter>
</defs>
</svg>
