<svg width="386" height="172" viewBox="0 0 386 172" fill="none" xmlns="http://www.w3.org/2000/svg">
<g opacity="0.8" filter="url(#filter0_i_2135_666)">
<path d="M319.517 107.359C317.974 107.377 316.437 107.543 314.932 107.855C314.932 107.855 309.87 93.4111 291.731 100.563C291.731 100.563 287.018 76.0852 256.737 88.4891C256.737 88.4891 249.163 67.9013 227.392 68.0004C224.335 68.0004 221.3 68.0004 218.286 68.0004C196.479 67.9013 188.941 88.4891 188.941 88.4891C158.578 76.0852 153.846 100.563 153.846 100.563C135.707 93.4111 130.645 107.855 130.645 107.855C129.141 107.543 127.604 107.377 126.06 107.359C116.569 106.946 119.393 113 119.393 113H326.193C326.193 113 329 106.946 319.517 107.359Z" fill="#989595" fill-opacity="0.51"/>
</g>
<g opacity="0.8" filter="url(#filter1_i_2135_666)">
<path d="M400.517 39.3593C398.974 39.3768 397.437 39.5429 395.932 39.8548C395.932 39.8548 390.87 25.4111 372.731 32.5627C372.731 32.5627 368.018 8.0852 337.737 20.4891C337.737 20.4891 330.163 -0.0987426 308.392 0.000356614C305.335 0.000356614 302.3 0.000356614 299.286 0.000356614C277.479 -0.0987426 269.941 20.4891 269.941 20.4891C239.578 8.0852 234.846 32.5627 234.846 32.5627C216.707 25.4111 211.645 39.8548 211.645 39.8548C210.141 39.5429 208.604 39.3768 207.06 39.3593C197.569 38.9464 200.393 44.9997 200.393 44.9997H407.193C407.193 44.9997 410 38.9464 400.517 39.3593Z" fill="#989595"/>
</g>
<g opacity="0.8" filter="url(#filter2_i_2135_666)">
<path d="M146.134 96.1141C145.07 96.1261 144.011 96.2405 142.975 96.4554C142.975 96.4554 139.488 86.5053 126.992 91.432C126.992 91.432 123.745 74.5698 102.885 83.1147C102.885 83.1147 97.6673 68.932 82.6699 69.0002C80.5642 69.0002 78.4731 69.0002 76.3968 69.0002C61.3743 68.932 56.1814 83.1147 56.1814 83.1147C35.2648 74.5698 32.005 91.432 32.005 91.432C19.5094 86.5053 16.0222 96.4554 16.0222 96.4554C14.9859 96.2405 13.9269 96.1261 12.8636 96.1141C6.32513 95.8296 8.27086 99.9997 8.27086 99.9997H150.733C150.733 99.9997 152.666 95.8296 146.134 96.1141Z" fill="#989595"/>
</g>
<g opacity="0.8" filter="url(#filter3_i_2135_666)">
<path d="M218.134 58.1141C217.07 58.1261 216.011 58.2405 214.975 58.4554C214.975 58.4554 211.488 48.5053 198.992 53.432C198.992 53.432 195.745 36.5698 174.885 45.1147C174.885 45.1147 169.667 30.932 154.67 31.0002C152.564 31.0002 150.473 31.0002 148.397 31.0002C133.374 30.932 128.181 45.1147 128.181 45.1147C107.265 36.5698 104.005 53.432 104.005 53.432C91.5094 48.5053 88.0222 58.4554 88.0222 58.4554C86.9859 58.2405 85.9269 58.1261 84.8636 58.1141C78.3251 57.8296 80.2709 61.9997 80.2709 61.9997H222.733C222.733 61.9997 224.666 57.8296 218.134 58.1141Z" fill="#989595" fill-opacity="0.35"/>
</g>
<g opacity="0.8" filter="url(#filter4_i_2135_666)">
<path d="M157.134 27.1141C156.07 27.1261 155.011 27.2405 153.975 27.4554C153.975 27.4554 150.488 17.5053 137.992 22.432C137.992 22.432 134.745 5.56979 113.885 14.1147C113.885 14.1147 108.667 -0.0680225 93.6699 0.000245667C91.5642 0.000245667 89.4731 0.000245667 87.3968 0.000245667C72.3743 -0.0680225 67.1814 14.1147 67.1814 14.1147C46.2648 5.56979 43.005 22.432 43.005 22.432C30.5094 17.5053 27.0222 27.4554 27.0222 27.4554C25.9859 27.2405 24.9269 27.1261 23.8636 27.1141C17.3251 26.8296 19.2709 30.9997 19.2709 30.9997H161.733C161.733 30.9997 163.666 26.8296 157.134 27.1141Z" fill="#989595" fill-opacity="0.44"/>
</g>
<g opacity="0.8" filter="url(#filter5_i_2135_666)">
<path d="M347.134 72.1141C346.07 72.1261 345.011 72.2405 343.975 72.4554C343.975 72.4554 340.488 62.5053 327.992 67.432C327.992 67.432 324.745 50.5698 303.885 59.1147C303.885 59.1147 298.667 44.932 283.67 45.0002C281.564 45.0002 279.473 45.0002 277.397 45.0002C262.374 44.932 257.181 59.1147 257.181 59.1147C236.265 50.5698 233.005 67.432 233.005 67.432C220.509 62.5053 217.022 72.4554 217.022 72.4554C215.986 72.2405 214.927 72.1261 213.864 72.1141C207.325 71.8296 209.271 75.9997 209.271 75.9997H351.733C351.733 75.9997 353.666 71.8296 347.134 72.1141Z" fill="#989595" fill-opacity="0.44"/>
</g>
<g opacity="0.8" filter="url(#filter6_i_2135_666)">
<path d="M236.134 139.114C235.07 139.126 234.011 139.241 232.975 139.455C232.975 139.455 229.488 129.505 216.992 134.432C216.992 134.432 213.745 117.57 192.885 126.115C192.885 126.115 187.667 111.932 172.67 112C170.564 112 168.473 112 166.397 112C151.374 111.932 146.181 126.115 146.181 126.115C125.265 117.57 122.005 134.432 122.005 134.432C109.509 129.505 106.022 139.455 106.022 139.455C104.986 139.241 103.927 139.126 102.864 139.114C96.3251 138.83 98.2709 143 98.2709 143H240.733C240.733 143 242.666 138.83 236.134 139.114Z" fill="#989595" fill-opacity="0.8"/>
</g>
<g opacity="0.8" filter="url(#filter7_i_2135_666)">
<path d="M138.134 168.114C137.07 168.126 136.011 168.241 134.975 168.455C134.975 168.455 131.488 158.505 118.992 163.432C118.992 163.432 115.745 146.57 94.8854 155.115C94.8854 155.115 89.6673 140.932 74.6699 141C72.5642 141 70.4731 141 68.3968 141C53.3743 140.932 48.1814 155.115 48.1814 155.115C27.2648 146.57 24.005 163.432 24.005 163.432C11.5094 158.505 8.02222 168.455 8.02222 168.455C6.98585 168.241 5.92694 168.126 4.86356 168.114C-1.67487 167.83 0.270864 172 0.270864 172H142.733C142.733 172 144.666 167.83 138.134 168.114Z" fill="#989595" fill-opacity="0.4"/>
</g>
<g opacity="0.8" filter="url(#filter8_i_2135_666)">
<path d="M354.134 155.114C353.07 155.126 352.011 155.241 350.975 155.455C350.975 155.455 347.488 145.505 334.992 150.432C334.992 150.432 331.745 133.57 310.885 142.115C310.885 142.115 305.667 127.932 290.67 128C288.564 128 286.473 128 284.397 128C269.374 127.932 264.181 142.115 264.181 142.115C243.265 133.57 240.005 150.432 240.005 150.432C227.509 145.505 224.022 155.455 224.022 155.455C222.986 155.241 221.927 155.126 220.864 155.114C214.325 154.83 216.271 159 216.271 159H358.733C358.733 159 360.666 154.83 354.134 155.114Z" fill="#989595"/>
</g>
<defs>
<filter id="filter0_i_2135_666" x="119" y="68" width="209.581" height="46.9998" filterUnits="userSpaceOnUse" color-interpolation-filters="sRGB">
<feFlood flood-opacity="0" result="BackgroundImageFix"/>
<feBlend mode="normal" in="SourceGraphic" in2="BackgroundImageFix" result="shape"/>
<feColorMatrix in="SourceAlpha" type="matrix" values="0 0 0 0 0 0 0 0 0 0 0 0 0 0 0 0 0 0 127 0" result="hardAlpha"/>
<feOffset dx="5" dy="10"/>
<feGaussianBlur stdDeviation="1"/>
<feComposite in2="hardAlpha" operator="arithmetic" k2="-1" k3="1"/>
<feColorMatrix type="matrix" values="0 0 0 0 0 0 0 0 0 0 0 0 0 0 0 0 0 0 0.25 0"/>
<feBlend mode="normal" in2="shape" result="effect1_innerShadow_2135_666"/>
</filter>
<filter id="filter1_i_2135_666" x="200" y="0" width="209.581" height="46.9998" filterUnits="userSpaceOnUse" color-interpolation-filters="sRGB">
<feFlood flood-opacity="0" result="BackgroundImageFix"/>
<feBlend mode="normal" in="SourceGraphic" in2="BackgroundImageFix" result="shape"/>
<feColorMatrix in="SourceAlpha" type="matrix" values="0 0 0 0 0 0 0 0 0 0 0 0 0 0 0 0 0 0 127 0" result="hardAlpha"/>
<feOffset dx="5" dy="10"/>
<feGaussianBlur stdDeviation="1"/>
<feComposite in2="hardAlpha" operator="arithmetic" k2="-1" k3="1"/>
<feColorMatrix type="matrix" values="0 0 0 0 0 0 0 0 0 0 0 0 0 0 0 0 0 0 0.25 0"/>
<feBlend mode="normal" in2="shape" result="effect1_innerShadow_2135_666"/>
</filter>
<filter id="filter2_i_2135_666" x="8" y="69" width="145" height="32.9998" filterUnits="userSpaceOnUse" color-interpolation-filters="sRGB">
<feFlood flood-opacity="0" result="BackgroundImageFix"/>
<feBlend mode="normal" in="SourceGraphic" in2="BackgroundImageFix" result="shape"/>
<feColorMatrix in="SourceAlpha" type="matrix" values="0 0 0 0 0 0 0 0 0 0 0 0 0 0 0 0 0 0 127 0" result="hardAlpha"/>
<feOffset dx="5" dy="10"/>
<feGaussianBlur stdDeviation="1"/>
<feComposite in2="hardAlpha" operator="arithmetic" k2="-1" k3="1"/>
<feColorMatrix type="matrix" values="0 0 0 0 0 0 0 0 0 0 0 0 0 0 0 0 0 0 0.25 0"/>
<feBlend mode="normal" in2="shape" result="effect1_innerShadow_2135_666"/>
</filter>
<filter id="filter3_i_2135_666" x="80" y="31" width="145" height="32.9998" filterUnits="userSpaceOnUse" color-interpolation-filters="sRGB">
<feFlood flood-opacity="0" result="BackgroundImageFix"/>
<feBlend mode="normal" in="SourceGraphic" in2="BackgroundImageFix" result="shape"/>
<feColorMatrix in="SourceAlpha" type="matrix" values="0 0 0 0 0 0 0 0 0 0 0 0 0 0 0 0 0 0 127 0" result="hardAlpha"/>
<feOffset dx="5" dy="10"/>
<feGaussianBlur stdDeviation="1"/>
<feComposite in2="hardAlpha" operator="arithmetic" k2="-1" k3="1"/>
<feColorMatrix type="matrix" values="0 0 0 0 0 0 0 0 0 0 0 0 0 0 0 0 0 0 0.25 0"/>
<feBlend mode="normal" in2="shape" result="effect1_innerShadow_2135_666"/>
</filter>
<filter id="filter4_i_2135_666" x="19" y="0" width="145" height="32.9998" filterUnits="userSpaceOnUse" color-interpolation-filters="sRGB">
<feFlood flood-opacity="0" result="BackgroundImageFix"/>
<feBlend mode="normal" in="SourceGraphic" in2="BackgroundImageFix" result="shape"/>
<feColorMatrix in="SourceAlpha" type="matrix" values="0 0 0 0 0 0 0 0 0 0 0 0 0 0 0 0 0 0 127 0" result="hardAlpha"/>
<feOffset dx="5" dy="10"/>
<feGaussianBlur stdDeviation="1"/>
<feComposite in2="hardAlpha" operator="arithmetic" k2="-1" k3="1"/>
<feColorMatrix type="matrix" values="0 0 0 0 0 0 0 0 0 0 0 0 0 0 0 0 0 0 0.25 0"/>
<feBlend mode="normal" in2="shape" result="effect1_innerShadow_2135_666"/>
</filter>
<filter id="filter5_i_2135_666" x="209" y="45" width="145" height="32.9998" filterUnits="userSpaceOnUse" color-interpolation-filters="sRGB">
<feFlood flood-opacity="0" result="BackgroundImageFix"/>
<feBlend mode="normal" in="SourceGraphic" in2="BackgroundImageFix" result="shape"/>
<feColorMatrix in="SourceAlpha" type="matrix" values="0 0 0 0 0 0 0 0 0 0 0 0 0 0 0 0 0 0 127 0" result="hardAlpha"/>
<feOffset dx="5" dy="10"/>
<feGaussianBlur stdDeviation="1"/>
<feComposite in2="hardAlpha" operator="arithmetic" k2="-1" k3="1"/>
<feColorMatrix type="matrix" values="0 0 0 0 0 0 0 0 0 0 0 0 0 0 0 0 0 0 0.25 0"/>
<feBlend mode="normal" in2="shape" result="effect1_innerShadow_2135_666"/>
</filter>
<filter id="filter6_i_2135_666" x="98" y="112" width="145" height="32.9998" filterUnits="userSpaceOnUse" color-interpolation-filters="sRGB">
<feFlood flood-opacity="0" result="BackgroundImageFix"/>
<feBlend mode="normal" in="SourceGraphic" in2="BackgroundImageFix" result="shape"/>
<feColorMatrix in="SourceAlpha" type="matrix" values="0 0 0 0 0 0 0 0 0 0 0 0 0 0 0 0 0 0 127 0" result="hardAlpha"/>
<feOffset dx="5" dy="10"/>
<feGaussianBlur stdDeviation="1"/>
<feComposite in2="hardAlpha" operator="arithmetic" k2="-1" k3="1"/>
<feColorMatrix type="matrix" values="0 0 0 0 0 0 0 0 0 0 0 0 0 0 0 0 0 0 0.25 0"/>
<feBlend mode="normal" in2="shape" result="effect1_innerShadow_2135_666"/>
</filter>
<filter id="filter7_i_2135_666" x="0" y="141" width="145" height="32.9998" filterUnits="userSpaceOnUse" color-interpolation-filters="sRGB">
<feFlood flood-opacity="0" result="BackgroundImageFix"/>
<feBlend mode="normal" in="SourceGraphic" in2="BackgroundImageFix" result="shape"/>
<feColorMatrix in="SourceAlpha" type="matrix" values="0 0 0 0 0 0 0 0 0 0 0 0 0 0 0 0 0 0 127 0" result="hardAlpha"/>
<feOffset dx="5" dy="10"/>
<feGaussianBlur stdDeviation="1"/>
<feComposite in2="hardAlpha" operator="arithmetic" k2="-1" k3="1"/>
<feColorMatrix type="matrix" values="0 0 0 0 0 0 0 0 0 0 0 0 0 0 0 0 0 0 0.25 0"/>
<feBlend mode="normal" in2="shape" result="effect1_innerShadow_2135_666"/>
</filter>
<filter id="filter8_i_2135_666" x="216" y="128" width="145" height="32.9998" filterUnits="userSpaceOnUse" color-interpolation-filters="sRGB">
<feFlood flood-opacity="0" result="BackgroundImageFix"/>
<feBlend mode="normal" in="SourceGraphic" in2="BackgroundImageFix" result="shape"/>
<feColorMatrix in="SourceAlpha" type="matrix" values="0 0 0 0 0 0 0 0 0 0 0 0 0 0 0 0 0 0 127 0" result="hardAlpha"/>
<feOffset dx="5" dy="10"/>
<feGaussianBlur stdDeviation="1"/>
<feComposite in2="hardAlpha" operator="arithmetic" k2="-1" k3="1"/>
<feColorMatrix type="matrix" values="0 0 0 0 0 0 0 0 0 0 0 0 0 0 0 0 0 0 0.25 0"/>
<feBlend mode="normal" in2="shape" result="effect1_innerShadow_2135_666"/>
</filter>
</defs>
</svg>
