<svg width="403" height="169" viewBox="0 0 403 169" fill="none" xmlns="http://www.w3.org/2000/svg">
<g opacity="0.8" filter="url(#filter0_i_2135_674)">
<path d="M387.517 105.359C385.974 105.377 384.437 105.543 382.932 105.855C382.932 105.855 377.87 91.4111 359.731 98.5627C359.731 98.5627 355.018 74.0852 324.737 86.4891C324.737 86.4891 317.163 65.9013 295.392 66.0004C292.335 66.0004 289.3 66.0004 286.286 66.0004C264.479 65.9013 256.941 86.4891 256.941 86.4891C226.578 74.0852 221.846 98.5627 221.846 98.5627C203.707 91.4111 198.645 105.855 198.645 105.855C197.141 105.543 195.604 105.377 194.06 105.359C184.569 104.946 187.393 111 187.393 111H394.193C394.193 111 397 104.946 387.517 105.359Z" fill="#989595" fill-opacity="0.51"/>
</g>
<g opacity="0.8" filter="url(#filter1_i_2135_674)">
<path d="M162.134 93.1141C161.07 93.1261 160.011 93.2405 158.975 93.4554C158.975 93.4554 155.488 83.5053 142.992 88.432C142.992 88.432 139.745 71.5698 118.885 80.1147C118.885 80.1147 113.667 65.932 98.6699 66.0002C96.5642 66.0002 94.4731 66.0002 92.3968 66.0002C77.3743 65.932 72.1814 80.1147 72.1814 80.1147C51.2648 71.5698 48.005 88.432 48.005 88.432C35.5094 83.5053 32.0222 93.4554 32.0222 93.4554C30.9859 93.2405 29.9269 93.1261 28.8636 93.1141C22.3251 92.8296 24.2709 96.9997 24.2709 96.9997H166.733C166.733 96.9997 168.666 92.8296 162.134 93.1141Z" fill="#989595"/>
</g>
<g opacity="0.8" filter="url(#filter2_i_2135_674)">
<path d="M254.134 62.1141C253.07 62.1261 252.011 62.2405 250.975 62.4554C250.975 62.4554 247.488 52.5053 234.992 57.432C234.992 57.432 231.745 40.5698 210.885 49.1147C210.885 49.1147 205.667 34.932 190.67 35.0002C188.564 35.0002 186.473 35.0002 184.397 35.0002C169.374 34.932 164.181 49.1147 164.181 49.1147C143.265 40.5698 140.005 57.432 140.005 57.432C127.509 52.5053 124.022 62.4554 124.022 62.4554C122.986 62.2405 121.927 62.1261 120.864 62.1141C114.325 61.8296 116.271 65.9997 116.271 65.9997H258.733C258.733 65.9997 260.666 61.8296 254.134 62.1141Z" fill="#989595" fill-opacity="0.35"/>
</g>
<g opacity="0.8" filter="url(#filter3_i_2135_674)">
<path d="M154.134 27.1141C153.07 27.1261 152.011 27.2405 150.975 27.4554C150.975 27.4554 147.488 17.5053 134.992 22.432C134.992 22.432 131.745 5.56979 110.885 14.1147C110.885 14.1147 105.667 -0.0680225 90.6699 0.000245667C88.5642 0.000245667 86.4731 0.000245667 84.3968 0.000245667C69.3743 -0.0680225 64.1814 14.1147 64.1814 14.1147C43.2648 5.56979 40.005 22.432 40.005 22.432C27.5094 17.5053 24.0222 27.4554 24.0222 27.4554C22.9859 27.2405 21.9269 27.1261 20.8636 27.1141C14.3251 26.8296 16.2709 30.9997 16.2709 30.9997H158.733C158.733 30.9997 160.666 26.8296 154.134 27.1141Z" fill="#989595" fill-opacity="0.44"/>
</g>
<g opacity="0.8" filter="url(#filter4_i_2135_674)">
<path d="M264.134 142.114C263.07 142.126 262.011 142.241 260.975 142.455C260.975 142.455 257.488 132.505 244.992 137.432C244.992 137.432 241.745 120.57 220.885 129.115C220.885 129.115 215.667 114.932 200.67 115C198.564 115 196.473 115 194.397 115C179.374 114.932 174.181 129.115 174.181 129.115C153.265 120.57 150.005 137.432 150.005 137.432C137.509 132.505 134.022 142.455 134.022 142.455C132.986 142.241 131.927 142.126 130.864 142.114C124.325 141.83 126.271 146 126.271 146H268.733C268.733 146 270.666 141.83 264.134 142.114Z" fill="#989595" fill-opacity="0.8"/>
</g>
<g opacity="0.8" filter="url(#filter5_i_2135_674)">
<path d="M138.134 165.114C137.07 165.126 136.011 165.241 134.975 165.455C134.975 165.455 131.488 155.505 118.992 160.432C118.992 160.432 115.745 143.57 94.8854 152.115C94.8854 152.115 89.6673 137.932 74.6699 138C72.5642 138 70.4731 138 68.3968 138C53.3743 137.932 48.1814 152.115 48.1814 152.115C27.2648 143.57 24.005 160.432 24.005 160.432C11.5094 155.505 8.02222 165.455 8.02222 165.455C6.98585 165.241 5.92694 165.126 4.86356 165.114C-1.67487 164.83 0.270864 169 0.270864 169H142.733C142.733 169 144.666 164.83 138.134 165.114Z" fill="#989595" fill-opacity="0.4"/>
</g>
<g opacity="0.8" filter="url(#filter6_i_2135_674)">
<path d="M378.134 165.114C377.07 165.126 376.011 165.241 374.975 165.455C374.975 165.455 371.488 155.505 358.992 160.432C358.992 160.432 355.745 143.57 334.885 152.115C334.885 152.115 329.667 137.932 314.67 138C312.564 138 310.473 138 308.397 138C293.374 137.932 288.181 152.115 288.181 152.115C267.265 143.57 264.005 160.432 264.005 160.432C251.509 155.505 248.022 165.455 248.022 165.455C246.986 165.241 245.927 165.126 244.864 165.114C238.325 164.83 240.271 169 240.271 169H382.733C382.733 169 384.666 164.83 378.134 165.114Z" fill="#989595"/>
</g>
<g opacity="0.8" filter="url(#filter7_i_2135_674)">
<path d="M398.134 50.1141C397.07 50.1261 396.011 50.2405 394.975 50.4554C394.975 50.4554 391.488 40.5053 378.992 45.432C378.992 45.432 375.745 28.5698 354.885 37.1147C354.885 37.1147 349.667 22.932 334.67 23.0002C332.564 23.0002 330.473 23.0002 328.397 23.0002C313.374 22.932 308.181 37.1147 308.181 37.1147C287.265 28.5698 284.005 45.432 284.005 45.432C271.509 40.5053 268.022 50.4554 268.022 50.4554C266.986 50.2405 265.927 50.1261 264.864 50.1141C258.325 49.8296 260.271 53.9997 260.271 53.9997H402.733C402.733 53.9997 404.666 49.8296 398.134 50.1141Z" fill="#989595" fill-opacity="0.44"/>
</g>
<defs>
<filter id="filter0_i_2135_674" x="187" y="66" width="209.581" height="46.9998" filterUnits="userSpaceOnUse" color-interpolation-filters="sRGB">
<feFlood flood-opacity="0" result="BackgroundImageFix"/>
<feBlend mode="normal" in="SourceGraphic" in2="BackgroundImageFix" result="shape"/>
<feColorMatrix in="SourceAlpha" type="matrix" values="0 0 0 0 0 0 0 0 0 0 0 0 0 0 0 0 0 0 127 0" result="hardAlpha"/>
<feOffset dx="5" dy="10"/>
<feGaussianBlur stdDeviation="1"/>
<feComposite in2="hardAlpha" operator="arithmetic" k2="-1" k3="1"/>
<feColorMatrix type="matrix" values="0 0 0 0 0 0 0 0 0 0 0 0 0 0 0 0 0 0 0.25 0"/>
<feBlend mode="normal" in2="shape" result="effect1_innerShadow_2135_674"/>
</filter>
<filter id="filter1_i_2135_674" x="24" y="66" width="145" height="32.9998" filterUnits="userSpaceOnUse" color-interpolation-filters="sRGB">
<feFlood flood-opacity="0" result="BackgroundImageFix"/>
<feBlend mode="normal" in="SourceGraphic" in2="BackgroundImageFix" result="shape"/>
<feColorMatrix in="SourceAlpha" type="matrix" values="0 0 0 0 0 0 0 0 0 0 0 0 0 0 0 0 0 0 127 0" result="hardAlpha"/>
<feOffset dx="5" dy="10"/>
<feGaussianBlur stdDeviation="1"/>
<feComposite in2="hardAlpha" operator="arithmetic" k2="-1" k3="1"/>
<feColorMatrix type="matrix" values="0 0 0 0 0 0 0 0 0 0 0 0 0 0 0 0 0 0 0.25 0"/>
<feBlend mode="normal" in2="shape" result="effect1_innerShadow_2135_674"/>
</filter>
<filter id="filter2_i_2135_674" x="116" y="35" width="145" height="32.9998" filterUnits="userSpaceOnUse" color-interpolation-filters="sRGB">
<feFlood flood-opacity="0" result="BackgroundImageFix"/>
<feBlend mode="normal" in="SourceGraphic" in2="BackgroundImageFix" result="shape"/>
<feColorMatrix in="SourceAlpha" type="matrix" values="0 0 0 0 0 0 0 0 0 0 0 0 0 0 0 0 0 0 127 0" result="hardAlpha"/>
<feOffset dx="5" dy="10"/>
<feGaussianBlur stdDeviation="1"/>
<feComposite in2="hardAlpha" operator="arithmetic" k2="-1" k3="1"/>
<feColorMatrix type="matrix" values="0 0 0 0 0 0 0 0 0 0 0 0 0 0 0 0 0 0 0.25 0"/>
<feBlend mode="normal" in2="shape" result="effect1_innerShadow_2135_674"/>
</filter>
<filter id="filter3_i_2135_674" x="16" y="0" width="145" height="32.9998" filterUnits="userSpaceOnUse" color-interpolation-filters="sRGB">
<feFlood flood-opacity="0" result="BackgroundImageFix"/>
<feBlend mode="normal" in="SourceGraphic" in2="BackgroundImageFix" result="shape"/>
<feColorMatrix in="SourceAlpha" type="matrix" values="0 0 0 0 0 0 0 0 0 0 0 0 0 0 0 0 0 0 127 0" result="hardAlpha"/>
<feOffset dx="5" dy="10"/>
<feGaussianBlur stdDeviation="1"/>
<feComposite in2="hardAlpha" operator="arithmetic" k2="-1" k3="1"/>
<feColorMatrix type="matrix" values="0 0 0 0 0 0 0 0 0 0 0 0 0 0 0 0 0 0 0.25 0"/>
<feBlend mode="normal" in2="shape" result="effect1_innerShadow_2135_674"/>
</filter>
<filter id="filter4_i_2135_674" x="126" y="115" width="145" height="32.9998" filterUnits="userSpaceOnUse" color-interpolation-filters="sRGB">
<feFlood flood-opacity="0" result="BackgroundImageFix"/>
<feBlend mode="normal" in="SourceGraphic" in2="BackgroundImageFix" result="shape"/>
<feColorMatrix in="SourceAlpha" type="matrix" values="0 0 0 0 0 0 0 0 0 0 0 0 0 0 0 0 0 0 127 0" result="hardAlpha"/>
<feOffset dx="5" dy="10"/>
<feGaussianBlur stdDeviation="1"/>
<feComposite in2="hardAlpha" operator="arithmetic" k2="-1" k3="1"/>
<feColorMatrix type="matrix" values="0 0 0 0 0 0 0 0 0 0 0 0 0 0 0 0 0 0 0.25 0"/>
<feBlend mode="normal" in2="shape" result="effect1_innerShadow_2135_674"/>
</filter>
<filter id="filter5_i_2135_674" x="0" y="138" width="145" height="32.9998" filterUnits="userSpaceOnUse" color-interpolation-filters="sRGB">
<feFlood flood-opacity="0" result="BackgroundImageFix"/>
<feBlend mode="normal" in="SourceGraphic" in2="BackgroundImageFix" result="shape"/>
<feColorMatrix in="SourceAlpha" type="matrix" values="0 0 0 0 0 0 0 0 0 0 0 0 0 0 0 0 0 0 127 0" result="hardAlpha"/>
<feOffset dx="5" dy="10"/>
<feGaussianBlur stdDeviation="1"/>
<feComposite in2="hardAlpha" operator="arithmetic" k2="-1" k3="1"/>
<feColorMatrix type="matrix" values="0 0 0 0 0 0 0 0 0 0 0 0 0 0 0 0 0 0 0.25 0"/>
<feBlend mode="normal" in2="shape" result="effect1_innerShadow_2135_674"/>
</filter>
<filter id="filter6_i_2135_674" x="240" y="138" width="145" height="32.9998" filterUnits="userSpaceOnUse" color-interpolation-filters="sRGB">
<feFlood flood-opacity="0" result="BackgroundImageFix"/>
<feBlend mode="normal" in="SourceGraphic" in2="BackgroundImageFix" result="shape"/>
<feColorMatrix in="SourceAlpha" type="matrix" values="0 0 0 0 0 0 0 0 0 0 0 0 0 0 0 0 0 0 127 0" result="hardAlpha"/>
<feOffset dx="5" dy="10"/>
<feGaussianBlur stdDeviation="1"/>
<feComposite in2="hardAlpha" operator="arithmetic" k2="-1" k3="1"/>
<feColorMatrix type="matrix" values="0 0 0 0 0 0 0 0 0 0 0 0 0 0 0 0 0 0 0.25 0"/>
<feBlend mode="normal" in2="shape" result="effect1_innerShadow_2135_674"/>
</filter>
<filter id="filter7_i_2135_674" x="260" y="23" width="145" height="32.9998" filterUnits="userSpaceOnUse" color-interpolation-filters="sRGB">
<feFlood flood-opacity="0" result="BackgroundImageFix"/>
<feBlend mode="normal" in="SourceGraphic" in2="BackgroundImageFix" result="shape"/>
<feColorMatrix in="SourceAlpha" type="matrix" values="0 0 0 0 0 0 0 0 0 0 0 0 0 0 0 0 0 0 127 0" result="hardAlpha"/>
<feOffset dx="5" dy="10"/>
<feGaussianBlur stdDeviation="1"/>
<feComposite in2="hardAlpha" operator="arithmetic" k2="-1" k3="1"/>
<feColorMatrix type="matrix" values="0 0 0 0 0 0 0 0 0 0 0 0 0 0 0 0 0 0 0.25 0"/>
<feBlend mode="normal" in2="shape" result="effect1_innerShadow_2135_674"/>
</filter>
</defs>
</svg>
