<svg width="390" height="159" viewBox="0 0 390 159" fill="none" xmlns="http://www.w3.org/2000/svg">
<g opacity="0.8" filter="url(#filter0_i_2119_653)">
<path d="M342.517 92.3593C340.974 92.3768 339.437 92.5429 337.932 92.8548C337.932 92.8548 332.87 78.4111 314.731 85.5627C314.731 85.5627 310.018 61.0852 279.737 73.4891C279.737 73.4891 272.163 52.9013 250.392 53.0004C247.335 53.0004 244.3 53.0004 241.286 53.0004C219.479 52.9013 211.941 73.4891 211.941 73.4891C181.578 61.0852 176.846 85.5627 176.846 85.5627C158.707 78.4111 153.645 92.8548 153.645 92.8548C152.141 92.5429 150.604 92.3768 149.06 92.3593C139.569 91.9464 142.393 97.9997 142.393 97.9997H349.193C349.193 97.9997 352 91.9464 342.517 92.3593Z" fill="#989595" fill-opacity="0.8"/>
</g>
<g opacity="0.8" filter="url(#filter1_i_2119_653)">
<path d="M435.517 39.3593C433.974 39.3768 432.437 39.5429 430.932 39.8548C430.932 39.8548 425.87 25.4111 407.731 32.5627C407.731 32.5627 403.018 8.0852 372.737 20.4891C372.737 20.4891 365.163 -0.0987426 343.392 0.000356614C340.335 0.000356614 337.3 0.000356614 334.286 0.000356614C312.479 -0.0987426 304.941 20.4891 304.941 20.4891C274.578 8.0852 269.846 32.5627 269.846 32.5627C251.707 25.4111 246.645 39.8548 246.645 39.8548C245.141 39.5429 243.604 39.3768 242.06 39.3593C232.569 38.9464 235.393 44.9997 235.393 44.9997H442.193C442.193 44.9997 445 38.9464 435.517 39.3593Z" fill="#989595" fill-opacity="0.8"/>
</g>
<g opacity="0.8" filter="url(#filter2_i_2119_653)">
<path d="M188.134 88.1141C187.07 88.1261 186.011 88.2405 184.975 88.4554C184.975 88.4554 181.488 78.5053 168.992 83.432C168.992 83.432 165.745 66.5698 144.885 75.1147C144.885 75.1147 139.667 60.932 124.67 61.0002C122.564 61.0002 120.473 61.0002 118.397 61.0002C103.374 60.932 98.1814 75.1147 98.1814 75.1147C77.2648 66.5698 74.005 83.432 74.005 83.432C61.5094 78.5053 58.0222 88.4554 58.0222 88.4554C56.9859 88.2405 55.9269 88.1261 54.8636 88.1141C48.3251 87.8296 50.2709 91.9997 50.2709 91.9997H192.733C192.733 91.9997 194.666 87.8296 188.134 88.1141Z" fill="#989595" fill-opacity="0.4"/>
</g>
<g opacity="0.8" filter="url(#filter3_i_2119_653)">
<path d="M252.134 57.1141C251.07 57.1261 250.011 57.2405 248.975 57.4554C248.975 57.4554 245.488 47.5053 232.992 52.432C232.992 52.432 229.745 35.5698 208.885 44.1147C208.885 44.1147 203.667 29.932 188.67 30.0002C186.564 30.0002 184.473 30.0002 182.397 30.0002C167.374 29.932 162.181 44.1147 162.181 44.1147C141.265 35.5698 138.005 52.432 138.005 52.432C125.509 47.5053 122.022 57.4554 122.022 57.4554C120.986 57.2405 119.927 57.1261 118.864 57.1141C112.325 56.8296 114.271 60.9997 114.271 60.9997H256.733C256.733 60.9997 258.666 56.8296 252.134 57.1141Z" fill="#989595" fill-opacity="0.8"/>
</g>
<g opacity="0.8" filter="url(#filter4_i_2119_653)">
<path d="M130.134 41.1141C129.07 41.1261 128.011 41.2405 126.975 41.4554C126.975 41.4554 123.488 31.5053 110.992 36.432C110.992 36.432 107.745 19.5698 86.8854 28.1147C86.8854 28.1147 81.6673 13.932 66.6699 14.0002C64.5642 14.0002 62.4731 14.0002 60.3968 14.0002C45.3743 13.932 40.1814 28.1147 40.1814 28.1147C19.2648 19.5698 16.005 36.432 16.005 36.432C3.50938 31.5053 0.0222158 41.4554 0.0222158 41.4554C-1.01415 41.2405 -2.07306 41.1261 -3.13644 41.1141C-9.67487 40.8296 -7.72914 44.9997 -7.72914 44.9997H134.733C134.733 44.9997 136.666 40.8296 130.134 41.1141Z" fill="#989595" fill-opacity="0.8"/>
</g>
<g opacity="0.8" filter="url(#filter5_i_2119_653)">
<path d="M261.134 132.114C260.07 132.126 259.011 132.241 257.975 132.455C257.975 132.455 254.488 122.505 241.992 127.432C241.992 127.432 238.745 110.57 217.885 119.115C217.885 119.115 212.667 104.932 197.67 105C195.564 105 193.473 105 191.397 105C176.374 104.932 171.181 119.115 171.181 119.115C150.265 110.57 147.005 127.432 147.005 127.432C134.509 122.505 131.022 132.455 131.022 132.455C129.986 132.241 128.927 132.126 127.864 132.114C121.325 131.83 123.271 136 123.271 136H265.733C265.733 136 267.666 131.83 261.134 132.114Z" fill="#989595" fill-opacity="0.8"/>
</g>
<g opacity="0.8" filter="url(#filter6_i_2119_653)">
<path d="M152.134 155.114C151.07 155.126 150.011 155.241 148.975 155.455C148.975 155.455 145.488 145.505 132.992 150.432C132.992 150.432 129.745 133.57 108.885 142.115C108.885 142.115 103.667 127.932 88.6699 128C86.5642 128 84.4731 128 82.3968 128C67.3743 127.932 62.1814 142.115 62.1814 142.115C41.2648 133.57 38.005 150.432 38.005 150.432C25.5094 145.505 22.0222 155.455 22.0222 155.455C20.9859 155.241 19.9269 155.126 18.8636 155.114C12.3251 154.83 14.2709 159 14.2709 159H156.733C156.733 159 158.666 154.83 152.134 155.114Z" fill="#989595" fill-opacity="0.8"/>
</g>
<g opacity="0.8" filter="url(#filter7_i_2119_653)">
<path d="M360.134 155.114C359.07 155.126 358.011 155.241 356.975 155.455C356.975 155.455 353.488 145.505 340.992 150.432C340.992 150.432 337.745 133.57 316.885 142.115C316.885 142.115 311.667 127.932 296.67 128C294.564 128 292.473 128 290.397 128C275.374 127.932 270.181 142.115 270.181 142.115C249.265 133.57 246.005 150.432 246.005 150.432C233.509 145.505 230.022 155.455 230.022 155.455C228.986 155.241 227.927 155.126 226.864 155.114C220.325 154.83 222.271 159 222.271 159H364.733C364.733 159 366.666 154.83 360.134 155.114Z" fill="#989595" fill-opacity="0.4"/>
</g>
<defs>
<filter id="filter0_i_2119_653" x="142" y="53" width="209.581" height="46.9998" filterUnits="userSpaceOnUse" color-interpolation-filters="sRGB">
<feFlood flood-opacity="0" result="BackgroundImageFix"/>
<feBlend mode="normal" in="SourceGraphic" in2="BackgroundImageFix" result="shape"/>
<feColorMatrix in="SourceAlpha" type="matrix" values="0 0 0 0 0 0 0 0 0 0 0 0 0 0 0 0 0 0 127 0" result="hardAlpha"/>
<feOffset dx="5" dy="10"/>
<feGaussianBlur stdDeviation="1"/>
<feComposite in2="hardAlpha" operator="arithmetic" k2="-1" k3="1"/>
<feColorMatrix type="matrix" values="0 0 0 0 0 0 0 0 0 0 0 0 0 0 0 0 0 0 0.25 0"/>
<feBlend mode="normal" in2="shape" result="effect1_innerShadow_2119_653"/>
</filter>
<filter id="filter1_i_2119_653" x="235" y="0" width="209.581" height="46.9998" filterUnits="userSpaceOnUse" color-interpolation-filters="sRGB">
<feFlood flood-opacity="0" result="BackgroundImageFix"/>
<feBlend mode="normal" in="SourceGraphic" in2="BackgroundImageFix" result="shape"/>
<feColorMatrix in="SourceAlpha" type="matrix" values="0 0 0 0 0 0 0 0 0 0 0 0 0 0 0 0 0 0 127 0" result="hardAlpha"/>
<feOffset dx="5" dy="10"/>
<feGaussianBlur stdDeviation="1"/>
<feComposite in2="hardAlpha" operator="arithmetic" k2="-1" k3="1"/>
<feColorMatrix type="matrix" values="0 0 0 0 0 0 0 0 0 0 0 0 0 0 0 0 0 0 0.25 0"/>
<feBlend mode="normal" in2="shape" result="effect1_innerShadow_2119_653"/>
</filter>
<filter id="filter2_i_2119_653" x="50" y="61" width="145" height="32.9998" filterUnits="userSpaceOnUse" color-interpolation-filters="sRGB">
<feFlood flood-opacity="0" result="BackgroundImageFix"/>
<feBlend mode="normal" in="SourceGraphic" in2="BackgroundImageFix" result="shape"/>
<feColorMatrix in="SourceAlpha" type="matrix" values="0 0 0 0 0 0 0 0 0 0 0 0 0 0 0 0 0 0 127 0" result="hardAlpha"/>
<feOffset dx="5" dy="10"/>
<feGaussianBlur stdDeviation="1"/>
<feComposite in2="hardAlpha" operator="arithmetic" k2="-1" k3="1"/>
<feColorMatrix type="matrix" values="0 0 0 0 0 0 0 0 0 0 0 0 0 0 0 0 0 0 0.25 0"/>
<feBlend mode="normal" in2="shape" result="effect1_innerShadow_2119_653"/>
</filter>
<filter id="filter3_i_2119_653" x="114" y="30" width="145" height="32.9998" filterUnits="userSpaceOnUse" color-interpolation-filters="sRGB">
<feFlood flood-opacity="0" result="BackgroundImageFix"/>
<feBlend mode="normal" in="SourceGraphic" in2="BackgroundImageFix" result="shape"/>
<feColorMatrix in="SourceAlpha" type="matrix" values="0 0 0 0 0 0 0 0 0 0 0 0 0 0 0 0 0 0 127 0" result="hardAlpha"/>
<feOffset dx="5" dy="10"/>
<feGaussianBlur stdDeviation="1"/>
<feComposite in2="hardAlpha" operator="arithmetic" k2="-1" k3="1"/>
<feColorMatrix type="matrix" values="0 0 0 0 0 0 0 0 0 0 0 0 0 0 0 0 0 0 0.25 0"/>
<feBlend mode="normal" in2="shape" result="effect1_innerShadow_2119_653"/>
</filter>
<filter id="filter4_i_2119_653" x="-8" y="14" width="145" height="32.9998" filterUnits="userSpaceOnUse" color-interpolation-filters="sRGB">
<feFlood flood-opacity="0" result="BackgroundImageFix"/>
<feBlend mode="normal" in="SourceGraphic" in2="BackgroundImageFix" result="shape"/>
<feColorMatrix in="SourceAlpha" type="matrix" values="0 0 0 0 0 0 0 0 0 0 0 0 0 0 0 0 0 0 127 0" result="hardAlpha"/>
<feOffset dx="5" dy="10"/>
<feGaussianBlur stdDeviation="1"/>
<feComposite in2="hardAlpha" operator="arithmetic" k2="-1" k3="1"/>
<feColorMatrix type="matrix" values="0 0 0 0 0 0 0 0 0 0 0 0 0 0 0 0 0 0 0.25 0"/>
<feBlend mode="normal" in2="shape" result="effect1_innerShadow_2119_653"/>
</filter>
<filter id="filter5_i_2119_653" x="123" y="105" width="145" height="32.9998" filterUnits="userSpaceOnUse" color-interpolation-filters="sRGB">
<feFlood flood-opacity="0" result="BackgroundImageFix"/>
<feBlend mode="normal" in="SourceGraphic" in2="BackgroundImageFix" result="shape"/>
<feColorMatrix in="SourceAlpha" type="matrix" values="0 0 0 0 0 0 0 0 0 0 0 0 0 0 0 0 0 0 127 0" result="hardAlpha"/>
<feOffset dx="5" dy="10"/>
<feGaussianBlur stdDeviation="1"/>
<feComposite in2="hardAlpha" operator="arithmetic" k2="-1" k3="1"/>
<feColorMatrix type="matrix" values="0 0 0 0 0 0 0 0 0 0 0 0 0 0 0 0 0 0 0.25 0"/>
<feBlend mode="normal" in2="shape" result="effect1_innerShadow_2119_653"/>
</filter>
<filter id="filter6_i_2119_653" x="14" y="128" width="145" height="32.9998" filterUnits="userSpaceOnUse" color-interpolation-filters="sRGB">
<feFlood flood-opacity="0" result="BackgroundImageFix"/>
<feBlend mode="normal" in="SourceGraphic" in2="BackgroundImageFix" result="shape"/>
<feColorMatrix in="SourceAlpha" type="matrix" values="0 0 0 0 0 0 0 0 0 0 0 0 0 0 0 0 0 0 127 0" result="hardAlpha"/>
<feOffset dx="5" dy="10"/>
<feGaussianBlur stdDeviation="1"/>
<feComposite in2="hardAlpha" operator="arithmetic" k2="-1" k3="1"/>
<feColorMatrix type="matrix" values="0 0 0 0 0 0 0 0 0 0 0 0 0 0 0 0 0 0 0.25 0"/>
<feBlend mode="normal" in2="shape" result="effect1_innerShadow_2119_653"/>
</filter>
<filter id="filter7_i_2119_653" x="222" y="128" width="145" height="32.9998" filterUnits="userSpaceOnUse" color-interpolation-filters="sRGB">
<feFlood flood-opacity="0" result="BackgroundImageFix"/>
<feBlend mode="normal" in="SourceGraphic" in2="BackgroundImageFix" result="shape"/>
<feColorMatrix in="SourceAlpha" type="matrix" values="0 0 0 0 0 0 0 0 0 0 0 0 0 0 0 0 0 0 127 0" result="hardAlpha"/>
<feOffset dx="5" dy="10"/>
<feGaussianBlur stdDeviation="1"/>
<feComposite in2="hardAlpha" operator="arithmetic" k2="-1" k3="1"/>
<feColorMatrix type="matrix" values="0 0 0 0 0 0 0 0 0 0 0 0 0 0 0 0 0 0 0.25 0"/>
<feBlend mode="normal" in2="shape" result="effect1_innerShadow_2119_653"/>
</filter>
</defs>
</svg>
