<svg width="241" height="183" viewBox="0 0 241 183" fill="none" xmlns="http://www.w3.org/2000/svg">
<g opacity="0.8" filter="url(#filter0_i_2181_529)">
<path d="M158.134 89.1141C157.07 89.1261 156.011 89.2405 154.975 89.4554C154.975 89.4554 151.488 79.5053 138.992 84.432C138.992 84.432 135.745 67.5698 114.885 76.1147C114.885 76.1147 109.667 61.932 94.6699 62.0002C92.5642 62.0002 90.4731 62.0002 88.3968 62.0002C73.3743 61.932 68.1814 76.1147 68.1814 76.1147C47.2648 67.5698 44.005 84.432 44.005 84.432C31.5094 79.5053 28.0222 89.4554 28.0222 89.4554C26.9859 89.2405 25.9269 89.1261 24.8636 89.1141C18.3251 88.8296 20.2709 92.9997 20.2709 92.9997H162.733C162.733 92.9997 164.666 88.8296 158.134 89.1141Z" fill="#989595"/>
</g>
<g opacity="0.8" filter="url(#filter1_i_2181_529)">
<path d="M265.134 58.1141C264.07 58.1261 263.011 58.2405 261.975 58.4554C261.975 58.4554 258.488 48.5053 245.992 53.432C245.992 53.432 242.745 36.5698 221.885 45.1147C221.885 45.1147 216.667 30.932 201.67 31.0002C199.564 31.0002 197.473 31.0002 195.397 31.0002C180.374 30.932 175.181 45.1147 175.181 45.1147C154.265 36.5698 151.005 53.432 151.005 53.432C138.509 48.5053 135.022 58.4554 135.022 58.4554C133.986 58.2405 132.927 58.1261 131.864 58.1141C125.325 57.8296 127.271 61.9997 127.271 61.9997H269.733C269.733 61.9997 271.666 57.8296 265.134 58.1141Z" fill="#989595" fill-opacity="0.35"/>
</g>
<g opacity="0.8" filter="url(#filter2_i_2181_529)">
<path d="M148.134 27.1141C147.07 27.1261 146.011 27.2405 144.975 27.4554C144.975 27.4554 141.488 17.5053 128.992 22.432C128.992 22.432 125.745 5.56979 104.885 14.1147C104.885 14.1147 99.6673 -0.0680225 84.6699 0.000245667C82.5642 0.000245667 80.4731 0.000245667 78.3968 0.000245667C63.3743 -0.0680225 58.1814 14.1147 58.1814 14.1147C37.2648 5.56979 34.005 22.432 34.005 22.432C21.5094 17.5053 18.0222 27.4554 18.0222 27.4554C16.9859 27.2405 15.9269 27.1261 14.8636 27.1141C8.32513 26.8296 10.2709 30.9997 10.2709 30.9997H152.733C152.733 30.9997 154.666 26.8296 148.134 27.1141Z" fill="#989595" fill-opacity="0.44"/>
</g>
<g opacity="0.8" filter="url(#filter3_i_2181_529)">
<path d="M220.134 134.114C219.07 134.126 218.011 134.241 216.975 134.455C216.975 134.455 213.488 124.505 200.992 129.432C200.992 129.432 197.745 112.57 176.885 121.115C176.885 121.115 171.667 106.932 156.67 107C154.564 107 152.473 107 150.397 107C135.374 106.932 130.181 121.115 130.181 121.115C109.265 112.57 106.005 129.432 106.005 129.432C93.5094 124.505 90.0222 134.455 90.0222 134.455C88.9859 134.241 87.9269 134.126 86.8636 134.114C80.3251 133.83 82.2709 138 82.2709 138H224.733C224.733 138 226.666 133.83 220.134 134.114Z" fill="#989595" fill-opacity="0.8"/>
</g>
<g opacity="0.8" filter="url(#filter4_i_2181_529)">
<path d="M281.134 179.114C280.07 179.126 279.011 179.241 277.975 179.455C277.975 179.455 274.488 169.505 261.992 174.432C261.992 174.432 258.745 157.57 237.885 166.115C237.885 166.115 232.667 151.932 217.67 152C215.564 152 213.473 152 211.397 152C196.374 151.932 191.181 166.115 191.181 166.115C170.265 157.57 167.005 174.432 167.005 174.432C154.509 169.505 151.022 179.455 151.022 179.455C149.986 179.241 148.927 179.126 147.864 179.114C141.325 178.83 143.271 183 143.271 183H285.733C285.733 183 287.666 178.83 281.134 179.114Z" fill="#989595"/>
</g>
<g opacity="0.8" filter="url(#filter5_i_2181_529)">
<path d="M334.517 100.359C332.974 100.377 331.437 100.543 329.932 100.855C329.932 100.855 324.87 86.4111 306.731 93.5627C306.731 93.5627 302.018 69.0852 271.737 81.4891C271.737 81.4891 264.163 60.9013 242.392 61.0004C239.335 61.0004 236.3 61.0004 233.286 61.0004C211.479 60.9013 203.941 81.4891 203.941 81.4891C173.578 69.0852 168.846 93.5627 168.846 93.5627C150.707 86.4111 145.645 100.855 145.645 100.855C144.141 100.543 142.604 100.377 141.06 100.359C131.569 99.9464 134.393 106 134.393 106H341.193C341.193 106 344 99.9464 334.517 100.359Z" fill="#989595" fill-opacity="0.51"/>
</g>
<g opacity="0.8" filter="url(#filter6_i_2181_529)">
<path d="M138.134 165.114C137.07 165.126 136.011 165.241 134.975 165.455C134.975 165.455 131.488 155.505 118.992 160.432C118.992 160.432 115.745 143.57 94.8854 152.115C94.8854 152.115 89.6673 137.932 74.6699 138C72.5642 138 70.4731 138 68.3968 138C53.3743 137.932 48.1814 152.115 48.1814 152.115C27.2648 143.57 24.005 160.432 24.005 160.432C11.5094 155.505 8.02222 165.455 8.02222 165.455C6.98585 165.241 5.92694 165.126 4.86356 165.114C-1.67487 164.83 0.270864 169 0.270864 169H142.733C142.733 169 144.666 164.83 138.134 165.114Z" fill="#989595" fill-opacity="0.4"/>
</g>
<defs>
<filter id="filter0_i_2181_529" x="20" y="62" width="145" height="32.9998" filterUnits="userSpaceOnUse" color-interpolation-filters="sRGB">
<feFlood flood-opacity="0" result="BackgroundImageFix"/>
<feBlend mode="normal" in="SourceGraphic" in2="BackgroundImageFix" result="shape"/>
<feColorMatrix in="SourceAlpha" type="matrix" values="0 0 0 0 0 0 0 0 0 0 0 0 0 0 0 0 0 0 127 0" result="hardAlpha"/>
<feOffset dx="5" dy="10"/>
<feGaussianBlur stdDeviation="1"/>
<feComposite in2="hardAlpha" operator="arithmetic" k2="-1" k3="1"/>
<feColorMatrix type="matrix" values="0 0 0 0 0 0 0 0 0 0 0 0 0 0 0 0 0 0 0.25 0"/>
<feBlend mode="normal" in2="shape" result="effect1_innerShadow_2181_529"/>
</filter>
<filter id="filter1_i_2181_529" x="127" y="31" width="145" height="32.9998" filterUnits="userSpaceOnUse" color-interpolation-filters="sRGB">
<feFlood flood-opacity="0" result="BackgroundImageFix"/>
<feBlend mode="normal" in="SourceGraphic" in2="BackgroundImageFix" result="shape"/>
<feColorMatrix in="SourceAlpha" type="matrix" values="0 0 0 0 0 0 0 0 0 0 0 0 0 0 0 0 0 0 127 0" result="hardAlpha"/>
<feOffset dx="5" dy="10"/>
<feGaussianBlur stdDeviation="1"/>
<feComposite in2="hardAlpha" operator="arithmetic" k2="-1" k3="1"/>
<feColorMatrix type="matrix" values="0 0 0 0 0 0 0 0 0 0 0 0 0 0 0 0 0 0 0.25 0"/>
<feBlend mode="normal" in2="shape" result="effect1_innerShadow_2181_529"/>
</filter>
<filter id="filter2_i_2181_529" x="10" y="0" width="145" height="32.9998" filterUnits="userSpaceOnUse" color-interpolation-filters="sRGB">
<feFlood flood-opacity="0" result="BackgroundImageFix"/>
<feBlend mode="normal" in="SourceGraphic" in2="BackgroundImageFix" result="shape"/>
<feColorMatrix in="SourceAlpha" type="matrix" values="0 0 0 0 0 0 0 0 0 0 0 0 0 0 0 0 0 0 127 0" result="hardAlpha"/>
<feOffset dx="5" dy="10"/>
<feGaussianBlur stdDeviation="1"/>
<feComposite in2="hardAlpha" operator="arithmetic" k2="-1" k3="1"/>
<feColorMatrix type="matrix" values="0 0 0 0 0 0 0 0 0 0 0 0 0 0 0 0 0 0 0.25 0"/>
<feBlend mode="normal" in2="shape" result="effect1_innerShadow_2181_529"/>
</filter>
<filter id="filter3_i_2181_529" x="82" y="107" width="145" height="32.9998" filterUnits="userSpaceOnUse" color-interpolation-filters="sRGB">
<feFlood flood-opacity="0" result="BackgroundImageFix"/>
<feBlend mode="normal" in="SourceGraphic" in2="BackgroundImageFix" result="shape"/>
<feColorMatrix in="SourceAlpha" type="matrix" values="0 0 0 0 0 0 0 0 0 0 0 0 0 0 0 0 0 0 127 0" result="hardAlpha"/>
<feOffset dx="5" dy="10"/>
<feGaussianBlur stdDeviation="1"/>
<feComposite in2="hardAlpha" operator="arithmetic" k2="-1" k3="1"/>
<feColorMatrix type="matrix" values="0 0 0 0 0 0 0 0 0 0 0 0 0 0 0 0 0 0 0.25 0"/>
<feBlend mode="normal" in2="shape" result="effect1_innerShadow_2181_529"/>
</filter>
<filter id="filter4_i_2181_529" x="143" y="152" width="145" height="32.9998" filterUnits="userSpaceOnUse" color-interpolation-filters="sRGB">
<feFlood flood-opacity="0" result="BackgroundImageFix"/>
<feBlend mode="normal" in="SourceGraphic" in2="BackgroundImageFix" result="shape"/>
<feColorMatrix in="SourceAlpha" type="matrix" values="0 0 0 0 0 0 0 0 0 0 0 0 0 0 0 0 0 0 127 0" result="hardAlpha"/>
<feOffset dx="5" dy="10"/>
<feGaussianBlur stdDeviation="1"/>
<feComposite in2="hardAlpha" operator="arithmetic" k2="-1" k3="1"/>
<feColorMatrix type="matrix" values="0 0 0 0 0 0 0 0 0 0 0 0 0 0 0 0 0 0 0.25 0"/>
<feBlend mode="normal" in2="shape" result="effect1_innerShadow_2181_529"/>
</filter>
<filter id="filter5_i_2181_529" x="134" y="61" width="209.581" height="46.9998" filterUnits="userSpaceOnUse" color-interpolation-filters="sRGB">
<feFlood flood-opacity="0" result="BackgroundImageFix"/>
<feBlend mode="normal" in="SourceGraphic" in2="BackgroundImageFix" result="shape"/>
<feColorMatrix in="SourceAlpha" type="matrix" values="0 0 0 0 0 0 0 0 0 0 0 0 0 0 0 0 0 0 127 0" result="hardAlpha"/>
<feOffset dx="5" dy="10"/>
<feGaussianBlur stdDeviation="1"/>
<feComposite in2="hardAlpha" operator="arithmetic" k2="-1" k3="1"/>
<feColorMatrix type="matrix" values="0 0 0 0 0 0 0 0 0 0 0 0 0 0 0 0 0 0 0.25 0"/>
<feBlend mode="normal" in2="shape" result="effect1_innerShadow_2181_529"/>
</filter>
<filter id="filter6_i_2181_529" x="0" y="138" width="145" height="32.9998" filterUnits="userSpaceOnUse" color-interpolation-filters="sRGB">
<feFlood flood-opacity="0" result="BackgroundImageFix"/>
<feBlend mode="normal" in="SourceGraphic" in2="BackgroundImageFix" result="shape"/>
<feColorMatrix in="SourceAlpha" type="matrix" values="0 0 0 0 0 0 0 0 0 0 0 0 0 0 0 0 0 0 127 0" result="hardAlpha"/>
<feOffset dx="5" dy="10"/>
<feGaussianBlur stdDeviation="1"/>
<feComposite in2="hardAlpha" operator="arithmetic" k2="-1" k3="1"/>
<feColorMatrix type="matrix" values="0 0 0 0 0 0 0 0 0 0 0 0 0 0 0 0 0 0 0.25 0"/>
<feBlend mode="normal" in2="shape" result="effect1_innerShadow_2181_529"/>
</filter>
</defs>
</svg>
