<svg width="371" height="184" viewBox="0 0 371 184" fill="none" xmlns="http://www.w3.org/2000/svg">
<g opacity="0.8" filter="url(#filter0_i_2122_660)">
<path d="M319.517 119.359C317.974 119.377 316.437 119.543 314.932 119.855C314.932 119.855 309.87 105.411 291.731 112.563C291.731 112.563 287.018 88.0852 256.737 100.489C256.737 100.489 249.163 79.9013 227.392 80.0004C224.335 80.0004 221.3 80.0004 218.286 80.0004C196.479 79.9013 188.941 100.489 188.941 100.489C158.578 88.0852 153.846 112.563 153.846 112.563C135.707 105.411 130.645 119.855 130.645 119.855C129.141 119.543 127.604 119.377 126.06 119.359C116.569 118.946 119.393 125 119.393 125H326.193C326.193 125 329 118.946 319.517 119.359Z" fill="#989595" fill-opacity="0.51"/>
</g>
<g opacity="0.8" filter="url(#filter1_i_2122_660)">
<path d="M448.517 39.3593C446.974 39.3768 445.437 39.5429 443.932 39.8548C443.932 39.8548 438.87 25.4111 420.731 32.5627C420.731 32.5627 416.018 8.0852 385.737 20.4891C385.737 20.4891 378.163 -0.0987426 356.392 0.000356614C353.335 0.000356614 350.3 0.000356614 347.286 0.000356614C325.479 -0.0987426 317.941 20.4891 317.941 20.4891C287.578 8.0852 282.846 32.5627 282.846 32.5627C264.707 25.4111 259.645 39.8548 259.645 39.8548C258.141 39.5429 256.604 39.3768 255.06 39.3593C245.569 38.9464 248.393 44.9997 248.393 44.9997H455.193C455.193 44.9997 458 38.9464 448.517 39.3593Z" fill="#989595"/>
</g>
<g opacity="0.8" filter="url(#filter2_i_2122_660)">
<path d="M156.134 108.114C155.07 108.126 154.011 108.241 152.975 108.455C152.975 108.455 149.488 98.5053 136.992 103.432C136.992 103.432 133.745 86.5698 112.885 95.1147C112.885 95.1147 107.667 80.932 92.6699 81.0002C90.5642 81.0002 88.4731 81.0002 86.3968 81.0002C71.3743 80.932 66.1814 95.1147 66.1814 95.1147C45.2648 86.5698 42.005 103.432 42.005 103.432C29.5094 98.5053 26.0222 108.455 26.0222 108.455C24.9859 108.241 23.9269 108.126 22.8636 108.114C16.3251 107.83 18.2709 112 18.2709 112H160.733C160.733 112 162.666 107.83 156.134 108.114Z" fill="#989595"/>
</g>
<g opacity="0.8" filter="url(#filter3_i_2122_660)">
<path d="M233.134 69.1141C232.07 69.1261 231.011 69.2405 229.975 69.4554C229.975 69.4554 226.488 59.5053 213.992 64.432C213.992 64.432 210.745 47.5698 189.885 56.1147C189.885 56.1147 184.667 41.932 169.67 42.0002C167.564 42.0002 165.473 42.0002 163.397 42.0002C148.374 41.932 143.181 56.1147 143.181 56.1147C122.265 47.5698 119.005 64.432 119.005 64.432C106.509 59.5053 103.022 69.4554 103.022 69.4554C101.986 69.2405 100.927 69.1261 99.8636 69.1141C93.3251 68.8296 95.2709 72.9997 95.2709 72.9997H237.733C237.733 72.9997 239.666 68.8296 233.134 69.1141Z" fill="#989595" fill-opacity="0.35"/>
</g>
<g opacity="0.8" filter="url(#filter4_i_2122_660)">
<path d="M142.134 54.1141C141.07 54.1261 140.011 54.2405 138.975 54.4554C138.975 54.4554 135.488 44.5053 122.992 49.432C122.992 49.432 119.745 32.5698 98.8854 41.1147C98.8854 41.1147 93.6673 26.932 78.6699 27.0002C76.5642 27.0002 74.4731 27.0002 72.3968 27.0002C57.3743 26.932 52.1814 41.1147 52.1814 41.1147C31.2648 32.5698 28.005 49.432 28.005 49.432C15.5094 44.5053 12.0222 54.4554 12.0222 54.4554C10.9859 54.2405 9.92694 54.1261 8.86356 54.1141C2.32513 53.8296 4.27086 57.9997 4.27086 57.9997H146.733C146.733 57.9997 148.666 53.8296 142.134 54.1141Z" fill="#989595" fill-opacity="0.44"/>
</g>
<g opacity="0.8" filter="url(#filter5_i_2122_660)">
<path d="M376.134 85.1141C375.07 85.1261 374.011 85.2405 372.975 85.4554C372.975 85.4554 369.488 75.5053 356.992 80.432C356.992 80.432 353.745 63.5698 332.885 72.1147C332.885 72.1147 327.667 57.932 312.67 58.0002C310.564 58.0002 308.473 58.0002 306.397 58.0002C291.374 57.932 286.181 72.1147 286.181 72.1147C265.265 63.5698 262.005 80.432 262.005 80.432C249.509 75.5053 246.022 85.4554 246.022 85.4554C244.986 85.2405 243.927 85.1261 242.864 85.1141C236.325 84.8296 238.271 88.9997 238.271 88.9997H380.733C380.733 88.9997 382.666 84.8296 376.134 85.1141Z" fill="#989595" fill-opacity="0.44"/>
</g>
<g opacity="0.8" filter="url(#filter6_i_2122_660)">
<path d="M235.134 149.114C234.07 149.126 233.011 149.241 231.975 149.455C231.975 149.455 228.488 139.505 215.992 144.432C215.992 144.432 212.745 127.57 191.885 136.115C191.885 136.115 186.667 121.932 171.67 122C169.564 122 167.473 122 165.397 122C150.374 121.932 145.181 136.115 145.181 136.115C124.265 127.57 121.005 144.432 121.005 144.432C108.509 139.505 105.022 149.455 105.022 149.455C103.986 149.241 102.927 149.126 101.864 149.114C95.3251 148.83 97.2709 153 97.2709 153H239.733C239.733 153 241.666 148.83 235.134 149.114Z" fill="#989595" fill-opacity="0.8"/>
</g>
<g opacity="0.8" filter="url(#filter7_i_2122_660)">
<path d="M138.134 180.114C137.07 180.126 136.011 180.241 134.975 180.455C134.975 180.455 131.488 170.505 118.992 175.432C118.992 175.432 115.745 158.57 94.8854 167.115C94.8854 167.115 89.6673 152.932 74.6699 153C72.5642 153 70.4731 153 68.3968 153C53.3743 152.932 48.1814 167.115 48.1814 167.115C27.2648 158.57 24.005 175.432 24.005 175.432C11.5094 170.505 8.02222 180.455 8.02222 180.455C6.98585 180.241 5.92694 180.126 4.86356 180.114C-1.67487 179.83 0.270864 184 0.270864 184H142.733C142.733 184 144.666 179.83 138.134 180.114Z" fill="#989595" fill-opacity="0.4"/>
</g>
<g opacity="0.8" filter="url(#filter8_i_2122_660)">
<path d="M347.134 175.114C346.07 175.126 345.011 175.241 343.975 175.455C343.975 175.455 340.488 165.505 327.992 170.432C327.992 170.432 324.745 153.57 303.885 162.115C303.885 162.115 298.667 147.932 283.67 148C281.564 148 279.473 148 277.397 148C262.374 147.932 257.181 162.115 257.181 162.115C236.265 153.57 233.005 170.432 233.005 170.432C220.509 165.505 217.022 175.455 217.022 175.455C215.986 175.241 214.927 175.126 213.864 175.114C207.325 174.83 209.271 179 209.271 179H351.733C351.733 179 353.666 174.83 347.134 175.114Z" fill="#989595"/>
</g>
<defs>
<filter id="filter0_i_2122_660" x="119" y="80" width="209.581" height="46.9998" filterUnits="userSpaceOnUse" color-interpolation-filters="sRGB">
<feFlood flood-opacity="0" result="BackgroundImageFix"/>
<feBlend mode="normal" in="SourceGraphic" in2="BackgroundImageFix" result="shape"/>
<feColorMatrix in="SourceAlpha" type="matrix" values="0 0 0 0 0 0 0 0 0 0 0 0 0 0 0 0 0 0 127 0" result="hardAlpha"/>
<feOffset dx="5" dy="10"/>
<feGaussianBlur stdDeviation="1"/>
<feComposite in2="hardAlpha" operator="arithmetic" k2="-1" k3="1"/>
<feColorMatrix type="matrix" values="0 0 0 0 0 0 0 0 0 0 0 0 0 0 0 0 0 0 0.25 0"/>
<feBlend mode="normal" in2="shape" result="effect1_innerShadow_2122_660"/>
</filter>
<filter id="filter1_i_2122_660" x="248" y="0" width="209.581" height="46.9998" filterUnits="userSpaceOnUse" color-interpolation-filters="sRGB">
<feFlood flood-opacity="0" result="BackgroundImageFix"/>
<feBlend mode="normal" in="SourceGraphic" in2="BackgroundImageFix" result="shape"/>
<feColorMatrix in="SourceAlpha" type="matrix" values="0 0 0 0 0 0 0 0 0 0 0 0 0 0 0 0 0 0 127 0" result="hardAlpha"/>
<feOffset dx="5" dy="10"/>
<feGaussianBlur stdDeviation="1"/>
<feComposite in2="hardAlpha" operator="arithmetic" k2="-1" k3="1"/>
<feColorMatrix type="matrix" values="0 0 0 0 0 0 0 0 0 0 0 0 0 0 0 0 0 0 0.25 0"/>
<feBlend mode="normal" in2="shape" result="effect1_innerShadow_2122_660"/>
</filter>
<filter id="filter2_i_2122_660" x="18" y="81" width="145" height="32.9998" filterUnits="userSpaceOnUse" color-interpolation-filters="sRGB">
<feFlood flood-opacity="0" result="BackgroundImageFix"/>
<feBlend mode="normal" in="SourceGraphic" in2="BackgroundImageFix" result="shape"/>
<feColorMatrix in="SourceAlpha" type="matrix" values="0 0 0 0 0 0 0 0 0 0 0 0 0 0 0 0 0 0 127 0" result="hardAlpha"/>
<feOffset dx="5" dy="10"/>
<feGaussianBlur stdDeviation="1"/>
<feComposite in2="hardAlpha" operator="arithmetic" k2="-1" k3="1"/>
<feColorMatrix type="matrix" values="0 0 0 0 0 0 0 0 0 0 0 0 0 0 0 0 0 0 0.25 0"/>
<feBlend mode="normal" in2="shape" result="effect1_innerShadow_2122_660"/>
</filter>
<filter id="filter3_i_2122_660" x="95" y="42" width="145" height="32.9998" filterUnits="userSpaceOnUse" color-interpolation-filters="sRGB">
<feFlood flood-opacity="0" result="BackgroundImageFix"/>
<feBlend mode="normal" in="SourceGraphic" in2="BackgroundImageFix" result="shape"/>
<feColorMatrix in="SourceAlpha" type="matrix" values="0 0 0 0 0 0 0 0 0 0 0 0 0 0 0 0 0 0 127 0" result="hardAlpha"/>
<feOffset dx="5" dy="10"/>
<feGaussianBlur stdDeviation="1"/>
<feComposite in2="hardAlpha" operator="arithmetic" k2="-1" k3="1"/>
<feColorMatrix type="matrix" values="0 0 0 0 0 0 0 0 0 0 0 0 0 0 0 0 0 0 0.25 0"/>
<feBlend mode="normal" in2="shape" result="effect1_innerShadow_2122_660"/>
</filter>
<filter id="filter4_i_2122_660" x="4" y="27" width="145" height="32.9998" filterUnits="userSpaceOnUse" color-interpolation-filters="sRGB">
<feFlood flood-opacity="0" result="BackgroundImageFix"/>
<feBlend mode="normal" in="SourceGraphic" in2="BackgroundImageFix" result="shape"/>
<feColorMatrix in="SourceAlpha" type="matrix" values="0 0 0 0 0 0 0 0 0 0 0 0 0 0 0 0 0 0 127 0" result="hardAlpha"/>
<feOffset dx="5" dy="10"/>
<feGaussianBlur stdDeviation="1"/>
<feComposite in2="hardAlpha" operator="arithmetic" k2="-1" k3="1"/>
<feColorMatrix type="matrix" values="0 0 0 0 0 0 0 0 0 0 0 0 0 0 0 0 0 0 0.25 0"/>
<feBlend mode="normal" in2="shape" result="effect1_innerShadow_2122_660"/>
</filter>
<filter id="filter5_i_2122_660" x="238" y="58" width="145" height="32.9998" filterUnits="userSpaceOnUse" color-interpolation-filters="sRGB">
<feFlood flood-opacity="0" result="BackgroundImageFix"/>
<feBlend mode="normal" in="SourceGraphic" in2="BackgroundImageFix" result="shape"/>
<feColorMatrix in="SourceAlpha" type="matrix" values="0 0 0 0 0 0 0 0 0 0 0 0 0 0 0 0 0 0 127 0" result="hardAlpha"/>
<feOffset dx="5" dy="10"/>
<feGaussianBlur stdDeviation="1"/>
<feComposite in2="hardAlpha" operator="arithmetic" k2="-1" k3="1"/>
<feColorMatrix type="matrix" values="0 0 0 0 0 0 0 0 0 0 0 0 0 0 0 0 0 0 0.25 0"/>
<feBlend mode="normal" in2="shape" result="effect1_innerShadow_2122_660"/>
</filter>
<filter id="filter6_i_2122_660" x="97" y="122" width="145" height="32.9998" filterUnits="userSpaceOnUse" color-interpolation-filters="sRGB">
<feFlood flood-opacity="0" result="BackgroundImageFix"/>
<feBlend mode="normal" in="SourceGraphic" in2="BackgroundImageFix" result="shape"/>
<feColorMatrix in="SourceAlpha" type="matrix" values="0 0 0 0 0 0 0 0 0 0 0 0 0 0 0 0 0 0 127 0" result="hardAlpha"/>
<feOffset dx="5" dy="10"/>
<feGaussianBlur stdDeviation="1"/>
<feComposite in2="hardAlpha" operator="arithmetic" k2="-1" k3="1"/>
<feColorMatrix type="matrix" values="0 0 0 0 0 0 0 0 0 0 0 0 0 0 0 0 0 0 0.25 0"/>
<feBlend mode="normal" in2="shape" result="effect1_innerShadow_2122_660"/>
</filter>
<filter id="filter7_i_2122_660" x="0" y="153" width="145" height="32.9998" filterUnits="userSpaceOnUse" color-interpolation-filters="sRGB">
<feFlood flood-opacity="0" result="BackgroundImageFix"/>
<feBlend mode="normal" in="SourceGraphic" in2="BackgroundImageFix" result="shape"/>
<feColorMatrix in="SourceAlpha" type="matrix" values="0 0 0 0 0 0 0 0 0 0 0 0 0 0 0 0 0 0 127 0" result="hardAlpha"/>
<feOffset dx="5" dy="10"/>
<feGaussianBlur stdDeviation="1"/>
<feComposite in2="hardAlpha" operator="arithmetic" k2="-1" k3="1"/>
<feColorMatrix type="matrix" values="0 0 0 0 0 0 0 0 0 0 0 0 0 0 0 0 0 0 0.25 0"/>
<feBlend mode="normal" in2="shape" result="effect1_innerShadow_2122_660"/>
</filter>
<filter id="filter8_i_2122_660" x="209" y="148" width="145" height="32.9998" filterUnits="userSpaceOnUse" color-interpolation-filters="sRGB">
<feFlood flood-opacity="0" result="BackgroundImageFix"/>
<feBlend mode="normal" in="SourceGraphic" in2="BackgroundImageFix" result="shape"/>
<feColorMatrix in="SourceAlpha" type="matrix" values="0 0 0 0 0 0 0 0 0 0 0 0 0 0 0 0 0 0 127 0" result="hardAlpha"/>
<feOffset dx="5" dy="10"/>
<feGaussianBlur stdDeviation="1"/>
<feComposite in2="hardAlpha" operator="arithmetic" k2="-1" k3="1"/>
<feColorMatrix type="matrix" values="0 0 0 0 0 0 0 0 0 0 0 0 0 0 0 0 0 0 0.25 0"/>
<feBlend mode="normal" in2="shape" result="effect1_innerShadow_2122_660"/>
</filter>
</defs>
</svg>
