<svg xmlns="http://www.w3.org/2000/svg" viewBox="0 0 897 1479"><defs><style>.cls-1{fill:#a4c0fc;}.cls-2,.cls-3,.cls-5{fill:#fff;}.cls-3{font-size:39px;font-family:SukhumvitSet-SemiBold, Sukhumvit Set;font-weight:600;}.cls-4,.cls-5{opacity:0.8;}.cls-6{fill:#d9ead8;}.cls-7{fill:#cfe5db;}.cls-8{fill:#f6c4bf;}.cls-9{fill:#6d866b;}.cls-10{fill:#9bc7af;}.cls-11{fill:#a08c7b;}</style></defs><g id="Layer_6" data-name="Layer 6"><rect class="cls-1" x="27.26" y="34.13" width="841.3" height="1413.04" rx="65.77"/><path class="cls-2" d="M797.24,1430.24c-6.54.3-4.19.59-5.18.72,2.76-.16,4.44-.29,5.42-.4s1.24-.29,1.18-.33a2.63,2.63,0,0,0-.81,0C797.49,1430.22,797.17,1430.21,797.24,1430.24Z"/><polygon class="cls-2" points="846.68 1350.02 846.85 1351.85 846.43 1336.61 846.68 1350.02"/><path class="cls-2" d="M846.69,1253.33c-.72,9.14.11,35-.14,52.26l-.16,2.84.57,7.77C846.87,1295.27,846.49,1268.07,846.69,1253.33Z"/><path class="cls-2" d="M848.23,1201.78c-.28,3.18-.24-11.15-.09,12,0-1.17.05-1.5.07-2.18C848.22,1209.54,848.22,1206.66,848.23,1201.78Z"/><path class="cls-2" d="M848.21,1211.62c0,10.18.24-6.66,0,0Z"/><path class="cls-2" d="M848.05,1164.6l.25,13.41c.17-2.8.2-14.74.32-10.31C848.49,1154,848.32,1156.78,848.05,1164.6Z"/><path class="cls-2" d="M847.53,1151.88l.11,6.95A64.89,64.89,0,0,0,847.53,1151.88Z"/><path class="cls-2" d="M847.86,1173.57l-.22-14.74a27,27,0,0,0,.08,6.77C847.51,1164.39,847.71,1167.31,847.86,1173.57Z"/><path class="cls-2" d="M847.75,1181.92c-.15,7.52-.25,17.24-.5,3.78C847.35,1211.36,847.85,1207.58,847.75,1181.92Z"/><path class="cls-2" d="M846,1248.39l-.21,10.06.24,8.7C845.86,1262.81,846.17,1247.77,846,1248.39Z"/><path class="cls-2" d="M848.42,1081c-.15-.83-.4,4.51-.59,5.52l.17,9.9C848.1,1091.37,848.2,1081.72,848.42,1081Z"/><path class="cls-2" d="M847.83,1086.56l-.27-14.83C847.53,1085,847.66,1087.39,847.83,1086.56Z"/><polygon class="cls-2" points="846.74 1149.49 847.29 1173.84 846.73 1144.8 846.74 1149.49"/><polygon class="cls-2" points="848.44 1024.43 848.79 1032.84 848.26 1017.87 848.44 1024.43"/><path class="cls-2" d="M848.38,986.88c.29,6.22.49-8.52.67-2,0-10.2-.3-18.91-.52-26.75C848.65,966.51,848.62,975.39,848.38,986.88Z"/><path class="cls-2" d="M848.2,945c.07,4.16.19,8.47.33,13.17C848.46,953.75,848.36,949.4,848.2,945Z"/><path class="cls-2" d="M847.64,1046.48c.09-1.14.33-3.35.43-11.66l-.42,5.83C847.64,1042.43,847.64,1044.44,847.64,1046.48Z"/><path class="cls-2" d="M847.63,1040.85l0-.2c0-6.33,0-10.72,0-12.6C847.67,1029.67,847.65,1033.52,847.63,1040.85Z"/><path class="cls-2" d="M847.64,1048v-1.47A7.22,7.22,0,0,0,847.64,1048Z"/><path class="cls-2" d="M847.13,1110.63c-.24-8.71-.5-26.86-.86-9.29C846.56,1107.58,846.77,1097.53,847.13,1110.63Z"/><path class="cls-2" d="M847.1,1055.19l-.09,15.75c.11-.31.27-3.15.39,1.16Z"/><polygon class="cls-2" points="846.97 1047.48 847.1 1055.19 847.14 1049.36 846.97 1047.48"/><path class="cls-2" d="M847.8,972c-.19-6.8-.2-14.24-.23-22.65-.09,9-.13,18.32-.13,27.17C847.57,977.74,847.81,981.63,847.8,972Z"/><path class="cls-2" d="M847.68,1005.45c0-.47,0-1.07,0-1.51C847.62,1004.87,847.61,1005.61,847.68,1005.45Z"/><path class="cls-2" d="M847.57,866.6c0,.46-.05.86-.08,1.33,0,.1,0,.17.08.31Z"/><path class="cls-2" d="M847.36,978c-.08,6.77,0,10.81.15,14.67,0-5.06,0-10.43-.07-16.18C847.38,975.94,847.34,975.83,847.36,978Z"/><path class="cls-2" d="M848,921.93c-.07,3.52-.15,7.52-.24,11.72C847.9,930.21,848.11,923.18,848,921.93Z"/><path class="cls-2" d="M847.77,1001.65c0,.34,0,.65,0,1C847.89,1000.45,847.84,1000.72,847.77,1001.65Z"/><path class="cls-2" d="M847.77,1001.65c-.06-3.48-.16-6.22-.26-9,.06,4.12.1,7.94.15,11.26C847.69,1003.1,847.73,1002.26,847.77,1001.65Z"/><path class="cls-2" d="M844.83,841.54c.39,1.19.76,19,.34,34.35.29,15.12,1.59,5.24,2.32-8-.17-.47-.33-.47-.56-16-.22,5.45-.51,34.52-.87,21.4-.2-20.61.14-16.89.35-26.91-.49,8.52-.72-26.22-1.44-21.73l.25,18.07C845.11,843.07,844.93,836.52,844.83,841.54Z"/><path class="cls-2" d="M847.45,897.57l0,6.41c.07-7.3.23-12.53.54-22.15-.19-10.65-.34-12.86-.47-13.59l-.06,31.52Z"/><path class="cls-2" d="M847.5,932.72c-.43-5-.61-20.37-1.08-11,0,18.79.36,13.17.55,24.4-.11-30.32.24,8.71.48-13.2,0,6,.08,11.32.12,16.37.07-5.46.13-10.72.19-15.68,0,.28,0,.47,0,.7v.11c-.05,1.31-.08,1.74-.05.26,0-.1,0-.46,0-.63a10.5,10.5,0,0,1-.16-1.37c.09-8.78.11-1.38.16,1.37,0,.1,0,.34.06.37v-.11L847.5,904C847.44,910.4,847.45,918.45,847.5,932.72Z"/><path class="cls-2" d="M845.34,1085.14c0-1,.07-.9.1-1C845.39,1082.2,845.35,1081.46,845.34,1085.14Z"/><path class="cls-2" d="M845.6,1072.64c.06,2.21.23,4,.19,11.23-.13,6.22-.21,0-.35.29.12,4.33.31,15.15.52,1.58l-.06-2.15c.15-12.23.69-27.94.75-25.8C846.26,1061.36,846,1064.51,845.6,1072.64Z"/><path class="cls-2" d="M846.44,1001.81l-.21-25.29-.37,12.88.22-.66C846,1003.13,846.27,1000,846.44,1001.81Z"/><polygon class="cls-2" points="847.78 863.71 848.24 867.06 847.6 852.45 847.78 863.71"/><polygon class="cls-2" points="847.73 830.84 848.13 832.06 847.89 823.38 847.73 830.84"/><path class="cls-2" d="M53,386.41l.11,7.43C53.06,390.32,53,388.06,53,386.41Z"/><path class="cls-2" d="M53,332.61l-.19-1.32C53,333.78,53,334.8,53,332.61Z"/><path class="cls-2" d="M790.28,53.24c-10.83-.37-22.92-.94-21.61-.49l3.32.43C779.55,53.1,785.35,53.15,790.28,53.24Z"/><path class="cls-2" d="M237.46,55.83l3.17.14,7.31-.42Z"/><path class="cls-2" d="M229.82,57.63l-14.27-.28C218.76,57.45,223.35,57.54,229.82,57.63Z"/><path class="cls-2" d="M53.47,680.25l.44,8.67C53.91,675.36,53.68,681.33,53.47,680.25Z"/><path class="cls-2" d="M847.57,494.22c.17-9.34.24-16.77.26-23.3C847.58,482.17,847.21,491.25,847.57,494.22Z"/><path class="cls-2" d="M48.4,365.24c.08,4.55.17,6.49.27,6.35C48.59,366.91,48.51,364.27,48.4,365.24Z"/><path class="cls-2" d="M847.83,443.94c0,1.64-.07,3.26-.1,4.93.07,6.83.13,13.7.1,22.05C848,462.6,848.13,453.09,847.83,443.94Z"/><path class="cls-2" d="M391.33,1425.59l2.41.05A12.44,12.44,0,0,0,391.33,1425.59Z"/><path class="cls-2" d="M701.79,1430l-12.74,0C691.34,1430,695.18,1430,701.79,1430Z"/><path class="cls-2" d="M847.92,698.6c0,7,.05,1.1,0,0Z"/><path class="cls-2" d="M846.2,732.5a14.63,14.63,0,0,0-.21-2.79A21.22,21.22,0,0,1,846.2,732.5Z"/><path class="cls-2" d="M845.13,374.5v-.6C845.05,376,845.06,375.62,845.13,374.5Z"/><path class="cls-2" d="M847.72,709.09c0-2.62.08-5.63.13-8.92C847.83,701.61,847.79,704.32,847.72,709.09Z"/><path class="cls-2" d="M847.93,707.68c0,2.4,0,4.29,0,6.09C848,714.65,848,713.87,847.93,707.68Z"/><path class="cls-2" d="M847.9,688.89c0,4,0,7.7,0,11.28,0-1.37.06-1.94.07-1.57C847.92,696.56,847.91,693.67,847.9,688.89Z"/><path class="cls-2" d="M52,1174.94c0,.46,0,1-.05,1.49C52.08,1183.46,52.06,1180.38,52,1174.94Z"/><path class="cls-2" d="M608.85,57.75l.8,0-1,0Z"/><path class="cls-2" d="M583.82,58.07c10.66-.54,16.72-.47,24.8-.36l-8.28-1.25Z"/><path class="cls-2" d="M53.13,515.23l.39-17.58c.64,21.22.42,36.58,1,20.07-1.36-2.49-.14-68.34-1.5-70.78l.29-11.59c0,3.32,0,3.85,0,7.13.65-22.54-1-16.74-.79-45.79.11-10.12.3-17.18.47-10.28l-.34-22.55c0-6.57.26-5,.24,1.57L52.8,331l0,.26c-.22-4.91-.54-16-.68-21.46.19-8.74.14,4.38.31,2.15l-.33-19.05c.35-7.76.69,8,.64,21.18,1.36-17.79-.34-15.8.45-54.19l.18,18c.77-11.59.49-25.63,1-46-.25,4.82-1.21,40.71-1.55,20,.1-5.83.15-13.51-.12-24.66.48-.1.36-11,.33-24.62l.64.93c-.18-14.73-.51-13.56-.8-22.23.07-16.42.56-19.82,1-23.69.1-26.29-.79,18.16-.91-13,.12-10.93.11-20.24,0-30.08q0-1.85,0-3.72c0-.63,0-1.26,0-1.89s0-1.22.06-1.83c.06-1.23.08-2.47.16-3.73s.35-2.53.53-3.82a52.13,52.13,0,0,1,5.6-16.14c1-1.55,1.68-2.71,2.24-3.47s.94-1.17,1.12-1.37c.35-.4,0,.13-.48.88A18.79,18.79,0,0,0,60.76,82c-.3.58-.3.68.41-.42a24.21,24.21,0,0,1,1.75-2.72c.63-.88,1.19-1.82,1.87-2.65a52.65,52.65,0,0,1,4.34-4.86c2.38-2.14,1.71-1.33,1.38-.92A29.07,29.07,0,0,1,73,68.3c.63-.51,1.07-.88,1.4-1.17.65-.59.86-.83,1.26-1.15A25.5,25.5,0,0,1,78,64.29l1.22-.8,1.67-.85a34.71,34.71,0,0,1,4.88-2.19,23.16,23.16,0,0,1,2.71-1.16c1.3-.35,3-.77,4.86-1.23l3.12-.43,1.69-.22a17.44,17.44,0,0,1,1.79-.09l3.8-.11,4.16.09c11.4.24,25,.48,36.1.08,5.48.18-2.65.39-1,.64,30.51-.53,26.16-.38,51.21-1.09l21.35.42c-15.68-.48,4.36-1.05,21.91-1.52L224,55.3,252,55c3.39.1.57.32-4,.59l5.13-.15c10,.23,4.82.6-2.35,1L240.63,56c-6.92.38-13.4.81-12,1.19,1.83-.08,5.33-.14,9.19-.17-1.81.1-3,.2-2.13.26s3.87-.07,8.45-.24l6.37.71,1.55-.28,36.65.45c26.22-.72,49-1.78,90.64-2.07-10.32.52-2.22.85-2.78,1.47-11.35-.65-32.23.28-53.8.15,11.25.07,8.78.36,5.92.47l38.46-.6c-.86.51,8.17.38,18.22.59-7.59-1,28.68-.67,44.33-1,1,.34-2.78.68-21.88.6,21.07.76,27.23-1.17,47.91-.53-4.67,0-7.18-.05-9,.12,10.89-.29,37.52-.06,31.25.24h-4.65c31,.12,94.24,0,98.85-.84.31.11-4.05,1-5.93,1.2l55.24-2.87c-4.87.73,13.81,2.47-11.86,2.89,7.37.1,16.49.22,32,0-5-.11-12.53-1.06-5.66-1.13,18.86.82,13.09.44,36.34,1.13-7.54-.16.84-1.3,12.75-1.27-1.86.18,1,1.14-3.37,1.25l29.65-1.12c-7.4.2-1.31.95,5.33,1.27-3.08-.22,25.63,0,33.53-.09l-12.57-.26c16.74.08,25-.31,33.24-.72,4.11-.2,8.22-.41,13.37-.57,2.58,0,5.42-.18,8.65-.13,1.6.08,3.31.07,5.12.27l2.79.42a20.09,20.09,0,0,1,2.95.56,12.39,12.39,0,0,0-3-.24c-.86,0-1.46.1-1.42.29.05.46,2.8.65,10.47,3.41a27.07,27.07,0,0,1,3.47,1.11l2.25.87,1.26.5,1.28.66,2.8,1.43c1,.53,1.91,1.2,2.94,1.85l1.56,1c.51.38,1,.79,1.52,1.2l1.57,1.25A15.28,15.28,0,0,1,830.1,72a49.69,49.69,0,0,1,11.24,15,50.94,50.94,0,0,1,5.23,20.91c0,1.92-.2,3.77-.28,5.66l.37,22.54c-.19-3.51-.47-8.61-.8-14.61-.14-3-.3-6.23-.47-9.6-.07-1.69-.15-3.41-.35-5.15-.09-.87-.17-1.74-.26-2.62l-.06-.66-.13-.65-.26-1.31A52.66,52.66,0,0,0,836.43,82a53.92,53.92,0,0,0-12.49-13.18,14.2,14.2,0,0,1,1.53,1.34l1.16,1.11c.68.67,1.21,1.16,1.6,1.58l1.63,2,.93,1.08a18.42,18.42,0,0,1,1.39,1.77c.55.77,1.28,1.7,2.15,2.93l1.3,2.15.76,1.24c.13.22.28.44.4.68s.24.48.36.74c.62,1.46.63,1.65.28,1-.18-.3-.45-.8-.78-1.44s-.87-1.35-1.37-2.18-1-1.74-1.7-2.6l-2-2.58a23.13,23.13,0,0,0-2-2.29L828,73.62A50.6,50.6,0,0,1,839,91l.88,2.43a23.46,23.46,0,0,1,.68,2.49l.63,2.5c.2.83.27,1.69.41,2.54l.38,2.55c.1.85.09,1.72.15,2.58l.12,2.57c0,.88,0,1.81,0,2.72.67-2,.67,33.39,1.23,31.73l-.35-23.72-.08-5.93,0-3,0-1.48-.09-1.43a44.5,44.5,0,0,0-.55-5.64l-.47-2.79c-.15-.93-.48-1.83-.7-2.74,0-1,2.69,5.14,2.81,16.12.37,11,.65,26,.59,41.51-.26,7.87-1.19-5.89-1.42-5.25.23,4,.44,29.37.28,32.22L843,167.85c-.25,17.22.89,28.11.25,48.81,0,7.15-.86,21.34-.47,22.57.77-11.65,3.14-13.93,3.72-6.16,0,2.5-.73,37.52-1.11,45.67-.6,11.77-1.44-17.66-1.95-7.64.18.43.41,6.93.48,9.64-.16,7.5-.57-3.11-.49,13.2.69,2.72-.05,33.16.58,7.7.19,15.95-.14,16.95-.11,35.68.44-6,1.5,16.82,1.69,32.8-.17-.94-.4,2.65-.5,4.38-.06,32.7-.37,50.25-.38,80.73-.16,2.81-.36,17.52-.65,11.26.12,4.38.35,8.41.36,17.82-.59,18.19-.09-21-.8-7.1.4,1.19.55,24.32.8,37.71.61-4.12.12-30.94-.13-44.35.42,0,.85,5.79,1.23,15.6s.69,23.62.89,39.55c.21,25.32-.55,11-.43,15.37-.15,47.57,1.47,40.53.87,80-.54,15.67-1.07.71-1.46,4.18-.21-20.63.34-31.67.32-45.65l-.26,17.21c-.18-6.56-.31-20.33-.16-27.84-.48,13.14-.09,80.37-.53,117.07.18,6.52.36,17.77.58,12.45l-.08-11.61c.44-10.68.6,21.85.81,7.15.3,15.58.78,33,.53,55l-.61,4.12c.18-.47.37-14.34.18-20.5.27,9.14-.83,33.63,0,43.64l.43-15.37c.31,15.64,1,35,.76,54.4.61-8.84-.07-4.48.64-18.29-.88,12,0-49.71-.89-30.48.83-14.17.35-24.52,1-43.05-.2.58-.38,6.56-.28-9.75-.06-.74-.14-2.47-.18-3.58v-1.1c0,.32,0,.57,0,.9,0-.71,0-.77,0,.33-.09,3.89-.19,7-.31,8.32-.46-8.1-.45-34-.69-42.82.1-9.68.24,4,.45-1.23l-.36-13.11c.45-1.3.75-25.72,1-2.92l0-20.52c.25-12.09.35-28.71.16-39,.1-9.68-.49-24.45-.14-16l-.28-32.19.11-.3c.06-31.76-.74-65.38.07-101.7-.11-10.69-.25-21.74-.13-39.63l.39-3.49c-.13-13.72.39-41.22,0-47.12,1-14.82.23-66.64.41-90.78l-.51-.91c0-16.62-.11-32.56-.32-53.19l-.44,1.27c-.37-17.79.32-45.73.27-73.87.17,1.92.13,9,0,14.1.26-8.4.34-17,.33-25.73,0-4.35,0-8.72-.08-13.08,0-2.18,0-4.37-.06-6.54,0-1.07-.1-2.24-.16-3.36l-.22-3.39a57.6,57.6,0,0,0-9.14-24.71A59.44,59.44,0,0,0,820.26,61.3a42.79,42.79,0,0,0-4.94-2.52c-.79-.34-1.52-.78-2.31-1l-2.24-.82-2.14-.79c-.71-.22-1.42-.39-2.12-.59L804.45,55a14.25,14.25,0,0,0-2-.48,17,17,0,0,1,1.92.39c-.39-.09-.87-.26-1.42-.34l-1.77-.27a39.18,39.18,0,0,0-5.29-.74c-1.82-.12-3.75-.31-5.58-.31,1.56,0,3.21.18,4.76.3l2.26.17c.74,0,1.44.22,2.13.32a36.5,36.5,0,0,0-5.1-.42c-.92,0-1.92-.11-2.87-.1l-3,0-12.8.13L772,53.18h-2c-8.55-.18-6.87.23-2.31.59-4.39.08-8.41.18-11.52.29-6.95-.77-22.85.27-32.33-.56-5.87.4-43.79.3-48.42,1.15-.3-.11-2.87-.16,1.83-.17-9.71-.1-19.41-.19-28.12,0L645,53.92l-21.2.83c-12.88-.38-18.22-.59-5.43-1.06-30.88.72-25.06.27-51.32,1l1.28-.4c-9.39,0-24.39.55-30.05.22-21-.75-103.91-.1-157.81-.8,10.45,1.16-25.06-.53-27.2.38-3.14-.28-10.65-.43-1.92-.67-27.51.27-41.33-.44-60.33.32-3.14-.28,5.89-.4,3.09-.57-2.21.06-8.74.24-11.6.08s4-.23,8.38-.35c-28.1,0-30.94.89-33,1.69-14.24-.38-21.34-.32-31.63.2-5-.26-13.23-.53,4.24-.63L196.68,54c-13.9,0-26.69.06-27.19.38-3.08-.16-13.73,0-16.32,0-22,0-24-.09-45.63,0l6,.1c-2.14.2-4.33.3-6.69.36-1.19,0-2.4,0-3.69.07l-4.07.2A53.08,53.08,0,0,0,78.64,61l.43-.29a26.06,26.06,0,0,0-3.2,1.74c-1,.6-2,1.11-2.81,1.71l-2.4,1.75a20.25,20.25,0,0,0-2.09,1.64c-1.25,1.12-2.38,2.1-3.35,3l-2.41,2.63-1,1.1L61,75.33l-1.33,1.8c-.39.54-.77,1-1.08,1.51s-.57,1-.85,1.43l-1.77,3-2.16,4.47c-.4,1-.78,2-1.25,3.28l-.73,2c-.19.72-.39,1.47-.61,2.27s-.44,1.64-.68,2.54-.33,1.87-.52,2.88-.38,2.08-.5,3.22-.15,2.34-.23,3.61l.59-2.17c.26,1.93.18,10.63-.06,21.79s-.54,24.69-.35,36.15l.28-8.27c.35,12.51-1.4,35-1.53,47.54-.09,2.73-.15-4.33-.21-8.15-.61,32.89.62,4.26.77,28.77-.34,4.52-.86-5.82-.92,10.68-.28,8.22,1.1,47.85.45,70.36.26-5,.52-9.88.71,1.5.1,17.45-1,47.18-.16,62.95a19.75,19.75,0,0,1-.2,3.14c.21,13.34.35,43.36.79,51.39-.82,6.17-.62,26.9-.41,46.06s.46,36.73-.31,36.59l.08,41-.15-1.07c-.1,26.23.26,35.5.63,44.72-.1,6.07-.25,1.64-.33,1.14-.3,38.32-.24,42.13.52,74.27L49,669.06c.28,8.71-.78,55.41-.2,93a32.82,32.82,0,0,1-.23-4.13c.59,42.29-1.37,101.24.43,116.74l.45,27.91c.14-36.11.78,5.38,1.08-9.48.11,14.2-.54,36.71-.63,19.27l.09-2.73c-1-6.42-.34,44.86-1,43.89.05,71-.47,140.3-.51,206.85l.73-7.66,0,23.21c-.17,6.09-.58,8.18-.55-8.38-.2,4.35-.12,11.3,0,17.21s.39,10.8.47,11c-.3,32.43-.85-12.66-.87-2.72l0,13.51.09-3c.3,11,.62,11.92.58,31.83-.15,12.59-.45,6.46-.48,11.41a1.34,1.34,0,0,0,0,.34c0,.25,0,.64,0,1.22,0,1.16,0,3.07,0,6.05l-.06,29.25.57-11.7c.29,13,0,27.5.63,14-.51,9.9-.6,37.18-.6,63.5,0,6.58,0,13.1,0,19.27,0,3.1-.07,6,.15,9a30.46,30.46,0,0,0,.37,4.33c.23,1.39.41,2.76.65,4.08a59.38,59.38,0,0,0,2.08,7.19c.41,1.09.75,2.14,1.16,3.11s.88,1.85,1.29,2.69a24.7,24.7,0,0,0,1.18,2.36c.41.7.8,1.34,1.15,1.93.71,1.17,1.22,2.14,1.71,2.76a55,55,0,0,0,4.49,5.37l1.2,1.28a13.2,13.2,0,0,0,1.25,1.23l2.64,2.33a55.27,55.27,0,0,0,12.06,7.66,57.13,57.13,0,0,0,6.89,2.74c1.21.37,2.44.64,3.68,1l1.87.47,1.92.3c1.29.17,2.58.44,3.9.54l4,.21c2.7.11,5.38,0,8.16.07-5.52-.12-8.82-.77,10.33-.69-7,1.34,35.06.58,50.54,1.55-13.83-.64,54.44-.16,32.73-1.07,16,.11,1,.5,13.1.82,38-.52,83.81.34,130.81.16.73-.17-7.14-.44,2.95-.71l24.81.88c9.29-.08,8.55-1,25.51-.4-2.39-.15-6-.37.26-.43,92.08.86,188.17-.7,281.69.91-12.67-.34-4.23-.37,5.45-.39-6.29-.08.14-.43-1.1-.67l39.15.66c7.14-.66,42,0,46.07-.68l-12.4.12c16.49-.75-23.07-1.66-20.66-2.62-18.46.85-48.68-1.26-79,0-6.69-.2,5.7-.31,2.13-.53-7.68.41-16.95.49-34.14.31l1.94-.1c-48.27.1-69-.31-123.2-.58l4,.48c-11.65-.06-14.1-.21-19.56-.33-13.37.72,32.73,0,20.55.83-15.46-1-82.19,0-92.63-1.11-17.93,0,5.25.55-12.67.54l-4.75-.29-4.53.38c-11.76-.06-17.69-.44-18.13-.69,2.85,0,8.11-.07,11.17-.09-15.25-.35-43,.12-48.22,0l17.23.18c-48.93.28-108.67-.11-155.94.49l3.59.22c-36.1.42-28.91-.24-68.55,0l1.45,0c-7.94.22-18.53.33-29.37.31,5-.13.29-.26-4-.39-2.16-.07-4.23-.12-4.87-.26-.34,0-.35-.09.12-.1h1.08l2,0a52.5,52.5,0,0,1-19-2.67,35.8,35.8,0,0,1-4.28-1.61L80,1420.49a15.78,15.78,0,0,1-2-1l-2.47-1.33a49.43,49.43,0,0,1-9.61-7.44l-1.83-2.28a10.23,10.23,0,0,1-.85-1.19l-.79-1.22c-.67-.84-1.3-1.56-1.83-2.26s-.94-1.41-1.37-2.07l-1.31-2-1.19-2.28c-.39-.83-.93-1.69-1.34-2.76L54,1391.07a17.8,17.8,0,0,1-.67-2.26c-.22-.81-.45-1.67-.69-2.59-.06-.23-.13-.46-.19-.7l-.12-.73c-.08-.5-.16-1-.25-1.55-.15-1.07-.39-2.2-.49-3.41,1.27,7.9,1,4.76.71,1.94a7.92,7.92,0,0,1-.05-2.69,8.5,8.5,0,0,1,.24,1.4c.19.94.47,2.41.85,4.57a57.9,57.9,0,0,1-.74-7.24c0-1.19-.12-2.31-.1-3.49s0-2.33,0-3.47c0-4.57,0-8.84,0-12.85,0-8-.11-15-.19-21.34-.16-12.61-.27-22.41.33-31.93-1-19.08-.57,35.94-.79,25.26-.34,8.94-.77-15.75-.67-28.78,0-13.27,1.32-22.56,1.3-55.94,0,3.32,0,3.55.06,6.86.27-12.49-.35-24.47.08-39.8-.63-8.58,0-19.89-.76-22.36l.18,30.61c-.2-17.35-1.13-33.63-.68-62.22.16,2.22.37,10.73.49,16.58.23-8.36-.16-16.1.08-24.77.79,2.47.17,37.21.78,55.8.33-9-.58-35.17.28-25.83-1.09-13.43.14-32.88-.69-55.49l.47,1.49c-.07-3.57-.3-11-.29-17.57l.62,11.92c-.53-18.3.46-35.28.17-52.83,0,36.75-.57,8.25-.92,23.79-.63-45.33,1.25-26.07,1-76.82.06,6.87-.29,25.8-.51,15.05.1-9.66.28-22.42.53-28.35-.1-33.62-.49,5.17-.78-9.15.58-11.44-.23-16.51-.42-31.25l.48-.1c.31-38.31-1-10.16-.63-44.65l.67,14.58-.17-18,.55,3.71c-.41-19.56-.3-25.65-.15-44.82-.34,4.45-.88-2.51-.89-19.48.29-11.57.46,6.48.39-17.57a192.45,192.45,0,0,1,.23,21.85c.16,1.07.31,5.35.46,6.46.33-12.47.08-31.33.07-40,0,3.36,0,7.36-.11,9.42l-.67-34.87c.18-5.49.33-1.14.47,3.18-.05-7.07-.27-12-.31-22.34.39,2.69.79,2.05,1,16.75l-.44-33.23c.17-2.22.47-17,.62-12.74.23-18.42-.77-45.18-.46-69.6-.08-1.27-.15-3.82-.21-9,.09-23,.57-43.28,0-70.49l.7-15.43c-.16-21.31-.89,20.89-1.15-14.58-.23-25.12.6-9.38.79-18.19-.35-12.49-1.07-34.2-.5-57.28C53.18,502.11,53.08,508.1,53.13,515.23Zm-.31-262.75c.1,5.09.41,15.24.13,19C52.4,265.64,52.66,261.16,52.82,252.48ZM276.14,56.76c-3.78.16-9.64.08-16.25-.1C264.69,56.62,270.12,56.64,276.14,56.76ZM847.53,622.19c0-.21,0-.36,0-.54C847.69,610.29,847.62,614.32,847.53,622.19Zm-.21,23.59c.07,2.37.13,2.2.2,1.2-.12-1.64-.13-6.94-.1-13C847.3,635.69,847.21,638.73,847.32,645.78ZM48.7,1249.39l.12-4.59C49,1255.17,48.84,1252.26,48.7,1249.39Z"/><path class="cls-2" d="M230.85,57.42a9.9,9.9,0,0,1-2.18-.26C226.67,57.24,226.63,57.33,230.85,57.42Z"/><path class="cls-2" d="M53.38,678.65v.8a5.73,5.73,0,0,0,.09.8Z"/><path class="cls-2" d="M843.23,280.46c.07-4.85.16-7.56.25-9.36C843.36,270.83,843.26,273,843.23,280.46Z"/><path class="cls-2" d="M848.14,770.75,848,755.64c0,7.31-.08,9.92-.16,13.61C848,768.91,848.13,766,848.14,770.75Z"/><path class="cls-2" d="M845.15,901.87c0,2.21.05,4.68.07,6.86l.22-.6C845.43,898.72,845.25,892.15,845.15,901.87Z"/><path class="cls-2" d="M846.53,784.74c-.4,1.19-.26,10.67-.19,21.25v-1.87C846.91,807.24,846.72,796,846.53,784.74Z"/><path class="cls-2" d="M846.36,808.44c0,3.27,0,6.6,0,9.79C846.59,819.47,846.41,814.26,846.36,808.44Z"/><path class="cls-2" d="M847.59,675.69c-.11,5,.52,3.15.35,6C848.46,687.28,847.32,648.22,847.59,675.69Z"/><polygon class="cls-2" points="845.2 793.3 845.7 789.51 845.29 783.58 845.2 793.3"/><path class="cls-2" d="M845.57,709.75l-.14,16.91a35.53,35.53,0,0,1,.17,4.53c0-5.21,0-10.67,0-14.78S845.64,709.55,845.57,709.75Z"/><path class="cls-2" d="M845.6,731.19c0,5.43,0,10.59.08,13.61C845.68,741.86,845.66,735.54,845.6,731.19Z"/><polygon class="cls-2" points="845.05 770.19 845.15 765.19 845.19 753.25 845.05 770.19"/><path class="cls-2" d="M845.66,528l-.14-18.46c-.17-1.88-.28,3.15-.21,10C845.43,524,845.5,530.82,845.66,528Z"/><path class="cls-2" d="M844.29,583.8c.1-5,.22-5.33.38-8.14l-.62-.56Z"/><path class="cls-2" d="M844.15,530c-.18-1.84-.5-26.78-.46-3.39C843.86,528.46,844,546.94,844.15,530Z"/><polygon class="cls-2" points="844.93 251.93 844.94 256.62 845.96 255.95 844.93 251.93"/><path class="cls-2" d="M773.49,58.43c10.94.13,12.24,0,13.27-.18a17.12,17.12,0,0,1,2.53-.18c.76,0,1.85-.06,3.28,0l2.44.15,1.48.09.81.06.85.14c1.22.13.88,0-.25-.18a15.53,15.53,0,0,0-2.19-.23l-2.79-.18c-3.95-.15-8-.14-5.36-.27C774.36,57.91,767.43,57.76,773.49,58.43Z"/><path class="cls-2" d="M787.56,57.65c2.1,0,4.39-.14,6.66,0-.93,0-1.71-.07-2.43-.07l-1.88.05Z"/><polygon class="cls-2" points="753.31 1430.52 767.37 1430.73 758.3 1430.39 753.31 1430.52"/><path class="cls-2" d="M780.3,1429.76l3.32.65,8.44-.59C788.88,1429.85,782.72,1429.91,780.3,1429.76Z"/><path class="cls-2" d="M54.13,213.42,54,212.34c-.17,2.18-.18,5.47-.21,12.07Z"/><polygon class="cls-2" points="53.64 404.13 53.65 400.84 53.07 406.98 53.64 404.13"/><path class="cls-2" d="M54.39,564.18c0-6.53-.06-14.21-.08-20.77C54.41,557.65,53.66,566,54.39,564.18Z"/><text class="cls-3" transform="translate(287.16 1069.76)">วันนี้กำลังผ่านไปแล้ว<tspan x="-127.02" y="50">ฉันอยากให้เธอเชื่อจริง ๆ ว่ามันจะดีขึ้น</tspan><tspan x="-68.07" y="100">&apos;ฝนไม่ได้ตกตลอดไปสักหน่อย&apos;</tspan></text><path class="cls-2" d="M730.94,380.68c-104.89-82.19-253-79.46-383.36-51.75-64.64,13.74-132.31,35.27-174,86.56-26.14,32.17-39.21,72.8-49.89,112.85-16.49,61.82-27.4,132.16,6.91,186.17,37.16,58.49,112.92,76.28,181,89.09C379.9,816.44,449.85,829.32,518.38,818,557,811.68,594,797.8,629.66,781.77,706.54,747.24,786.43,691.16,797,607.55c11.42-90,.89-165.65-66.1-226.87"/><g class="cls-4"><path class="cls-2" d="M698.77,364.89a111,111,0,0,1,7.93,8.95,51.89,51.89,0,0,1,4.69,7.48c1,.82,1.94,1.59,2.87,2.44l2.77,2.55,5.53,5.07-6.22-5-3.12-2.51L710,381.46l-6.46-4.77-6.65-4.49a284.16,284.16,0,0,0-40.32-21.46,337.32,337.32,0,0,0-45.16-15.83c-30.68-8.46-61.24-12.5-85.36-14.75,14.3.83,31.28,2.36,47.29,4.79,5.29.89,10.57,1.62,15.55,2.66l7.28,1.41,6.8,1.55c2.18.51,4.3.93,6.27,1.48l5.62,1.5-4.28-.9,8,1.72c2.67.6,5.31,1.31,8,2l4,1c1.33.34,2.64.75,4,1.12l7.9,2.27,7.68,2.89,3.84,1.46,3.78,1.59c2.51,1.07,5,2.11,7.55,3.2l7.42,3.48-7.42-3.48c-2.51-1.09-5-2.13-7.55-3.2l-3.78-1.59-3.84-1.46-7.68-2.89c9.7,3.21,19.38,6.58,28.75,10.7,4.75,1.92,9.34,4.19,14,6.37,2.35,1.05,4.57,2.33,6.85,3.49s4.57,2.34,6.79,3.62"/><path class="cls-2" d="M212.23,765.24l-1.24-.58c2.39.86,4.83,1.64,7.25,2.42a354.9,354.9,0,0,0,43.31,12.8c14.62,3.4,29.22,6.1,43.45,8.4l26.36,4.41c8.89,1.48,17.85,3,26.88,4.4,18.06,2.86,36.43,5.52,55.14,7.47,3.74.45,7.49.7,11.25,1.06s7.55.61,11.35.86c-15.2-.39-30.49-1.5-45.82-3.06l-4.48-.65c-16.17-2.32-31.64-4.86-46.71-7.39l-22.33-3.81c-7.35-1.25-14.57-2.5-21.71-3.81-14.28-2.64-28.25-5.49-42-9.09a298.5,298.5,0,0,1-40.69-13.43"/><path class="cls-2" d="M432,801.72a415.6,415.6,0,0,0,52.42-.48l6.61-.52,6.58-.77c2.19-.28,4.4-.46,6.58-.81l6.54-1c8.73-1.34,17.38-3.25,26-5.45l.21.87a281.18,281.18,0,0,1-29.81,6l-3.85.61-3.91.44-7.85.88c-2.65.23-5.31.39-8,.58l-4,.27c-1.33.09-2.68.09-4,.13l-8.9.22-8.94-.14,4.25.22h-7.46l-7.49-.24c-5-.1-10-.47-15-.75"/><path class="cls-2" d="M508.33,800.48c2.59-.43,5.19-.81,7.78-1.28s5.15-1,7.72-1.57,5.13-1.11,7.69-1.77l3.85-.94,3.83-1c1.38-.28,2.76-.53,4.14-.85-5.79,1.57-11.6,3-17.44,4.27s-11.67,2.29-17.57,3.16"/><path class="cls-2" d="M196.75,777.74q-2.06-1-4.08-2.13c-1.35-.73-2.71-1.44-4-2.19,3.39,1.79,6.8,3.56,10.26,5.19l-2.13-.87"/><path class="cls-2" d="M540.59,828.52c-2.67.52-5.34,1-8,1.48l-4,.68-4,.6,4-.6,4-.68c2.7-.44,5.37-1,8-1.48"/><polyline class="cls-2" points="524.47 831.28 522.16 831.69 524.47 831.28"/><path class="cls-2" d="M711.64,717.24l-4.39,3.07c-1.45,1-2.93,2-4.43,3,1.5-1,3-2,4.43-3l4.39-3.07"/><polyline class="cls-2" points="605.81 805.39 601.47 806.89 605.81 805.39"/><path class="cls-2" d="M194,416.8a166.73,166.73,0,0,1,17.61-14.51A166.73,166.73,0,0,0,194,416.8"/><path class="cls-2" d="M188.62,773.42c-5.32-3.08-10.53-6.35-15.57-9.87,5,3.52,10.25,6.79,15.57,9.87"/><path class="cls-2" d="M687.78,731.72l-3.16,2-3.21,1.94-3.21,1.94L675,739.48c1.86-1.08,3.71-2.17,5.53-3.3s3.68-2.21,5.48-3.38l1.82-1.08"/><path class="cls-2" d="M726.65,705.31,723,708.4l-3.74,3-1.87,1.5-1.92,1.45-3.83,2.9,5.08-3.9c1.68-1.32,3.31-2.69,5-4s3.31-2.67,5-4"/><path class="cls-2" d="M607,773c7.29-3.27,14.66-6.69,21.76-10.17l4-1.76-4,1.76,4-1.76,0,.09c-8.4,4.1-17.09,8.06-25.77,11.84"/><path class="cls-2" d="M710.9,716.3c-7.46,5.45-15.19,10.57-23.12,15.42l-3.16,2-3.21,1.94-3.21,1.94L675,739.48c1.86-1.08,3.71-2.17,5.53-3.3s3.68-2.21,5.48-3.38c-6,3.6-12.12,7.17-18.53,10.6s-13,6.84-19.79,10.13-13.81,6.5-21,9.64c-3.58,1.57-7.27,3.13-11,4.7s-7.48,3.1-11.27,4.61c-1.27.72-2.54,1.43-3.82,2.13,6.72-2.73,13.43-5.54,20.12-8.49s13.2-5.9,19.67-9.08c-3.83,2-7.72,3.9-11.62,5.8l4-1.76q3.94-1.79,7.83-3.68c-2.58,1.29-5.17,2.55-7.79,3.77q19.82-8.79,38.65-19.3l-7.64,4c-2.58,1.28-5.13,2.61-7.73,3.86,6.43-3.23,12.81-6.55,19-10.09l-3.67,2.22c5.65-3.09,11.3-6.22,16.79-9.57,7.81-5,15.41-10.37,22.73-16m-35.85,23.35c1.22-.75,2.46-1.47,3.67-2.24-1.21.77-2.45,1.49-3.67,2.24"/><path class="cls-2" d="M686,732.8c-1.8,1.17-3.66,2.25-5.48,3.38s-3.67,2.22-5.53,3.3c1.86-1.08,3.71-2.17,5.53-3.3s3.68-2.21,5.48-3.38"/><polyline class="cls-2" points="632.69 761.08 628.72 762.84 632.69 761.08"/><path class="cls-2" d="M748.75,682.65l-3.48,3.93c-1.15,1.31-2.4,2.55-3.6,3.83-.85.89-1.68,1.8-2.55,2.66l-2.64,2.59c-.88.85-1.74,1.73-2.65,2.57l-2.72,2.51c-2.72,2.52-5.61,4.87-8.44,7.28s-5.78,4.68-8.79,6.9-6,4.42-9,6.61-6.15,4.26-9.33,6.28l-3.64,2.28-3.69,2.21c7.81-5,15.41-10.37,22.73-16a246,246,0,0,0,37.85-33.65"/><path class="cls-2" d="M640.52,757.4c-2.58,1.29-5.17,2.55-7.79,3.77l0-.09q3.94-1.79,7.83-3.68"/><path class="cls-2" d="M640.52,757.4c-2.58,1.29-5.17,2.55-7.79,3.77,2.62-1.22,5.21-2.48,7.79-3.77"/><path class="cls-2" d="M751.45,679.44c-1.67,2.16-3.5,4.23-5.3,6.3-1.42,1.61-3,3.13-4.48,4.67,1.2-1.28,2.45-2.52,3.6-3.83l3.48-3.93c1-1,1.8-2.14,2.7-3.21"/><polyline class="cls-2" points="747.47 684.3 746.15 685.74 747.47 684.3"/><path class="cls-2" d="M743.71,688.49a227.7,227.7,0,0,1-17.06,16.82l2.37-2.14,2.29-2.21c1.52-1.47,3.09-2.91,4.54-4.44l4-4,3.86-4.07"/><polyline class="cls-2" points="632.69 761.08 628.72 762.84 632.69 761.08"/><path class="cls-2" d="M747.47,684.3c-1.26,1.39-2.44,2.84-3.76,4.19,1.32-1.35,2.5-2.8,3.76-4.19"/><path class="cls-2" d="M746.15,685.74c-.8.93-1.59,1.86-2.44,2.75l-3.86,4.07-4,4c-1.52,1.46-3.15,2.83-4.74,4.22l2.72-2.51c.91-.84,1.77-1.72,2.65-2.57l2.64-2.59c.87-.86,1.7-1.77,2.55-2.66-.85.89-1.68,1.8-2.55,2.66l-2.64,2.59c-.88.85-1.74,1.73-2.65,2.57l-2.72,2.51,2.72-2.51c.91-.84,1.77-1.72,2.65-2.57l2.64-2.59c.87-.86,1.7-1.77,2.55-2.66,1.51-1.54,3.06-3.06,4.48-4.67"/><path class="cls-2" d="M747.47,684.3c-1.26,1.39-2.44,2.84-3.76,4.19.85-.89,1.64-1.82,2.44-2.75l1.32-1.44"/><polyline class="cls-2" points="743.71 688.49 739.85 692.56 735.85 696.52 739.85 692.56 743.71 688.49"/><path class="cls-2" d="M741.67,690.41c-.85.89-1.68,1.8-2.55,2.66l-2.64,2.59c-.88.85-1.74,1.73-2.65,2.57l-2.72,2.51,2.72-2.51c.91-.84,1.77-1.72,2.65-2.57l2.64-2.59c.87-.86,1.7-1.77,2.55-2.66"/><path class="cls-2" d="M735.85,696.52c-1.45,1.53-3,3-4.54,4.44L729,703.17l-2.37,2.14c-1.65,1.34-3.26,2.72-5,4,1.24-1,2.44-2.06,3.63-3.11l3.6-3.15,3.49-3.25c1.17-1.08,2.33-2.16,3.44-3.29"/><path class="cls-2" d="M726.65,705.31c-1.65,1.34-3.26,2.72-5,4,1.7-1.29,3.31-2.67,5-4"/><path class="cls-2" d="M735.85,696.52c-1.45,1.53-3,3-4.54,4.44L729,703.17l-2.37,2.14,2.37-2.14,2.29-2.21c1.52-1.47,3.09-2.91,4.54-4.44"/><path class="cls-2" d="M735.85,696.52c-1.11,1.13-2.27,2.21-3.44,3.29l-3.49,3.25-3.6,3.15c-1.19,1-2.39,2.1-3.63,3.11l-4.24,3.22-4.34,3.13c5.72-4.25,11.15-8.8,16.47-13.46l1.53-1.47c1.59-1.39,3.22-2.76,4.74-4.22"/><path class="cls-2" d="M735.85,696.52c-1.11,1.13-2.27,2.21-3.44,3.29l-3.49,3.25-3.6,3.15c-1.19,1-2.39,2.1-3.63,3.11,1.24-1,2.44-2.06,3.63-3.11l3.6-3.15,3.49-3.25c1.17-1.08,2.33-2.16,3.44-3.29"/><path class="cls-2" d="M678.72,737.41c-1.21.77-2.45,1.49-3.67,2.24,1.22-.75,2.46-1.47,3.67-2.24"/><path class="cls-2" d="M675.05,739.65l-3.67,2.22-7.64,4c-2.58,1.28-5.13,2.61-7.73,3.86,6.43-3.23,12.81-6.55,19-10.09"/><polyline class="cls-2" points="675.05 739.65 671.38 741.87 675.05 739.65"/><path class="cls-2" d="M671.38,741.87l-7.64,4c-2.58,1.28-5.13,2.61-7.73,3.86,2.6-1.25,5.15-2.58,7.73-3.86l7.64-4"/><path class="cls-2" d="M695.5,727.81c-3.55,2.38-7.21,4.65-10.85,6.92,1.19-.79,2.34-1.62,3.52-2.43l3.69-2.21,3.64-2.28"/><path class="cls-2" d="M731.11,700.74l-1.53,1.47c-5.35,4.63-10.8,9.16-16.53,13.38l-2.12,1.6-2.18,1.56-4.35,3.1c-3,2-5.87,4-8.9,6,3.18-2,6.23-4.18,9.33-6.28s6.11-4.33,9-6.61,5.88-4.58,8.79-6.9,5.72-4.76,8.44-7.28"/><polyline class="cls-2" points="731.11 700.75 729.58 702.21 731.11 700.75 729.58 702.21 731.11 700.75"/><polyline class="cls-2" points="731.11 700.75 729.58 702.21 731.11 700.75"/><path class="cls-2" d="M584.4,806.65c-10.78,3.49-21.69,6.6-32.73,9.22,12.5-3,24.81-6.73,37-10.86l-4.22,1.64"/><path class="cls-2" d="M569.49,812.11c-10.26,2.7-20.63,5-31.08,6.85,3.36-.6,6.67-1.37,10-2.06s6.64-1.5,9.93-2.37c6.62-1.62,13.16-3.5,19.68-5.45-2.84,1-5.68,2-8.54,3"/><path class="cls-2" d="M546.18,821.94c-7.81,1.93-15.56,3.57-23.21,4.84l-2.85.49-2.85.4-5.65.77c-1.88.25-3.73.53-5.58.73l-5.52.51c-7.3.77-14.4,1-21.24,1.27l-10.06,0h-2.45l-2.42-.09-4.77-.18A355.21,355.21,0,0,0,503.05,829l-2.29.23,5.73-.49,5.7-.72c3.81-.5,7.63-.92,11.41-1.58s7.57-1.33,11.34-2,7.51-1.54,11.24-2.44"/><path class="cls-2" d="M546.18,821.94c-3.73.9-7.49,1.66-11.24,2.44s-7.54,1.45-11.34,2-7.6,1.08-11.41,1.58l-5.7.72-5.73.49,2.29-.23c3.63-.24,7.24-.79,10.86-1.23l5.42-.69c1.81-.25,3.61-.56,5.41-.85q10.8-1.77,21.44-4.26"/><path class="cls-2" d="M546.18,821.94c-3.73.9-7.49,1.66-11.24,2.44s-7.54,1.45-11.34,2-7.6,1.08-11.41,1.58l-5.7.72-5.73.49,5.73-.49,5.7-.72c3.81-.5,7.63-.92,11.41-1.58s7.57-1.33,11.34-2,7.51-1.54,11.24-2.44"/><path class="cls-2" d="M560.82,814.86l-5.53,1.33-5.56,1.24c6.64-1.6,13.22-3.4,19.76-5.32-2.89.91-5.75,1.9-8.67,2.75"/><path class="cls-2" d="M646.88,780.47c-4.11,1.89-8.23,3.77-12.38,5.57,4.15-1.8,8.27-3.68,12.38-5.57"/><path class="cls-2" d="M751.81,398c-1.25-1.42-2.58-2.77-3.89-4.12s-2.6-2.73-4-4c-2-1.78-3.89-3.58-5.86-5.33l-6-5.13a238.89,238.89,0,0,1,25,28.12,213.47,213.47,0,0,1,21.47,34.78c-1.27-2.7-2.48-5.45-3.84-8.11a181.3,181.3,0,0,1,15.86,38.84,241.67,241.67,0,0,1,7.38,37.8,221.26,221.26,0,0,0-5-29.79A204.44,204.44,0,0,0,768.66,422,232.79,232.79,0,0,0,751.81,398"/><path class="cls-2" d="M801.23,557.65c-.1,3-.25,6-.38,9,.13-3,.28-6,.38-9"/><path class="cls-2" d="M778.6,442.32l2.85,6.09c.9,2,1.75,4.12,2.63,6.18-.88-2.06-1.73-4.13-2.63-6.18l-2.85-6.09"/><polyline class="cls-2" points="801.57 544.22 801.47 550.94 801.23 557.65 801.47 550.94 801.57 544.22"/><path class="cls-2" d="M641.64,780c-4.08,1.89-8.22,3.68-12.34,5.46s-8.38,3.26-12.59,4.85c8.34-3.35,16.62-6.81,24.85-10.49l.08.18"/><path class="cls-2" d="M641.73,780.15c-4.12,1.83-8.28,3.56-12.43,5.28,4.12-1.78,8.26-3.57,12.34-5.46l.09.18"/><path class="cls-2" d="M646.36,779.39c-3.46,1.48-6.9,3-10.38,4.44-8.35,3.43-16.72,6.68-25.17,9.81,10.47-4.12,20.83-8.43,31.13-13l4.42-1.21"/><path class="cls-2" d="M646.4,779.48c-3.48,1.45-6.93,3-10.42,4.35,3.48-1.42,6.92-3,10.38-4.44l0,.09"/><path class="cls-2" d="M648.56,778.75c-9.64,4.31-19.39,8.3-29.17,12.12,5.55-2.29,11.07-4.6,16.59-7,3.49-1.39,6.94-2.9,10.42-4.35l2.16-.73"/><path class="cls-2" d="M641.56,779.79c-8.23,3.68-16.51,7.14-24.85,10.49,4.21-1.59,8.4-3.19,12.59-4.85-11.34,4.9-23.8,10.08-36.47,14.73S567.29,809,555.3,812.09q19.07-5.7,37.6-12.78,15.92-6,31.52-12.86c10.4-4.51,20.73-9.27,30.86-14.42-2.26,1.34-4.54,2.64-6.83,3.93s-4.58,2.57-6.89,3.83"/><path class="cls-2" d="M641.56,779.79c-8.23,3.68-16.51,7.14-24.85,10.49,8.34-3.35,16.62-6.81,24.85-10.49"/><path class="cls-2" d="M665.13,766.63c-15,7.77-31.32,15.22-46.89,21.54-7.78,3.17-15.37,6.08-22.5,8.62s-13.81,4.65-19.74,6.33l6.84-2.4c10.87-3.91,20.84-7.77,30.36-11.61s18.61-7.65,27.63-11.69,17.95-8.34,27.13-13.2,18.59-10.29,28.45-16.75l3.13-2.08c-9.58,5.89-22.22,13.17-35.23,19.7s-26.29,12.49-36.69,16.6q12.36-5.21,24.16-10.75t23.08-11.64c7.54-4,14.87-8.28,22.07-12.71s14.22-9.1,21.07-14a398.14,398.14,0,0,1-52.87,34.08"/><path class="cls-2" d="M615.38,787.15C600.73,792.69,586,797.81,571,802.06c6.38-1.95,12.71-4.07,19-6.3q12.78-4,25.41-8.61"/><path class="cls-2" d="M510.38,815.14c-2.19.26-4.37.61-6.56.79l-2.2.12c2.93-.18,5.84-.56,8.76-.91"/><path class="cls-2" d="M549.6,808.15c-3.59.89-7.22,1.64-10.82,2.43a276.94,276.94,0,0,1-28.4,4.56c-2.19.26-4.37.61-6.56.79,7.68-.82,15.37-1.7,23-3s15.23-2.91,22.78-4.74m-10.82,2.43a276.94,276.94,0,0,1-28.4,4.56,276.94,276.94,0,0,0,28.4-4.56"/><path class="cls-2" d="M590,795.76c-6.3,2.23-12.63,4.35-19,6.3-10.63,3.28-21.35,6.18-32.18,8.52a276.94,276.94,0,0,1-28.4,4.56c-2.92.35-5.83.73-8.76.91l2.2-.12a357.76,357.76,0,0,1-41.93.59,347.37,347.37,0,0,0,48.28-2.86c6-.53,12.47-1.25,19.1-2.38,1.66-.26,3.34-.54,5-.87l5.08-.95c3.39-.71,6.84-1.39,10.27-2.22s6.88-1.67,10.33-2.53,6.86-1.82,10.24-2.82c6.78-1.93,13.41-4,19.76-6.13"/><path class="cls-2" d="M590,795.76c-6.3,2.23-12.63,4.35-19,6.3,6.38-1.95,12.71-4.07,19-6.3"/><path class="cls-2" d="M510.38,815.14c-2.92.35-5.83.73-8.76.91,2.93-.18,5.84-.56,8.76-.91"/><path class="cls-2" d="M538.78,810.58a276.94,276.94,0,0,1-28.4,4.56,276.94,276.94,0,0,0,28.4-4.56"/><path class="cls-2" d="M538.78,810.58a276.94,276.94,0,0,1-28.4,4.56,276.94,276.94,0,0,0,28.4-4.56"/><path class="cls-2" d="M497,814.51l-4.48.39c-1.49.11-3,.16-4.44.24l-8.72.41-8.47.09-4.13,0-4.06-.11-7.89-.23c-2.57-.11-5.09-.31-7.54-.46s-4.85-.3-7.18-.53l-6.78-.71a408.94,408.94,0,0,0,52.63,0l-6.51,1,8.78,0c1.47,0,2.94,0,4.4,0l4.39-.14"/><path class="cls-2" d="M97.63,607.28q1.22-10.39,3.06-20.61l-.7,6.88c-.87,4.54-1.68,9.11-2.36,13.73"/><path class="cls-2" d="M556.72,302.06c5.68.94,11.17,2.14,16.51,3.25,2.68.53,5.3,1.24,7.89,1.84s5.15,1.21,7.65,1.9l7.4,2.06,3.62,1,3.55,1.12,6.93,2.2c2.28.7,4.49,1.57,6.68,2.33a286.33,286.33,0,0,1,45.39,20.58c-5.15-2.29-10.46-4.17-15.72-6.19-2.64-1-5.32-1.83-8-2.75l-4-1.35c-1.34-.43-2.7-.82-4-1.23l-8.09-2.44-8.16-2.16-4.09-1.07-4.11-1-8.23-1.88A498.11,498.11,0,0,0,545.08,310c-17-1.81-32.9-2.7-46.53-3.23-6.81-.17-13.06-.44-18.58-.5l-14.28-.36c-3.94-.15-7-.33-9.1-.55s-3.13-.57-3-1,1.74-1.13,5.1-1.91c17-1.29,34.07-2.06,50.62-2.13s32.58.54,47.45,1.78"/><path class="cls-2" d="M289.09,332.55c3-.76,5.91-1.54,8.88-2.25-7.63,2.45-11.89,4.15-17.49,6.37s-12.56,4.84-25.29,10.16c3.83-2.76,18.72-9.11,33.9-14.28"/><path class="cls-2" d="M372.88,311.53c4.55-.44,9.43-1.07,14.62-1.64l8-1,8.36-1,4.3-.53,4.39-.49,9-1c6.06-.61,12.26-1.34,18.55-1.88s12.38-1.09,18.62-1.6c-3.36.78-5,1.41-5.1,1.91s1,.76,3,1,5.16.4,9.1.55l14.28.36c5.52.06,11.77.33,18.58.5,13.63.53,29.55,1.42,46.53,3.23a498.11,498.11,0,0,1,52.84,8.37c-13.66-2.86-27.45-5-41.3-6.55s-27.77-2.51-41.7-2.85-27.86-.23-41.77.36-27.79,1.72-41.63,3.17c-18.46,2-36.82,4.64-55.09,7.9-13.23,2.37-26.41,5-39.52,8s-26.17,6.28-39.09,10.12C272,346.15,246.65,356,223.37,370c2.12-.86,4.21-1.76,6.33-2.59A302.68,302.68,0,0,1,264.94,351c11.73-4.6,23.68-8.55,35.65-12,3.74-1.09,7.48-2.12,11.2-3.12,11.21-3,22.38-5.62,33.43-8s22-4.47,32.71-6.27,21.23-3.34,31.46-4.67,20.22-2.24,29.84-2.9c-29.84,3.34-60.48,8.41-90.9,14.86-20.18,4.27-40.28,9.13-59.78,15.22a370.07,370.07,0,0,0-42.59,16,251.07,251.07,0,0,0-38.51,21.65,185,185,0,0,0-55.57,59.59A224.48,224.48,0,0,0,137.34,471c-2.42,5.76-4.65,11.88-6.87,18.14s-4.24,12.73-6.16,19.21C128,496.08,132,483.89,136.73,472l.84-4.57a455.89,455.89,0,0,0-18.43,48.84c1.26-4.33,2.6-8.65,4-13a370.84,370.84,0,0,1,17.83-46.88,213.61,213.61,0,0,1,23.66-39.52,188.64,188.64,0,0,1,19.18-21.38h0a215.59,215.59,0,0,1,36-27.8,285.12,285.12,0,0,1,42.55-21.48,296.18,296.18,0,0,0-35.47,16.11c-2.9,1.47-5.05,2.56-6.58,3.27a12.37,12.37,0,0,1-2.73,1.15c-1.44.18,7.36-6.29,20.75-13.39,6.68-3.57,14.49-7.28,22.53-10.64s16.3-6.43,23.81-8.94l4.44-1.2c-15.18,5.17-30.07,11.52-33.9,14.28,12.73-5.32,19.7-7.92,25.29-10.16s9.86-3.92,17.49-6.37c3-.47,6.07-.91,9.1-1.32,10.33-2.48,20.7-4.62,31.06-6.59-7.53,2.53,1.89.63,12.71-1.3l8.13-1.45c2.64-.44,5.11-.83,7.19-1.13,4.15-.62,6.68-.83,5.64-.29q26.67-4.37,53.59-7c4.82-.79,9.64-1.61,14.49-2.28l7.26-1.06,7.28-.92c-20.32.67-41.18,2.41-56.69,3.83s-25.73,2.26-24.85.75"/><path class="cls-2" d="M453.55,304.32c-.09.43,1,.76,3,1s5.16.4,9.1.55l14.28.36c5.52.06,11.77.33,18.58.5,13.63.53,29.55,1.42,46.53,3.23a498.11,498.11,0,0,1,52.84,8.37A498.11,498.11,0,0,0,545.08,310c-17-1.81-32.9-2.7-46.53-3.23-6.81-.17-13.06-.44-18.58-.5l-14.28-.36c-3.94-.15-7-.33-9.1-.55s-3.13-.57-3-1"/><path class="cls-2" d="M298,330.3c-7.63,2.45-11.89,4.15-17.49,6.37s-12.56,4.84-25.29,10.16c12.73-5.32,19.7-7.92,25.29-10.16s9.86-3.92,17.49-6.37"/><path class="cls-2" d="M110.06,546.59c2.8-10.24,5.88-20.33,9.08-30.37,1.26-4.33,2.6-8.65,4-13a370.84,370.84,0,0,1,17.83-46.88l.78-2.17c-3.25,6.52-6.07,13.21-8.82,19.92s-5.18,13.5-7.48,20.33a331.16,331.16,0,0,1,17.65-44.7,238.2,238.2,0,0,0-12.48,27.78c-3.89,10.16-7.41,21-10.64,31.87-1.8,6.17-3.5,12.33-5.15,18.51s-3.24,12.42-4.72,18.68m13-43.34a370.84,370.84,0,0,1,17.83-46.88,370.84,370.84,0,0,0-17.83,46.88"/><path class="cls-2" d="M123.09,503.25a370.84,370.84,0,0,1,17.83-46.88,370.84,370.84,0,0,0-17.83,46.88"/><path class="cls-2" d="M295.62,330.36l2.35-.06c-3,.71-5.92,1.49-8.88,2.25l6.53-2.19"/><polyline class="cls-2" points="506.23 318.11 508.44 318.83 506.23 318.11"/><path class="cls-5" d="M268.2,328.79c14.7-4.48,23.31-6.1,28-6.65s5.57.15,4.84,1.25c-1.49,2.21-9.23,6.36-5.45,7l-6.53,2.19-4.44,1.2c-7.51,2.51-15.77,5.56-23.81,8.94s-15.85,7.07-22.53,10.64c-13.39,7.1-22.19,13.57-20.75,13.39a12.37,12.37,0,0,0,2.73-1.15c1.53-.71,3.68-1.8,6.58-3.27a296.18,296.18,0,0,1,35.47-16.11,285.12,285.12,0,0,0-42.55,21.48,215.59,215.59,0,0,0-36,27.8,188.64,188.64,0,0,0-19.18,21.38,213.61,213.61,0,0,0-23.66,39.52l.78-2.17A214.39,214.39,0,0,1,163,418.51a185.44,185.44,0,0,0-21.14,34.15c-3.22,6.61-6.17,13.55-8.94,20.57s-5.23,14.18-7.48,21.22a331.16,331.16,0,0,1,17.65-44.7,238.2,238.2,0,0,0-12.48,27.78c-3.89,10.16-7.41,21-10.64,31.87l1.43-6.67c-3.24,8.53-6.28,17.06-9.24,25.65,4.87-16.64,10.11-33.31,16.53-49.74.92-2.93,1.77-5.87,2.78-8.79l1.47-4.39c.5-1.46,1-2.91,1.57-4.36-8.85,16.39-18.38,37.8-28.71,72.71,1.66-5.79,3.39-11.33,5.09-16.75l2.62-8.1,2.71-8c3.7-10.65,7.7-21.21,12.48-32.17a293.87,293.87,0,0,1,17.51-34.32c1.88-3,3.68-6,5.79-9.06,1-1.52,2-3.09,3.15-4.62l3.39-4.63c1.12-1.59,2.4-3.09,3.63-4.66s2.48-3.16,3.84-4.69q4-4.69,8.5-9.34l2.67-4c1.78-1.6,3.58-3.17,5.38-4.74s3.66-3.05,5.54-4.52c-6.91,4.71-16.87,13.47-25.51,23.22-4.28,4.9-8.33,9.91-11.7,14.49s-6.21,8.67-8.41,11.58a212.47,212.47,0,0,1,12.34-17.91A178.21,178.21,0,0,1,169.06,399a19.34,19.34,0,0,0-3.84,3.18c-.91.88-1.92,1.9-3,3s-2.14,2.35-3.27,3.6-2.28,2.54-3.36,3.84l-3.1,3.82c-2,2.41-3.62,4.62-4.82,6,2.53-3.72,5.07-6.88,7.38-9.76,1.14-1.44,2.36-2.73,3.48-4s2.19-2.47,3.28-3.59c2.22-2.22,4.24-4.3,6.35-6.17l3.08-2.8,3.14-2.68c2.07-1.83,4.3-3.53,6.57-5.43l3.61-2.83,1.89-1.51,2-1.51c5.44-4.16,11.9-8.95,20.42-14.58l1.55-1,2.41-1.56c7.68-4.85,14.58-8.69,20.62-11.88s11.21-5.75,15.52-7.84c8.63-4.19,13.8-6.69,16-8.21s1.36-2-1.84-1.55c-1.59.22-3.78.67-6.49,1.34s-5.91,1.62-9.54,2.85l3.32-1.31,3.33-1.23c2.21-.84,4.44-1.63,6.66-2.4,6-2.47,9.1-3.78,10.48-4.5s1-.88.09-.84c-1.84.06-5.92.95-2.75-.69"/><path class="cls-2" d="M217.56,366.72a12.37,12.37,0,0,0,2.73-1.15c1.53-.71,3.68-1.8,6.58-3.27a296.18,296.18,0,0,1,35.47-16.11,296.18,296.18,0,0,0-35.47,16.11c-2.9,1.47-5.05,2.56-6.58,3.27a12.37,12.37,0,0,1-2.73,1.15"/><path class="cls-2" d="M262.34,346.19a285.12,285.12,0,0,0-42.55,21.48,215.59,215.59,0,0,0-36,27.8,215.59,215.59,0,0,1,36-27.8,285.12,285.12,0,0,1,42.55-21.48"/><path class="cls-2" d="M125.4,494.45a331.16,331.16,0,0,1,17.65-44.7,331.16,331.16,0,0,0-17.65,44.7"/><polyline class="cls-2" points="141.7 454.2 140.92 456.38 141.7 454.2"/><path class="cls-5" d="M107,580.69c-.38,3-.8,6-1.11,9-.32,3.78-.55,7.57-.74,11.36.52-4.51,1.15-9,1.82-13.48-.67,4.48-1.3,9-1.82,13.48l.59,2.33c1.33-10.49,3.2-20.87,5.45-31.13Q109.36,581.05,108,590c1.56-8.88,3.46-17.69,5.59-26.41-2.43,11-4.54,22-6,33.19l.5.06q.39-2.79.88-5.56c.31-1.85.61-3.7,1-5.54,2.13-13.31,5.06-27,8.36-40.35s7-26.25,10.78-38c-3.12,11-6.09,22.15-8.89,33.39-2.94,11.87-5.62,23.9-7.79,36.22a322,322,0,0,0-4.53,37.84c-.11,3-.12,6-.13,9a320.27,320.27,0,0,1,6.3-51,404.24,404.24,0,0,1,11.23-43.23l-1.8,7c-2.86,11.18-5.32,21.55-7.42,31.57s-3.85,19.67-5.17,29.42a254.11,254.11,0,0,0-2.4,29.93,183.51,183.51,0,0,0,2.18,32.77c.21,1.21.44,2.45.66,3.67a213.67,213.67,0,0,1-1.83-40,278.86,278.86,0,0,1,4.83-39.71,290.27,290.27,0,0,0-4.81,51.67,172.58,172.58,0,0,0,7.13,49.8c.48,1.42,1,2.84,1.51,4.22A134.78,134.78,0,0,0,153.64,743a162.66,162.66,0,0,0,24.54,18.67,210.93,210.93,0,0,0,26.89,14.25c-15.63-7.28-30.59-16.16-43.75-27.23,13.16,11.07,28.12,20,43.75,27.23a335.48,335.48,0,0,0,45.3,16.26c15.22,4.38,30.47,8,45.68,11.21s30.37,6.25,45.6,9.26,30.55,5.8,46.11,8.22c-16.26-2.87-32.37-6.25-48.42-9.78,15.51,2.29,32.11,4.94,48.5,7.09S420.42,822,435,822.65c-23.49-1.78-45.1-5.15-66.29-9s-42-8.16-63.94-12.52c21.94,4.36,42.74,8.7,63.94,12.52s42.8,7.18,66.29,9c3,.15,5.95.34,8.93.37-2.37-.16-4.79-.4-7.24-.65l-7.46-.74c-5-.56-10.19-1.18-15.43-1.82-10.47-1.42-21.26-2.95-32-4.82-21.5-3.62-42.85-8-61.42-12.09,13.16,2.6,25.2,5.14,37.82,7.53s25.82,4.77,41.33,6.7l-8.78-1.53c-4.44-.62-8.86-1.33-13.28-2,4.42.67,8.84,1.38,13.28,2,28.73,4,53.21,6.41,77.86,6.7a387.9,387.9,0,0,0,42.65-5.06,397.4,397.4,0,0,0,44.85-10.59c2.49-.72,5-1.44,7.45-2.23l3.71-1.15,3.7-1.21c-10.63,3.28-21.35,6.18-32.18,8.52,3.6-.79,7.23-1.54,10.82-2.43-7.55,1.83-15.14,3.46-22.78,4.74s-15.32,2.22-23,3a357.76,357.76,0,0,1-41.93.59,347.37,347.37,0,0,0,48.28-2.86c-2.19.17-4.37.44-6.56.53l-6.59.32-4.48.39c-1.49.11-3,.16-4.44.24l-8.72.41-8.47.09-4.13,0-4.06-.11-7.89-.23c-2.57-.11-5.09-.31-7.54-.46s-4.85-.3-7.18-.53l-6.78-.71a408.94,408.94,0,0,0,52.63,0c10.17-1,20.21-2.7,30.15-4.62l-4.54-1.07c-2.29.16-4.76.35-7.39.58l-8.42.44c-1.49.08-3,.19-4.57.26l-4.81.12c-3.28.07-6.7.29-10.28.24-14.28.19-30.82-.31-49-1.76l-6.52-.56,2,1.68c-3.6-.65-7.2-1.28-10.79-2-3.29-.19-6.58-.32-9.88-.55l-9.89-.72c-3.28-.46-6.55-1-9.83-1.5s-6.55-1-9.82-1.59c-11.07-.8-25.35-3-40.69-5.88-7.65-1.41-15.65-3-23.54-4.55s-15.75-3.25-23.29-4.92q6.42,1.64,12.89,3.18a209.55,209.55,0,0,1-24.1-4.3,389.55,389.55,0,0,1-37.68-11c-8.12-3-16.08-6.2-23.8-9.81l-2.13-.9.89.32-.85-.41c-5.53-2.47-11-5.09-16.21-8a169.85,169.85,0,0,1-15.23-9.34,142.77,142.77,0,0,1-14.44-11.81c-1.28-1.15-2.42-2.44-3.63-3.64s-2.34-2.5-3.47-3.76c1.13,1.26,2.24,2.56,3.47,3.76s2.35,2.49,3.63,3.64c3,2.77,6.19,5.45,9.5,8-1.37-1.07-2.65-2.23-3.94-3.37L167.88,738,166,736.21a156.93,156.93,0,0,0,16.38,12.67,141.94,141.94,0,0,1-30.3-27.52A125.94,125.94,0,0,1,143.82,710c.77,1.1,1.52,2.21,2.37,3.25a123.69,123.69,0,0,1-8.75-15.74,132.2,132.2,0,0,1-11-36.41,172.33,172.33,0,0,1-3-26.56A178.19,178.19,0,0,0,125.85,657c.37,2,.75,4,1.16,6s.87,4,1.42,5.88a173.61,173.61,0,0,1-4.23-40.65l.5,2.08c.06-8.31.63-17.73,1.72-27.72s2.8-20.53,4.89-31.09l.41-2.09c2.23-12,5-24,8-36-2.61,10.63-5,21.25-7,31.86l1.32-1.92c2.11-10.17,4.55-20.7,7.28-31.47s5.71-21.68,9.18-32.31q2.53-7.86,5.52-15.47l-1.65,3.9a272.16,272.16,0,0,1,12.2-29,196.16,196.16,0,0,1,12.44-22.53,152.66,152.66,0,0,1,15-19.62c-1.65,1.58-3.27,3.21-4.88,4.84l-2.35,2.51-1.17,1.26-1.12,1.31,1.12-1.31,1.17-1.26,2.35-2.51c1.61-1.63,3.23-3.26,4.88-4.84a180.6,180.6,0,0,1,32.54-28.26,263.2,263.2,0,0,1,35.7-20.32c12-5.67,23.77-10.4,35-14.51s22-7.58,31.87-10.67c-14.94,3.91-29.68,8.31-43.49,13.38a292.57,292.57,0,0,0-38,16.79,239.27,239.27,0,0,0-24.69,14.72,189.75,189.75,0,0,0-22.3,17.67A170.59,170.59,0,0,0,165.81,451l-1.55,2.86-1.46,2.93c-1,2-2,3.9-2.88,5.92a188.06,188.06,0,0,1,21.45-38.47l-1.28,1.65c1.93-2.9,4-5.69,6.16-8.45-.86,1.1-1.65,2.25-2.48,3.37l-1.23,1.69c-.4.58-.78,1.16-1.17,1.74a177.29,177.29,0,0,1,34.29-32.82,239.19,239.19,0,0,1,38.4-22.81c26.56-12.71,54.5-21.43,85.74-28.55q-5.34,1.45-10.64,3A831.42,831.42,0,0,1,440,322.42c3.47-.52,6.94-1.12,10.42-1.59l10.44-1.44,10.47-1.23c3.5-.43,7-.71,10.5-1.07-11.83.25-23.65,1-35.46,1.92,3.31-.4,6.63-.68,9.95-1l5-.49,5-.4c1.45-.16,5-.51,8.39-.76s6.51-.49,7.07-.63c.36-.1-.35-.15-2.74-.13l-4.93.07c-2.12.05-4.73.19-7.93.34l-5.23.25-6.16.42-7.13.51-8.17.74c-11.6,1.11-26.11,2.74-44.07,5.55-12.47,2-24.88,4.35-37.25,6.88A953.26,953.26,0,0,1,468.3,312.67l-7.27.21-7.26.33c-2.43.13-4.85.21-7.27.37l-7.27.48c-29.82,3.34-60.48,8.41-90.9,14.86-20.17,4.27-40.28,9.13-59.78,15.22a370.07,370.07,0,0,0-42.59,16,251.07,251.07,0,0,0-38.51,21.65,185,185,0,0,0-55.57,59.59A224.48,224.48,0,0,0,137.34,471c-2.42,5.76-4.65,11.88-6.87,18.14s-4.24,12.73-6.16,19.21l-1.26,4.34c1.41-4.29,2.83-8.57,4.33-12.83-2.15,6.42-4.11,12.89-6,19.35,3.3-10,6.79-19.91,10.64-29.72-4.73,12.68-8.88,25.55-12.8,38.45l-1.51,6.59c3.14-10.82,6.43-21.55,10-32.24-4,12.13-7.61,24.32-11,36.62-.58,3-1.18,5.9-1.72,8.86-3,10.86-5.72,21.84-8,33m180.28,217c16.34,3.76,31.66,7,48.08,10.51s34,7,55.08,10c-21.08-3.06-38.64-6.6-55.08-10s-31.74-6.75-48.08-10.51q-6.53-1.53-13-3.15l-8.66-2.15,8.66,2.15q6.49,1.62,13,3.15l-2.25-.17c-11.64-2.58-23.22-5.39-34.67-8.67,11.45,3.28,23,6.09,34.67,8.67l2.25.17M129.61,711.49A152.32,152.32,0,0,0,142,729.18a162.92,162.92,0,0,0,13.16,14.23,151.46,151.46,0,0,0,32,23.18A149.76,149.76,0,0,1,142,729.18a152.32,152.32,0,0,1-12.36-17.69m-11.41-24.1-.72-2.11a155.66,155.66,0,0,1-5.39-21.57,155.66,155.66,0,0,0,5.39,21.57l.72,2.11a151.39,151.39,0,0,0,7.29,17.55,130.84,130.84,0,0,0,19.94,29.46,142.42,142.42,0,0,0,13.76,13.33,142.42,142.42,0,0,1-13.76-13.33,130.84,130.84,0,0,1-19.94-29.46,151.39,151.39,0,0,1-7.29-17.55m145,105.31c-2.18-.48-4.36-1-6.53-1.51s-4.35-1-6.52-1.6q3.26.84,6.52,1.6c2.17.52,4.35,1,6.53,1.51m39-447.9c18.36-5.69,37.11-10.34,56-14.47-18.87,4.13-37.62,8.78-56,14.47m0,0c18.36-5.69,37.11-10.34,56-14.47-18.87,4.13-37.62,8.78-56,14.47m0,0c-2.83.84-5.64,1.75-8.45,2.64s-5.59,1.91-8.36,2.92-5.56,2-8.33,3c-2.59,1-5.2,2-7.76,3.11l-.8.32c-2.61,1-5.18,2.14-7.76,3.24s-5.35,2.42-8,3.7l-4,1.88-3.92,2c-1.31.66-2.59,1.36-3.87,2.06s-2.58,1.38-3.84,2.12c-2.53,1.44-5.06,2.9-7.53,4.44-1.88,1.1-3.71,2.29-5.55,3.45-1.23.77-2.42,1.6-3.62,2.42s-2.41,1.61-3.57,2.48l-3.51,2.56c-1.16.86-2.29,1.77-3.44,2.64s-2.27,1.78-3.37,2.7-2.24,1.81-3.32,2.76c-1.6,1.46-3.26,2.85-4.82,4.36l-3.14,2.94-3,3c-1.5,1.53-2.88,3.18-4.31,4.77a198.42,198.42,0,0,1,35.89-29.8,269.88,269.88,0,0,1,38.25-20.64l2.85-1.24c.71-.33,1.44-.62,2.16-.94,3.22-1.38,6.5-2.69,9.78-4l2.37-.9c2.74-1.05,5.5-2,8.27-3,1.54-.58,3.1-1.1,4.65-1.65,3.32-1.15,6.65-2.24,10-3.31M446.41,319c-3.84.35-7.75.69-11.71,1.09l-8.16.94c-3,.31-5.9.69-8.84,1.08s-5.86.79-8.78,1.25l-11,1.7-5.23,1-7.12,1.28-7.12,1.41-.19,0c-2.91.58-5.81,1.16-8.71,1.8,2.9-.64,5.8-1.22,8.71-1.8-2.91.58-5.81,1.16-8.71,1.8,2.9-.64,5.8-1.22,8.71-1.8h.08c-2.94.58-5.85,1.15-8.79,1.81,3.52-.8,7.39-1.53,11.31-2.29,2.06-.37,4.1-.79,6.16-1.13l10.93-1.87,3.47-.54c3.39-.51,6.82-1.06,10.27-1.54l6.05-.78c2.1-.28,4.19-.6,6.29-.86l11.47-1.37L446.41,319M422.65,808.9l0,.3c2.91.34,5.82.75,8.73,1-2.9-.35-5.81-.86-8.71-1.3"/><path class="cls-2" d="M302.18,344.8c-11.08,3.43-22.13,7.27-32.9,11.66,2.56-1.09,5.17-2.08,7.76-3.11,2.77-1,5.54-2,8.33-3s5.57-2,8.36-2.92,5.62-1.8,8.45-2.64"/><path class="cls-2" d="M292.14,348.11c-1.55.55-3.11,1.07-4.65,1.65-2.77,1-5.53,2-8.27,3l-2.37.9c5-1.92,10.1-3.83,15.29-5.58"/><path class="cls-2" d="M268.48,356.78a265.16,265.16,0,0,0-45.27,23.44,178,178,0,0,0-35.29,30.08c1.43-1.59,2.81-3.24,4.31-4.77l3-3,3.14-2.94c1.56-1.51,3.22-2.9,4.82-4.36,1.08-.95,2.21-1.84,3.32-2.76s2.22-1.83,3.37-2.7,2.28-1.78,3.44-2.64l3.51-2.56c1.16-.87,2.39-1.65,3.57-2.48s2.39-1.65,3.62-2.42c1.84-1.16,3.67-2.35,5.55-3.45,2.47-1.54,5-3,7.53-4.44,1.26-.74,2.56-1.41,3.84-2.12s2.56-1.4,3.87-2.06l3.92-2,4-1.88c2.63-1.28,5.3-2.5,8-3.7s5.15-2.21,7.76-3.24"/><path class="cls-2" d="M267.07,357.68c-.72.32-1.45.61-2.16.94l-2.85,1.24c1.66-.73,3.33-1.49,5-2.18"/><path class="cls-2" d="M210.1,764.34l.89.32,1.24.58-2.13-.9"/><path class="cls-2" d="M184.51,426.72l1.12-1.31,1.17-1.26,2.35-2.51c1.61-1.63,3.23-3.26,4.88-4.84-1.65,1.58-3.27,3.21-4.88,4.84l-2.35,2.51-1.17,1.26-1.12,1.31"/><path class="cls-2" d="M549.6,808.15c-3.59.89-7.22,1.64-10.82,2.43,3.6-.79,7.23-1.54,10.82-2.43"/><path class="cls-2" d="M510.17,813.66a347.37,347.37,0,0,1-48.28,2.86,347.37,347.37,0,0,0,48.28-2.86"/><path class="cls-2" d="M433.33,813.63a408.94,408.94,0,0,0,52.63,0,408.94,408.94,0,0,1-52.63,0"/><path class="cls-2" d="M302.18,344.8c-2.83.84-5.64,1.75-8.45,2.64s-5.59,1.91-8.36,2.92-5.56,2-8.33,3c-2.59,1-5.2,2-7.76,3.11,2.56-1.09,5.17-2.08,7.76-3.11,2.77-1,5.54-2,8.33-3s5.57-2,8.36-2.92,5.62-1.8,8.45-2.64"/><path class="cls-2" d="M292.14,348.11c-1.55.55-3.11,1.07-4.65,1.65-2.77,1-5.53,2-8.27,3l-2.37.9,2.37-.9c2.74-1.05,5.5-2,8.27-3,1.54-.58,3.1-1.1,4.65-1.65"/><path class="cls-2" d="M268.48,356.78c-2.61,1-5.18,2.14-7.76,3.24s-5.35,2.42-8,3.7l-4,1.88-3.92,2c-1.31.66-2.59,1.36-3.87,2.06s-2.58,1.38-3.84,2.12c-2.53,1.44-5.06,2.9-7.53,4.44-1.88,1.1-3.71,2.29-5.55,3.45-1.23.77-2.42,1.6-3.62,2.42s-2.41,1.61-3.57,2.48l-3.51,2.56c-1.16.86-2.29,1.77-3.44,2.64s-2.27,1.78-3.37,2.7-2.24,1.81-3.32,2.76c-1.6,1.46-3.26,2.85-4.82,4.36l-3.14,2.94-3,3c-1.5,1.53-2.88,3.18-4.31,4.77,1.43-1.59,2.81-3.24,4.31-4.77l3-3,3.14-2.94c1.56-1.51,3.22-2.9,4.82-4.36,1.08-.95,2.21-1.84,3.32-2.76s2.22-1.83,3.37-2.7,2.28-1.78,3.44-2.64l3.51-2.56c1.16-.87,2.39-1.65,3.57-2.48s2.39-1.65,3.62-2.42c1.84-1.16,3.67-2.35,5.55-3.45,2.47-1.54,5-3,7.53-4.44,1.26-.74,2.56-1.41,3.84-2.12s2.56-1.4,3.87-2.06l3.92-2,4-1.88c2.63-1.28,5.3-2.5,8-3.7s5.15-2.21,7.76-3.24"/><path class="cls-2" d="M267.07,357.68c-.72.32-1.45.61-2.16.94l-2.85,1.24,2.85-1.24c.71-.33,1.44-.62,2.16-.94"/><path class="cls-2" d="M358.16,330.33c-18.87,4.13-37.62,8.78-56,14.47,18.36-5.69,37.11-10.34,56-14.47"/><path class="cls-2" d="M358.16,330.33c-18.87,4.13-37.62,8.78-56,14.47,18.36-5.69,37.11-10.34,56-14.47"/><path class="cls-2" d="M124.31,508.31c1.92-6.48,4-12.92,6.16-19.21s4.45-12.38,6.87-18.14a224.48,224.48,0,0,1,14.54-29.54,185,185,0,0,1,55.57-59.59A251.07,251.07,0,0,1,246,360.18a370.07,370.07,0,0,1,42.59-16,370.07,370.07,0,0,0-42.59,16,251.07,251.07,0,0,0-38.51,21.65,185,185,0,0,0-55.57,59.59A224.48,224.48,0,0,0,137.34,471c-2.42,5.76-4.65,11.88-6.87,18.14s-4.24,12.73-6.16,19.21"/><path class="cls-2" d="M439.23,314.06c-29.82,3.34-60.48,8.41-90.9,14.86,30.42-6.45,61.06-11.52,90.9-14.86"/><path class="cls-2" d="M417.7,322.12c2.94-.39,5.89-.77,8.84-1.08-2.78.3-5.57.67-8.37,1l-8.44,1.17c-5.64.89-11.34,1.72-17.05,2.78l5.23-1,11-1.7c2.92-.46,5.85-.83,8.78-1.25"/><path class="cls-2" d="M424,321.55c-2.1.26-4.19.58-6.29.86l-6.05.78L424,321.55"/><path class="cls-2" d="M401.41,324.73l-3.47.54L387,327.14c-2.06.34-4.1.76-6.16,1.13l5-.94,5.09-.88c3.43-.58,6.94-1.21,10.51-1.72"/><path class="cls-2" d="M378.44,328.73l-.11,0h-.08l.19,0"/><path class="cls-2" d="M499.6,318c-1.47,0-3,.1-4.42.15,1.47-.05,2.95-.14,4.42-.15"/><path class="cls-2" d="M481.87,317.09c13.86-.33,27.58-.18,41.18.54s27.09,2.06,40.47,3.92a402.33,402.33,0,0,1,39.81,7.56,383.65,383.65,0,0,1,39.08,11.6l-7.9-2.27c-1.31-.37-2.62-.78-4-1.12l-4-1c-2.66-.65-5.3-1.36-8-2l-8-1.72,4.28.9-5.62-1.5c-2-.55-4.1-1-6.28-1.49L596.15,329l-7.29-1.41c-5-1-10.23-1.77-15.52-2.66-16-2.43-33-4-47.29-4.79-2.92-.33-5.86-.49-8.8-.73s-5.87-.48-8.81-.6v-.1l-2.21-.62c4.44-.21,8.87-.24,13.3-.31-3.32,0-6.64-.07-10,0l-10,.18c-1.47,0-3,.1-4.42.15-18.43.62-36.83,2.11-55.14,4.31,3.47-.52,6.94-1.12,10.42-1.59l10.44-1.44,10.47-1.23c3.5-.43,7-.71,10.5-1.07"/><path class="cls-2" d="M588.86,327.61l7.29,1.41,6.81,1.54c2.18.52,4.3.94,6.28,1.49l5.62,1.5-5.62-1.5c-2-.55-4.09-1-6.27-1.48l-6.8-1.55-7.28-1.41c-5-1-10.26-1.77-15.55-2.66,5.29.89,10.57,1.62,15.52,2.66"/><polyline class="cls-2" points="614.86 333.55 610.58 332.64 614.86 333.55"/><polyline class="cls-2" points="506.23 318.11 508.44 318.73 508.44 318.83 506.23 318.11"/><path class="cls-2" d="M481.87,317.09c-3.5.36-7,.64-10.5,1.07l-10.47,1.23-10.44,1.44c-3.48.47-6.95,1.07-10.42,1.59,3.47-.52,6.94-1.12,10.42-1.59l10.44-1.44,10.47-1.23c3.5-.43,7-.71,10.5-1.07"/><path class="cls-2" d="M491.22,310.41a481.58,481.58,0,0,1,54.93,2.23,413.53,413.53,0,0,1,55.61,9.21A540.89,540.89,0,0,0,546,316.19a525.42,525.42,0,0,0-64.12.9c-11.83.25-23.65,1-35.46,1.92,3.31-.4,6.63-.68,9.95-1l5-.49,5-.4c1.45-.16,5-.51,8.39-.76s6.51-.49,7.07-.63c.36-.1-.35-.15-2.74-.13l-4.93.07c-2.12.05-4.73.19-7.93.34l-5.23.25-6.16.42-7.13.51-8.17.74c-11.6,1.11-26.11,2.74-44.07,5.55-12.47,2-24.88,4.35-37.25,6.88A953.26,953.26,0,0,1,468.3,312.67l-7.27.21-7.26.33c-2.43.13-4.85.21-7.27.37l-7.27.48,8.91-1,8.93-.82c3.51-.39,7.36-.63,11.48-.93s8.52-.48,13.15-.67c1.54-.06,3.1-.14,4.68-.17l4.84-.08"/><path class="cls-2" d="M468.3,312.67a953.26,953.26,0,0,0-110.14,17.66A953.26,953.26,0,0,1,468.3,312.67"/><path class="cls-2" d="M481.77,315.7c-.56.14-3.71.38-7.07.63s-6.94.6-8.39.76l-5,.4-5,.49c-3.32.35-6.64.63-9.95,1,3.31-.4,6.63-.68,9.95-1l5-.49,5-.4c1.45-.16,5-.51,8.39-.76s6.51-.49,7.07-.63"/><path class="cls-2" d="M376.43,320.36c18.27-3.26,36.63-5.93,55.09-7.9q20.76-2.18,41.63-3.17t41.77-.36q20.9.51,41.7,2.85c13.85,1.56,27.64,3.69,41.3,6.55a402.35,402.35,0,0,1,48.68,13.94c5.27,2,10.58,3.84,15.74,6.08,15.75,9.11,28.35,18.72,36.43,26.54-2.22-1.28-4.53-2.41-6.79-3.62s-4.5-2.44-6.85-3.49c-4.63-2.18-9.22-4.45-14-6.37-9.37-4.12-19-7.49-28.75-10.7a383.65,383.65,0,0,0-39.08-11.6,402.33,402.33,0,0,0-39.81-7.56q-20.07-2.79-40.47-3.92c-13.6-.72-27.32-.87-41.18-.54a525.42,525.42,0,0,1,64.12-.9,540.89,540.89,0,0,1,55.77,5.66,413.53,413.53,0,0,0-55.61-9.21,481.58,481.58,0,0,0-54.93-2.23h0l-4.81.08c-1.58,0-3.14.11-4.68.17-4.63.19-9,.35-13.15.67s-8,.54-11.48.93l-8.93.82-8.91,1c-9.62.66-19.59,1.69-29.84,2.9s-20.76,2.8-31.46,4.67-21.65,4-32.71,6.27-22.22,5-33.43,8c-3.72,1-7.48,2-11.2,3.13-12,3.48-23.93,7.44-35.65,12a302.68,302.68,0,0,0-35.24,16.35c-2.12.83-4.21,1.73-6.33,2.59C246.65,356,272,346.15,297.82,338.44c12.92-3.84,26-7.16,39.09-10.12s26.29-5.59,39.52-8"/><path class="cls-2" d="M376.43,320.36c-13.23,2.37-26.41,5-39.52,8s-26.17,6.28-39.09,10.12C272,346.15,246.65,356,223.37,370,246.65,356,272,346.15,297.82,338.44c12.92-3.84,26-7.16,39.09-10.12s26.29-5.59,39.52-8"/><path class="cls-2" d="M431.52,312.46q20.76-2.18,41.63-3.17t41.77-.36q20.9.51,41.7,2.85c13.85,1.56,27.64,3.69,41.3,6.55-13.66-2.86-27.45-5-41.3-6.55s-27.77-2.51-41.7-2.85-27.86-.23-41.77.36-27.79,1.72-41.63,3.17"/><path class="cls-2" d="M264.94,351c11.72-4.59,23.67-8.55,35.65-12,3.72-1.09,7.48-2.12,11.2-3.13,11.21-3,22.38-5.61,33.43-8s22-4.47,32.71-6.27c-10.74,1.8-21.65,4-32.71,6.27s-22.22,5-33.43,8c-3.72,1-7.46,2-11.2,3.12-12,3.48-23.92,7.43-35.65,12"/><path class="cls-2" d="M491.19,310.41h0l-4.84.08c-1.58,0-3.14.11-4.68.17,1.54-.06,3.1-.14,4.68-.17l4.81-.08"/><path class="cls-2" d="M601.76,321.85A540.89,540.89,0,0,0,546,316.19a525.42,525.42,0,0,0-64.12.9,525.42,525.42,0,0,1,64.12-.9,540.89,540.89,0,0,1,55.77,5.66"/><path class="cls-2" d="M597.92,318.33l8.23,1.88,4.11,1,4.09,1.07,8.16,2.16,8.09,2.44c1.34.41,2.7.8,4,1.23l4,1.35c2.67.92,5.35,1.79,8,2.75,5.26,2,10.57,3.9,15.72,6.19-5.16-2.24-10.47-4.08-15.74-6.08a402.35,402.35,0,0,0-48.68-13.94"/><path class="cls-2" d="M597.92,318.33l8.23,1.88,4.11,1,4.09,1.07,8.16,2.16,8.09,2.44c1.34.41,2.7.8,4,1.23l4,1.35c2.67.92,5.35,1.79,8,2.75,5.26,2,10.57,3.9,15.72,6.19-5.15-2.29-10.46-4.17-15.72-6.19-2.64-1-5.32-1.83-8-2.75l-4-1.35c-1.34-.43-2.7-.82-4-1.23l-8.09-2.44-8.16-2.16-4.09-1.07-4.11-1-8.23-1.88"/></g><path class="cls-6" d="M421.55,639.39h-13.7a20.19,20.19,0,0,1-6.7-.61,3.17,3.17,0,0,0-1.26-.16c-4.67.36-9.25-.65-13.87-1A83,83,0,0,1,376,636a77.29,77.29,0,0,1-20.42-6.7A35.41,35.41,0,0,1,343,618.94a25.69,25.69,0,0,1-5.35-14.84c0-.43,0-.85,0-1.27a3,3,0,0,0-2.17-3.23,11.07,11.07,0,0,1-1.94-.82c-3.77-2.06-5.16-5.51-5-9.53a28.67,28.67,0,0,1,1.42-6.58,16.3,16.3,0,0,1,8.77-10.29,20.83,20.83,0,0,1,17.95-.89,10.25,10.25,0,0,0,1.58.56.93.93,0,0,0,1.21-.83,4.68,4.68,0,0,0-.1-1.67c-1.84-7.29,3.14-15.25,9.27-17.55a29.29,29.29,0,0,1,11.08-2.33c2.68.07,5.36.05,8,0,1.68,0,2.31-.66,2.34-2.35.08-3.8-.06-7.62.07-11.42a51.87,51.87,0,0,1,4.81-20.4,28.1,28.1,0,0,1,16.19-14.65,41,41,0,0,1,12.28-2.89c3.07-.18,6.13-.92,9.24-.7,10.4.73,20.41,2.91,29,9.13,7.76,5.6,13.45,12.78,15.3,22.5.46,2.39.15,4.79.36,7.17.15,1.73-.73,3.6.66,5.17,1.67-.6,2.68-2,3.76-3.26,2.79-3.21,6.71-3.93,10.46-5.12,4.34-1.37,8.69-.87,12.92.16,8.36,2,14,7.18,15.87,15.74a28,28,0,0,1,0,10.52c-.41,2.49-1.19,4.91-1.81,7.37-.14.53-.54,1.21,0,1.56.76.49,1.26-.29,1.7-.76a14.07,14.07,0,0,1,5.24-3.44,10.55,10.55,0,0,1,10.07,1.36,15.78,15.78,0,0,1,7.07,12,46,46,0,0,1-5.5,26.52c-3.34,6.32-8.19,11.35-13.8,15.77A72.38,72.38,0,0,1,499.69,632a121.4,121.4,0,0,1-18.11,4.1c-5.57.78-11.17,1.15-16.74,1.77-7.48.84-14.92.43-22.37.69a9.51,9.51,0,0,0-1.69,0C433.94,640.07,427,639,421.55,639.39Zm52.57-65.09a5.8,5.8,0,0,0-1.7,0c-1.92.35-3.92.51-5.6,1.67-1.29.89-1.29,2.35.06,3.07,5.26,2.83,10.57,2.42,15.82,0,1.41-.65,1.35-2.18-.05-2.95A14.87,14.87,0,0,0,474.12,574.3Zm-83.81,3.32c-.61,0-2.15,0-3.68,0a6.75,6.75,0,0,0-3.57,1.09c-1.48.94-1.49,2.5,0,3.31a5.22,5.22,0,0,0,.75.37,21.33,21.33,0,0,0,13.17.39,6,6,0,0,0,1.88-.89,2,2,0,0,0,1-1.71,1.76,1.76,0,0,0-1.25-1.52C396.29,577.54,393.77,577.49,390.31,577.62Zm12.86-14.2a4.84,4.84,0,0,0-.21-1,.84.84,0,0,0-.58-.48.8.8,0,0,0-.62.42,4.31,4.31,0,0,0-.35,1.19,12.86,12.86,0,0,1-1.05,4.47c-1.21,2.19-3.32,2.66-5.24,1.08a7,7,0,0,1-2.23-3.48c-.24-.8-.45-1.61-.74-2.39a.77.77,0,0,0-.66-.33.79.79,0,0,0-.58.47,8.39,8.39,0,0,0,4.36,8,4.62,4.62,0,0,0,6.24-1.72A11.21,11.21,0,0,0,403.17,563.42Zm58.77-1.95a14.18,14.18,0,0,0,1.3,6.3c1.24,2.38,3.71,2.78,5.51.79,2.36-2.61,3-5.92,3.31-9.3,0-.14-.37-.41-.59-.45s-.66.09-.71.24a29.5,29.5,0,0,0-1,3.2,14.19,14.19,0,0,1-1.47,3.91c-.52.87-1.16,1.68-2.3,1.52-.95-.13-1.32-1-1.56-1.79a21.31,21.31,0,0,1-.58-2.86c-.12-.83-.13-1.68-.19-2.51,0-.6-.27-1.21-.86-1.27s-.86.56-.88,1.15C461.93,560.68,461.94,561,461.94,561.47ZM443.29,584.7c-1.27.43-2,.7-2.79.93s-1.61.48-2.43.64a12.94,12.94,0,0,1-2.47.31c-.83,0-1.65-.24-2.48-.28s-1.5-.74-2.21.11c2.16,2.42,4.89,2.61,7.7,2.07A5.9,5.9,0,0,0,443.29,584.7Z"/><path class="cls-6" d="M223.66,568.83c1.38-.51,1.54-1.75,2.05-2.7,3.52-6.66,9.15-10.13,16.51-11a18.6,18.6,0,0,1,9.08,1.62c8.21,3.33,13.92,9.12,15.65,18a23.38,23.38,0,0,1-1.36,13.71c-.45,1.07-1.68,2.37-.7,3.45.63.68,2.08.59,3.16.87,1.5.4,3,.79,4.48,1.22a11.55,11.55,0,0,1,6.91,5.85,18.49,18.49,0,0,1,2,12.3,37.35,37.35,0,0,1-6.94,17.06c-1,1.35-2.29,2.49-3.42,3.74-1,1.07-1,1.63.13,2.39a12.2,12.2,0,0,1,3.59,3.53c2.63,4.15,2.14,8.35.08,12.47a18.5,18.5,0,0,1-3.11,4.51,103,103,0,0,1-11.39,10.7,107.27,107.27,0,0,1-17.83,11.26,116.64,116.64,0,0,1-24.91,9.28l-4.11,1c-1.86.44-3.43,1.19-4,3.27a4.66,4.66,0,0,1-1.19,1.7,1.54,1.54,0,0,1-2.64-.74,7.71,7.71,0,0,1-.1-.84c-.3-1.52-.61-1.92-1.67-1.69-6.56,1.43-13.21.8-19.8.69a68.35,68.35,0,0,1-17.85-3,89,89,0,0,1-24.17-11A87.69,87.69,0,0,1,128.84,666a16.18,16.18,0,0,0-2.52-2.25,20.23,20.23,0,0,1-4.7-4.23c-4-4.88-8.5-9.42-11.69-14.95-3-5.25-6.13-10.49-7.27-16.56-.54-2.89-1.39-5.86-1.22-8.74.48-8.27,2.41-16.17,8-22.7a11.35,11.35,0,0,0,2.38-3.92,33.8,33.8,0,0,1,6.6-11.18,54.27,54.27,0,0,1,12.72-11,48.2,48.2,0,0,1,15.23-6.06,33.75,33.75,0,0,1,6.67-1,31.35,31.35,0,0,1,19.44,6c.8.57,1.55,1.21,2.36,1.78s1.48.34,1.66-.47c1.31-5.65,5.26-9.22,9.81-12.2a20.44,20.44,0,0,1,11.55-3.52c2,0,4,.07,5.93,0,3.65-.16,7,1.1,10.12,2.66a15.55,15.55,0,0,1,7.88,7.93A7.14,7.14,0,0,0,223.66,568.83Zm-57.77,45.8a2.57,2.57,0,0,1,2.59,1c1,1.38,1.47,3,2.27,4.5.21.39.67.68,1,.43a1.22,1.22,0,0,0,.32-1.09,16,16,0,0,0-3.17-5.89c-.74-.91-1.34-.95-2.57-.21a5,5,0,0,0-.87.9l-.2.65Zm-12.54,19.24v0c1.13,0,2.26,0,3.39,0a6.9,6.9,0,0,0,4.24-1.7c1.45-1.22,1.47-2.77,0-3.9a20.43,20.43,0,0,0-5.94-3.16,9.1,9.1,0,0,0-8.06,1.19,3.74,3.74,0,0,0,.57,6.94,11.54,11.54,0,0,0,2.86.65A26.37,26.37,0,0,0,153.35,633.87Zm92.4-9.33c2.51-.37,5.07-.47,7.13-2.2a4,4,0,0,0,1.56-4.1c-.33-1.59-1.58-2.25-2.94-2.72-3.08-1-11.55,1.13-13.87,3.51a2.11,2.11,0,0,0,.46,3.53C240.46,623.91,243.11,624.23,245.75,624.54Zm-18.14-14.77a8.19,8.19,0,0,1,2.62,3.91c.31.71.33,1.75,1.45,1.83.64,0,.73-1.19,0-2.55a43.15,43.15,0,0,0-2.6-4.33,1.56,1.56,0,0,0-2.53-.44,14.23,14.23,0,0,0-4.74,5.82,3.52,3.52,0,0,0-.1,1.22.46.46,0,0,0,.26.32.56.56,0,0,0,.4,0c.73-.26,1-1,1.32-1.55A10,10,0,0,1,227.61,609.77Zm-19.75,20.11c-.13-.18-.19-.32-.3-.39a.4.4,0,0,0-.35,0,22.72,22.72,0,0,0-1.87,1.65,12.85,12.85,0,0,1-4.54,3c-1.9.77-2.74.52-3.93-1.15a10.74,10.74,0,0,1-.6-1.11c-.27-.48-.57-1.07-1.19-.57-.21.16-.18.79-.06,1.15,1,3.19,2.95,4.25,6.08,3.18a12.67,12.67,0,0,0,6.37-4.6A4,4,0,0,0,207.86,629.88Zm-43.29-13c-.2-.27-.26-.45-.36-.46s-.58-.11-.74,0a4.94,4.94,0,0,0-1.92,3.52.56.56,0,0,0,.19.35.42.42,0,0,0,.32.11C163.5,619.65,163.82,618.11,164.57,616.93Z"/><path class="cls-7" d="M521.29,451.26c-4,0-6.89.3-9.67-.06-6.13-.79-12.29-1.32-18.35-2.6a192.69,192.69,0,0,1-22.43-6,133.43,133.43,0,0,1-22-9.71,64.17,64.17,0,0,1-17.27-14.1,20.65,20.65,0,0,1-5.12-17.28,16.55,16.55,0,0,1,6.93-10.75c4.18-3.11,8.74-5.07,14.13-4.65,2.39.18,4.8,0,7.2,0a5,5,0,0,0,3.55-1.05,12.13,12.13,0,0,1,8.89-3.25c1.59.06,1.91-.38,2.32-1.89A16.58,16.58,0,0,1,485,367.44c4.64-.17,7.27,2.46,9.63,5.77a11.7,11.7,0,0,1,.66,1.54.75.75,0,0,0,1.36,0,25.06,25.06,0,0,0,1.57-3c3.33-8.18,9.87-12.84,17.72-15.9a65.56,65.56,0,0,1,15.57-3.69,86.75,86.75,0,0,1,9.66-.79,37.71,37.71,0,0,1,7.93,1c2.82.55,4.74,2.34,6.54,4.37a5.82,5.82,0,0,1,1.11,3.13c.2,1.14.81,1.48,1.78,1.07a29.38,29.38,0,0,0,3.05-1.46c4.73-2.74,10-3.82,15.27-4.62a14.22,14.22,0,0,1,3.8-.05c9.78,1.18,18.52,4.66,25.56,11.81,3.25,3.32,6.58,6.51,9.15,10.48a41.88,41.88,0,0,1,6.13,14.76c2.19,11.3-.54,21.35-8.62,29.92-7.74,8.21-17.22,13.46-27.55,17.55a158.39,158.39,0,0,1-30.47,8.47c-5.25.94-10.54,1.7-15.82,2.5a24.27,24.27,0,0,1-3,.09,13.15,13.15,0,0,0-3,.1C528.81,451.68,524.43,451.16,521.29,451.26Z"/><path class="cls-6" d="M734.11,624.06a30.67,30.67,0,0,1,2.93-4,8.39,8.39,0,0,1,6.39-2.75c2.94.1,5.83-.16,8.68,1.23a20.39,20.39,0,0,1,9,8.63c.28.49.4,1.06.68,1.55a1.66,1.66,0,0,0,2.13.85c1.21-.38,2.42-.76,3.62-1.18,6.13-2.1,11.34-.36,15.94,3.83A20,20,0,0,1,790.11,648a17.21,17.21,0,0,1-3.89,10.94c-.87,1-.63,1.71.64,2.24,1.56.64,3.17,1.17,4.7,1.88,3.69,1.71,6.64,4.2,8.18,8.12a6.92,6.92,0,0,1,.21,5,24.91,24.91,0,0,1-5.27,9c-6.54,6.87-14.43,11.61-23.11,15.2A100.67,100.67,0,0,1,758,704.9c-2,.52-4.25.14-6.09,1.51a2.39,2.39,0,0,1-1.62.06,13.71,13.71,0,0,0-6.27.19,18.87,18.87,0,0,1-4.19.31c-5.64,0-11.28,0-16.92,0a50.53,50.53,0,0,1-8.4-.61c-3.16-.54-6.42-.54-9.63-1a134.46,134.46,0,0,1-15.69-3.15,127.08,127.08,0,0,1-16.41-5.53,97.33,97.33,0,0,1-22.45-12.53,51.57,51.57,0,0,1-10.75-10.63,47.06,47.06,0,0,1-7.6-16.38,51.41,51.41,0,0,1-.71-17.65c.68-6.32,2.69-12.38,7.63-17a12.38,12.38,0,0,1,17.16-.21c1.21,1.09,2.07,3.18,3.91,2.8,1.53-.32,1.58-2.51,2.52-3.7,4.17-5.33,9.35-8.92,16.34-9.22,3.1-.14,6.21-.24,9,1.68a19.13,19.13,0,0,1,3.37,3.17.76.76,0,0,0,1.35-.24,13.83,13.83,0,0,1,4.1-6.28,14.83,14.83,0,0,1,6.66-3.44c7.35-1.86,13.89.4,20.18,3.83,3.1,1.7,6,3.76,7.71,7a24.23,24.23,0,0,1,1.59,3.43C733,622.26,733.05,623.31,734.11,624.06Zm-59.46,23.63a8.82,8.82,0,0,0-.83-.89,1,1,0,0,0-1.45.08.56.56,0,0,0-.19.33c0,.86.77.52,1.18.72a5.46,5.46,0,0,0,.77.28c.67,1.19,1.32,2.4,2,3.59a7,7,0,0,0,1,1.3.76.76,0,0,0,.72.13.77.77,0,0,0,.26-.69C677.35,650.64,676.82,648.57,674.65,647.69Zm-18.1,11.87a11.91,11.91,0,0,0,6.1-1.13A1.91,1.91,0,0,0,663,655,7.47,7.47,0,0,0,661.2,654c-2.08-.81-4.2-1.51-6.28-2.33-1.55-.61-3-.22-4.49.21-2.54.73-3.21,3.25-1.23,5.2a6.73,6.73,0,0,0,2.41,1.63A11.58,11.58,0,0,0,656.55,659.56Zm82.79,13.71a33.66,33.66,0,0,0,4.16-.36,3.24,3.24,0,0,0,1.15-5.84,6.35,6.35,0,0,0-3-1.41,13.55,13.55,0,0,0-9.27,1.79c-1.91,1.13-1.8,3.14.09,4.33C734.6,673.12,736.94,673.27,739.34,673.27ZM722.87,661.1c1.13-1.65,1.94-2.94,2.85-4.16s1.84-1.15,2.73,0,1.66,2.6,2.48,3.9c.23.37.56.65,1,.28a.81.81,0,0,0,.07-.75c-1.17-2.53-2.18-5.2-5.26-6.1-2.24,1.24-3.22,3.38-4.05,5.63C722.6,660.05,722.68,660.21,722.87,661.1Zm-26,11.14a3.77,3.77,0,0,0,4-2.39c.18-.4.33-.83,0-1.15s-.72-.08-1.05.2c-2.34,2-3.55,2.1-5.87.5a17.64,17.64,0,0,1-1.9-1.66c-.52-.47-1-1-1.51-1.46a.72.72,0,0,0-.69-.06.8.8,0,0,0-.22.73C691.12,670.16,694,671.45,696.87,672.24Zm-25.71-23.17c-.1-.05-.19-.15-.3-.16a.56.56,0,0,0-.38.1,6,6,0,0,0-1.82,3.13.79.79,0,0,0,.23.69.73.73,0,0,0,.69-.14c.59-1.07,1.13-2.16,1.66-3.26C671.28,649.34,671.19,649.19,671.16,649.07Z"/><path class="cls-6" d="M605.09,492.06c1.13-1.28,1.95-2.06,2.59-3,4.22-6,10.3-8.89,17.22-10.5,6.13-1.44,12.34-.61,18.52-.87a22.79,22.79,0,0,1,6.63,1.1,7.64,7.64,0,0,1,2.63,1.31c2,1.47,3.54,3.19,3.35,6-.07.91.56,1.23,1.41,1a6.74,6.74,0,0,0,.79-.29c5.59-2.5,11.51-2.6,17.43-2.2a23.37,23.37,0,0,1,13.4,5.74c4.46,3.69,8.48,7.87,10.75,13.38,2.05,5,3.84,10,3.52,15.51a25.32,25.32,0,0,1-7,16.75c-1.94,2-4,3.94-6,5.87.06,1,.88,1.07,1.49,1.32a11.41,11.41,0,0,1,3.79,2.62c2.16,2.18,3.28,4.49,1.71,7.58-.76,1.51-.61,1.75.91,2.75a29.46,29.46,0,0,1,5.81,4.87,9.4,9.4,0,0,1,1.32,1.64,3.45,3.45,0,0,1-1.21,4.77,36.58,36.58,0,0,1-5.32,2.55,75.73,75.73,0,0,1-14.33,3.51,139.21,139.21,0,0,1-25.63,1.69c-6.2-.09-12.41,0-18.61,0-2.81,0-5.63.14-8.4-.65a12.44,12.44,0,0,0-2.94-.19,59.36,59.36,0,0,1-18.18-3.33,12.15,12.15,0,0,1-4.34-2.52c-3.5-3.27-4.09-6.84-1.73-11,2-3.5,2-3.52-1.9-4.48a136.67,136.67,0,0,1-20.91-6.66c-9.36-4-18.34-8.68-26.16-15.27a41.18,41.18,0,0,1-8.52-9.33,19.35,19.35,0,0,1-2.94-13.34c.63-4.34,3.38-7.4,7-9.56a20.83,20.83,0,0,1,17-2.52c.67.2,1.39.27,2,.5a3.42,3.42,0,0,0,3.17-.52c2.42-1.52,4.92-2.73,7.94-1.87.78.23,1.29-.37,1.54-1.1,1.38-4.1,4.57-6.26,8.39-7.67a14.75,14.75,0,0,1,3.69-.9c3.3-.31,6.13.67,8,3.56C603.82,489.31,604.29,490.48,605.09,492.06Z"/><path class="cls-7" d="M245,488.65a7.47,7.47,0,0,0-3.08-2.79A82.27,82.27,0,0,1,220.69,468a41.79,41.79,0,0,1-9.11-17.47c-2.67-11,3.84-22.29,13.63-24.83a20.11,20.11,0,0,1,9.6-.08,28.77,28.77,0,0,1,2.82.89,3.28,3.28,0,0,0,3.55-.63,8.64,8.64,0,0,1,6.94-2.44,2.35,2.35,0,0,0,2.8-1.91c1-4,4.06-6.3,7.23-8.45,2.63-1.79,5.63-1.75,8.57-1.29a6.3,6.3,0,0,1,4.93,4.18c.57,1.39.71,3,1.71,4.14,1.17-.18,1.31-1.14,1.68-1.84.86-1.62,1.9-3.11,2.88-4.65,3.14-4.92,7.84-7.65,13.06-9.54a45.14,45.14,0,0,1,19.52-2.54,35.69,35.69,0,0,1,7,1.45c4.55,1.36,7.65,4.07,7.93,9.2.08,1.38.7,1.76,1.95,1.37a27.6,27.6,0,0,0,3.55-1.35,20.9,20.9,0,0,1,8.57-2.06c4.76,0,9.54.84,13.66,3.63a42.26,42.26,0,0,1,16.17,21.07,68.48,68.48,0,0,1,2.76,9.29,55.19,55.19,0,0,1,.5,16.41,33,33,0,0,1-10,20.9,56.28,56.28,0,0,1-7.87,7,5.12,5.12,0,0,1-2.27,1c-.87-.8-.67-1.71-.41-2.72a16.91,16.91,0,0,0,.94-4.93c-.37-5.88-6-11.31-12-11.78-3.84-.3-7.64-.23-10.87,2.37a4.05,4.05,0,0,1-.71.45,1.44,1.44,0,0,1-2.26-1c-.08-.41-.08-.84-.14-1.25-1.2-8-6.12-11.44-12.51-12.29-5.84-.77-11.83-.68-17.38,2.07-.75.37-1.55.66-2.32,1-5.54,2.5-10.24,5.89-12.5,11.85a5.89,5.89,0,0,1-.35.77,1.46,1.46,0,0,1-1.79.72,11.29,11.29,0,0,1-1.18-.44,14.21,14.21,0,0,0-16.9,5.86,10.89,10.89,0,0,0-1.23,4.4,1.13,1.13,0,0,1-1.54,1,13.86,13.86,0,0,1-2-.57c-2.23-.88-4.37-.53-6.61.12S246.84,487.37,245,488.65Z"/><path class="cls-6" d="M245,488.65c1.83-1.28,3.43-2.85,5.7-3.51s4.38-1,6.61-.12a13.86,13.86,0,0,0,2,.57,1.13,1.13,0,0,0,1.54-1,10.89,10.89,0,0,1,1.23-4.4,14.21,14.21,0,0,1,16.9-5.86,11.29,11.29,0,0,0,1.18.44,1.46,1.46,0,0,0,1.79-.72,5.89,5.89,0,0,0,.35-.77c2.26-6,7-9.35,12.5-11.85.77-.35,1.57-.64,2.32-1,5.55-2.75,11.54-2.84,17.38-2.07,6.39.85,11.31,4.26,12.51,12.29.06.41.06.84.14,1.25a1.44,1.44,0,0,0,2.26,1,4.05,4.05,0,0,0,.71-.45c3.23-2.6,7-2.67,10.87-2.37,6,.47,11.6,5.9,12,11.78a16.91,16.91,0,0,1-.94,4.93c-.26,1-.46,1.92.41,2.72,1.65,2.5,4,4.34,6.08,6.44a15.31,15.31,0,0,1,3.51,5.22c1.43,3.62.49,6.17-3.16,7.42-4.12,1.4-8.34,2.56-12.58,3.57-4.92,1.18-9.89,2.15-14.87,3.07S321.22,517,316,517.48c-3.63.33-7.23.95-10.85,1.39a37.08,37.08,0,0,1-3.79.24c-3.23.07-6.48-.18-9.66.71a11.56,11.56,0,0,1-2.95.13H277a21.8,21.8,0,0,1-5.45-.51,12.88,12.88,0,0,0-3.77-.29c-3.28.14-6.41-.82-9.61-1.19a9.23,9.23,0,0,1-2-.62c-2.44-.88-2.56-1.29-1-3.4.92-1.24.87-2.29-.47-3.22a60.5,60.5,0,0,0-6.11-3.74,18.67,18.67,0,0,1-4.87-4c-2.39-2.55-2.65-5.55-1.45-8.65C243,492.37,244.06,490.54,245,488.65Z"/><path class="cls-6" d="M797.13,516.38a28.8,28.8,0,0,1,5.7-.6,11.14,11.14,0,0,1,6.95,2.69A5.81,5.81,0,0,1,812,522.4c.25,1.66.65,1.91,2.32,1.45a9.06,9.06,0,0,1,7.29,1.06,7.52,7.52,0,0,1,3.2,3.26c3.05,6.41,2.21,13.19-5.54,16.36a30.45,30.45,0,0,1-4.81,1.59A63.11,63.11,0,0,1,800.7,548a9.18,9.18,0,0,0-2.1.07c-5,1.22-10.09.62-15.14.76-1.55,0-3.1,0-4.65,0-6.07.16-12-.84-18-1.46a67.93,67.93,0,0,1-14.68-3.69,14.3,14.3,0,0,1-5.18-2.78c-2.54-2.3-3.48-4.42-.64-8.07a26.59,26.59,0,0,1,4.18-4.17c1.33-1.07,2.08-2,1.53-3.9a15.35,15.35,0,0,1-.16-4.19,6.3,6.3,0,0,1,1.43-3.9c2.22-2.92,8-4.69,11.43-3.49a36.71,36.71,0,0,1,3.44,1.57c1,.46,1.55.25,1.9-.82.22-.66.33-1.36.5-2a9.59,9.59,0,0,1,5.26-6.29,13.68,13.68,0,0,1,7.76-1.58,34.12,34.12,0,0,1,10.17,2.62C792,508.67,795.34,511.43,797.13,516.38Z"/><path class="cls-6" d="M390.15,692.54c.35-1.8.68-3.58,1.05-5.35a.82.82,0,0,1,1.32-.38,13.29,13.29,0,0,1,3.22,6.26,3,3,0,0,1-2,3.61c-1.16.36-2.73-.63-3.2-2.09A14.16,14.16,0,0,1,390.15,692.54Z"/><path class="cls-6" d="M486.74,719c.29-1.36.66-3.13,1.06-4.9a.91.91,0,0,1,1.4-.27,14.9,14.9,0,0,1,3.16,7.21c.19,1.07-1,2.4-2.22,2.76-1,.29-2-.31-2.66-1.56A6,6,0,0,1,486.74,719Z"/><path class="cls-6" d="M397.75,717.93c.25.08.57.09.73.25a13.19,13.19,0,0,1,3.27,6.63,3,3,0,0,1-2.13,3.17,2,2,0,0,1-2.21-.78,5.49,5.49,0,0,1-1.2-4.3c.25-1.5.61-3,1-4.46C397.22,718.24,397.55,718.1,397.75,717.93Z"/><path class="cls-6" d="M521.36,674.52a5.56,5.56,0,0,1,.33-1.65c.74-1.28-.16-3.15,1.49-4.07,1.47.78,1.77,2.44,2.64,3.65a8.25,8.25,0,0,1,1.06,2.71,3,3,0,0,1-2.25,3.79,3.08,3.08,0,0,1-3-2.37A14.27,14.27,0,0,1,521.36,674.52Z"/><path class="cls-6" d="M529.8,653.16a10.68,10.68,0,0,1,.79-4.5c.32-.8,1.08-1.07,1.54-.48,1.67,2.12,3,4.39,2.71,7.24a2.4,2.4,0,0,1-2.34,2.46,2.37,2.37,0,0,1-2.56-2.21C529.82,654.84,529.84,654,529.8,653.16Z"/><path class="cls-6" d="M507,666.1c-.17-1.76.6-3.46,1-5.22a.81.81,0,0,1,1.34-.3c1.73,1.95,3,4.09,2.69,6.83a7.4,7.4,0,0,1-.17,1.24,2.37,2.37,0,0,1-1.79,1.6,2.06,2.06,0,0,1-2.19-.88A4.47,4.47,0,0,1,507,666.1Z"/><path class="cls-6" d="M494,671c2.44,2.66,3.89,5.07,3.6,8.22a2.46,2.46,0,0,1-4.91.1A16.78,16.78,0,0,1,494,671Z"/><path class="cls-6" d="M531.52,691.57c0-1.69,0-3.1.74-4.37a.93.93,0,0,1,1.43-.2c1.84,2.21,3.23,4.61,2.81,7.65a2.29,2.29,0,0,1-1.41,2,2.51,2.51,0,0,1-2.62-.91C531.29,694.4,531.6,692.81,531.52,691.57Z"/><path class="cls-6" d="M358.91,665.79a18.4,18.4,0,0,1,1.12-4.3.92.92,0,0,1,1.42-.16,17.74,17.74,0,0,1,3.05,5.9c.36,1.11-.46,2.4-1.71,3a2.4,2.4,0,0,1-3-.82C359.08,668.53,358.87,667.82,358.91,665.79Z"/><path class="cls-6" d="M385.94,662a9.58,9.58,0,0,1,.88-4.31.84.84,0,0,1,1.38-.2c1.69,2.11,3,4.36,2.77,7.22a2.45,2.45,0,0,1-1.48,2.33,2.61,2.61,0,0,1-2.85-1.25C386,664.83,385.93,664.24,385.94,662Z"/><path class="cls-6" d="M457,655.69a6.08,6.08,0,0,1,.15-1.54c.57-1.67.57-3.62,2.19-4.82,2.3.69,1.66,2.92,2.3,4.47a4.43,4.43,0,0,1-.08,4,2.44,2.44,0,0,1-2.34,1.47,2.51,2.51,0,0,1-2.14-2.24C457,656.65,457.05,656.23,457,655.69Z"/><path class="cls-6" d="M381.28,701.67c.28.22.72.41.9.74.86,1.59,1.69,3.2,2.46,4.83a2.51,2.51,0,0,1-.69,3,2.32,2.32,0,0,1-3.64,0,3.82,3.82,0,0,1-.87-1.4c-.66-2.42.17-4.66,1-6.86C380.54,701.81,381,701.79,381.28,701.67Z"/><path class="cls-6" d="M405.41,672.61a11.37,11.37,0,0,1-.24,1.47,2.27,2.27,0,0,1-2.21,1.58,2.17,2.17,0,0,1-2.29-1.44,10.59,10.59,0,0,1,.79-7.67,1,1,0,0,1,1.44-.15A10,10,0,0,1,405.41,672.61Z"/><path class="cls-6" d="M432.55,717.4a4.7,4.7,0,0,1,0-.84c.34-1.6.41-3.29,1.53-4.63,2.33.3,2.24,2.53,3.13,4a7.26,7.26,0,0,1,.65,2,2.62,2.62,0,0,1-1.75,3.31,2.28,2.28,0,0,1-2.89-1A5,5,0,0,1,432.55,717.4Z"/><path class="cls-6" d="M361.56,693.23c.24-1.2.42-2.15.63-3.1s-.38-2.61,1.14-2.74c1.25-.11,1.58,1.4,2.07,2.37a22.63,22.63,0,0,1,1.68,3.81c.6,2-.85,3.52-3,3.29a1.8,1.8,0,0,1-1.64-1.08C362.05,694.88,361.79,693.94,361.56,693.23Z"/><path class="cls-6" d="M429.93,702.09c0,.13,0,.55-.07,1a2.36,2.36,0,0,1-1.35,2,2.46,2.46,0,0,1-2.63-.83,3.79,3.79,0,0,1-.93-3.13c.27-2.91,2.26-6.57,3-5.89,1.68,1.47,1.56,3.74,1.93,5.76A7.78,7.78,0,0,1,429.93,702.09Z"/><path class="cls-6" d="M415.47,689.79c.1,2.55-1,3.76-2.67,3.63a2,2,0,0,1-1.94-1.34,14.14,14.14,0,0,1,.06-7.39c.2-.71,1.3-1.05,1.69-.57A15,15,0,0,1,415.47,689.79Z"/><path class="cls-6" d="M426.55,662.56c0,.44,0,1,0,1.56-.13,1.66-.85,2.35-2.34,2.28-1.65-.08-2.82-1.14-2.54-2.64.4-2.17.57-4.46,2-6.32a1.44,1.44,0,0,1,1-.55,1.29,1.29,0,0,1,.92.68A9.4,9.4,0,0,1,426.55,662.56Z"/><path class="cls-6" d="M483.2,695c.39-1.46-.69-3.84,1.54-4.19,1.74-.27,1.85,2.11,2.61,3.33a5.61,5.61,0,0,1,.88,4,2.38,2.38,0,0,1-2.3,2,2.27,2.27,0,0,1-2.46-1.8C483.29,697.31,483.29,696.19,483.2,695Z"/><path class="cls-6" d="M437.52,683.87c0-.34,0,.08,0,.49a2.22,2.22,0,0,1-1.67,2.14,2.35,2.35,0,0,1-2.49-1.13,4.35,4.35,0,0,1-.74-1.9,4,4,0,0,1,.19-2c.73-1.69.51-3.94,2.66-4.85,1.53,1.43,1.65,3.43,2.07,5.29A13,13,0,0,1,437.52,683.87Z"/><path class="cls-6" d="M446.06,671.58a12.77,12.77,0,0,1,1.6-4.72,1,1,0,0,1,1.68-.22,11.65,11.65,0,0,1,1.71,6.37c-.12,1.74-1.06,2.71-2.57,2.66s-2.33-1-2.42-2.82C446.05,672.71,446.06,672.57,446.06,671.58Z"/><path class="cls-6" d="M466.41,681.65a22.65,22.65,0,0,1-.27,2.48,1.76,1.76,0,0,1-2.6,1.2c-1.41-.56-2.47-1.64-1.87-3.61s.87-4.09,2.21-5.8a.86.86,0,0,1,1.39.06A11.1,11.1,0,0,1,466.41,681.65Z"/><path class="cls-6" d="M447.69,734.08a12.16,12.16,0,0,1,0,1.25c-.13,1.47-.77,2.14-2,2.18-1.52,0-2.64-.68-2.8-2a6.06,6.06,0,0,1,.12-2.48,35.22,35.22,0,0,1,1.72-4.29,1.32,1.32,0,0,1,1-.66,1.56,1.56,0,0,1,1,.68A8.1,8.1,0,0,1,447.69,734.08Z"/><path class="cls-6" d="M373.17,646.47c.09-1.12.12-2.23.31-3.32a1.3,1.3,0,0,1,.83-.83,1.28,1.28,0,0,1,1.12.31,14.51,14.51,0,0,1,2.73,5.57,3,3,0,0,1-1.47,3.22,2,2,0,0,1-3.25-1.22A33.07,33.07,0,0,1,373.17,646.47Z"/><path class="cls-6" d="M365.64,715.8a8.77,8.77,0,0,1,1.11-4.39,1,1,0,0,1,1.43-.17c1.69,2.13,2.87,4.43,2.4,7.27a2.12,2.12,0,0,1-1.48,1.83,2.2,2.2,0,0,1-2.27-.7C365.85,718.68,365.61,717.84,365.64,715.8Z"/><path class="cls-6" d="M512.11,694a6.33,6.33,0,0,1,.26-2.8,1.14,1.14,0,0,1,1.74-.39,13.62,13.62,0,0,1,2.89,5.92,2.6,2.6,0,0,1-.5,2,2.65,2.65,0,0,1-2.81,1.35,2.24,2.24,0,0,1-1.57-2.22C512.05,696.82,512.11,695.84,512.11,694Z"/><path class="cls-6" d="M473.06,739.26c-.07,2.13-.9,3.13-2.2,3.27a2.46,2.46,0,0,1-2.77-2.46,8.89,8.89,0,0,1,1.81-6.69,1,1,0,0,1,1.45.11C472.59,735.45,472.46,737.77,473.06,739.26Z"/><path class="cls-6" d="M482,664.29c.24.07.59.06.74.24a13.32,13.32,0,0,1,2.93,5.89,2.65,2.65,0,0,1-.73,2.32,2.45,2.45,0,0,1-2.54,1,2.13,2.13,0,0,1-1.59-2.19c0-2.08,0-4.17.09-6.25A1.12,1.12,0,0,1,482,664.29Z"/><path class="cls-6" d="M371.55,674.06c0-2-.06-3.4.74-4.67a.94.94,0,0,1,1.45-.17,9.94,9.94,0,0,1,2.81,6.43,2.45,2.45,0,0,1-4.89.37A15.71,15.71,0,0,1,371.55,674.06Z"/><path class="cls-6" d="M445.18,702.47A8.54,8.54,0,0,1,447,697a1,1,0,0,1,1.45,0,12,12,0,0,1,1.73,5.54,3.13,3.13,0,0,1-.8,2.33,2.41,2.41,0,0,1-2.55,1.05,2.28,2.28,0,0,1-1.6-2.22C445.19,703.31,445.2,702.89,445.18,702.47Z"/><path class="cls-6" d="M499.31,651.41c-.05,2-.87,3-2.16,3.1a2.39,2.39,0,0,1-2.79-2.38,13.84,13.84,0,0,1,.34-5.76c.19-.5.4-1.12,1.07-1.07a1.58,1.58,0,0,1,1,.56C498.1,647.67,499.24,649.56,499.31,651.41Z"/><path class="cls-6" d="M408.73,649.73c.3-1.58-.48-4,1.58-4.31,1.63-.27,2,2.08,2.71,3.36a5.4,5.4,0,0,1,.73,3.67,2.35,2.35,0,0,1-2.31,2,2.28,2.28,0,0,1-2.47-1.84C408.81,651.7,408.8,650.7,408.73,649.73Z"/><path class="cls-6" d="M513.69,718.1c.09-.85.12-1.7.26-2.53s.36-1.48,1.06-1.71,1.31.44,1.66,1c1,1.7,2.12,3.36,2.1,5.45a2.52,2.52,0,0,1-1.33,2.46,2.42,2.42,0,0,1-3.55-1.76A28.84,28.84,0,0,1,513.69,718.1Z"/><path class="cls-6" d="M440.07,649.67c0,1.81-.15,2.74-.79,3.58a2,2,0,0,1-3.52-.11,3.44,3.44,0,0,1-.68-2.39,13.74,13.74,0,0,1,2-5.94.81.81,0,0,1,1.38,0A12.93,12.93,0,0,1,440.07,649.67Z"/><path class="cls-6" d="M501,704.71c0-2.11-.06-3.53.73-4.8a1,1,0,0,1,1.43-.24,10.81,10.81,0,0,1,2.78,6.88,2.2,2.2,0,0,1-2.19,2.14,2.31,2.31,0,0,1-2.54-1.75A16.58,16.58,0,0,1,501,704.71Z"/><path class="cls-6" d="M470.47,710.38c0,.49,0,.77-.06,1a2.4,2.4,0,0,1-2.5,2.29,2.31,2.31,0,0,1-2.41-2.35,11.55,11.55,0,0,1,2.12-6.64c.3-.45,1.07-.29,1.34.28A13.08,13.08,0,0,1,470.47,710.38Z"/><path class="cls-6" d="M543.44,716.18c.22-.84.6-2.34,1-3.82a.61.61,0,0,1,1-.31,8.6,8.6,0,0,1,2.75,5.55,2.78,2.78,0,0,1-1.87,2.57,1.62,1.62,0,0,1-1.56-.35C543.85,719.07,543.42,718.07,543.44,716.18Z"/><path class="cls-6" d="M529.77,733.69c.08-1.13.08-1.84.19-2.53a1.47,1.47,0,0,1,.92-1.31,1.39,1.39,0,0,1,1.45.61,6.69,6.69,0,0,1,1.68,5.06c-.09.9-.39,1.66-1.37,1.88a2.14,2.14,0,0,1-2.43-1.24A22.77,22.77,0,0,1,529.77,733.69Z"/><path class="cls-6" d="M413.82,711.37a3.6,3.6,0,0,1-.64,2.42,2.16,2.16,0,0,1-2.24.71,1.64,1.64,0,0,1-1.22-1.5,9.51,9.51,0,0,1,.92-5.65,1,1,0,0,1,1.71-.18A10.82,10.82,0,0,1,413.82,711.37Z"/><path class="cls-6" d="M418.07,740.87c-.06-2.81,1.54-6,2.45-5.3,1.67,1.32,1.77,3.32,1.65,5.29a3.44,3.44,0,0,1-.31,1.2,1.8,1.8,0,0,1-1.61,1.14,1.88,1.88,0,0,1-1.94-1.28A5.77,5.77,0,0,1,418.07,740.87Z"/><path class="cls-8" d="M474.12,574.3a14.87,14.87,0,0,1,8.53,1.81c1.4.77,1.46,2.3.05,2.95-5.25,2.43-10.56,2.84-15.82,0-1.35-.72-1.35-2.18-.06-3.07,1.68-1.16,3.68-1.32,5.6-1.67A5.8,5.8,0,0,1,474.12,574.3Z"/><path class="cls-8" d="M390.31,577.62c3.46-.13,6-.08,8.33,1a1.76,1.76,0,0,1,1.25,1.52,2,2,0,0,1-1,1.71,6,6,0,0,1-1.88.89,21.33,21.33,0,0,1-13.17-.39,5.22,5.22,0,0,1-.75-.37c-1.48-.81-1.47-2.37,0-3.31a6.75,6.75,0,0,1,3.57-1.09C388.16,577.6,389.7,577.62,390.31,577.62Z"/><path class="cls-9" d="M403.17,563.42a11.21,11.21,0,0,1-1.66,6.2,4.62,4.62,0,0,1-6.24,1.72,8.39,8.39,0,0,1-4.36-8,.79.79,0,0,1,.58-.47.77.77,0,0,1,.66.33c.29.78.5,1.59.74,2.39a7,7,0,0,0,2.23,3.48c1.92,1.58,4,1.11,5.24-1.08a12.86,12.86,0,0,0,1.05-4.47,4.31,4.31,0,0,1,.35-1.19.8.8,0,0,1,.62-.42.84.84,0,0,1,.58.48A4.84,4.84,0,0,1,403.17,563.42Z"/><path class="cls-9" d="M461.94,561.47c0-.51,0-.79,0-1.07,0-.59.2-1.21.88-1.15s.82.67.86,1.27c.06.83.07,1.68.19,2.51a21.31,21.31,0,0,0,.58,2.86c.24.81.61,1.66,1.56,1.79,1.14.16,1.78-.65,2.3-1.52a14.19,14.19,0,0,0,1.47-3.91,29.5,29.5,0,0,1,1-3.2c.05-.15.48-.28.71-.24s.6.31.59.45c-.33,3.38-.95,6.69-3.31,9.3-1.8,2-4.27,1.59-5.51-.79A14.18,14.18,0,0,1,461.94,561.47Z"/><path class="cls-9" d="M443.29,584.7a5.9,5.9,0,0,1-4.68,3.78c-2.81.54-5.54.35-7.7-2.07.71-.85,1.5-.14,2.21-.11s1.65.28,2.48.28a12.94,12.94,0,0,0,2.47-.31c.82-.16,1.63-.4,2.43-.64S442,585.13,443.29,584.7Z"/><path class="cls-8" d="M153.35,633.87a26.37,26.37,0,0,1-2.95,0,11.54,11.54,0,0,1-2.86-.65,3.74,3.74,0,0,1-.57-6.94,9.1,9.1,0,0,1,8.06-1.19,20.43,20.43,0,0,1,5.94,3.16c1.48,1.13,1.46,2.68,0,3.9a6.9,6.9,0,0,1-4.24,1.7c-1.13,0-2.26,0-3.39,0Z"/><path class="cls-8" d="M245.75,624.54c-2.64-.31-5.29-.63-7.66-2a2.11,2.11,0,0,1-.46-3.53c2.32-2.38,10.79-4.55,13.87-3.51,1.36.47,2.61,1.13,2.94,2.72a4,4,0,0,1-1.56,4.1C250.82,624.07,248.26,624.17,245.75,624.54Z"/><path class="cls-10" d="M227.61,609.77a10,10,0,0,0-3.9,4.21c-.35.59-.59,1.29-1.32,1.55a.56.56,0,0,1-.4,0,.46.46,0,0,1-.26-.32,3.52,3.52,0,0,1,.1-1.22,14.23,14.23,0,0,1,4.74-5.82,1.56,1.56,0,0,1,2.53.44,43.15,43.15,0,0,1,2.6,4.33c.71,1.36.62,2.6,0,2.55-1.12-.08-1.14-1.12-1.45-1.83A8.19,8.19,0,0,0,227.61,609.77Z"/><path class="cls-10" d="M207.86,629.88a4,4,0,0,1-.39,1.11,12.67,12.67,0,0,1-6.37,4.6c-3.13,1.07-5.08,0-6.08-3.18-.12-.36-.15-1,.06-1.15.62-.5.92.09,1.19.57a10.74,10.74,0,0,0,.6,1.11c1.19,1.67,2,1.92,3.93,1.15a12.85,12.85,0,0,0,4.54-3,22.72,22.72,0,0,1,1.87-1.65.4.4,0,0,1,.35,0C207.67,629.56,207.73,629.7,207.86,629.88Z"/><path class="cls-10" d="M165.47,614.22a5,5,0,0,1,.87-.9c1.23-.74,1.83-.7,2.57.21a16,16,0,0,1,3.17,5.89,1.22,1.22,0,0,1-.32,1.09c-.34.25-.8,0-1-.43-.8-1.47-1.24-3.12-2.27-4.5a2.57,2.57,0,0,0-2.59-1A5.44,5.44,0,0,0,165.47,614.22Z"/><path class="cls-10" d="M164.57,616.93c-.75,1.18-1.07,2.72-2.51,3.54a.42.42,0,0,1-.32-.11.56.56,0,0,1-.19-.35,4.94,4.94,0,0,1,1.92-3.52c.16-.13.5-.06.74,0S164.37,616.66,164.57,616.93Z"/><path class="cls-10" d="M165.89,614.63l-.62.24c.07-.22.14-.43.2-.65A5.44,5.44,0,0,1,165.89,614.63Z"/><path class="cls-8" d="M656.55,659.56a11.58,11.58,0,0,1-4.94-.88,6.73,6.73,0,0,1-2.41-1.63c-2-1.95-1.31-4.47,1.23-5.2,1.52-.43,2.94-.82,4.49-.21,2.08.82,4.2,1.52,6.28,2.33A7.47,7.47,0,0,1,663,655a1.91,1.91,0,0,1-.36,3.4A11.91,11.91,0,0,1,656.55,659.56Z"/><path class="cls-8" d="M739.34,673.27c-2.4,0-4.74-.15-6.87-1.49-1.89-1.19-2-3.2-.09-4.33a13.55,13.55,0,0,1,9.27-1.79,6.35,6.35,0,0,1,3,1.41,3.24,3.24,0,0,1-1.15,5.84A33.66,33.66,0,0,1,739.34,673.27Z"/><path class="cls-11" d="M722.87,661.1c-.19-.89-.27-1.05-.23-1.15.83-2.25,1.81-4.39,4.05-5.63,3.08.9,4.09,3.57,5.26,6.1a.81.81,0,0,1-.07.75c-.39.37-.72.09-1-.28-.82-1.3-1.56-2.67-2.48-3.9s-1.87-1.19-2.73,0S724,659.45,722.87,661.1Z"/><path class="cls-10" d="M696.87,672.24c-2.86-.79-5.75-2.08-7.28-5.29a.8.8,0,0,1,.22-.73.72.72,0,0,1,.69.06c.53.45,1,1,1.51,1.46a17.64,17.64,0,0,0,1.9,1.66c2.32,1.6,3.53,1.48,5.87-.5.33-.28.68-.56,1.05-.2s.18.75,0,1.15A3.77,3.77,0,0,1,696.87,672.24Z"/><path class="cls-10" d="M674.65,647.69c2.17.88,2.7,2.95,3.45,4.85a.77.77,0,0,1-.26.69.76.76,0,0,1-.72-.13,7,7,0,0,1-1-1.3c-.68-1.19-1.33-2.4-2-3.59A1.3,1.3,0,0,1,674.65,647.69Z"/><path class="cls-11" d="M671.16,649.07c0,.12.12.27.08.36-.53,1.1-1.07,2.19-1.66,3.26a.73.73,0,0,1-.69.14.79.79,0,0,1-.23-.69,6,6,0,0,1,1.82-3.13.56.56,0,0,1,.38-.1C671,648.92,671.06,649,671.16,649.07Z"/><path class="cls-11" d="M674.13,648.21a5.46,5.46,0,0,1-.77-.28c-.41-.2-1.18.14-1.18-.72a.56.56,0,0,1,.19-.33,1,1,0,0,1,1.45-.08,8.82,8.82,0,0,1,.83.89A1.3,1.3,0,0,0,674.13,648.21Z"/></g></svg>