<svg width="98" height="116" viewBox="0 0 98 116" fill="none" xmlns="http://www.w3.org/2000/svg">
<path d="M3.97998 91.4951L2.03956 37.7264C1.78648 31.4662 2.74947 25.2163 4.87525 19.3227C7.87298 11.156 13.6618 2.20328 24.7372 2.00073C24.7372 2.00073 39.8312 1.56323 45.3972 22.0572C46.544 26.3281 47.0746 30.741 46.9731 35.1621L45.8388 90.9968C45.7659 95.3796 44.3988 99.6431 41.9093 103.251C39.1061 107.278 34.5284 111.705 27.4311 113.31C25.5809 113.719 23.6614 113.698 21.8205 113.249L21.541 113.18C16.6564 111.962 12.301 109.187 9.13279 105.275C5.96462 101.363 4.15592 96.5261 3.97998 91.4951V91.4951Z" fill="#DA3934" stroke="white" stroke-width="3" stroke-miterlimit="10"/>
<path d="M11.0004 92.674C11.0004 92.674 9.38 77.9567 14.8934 73.0996C14.8934 73.0996 21.857 86.1478 34.966 73.0996C34.966 73.0996 46.0292 102.101 25.6123 105.58C25.6123 105.58 13.7308 106.16 11.0004 92.674Z" fill="#221F20"/>
<path d="M17.6929 70.1673V35.4828C17.7185 33.6695 18.4629 31.9406 19.7626 30.6758C21.0622 29.4111 22.8108 28.7141 24.6241 28.7379V28.7379" stroke="white" stroke-width="3" stroke-miterlimit="10" stroke-linecap="round"/>
<path d="M17.6926 70.167C15.7317 72.0787 14.1917 74.3788 13.1711 76.9201C12.1506 79.4614 11.672 82.1878 11.766 84.9247V91.7101C11.7495 95.12 12.9915 98.4161 15.2541 100.967C17.5167 103.518 20.6409 105.145 24.0283 105.536L24.5023 105.585" stroke="white" stroke-width="3" stroke-miterlimit="10" stroke-linecap="round"/>
<path d="M31.5791 69.8996V35.4663C31.5664 34.5671 31.3762 33.6792 31.0194 32.8538C30.6626 32.0283 30.1462 31.2815 29.4998 30.6562C28.8535 30.031 28.09 29.5396 27.2531 29.2103C26.4163 28.8811 25.5227 28.7204 24.6235 28.7376" stroke="white" stroke-width="3" stroke-miterlimit="10" stroke-linecap="round"/>
<path d="M31.5791 70.167C33.536 72.0805 35.0718 74.3815 36.0882 76.9228C37.1045 79.464 37.5791 82.1895 37.4814 84.9247V91.7101C37.497 95.1198 36.2547 98.4154 33.9923 100.966C31.7298 103.517 28.6062 105.144 25.2191 105.536L24.7451 105.585" stroke="white" stroke-width="3" stroke-miterlimit="10" stroke-linecap="round"/>
<path d="M13.8721 40.0068H35.1235" stroke="white" stroke-width="3" stroke-miterlimit="10" stroke-linecap="round"/>
<path d="M13.8721 51.9531H35.1235" stroke="white" stroke-width="3" stroke-miterlimit="10" stroke-linecap="round"/>
<path d="M13.8721 62.8096H35.1235" stroke="white" stroke-width="3" stroke-miterlimit="10" stroke-linecap="round"/>
<path d="M14.5933 74.5938C14.5933 74.5938 22.0187 84.5268 34.5038 74.5938" stroke="white" stroke-width="3" stroke-miterlimit="10" stroke-linecap="round"/>
<path d="M10.1494 30.082C10.1494 30.082 17.0077 31.2973 17.6923 35.644" stroke="white" stroke-width="3" stroke-miterlimit="10" stroke-linecap="round"/>
<path d="M39.0982 30.082C39.0982 30.082 32.2399 31.2771 31.5796 35.644" stroke="white" stroke-width="3" stroke-miterlimit="10" stroke-linecap="round"/>
<path d="M52.9724 91.4951L51.0239 37.7264C50.7727 31.4663 51.7357 25.2168 53.8596 19.3227C56.8654 11.156 62.6543 2.20328 73.7296 2.00073C73.7296 2.00073 88.8236 1.56323 94.3897 22.0572C95.5446 26.3269 96.0834 30.7398 95.9898 35.1621L94.8515 90.9968C94.7786 95.3796 93.4115 99.6431 90.922 103.251C88.1187 107.278 83.5371 111.705 76.4438 113.31C74.5922 113.719 72.6714 113.698 70.8291 113.249L70.5537 113.18C65.6647 111.967 61.304 109.194 58.1317 105.282C54.9594 101.369 53.1482 96.5292 52.9724 91.4951V91.4951Z" fill="#DA3934" stroke="white" stroke-width="3" stroke-miterlimit="10"/>
<path d="M59.9931 92.674C59.9931 92.674 58.3727 77.9567 63.8861 73.0996C63.8861 73.0996 70.8497 86.1478 83.9587 73.0996C83.9587 73.0996 95.0179 102.101 74.605 105.58C74.605 105.58 62.7234 106.16 59.9931 92.674Z" fill="#221F20"/>
<path d="M66.6812 70.1673V35.4828C66.7078 33.6691 67.4531 31.9402 68.7534 30.6756C70.0538 29.411 71.8028 28.7141 73.6164 28.7379V28.7379" stroke="white" stroke-width="3" stroke-miterlimit="10" stroke-linecap="round"/>
<path d="M66.6808 70.167C64.7188 72.0783 63.1776 74.3782 62.1556 76.9194C61.1337 79.4606 60.6536 82.1873 60.7461 84.9247V91.7101C60.7286 95.1196 61.9697 98.4157 64.2316 100.967C66.4936 103.518 69.6173 105.145 73.0044 105.536L73.4824 105.585" stroke="white" stroke-width="3" stroke-miterlimit="10" stroke-linecap="round"/>
<path d="M80.5515 69.9002V35.4668C80.5383 34.5695 80.3484 33.6836 79.9927 32.8597C79.6369 32.0359 79.1223 31.2902 78.4782 30.6653C77.8341 30.0404 77.0732 29.5486 76.239 29.2179C75.4047 28.8872 74.5135 28.7242 73.6162 28.7381V28.7381" stroke="white" stroke-width="3" stroke-miterlimit="10" stroke-linecap="round"/>
<path d="M80.552 70.167C82.5118 72.0793 84.0508 74.3797 85.0706 76.9209C86.0904 79.4621 86.5686 82.1881 86.4746 84.9247V91.7101C86.4921 95.1196 85.251 98.4157 82.989 100.967C80.7271 103.518 77.6034 105.145 74.2163 105.536L73.7383 105.585" stroke="white" stroke-width="3" stroke-miterlimit="10" stroke-linecap="round"/>
<path d="M62.8652 40.0068H84.1167" stroke="white" stroke-width="3" stroke-miterlimit="10" stroke-linecap="round"/>
<path d="M62.8652 51.9531H84.1167" stroke="white" stroke-width="3" stroke-miterlimit="10" stroke-linecap="round"/>
<path d="M62.8652 62.8096H84.1167" stroke="white" stroke-width="3" stroke-miterlimit="10" stroke-linecap="round"/>
<path d="M63.582 74.5938C63.582 74.5938 71.0115 84.5268 83.4967 74.5938" stroke="white" stroke-width="3" stroke-miterlimit="10" stroke-linecap="round"/>
<path d="M59.1265 30.082C59.1265 30.082 65.9848 31.2973 66.6653 35.644" stroke="white" stroke-width="3" stroke-miterlimit="10" stroke-linecap="round"/>
<path d="M88.0902 30.082C88.0902 30.082 81.2318 31.2973 80.5513 35.644" stroke="white" stroke-width="3" stroke-miterlimit="10" stroke-linecap="round"/>
</svg>
