<svg width="390" height="402" viewBox="0 0 390 402" fill="none" xmlns="http://www.w3.org/2000/svg">
<rect x="-62" y="-86" width="702" height="468.297" fill="#67B3E5"/>
<g filter="url(#filter0_d_557_14)">
<path d="M-27.4077 44.7756C-38.4772 33.9036 -55.0815 38.3891 -62 41.9908V381.183H640V32.0768C619.2 37.4237 614.595 51.8305 614.893 58.3656C589.004 48.4739 568.472 64.2694 561.442 73.4037C508.773 32.5892 475.371 69.542 465.253 93.1203C413.923 83.585 400.197 126.278 399.751 148.817C396.002 144.628 383.534 148.854 377.768 151.49C371.43 137.143 354.372 137.937 346.635 140.128C331.102 146.901 328.409 158.694 329.004 163.744C315.971 159.199 309.514 165.637 307.914 169.425C302.022 164.345 292.143 165.377 287.94 166.528C284.191 130.081 254.687 128.098 240.403 131.662C245.581 107.958 229.617 93.8629 220.987 89.7785C188.671 72.7576 168.02 95.3853 161.734 108.827C147.361 102.41 134.395 109.495 129.708 113.839C109.979 106.978 97.1617 115.659 93.2189 120.857C86.7914 99.1132 67.9256 87.959 59.2961 85.1C39.0318 79.8422 22.4349 87.2907 16.6695 91.6721C16.1339 65.3834 -4.30901 65.0492 -14.4635 68.1682C-15.9811 55.0683 -23.7253 47.1149 -27.4077 44.7756Z" fill="#92C7E9"/>
</g>
<g filter="url(#filter1_d_557_14)">
<path d="M-53.522 89.5712C-54.3252 88.4124 -59.5087 87.0084 -62 86.4512V382.297H640V122.889C632.325 119.056 619.028 121.292 613.339 122.889C609.591 105.862 594.152 95.2913 586.901 92.1341C548.527 74.3945 522.572 96.9999 514.392 110.52C494.58 99.377 483.008 112.86 479.699 120.994C438.737 104.681 423.216 136.335 420.576 154.2C405.584 151.17 396.63 161.852 394.027 167.572C369.039 160.262 360.115 179.384 358.776 189.858C337.715 185.312 333.045 200.518 333.342 208.69C310.764 194.427 290.394 206.461 283.032 214.261C269.646 197.324 251.202 198.364 243.654 201.001C246.688 170.425 224.169 157.506 212.531 154.869C192.005 150.59 176.834 162.075 171.814 168.352C164.407 152.306 148.053 148.963 140.802 149.298C129.023 149.03 120.128 157.135 117.153 161.221C112.602 139.113 94.9544 127.717 86.6995 124.783C64.032 116.136 45.9457 124.226 39.7359 129.352C41.1638 119.011 33.9352 110.78 30.1424 107.957C21.5751 101.539 11.7734 103.723 7.94343 105.617C7.76495 92.3347 -1.72446 83.1455 -6.44685 80.2111C-29.8283 65.859 -47.5725 80.4711 -53.522 89.5712Z" fill="#B7E0F2"/>
</g>
<g filter="url(#filter2_d_557_14)">
<path d="M-42.9337 164.078C-42.2201 148.126 -55.1986 139.014 -61.7771 136.452V382.297H640V130.103C635.629 130.103 630.894 138.42 629.073 142.579C611.59 131.529 600.158 143.544 596.627 150.933C559.609 140.151 545.672 165.674 543.33 179.784C529.95 162.585 510.772 159.325 502.856 159.845C473.866 157.706 458.888 181.455 455.023 193.597C411.404 187.448 398.492 219.7 397.489 236.595C381.522 228.129 367.496 233.067 362.478 236.595C354.539 221.98 338.58 222.559 331.593 224.676C315.894 227.973 312.043 242.536 312.08 249.405C301.287 247.088 292.791 252.078 289.892 254.863C280.615 249.427 272.721 250.89 269.934 252.301C265.83 214.784 235.889 212.534 221.431 216.098C223.483 189.186 206.23 175.328 197.348 171.764C163.63 158.664 145.389 180.193 140.483 192.594C119.61 183.861 105.249 197.57 100.678 205.516C83.7296 194.733 69.4577 202.88 64.4402 208.301C40.5348 169.536 4.75088 178.707 -10.1529 188.139C-11.4909 161.226 -32.5643 160.884 -42.9337 164.078Z" fill="#DBF3FF"/>
</g>
<g filter="url(#filter3_d_557_14)">
<path d="M-62 215.236C-51.2298 213.111 -25.6919 214.897 -8.66364 238.651C-8.43226 238.973 -8.20246 239.3 -7.97429 239.631C0.380199 235.658 19.3393 232.457 28.3399 251.439C45.3088 244.421 81.3408 241.503 89.7176 285.971C98.0349 285.228 115.962 288.622 121.13 308.138C126.366 305.019 140.557 300.652 155.44 308.138C159.932 301.826 172.995 290.85 189.303 297.444C194.539 299.412 205.277 306.913 206.346 321.171C215.035 318.646 232.613 319.144 233.415 341.333C242.995 335.763 266.61 328.567 284.433 344.341C286.772 330.157 299.783 303.727 333.112 311.48C332.146 294.177 339.951 260.194 378.894 262.69C387.546 263.432 406.787 269.574 414.54 288.199C416.805 286.342 424.165 283.186 435.482 285.414C441.46 273.755 460.434 256.206 488.505 279.287C493.481 259.459 516.086 225.417 566.703 247.874C565.961 237.069 571.582 217.063 600.01 223.479C600.938 211.746 610.191 189.326 639.777 193.514V391.683H-62V215.236Z" fill="white"/>
</g>
<defs>
<filter id="filter0_d_557_14" x="-62" y="2.07678" width="753" height="389.106" filterUnits="userSpaceOnUse" color-interpolation-filters="sRGB">
<feFlood flood-opacity="0" result="BackgroundImageFix"/>
<feColorMatrix in="SourceAlpha" type="matrix" values="0 0 0 0 0 0 0 0 0 0 0 0 0 0 0 0 0 0 127 0" result="hardAlpha"/>
<feOffset dx="31" dy="-10"/>
<feGaussianBlur stdDeviation="10"/>
<feComposite in2="hardAlpha" operator="out"/>
<feColorMatrix type="matrix" values="0 0 0 0 0 0 0 0 0 0 0 0 0 0 0 0 0 0 0.04 0"/>
<feBlend mode="normal" in2="BackgroundImageFix" result="effect1_dropShadow_557_14"/>
<feBlend mode="normal" in="SourceGraphic" in2="effect1_dropShadow_557_14" result="shape"/>
</filter>
<filter id="filter1_d_557_14" x="-62" y="42.1835" width="746" height="352.114" filterUnits="userSpaceOnUse" color-interpolation-filters="sRGB">
<feFlood flood-opacity="0" result="BackgroundImageFix"/>
<feColorMatrix in="SourceAlpha" type="matrix" values="0 0 0 0 0 0 0 0 0 0 0 0 0 0 0 0 0 0 127 0" result="hardAlpha"/>
<feOffset dx="22" dy="-10"/>
<feGaussianBlur stdDeviation="11"/>
<feComposite in2="hardAlpha" operator="out"/>
<feColorMatrix type="matrix" values="0 0 0 0 0 0 0 0 0 0 0 0 0 0 0 0 0 0 0.04 0"/>
<feBlend mode="normal" in2="BackgroundImageFix" result="effect1_dropShadow_557_14"/>
<feBlend mode="normal" in="SourceGraphic" in2="effect1_dropShadow_557_14" result="shape"/>
</filter>
<filter id="filter2_d_557_14" x="-62.7771" y="96.1028" width="749.777" height="300.194" filterUnits="userSpaceOnUse" color-interpolation-filters="sRGB">
<feFlood flood-opacity="0" result="BackgroundImageFix"/>
<feColorMatrix in="SourceAlpha" type="matrix" values="0 0 0 0 0 0 0 0 0 0 0 0 0 0 0 0 0 0 127 0" result="hardAlpha"/>
<feOffset dx="23" dy="-10"/>
<feGaussianBlur stdDeviation="12"/>
<feComposite in2="hardAlpha" operator="out"/>
<feColorMatrix type="matrix" values="0 0 0 0 0 0 0 0 0 0 0 0 0 0 0 0 0 0 0.04 0"/>
<feBlend mode="normal" in2="BackgroundImageFix" result="effect1_dropShadow_557_14"/>
<feBlend mode="normal" in="SourceGraphic" in2="effect1_dropShadow_557_14" result="shape"/>
</filter>
<filter id="filter3_d_557_14" x="-62" y="163" width="745.777" height="238.683" filterUnits="userSpaceOnUse" color-interpolation-filters="sRGB">
<feFlood flood-opacity="0" result="BackgroundImageFix"/>
<feColorMatrix in="SourceAlpha" type="matrix" values="0 0 0 0 0 0 0 0 0 0 0 0 0 0 0 0 0 0 127 0" result="hardAlpha"/>
<feOffset dx="24" dy="-10"/>
<feGaussianBlur stdDeviation="10"/>
<feComposite in2="hardAlpha" operator="out"/>
<feColorMatrix type="matrix" values="0 0 0 0 0 0 0 0 0 0 0 0 0 0 0 0 0 0 0.05 0"/>
<feBlend mode="normal" in2="BackgroundImageFix" result="effect1_dropShadow_557_14"/>
<feBlend mode="normal" in="SourceGraphic" in2="effect1_dropShadow_557_14" result="shape"/>
</filter>
</defs>
</svg>
