<svg width="390" height="844" viewBox="0 0 390 844" fill="none" xmlns="http://www.w3.org/2000/svg">
<rect x="-513" y="-24" width="1311.67" height="875" fill="#67B3E5"/>
<g filter="url(#filter0_d_558_163)">
<path d="M-448.365 220.351C-469.048 200.037 -500.073 208.417 -513 215.147V848.918H798.667V196.623C759.803 206.614 751.199 233.532 751.755 245.743C703.383 227.261 665.019 256.774 651.884 273.841C553.472 197.581 491.062 266.626 472.158 310.681C376.248 292.865 350.603 372.636 349.769 414.749C342.763 406.923 319.467 414.818 308.695 419.744C296.852 392.936 264.979 394.421 250.523 398.514C221.5 411.169 216.469 433.203 217.581 442.639C193.228 434.147 181.163 446.177 178.174 453.254C167.165 443.763 148.706 445.691 140.853 447.842C133.847 379.74 78.7202 376.036 52.0323 382.696C61.7067 338.405 31.8774 312.069 15.7535 304.437C-44.6278 272.634 -83.2141 314.913 -94.9595 340.028C-121.814 328.04 -146.042 341.277 -154.799 349.394C-191.661 336.573 -215.611 352.794 -222.978 362.507C-234.987 321.879 -270.238 301.038 -286.362 295.695C-324.225 285.871 -355.236 299.789 -366.008 307.975C-367.009 258.855 -405.206 258.231 -424.179 264.059C-427.015 239.582 -441.485 224.721 -448.365 220.351Z" fill="#92C7E9"/>
</g>
<g filter="url(#filter1_d_558_163)">
<path d="M-497.159 304.05C-498.66 301.885 -508.345 299.261 -513 298.22V851H798.667V366.303C784.327 359.141 759.482 363.318 748.852 366.303C741.848 334.489 713.001 314.738 699.453 308.839C627.752 275.693 579.257 317.93 563.972 343.192C526.954 322.372 505.333 347.564 499.149 362.763C422.613 332.282 393.613 391.426 388.68 424.808C360.667 419.145 343.936 439.104 339.073 449.792C292.384 436.134 275.709 471.862 273.208 491.433C233.856 482.938 225.13 511.351 225.686 526.619C183.499 499.969 145.439 522.455 131.682 537.029C106.671 505.383 72.2097 507.326 58.1057 512.253C63.7751 455.122 21.6995 430.985 -0.0470581 426.057C-38.3987 418.062 -66.7455 439.521 -76.125 451.25C-89.9649 421.268 -120.521 415.022 -134.069 415.647C-156.08 415.147 -172.699 430.291 -178.257 437.925C-186.761 396.617 -219.735 375.325 -235.159 369.842C-277.513 353.686 -311.307 368.801 -322.909 378.378C-320.241 359.057 -333.748 343.678 -340.835 338.403C-356.842 326.411 -375.156 330.492 -382.313 334.031C-382.646 309.213 -400.377 292.044 -409.201 286.561C-452.888 259.744 -486.043 287.047 -497.159 304.05Z" fill="#B7E0F2"/>
</g>
<g filter="url(#filter2_d_558_163)">
<path d="M-477.375 443.263C-476.042 413.458 -500.292 396.433 -512.584 391.646V851H798.667V379.782C790.501 379.782 781.653 395.323 778.251 403.093C745.584 382.446 724.223 404.897 717.625 418.703C648.459 398.556 622.417 446.247 618.042 472.61C593.042 440.474 557.209 434.383 542.417 435.354C488.25 431.358 460.264 475.732 453.042 498.419C371.542 486.93 347.417 547.192 345.542 578.759C315.709 562.941 289.5 572.168 280.125 578.759C265.292 551.452 235.472 552.534 222.417 556.489C193.083 562.65 185.889 589.86 185.958 602.695C165.792 598.366 149.917 607.69 144.5 612.893C127.167 602.736 112.417 605.47 107.208 608.106C99.5417 538.006 43.5972 533.802 16.5833 540.462C20.4167 490.177 -11.8195 464.285 -28.4167 457.625C-91.4167 433.148 -125.5 473.374 -134.667 496.546C-173.667 480.228 -200.5 505.843 -209.042 520.69C-240.709 500.542 -267.375 515.764 -276.75 525.893C-321.417 453.462 -388.278 470.598 -416.125 488.22C-418.625 437.935 -458 437.297 -477.375 443.263Z" fill="#DBF3FF"/>
</g>
<g filter="url(#filter3_d_558_163)">
<path d="M-512.584 521.314C-492.46 517.344 -444.743 520.681 -412.926 565.064C-412.494 565.667 -412.065 566.277 -411.638 566.896C-396.028 559.472 -360.604 553.492 -343.786 588.958C-312.08 575.846 -244.756 570.392 -229.104 653.48C-213.563 652.092 -180.067 658.434 -170.41 694.899C-160.627 689.071 -134.111 680.912 -106.304 694.899C-97.9093 683.104 -73.502 662.596 -43.031 674.918C-33.2487 678.595 -13.1844 692.609 -11.1864 719.251C5.04816 714.533 37.8919 715.463 39.3904 756.923C57.2901 746.516 101.415 733.071 134.716 762.543C139.087 736.04 163.397 686.657 225.671 701.143C223.867 668.813 238.451 605.317 311.215 609.98C327.38 611.367 363.332 622.842 377.818 657.643C382.05 654.174 395.801 648.277 416.947 652.439C428.117 630.654 463.57 597.866 516.02 640.992C525.317 603.944 567.554 540.338 662.131 582.298C660.743 562.109 671.247 524.728 724.363 536.716C726.097 514.793 743.386 472.902 798.667 480.728V851H-512.584V521.314Z" fill="white"/>
</g>
<defs>
<filter id="filter0_d_558_163" x="-513" y="166.623" width="1362.67" height="692.295" filterUnits="userSpaceOnUse" color-interpolation-filters="sRGB">
<feFlood flood-opacity="0" result="BackgroundImageFix"/>
<feColorMatrix in="SourceAlpha" type="matrix" values="0 0 0 0 0 0 0 0 0 0 0 0 0 0 0 0 0 0 127 0" result="hardAlpha"/>
<feOffset dx="31" dy="-10"/>
<feGaussianBlur stdDeviation="10"/>
<feComposite in2="hardAlpha" operator="out"/>
<feColorMatrix type="matrix" values="0 0 0 0 0 0 0 0 0 0 0 0 0 0 0 0 0 0 0.04 0"/>
<feBlend mode="normal" in2="BackgroundImageFix" result="effect1_dropShadow_558_163"/>
<feBlend mode="normal" in="SourceGraphic" in2="effect1_dropShadow_558_163" result="shape"/>
</filter>
<filter id="filter1_d_558_163" x="-513" y="243.298" width="1355.67" height="619.702" filterUnits="userSpaceOnUse" color-interpolation-filters="sRGB">
<feFlood flood-opacity="0" result="BackgroundImageFix"/>
<feColorMatrix in="SourceAlpha" type="matrix" values="0 0 0 0 0 0 0 0 0 0 0 0 0 0 0 0 0 0 127 0" result="hardAlpha"/>
<feOffset dx="22" dy="-10"/>
<feGaussianBlur stdDeviation="11"/>
<feComposite in2="hardAlpha" operator="out"/>
<feColorMatrix type="matrix" values="0 0 0 0 0 0 0 0 0 0 0 0 0 0 0 0 0 0 0.04 0"/>
<feBlend mode="normal" in2="BackgroundImageFix" result="effect1_dropShadow_558_163"/>
<feBlend mode="normal" in="SourceGraphic" in2="effect1_dropShadow_558_163" result="shape"/>
</filter>
<filter id="filter2_d_558_163" x="-513.584" y="345.782" width="1359.25" height="519.218" filterUnits="userSpaceOnUse" color-interpolation-filters="sRGB">
<feFlood flood-opacity="0" result="BackgroundImageFix"/>
<feColorMatrix in="SourceAlpha" type="matrix" values="0 0 0 0 0 0 0 0 0 0 0 0 0 0 0 0 0 0 127 0" result="hardAlpha"/>
<feOffset dx="23" dy="-10"/>
<feGaussianBlur stdDeviation="12"/>
<feComposite in2="hardAlpha" operator="out"/>
<feColorMatrix type="matrix" values="0 0 0 0 0 0 0 0 0 0 0 0 0 0 0 0 0 0 0.04 0"/>
<feBlend mode="normal" in2="BackgroundImageFix" result="effect1_dropShadow_558_163"/>
<feBlend mode="normal" in="SourceGraphic" in2="effect1_dropShadow_558_163" result="shape"/>
</filter>
<filter id="filter3_d_558_163" x="-512.584" y="449.767" width="1355.25" height="411.233" filterUnits="userSpaceOnUse" color-interpolation-filters="sRGB">
<feFlood flood-opacity="0" result="BackgroundImageFix"/>
<feColorMatrix in="SourceAlpha" type="matrix" values="0 0 0 0 0 0 0 0 0 0 0 0 0 0 0 0 0 0 127 0" result="hardAlpha"/>
<feOffset dx="24" dy="-10"/>
<feGaussianBlur stdDeviation="10"/>
<feComposite in2="hardAlpha" operator="out"/>
<feColorMatrix type="matrix" values="0 0 0 0 0 0 0 0 0 0 0 0 0 0 0 0 0 0 0.05 0"/>
<feBlend mode="normal" in2="BackgroundImageFix" result="effect1_dropShadow_558_163"/>
<feBlend mode="normal" in="SourceGraphic" in2="effect1_dropShadow_558_163" result="shape"/>
</filter>
</defs>
</svg>
