<svg width="390" height="464" viewBox="0 0 390 464" fill="none" xmlns="http://www.w3.org/2000/svg">
<rect x="-277" y="-206" width="983.376" height="656" fill="#67B3E5"/>
<g filter="url(#filter0_d_558_108)">
<path d="M-228.542 -22.8069C-244.049 -38.0366 -267.308 -31.7533 -277 -26.7079V448.44H706.376V-40.5956C677.239 -33.1056 670.788 -12.9242 671.205 -3.76977C634.94 -17.6263 606.178 4.50045 596.33 17.2959C522.55 -39.8778 475.759 11.8864 461.587 44.9153C389.682 31.5581 370.455 91.3637 369.83 122.936C364.578 117.069 347.112 122.988 339.036 126.681C330.158 106.583 306.262 107.696 295.424 110.765C273.665 120.252 269.893 136.772 270.727 143.846C252.469 137.479 243.424 146.499 241.183 151.804C232.93 144.688 219.091 146.134 213.203 147.747C207.951 96.69 166.621 93.9124 146.613 98.9058C153.866 65.7001 131.502 45.9556 119.414 40.234C74.1453 16.3908 45.2167 48.0881 36.4109 66.9172C16.2776 57.9292 -1.88614 67.8534 -8.45135 73.9391C-36.0878 64.3269 -54.0432 76.4878 -59.5663 83.7697C-68.57 53.3103 -94.9976 37.6853 -107.086 33.6803C-135.473 26.3151 -158.722 36.7491 -166.798 42.8867C-167.548 6.06087 -196.185 5.59274 -210.41 9.96191C-212.536 -8.3886 -223.384 -19.53 -228.542 -22.8069Z" fill="#92C7E9"/>
</g>
<g filter="url(#filter1_d_558_108)">
<path d="M-265.124 39.9437C-266.249 38.3204 -273.51 36.3536 -277 35.5731V450H706.376V86.6155C695.625 81.2459 676.998 84.3782 669.028 86.6155C663.778 62.7645 642.151 47.9565 631.994 43.5338C578.238 18.6838 541.881 50.3499 530.421 69.2892C502.669 53.6799 486.459 72.5671 481.823 83.9619C424.442 61.1099 402.701 105.451 399.003 130.478C378 126.232 365.458 141.196 361.811 149.209C326.808 138.969 314.307 165.755 312.432 180.427C282.929 174.059 276.387 195.36 276.803 206.807C245.175 186.827 216.641 203.685 206.328 214.612C187.576 190.886 161.74 192.342 151.166 196.037C155.417 153.205 123.872 135.108 107.568 131.414C78.8155 125.42 57.5634 141.508 50.5315 150.301C40.1555 127.824 17.247 123.141 7.08981 123.61C-9.41177 123.235 -21.8713 134.588 -26.0384 140.312C-32.414 109.343 -57.1351 93.3795 -68.6987 89.2691C-100.452 77.1563 -125.788 88.4886 -134.486 95.6689C-132.486 81.1835 -142.612 69.6534 -147.925 65.6991C-159.926 56.7081 -173.657 59.7675 -179.022 62.4211C-179.272 43.8148 -192.565 30.9424 -199.18 26.8319C-231.933 6.72715 -256.79 27.1961 -265.124 39.9437Z" fill="#B6DEF0"/>
</g>
<g filter="url(#filter2_d_558_108)">
<path d="M-250.292 144.314C-249.292 121.969 -267.472 109.205 -276.688 105.616V450H706.376V96.7212C700.253 96.7212 693.62 108.372 691.069 114.198C666.579 98.7185 650.564 115.55 645.618 125.901C593.763 110.796 574.239 146.551 570.959 166.316C552.216 142.223 525.351 137.656 514.261 138.384C473.652 135.388 452.67 168.656 447.256 185.665C386.154 177.052 368.067 222.231 366.661 245.897C344.295 234.038 324.646 240.956 317.617 245.897C306.497 225.424 284.141 226.236 274.353 229.201C252.361 233.82 246.967 254.219 247.019 263.842C231.9 260.596 219.998 267.587 215.937 271.488C202.942 263.873 191.884 265.923 187.979 267.899C182.231 215.344 140.289 212.192 120.036 217.185C122.91 179.486 98.7424 160.074 86.2992 155.081C39.0672 136.73 13.5144 166.888 6.642 184.261C-22.5969 172.027 -42.7142 191.231 -49.118 202.362C-72.859 187.257 -92.8514 198.669 -99.88 206.263C-133.367 151.96 -183.494 164.807 -204.371 178.019C-206.246 140.319 -235.766 139.841 -250.292 144.314Z" fill="#DBF3FF"/>
</g>
<g filter="url(#filter3_d_558_108)">
<path d="M-276.688 202.83C-261.601 199.853 -225.827 202.355 -201.973 235.629C-201.649 236.082 -201.327 236.539 -201.007 237.003C-189.304 231.437 -162.746 226.954 -150.138 253.543C-126.367 243.713 -75.8931 239.624 -64.1588 301.916C-52.5076 300.876 -27.3953 305.63 -20.1549 332.969C-12.821 328.599 7.05875 322.483 27.9059 332.969C34.1996 324.126 52.4981 308.751 75.3427 317.989C82.6766 320.745 97.7191 331.252 99.2171 351.226C111.388 347.689 136.012 348.386 137.135 379.469C150.555 371.667 183.636 361.587 208.602 383.682C211.879 363.813 230.105 326.789 276.793 337.65C275.44 313.411 286.374 265.808 340.926 269.304C353.045 270.344 379.999 278.947 390.859 305.037C394.032 302.436 404.341 298.015 420.195 301.136C428.569 284.804 455.148 260.222 494.471 292.554C501.441 264.778 533.107 217.092 604.012 248.55C602.972 233.414 610.847 205.389 650.669 214.377C651.969 197.94 664.931 166.534 706.376 172.402V450H-276.688V202.83Z" fill="white"/>
</g>
<defs>
<filter id="filter0_d_558_108" x="-277" y="-70.5956" width="1034.38" height="529.035" filterUnits="userSpaceOnUse" color-interpolation-filters="sRGB">
<feFlood flood-opacity="0" result="BackgroundImageFix"/>
<feColorMatrix in="SourceAlpha" type="matrix" values="0 0 0 0 0 0 0 0 0 0 0 0 0 0 0 0 0 0 127 0" result="hardAlpha"/>
<feOffset dx="31" dy="-10"/>
<feGaussianBlur stdDeviation="10"/>
<feComposite in2="hardAlpha" operator="out"/>
<feColorMatrix type="matrix" values="0 0 0 0 0 0 0 0 0 0 0 0 0 0 0 0 0 0 0.04 0"/>
<feBlend mode="normal" in2="BackgroundImageFix" result="effect1_dropShadow_558_108"/>
<feBlend mode="normal" in="SourceGraphic" in2="effect1_dropShadow_558_108" result="shape"/>
</filter>
<filter id="filter1_d_558_108" x="-277" y="-13.6118" width="1027.38" height="475.612" filterUnits="userSpaceOnUse" color-interpolation-filters="sRGB">
<feFlood flood-opacity="0" result="BackgroundImageFix"/>
<feColorMatrix in="SourceAlpha" type="matrix" values="0 0 0 0 0 0 0 0 0 0 0 0 0 0 0 0 0 0 127 0" result="hardAlpha"/>
<feOffset dx="22" dy="-10"/>
<feGaussianBlur stdDeviation="11"/>
<feComposite in2="hardAlpha" operator="out"/>
<feColorMatrix type="matrix" values="0 0 0 0 0 0 0 0 0 0 0 0 0 0 0 0 0 0 0.04 0"/>
<feBlend mode="normal" in2="BackgroundImageFix" result="effect1_dropShadow_558_108"/>
<feBlend mode="normal" in="SourceGraphic" in2="effect1_dropShadow_558_108" result="shape"/>
</filter>
<filter id="filter2_d_558_108" x="-277.688" y="62.7212" width="1031.06" height="401.279" filterUnits="userSpaceOnUse" color-interpolation-filters="sRGB">
<feFlood flood-opacity="0" result="BackgroundImageFix"/>
<feColorMatrix in="SourceAlpha" type="matrix" values="0 0 0 0 0 0 0 0 0 0 0 0 0 0 0 0 0 0 127 0" result="hardAlpha"/>
<feOffset dx="23" dy="-10"/>
<feGaussianBlur stdDeviation="12"/>
<feComposite in2="hardAlpha" operator="out"/>
<feColorMatrix type="matrix" values="0 0 0 0 0 0 0 0 0 0 0 0 0 0 0 0 0 0 0.04 0"/>
<feBlend mode="normal" in2="BackgroundImageFix" result="effect1_dropShadow_558_108"/>
<feBlend mode="normal" in="SourceGraphic" in2="effect1_dropShadow_558_108" result="shape"/>
</filter>
<filter id="filter3_d_558_108" x="-276.688" y="141.681" width="1027.06" height="318.319" filterUnits="userSpaceOnUse" color-interpolation-filters="sRGB">
<feFlood flood-opacity="0" result="BackgroundImageFix"/>
<feColorMatrix in="SourceAlpha" type="matrix" values="0 0 0 0 0 0 0 0 0 0 0 0 0 0 0 0 0 0 127 0" result="hardAlpha"/>
<feOffset dx="24" dy="-10"/>
<feGaussianBlur stdDeviation="10"/>
<feComposite in2="hardAlpha" operator="out"/>
<feColorMatrix type="matrix" values="0 0 0 0 0 0 0 0 0 0 0 0 0 0 0 0 0 0 0.05 0"/>
<feBlend mode="normal" in2="BackgroundImageFix" result="effect1_dropShadow_558_108"/>
<feBlend mode="normal" in="SourceGraphic" in2="effect1_dropShadow_558_108" result="shape"/>
</filter>
</defs>
</svg>
