<svg width="359" height="286" viewBox="0 0 359 286" fill="none" xmlns="http://www.w3.org/2000/svg">
<g filter="url(#filter0_d_1367_824)">
<path fill-rule="evenodd" clip-rule="evenodd" d="M181.761 0.677601C204.547 2.27947 224.234 12.6931 236.468 27.6544C245.068 25.3351 254.365 24.3777 263.99 25.0543C303.832 27.8552 334.198 57.5957 331.816 91.4816C331.509 95.8479 330.674 100.07 329.365 104.107C345.687 116.528 355.472 134.91 354.08 154.706C352.579 176.064 338.426 193.97 318.191 203.591C314.929 236.725 281.12 261.151 241.863 258.391C225.173 257.218 210.147 251.317 198.493 242.365C186.705 265.105 159.031 279.972 127.94 277.786C90.467 275.152 61.3759 248.686 60.0307 217.355C26.2436 210.094 2.00974 183.024 4.14742 152.616C5.56122 132.505 18.1924 115.454 36.5568 105.5C35.8981 101.49 35.6939 97.374 35.9876 93.1951C38.3379 59.7629 71.688 34.7862 110.843 36.8131C122.417 13.6707 150.344 -1.53098 181.761 0.677601Z" fill="#FFFFFC"/>
</g>
<defs>
<filter id="filter0_d_1367_824" x="0.0163574" y="0.464844" width="358.195" height="285.534" filterUnits="userSpaceOnUse" color-interpolation-filters="sRGB">
<feFlood flood-opacity="0" result="BackgroundImageFix"/>
<feColorMatrix in="SourceAlpha" type="matrix" values="0 0 0 0 0 0 0 0 0 0 0 0 0 0 0 0 0 0 127 0" result="hardAlpha"/>
<feOffset dy="4"/>
<feGaussianBlur stdDeviation="2"/>
<feComposite in2="hardAlpha" operator="out"/>
<feColorMatrix type="matrix" values="0 0 0 0 0 0 0 0 0 0 0 0 0 0 0 0 0 0 0.25 0"/>
<feBlend mode="normal" in2="BackgroundImageFix" result="effect1_dropShadow_1367_824"/>
<feBlend mode="normal" in="SourceGraphic" in2="effect1_dropShadow_1367_824" result="shape"/>
</filter>
</defs>
</svg>
