<svg width="202" height="44" viewBox="0 0 202 44" fill="none" xmlns="http://www.w3.org/2000/svg">
<g opacity="0.8" filter="url(#filter0_i_1396_490)">
<path d="M195.126 38.301C193.624 38.318 192.128 38.4797 190.664 38.7832C190.664 38.7832 185.738 24.7278 168.087 31.6872C168.087 31.6872 163.5 7.86781 134.034 19.9382C134.034 19.9382 126.663 -0.0960877 105.478 0.000347026C102.503 0.000347026 99.5495 0.000347026 96.6165 0.000347026C75.3958 -0.0960877 68.0605 19.9382 68.0605 19.9382C38.5139 7.86781 33.9092 31.6872 33.9092 31.6872C16.258 24.7278 11.3321 38.7832 11.3321 38.7832C9.86813 38.4797 8.37233 38.318 6.8702 38.301C-2.3659 37.8992 0.382619 43.7897 0.382619 43.7897H201.623C201.623 43.7897 204.353 37.8992 195.126 38.301Z" fill="white" fill-opacity="0.8"/>
</g>
<defs>
<filter id="filter0_i_1396_490" x="0" y="0" width="206" height="47.7898" filterUnits="userSpaceOnUse" color-interpolation-filters="sRGB">
<feFlood flood-opacity="0" result="BackgroundImageFix"/>
<feBlend mode="normal" in="SourceGraphic" in2="BackgroundImageFix" result="shape"/>
<feColorMatrix in="SourceAlpha" type="matrix" values="0 0 0 0 0 0 0 0 0 0 0 0 0 0 0 0 0 0 127 0" result="hardAlpha"/>
<feOffset dx="14" dy="8"/>
<feGaussianBlur stdDeviation="2"/>
<feComposite in2="hardAlpha" operator="arithmetic" k2="-1" k3="1"/>
<feColorMatrix type="matrix" values="0 0 0 0 0 0 0 0 0 0 0 0 0 0 0 0 0 0 0.25 0"/>
<feBlend mode="normal" in2="shape" result="effect1_innerShadow_1396_490"/>
</filter>
</defs>
</svg>
