<svg width="252" height="55" viewBox="0 0 252 55" fill="none" xmlns="http://www.w3.org/2000/svg">
<g opacity="0.8">
<path d="M242.808 47.6604C240.939 47.6816 239.077 47.8827 237.256 48.2604C237.256 48.2604 231.126 30.7704 209.162 39.4304C209.162 39.4304 203.454 9.79043 166.787 24.8104C166.787 24.8104 157.615 -0.119568 131.253 0.000431827C127.551 0.000431827 123.876 0.000431827 120.226 0.000431827C93.8199 -0.119568 84.6921 24.8104 84.6921 24.8104C47.9253 9.79043 42.1954 39.4304 42.1954 39.4304C20.2309 30.7704 14.1012 48.2604 14.1012 48.2604C12.2796 47.8827 10.4182 47.6816 8.54904 47.6604C-2.94405 47.1604 0.476118 54.4904 0.476118 54.4904H250.892C250.892 54.4904 254.29 47.1604 242.808 47.6604Z" fill="white" fill-opacity="0.8"/>
</g>
</svg>
