<svg width="166" height="169" viewBox="0 0 166 169" fill="none" xmlns="http://www.w3.org/2000/svg">
<g filter="url(#filter0_d_1692_534)">
<path d="M139.135 83.508L138.62 84.0669L139.337 84.3186C145.743 86.5672 151.292 90.7482 155.218 96.284C159.143 101.82 161.252 108.437 161.251 115.221C161.251 123.905 157.799 132.233 151.654 138.373C145.508 144.513 137.174 147.963 128.483 147.963H37.2679C28.5772 147.963 20.2425 144.513 14.0974 138.373C7.95222 132.233 4.5 123.905 4.5 115.222C4.50054 109.155 6.18822 103.208 9.37471 98.0449C12.5612 92.8813 17.1211 88.7041 22.5456 85.9795L23.1797 85.661L22.6664 85.171C17.4051 80.149 14.4518 74.4328 14.4518 68.388C14.4518 61.2512 18.5358 54.5719 25.6976 48.9997L26.0812 48.7013L25.7938 48.3094C22.9936 44.4903 21.4518 39.8956 21.3818 35.1619C21.3835 25.7008 27.8676 17.0466 38.539 10.7302C49.2007 4.41944 63.9609 0.5 80.2874 0.5C96.614 0.5 111.372 4.41944 122.031 10.7301C132.7 17.0468 139.182 25.7015 139.184 35.1631C139.124 39.9841 137.544 44.6634 134.668 48.5355L134.38 48.9243L134.759 49.2253C141.732 54.7596 145.732 61.354 145.732 68.388C145.732 73.776 143.371 78.9086 139.135 83.508Z" fill="#FACF63" stroke="white"/>
<path d="M60.8311 53.2917C60.8311 53.2917 50.2799 92.2893 22.1909 86.04" stroke="#020202" stroke-width="2" stroke-linecap="round" stroke-linejoin="round"/>
<path d="M50.2448 141.633L51.2339 156.022L42.9332 159.171" stroke="#020202" stroke-width="2" stroke-linecap="round" stroke-linejoin="round"/>
<path d="M104.818 141.633L105.807 156.022L97.5059 159.171" stroke="#020202" stroke-width="2" stroke-linecap="round" stroke-linejoin="round"/>
<path d="M50.2695 140.98L61.6389 146.665" stroke="black" stroke-width="2" stroke-linecap="round"/>
<path d="M104.843 140.98L116.212 146.665" stroke="black" stroke-width="2" stroke-linecap="round"/>
<path d="M68.8052 54.2343C68.8052 50.0338 74.334 46.6144 81.1973 46.6144C88.0606 46.6144 93.5894 50.0243 93.5894 54.2343" stroke="#020202" stroke-linecap="round" stroke-linejoin="round"/>
<path d="M103.602 51.454C103.602 51.454 111.484 89.3229 140.416 83.8553" stroke="#020202" stroke-width="2" stroke-linecap="round" stroke-linejoin="round"/>
<path d="M139.135 83.508L138.62 84.0669L139.337 84.3186C145.743 86.5672 151.292 90.7482 155.218 96.284C159.143 101.82 161.252 108.437 161.251 115.221C161.251 123.905 157.799 132.233 151.654 138.373C145.508 144.513 137.174 147.963 128.483 147.963H37.2679C28.5772 147.963 20.2425 144.513 14.0974 138.373C7.95222 132.233 4.5 123.905 4.5 115.222C4.50054 109.155 6.18822 103.208 9.37471 98.0449C12.5612 92.8813 17.1211 88.7041 22.5456 85.9795L23.1797 85.661L22.6664 85.171C17.4051 80.149 14.4518 74.4328 14.4518 68.388C14.4518 61.2512 18.5358 54.5719 25.6976 48.9997L26.0812 48.7013L25.7938 48.3094C22.9936 44.4903 21.4518 39.8956 21.3818 35.1619C21.3835 25.7008 27.8676 17.0466 38.539 10.7302C49.2007 4.41944 63.9609 0.5 80.2874 0.5C96.614 0.5 111.372 4.41944 122.031 10.7301C132.7 17.0468 139.182 25.7015 139.184 35.1631C139.124 39.9841 137.544 44.6634 134.668 48.5355L134.38 48.9243L134.759 49.2253C141.732 54.7596 145.732 61.354 145.732 68.388C145.732 73.776 143.371 78.9086 139.135 83.508Z" fill="#FACF63" stroke="white"/>
<path d="M60.8311 53.2917C60.8311 53.2917 50.2799 92.2893 22.1909 86.04" stroke="#020202" stroke-width="2" stroke-linecap="round" stroke-linejoin="round"/>
<path d="M50.2448 141.633L51.2339 156.022L42.9332 159.171" stroke="#020202" stroke-width="2" stroke-linecap="round" stroke-linejoin="round"/>
<path d="M104.818 141.633L105.807 156.022L97.5059 159.171" stroke="#020202" stroke-width="2" stroke-linecap="round" stroke-linejoin="round"/>
<path d="M50.2695 140.98L61.6389 146.665" stroke="black" stroke-width="2" stroke-linecap="round"/>
<path d="M104.843 140.98L116.212 146.665" stroke="black" stroke-width="2" stroke-linecap="round"/>
<path d="M68.8052 54.2343C68.8052 50.0338 74.334 46.6144 81.1973 46.6144C88.0606 46.6144 93.5894 50.0243 93.5894 54.2343" stroke="#020202" stroke-linecap="round" stroke-linejoin="round"/>
<path d="M103.602 51.454C103.602 51.454 111.484 89.3229 140.416 83.8553" stroke="#020202" stroke-width="2" stroke-linecap="round" stroke-linejoin="round"/>
<path d="M73.5 41C75.9853 41 78 38.5376 78 35.5C78 32.4624 75.9853 30 73.5 30C71.0147 30 69 32.4624 69 35.5C69 38.5376 71.0147 41 73.5 41Z" fill="white"/>
<path d="M73.5 40C75.433 40 77 38.2091 77 36C77 33.7909 75.433 32 73.5 32C71.567 32 70 33.7909 70 36C70 38.2091 71.567 40 73.5 40Z" fill="#221F20"/>
<path d="M90 41C92.7614 41 95 38.5376 95 35.5C95 32.4624 92.7614 30 90 30C87.2386 30 85 32.4624 85 35.5C85 38.5376 87.2386 41 90 41Z" fill="white"/>
<path d="M90.5 40C92.433 40 94 38.2091 94 36C94 33.7909 92.433 32 90.5 32C88.567 32 87 33.7909 87 36C87 38.2091 88.567 40 90.5 40Z" fill="#221F20"/>
</g>
<defs>
<filter id="filter0_d_1692_534" x="0" y="0" width="165.751" height="168.112" filterUnits="userSpaceOnUse" color-interpolation-filters="sRGB">
<feFlood flood-opacity="0" result="BackgroundImageFix"/>
<feColorMatrix in="SourceAlpha" type="matrix" values="0 0 0 0 0 0 0 0 0 0 0 0 0 0 0 0 0 0 127 0" result="hardAlpha"/>
<feOffset dy="4"/>
<feGaussianBlur stdDeviation="2"/>
<feComposite in2="hardAlpha" operator="out"/>
<feColorMatrix type="matrix" values="0 0 0 0 0 0 0 0 0 0 0 0 0 0 0 0 0 0 0.25 0"/>
<feBlend mode="normal" in2="BackgroundImageFix" result="effect1_dropShadow_1692_534"/>
<feBlend mode="normal" in="SourceGraphic" in2="effect1_dropShadow_1692_534" result="shape"/>
</filter>
</defs>
</svg>
