<svg width="137" height="139" viewBox="0 0 137 139" fill="none" xmlns="http://www.w3.org/2000/svg">
<path d="M130.356 84.8055C130.356 84.8055 136.824 52.521 110.109 47.5559" stroke="#020202" stroke-width="2" stroke-linecap="round" stroke-linejoin="round"/>
<path d="M118.137 67.6356L117.622 68.1945L118.339 68.4461C123.514 70.2626 127.997 73.6401 131.168 78.1119C134.339 82.5837 136.042 87.9291 136.041 93.4097C136.041 100.424 133.253 107.152 128.288 112.112C123.324 117.072 116.592 119.859 109.571 119.859H35.6233C28.6028 119.859 21.87 117.072 16.9059 112.112C11.9418 107.152 9.15308 100.424 9.15308 93.4097C9.15351 88.5094 10.5168 83.7056 13.0909 79.5344C15.6649 75.3632 19.3485 71.9888 23.7304 69.7879L24.3646 69.4694L23.8512 68.9794C19.5987 64.9202 17.221 60.3094 17.221 55.442C17.221 49.6953 20.5092 44.3052 26.3014 39.7986L26.6849 39.5002L26.3976 39.1083C24.1393 36.0282 22.8957 32.3226 22.8391 28.505C22.8408 20.8821 28.0658 13.8921 36.7019 8.78036C45.3284 3.67432 57.2772 0.5 70.4991 0.5C83.7209 0.5 95.6678 3.67432 104.292 8.78034C112.927 13.8922 118.15 20.8824 118.151 28.5056C118.103 32.3939 116.829 36.1681 114.51 39.2912L114.221 39.6799L114.6 39.9809C120.24 44.4568 123.46 49.7783 123.46 55.442C123.46 59.7806 121.56 63.9196 118.137 67.6356Z" fill="#FACF63" stroke="white"/>
<path d="M1.68682 88.124C1.68682 88.124 -4.77367 55.8395 21.9338 50.8744" stroke="#020202" stroke-width="2" stroke-linecap="round" stroke-linejoin="round"/>
<path d="M35.7227 116.12L31.7274 132.706L24.2236 134.405" stroke="#020202" stroke-width="2" stroke-linecap="round" stroke-linejoin="round"/>
<path d="M107.302 116.12L109.755 133.008L117.071 135.401" stroke="#020202" stroke-width="2" stroke-linecap="round" stroke-linejoin="round"/>
<path d="M63.5206 25.8835C65.6077 25.8835 67.2995 23.8645 67.2995 21.374C67.2995 18.8835 65.6077 16.8645 63.5206 16.8645C61.4336 16.8645 59.7417 18.8835 59.7417 21.374C59.7417 23.8645 61.4336 25.8835 63.5206 25.8835Z" fill="white"/>
<path d="M63.8052 23.131C65.3545 23.131 66.6104 21.7586 66.6104 20.0655C66.6104 18.3725 65.3545 17 63.8052 17C62.2559 17 61 18.3725 61 20.0655C61 21.7586 62.2559 23.131 63.8052 23.131Z" fill="#221F20"/>
<path d="M77.2762 25.8839C79.3633 25.8839 81.0552 23.8649 81.0552 21.3744C81.0552 18.8839 79.3633 16.8649 77.2762 16.8649C75.1892 16.8649 73.4973 18.8839 73.4973 21.3744C73.4973 23.8649 75.1892 25.8839 77.2762 25.8839Z" fill="white"/>
<path d="M77.4156 23.132C78.9648 23.132 80.2208 21.7595 80.2208 20.0665C80.2208 18.3735 78.9648 17.001 77.4156 17.001C75.8663 17.001 74.6104 18.3735 74.6104 20.0665C74.6104 21.7595 75.8663 23.132 77.4156 23.132Z" fill="#221F20"/>
<path d="M60.9615 36.9717C60.9615 33.5665 65.4437 30.7944 71.0077 30.7944C76.5718 30.7944 81.054 33.5587 81.054 36.9717" stroke="#020202" stroke-linecap="round" stroke-linejoin="round"/>
</svg>
