<svg width="139" height="139" viewBox="0 0 139 139" fill="none" xmlns="http://www.w3.org/2000/svg">
<path d="M132.356 84.8054C132.356 84.8054 138.824 52.5209 112.109 47.5558" stroke="#020202" stroke-width="2" stroke-linecap="round" stroke-linejoin="round"/>
<path d="M120.137 67.6356L119.622 68.1945L120.339 68.4461C125.514 70.2626 129.997 73.6401 133.168 78.1119C136.339 82.5837 138.042 87.9291 138.041 93.4097C138.041 100.424 135.253 107.152 130.289 112.112C125.325 117.072 118.592 119.859 111.571 119.859H37.6234C30.6029 119.859 23.8701 117.072 18.906 112.112C13.9419 107.152 11.1532 100.424 11.1532 93.4097C11.1536 88.5094 12.5169 83.7056 15.091 79.5344C17.6651 75.3632 21.3486 71.9888 25.7305 69.7879L26.3647 69.4694L25.8514 68.9794C21.5988 64.9202 19.2211 60.3094 19.2211 55.442C19.2211 49.6953 22.5093 44.3052 28.3015 39.7986L28.6851 39.5002L28.3977 39.1083C26.1394 36.0282 24.8958 32.3226 24.8392 28.505C24.8409 20.8821 30.0659 13.8921 38.7021 8.78036C47.3285 3.67432 59.2773 0.5 72.4992 0.5C85.7211 0.5 97.6679 3.67432 106.292 8.78034C114.927 13.8922 120.15 20.8824 120.151 28.5056C120.103 32.3939 118.829 36.1681 116.51 39.2912L116.221 39.6799L116.6 39.9809C122.24 44.4568 125.46 49.7783 125.46 55.442C125.46 59.7806 123.56 63.9196 120.137 67.6356Z" fill="#FACF63" stroke="white"/>
<path d="M1.68682 12C1.68682 12 -4.77367 44.2845 21.9338 49.2496" stroke="#020202" stroke-width="2" stroke-linecap="round" stroke-linejoin="round"/>
<path d="M37.7227 116.12L33.7274 132.706L26.2236 134.405" stroke="#020202" stroke-width="2" stroke-linecap="round" stroke-linejoin="round"/>
<path d="M109.302 116.12L111.755 133.008L119.071 135.401" stroke="#020202" stroke-width="2" stroke-linecap="round" stroke-linejoin="round"/>
<path d="M65.5206 25.8835C67.6077 25.8835 69.2995 23.8645 69.2995 21.374C69.2995 18.8835 67.6077 16.8645 65.5206 16.8645C63.4336 16.8645 61.7417 18.8835 61.7417 21.374C61.7417 23.8645 63.4336 25.8835 65.5206 25.8835Z" fill="white"/>
<path d="M65.8052 23.131C67.3545 23.131 68.6104 21.7586 68.6104 20.0655C68.6104 18.3725 67.3545 17 65.8052 17C64.2559 17 63 18.3725 63 20.0655C63 21.7586 64.2559 23.131 65.8052 23.131Z" fill="#221F20"/>
<path d="M79.2762 25.884C81.3633 25.884 83.0552 23.865 83.0552 21.3745C83.0552 18.884 81.3633 16.865 79.2762 16.865C77.1892 16.865 75.4973 18.884 75.4973 21.3745C75.4973 23.865 77.1892 25.884 79.2762 25.884Z" fill="white"/>
<path d="M79.4156 23.132C80.9648 23.132 82.2208 21.7595 82.2208 20.0665C82.2208 18.3735 80.9648 17.001 79.4156 17.001C77.8663 17.001 76.6104 18.3735 76.6104 20.0665C76.6104 21.7595 77.8663 23.132 79.4156 23.132Z" fill="#221F20"/>
<path d="M79.8893 29C79.8893 32.0972 76.3324 34.608 71.9447 34.608C67.557 34.608 64 32.0972 64 29" stroke="black"/>
<path d="M64 29H79.8893" stroke="black" stroke-linecap="round"/>
</svg>
