<svg width="403" height="332" viewBox="0 0 403 332" fill="none" xmlns="http://www.w3.org/2000/svg">
<mask id="path-1-inside-1_2068_529" fill="white">
<path fill-rule="evenodd" clip-rule="evenodd" d="M239.215 144.458C239.215 155.199 233.316 164.596 224.502 169.743C237.871 175.669 248.927 188.026 249.284 199.695C249.286 199.709 249.288 199.722 249.291 199.736L256.718 245.262C258.108 253.781 251.533 261.516 242.901 261.516H175.003C166.391 261.516 159.821 253.815 161.178 245.31L168.357 200.32C168.451 199.736 168.579 199.166 168.74 198.61C169.7 187.189 180.34 175.323 193.259 169.625C184.557 164.453 178.748 155.117 178.748 144.458C178.748 128.189 192.284 115 208.981 115C225.679 115 239.215 128.189 239.215 144.458Z"/>
</mask>
<path fill-rule="evenodd" clip-rule="evenodd" d="M239.215 144.458C239.215 155.199 233.316 164.596 224.502 169.743C237.871 175.669 248.927 188.026 249.284 199.695C249.286 199.709 249.288 199.722 249.291 199.736L256.718 245.262C258.108 253.781 251.533 261.516 242.901 261.516H175.003C166.391 261.516 159.821 253.815 161.178 245.31L168.357 200.32C168.451 199.736 168.579 199.166 168.74 198.61C169.7 187.189 180.34 175.323 193.259 169.625C184.557 164.453 178.748 155.117 178.748 144.458C178.748 128.189 192.284 115 208.981 115C225.679 115 239.215 128.189 239.215 144.458Z" fill="#FFECBA"/>
<path d="M224.502 169.743L223.494 168.016L220.118 169.988L223.692 171.572L224.502 169.743ZM249.284 199.695L247.285 199.756L247.289 199.89L247.311 200.023L249.284 199.695ZM249.291 199.736L251.264 199.414L251.264 199.414L249.291 199.736ZM256.718 245.262L254.744 245.584L254.744 245.584L256.718 245.262ZM161.178 245.31L159.203 244.995L159.203 244.995L161.178 245.31ZM168.357 200.32L166.382 200.005L166.382 200.005L168.357 200.32ZM168.74 198.61L170.661 199.168L170.717 198.977L170.733 198.778L168.74 198.61ZM193.259 169.625L194.066 171.455L197.617 169.889L194.281 167.906L193.259 169.625ZM225.511 171.471C234.898 165.989 241.215 155.955 241.215 144.458H237.215C237.215 154.442 231.734 163.204 223.494 168.016L225.511 171.471ZM251.283 199.634C251.086 193.205 247.964 186.78 243.299 181.273C238.619 175.748 232.266 170.997 225.313 167.915L223.692 171.572C230.108 174.416 235.967 178.806 240.247 183.858C244.541 188.928 247.125 194.515 247.285 199.756L251.283 199.634ZM247.311 200.023C247.313 200.035 247.315 200.047 247.317 200.058L251.264 199.414C251.262 199.398 251.259 199.383 251.257 199.367L247.311 200.023ZM247.317 200.058L254.744 245.584L258.692 244.94L251.264 199.414L247.317 200.058ZM254.744 245.584C255.936 252.886 250.3 259.516 242.901 259.516V263.516C252.766 263.516 260.281 254.676 258.692 244.94L254.744 245.584ZM242.901 259.516H175.003V263.516H242.901V259.516ZM175.003 259.516C167.621 259.516 161.99 252.915 163.153 245.625L159.203 244.995C157.652 254.714 165.161 263.516 175.003 263.516V259.516ZM163.153 245.625L170.332 200.635L166.382 200.005L159.203 244.995L163.153 245.625ZM170.332 200.635C170.412 200.134 170.523 199.644 170.661 199.168L166.82 198.052C166.635 198.687 166.489 199.339 166.382 200.005L170.332 200.635ZM192.452 167.795C185.723 170.763 179.59 175.332 174.999 180.667C170.42 185.987 167.273 192.192 166.747 198.443L170.733 198.778C171.168 193.607 173.82 188.169 178.031 183.276C182.23 178.397 187.876 174.185 194.066 171.455L192.452 167.795ZM176.748 144.458C176.748 155.867 182.969 165.835 192.237 171.344L194.281 167.906C186.145 163.07 180.748 154.366 180.748 144.458H176.748ZM208.981 113C191.228 113 176.748 127.036 176.748 144.458H180.748C180.748 129.342 193.339 117 208.981 117V113ZM241.215 144.458C241.215 127.036 226.734 113 208.981 113V117C224.623 117 237.215 129.342 237.215 144.458H241.215Z" fill="white" mask="url(#path-1-inside-1_2068_529)"/>
<path d="M192.857 160.433C192.857 160.433 198 134.762 176.758 130.814" stroke="#020202" stroke-width="2" stroke-linecap="round" stroke-linejoin="round"/>
<path d="M180.175 124.181L179.887 124.57L180.266 124.871C184.735 128.418 187.272 132.623 187.272 137.085C187.272 140.503 185.775 143.77 183.066 146.711L183.434 147.05L183.268 147.522C187.363 148.959 190.91 151.632 193.42 155.17C195.929 158.708 197.276 162.938 197.276 167.275C197.276 172.825 195.069 178.148 191.141 182.073C187.213 185.998 181.886 188.203 176.331 188.203H117.531C111.976 188.203 106.648 185.998 102.72 182.073C98.7921 178.148 96.5854 172.825 96.5854 167.275C96.5858 163.397 97.6645 159.596 99.7013 156.296C101.738 152.995 104.653 150.325 108.12 148.583L108.754 148.265L108.241 147.775C104.873 144.56 103.001 140.919 103.001 137.085C103.001 132.558 105.591 128.298 110.181 124.727L110.565 124.428L110.278 124.036C108.495 121.605 107.513 118.679 107.468 115.665C107.47 109.655 111.59 104.125 118.441 100.07C125.282 96.0206 134.764 93.5 145.262 93.5C155.761 93.5 165.242 96.0206 172.081 100.07C178.93 104.125 183.049 109.655 183.051 115.666C183.012 118.736 182.006 121.716 180.175 124.181Z" fill="#A7A7A7" stroke="white"/>
<path d="M93.5461 160.619C93.5461 160.619 88.4091 134.948 109.646 131" stroke="#020202" stroke-width="2" stroke-linecap="round" stroke-linejoin="round"/>
<path d="M117.61 185.333L114.433 198.521L108.466 199.872" stroke="#020202" stroke-width="2" stroke-linecap="round" stroke-linejoin="round"/>
<path d="M174.526 185.333L176.477 198.761L182.294 200.664" stroke="#020202" stroke-width="2" stroke-linecap="round" stroke-linejoin="round"/>
<path d="M140.005 123.171C141.664 123.171 143.01 121.566 143.01 119.586C143.01 117.605 141.664 116 140.005 116C138.345 116 137 117.605 137 119.586C137 121.566 138.345 123.171 140.005 123.171Z" fill="white"/>
<path d="M140.245 123.17C141.477 123.17 142.475 122.079 142.475 120.733C142.475 119.386 141.477 118.295 140.245 118.295C139.013 118.295 138.014 119.386 138.014 120.733C138.014 122.079 139.013 123.17 140.245 123.17Z" fill="#221F20"/>
<path d="M150.942 123.172C152.602 123.172 153.947 121.567 153.947 119.586C153.947 117.606 152.602 116 150.942 116C149.283 116 147.938 117.606 147.938 119.586C147.938 121.567 149.283 123.172 150.942 123.172Z" fill="white"/>
<path d="M151.182 123.171C152.414 123.171 153.413 122.08 153.413 120.734C153.413 119.387 152.414 118.296 151.182 118.296C149.95 118.296 148.952 119.387 148.952 120.734C148.952 122.08 149.95 123.171 151.182 123.171Z" fill="#221F20"/>
<path d="M268.772 163.433C268.772 163.433 273.915 137.762 252.672 133.814" stroke="#020202" stroke-width="2" stroke-linecap="round" stroke-linejoin="round"/>
<path d="M256.09 127.181L255.801 127.57L256.18 127.871C260.65 131.418 263.187 135.623 263.187 140.085C263.187 143.503 261.69 146.77 258.981 149.711L259.349 150.05L259.183 150.522C263.278 151.959 266.825 154.632 269.334 158.17C271.843 161.708 273.191 165.938 273.19 170.275C273.19 175.825 270.984 181.148 267.056 185.073C263.128 188.998 257.8 191.203 252.245 191.203H193.445C187.89 191.203 182.563 188.998 178.635 185.073C174.707 181.148 172.5 175.825 172.5 170.275C172.5 166.397 173.579 162.596 175.616 159.296C177.653 155.995 180.567 153.325 184.035 151.583L184.669 151.265L184.156 150.775C180.788 147.56 178.915 143.919 178.915 140.085C178.915 135.558 181.505 131.298 186.096 127.727L186.48 127.428L186.192 127.036C184.409 124.605 183.427 121.679 183.382 118.665C183.384 112.655 187.505 107.125 194.355 103.07C201.196 99.0206 210.679 96.5 221.177 96.5C231.675 96.5 241.156 99.0206 247.995 103.07C254.845 107.125 258.964 112.655 258.965 118.666C258.927 121.736 257.921 124.716 256.09 127.181Z" fill="#A7A7A7" stroke="white"/>
<path d="M193.524 188.333L190.347 201.521L184.381 202.872" stroke="#020202" stroke-width="2" stroke-linecap="round" stroke-linejoin="round"/>
<path d="M250.441 188.333L252.391 201.761L258.209 203.664" stroke="#020202" stroke-width="2" stroke-linecap="round" stroke-linejoin="round"/>
<path d="M214.919 125.171C216.579 125.171 217.924 123.566 217.924 121.586C217.924 119.605 216.579 118 214.919 118C213.26 118 211.915 119.605 211.915 121.586C211.915 123.566 213.26 125.171 214.919 125.171Z" fill="white"/>
<path d="M215.159 125.17C216.391 125.17 217.39 124.079 217.39 122.733C217.39 121.386 216.391 120.295 215.159 120.295C213.927 120.295 212.929 121.386 212.929 122.733C212.929 124.079 213.927 125.17 215.159 125.17Z" fill="#221F20"/>
<path d="M225.857 125.172C227.517 125.172 228.862 123.567 228.862 121.586C228.862 119.606 227.517 118 225.857 118C224.198 118 222.853 119.606 222.853 121.586C222.853 123.567 224.198 125.172 225.857 125.172Z" fill="white"/>
<path d="M226.097 125.171C227.329 125.171 228.327 124.08 228.327 122.734C228.327 121.387 227.329 120.296 226.097 120.296C224.865 120.296 223.866 121.387 223.866 122.734C223.866 124.08 224.865 125.171 226.097 125.171Z" fill="#221F20"/>
<path d="M136.099 189.619C136.099 189.619 141.243 163.948 120 160" stroke="#020202" stroke-width="2" stroke-linecap="round" stroke-linejoin="round"/>
<path d="M127.175 153.181L126.887 153.57L127.266 153.871C131.735 157.418 134.272 161.623 134.272 166.085C134.272 169.503 132.775 172.77 130.066 175.711L130.434 176.05L130.268 176.522C134.363 177.959 137.91 180.632 140.42 184.17C142.929 187.708 144.276 191.938 144.276 196.275C144.276 201.825 142.069 207.148 138.141 211.073C134.213 214.998 128.886 217.203 123.331 217.203H64.5308C58.9756 217.203 53.6481 214.998 49.7201 211.073C45.7921 207.148 43.5854 201.825 43.5854 196.275C43.5858 192.397 44.6645 188.596 46.7013 185.296C48.7381 181.995 51.6529 179.325 55.1202 177.583L55.7543 177.265L55.241 176.775C51.8733 173.56 50.0006 169.919 50.0006 166.085C50.0006 161.558 52.5907 157.298 57.1814 153.727L57.565 153.428L57.2776 153.036C55.4946 150.605 54.5127 147.679 54.4679 144.665C54.4696 138.655 58.5901 133.125 65.4407 129.07C72.2817 125.021 81.7641 122.5 92.2624 122.5C102.761 122.5 112.242 125.021 119.081 129.07C125.93 133.125 130.049 138.655 130.051 144.666C130.012 147.736 129.006 150.716 127.175 153.181Z" fill="#A7A7A7" stroke="white"/>
<path d="M37.5461 192.072C37.5461 192.072 32.4091 166.401 53.6455 162.453" stroke="#020202" stroke-width="2" stroke-linecap="round" stroke-linejoin="round"/>
<path d="M64.6098 214.333L61.4329 227.521L55.4663 228.872" stroke="#020202" stroke-width="2" stroke-linecap="round" stroke-linejoin="round"/>
<path d="M121.526 214.333L123.477 227.761L129.294 229.664" stroke="#020202" stroke-width="2" stroke-linecap="round" stroke-linejoin="round"/>
<path d="M88.0048 151.171C89.6643 151.171 91.0096 149.566 91.0096 147.586C91.0096 145.605 89.6643 144 88.0048 144C86.3453 144 85 145.605 85 147.586C85 149.566 86.3453 151.171 88.0048 151.171Z" fill="white"/>
<path d="M88.2447 151.17C89.4766 151.17 90.4753 150.079 90.4753 148.733C90.4753 147.386 89.4766 146.295 88.2447 146.295C87.0128 146.295 86.0142 147.386 86.0142 148.733C86.0142 150.079 87.0128 151.17 88.2447 151.17Z" fill="#221F20"/>
<path d="M98.9423 151.172C100.602 151.172 101.947 149.567 101.947 147.586C101.947 145.606 100.602 144 98.9423 144C97.2828 144 95.9375 145.606 95.9375 147.586C95.9375 149.567 97.2828 151.172 98.9423 151.172Z" fill="white"/>
<path d="M99.1822 151.171C100.414 151.171 101.413 150.08 101.413 148.734C101.413 147.387 100.414 146.296 99.1822 146.296C97.9503 146.296 96.9517 147.387 96.9517 148.734C96.9517 150.08 97.9503 151.171 99.1822 151.171Z" fill="#221F20"/>
<path d="M114.394 249.341C114.394 249.341 120.064 221.04 96.6455 216.688" stroke="#020202" stroke-width="2" stroke-linecap="round" stroke-linejoin="round"/>
<path d="M100.454 209.406L100.166 209.795L100.545 210.096C105.479 214.013 108.288 218.661 108.288 223.601C108.288 227.385 106.631 230.999 103.638 234.248L104.006 234.587L103.84 235.059C108.365 236.647 112.284 239.6 115.056 243.509C117.828 247.419 119.317 252.092 119.317 256.884C119.317 263.016 116.879 268.898 112.539 273.234C108.199 277.571 102.312 280.007 96.1745 280.007H31.3513C25.2134 280.007 19.3271 277.571 14.9871 273.234C10.6471 268.898 8.20898 263.016 8.20898 256.884C8.20937 252.6 9.40127 248.4 11.6517 244.753C13.9021 241.106 17.1226 238.156 20.9536 236.232L21.5877 235.913L21.0744 235.423C17.3549 231.873 15.2814 227.846 15.2814 223.601C15.2814 218.589 18.1491 213.88 23.2175 209.936L23.6011 209.638L23.3137 209.246C21.3417 206.557 20.2558 203.321 20.2063 199.987C20.2079 193.336 24.7676 187.225 32.3283 182.75C39.8792 178.281 50.3424 175.5 61.9237 175.5C73.505 175.5 83.9664 178.281 91.5157 182.75C99.0748 187.225 103.633 193.336 103.634 199.988C103.592 203.383 102.479 206.679 100.454 209.406Z" fill="#A7A7A7" stroke="white"/>
<path d="M1.60207 252.25C1.60207 252.25 -4.06125 223.949 19.3507 219.597" stroke="#020202" stroke-width="2" stroke-linecap="round" stroke-linejoin="round"/>
<path d="M31.4381 276.792L27.9358 291.331L21.3579 292.82" stroke="#020202" stroke-width="2" stroke-linecap="round" stroke-linejoin="round"/>
<path d="M94.1855 276.792L96.3356 291.596L102.749 293.693" stroke="#020202" stroke-width="2" stroke-linecap="round" stroke-linejoin="round"/>
<path d="M63.8444 206.057C65.6739 206.057 67.157 204.288 67.157 202.104C67.157 199.921 65.6739 198.151 63.8444 198.151C62.0149 198.151 60.5317 199.921 60.5317 202.104C60.5317 204.288 62.0149 206.057 63.8444 206.057Z" fill="white"/>
<path d="M64.109 206.056C65.4671 206.056 66.568 204.853 66.568 203.369C66.568 201.885 65.4671 200.682 64.109 200.682C62.7509 200.682 61.6499 201.885 61.6499 203.369C61.6499 204.853 62.7509 206.056 64.109 206.056Z" fill="#221F20"/>
<path d="M75.9025 206.058C77.732 206.058 79.2151 204.288 79.2151 202.105C79.2151 199.922 77.732 198.152 75.9025 198.152C74.073 198.152 72.5898 199.922 72.5898 202.105C72.5898 204.288 74.073 206.058 75.9025 206.058Z" fill="white"/>
<path d="M76.1671 206.057C77.5252 206.057 78.6261 204.854 78.6261 203.37C78.6261 201.886 77.5252 200.683 76.1671 200.683C74.809 200.683 73.708 201.886 73.708 203.37C73.708 204.854 74.809 206.057 76.1671 206.057Z" fill="#221F20"/>
<path d="M345.857 168.433C345.857 168.433 351 142.762 329.758 138.814" stroke="#020202" stroke-width="2" stroke-linecap="round" stroke-linejoin="round"/>
<path d="M333.175 132.181L332.887 132.57L333.266 132.871C337.735 136.418 340.272 140.623 340.272 145.085C340.272 148.503 338.775 151.77 336.066 154.711L336.434 155.05L336.268 155.522C340.363 156.959 343.91 159.632 346.42 163.17C348.929 166.708 350.276 170.938 350.276 175.275C350.276 180.825 348.069 186.148 344.141 190.073C340.213 193.998 334.886 196.203 329.331 196.203H270.531C264.976 196.203 259.648 193.998 255.72 190.073C251.792 186.148 249.585 180.825 249.585 175.275C249.586 171.397 250.665 167.596 252.701 164.296C254.738 160.995 257.653 158.325 261.12 156.583L261.754 156.265L261.241 155.775C257.873 152.56 256.001 148.919 256.001 145.085C256.001 140.558 258.591 136.298 263.181 132.727L263.565 132.428L263.278 132.036C261.495 129.605 260.513 126.679 260.468 123.665C260.47 117.655 264.59 112.125 271.441 108.07C278.282 104.021 287.764 101.5 298.262 101.5C308.761 101.5 318.242 104.021 325.081 108.07C331.93 112.125 336.049 117.655 336.051 123.666C336.012 126.736 335.006 129.716 333.175 132.181Z" fill="#A7A7A7" stroke="white"/>
<path d="M243.546 171.072C243.546 171.072 238.409 145.401 259.646 141.453" stroke="#020202" stroke-width="2" stroke-linecap="round" stroke-linejoin="round"/>
<path d="M270.61 193.333L267.433 206.521L261.466 207.872" stroke="#020202" stroke-width="2" stroke-linecap="round" stroke-linejoin="round"/>
<path d="M327.526 193.333L329.477 206.761L335.294 208.664" stroke="#020202" stroke-width="2" stroke-linecap="round" stroke-linejoin="round"/>
<path d="M288.005 125.171C289.664 125.171 291.01 123.566 291.01 121.586C291.01 119.605 289.664 118 288.005 118C286.345 118 285 119.605 285 121.586C285 123.566 286.345 125.171 288.005 125.171Z" fill="white"/>
<path d="M288.245 125.17C289.477 125.17 290.475 124.079 290.475 122.733C290.475 121.386 289.477 120.295 288.245 120.295C287.013 120.295 286.014 121.386 286.014 122.733C286.014 124.079 287.013 125.17 288.245 125.17Z" fill="#221F20"/>
<path d="M298.942 125.172C300.602 125.172 301.947 123.567 301.947 121.586C301.947 119.606 300.602 118 298.942 118C297.283 118 295.938 119.606 295.938 121.586C295.938 123.567 297.283 125.172 298.942 125.172Z" fill="white"/>
<path d="M299.182 125.171C300.414 125.171 301.413 124.08 301.413 122.734C301.413 121.387 300.414 120.296 299.182 120.296C297.95 120.296 296.952 121.387 296.952 122.734C296.952 124.08 297.95 125.171 299.182 125.171Z" fill="#221F20"/>
<path d="M397.857 206.433C397.857 206.433 403 180.762 381.758 176.814" stroke="#020202" stroke-width="2" stroke-linecap="round" stroke-linejoin="round"/>
<path d="M385.175 170.181L384.887 170.57L385.266 170.871C389.735 174.418 392.272 178.623 392.272 183.085C392.272 186.503 390.775 189.77 388.066 192.711L388.434 193.05L388.268 193.522C392.363 194.959 395.91 197.632 398.42 201.17C400.929 204.708 402.276 208.938 402.276 213.275C402.276 218.825 400.069 224.148 396.141 228.073C392.213 231.998 386.886 234.203 381.331 234.203H322.531C316.976 234.203 311.648 231.998 307.72 228.073C303.792 224.148 301.585 218.825 301.585 213.275C301.586 209.397 302.665 205.596 304.701 202.296C306.738 198.995 309.653 196.325 313.12 194.583L313.754 194.265L313.241 193.775C309.873 190.56 308.001 186.919 308.001 183.085C308.001 178.558 310.591 174.298 315.181 170.727L315.565 170.428L315.278 170.036C313.495 167.605 312.513 164.679 312.468 161.665C312.47 155.655 316.59 150.125 323.441 146.07C330.282 142.021 339.764 139.5 350.262 139.5C360.761 139.5 370.242 142.021 377.081 146.07C383.93 150.125 388.049 155.655 388.051 161.666C388.012 164.736 387.006 167.716 385.175 170.181Z" fill="#A7A7A7" stroke="white"/>
<path d="M295.546 209.072C295.546 209.072 290.409 183.401 311.646 179.453" stroke="#020202" stroke-width="2" stroke-linecap="round" stroke-linejoin="round"/>
<path d="M322.61 231.333L319.433 244.521L313.466 245.872" stroke="#020202" stroke-width="2" stroke-linecap="round" stroke-linejoin="round"/>
<path d="M379.526 231.333L381.477 244.761L387.294 246.664" stroke="#020202" stroke-width="2" stroke-linecap="round" stroke-linejoin="round"/>
<path d="M340.005 163.171C341.664 163.171 343.01 161.566 343.01 159.586C343.01 157.605 341.664 156 340.005 156C338.345 156 337 157.605 337 159.586C337 161.566 338.345 163.171 340.005 163.171Z" fill="white"/>
<path d="M340.245 163.17C341.477 163.17 342.475 162.079 342.475 160.733C342.475 159.386 341.477 158.295 340.245 158.295C339.013 158.295 338.014 159.386 338.014 160.733C338.014 162.079 339.013 163.17 340.245 163.17Z" fill="#221F20"/>
<path d="M350.942 163.172C352.602 163.172 353.947 161.567 353.947 159.586C353.947 157.606 352.602 156 350.942 156C349.283 156 347.938 157.606 347.938 159.586C347.938 161.567 349.283 163.172 350.942 163.172Z" fill="white"/>
<path d="M351.182 163.171C352.414 163.171 353.413 162.08 353.413 160.734C353.413 159.387 352.414 158.296 351.182 158.296C349.95 158.296 348.952 159.387 348.952 160.734C348.952 162.08 349.95 163.171 351.182 163.171Z" fill="#221F20"/>
<path d="M237.735 226.859C237.735 226.859 243.119 199.985 220.881 195.852" stroke="#020202" stroke-width="2" stroke-linecap="round" stroke-linejoin="round"/>
<path d="M224.477 188.923L224.189 189.312L224.568 189.613C229.25 193.329 231.911 197.737 231.911 202.417C231.911 206.002 230.341 209.428 227.502 212.51L227.87 212.849L227.704 213.321C231.996 214.827 235.713 217.628 238.343 221.336C240.972 225.044 242.384 229.477 242.384 234.022C242.384 239.839 240.072 245.417 235.955 249.53C231.839 253.644 226.255 255.954 220.434 255.954H158.879C153.057 255.954 147.474 253.644 143.357 249.53C139.241 245.417 136.928 239.839 136.928 234.022C136.929 229.958 138.059 225.975 140.194 222.516C142.328 219.057 145.383 216.259 149.016 214.434L149.651 214.115L149.137 213.625C145.609 210.257 143.644 206.439 143.644 202.417C143.644 197.668 146.361 193.203 151.17 189.461L151.554 189.163L151.267 188.771C149.397 186.221 148.368 183.154 148.321 179.994C148.322 173.69 152.644 167.895 159.819 163.647C166.985 159.406 176.916 156.766 187.91 156.766C198.903 156.766 208.833 159.406 215.997 163.647C223.171 167.895 227.491 173.69 227.492 179.994C227.452 183.213 226.397 186.337 224.477 188.923Z" fill="#D2D2D2" stroke="white"/>
<path d="M130.629 229.622C130.629 229.622 125.252 202.748 147.483 198.615" stroke="#020202" stroke-width="2" stroke-linecap="round" stroke-linejoin="round"/>
<path d="M158.961 252.926L155.635 266.732L149.389 268.147" stroke="#020202" stroke-width="2" stroke-linecap="round" stroke-linejoin="round"/>
<path d="M218.545 252.926L220.587 266.984L226.677 268.976" stroke="#020202" stroke-width="2" stroke-linecap="round" stroke-linejoin="round"/>
<path d="M181.628 183.875C183.365 183.875 184.773 182.194 184.773 180.121C184.773 178.048 183.365 176.367 181.628 176.367C179.89 176.367 178.482 178.048 178.482 180.121C178.482 182.194 179.89 183.875 181.628 183.875Z" fill="white"/>
<path d="M181.879 183.873C183.168 183.873 184.214 182.731 184.214 181.321C184.214 179.912 183.168 178.77 181.879 178.77C180.589 178.77 179.543 179.912 179.543 181.321C179.543 182.731 180.589 183.873 181.879 183.873Z" fill="#221F20"/>
<path d="M193.078 183.875C194.815 183.875 196.223 182.194 196.223 180.121C196.223 178.048 194.815 176.368 193.078 176.368C191.34 176.368 189.932 178.048 189.932 180.121C189.932 182.194 191.34 183.875 193.078 183.875Z" fill="white"/>
<path d="M193.329 183.874C194.618 183.874 195.664 182.732 195.664 181.322C195.664 179.913 194.618 178.771 193.329 178.771C192.039 178.771 190.994 179.913 190.994 181.322C190.994 182.732 192.039 183.874 193.329 183.874Z" fill="#221F20"/>
<path d="M196.3 187.037C196.195 189.869 192.381 192.037 187.752 191.866C183.124 191.694 179.481 189.257 179.586 186.417" stroke="#020202" stroke-linecap="round" stroke-linejoin="round"/>
<path d="M365.678 241.593C365.678 241.593 371.062 214.719 348.824 210.586" stroke="#020202" stroke-width="2" stroke-linecap="round" stroke-linejoin="round"/>
<path d="M352.42 203.657L352.131 204.045L352.51 204.346C357.193 208.063 359.854 212.47 359.854 217.151C359.854 220.736 358.283 224.162 355.445 227.244L355.812 227.583L355.647 228.055C359.938 229.561 363.655 232.362 366.285 236.07C368.915 239.778 370.327 244.211 370.326 248.755C370.326 254.572 368.014 260.151 363.897 264.264C359.781 268.377 354.198 270.688 348.376 270.688H286.821C280.999 270.688 275.416 268.377 271.3 264.264C267.183 260.151 264.871 254.572 264.871 248.755C264.871 244.692 266.001 240.708 268.136 237.249C270.271 233.791 273.325 230.992 276.959 229.167L277.593 228.849L277.08 228.359C273.551 224.991 271.586 221.173 271.586 217.151C271.586 212.402 274.304 207.937 279.113 204.195L279.496 203.897L279.209 203.505C277.339 200.955 276.31 197.888 276.263 194.727C276.265 188.424 280.586 182.628 287.762 178.381C294.927 174.14 304.858 171.5 315.852 171.5C326.846 171.5 336.775 174.14 343.939 178.381C351.113 182.628 355.433 188.424 355.435 194.728C355.394 197.947 354.339 201.071 352.42 203.657Z" fill="#D2D2D2" stroke="white"/>
<path d="M258.572 244.356C258.572 244.356 253.194 217.482 275.426 213.349" stroke="#020202" stroke-width="2" stroke-linecap="round" stroke-linejoin="round"/>
<path d="M286.903 267.659L283.578 281.466L277.332 282.88" stroke="#020202" stroke-width="2" stroke-linecap="round" stroke-linejoin="round"/>
<path d="M346.487 267.659L348.529 281.717L354.619 283.709" stroke="#020202" stroke-width="2" stroke-linecap="round" stroke-linejoin="round"/>
<path d="M309.57 198.608C311.307 198.608 312.716 196.928 312.716 194.854C312.716 192.781 311.307 191.101 309.57 191.101C307.833 191.101 306.424 192.781 306.424 194.854C306.424 196.928 307.833 198.608 309.57 198.608Z" fill="white"/>
<path d="M309.821 198.607C311.111 198.607 312.156 197.464 312.156 196.055C312.156 194.646 311.111 193.503 309.821 193.503C308.531 193.503 307.486 194.646 307.486 196.055C307.486 197.464 308.531 198.607 309.821 198.607Z" fill="#221F20"/>
<path d="M321.02 198.609C322.757 198.609 324.166 196.928 324.166 194.855C324.166 192.782 322.757 191.101 321.02 191.101C319.283 191.101 317.875 192.782 317.875 194.855C317.875 196.928 319.283 198.609 321.02 198.609Z" fill="white"/>
<path d="M321.271 198.608C322.561 198.608 323.606 197.465 323.606 196.056C323.606 194.647 322.561 193.504 321.271 193.504C319.981 193.504 318.936 194.647 318.936 196.056C318.936 197.465 319.981 198.608 321.271 198.608Z" fill="#221F20"/>
<path d="M324.242 201.77C324.137 204.603 320.323 206.771 315.695 206.599C311.066 206.428 307.423 203.99 307.528 201.151" stroke="#020202" stroke-linecap="round" stroke-linejoin="round"/>
<path d="M295.92 216.819C295.92 216.819 301.016 191.381 279.967 187.469" stroke="#020202" stroke-width="2" stroke-linecap="round" stroke-linejoin="round"/>
<path d="M283.35 180.895L283.061 181.283L283.44 181.584C287.868 185.099 290.381 189.264 290.381 193.683C290.381 197.069 288.898 200.305 286.215 203.219L286.582 203.557L286.417 204.029C290.474 205.453 293.988 208.101 296.473 211.606C298.959 215.112 300.294 219.302 300.294 223.598C300.294 229.097 298.108 234.37 294.216 238.259C290.325 242.147 285.047 244.331 279.544 244.331H221.28C215.776 244.331 210.499 242.147 206.607 238.259C202.716 234.37 200.53 229.097 200.53 223.598C200.53 219.757 201.599 215.991 203.617 212.721C205.634 209.452 208.522 206.806 211.957 205.081L212.591 204.763L212.078 204.273C208.741 201.088 206.887 197.481 206.887 193.683C206.887 189.199 209.452 184.98 214 181.441L214.384 181.143L214.096 180.751C212.33 178.342 211.358 175.444 211.313 172.458C211.315 166.505 215.396 161.027 222.184 157.009C228.962 152.998 238.357 150.5 248.759 150.5C259.161 150.5 268.554 152.998 275.331 157.009C282.117 161.027 286.197 166.506 286.198 172.459C286.16 175.5 285.163 178.452 283.35 180.895Z" fill="#6B6B6B" stroke="white"/>
<path d="M194.541 219.433C194.541 219.433 189.451 193.996 210.494 190.084" stroke="#020202" stroke-width="2" stroke-linecap="round" stroke-linejoin="round"/>
<path d="M221.358 241.491L218.21 254.56L212.298 255.898" stroke="#020202" stroke-width="2" stroke-linecap="round" stroke-linejoin="round"/>
<path d="M277.756 241.491L279.689 254.798L285.453 256.683" stroke="#020202" stroke-width="2" stroke-linecap="round" stroke-linejoin="round"/>
<path d="M234.571 178.588C236.215 178.588 237.548 176.997 237.548 175.035C237.548 173.072 236.215 171.482 234.571 171.482C232.926 171.482 231.593 173.072 231.593 175.035C231.593 176.997 232.926 178.588 234.571 178.588Z" fill="white"/>
<path d="M234.808 178.587C236.029 178.587 237.018 177.505 237.018 176.171C237.018 174.837 236.029 173.756 234.808 173.756C233.587 173.756 232.598 174.837 232.598 176.171C232.598 177.505 233.587 178.587 234.808 178.587Z" fill="#221F20"/>
<path d="M245.409 178.588C247.053 178.588 248.386 176.998 248.386 175.035C248.386 173.073 247.053 171.482 245.409 171.482C243.764 171.482 242.431 173.073 242.431 175.035C242.431 176.998 243.764 178.588 245.409 178.588Z" fill="white"/>
<path d="M245.646 178.587C246.866 178.587 247.856 177.506 247.856 176.172C247.856 174.838 246.866 173.756 245.646 173.756C244.425 173.756 243.436 174.838 243.436 176.172C243.436 177.506 244.425 178.587 245.646 178.587Z" fill="#221F20"/>
<path d="M248.385 182.457C248.385 185.14 244.854 187.324 240.47 187.324C236.086 187.324 232.554 185.146 232.554 182.457" stroke="#020202" stroke-linecap="round" stroke-linejoin="round"/>
<path d="M178.92 215.819C178.92 215.819 184.016 190.381 162.967 186.469" stroke="#020202" stroke-width="2" stroke-linecap="round" stroke-linejoin="round"/>
<path d="M166.35 179.895L166.061 180.283L166.44 180.584C170.868 184.099 173.381 188.264 173.381 192.683C173.381 196.069 171.898 199.305 169.215 202.219L169.582 202.557L169.417 203.029C173.474 204.453 176.988 207.101 179.473 210.606C181.959 214.112 183.294 218.302 183.294 222.598C183.294 228.097 181.108 233.37 177.216 237.259C173.325 241.147 168.047 243.331 162.544 243.331H104.28C98.7764 243.331 93.4985 241.147 89.6072 237.259C85.7158 233.37 83.5298 228.097 83.5298 222.598C83.5301 218.757 84.5988 214.991 86.6166 211.721C88.6344 208.452 91.5219 205.806 94.9569 204.081L95.5911 203.763L95.0777 203.273C91.7414 200.088 89.8865 196.481 89.8865 192.683C89.8865 188.199 92.4519 183.98 97.0001 180.441L97.3837 180.143L97.0963 179.751C95.3301 177.342 94.3575 174.444 94.3131 171.458C94.3148 165.505 98.3962 160.027 105.184 156.009C111.962 151.998 121.357 149.5 131.759 149.5C142.161 149.5 151.554 151.998 158.331 156.009C165.117 160.027 169.197 165.506 169.198 171.459C169.16 174.5 168.163 177.452 166.35 179.895Z" fill="#6B6B6B" stroke="white"/>
<path d="M77.5411 218.433C77.5411 218.433 72.4509 192.996 93.4939 189.084" stroke="#020202" stroke-width="2" stroke-linecap="round" stroke-linejoin="round"/>
<path d="M104.358 240.491L101.21 253.56L95.2979 254.898" stroke="#020202" stroke-width="2" stroke-linecap="round" stroke-linejoin="round"/>
<path d="M160.756 240.491L162.689 253.798L168.453 255.683" stroke="#020202" stroke-width="2" stroke-linecap="round" stroke-linejoin="round"/>
<path d="M132.977 179.106C134.622 179.106 135.955 177.515 135.955 175.553C135.955 173.591 134.622 172 132.977 172C131.333 172 130 173.591 130 175.553C130 177.515 131.333 179.106 132.977 179.106Z" fill="white"/>
<path d="M133.215 179.105C134.435 179.105 135.425 178.023 135.425 176.69C135.425 175.356 134.435 174.274 133.215 174.274C131.994 174.274 131.004 175.356 131.004 176.69C131.004 178.023 131.994 179.105 133.215 179.105Z" fill="#221F20"/>
<path d="M143.815 179.107C145.46 179.107 146.793 177.516 146.793 175.554C146.793 173.591 145.46 172 143.815 172C142.171 172 140.838 173.591 140.838 175.554C140.838 177.516 142.171 179.107 143.815 179.107Z" fill="white"/>
<path d="M144.053 179.106C145.273 179.106 146.263 178.024 146.263 176.69C146.263 175.356 145.273 174.275 144.053 174.275C142.832 174.275 141.842 175.356 141.842 176.69C141.842 178.024 142.832 179.106 144.053 179.106Z" fill="#221F20"/>
<path d="M131.385 181.457C131.385 184.14 127.854 186.324 123.47 186.324C119.086 186.324 115.554 184.146 115.554 181.457" stroke="#020202" stroke-linecap="round" stroke-linejoin="round"/>
<path d="M177.663 256.106C177.663 256.106 183.697 225.991 158.777 221.36" stroke="#020202" stroke-width="2" stroke-linecap="round" stroke-linejoin="round"/>
<path d="M166.24 240.068L165.726 240.627L166.443 240.878C171.263 242.57 175.439 245.717 178.393 249.882C181.347 254.048 182.933 259.027 182.933 264.133C182.933 270.667 180.335 276.934 175.711 281.554C171.087 286.175 164.815 288.771 158.275 288.771H89.2965C82.7567 288.771 76.4848 286.175 71.8606 281.554C67.2364 276.934 64.6387 270.667 64.6387 264.133C64.6391 259.568 65.909 255.093 68.3069 251.207C70.7047 247.322 74.136 244.178 78.2179 242.128L78.8521 241.81L78.3387 241.32C74.3764 237.538 72.1644 233.245 72.1644 228.716C72.1644 223.37 75.2236 218.351 80.6217 214.151L81.0052 213.852L80.7179 213.46C78.6155 210.593 77.4577 207.143 77.405 203.589C77.4067 196.495 82.2694 189.984 90.3198 185.219C98.3605 180.46 109.5 177.5 121.829 177.5C134.157 177.5 145.295 180.46 153.334 185.219C161.383 189.984 166.244 196.496 166.245 203.59C166.2 207.21 165.014 210.723 162.855 213.631L162.566 214.02L162.945 214.321C168.201 218.492 171.197 223.447 171.197 228.716C171.197 232.753 169.429 236.606 166.24 240.068Z" fill="#6B6B6B" stroke="white"/>
<path d="M57.6407 259.202C57.6407 259.202 51.6143 229.087 76.5271 224.456" stroke="#020202" stroke-width="2" stroke-linecap="round" stroke-linejoin="round"/>
<path d="M89.3894 285.316L85.6626 300.788L78.6631 302.373" stroke="#020202" stroke-width="2" stroke-linecap="round" stroke-linejoin="round"/>
<path d="M156.159 285.316L158.447 301.07L165.271 303.302" stroke="#020202" stroke-width="2" stroke-linecap="round" stroke-linejoin="round"/>
<path d="M126.819 211.584C128.766 211.584 130.344 209.7 130.344 207.377C130.344 205.054 128.766 203.171 126.819 203.171C124.872 203.171 123.294 205.054 123.294 207.377C123.294 209.7 124.872 211.584 126.819 211.584Z" fill="white"/>
<path d="M127.1 211.582C128.545 211.582 129.717 210.302 129.717 208.723C129.717 207.143 128.545 205.863 127.1 205.863C125.655 205.863 124.483 207.143 124.483 208.723C124.483 210.302 125.655 211.582 127.1 211.582Z" fill="#221F20"/>
<path d="M139.65 211.584C141.597 211.584 143.175 209.701 143.175 207.378C143.175 205.054 141.597 203.171 139.65 203.171C137.703 203.171 136.125 205.054 136.125 207.378C136.125 209.701 137.703 211.584 139.65 211.584Z" fill="white"/>
<path d="M139.931 211.583C141.376 211.583 142.548 210.303 142.548 208.724C142.548 207.144 141.376 205.864 139.931 205.864C138.486 205.864 137.314 207.144 137.314 208.724C137.314 210.303 138.486 211.583 139.931 211.583Z" fill="#221F20"/>
<path d="M141.052 217.191C141.052 220.288 137.495 222.799 133.108 222.799C128.72 222.799 125.163 220.288 125.163 217.191" stroke="black"/>
<path d="M125.163 217.191H141.052" stroke="black" stroke-linecap="round"/>
<path d="M101.889 153C101.889 156.097 98.3324 158.608 93.9447 158.608C89.557 158.608 86 156.097 86 153" stroke="black"/>
<path d="M86 153H101.889" stroke="black" stroke-linecap="round"/>
<path d="M228.889 128C228.889 131.097 225.332 133.608 220.945 133.608C216.557 133.608 213 131.097 213 128" stroke="black"/>
<path d="M213 128H228.889" stroke="black" stroke-linecap="round"/>
<path d="M353.889 166C353.889 169.097 350.332 171.608 345.945 171.608C341.557 171.608 338 169.097 338 166" stroke="black"/>
<path d="M338 166H353.889" stroke="black" stroke-linecap="round"/>
<path d="M328.852 264.263C328.852 264.263 334.745 234.85 310.405 230.326" stroke="#020202" stroke-width="2" stroke-linecap="round" stroke-linejoin="round"/>
<path d="M314.379 222.77L314.091 223.159L314.47 223.46C319.601 227.533 322.525 232.37 322.525 237.511C322.525 241.45 320.8 245.211 317.687 248.59L318.055 248.929L317.889 249.401C322.595 251.053 326.672 254.124 329.555 258.191C332.439 262.257 333.988 267.119 333.987 272.102C333.987 278.481 331.451 284.599 326.937 289.11C322.423 293.62 316.3 296.155 309.916 296.155H242.544C236.16 296.155 230.037 293.62 225.523 289.11C221.009 284.599 218.473 278.481 218.473 272.103C218.473 267.646 219.713 263.278 222.054 259.485C224.394 255.691 227.744 252.623 231.729 250.621L232.363 250.303L231.85 249.813C227.981 246.12 225.823 241.93 225.823 237.511C225.823 232.294 228.808 227.395 234.079 223.294L234.462 222.996L234.175 222.604C232.123 219.805 230.993 216.438 230.942 212.97C230.943 206.047 235.689 199.691 243.55 195.038C251.401 190.391 262.279 187.5 274.318 187.5C286.358 187.5 297.234 190.391 305.084 195.038C312.943 199.691 317.687 206.047 317.688 212.97C317.644 216.503 316.486 219.933 314.379 222.77Z" fill="#6B6B6B" stroke="white"/>
<path d="M211.626 267.287C211.626 267.287 205.74 237.873 230.072 233.35" stroke="#020202" stroke-width="2" stroke-linecap="round" stroke-linejoin="round"/>
<path d="M242.635 292.793L238.995 307.904L232.158 309.452" stroke="#020202" stroke-width="2" stroke-linecap="round" stroke-linejoin="round"/>
<path d="M307.848 292.793L310.083 308.179L316.748 310.359" stroke="#020202" stroke-width="2" stroke-linecap="round" stroke-linejoin="round"/>
<path d="M257.912 220.056C259.814 220.056 261.355 218.217 261.355 215.948C261.355 213.679 259.814 211.84 257.912 211.84C256.011 211.84 254.469 213.679 254.469 215.948C254.469 218.217 256.011 220.056 257.912 220.056Z" fill="white"/>
<path d="M258.187 220.055C259.599 220.055 260.743 218.805 260.743 217.262C260.743 215.72 259.599 214.469 258.187 214.469C256.776 214.469 255.631 215.72 255.631 217.262C255.631 218.805 256.776 220.055 258.187 220.055Z" fill="#221F20"/>
<path d="M270.444 220.057C272.346 220.057 273.887 218.218 273.887 215.949C273.887 213.679 272.346 211.84 270.444 211.84C268.543 211.84 267.001 213.679 267.001 215.949C267.001 218.218 268.543 220.057 270.444 220.057Z" fill="white"/>
<path d="M270.719 220.056C272.13 220.056 273.275 218.805 273.275 217.263C273.275 215.721 272.13 214.47 270.719 214.47C269.307 214.47 268.163 215.721 268.163 217.263C268.163 218.805 269.307 220.056 270.719 220.056Z" fill="#221F20"/>
<path d="M273.886 224.531C273.886 227.633 269.803 230.159 264.733 230.159C259.664 230.159 255.581 227.64 255.581 224.531" stroke="#020202" stroke-linecap="round" stroke-linejoin="round"/>
<path d="M264.355 277.805C264.355 277.805 270.824 245.521 244.108 240.556" stroke="#020202" stroke-width="2" stroke-linecap="round" stroke-linejoin="round"/>
<path d="M248.51 232.291L248.221 232.68L248.6 232.981C254.24 237.457 257.461 242.778 257.461 248.442C257.461 252.781 255.56 256.92 252.137 260.636L252.505 260.974L252.339 261.446C257.514 263.263 261.997 266.64 265.168 271.112C268.339 275.584 270.042 280.929 270.042 286.41C270.042 293.424 267.253 300.152 262.289 305.112C257.325 310.072 250.592 312.859 243.571 312.859H169.624C162.603 312.859 155.87 310.072 150.906 305.112C145.942 300.152 143.153 293.424 143.153 286.41C143.154 281.509 144.517 276.706 147.091 272.534C149.665 268.363 153.349 264.989 157.731 262.788L158.365 262.469L157.851 261.979C153.599 257.92 151.221 253.309 151.221 248.442C151.221 242.695 154.509 237.305 160.302 232.799L160.685 232.5L160.398 232.108C158.139 229.028 156.896 225.323 156.839 221.505C156.841 213.882 162.066 206.892 170.702 201.78C179.329 196.674 191.277 193.5 204.499 193.5C217.721 193.5 229.668 196.674 238.293 201.78C246.927 206.892 252.15 213.882 252.152 221.506C252.103 225.394 250.829 229.168 248.51 232.291Z" fill="#FACF63" stroke="white"/>
<path d="M133.687 205C133.687 205 127.226 237.285 153.934 242.25" stroke="#020202" stroke-width="2" stroke-linecap="round" stroke-linejoin="round"/>
<path d="M169.723 309.12L165.727 325.706L158.224 327.405" stroke="#020202" stroke-width="2" stroke-linecap="round" stroke-linejoin="round"/>
<path d="M241.302 309.12L243.755 326.008L251.071 328.401" stroke="#020202" stroke-width="2" stroke-linecap="round" stroke-linejoin="round"/>
<path d="M197.521 218.883C199.608 218.883 201.3 216.865 201.3 214.374C201.3 211.883 199.608 209.865 197.521 209.865C195.434 209.865 193.742 211.883 193.742 214.374C193.742 216.865 195.434 218.883 197.521 218.883Z" fill="white"/>
<path d="M197.805 216.131C199.354 216.131 200.61 214.759 200.61 213.066C200.61 211.372 199.354 210 197.805 210C196.256 210 195 211.372 195 213.066C195 214.759 196.256 216.131 197.805 216.131Z" fill="#221F20"/>
<path d="M211.276 218.884C213.363 218.884 215.055 216.865 215.055 214.374C215.055 211.884 213.363 209.865 211.276 209.865C209.189 209.865 207.497 211.884 207.497 214.374C207.497 216.865 209.189 218.884 211.276 218.884Z" fill="white"/>
<path d="M211.416 216.132C212.965 216.132 214.221 214.76 214.221 213.067C214.221 211.373 212.965 210.001 211.416 210.001C209.866 210.001 208.61 211.373 208.61 213.067C208.61 214.76 209.866 216.132 211.416 216.132Z" fill="#221F20"/>
<path d="M211.889 222C211.889 225.097 208.332 227.608 203.945 227.608C199.557 227.608 196 225.097 196 222" stroke="black"/>
<path d="M196 222H211.889" stroke="black" stroke-linecap="round"/>
<path fill-rule="evenodd" clip-rule="evenodd" d="M119.982 64.1457C123.486 60.8441 125.911 56.8622 126.917 52.3288C130.748 35.0758 112.591 16.3685 86.3633 10.5448C60.1352 4.72106 35.7675 13.9863 31.9367 31.2392C28.1058 48.4921 46.2624 67.1994 72.4906 73.0232C80.7918 74.8664 88.9068 75.1981 96.2432 74.2434L121.5 82.2697C123.912 83.0362 126.178 80.7717 125.315 78.4569L119.982 64.1457Z" fill="#E0DDDD"/>
<path fill-rule="evenodd" clip-rule="evenodd" d="M272.581 72.8842C269.648 69.0824 267.876 64.7746 267.577 60.1404C266.44 42.5039 287.072 26.8173 313.66 25.1033C340.248 23.3894 362.724 36.2972 363.861 53.9337C364.998 71.5702 344.365 87.2569 317.777 88.9708C309.362 89.5132 301.359 88.591 294.314 86.5177L268.354 90.5559C265.865 90.9431 263.987 88.3561 265.188 86.1937L272.581 72.8842Z" fill="#E0DDDD"/>
<path fill-rule="evenodd" clip-rule="evenodd" d="M222.115 76.5457C225.396 74.892 228.034 72.5061 229.756 69.4087C236.307 57.6209 227.091 39.9916 209.171 30.0325C191.251 20.0734 171.413 21.5559 164.862 33.3437C158.311 45.1315 167.527 62.7608 185.447 72.7199C191.182 75.9073 197.114 77.9227 202.743 78.8034C202.901 78.9735 203.082 79.1303 203.287 79.2696L218.066 89.3033C220.159 90.7249 222.977 89.1995 222.809 86.7348L222.115 76.5457Z" fill="#E0DDDD"/>
</svg>
