<svg width="162" height="164" viewBox="0 0 162 164" fill="none" xmlns="http://www.w3.org/2000/svg">
<path d="M133.413 49.5581L133.124 49.9468L133.503 50.2478C140.624 55.8991 144.71 62.6344 144.71 69.82C144.71 75.3241 142.299 80.5665 137.972 85.2637L138.34 85.6024L138.174 86.0742C144.717 88.3706 150.384 92.6406 154.393 98.294C158.402 103.947 160.555 110.705 160.554 117.634C160.554 126.502 157.028 135.007 150.753 141.278C144.477 147.549 135.965 151.072 127.09 151.072H33.9645C25.089 151.072 16.5772 147.549 10.3014 141.278C4.02561 135.007 0.5 126.502 0.5 117.634C0.500554 111.439 2.22411 105.366 5.47834 100.092C8.73257 94.819 13.3894 90.5529 18.9292 87.7704L19.5634 87.4519L19.05 86.9619C13.6772 81.8334 10.6602 75.995 10.6602 69.82C10.6602 62.5294 14.8322 55.7075 22.1455 50.0174L22.5291 49.719L22.2417 49.3271C19.3816 45.4263 17.8067 40.7332 17.7353 35.8982C17.7369 26.2338 24.3603 17.3955 35.2569 10.9458C46.1437 4.50185 61.2149 0.5 77.8848 0.5C94.5547 0.5 109.623 4.50185 120.508 10.9458C131.402 17.3957 138.023 26.2345 138.025 35.8995C137.963 40.8236 136.35 45.6031 133.413 49.5581Z" fill="#FACF63" stroke="white"/>
<path d="M62.2209 53.6552C62.2209 53.6552 52.5307 93.97 19.3808 85.5202" stroke="#020202" stroke-width="2" stroke-linecap="round" stroke-linejoin="round"/>
<path d="M47.2133 144.599L48.2232 159.289L39.7486 162.504" stroke="#020202" stroke-width="2" stroke-linecap="round" stroke-linejoin="round"/>
<path d="M102.929 144.599L103.939 159.289L95.4641 162.504" stroke="#020202" stroke-width="2" stroke-linecap="round" stroke-linejoin="round"/>
<path d="M47.2388 143.932L58.8462 149.736" stroke="black" stroke-width="2" stroke-linecap="round"/>
<path d="M102.954 143.932L114.562 149.736" stroke="black" stroke-width="2" stroke-linecap="round"/>
<path d="M64.7133 62.8102C64.7133 58.5218 70.3578 55.0308 77.3648 55.0308C84.3718 55.0308 90.0164 58.5121 90.0164 62.8102" stroke="#020202" stroke-linecap="round" stroke-linejoin="round"/>
<path d="M99.0914 52.5759C99.0914 52.5759 106.415 91.5321 138.937 84.7343" stroke="#020202" stroke-width="2" stroke-linecap="round" stroke-linejoin="round"/>
<path d="M72.775 42.9475C72.1946 45.269 69.9167 47.5905 66.3909 47.5905C62.8651 47.5905 60.5872 45.8493 60.0068 42.9475" stroke="black" stroke-linecap="round"/>
<path d="M94.8292 42.9475C94.2488 45.269 91.9709 47.5905 88.4451 47.5905C84.9193 47.5905 82.6414 45.8493 82.061 42.9475" stroke="black" stroke-linecap="round"/>
<path fill-rule="evenodd" clip-rule="evenodd" d="M58.924 50.8776C58.89 49.8431 58.6795 47.3139 58.6795 47.3139C58.6795 47.3139 55.5827 48.6789 55.3746 48.7792C55.3076 48.8115 55.2141 48.8682 55.1182 48.9302C55.0125 48.9925 54.91 49.0619 54.8113 49.1382C54.7456 49.1844 54.7026 49.2155 54.7026 49.2155L54.71 49.22C54.349 49.5248 54.0459 49.9248 53.8407 50.4018C53.1973 51.8967 53.7587 53.581 55.0946 54.1637C56.4304 54.7465 58.0349 54.007 58.6783 52.5121C58.9109 51.9717 58.986 51.4065 58.924 50.8776Z" fill="white"/>
</svg>
