<svg width="168" height="170" viewBox="0 0 168 170" fill="none" xmlns="http://www.w3.org/2000/svg">
<path d="M159.476 103.896C159.476 103.896 167.4 64.3441 134.671 58.2613" stroke="#020202" stroke-width="2" stroke-linecap="round" stroke-linejoin="round"/>
<path d="M140.153 48.2035L139.864 48.5922L140.244 48.8932C147.169 54.3894 151.141 60.9381 151.141 67.923C151.141 73.2733 148.797 78.3701 144.589 82.9378L144.957 83.2766L144.791 83.7484C151.153 85.9815 156.664 90.1336 160.563 95.6312C164.461 101.129 166.555 107.7 166.554 114.438C166.554 123.061 163.126 131.332 157.023 137.43C150.92 143.528 142.643 146.953 134.012 146.953H43.4177C34.7869 146.953 26.5098 143.528 20.4071 137.43C14.3044 131.332 10.876 123.061 10.876 114.438C10.8765 108.414 12.5525 102.508 15.717 97.3799C18.8815 92.252 23.41 88.1036 28.797 85.3978L29.4311 85.0793L28.9178 84.5893C23.6927 79.6019 20.7601 73.9255 20.7601 67.923C20.7601 60.8361 24.8155 54.203 31.9282 48.6691L32.3117 48.3707L32.0243 47.9788C29.2436 44.1863 27.7125 39.6235 27.643 34.9228C27.6446 25.5277 34.0835 16.9333 44.6818 10.6601C55.2704 4.39267 69.9296 0.5 86.1446 0.5C102.36 0.5 117.016 4.39267 127.603 10.6601C138.199 16.9335 144.636 25.5284 144.637 34.924C144.577 39.7114 143.008 44.3582 140.153 48.2035Z" fill="#FACF63" stroke="white"/>
<path d="M1.84143 107.962C1.84143 107.962 -6.07343 68.4099 26.6464 62.3271" stroke="#020202" stroke-width="2" stroke-linecap="round" stroke-linejoin="round"/>
<path d="M43.5391 142.261L38.6444 162.581L29.4514 164.662" stroke="#020202" stroke-width="2" stroke-linecap="round" stroke-linejoin="round"/>
<path d="M131.233 142.261L134.238 162.951L143.201 165.882" stroke="#020202" stroke-width="2" stroke-linecap="round" stroke-linejoin="round"/>
<path d="M77.5952 31.7099C80.1521 31.7099 82.2248 29.2365 82.2248 26.1853C82.2248 23.1341 80.1521 20.6606 77.5952 20.6606C75.0383 20.6606 72.9656 23.1341 72.9656 26.1853C72.9656 29.2365 75.0383 31.7099 77.5952 31.7099Z" fill="white"/>
<path d="M77.9645 31.7084C79.8626 31.7084 81.4013 30.0269 81.4013 27.9528C81.4013 25.8786 79.8626 24.1971 77.9645 24.1971C76.0665 24.1971 74.5278 25.8786 74.5278 27.9528C74.5278 30.0269 76.0665 31.7084 77.9645 31.7084Z" fill="#221F20"/>
<path d="M94.4472 31.711C97.0041 31.711 99.0769 29.2376 99.0769 26.1864C99.0769 23.1352 97.0041 20.6617 94.4472 20.6617C91.8904 20.6617 89.8176 23.1352 89.8176 26.1864C89.8176 29.2376 91.8904 31.711 94.4472 31.711Z" fill="white"/>
<path d="M94.8164 31.7095C96.7144 31.7095 98.2531 30.028 98.2531 27.9539C98.2531 25.8797 96.7144 24.1982 94.8164 24.1982C92.9183 24.1982 91.3796 25.8797 91.3796 27.9539C91.3796 30.028 92.9183 31.7095 94.8164 31.7095Z" fill="#221F20"/>
<path d="M76 40H97" stroke="black" stroke-linecap="round"/>
</svg>
