<svg width="158" height="161" viewBox="0 0 158 161" fill="none" xmlns="http://www.w3.org/2000/svg">
<path d="M135.135 83.508L134.62 84.0669L135.337 84.3186C141.743 86.5672 147.292 90.7482 151.218 96.284C155.143 101.82 157.252 108.437 157.251 115.221C157.251 123.905 153.799 132.233 147.654 138.373C141.508 144.513 133.174 147.963 124.483 147.963H33.2679C24.5772 147.963 16.2425 144.513 10.0974 138.373C3.95222 132.233 0.5 123.905 0.5 115.222C0.500542 109.155 2.18822 103.208 5.37471 98.0449C8.5612 92.8813 13.1211 88.7041 18.5456 85.9795L19.1797 85.661L18.6664 85.171C13.4051 80.149 10.4518 74.4328 10.4518 68.388C10.4518 61.2512 14.5358 54.5719 21.6976 48.9997L22.0812 48.7013L21.7938 48.3094C18.9936 44.4903 17.4518 39.8956 17.3818 35.1619C17.3835 25.7008 23.8676 17.0466 34.539 10.7302C45.2007 4.41944 59.9609 0.5 76.2874 0.5C92.614 0.5 107.372 4.41944 118.031 10.7301C128.7 17.0468 135.182 25.7015 135.184 35.1631C135.124 39.9841 133.544 44.6634 130.668 48.5355L130.38 48.9243L130.759 49.2253C137.732 54.7596 141.732 61.354 141.732 68.388C141.732 73.776 139.371 78.9086 135.135 83.508Z" fill="#FACF63" stroke="white"/>
<path d="M56.8312 53.2917C56.8312 53.2917 46.28 92.2893 18.191 86.04" stroke="#020202" stroke-width="2" stroke-linecap="round" stroke-linejoin="round"/>
<path d="M46.2449 141.633L47.234 156.022L38.9332 159.171" stroke="#020202" stroke-width="2" stroke-linecap="round" stroke-linejoin="round"/>
<path d="M100.818 141.633L101.807 156.022L93.5062 159.171" stroke="#020202" stroke-width="2" stroke-linecap="round" stroke-linejoin="round"/>
<path d="M46.2698 140.98L57.6391 146.665" stroke="black" stroke-width="2" stroke-linecap="round"/>
<path d="M100.843 140.98L112.212 146.665" stroke="black" stroke-width="2" stroke-linecap="round"/>
<path d="M64.8054 54.2343C64.8054 50.0338 70.3341 46.6144 77.1974 46.6144C84.0607 46.6144 89.5895 50.0243 89.5895 54.2343" stroke="#020202" stroke-linecap="round" stroke-linejoin="round"/>
<path d="M99.6022 51.454C99.6022 51.454 107.484 89.3229 136.416 83.8553" stroke="#020202" stroke-width="2" stroke-linecap="round" stroke-linejoin="round"/>
<path d="M74.5 41C76.9853 41 79 38.5376 79 35.5C79 32.4624 76.9853 30 74.5 30C72.0147 30 70 32.4624 70 35.5C70 38.5376 72.0147 41 74.5 41Z" fill="white"/>
<path d="M74.5 40C76.433 40 78 38.2091 78 36C78 33.7909 76.433 32 74.5 32C72.567 32 71 33.7909 71 36C71 38.2091 72.567 40 74.5 40Z" fill="#221F20"/>
<path d="M91 41C93.7614 41 96 38.5376 96 35.5C96 32.4624 93.7614 30 91 30C88.2386 30 86 32.4624 86 35.5C86 38.5376 88.2386 41 91 41Z" fill="white"/>
<path d="M91.5 40C93.433 40 95 38.2091 95 36C95 33.7909 93.433 32 91.5 32C89.567 32 88 33.7909 88 36C88 38.2091 89.567 40 91.5 40Z" fill="#221F20"/>
</svg>
