<svg width="175" height="175" viewBox="0 0 175 175" fill="none" xmlns="http://www.w3.org/2000/svg">
<g filter="url(#filter0_d_1128_2979)">
<path d="M163.424 103.862C163.424 103.862 171.346 64.323 138.627 58.2422" stroke="#020202" stroke-width="2" stroke-linecap="round" stroke-linejoin="round"/>
<path d="M148.91 83.2494C153.178 78.6155 155.592 73.4047 155.592 67.9008C155.592 60.7135 151.503 54.0369 144.509 48.4857C147.427 44.5563 149.03 39.8075 149.09 34.915C149.09 15.6323 122.684 0 90.1169 0C57.5497 0 31.1345 15.6323 31.1345 34.915C31.2047 39.7194 32.7693 44.3828 35.6112 48.2588C28.4277 53.8478 24.2538 60.6095 24.2538 67.9008C24.2538 74.0762 27.273 79.8733 32.5636 84.9233C27.0956 87.6697 22.499 91.8805 19.2869 97.0857C16.0748 102.291 14.3735 108.285 14.373 114.401C14.373 123.154 17.853 131.549 24.0475 137.738C30.242 143.928 38.6435 147.405 47.4039 147.405H137.969C146.729 147.405 155.131 143.928 161.325 137.738C167.52 131.549 171 123.154 171 114.401C171.001 107.562 168.876 100.891 164.919 95.3109C160.961 89.7306 155.368 85.516 148.91 83.2494Z" fill="#FACF63"/>
<path d="M5.84116 107.927C5.84116 107.927 -2.07112 68.3872 30.638 62.3064" stroke="#020202" stroke-width="2" stroke-linecap="round" stroke-linejoin="round"/>
<path d="M47.5252 142.214L42.6321 162.528L33.4421 164.608" stroke="#020202" stroke-width="2" stroke-linecap="round" stroke-linejoin="round"/>
<path d="M135.19 142.214L138.194 162.897L147.155 165.828" stroke="#020202" stroke-width="2" stroke-linecap="round" stroke-linejoin="round"/>
<path d="M81.5702 31.6997C84.1262 31.6997 86.1983 29.2271 86.1983 26.1769C86.1983 23.1267 84.1262 20.6541 81.5702 20.6541C79.0142 20.6541 76.9421 23.1267 76.9421 26.1769C76.9421 29.2271 79.0142 31.6997 81.5702 31.6997Z" fill="white"/>
<path d="M81.9394 31.698C83.8369 31.698 85.375 30.0171 85.375 27.9436C85.375 25.8701 83.8369 24.1891 81.9394 24.1891C80.042 24.1891 78.5038 25.8701 78.5038 27.9436C78.5038 30.0171 80.042 31.698 81.9394 31.698Z" fill="#221F20"/>
<path d="M98.417 31.7007C100.973 31.7007 103.045 29.2281 103.045 26.1779C103.045 23.1277 100.973 20.655 98.417 20.655C95.8609 20.655 93.7888 23.1277 93.7888 26.1779C93.7888 29.2281 95.8609 31.7007 98.417 31.7007Z" fill="white"/>
<path d="M98.7857 31.6993C100.683 31.6993 102.221 30.0184 102.221 27.9449C102.221 25.8714 100.683 24.1905 98.7857 24.1905C96.8883 24.1905 95.3501 25.8714 95.3501 27.9449C95.3501 30.0184 96.8883 31.6993 98.7857 31.6993Z" fill="#221F20"/>
<path d="M78.436 45.2797C78.436 41.1092 83.9253 37.7141 90.7397 37.7141C97.5541 37.7141 103.044 41.0997 103.044 45.2797" stroke="#020202" stroke-linecap="round" stroke-linejoin="round"/>
</g>
<defs>
<filter id="filter0_d_1128_2979" x="0" y="0" width="175" height="174.828" filterUnits="userSpaceOnUse" color-interpolation-filters="sRGB">
<feFlood flood-opacity="0" result="BackgroundImageFix"/>
<feColorMatrix in="SourceAlpha" type="matrix" values="0 0 0 0 0 0 0 0 0 0 0 0 0 0 0 0 0 0 127 0" result="hardAlpha"/>
<feOffset dy="4"/>
<feGaussianBlur stdDeviation="2"/>
<feComposite in2="hardAlpha" operator="out"/>
<feColorMatrix type="matrix" values="0 0 0 0 0 0 0 0 0 0 0 0 0 0 0 0 0 0 0.25 0"/>
<feBlend mode="normal" in2="BackgroundImageFix" result="effect1_dropShadow_1128_2979"/>
<feBlend mode="normal" in="SourceGraphic" in2="effect1_dropShadow_1128_2979" result="shape"/>
</filter>
</defs>
</svg>
