<svg width="390" height="272" viewBox="0 0 390 272" fill="none" xmlns="http://www.w3.org/2000/svg">
<g filter="url(#filter0_d_1365_733)">
<path d="M333.213 204.493C343.689 193.11 349.613 180.31 349.613 166.79C349.613 149.136 339.578 132.735 322.411 119.1C329.572 109.447 333.506 97.7824 333.654 85.7647C333.654 38.399 268.843 0 188.909 0C108.975 0 44.1401 38.399 44.1401 85.7647C44.3125 97.566 48.1526 109.021 55.1278 118.542C37.4964 132.271 27.252 148.88 27.252 166.79C27.252 181.96 34.6623 196.199 47.6478 208.604C34.2269 215.351 22.9449 225.694 15.061 238.48C7.17702 251.265 3.00134 265.991 3 281.012V281.012C3 302.513 11.5415 323.134 26.7455 338.338C41.9495 353.542 62.5705 362.084 84.0722 362.084H306.359C327.861 362.084 348.482 353.542 363.686 338.338C378.89 323.134 387.431 302.513 387.431 281.012C387.433 264.212 382.217 247.827 372.504 234.12C362.792 220.413 349.062 210.06 333.213 204.493V204.493Z" fill="#FFD15A"/>
<path d="M167.932 77.8664C174.206 77.8664 179.291 71.7926 179.291 64.3001C179.291 56.8077 174.206 50.7339 167.932 50.7339C161.658 50.7339 156.573 56.8077 156.573 64.3001C156.573 71.7926 161.658 77.8664 167.932 77.8664Z" fill="white"/>
<path d="M165.932 69.2844C170.589 69.2844 174.364 65.1554 174.364 60.0621C174.364 54.9688 170.589 50.8398 165.932 50.8398C161.275 50.8398 157.499 54.9688 157.499 60.0621C157.499 65.1554 161.275 69.2844 165.932 69.2844Z" fill="#221F20"/>
<path d="M209.28 77.8664C215.554 77.8664 220.64 71.7926 220.64 64.3001C220.64 56.8077 215.554 50.7339 209.28 50.7339C203.007 50.7339 197.921 56.8077 197.921 64.3001C197.921 71.7926 203.007 77.8664 209.28 77.8664Z" fill="white"/>
<path d="M207.528 69.2844C212.185 69.2844 215.96 65.1554 215.96 60.0621C215.96 54.9688 212.185 50.8398 207.528 50.8398C202.871 50.8398 199.095 54.9688 199.095 60.0621C199.095 65.1554 202.871 69.2844 207.528 69.2844Z" fill="#221F20"/>
<path d="M207.534 107.649C207.534 103.199 199.129 99.5757 188.695 99.5757C178.261 99.5757 169.856 103.189 169.856 107.649" stroke="#020202" stroke-width="3" stroke-linecap="round" stroke-linejoin="round"/>
</g>
<defs>
<filter id="filter0_d_1365_733" x="-1" y="0" width="392.431" height="370.084" filterUnits="userSpaceOnUse" color-interpolation-filters="sRGB">
<feFlood flood-opacity="0" result="BackgroundImageFix"/>
<feColorMatrix in="SourceAlpha" type="matrix" values="0 0 0 0 0 0 0 0 0 0 0 0 0 0 0 0 0 0 127 0" result="hardAlpha"/>
<feOffset dy="4"/>
<feGaussianBlur stdDeviation="2"/>
<feComposite in2="hardAlpha" operator="out"/>
<feColorMatrix type="matrix" values="0 0 0 0 0 0 0 0 0 0 0 0 0 0 0 0 0 0 0.25 0"/>
<feBlend mode="normal" in2="BackgroundImageFix" result="effect1_dropShadow_1365_733"/>
<feBlend mode="normal" in="SourceGraphic" in2="effect1_dropShadow_1365_733" result="shape"/>
</filter>
</defs>
</svg>
