<svg width="102" height="103" viewBox="0 0 102 103" fill="none" xmlns="http://www.w3.org/2000/svg">
<path d="M86.465 53.392L85.9502 53.9509L86.6671 54.2025C90.7374 55.6312 94.263 58.2876 96.7571 61.8046C99.2511 65.3217 100.59 69.5259 100.59 73.8362C100.59 79.3531 98.3967 84.6441 94.4925 88.5453C90.5883 92.4464 85.2929 94.6381 79.7713 94.6381H21.3188C15.7972 94.6381 10.5018 92.4464 6.59753 88.5453C2.6933 84.6441 0.5 79.3531 0.5 73.8363C0.500345 69.9823 1.57258 66.2041 3.59705 62.9235C5.62154 59.6429 8.51863 56.9889 11.965 55.2579L12.5991 54.9394L12.0858 54.4494C8.73844 51.2543 6.87731 47.6353 6.87731 43.8245C6.87731 39.3253 9.45141 35.092 14.0146 31.5417L14.3981 31.2433L14.1108 30.8515C12.3387 28.4345 11.3628 25.5268 11.3182 22.5312C11.3199 16.5579 15.415 11.0614 22.2248 7.03065C29.0248 3.00566 38.4507 0.5 48.8866 0.5C59.3224 0.5 68.7467 3.00566 75.5452 7.03063C82.3536 11.0614 86.4474 16.5582 86.4488 22.5318C86.4106 25.5831 85.4106 28.5447 83.5908 30.9955L83.3022 31.3842L83.6814 31.6852C88.1241 35.2113 90.6453 39.3905 90.6453 43.8245C90.6453 47.2214 89.1576 50.4688 86.465 53.392Z" fill="#FACF63" stroke="white"/>
<path d="M39.0547 33.6783C39.0547 33.6783 32.9723 58.983 12.1649 53.6792" stroke="#020202" stroke-width="2" stroke-linecap="round" stroke-linejoin="round"/>
<path d="M29.6351 90.7607L30.269 99.9817L24.9497 102" stroke="#020202" stroke-width="2" stroke-linecap="round" stroke-linejoin="round"/>
<path d="M64.6068 90.7607L65.2407 99.9817L59.9213 102" stroke="#020202" stroke-width="2" stroke-linecap="round" stroke-linejoin="round"/>
<path d="M29.6514 90.3428L36.9371 93.9856" stroke="black" stroke-width="2" stroke-linecap="round"/>
<path d="M64.6221 90.3428L71.9078 93.9856" stroke="black" stroke-width="2" stroke-linecap="round"/>
<path d="M40.6188 39.4243C40.6188 36.7326 44.1617 34.5414 48.5599 34.5414C52.958 34.5414 56.501 36.7265 56.501 39.4243" stroke="#020202" stroke-linecap="round" stroke-linejoin="round"/>
<path d="M62.1973 33.0011C62.1973 33.0011 66.7945 57.453 87.2077 53.1862" stroke="#020202" stroke-width="2" stroke-linecap="round" stroke-linejoin="round"/>
<path d="M45.6793 26.9568C45.315 28.414 43.8853 29.8711 41.6722 29.8711C39.4591 29.8711 38.0293 28.7782 37.665 26.9568" stroke="black" stroke-linecap="round"/>
<path d="M59.5216 26.9568C59.1573 28.414 57.7276 29.8711 55.5145 29.8711C53.3014 29.8711 51.8716 28.7782 51.5073 26.9568" stroke="black" stroke-linecap="round"/>
<path fill-rule="evenodd" clip-rule="evenodd" d="M33.6918 34.7919C33.6704 34.1425 33.5383 32.555 33.5383 32.555C33.5383 32.555 31.5945 33.4118 31.4639 33.4747C31.4218 33.495 31.3632 33.5306 31.3029 33.5695C31.2366 33.6086 31.1722 33.6522 31.1103 33.7001C31.069 33.7291 31.0421 33.7486 31.0421 33.7486L31.0468 33.7514C30.8202 33.9427 30.6299 34.1938 30.5011 34.4932C30.0972 35.4315 30.4496 36.4887 31.2881 36.8545C32.1266 37.2203 33.1337 36.7561 33.5375 35.8178C33.6835 35.4786 33.7307 35.1239 33.6918 34.7919Z" fill="white"/>
<path fill-rule="evenodd" clip-rule="evenodd" d="M63.7579 28.9128C63.2553 28.7795 62.0082 28.5148 62.0082 28.5148C62.0082 28.5148 62.2168 30.202 62.2349 30.3166C62.2407 30.3535 62.2545 30.4067 62.2704 30.4618C62.2851 30.5217 62.3037 30.581 62.3261 30.6396C62.3388 30.6779 62.3476 30.703 62.3476 30.703L62.3508 30.7001C62.4452 30.9178 62.5937 31.1215 62.7935 31.2893C63.4195 31.8151 64.311 31.7887 64.7846 31.2304C65.2582 30.6721 65.1346 29.7933 64.5086 29.2675C64.2823 29.0775 64.0213 28.9595 63.7579 28.9128Z" fill="white"/>
</svg>
