<svg width="220" height="234" viewBox="0 0 220 234" fill="none" xmlns="http://www.w3.org/2000/svg">
<path fill-rule="evenodd" clip-rule="evenodd" d="M125.707 50.9979C122.774 47.1962 121.002 42.8884 120.703 38.2542C119.566 20.6177 140.199 4.93103 166.787 3.21711C193.375 1.50318 215.85 14.411 216.987 32.0475C218.124 49.684 197.492 65.3706 170.904 67.0845C162.489 67.627 154.485 66.7048 147.44 64.6315L121.481 68.6697C118.991 69.0569 117.113 66.4699 118.314 64.3075L125.707 50.9979Z" fill="#E0DDDD"/>
<path d="M152.87 170.597C152.87 170.597 160.458 132.724 129.119 126.9" stroke="#020202" stroke-width="2" stroke-linecap="round" stroke-linejoin="round"/>
<path d="M138.968 150.853C143.056 146.414 145.368 141.423 145.368 136.151C145.368 129.267 141.452 122.872 134.752 117.555C137.547 113.791 139.082 109.243 139.14 104.556C139.14 86.0869 113.848 71.1138 82.6538 71.1138C51.46 71.1138 26.1586 86.0869 26.1586 104.556C26.2259 109.158 27.7244 113.625 30.4465 117.338C23.5659 122.691 19.5681 129.167 19.5681 136.151C19.5681 142.066 22.4599 147.619 27.5275 152.456C22.29 155.087 17.8873 159.12 14.8106 164.105C11.7339 169.091 10.1044 174.833 10.1039 180.69C10.1039 189.074 13.4372 197.115 19.3704 203.044C25.3037 208.973 33.351 212.303 41.7419 212.303H128.488C136.879 212.303 144.926 208.973 150.86 203.044C156.793 197.115 160.126 189.074 160.126 180.69C160.127 174.14 158.091 167.75 154.301 162.405C150.511 157.061 145.153 153.024 138.968 150.853Z" fill="#FACF63"/>
<path d="M1.93191 174.489C1.93191 174.489 -5.64672 136.617 25.6831 130.793" stroke="#020202" stroke-width="2" stroke-linecap="round" stroke-linejoin="round"/>
<path d="M41.8582 207.331L37.1715 226.788L28.369 228.781" stroke="#020202" stroke-width="2" stroke-linecap="round" stroke-linejoin="round"/>
<path d="M125.827 207.331L128.704 227.142L137.286 229.949" stroke="#020202" stroke-width="2" stroke-linecap="round" stroke-linejoin="round"/>
<path d="M74.4676 101.477C76.9159 101.477 78.9006 99.1084 78.9006 96.1868C78.9006 93.2652 76.9159 90.8969 74.4676 90.8969C72.0194 90.8969 70.0347 93.2652 70.0347 96.1868C70.0347 99.1084 72.0194 101.477 74.4676 101.477Z" fill="white"/>
<path d="M74.8212 101.475C76.6387 101.475 78.1119 99.8651 78.1119 97.879C78.1119 95.893 76.6387 94.283 74.8212 94.283C73.0038 94.283 71.5305 95.893 71.5305 97.879C71.5305 99.8651 73.0038 101.475 74.8212 101.475Z" fill="#221F20"/>
<path d="M90.6038 101.478C93.0521 101.478 95.0368 99.1093 95.0368 96.1878C95.0368 93.2662 93.0521 90.8978 90.6038 90.8978C88.1556 90.8978 86.1709 93.2662 86.1709 96.1878C86.1709 99.1093 88.1556 101.478 90.6038 101.478Z" fill="white"/>
<path d="M90.9571 101.476C92.7745 101.476 94.2478 99.8663 94.2478 97.8802C94.2478 95.8941 92.7745 94.2841 90.9571 94.2841C89.1397 94.2841 87.6664 95.8941 87.6664 97.8802C87.6664 99.8663 89.1397 101.476 90.9571 101.476Z" fill="#221F20"/>
<path d="M71.4655 114.484C71.4655 110.49 76.7234 107.238 83.2505 107.238C89.7775 107.238 95.0354 110.48 95.0354 114.484" stroke="#020202" stroke-linecap="round" stroke-linejoin="round"/>
</svg>
