<svg width="390" height="332" viewBox="0 0 390 332" fill="none" xmlns="http://www.w3.org/2000/svg">
<mask id="path-1-inside-1_1821_811" fill="white">
<path fill-rule="evenodd" clip-rule="evenodd" d="M232.215 144.458C232.215 155.199 226.316 164.596 217.502 169.743C230.871 175.669 241.927 188.026 242.284 199.695C242.286 199.709 242.288 199.722 242.291 199.736L249.718 245.262C251.108 253.781 244.533 261.516 235.901 261.516H168.003C159.391 261.516 152.821 253.815 154.178 245.31L161.357 200.32C161.451 199.736 161.579 199.166 161.74 198.61C162.7 187.189 173.34 175.323 186.259 169.625C177.557 164.453 171.748 155.117 171.748 144.458C171.748 128.189 185.284 115 201.981 115C218.679 115 232.215 128.189 232.215 144.458Z"/>
</mask>
<path fill-rule="evenodd" clip-rule="evenodd" d="M232.215 144.458C232.215 155.199 226.316 164.596 217.502 169.743C230.871 175.669 241.927 188.026 242.284 199.695C242.286 199.709 242.288 199.722 242.291 199.736L249.718 245.262C251.108 253.781 244.533 261.516 235.901 261.516H168.003C159.391 261.516 152.821 253.815 154.178 245.31L161.357 200.32C161.451 199.736 161.579 199.166 161.74 198.61C162.7 187.189 173.34 175.323 186.259 169.625C177.557 164.453 171.748 155.117 171.748 144.458C171.748 128.189 185.284 115 201.981 115C218.679 115 232.215 128.189 232.215 144.458Z" fill="#FFECBA"/>
<path d="M217.502 169.743L216.494 168.016L213.118 169.988L216.692 171.572L217.502 169.743ZM242.284 199.695L240.285 199.756L240.289 199.891L240.311 200.023L242.284 199.695ZM242.291 199.736L244.264 199.414L244.264 199.414L242.291 199.736ZM249.718 245.262L247.744 245.584L247.744 245.584L249.718 245.262ZM154.178 245.31L152.203 244.995L152.203 244.995L154.178 245.31ZM161.357 200.32L159.382 200.005L159.382 200.005L161.357 200.32ZM161.74 198.61L163.661 199.168L163.717 198.977L163.733 198.778L161.74 198.61ZM186.259 169.625L187.066 171.455L190.617 169.889L187.281 167.906L186.259 169.625ZM218.511 171.471C227.898 165.989 234.215 155.955 234.215 144.458H230.215C230.215 154.442 224.734 163.204 216.494 168.016L218.511 171.471ZM244.283 199.634C244.086 193.205 240.964 186.78 236.299 181.273C231.619 175.748 225.266 170.997 218.313 167.915L216.692 171.572C223.108 174.416 228.967 178.806 233.247 183.858C237.541 188.928 240.125 194.515 240.285 199.756L244.283 199.634ZM240.311 200.023C240.313 200.034 240.315 200.046 240.317 200.059L244.264 199.414C244.262 199.399 244.259 199.383 244.257 199.367L240.311 200.023ZM240.317 200.058L247.744 245.584L251.692 244.94L244.264 199.414L240.317 200.058ZM247.744 245.584C248.936 252.886 243.3 259.516 235.901 259.516V263.516C245.766 263.516 253.281 254.676 251.692 244.94L247.744 245.584ZM235.901 259.516H168.003V263.516H235.901V259.516ZM168.003 259.516C160.621 259.516 154.99 252.915 156.153 245.625L152.203 244.995C150.652 254.714 158.161 263.516 168.003 263.516V259.516ZM156.153 245.625L163.332 200.635L159.382 200.005L152.203 244.995L156.153 245.625ZM163.332 200.635C163.412 200.134 163.523 199.644 163.661 199.168L159.82 198.052C159.635 198.687 159.489 199.339 159.382 200.005L163.332 200.635ZM185.452 167.795C178.723 170.763 172.59 175.332 167.999 180.667C163.42 185.987 160.273 192.192 159.747 198.443L163.733 198.778C164.168 193.607 166.82 188.169 171.031 183.276C175.23 178.397 180.876 174.185 187.066 171.455L185.452 167.795ZM169.748 144.458C169.748 155.867 175.969 165.835 185.237 171.344L187.281 167.906C179.145 163.07 173.748 154.366 173.748 144.458H169.748ZM201.981 113C184.228 113 169.748 127.036 169.748 144.458H173.748C173.748 129.342 186.339 117 201.981 117V113ZM234.215 144.458C234.215 127.036 219.734 113 201.981 113V117C217.623 117 230.215 129.342 230.215 144.458H234.215Z" fill="white" mask="url(#path-1-inside-1_1821_811)"/>
<path d="M185.857 160.433C185.857 160.433 191.001 134.762 169.758 130.814" stroke="#020202" stroke-width="2" stroke-linecap="round" stroke-linejoin="round"/>
<path d="M176.066 146.711L175.551 147.27L176.268 147.522C180.363 148.959 183.91 151.632 186.42 155.17C188.929 158.708 190.276 162.938 190.276 167.275C190.276 172.825 188.069 178.148 184.141 182.073C180.213 185.998 174.886 188.203 169.33 188.203H110.531C104.976 188.203 99.6479 185.998 95.7199 182.073C91.792 178.148 89.5853 172.825 89.5853 167.275C89.5857 163.397 90.6644 159.596 92.7012 156.296C94.738 152.995 97.6527 150.325 101.12 148.583L101.754 148.265L101.241 147.775C97.8732 144.56 96.0005 140.919 96.0005 137.085C96.0005 132.558 98.5906 128.298 103.181 124.727L103.565 124.428L103.278 124.036C101.495 121.605 100.513 118.679 100.468 115.665C100.469 109.655 104.59 104.125 111.441 100.07C118.282 96.0206 127.764 93.5 138.262 93.5C148.761 93.5 158.241 96.0206 165.081 100.07C171.93 104.125 176.049 109.655 176.051 115.666C176.012 118.736 175.006 121.716 173.175 124.181L172.886 124.57L173.266 124.871C177.735 128.418 180.272 132.623 180.272 137.085C180.272 140.503 178.775 143.77 176.066 146.711Z" fill="#A7A7A7" stroke="white"/>
<path d="M86.5461 160.619C86.5461 160.619 81.4091 134.948 102.646 131" stroke="#020202" stroke-width="2" stroke-linecap="round" stroke-linejoin="round"/>
<path d="M110.61 185.333L107.433 198.521L101.466 199.872" stroke="#020202" stroke-width="2" stroke-linecap="round" stroke-linejoin="round"/>
<path d="M167.526 185.333L169.477 198.761L175.294 200.664" stroke="#020202" stroke-width="2" stroke-linecap="round" stroke-linejoin="round"/>
<path d="M133.005 123.171C134.664 123.171 136.01 121.566 136.01 119.586C136.01 117.605 134.664 116 133.005 116C131.345 116 130 117.605 130 119.586C130 121.566 131.345 123.171 133.005 123.171Z" fill="white"/>
<path d="M133.245 123.17C134.477 123.17 135.475 122.079 135.475 120.733C135.475 119.386 134.477 118.295 133.245 118.295C132.013 118.295 131.014 119.386 131.014 120.733C131.014 122.079 132.013 123.17 133.245 123.17Z" fill="#221F20"/>
<path d="M143.943 123.172C145.602 123.172 146.947 121.567 146.947 119.586C146.947 117.606 145.602 116 143.943 116C142.283 116 140.938 117.606 140.938 119.586C140.938 121.567 142.283 123.172 143.943 123.172Z" fill="white"/>
<path d="M144.182 123.171C145.414 123.171 146.413 122.08 146.413 120.734C146.413 119.387 145.414 118.296 144.182 118.296C142.95 118.296 141.952 119.387 141.952 120.734C141.952 122.08 142.95 123.171 144.182 123.171Z" fill="#221F20"/>
<path d="M261.772 163.433C261.772 163.433 266.915 137.762 245.672 133.814" stroke="#020202" stroke-width="2" stroke-linecap="round" stroke-linejoin="round"/>
<path d="M251.981 149.711L251.466 150.27L252.183 150.522C256.278 151.959 259.825 154.632 262.334 158.17C264.843 161.708 266.191 165.938 266.19 170.275C266.19 175.825 263.984 181.148 260.056 185.073C256.128 188.998 250.8 191.203 245.245 191.203H186.445C180.89 191.203 175.563 188.998 171.635 185.073C167.707 181.148 165.5 175.825 165.5 170.275C165.5 166.397 166.579 162.596 168.616 159.296C170.653 155.995 173.567 153.325 177.035 151.583L177.669 151.265L177.156 150.775C173.788 147.56 171.915 143.919 171.915 140.085C171.915 135.558 174.505 131.298 179.096 127.727L179.48 127.428L179.192 127.036C177.409 124.605 176.427 121.679 176.382 118.665C176.384 112.655 180.505 107.125 187.355 103.07C194.196 99.0206 203.679 96.5 214.177 96.5C224.675 96.5 234.156 99.0206 240.995 103.07C247.845 107.125 251.964 112.655 251.965 118.666C251.927 121.736 250.921 124.716 249.09 127.181L248.801 127.57L249.18 127.871C253.65 131.418 256.187 135.623 256.187 140.085C256.187 143.503 254.69 146.77 251.981 149.711Z" fill="#A7A7A7" stroke="white"/>
<path d="M186.524 188.333L183.347 201.521L177.381 202.872" stroke="#020202" stroke-width="2" stroke-linecap="round" stroke-linejoin="round"/>
<path d="M243.441 188.333L245.391 201.761L251.209 203.664" stroke="#020202" stroke-width="2" stroke-linecap="round" stroke-linejoin="round"/>
<path d="M207.919 125.171C209.579 125.171 210.924 123.566 210.924 121.586C210.924 119.605 209.579 118 207.919 118C206.26 118 204.915 119.605 204.915 121.586C204.915 123.566 206.26 125.171 207.919 125.171Z" fill="white"/>
<path d="M208.159 125.17C209.391 125.17 210.39 124.079 210.39 122.733C210.39 121.386 209.391 120.295 208.159 120.295C206.927 120.295 205.929 121.386 205.929 122.733C205.929 124.079 206.927 125.17 208.159 125.17Z" fill="#221F20"/>
<path d="M218.857 125.172C220.517 125.172 221.862 123.567 221.862 121.586C221.862 119.606 220.517 118 218.857 118C217.198 118 215.852 119.606 215.852 121.586C215.852 123.567 217.198 125.172 218.857 125.172Z" fill="white"/>
<path d="M219.097 125.171C220.329 125.171 221.327 124.08 221.327 122.734C221.327 121.387 220.329 120.296 219.097 120.296C217.865 120.296 216.866 121.387 216.866 122.734C216.866 124.08 217.865 125.171 219.097 125.171Z" fill="#221F20"/>
<path d="M129.099 189.619C129.099 189.619 134.243 163.948 113 160" stroke="#020202" stroke-width="2" stroke-linecap="round" stroke-linejoin="round"/>
<path d="M123.066 175.711L122.551 176.27L123.268 176.522C127.363 177.959 130.91 180.632 133.42 184.17C135.929 187.708 137.276 191.938 137.276 196.275C137.276 201.825 135.069 207.148 131.141 211.073C127.213 214.998 121.886 217.203 116.33 217.203H57.5307C51.9755 217.203 46.6479 214.998 42.7199 211.073C38.792 207.148 36.5853 201.825 36.5853 196.275C36.5857 192.397 37.6644 188.596 39.7012 185.296C41.738 181.995 44.6527 179.325 48.1201 177.583L48.7542 177.265L48.2409 176.775C44.8732 173.56 43.0005 169.919 43.0005 166.085C43.0005 161.558 45.5906 157.298 50.1813 153.727L50.5648 153.428L50.2775 153.036C48.4945 150.605 47.5126 147.679 47.4678 144.665C47.4695 138.655 51.5899 133.125 58.4406 129.07C65.2816 125.021 74.764 122.5 85.2623 122.5C95.7605 122.5 105.241 125.021 112.081 129.07C118.93 133.125 123.049 138.655 123.051 144.666C123.012 147.736 122.006 150.716 120.175 153.181L119.886 153.57L120.266 153.871C124.735 157.418 127.272 161.623 127.272 166.085C127.272 169.503 125.775 172.77 123.066 175.711Z" fill="#A7A7A7" stroke="white"/>
<path d="M30.5461 192.072C30.5461 192.072 25.4091 166.401 46.6455 162.453" stroke="#020202" stroke-width="2" stroke-linecap="round" stroke-linejoin="round"/>
<path d="M57.6097 214.333L54.4328 227.521L48.4662 228.872" stroke="#020202" stroke-width="2" stroke-linecap="round" stroke-linejoin="round"/>
<path d="M114.526 214.333L116.477 227.761L122.294 229.664" stroke="#020202" stroke-width="2" stroke-linecap="round" stroke-linejoin="round"/>
<path d="M81.0048 151.171C82.6643 151.171 84.0096 149.566 84.0096 147.586C84.0096 145.605 82.6643 144 81.0048 144C79.3453 144 78 145.605 78 147.586C78 149.566 79.3453 151.171 81.0048 151.171Z" fill="white"/>
<path d="M81.2446 151.17C82.4765 151.17 83.4752 150.079 83.4752 148.733C83.4752 147.386 82.4765 146.295 81.2446 146.295C80.0127 146.295 79.014 147.386 79.014 148.733C79.014 150.079 80.0127 151.17 81.2446 151.17Z" fill="#221F20"/>
<path d="M91.9426 151.172C93.6021 151.172 94.9474 149.567 94.9474 147.586C94.9474 145.606 93.6021 144 91.9426 144C90.283 144 88.9377 145.606 88.9377 147.586C88.9377 149.567 90.283 151.172 91.9426 151.172Z" fill="white"/>
<path d="M92.1821 151.171C93.414 151.171 94.4127 150.08 94.4127 148.734C94.4127 147.387 93.414 146.296 92.1821 146.296C90.9502 146.296 89.9515 147.387 89.9515 148.734C89.9515 150.08 90.9502 151.171 92.1821 151.171Z" fill="#221F20"/>
<path d="M107.394 249.341C107.394 249.341 113.064 221.04 89.6454 216.688" stroke="#020202" stroke-width="2" stroke-linecap="round" stroke-linejoin="round"/>
<path d="M96.6377 234.248L96.1229 234.807L96.8399 235.059C101.364 236.647 105.284 239.6 108.056 243.509C110.828 247.419 112.317 252.092 112.317 256.884C112.317 263.016 109.879 268.898 105.539 273.234C101.199 277.571 95.3123 280.007 89.1744 280.007H24.3512C18.2133 280.007 12.3269 277.571 7.98694 273.234C3.64696 268.898 1.20886 263.016 1.20886 256.884C1.20925 252.6 2.40115 248.4 4.65159 244.753C6.90202 241.106 10.1225 238.156 13.9535 236.232L14.5876 235.913L14.0743 235.423C10.3547 231.873 8.28123 227.846 8.28123 223.601C8.28123 218.589 11.1489 213.88 16.2174 209.936L16.6009 209.638L16.3136 209.246C14.3416 206.557 13.2556 203.321 13.2061 199.987C13.2078 193.336 17.7675 187.225 25.3282 182.75C32.8791 178.281 43.3423 175.5 54.9236 175.5C66.5049 175.5 76.9663 178.281 84.5155 182.75C92.0747 187.225 96.6328 193.336 96.6342 199.988C96.5918 203.383 95.479 206.679 93.454 209.406L93.1654 209.795L93.5446 210.096C98.4793 214.013 101.288 218.661 101.288 223.601C101.288 227.385 99.6306 230.999 96.6377 234.248Z" fill="#A7A7A7" stroke="white"/>
<path d="M-5.39793 252.25C-5.39793 252.25 -11.0612 223.949 12.3507 219.597" stroke="#020202" stroke-width="2" stroke-linecap="round" stroke-linejoin="round"/>
<path d="M24.4379 276.792L20.9356 291.331L14.3578 292.82" stroke="#020202" stroke-width="2" stroke-linecap="round" stroke-linejoin="round"/>
<path d="M87.1854 276.792L89.3355 291.596L95.749 293.693" stroke="#020202" stroke-width="2" stroke-linecap="round" stroke-linejoin="round"/>
<path d="M56.8445 206.057C58.674 206.057 60.1571 204.288 60.1571 202.104C60.1571 199.921 58.674 198.151 56.8445 198.151C55.015 198.151 53.5319 199.921 53.5319 202.104C53.5319 204.288 55.015 206.057 56.8445 206.057Z" fill="white"/>
<path d="M57.109 206.056C58.4671 206.056 59.568 204.853 59.568 203.369C59.568 201.885 58.4671 200.682 57.109 200.682C55.7509 200.682 54.6499 201.885 54.6499 203.369C54.6499 204.853 55.7509 206.056 57.109 206.056Z" fill="#221F20"/>
<path d="M68.9027 206.058C70.7322 206.058 72.2153 204.288 72.2153 202.105C72.2153 199.922 70.7322 198.152 68.9027 198.152C67.0732 198.152 65.5901 199.922 65.5901 202.105C65.5901 204.288 67.0732 206.058 68.9027 206.058Z" fill="white"/>
<path d="M69.167 206.057C70.5251 206.057 71.626 204.854 71.626 203.37C71.626 201.886 70.5251 200.683 69.167 200.683C67.8089 200.683 66.7079 201.886 66.7079 203.37C66.7079 204.854 67.8089 206.057 69.167 206.057Z" fill="#221F20"/>
<path d="M338.857 168.433C338.857 168.433 344.001 142.762 322.758 138.814" stroke="#020202" stroke-width="2" stroke-linecap="round" stroke-linejoin="round"/>
<path d="M329.066 154.711L328.551 155.27L329.268 155.522C333.363 156.959 336.91 159.632 339.42 163.17C341.929 166.708 343.276 170.938 343.276 175.275C343.276 180.825 341.069 186.148 337.141 190.073C333.213 193.998 327.886 196.203 322.33 196.203H263.531C257.976 196.203 252.648 193.998 248.72 190.073C244.792 186.148 242.585 180.825 242.585 175.275C242.586 171.397 243.664 167.596 245.701 164.296C247.738 160.995 250.653 158.325 254.12 156.583L254.754 156.265L254.241 155.775C250.873 152.56 249.001 148.919 249.001 145.085C249.001 140.558 251.591 136.298 256.181 132.727L256.565 132.428L256.278 132.036C254.495 129.605 253.513 126.679 253.468 123.665C253.469 117.655 257.59 112.125 264.441 108.07C271.282 104.021 280.764 101.5 291.262 101.5C301.761 101.5 311.241 104.021 318.081 108.07C324.93 112.125 329.049 117.655 329.051 123.666C329.012 126.736 328.006 129.716 326.175 132.181L325.886 132.57L326.266 132.871C330.735 136.418 333.272 140.623 333.272 145.085C333.272 148.503 331.775 151.77 329.066 154.711Z" fill="#A7A7A7" stroke="white"/>
<path d="M236.546 171.072C236.546 171.072 231.409 145.401 252.646 141.453" stroke="#020202" stroke-width="2" stroke-linecap="round" stroke-linejoin="round"/>
<path d="M263.61 193.333L260.433 206.521L254.466 207.872" stroke="#020202" stroke-width="2" stroke-linecap="round" stroke-linejoin="round"/>
<path d="M320.526 193.333L322.477 206.761L328.294 208.664" stroke="#020202" stroke-width="2" stroke-linecap="round" stroke-linejoin="round"/>
<path d="M281.005 125.171C282.664 125.171 284.01 123.566 284.01 121.586C284.01 119.605 282.664 118 281.005 118C279.345 118 278 119.605 278 121.586C278 123.566 279.345 125.171 281.005 125.171Z" fill="white"/>
<path d="M281.245 125.17C282.477 125.17 283.475 124.079 283.475 122.733C283.475 121.386 282.477 120.295 281.245 120.295C280.013 120.295 279.014 121.386 279.014 122.733C279.014 124.079 280.013 125.17 281.245 125.17Z" fill="#221F20"/>
<path d="M291.943 125.172C293.602 125.172 294.947 123.567 294.947 121.586C294.947 119.606 293.602 118 291.943 118C290.283 118 288.938 119.606 288.938 121.586C288.938 123.567 290.283 125.172 291.943 125.172Z" fill="white"/>
<path d="M292.182 125.171C293.414 125.171 294.413 124.08 294.413 122.734C294.413 121.387 293.414 120.296 292.182 120.296C290.95 120.296 289.952 121.387 289.952 122.734C289.952 124.08 290.95 125.171 292.182 125.171Z" fill="#221F20"/>
<path d="M390.857 206.433C390.857 206.433 396.001 180.762 374.758 176.814" stroke="#020202" stroke-width="2" stroke-linecap="round" stroke-linejoin="round"/>
<path d="M381.066 192.711L380.551 193.27L381.268 193.522C385.363 194.959 388.91 197.632 391.42 201.17C393.929 204.708 395.276 208.938 395.276 213.275C395.276 218.825 393.069 224.148 389.141 228.073C385.213 231.998 379.886 234.203 374.33 234.203H315.531C309.976 234.203 304.648 231.998 300.72 228.073C296.792 224.148 294.585 218.825 294.585 213.275C294.586 209.397 295.664 205.596 297.701 202.296C299.738 198.995 302.653 196.325 306.12 194.583L306.754 194.265L306.241 193.775C302.873 190.56 301.001 186.919 301.001 183.085C301.001 178.558 303.591 174.298 308.181 170.727L308.565 170.428L308.278 170.036C306.495 167.605 305.513 164.679 305.468 161.665C305.469 155.655 309.59 150.125 316.441 146.07C323.282 142.021 332.764 139.5 343.262 139.5C353.761 139.5 363.241 142.021 370.081 146.07C376.93 150.125 381.049 155.655 381.051 161.666C381.012 164.736 380.006 167.716 378.175 170.181L377.886 170.57L378.266 170.871C382.735 174.418 385.272 178.623 385.272 183.085C385.272 186.503 383.775 189.77 381.066 192.711Z" fill="#A7A7A7" stroke="white"/>
<path d="M288.546 209.072C288.546 209.072 283.409 183.401 304.646 179.453" stroke="#020202" stroke-width="2" stroke-linecap="round" stroke-linejoin="round"/>
<path d="M315.61 231.333L312.433 244.521L306.466 245.872" stroke="#020202" stroke-width="2" stroke-linecap="round" stroke-linejoin="round"/>
<path d="M372.526 231.333L374.477 244.761L380.294 246.664" stroke="#020202" stroke-width="2" stroke-linecap="round" stroke-linejoin="round"/>
<path d="M333.005 163.171C334.664 163.171 336.01 161.566 336.01 159.586C336.01 157.605 334.664 156 333.005 156C331.345 156 330 157.605 330 159.586C330 161.566 331.345 163.171 333.005 163.171Z" fill="white"/>
<path d="M333.245 163.17C334.477 163.17 335.475 162.079 335.475 160.733C335.475 159.386 334.477 158.295 333.245 158.295C332.013 158.295 331.014 159.386 331.014 160.733C331.014 162.079 332.013 163.17 333.245 163.17Z" fill="#221F20"/>
<path d="M343.943 163.172C345.602 163.172 346.947 161.567 346.947 159.586C346.947 157.606 345.602 156 343.943 156C342.283 156 340.938 157.606 340.938 159.586C340.938 161.567 342.283 163.172 343.943 163.172Z" fill="white"/>
<path d="M344.182 163.171C345.414 163.171 346.413 162.08 346.413 160.734C346.413 159.387 345.414 158.296 344.182 158.296C342.95 158.296 341.952 159.387 341.952 160.734C341.952 162.08 342.95 163.171 344.182 163.171Z" fill="#221F20"/>
<path d="M230.735 226.859C230.735 226.859 236.119 199.985 213.881 195.852" stroke="#020202" stroke-width="2" stroke-linecap="round" stroke-linejoin="round"/>
<path d="M220.502 212.51L219.987 213.069L220.704 213.321C224.995 214.827 228.713 217.628 231.342 221.336C233.972 225.044 235.384 229.477 235.384 234.022C235.384 239.839 233.071 245.417 228.955 249.53C224.838 253.644 219.255 255.954 213.433 255.954H151.878C146.056 255.954 140.473 253.644 136.357 249.53C132.24 245.417 129.928 239.839 129.928 234.022C129.928 229.958 131.059 225.975 133.193 222.516C135.328 219.057 138.382 216.259 142.016 214.434L142.65 214.115L142.137 213.625C138.608 210.257 136.644 206.439 136.644 202.417C136.644 197.668 139.361 193.203 144.17 189.461L144.554 189.163L144.266 188.771C142.397 186.221 141.367 183.154 141.32 179.994C141.322 173.69 145.643 167.895 152.819 163.647C159.985 159.406 169.916 156.766 180.909 156.766C191.903 156.766 201.832 159.406 208.996 163.647C216.17 167.895 220.49 173.69 220.492 179.994C220.452 183.213 219.397 186.337 217.477 188.923L217.188 189.312L217.568 189.613C222.25 193.329 224.911 197.737 224.911 202.417C224.911 206.002 223.341 209.428 220.502 212.51Z" fill="#D2D2D2" stroke="white"/>
<path d="M123.629 229.622C123.629 229.622 118.251 202.748 140.483 198.615" stroke="#020202" stroke-width="2" stroke-linecap="round" stroke-linejoin="round"/>
<path d="M151.961 252.926L148.635 266.732L142.389 268.147" stroke="#020202" stroke-width="2" stroke-linecap="round" stroke-linejoin="round"/>
<path d="M211.545 252.926L213.586 266.984L219.676 268.976" stroke="#020202" stroke-width="2" stroke-linecap="round" stroke-linejoin="round"/>
<path d="M174.627 183.875C176.365 183.875 177.773 182.194 177.773 180.121C177.773 178.048 176.365 176.367 174.627 176.367C172.89 176.367 171.482 178.048 171.482 180.121C171.482 182.194 172.89 183.875 174.627 183.875Z" fill="white"/>
<path d="M174.878 183.873C176.168 183.873 177.213 182.731 177.213 181.321C177.213 179.912 176.168 178.77 174.878 178.77C173.589 178.77 172.543 179.912 172.543 181.321C172.543 182.731 173.589 183.873 174.878 183.873Z" fill="#221F20"/>
<path d="M186.078 183.875C187.815 183.875 189.223 182.194 189.223 180.121C189.223 178.048 187.815 176.368 186.078 176.368C184.34 176.368 182.932 178.048 182.932 180.121C182.932 182.194 184.34 183.875 186.078 183.875Z" fill="white"/>
<path d="M186.328 183.874C187.618 183.874 188.663 182.732 188.663 181.322C188.663 179.913 187.618 178.771 186.328 178.771C185.039 178.771 183.993 179.913 183.993 181.322C183.993 182.732 185.039 183.874 186.328 183.874Z" fill="#221F20"/>
<path d="M189.299 187.037C189.194 189.869 185.381 192.037 180.752 191.866C176.124 191.694 172.481 189.257 172.586 186.417" stroke="#020202" stroke-linecap="round" stroke-linejoin="round"/>
<path d="M358.678 241.593C358.678 241.593 364.062 214.719 341.824 210.586" stroke="#020202" stroke-width="2" stroke-linecap="round" stroke-linejoin="round"/>
<path d="M348.444 227.244L347.93 227.803L348.647 228.055C352.938 229.561 356.655 232.362 359.285 236.07C361.915 239.778 363.327 244.211 363.326 248.755C363.326 254.572 361.014 260.151 356.897 264.264C352.781 268.377 347.198 270.688 341.376 270.688H279.821C273.999 270.688 268.416 268.377 264.299 264.264C260.183 260.151 257.87 254.572 257.87 248.755C257.871 244.692 259.001 240.708 261.136 237.249C263.27 233.791 266.325 230.992 269.959 229.167L270.593 228.849L270.079 228.359C266.551 224.991 264.586 221.173 264.586 217.151C264.586 212.402 267.303 207.937 272.113 204.195L272.496 203.897L272.209 203.505C270.339 200.955 269.31 197.888 269.263 194.727C269.265 188.424 273.586 182.628 280.761 178.381C287.927 174.14 297.858 171.5 308.852 171.5C319.846 171.5 329.775 174.14 336.939 178.381C344.113 182.628 348.433 188.424 348.434 194.728C348.394 197.947 347.339 201.071 345.42 203.657L345.131 204.045L345.51 204.346C350.192 208.063 352.854 212.47 352.854 217.151C352.854 220.736 351.283 224.162 348.444 227.244Z" fill="#D2D2D2" stroke="white"/>
<path d="M251.572 244.356C251.572 244.356 246.194 217.482 268.426 213.349" stroke="#020202" stroke-width="2" stroke-linecap="round" stroke-linejoin="round"/>
<path d="M279.903 267.659L276.578 281.466L270.332 282.88" stroke="#020202" stroke-width="2" stroke-linecap="round" stroke-linejoin="round"/>
<path d="M339.487 267.659L341.529 281.717L347.619 283.709" stroke="#020202" stroke-width="2" stroke-linecap="round" stroke-linejoin="round"/>
<path d="M302.57 198.608C304.307 198.608 305.716 196.928 305.716 194.854C305.716 192.781 304.307 191.101 302.57 191.101C300.833 191.101 299.424 192.781 299.424 194.854C299.424 196.928 300.833 198.608 302.57 198.608Z" fill="white"/>
<path d="M302.821 198.607C304.11 198.607 305.156 197.464 305.156 196.055C305.156 194.646 304.11 193.503 302.821 193.503C301.531 193.503 300.486 194.646 300.486 196.055C300.486 197.464 301.531 198.607 302.821 198.607Z" fill="#221F20"/>
<path d="M314.02 198.609C315.758 198.609 317.166 196.928 317.166 194.855C317.166 192.782 315.758 191.101 314.02 191.101C312.283 191.101 310.875 192.782 310.875 194.855C310.875 196.928 312.283 198.609 314.02 198.609Z" fill="white"/>
<path d="M314.271 198.608C315.561 198.608 316.606 197.465 316.606 196.056C316.606 194.647 315.561 193.504 314.271 193.504C312.981 193.504 311.936 194.647 311.936 196.056C311.936 197.465 312.981 198.608 314.271 198.608Z" fill="#221F20"/>
<path d="M317.242 201.77C317.137 204.603 313.323 206.771 308.695 206.599C304.066 206.428 300.423 203.99 300.528 201.151" stroke="#020202" stroke-linecap="round" stroke-linejoin="round"/>
<path d="M288.92 216.819C288.92 216.819 294.016 191.381 272.967 187.469" stroke="#020202" stroke-width="2" stroke-linecap="round" stroke-linejoin="round"/>
<path d="M279.215 203.219L278.7 203.778L279.417 204.029C283.474 205.453 286.988 208.101 289.474 211.606C291.959 215.112 293.294 219.302 293.294 223.598C293.294 229.097 291.108 234.37 287.216 238.259C283.325 242.147 278.047 244.331 272.544 244.331H214.28C208.777 244.331 203.499 242.147 199.607 238.259C195.716 234.37 193.53 229.097 193.53 223.598C193.53 219.757 194.599 215.991 196.617 212.721C198.635 209.452 201.522 206.806 204.957 205.081L205.591 204.763L205.078 204.273C201.741 201.088 199.887 197.481 199.887 193.683C199.887 189.199 202.452 184.98 207 181.441L207.384 181.143L207.096 180.751C205.33 178.342 204.358 175.444 204.313 172.458C204.315 166.505 208.396 161.027 215.184 157.009C221.962 152.998 231.357 150.5 241.759 150.5C252.161 150.5 261.554 152.998 268.331 157.009C275.117 161.027 279.197 166.506 279.198 172.459C279.16 175.5 278.164 178.452 276.35 180.895L276.061 181.283L276.44 181.584C280.869 185.099 283.381 189.264 283.381 193.683C283.381 197.069 281.899 200.305 279.215 203.219Z" fill="#6B6B6B" stroke="white"/>
<path d="M187.541 219.433C187.541 219.433 182.451 193.996 203.494 190.084" stroke="#020202" stroke-width="2" stroke-linecap="round" stroke-linejoin="round"/>
<path d="M214.358 241.491L211.21 254.56L205.298 255.898" stroke="#020202" stroke-width="2" stroke-linecap="round" stroke-linejoin="round"/>
<path d="M270.756 241.491L272.689 254.798L278.453 256.683" stroke="#020202" stroke-width="2" stroke-linecap="round" stroke-linejoin="round"/>
<path d="M227.571 178.588C229.215 178.588 230.548 176.997 230.548 175.035C230.548 173.072 229.215 171.482 227.571 171.482C225.926 171.482 224.593 173.072 224.593 175.035C224.593 176.997 225.926 178.588 227.571 178.588Z" fill="white"/>
<path d="M227.808 178.587C229.029 178.587 230.018 177.505 230.018 176.171C230.018 174.837 229.029 173.756 227.808 173.756C226.587 173.756 225.598 174.837 225.598 176.171C225.598 177.505 226.587 178.587 227.808 178.587Z" fill="#221F20"/>
<path d="M238.408 178.588C240.053 178.588 241.386 176.998 241.386 175.035C241.386 173.073 240.053 171.482 238.408 171.482C236.764 171.482 235.431 173.073 235.431 175.035C235.431 176.998 236.764 178.588 238.408 178.588Z" fill="white"/>
<path d="M238.646 178.587C239.867 178.587 240.856 177.506 240.856 176.172C240.856 174.838 239.867 173.756 238.646 173.756C237.425 173.756 236.436 174.838 236.436 176.172C236.436 177.506 237.425 178.587 238.646 178.587Z" fill="#221F20"/>
<path d="M241.385 182.457C241.385 185.14 237.854 187.324 233.47 187.324C229.086 187.324 225.554 185.146 225.554 182.457" stroke="#020202" stroke-linecap="round" stroke-linejoin="round"/>
<path d="M171.92 215.819C171.92 215.819 177.016 190.381 155.967 186.469" stroke="#020202" stroke-width="2" stroke-linecap="round" stroke-linejoin="round"/>
<path d="M162.215 202.219L161.7 202.778L162.417 203.029C166.474 204.453 169.988 207.101 172.474 210.606C174.959 214.112 176.294 218.302 176.294 222.598C176.294 228.097 174.108 233.37 170.216 237.259C166.325 241.147 161.047 243.331 155.544 243.331H97.2799C91.7765 243.331 86.4986 241.147 82.6073 237.259C78.716 233.37 76.5299 228.097 76.5299 222.598C76.5303 218.757 77.5989 214.991 79.6167 211.721C81.6345 208.452 84.522 205.806 87.9571 204.081L88.5912 203.763L88.0779 203.273C84.7415 200.088 82.8866 196.481 82.8866 192.683C82.8866 188.199 85.4521 183.98 90.0003 180.441L90.3838 180.143L90.0965 179.751C88.3303 177.342 87.3576 174.444 87.3132 171.458C87.3149 165.505 91.3963 160.027 98.1838 156.009C104.962 151.998 114.357 149.5 124.759 149.5C135.161 149.5 144.554 151.998 151.331 156.009C158.117 160.027 162.197 165.506 162.198 171.459C162.16 174.5 161.164 177.452 159.35 179.895L159.061 180.283L159.44 180.584C163.869 184.099 166.381 188.264 166.381 192.683C166.381 196.069 164.899 199.305 162.215 202.219Z" fill="#6B6B6B" stroke="white"/>
<path d="M70.5411 218.433C70.5411 218.433 65.4509 192.996 86.4939 189.084" stroke="#020202" stroke-width="2" stroke-linecap="round" stroke-linejoin="round"/>
<path d="M97.3581 240.491L94.2102 253.56L88.298 254.898" stroke="#020202" stroke-width="2" stroke-linecap="round" stroke-linejoin="round"/>
<path d="M153.756 240.491L155.689 253.798L161.453 255.683" stroke="#020202" stroke-width="2" stroke-linecap="round" stroke-linejoin="round"/>
<path d="M125.977 179.106C127.622 179.106 128.955 177.515 128.955 175.553C128.955 173.591 127.622 172 125.977 172C124.333 172 123 173.591 123 175.553C123 177.515 124.333 179.106 125.977 179.106Z" fill="white"/>
<path d="M126.215 179.105C127.435 179.105 128.425 178.023 128.425 176.69C128.425 175.356 127.435 174.274 126.215 174.274C124.994 174.274 124.004 175.356 124.004 176.69C124.004 178.023 124.994 179.105 126.215 179.105Z" fill="#221F20"/>
<path d="M136.815 179.107C138.46 179.107 139.793 177.516 139.793 175.554C139.793 173.591 138.46 172 136.815 172C135.171 172 133.838 173.591 133.838 175.554C133.838 177.516 135.171 179.107 136.815 179.107Z" fill="white"/>
<path d="M137.053 179.106C138.273 179.106 139.263 178.024 139.263 176.69C139.263 175.356 138.273 174.275 137.053 174.275C135.832 174.275 134.842 175.356 134.842 176.69C134.842 178.024 135.832 179.106 137.053 179.106Z" fill="#221F20"/>
<path d="M124.385 181.457C124.385 184.14 120.854 186.324 116.47 186.324C112.086 186.324 108.554 184.146 108.554 181.457" stroke="#020202" stroke-linecap="round" stroke-linejoin="round"/>
<path d="M170.663 256.106C170.663 256.106 176.697 225.991 151.777 221.36" stroke="#020202" stroke-width="2" stroke-linecap="round" stroke-linejoin="round"/>
<path d="M159.24 240.068L158.726 240.627L159.443 240.878C164.263 242.57 168.439 245.717 171.393 249.882C174.347 254.048 175.933 259.027 175.933 264.133C175.933 270.667 173.335 276.934 168.711 281.554C164.087 286.175 157.815 288.771 151.275 288.771H82.2965C75.7567 288.771 69.4848 286.175 64.8606 281.554C60.2364 276.934 57.6387 270.667 57.6387 264.133C57.6391 259.568 58.909 255.093 61.3069 251.207C63.7047 247.322 67.136 244.178 71.2179 242.128L71.8521 241.81L71.3387 241.32C67.3764 237.538 65.1644 233.245 65.1644 228.716C65.1644 223.37 68.2236 218.351 73.6217 214.151L74.0052 213.852L73.7179 213.46C71.6155 210.593 70.4577 207.143 70.405 203.589C70.4067 196.495 75.2694 189.984 83.3198 185.219C91.3605 180.46 102.5 177.5 114.829 177.5C127.157 177.5 138.295 180.46 146.334 185.219C154.383 189.984 159.244 196.496 159.245 203.59C159.2 207.21 158.014 210.723 155.855 213.631L155.566 214.02L155.945 214.321C161.201 218.492 164.197 223.447 164.197 228.716C164.197 232.753 162.429 236.606 159.24 240.068Z" fill="#6B6B6B" stroke="white"/>
<path d="M50.6407 259.202C50.6407 259.202 44.6143 229.087 69.5271 224.456" stroke="#020202" stroke-width="2" stroke-linecap="round" stroke-linejoin="round"/>
<path d="M82.3893 285.316L78.6625 300.788L71.663 302.373" stroke="#020202" stroke-width="2" stroke-linecap="round" stroke-linejoin="round"/>
<path d="M149.159 285.316L151.447 301.07L158.271 303.302" stroke="#020202" stroke-width="2" stroke-linecap="round" stroke-linejoin="round"/>
<path d="M119.819 211.584C121.766 211.584 123.344 209.7 123.344 207.377C123.344 205.054 121.766 203.171 119.819 203.171C117.872 203.171 116.294 205.054 116.294 207.377C116.294 209.7 117.872 211.584 119.819 211.584Z" fill="white"/>
<path d="M120.1 211.582C121.545 211.582 122.717 210.302 122.717 208.723C122.717 207.143 121.545 205.863 120.1 205.863C118.655 205.863 117.483 207.143 117.483 208.723C117.483 210.302 118.655 211.582 120.1 211.582Z" fill="#221F20"/>
<path d="M132.65 211.584C134.597 211.584 136.175 209.701 136.175 207.378C136.175 205.054 134.597 203.171 132.65 203.171C130.703 203.171 129.125 205.054 129.125 207.378C129.125 209.701 130.703 211.584 132.65 211.584Z" fill="white"/>
<path d="M132.931 211.583C134.376 211.583 135.548 210.303 135.548 208.724C135.548 207.144 134.376 205.864 132.931 205.864C131.486 205.864 130.314 207.144 130.314 208.724C130.314 210.303 131.486 211.583 132.931 211.583Z" fill="#221F20"/>
<path d="M134.052 217.191C134.052 220.288 130.495 222.799 126.108 222.799C121.72 222.799 118.163 220.288 118.163 217.191" stroke="black"/>
<path d="M118.163 217.191H134.052" stroke="black" stroke-linecap="round"/>
<path d="M94.8893 153C94.8893 156.097 91.3324 158.608 86.9447 158.608C82.557 158.608 79 156.097 79 153" stroke="black"/>
<path d="M79 153H94.8893" stroke="black" stroke-linecap="round"/>
<path d="M221.889 128C221.889 131.097 218.332 133.608 213.945 133.608C209.557 133.608 206 131.097 206 128" stroke="black"/>
<path d="M206 128H221.889" stroke="black" stroke-linecap="round"/>
<path d="M346.889 166C346.889 169.097 343.332 171.608 338.945 171.608C334.557 171.608 331 169.097 331 166" stroke="black"/>
<path d="M331 166H346.889" stroke="black" stroke-linecap="round"/>
<path d="M321.852 264.263C321.852 264.263 327.745 234.85 303.405 230.326" stroke="#020202" stroke-width="2" stroke-linecap="round" stroke-linejoin="round"/>
<path d="M310.687 248.59L310.172 249.149L310.889 249.401C315.595 251.053 319.672 254.124 322.555 258.191C325.439 262.257 326.988 267.119 326.987 272.102C326.987 278.481 324.451 284.599 319.937 289.11C315.423 293.62 309.3 296.155 302.916 296.155H235.544C229.16 296.155 223.037 293.62 218.523 289.11C214.009 284.599 211.473 278.481 211.473 272.103C211.473 267.646 212.713 263.278 215.054 259.485C217.394 255.691 220.744 252.623 224.729 250.621L225.363 250.303L224.85 249.813C220.981 246.12 218.823 241.93 218.823 237.511C218.823 232.294 221.808 227.395 227.079 223.294L227.462 222.996L227.175 222.604C225.123 219.805 223.993 216.438 223.941 212.97C223.943 206.047 228.689 199.691 236.55 195.038C244.401 190.391 255.279 187.5 267.318 187.5C279.358 187.5 290.234 190.391 298.084 195.038C305.943 199.691 310.687 206.047 310.688 212.97C310.644 216.503 309.486 219.933 307.379 222.77L307.091 223.159L307.47 223.46C312.601 227.533 315.525 232.37 315.525 237.511C315.525 241.45 313.8 245.211 310.687 248.59Z" fill="#6B6B6B" stroke="white"/>
<path d="M204.626 267.287C204.626 267.287 198.74 237.873 223.072 233.35" stroke="#020202" stroke-width="2" stroke-linecap="round" stroke-linejoin="round"/>
<path d="M235.634 292.793L231.994 307.904L225.158 309.452" stroke="#020202" stroke-width="2" stroke-linecap="round" stroke-linejoin="round"/>
<path d="M300.848 292.793L303.083 308.179L309.749 310.359" stroke="#020202" stroke-width="2" stroke-linecap="round" stroke-linejoin="round"/>
<path d="M250.912 220.056C252.814 220.056 254.355 218.217 254.355 215.948C254.355 213.679 252.814 211.84 250.912 211.84C249.011 211.84 247.469 213.679 247.469 215.948C247.469 218.217 249.011 220.056 250.912 220.056Z" fill="white"/>
<path d="M251.187 220.055C252.598 220.055 253.743 218.805 253.743 217.262C253.743 215.72 252.598 214.469 251.187 214.469C249.775 214.469 248.631 215.72 248.631 217.262C248.631 218.805 249.775 220.055 251.187 220.055Z" fill="#221F20"/>
<path d="M263.444 220.057C265.346 220.057 266.887 218.218 266.887 215.949C266.887 213.679 265.346 211.84 263.444 211.84C261.543 211.84 260.001 213.679 260.001 215.949C260.001 218.218 261.543 220.057 263.444 220.057Z" fill="white"/>
<path d="M263.719 220.056C265.13 220.056 266.275 218.805 266.275 217.263C266.275 215.721 265.13 214.47 263.719 214.47C262.307 214.47 261.163 215.721 261.163 217.263C261.163 218.805 262.307 220.056 263.719 220.056Z" fill="#221F20"/>
<path d="M266.886 224.531C266.886 227.633 262.803 230.159 257.733 230.159C252.664 230.159 248.581 227.64 248.581 224.531" stroke="#020202" stroke-linecap="round" stroke-linejoin="round"/>
<path d="M257.356 277.805C257.356 277.805 263.824 245.521 237.109 240.556" stroke="#020202" stroke-width="2" stroke-linecap="round" stroke-linejoin="round"/>
<path d="M245.137 260.636L244.622 261.194L245.339 261.446C250.514 263.263 254.997 266.64 258.168 271.112C261.339 275.584 263.042 280.929 263.041 286.41C263.041 293.424 260.253 300.152 255.289 305.112C250.325 310.072 243.592 312.859 236.571 312.859H162.623C155.603 312.859 148.87 310.072 143.906 305.112C138.942 300.152 136.153 293.424 136.153 286.41C136.154 281.509 137.517 276.706 140.091 272.534C142.665 268.363 146.349 264.989 150.731 262.788L151.365 262.469L150.851 261.979C146.599 257.92 144.221 253.309 144.221 248.442C144.221 242.695 147.509 237.305 153.302 232.799L153.685 232.5L153.398 232.108C151.139 229.028 149.896 225.323 149.839 221.505C149.841 213.882 155.066 206.892 163.702 201.78C172.329 196.674 184.277 193.5 197.499 193.5C210.721 193.5 222.668 196.674 231.292 201.78C239.927 206.892 245.15 213.882 245.151 221.506C245.103 225.394 243.829 229.168 241.51 232.291L241.221 232.68L241.6 232.981C247.24 237.457 250.46 242.778 250.46 248.442C250.46 252.781 248.56 256.92 245.137 260.636Z" fill="#FACF63" stroke="white"/>
<path d="M126.687 205C126.687 205 120.226 237.285 146.934 242.25" stroke="#020202" stroke-width="2" stroke-linecap="round" stroke-linejoin="round"/>
<path d="M162.723 309.12L158.727 325.706L151.224 327.405" stroke="#020202" stroke-width="2" stroke-linecap="round" stroke-linejoin="round"/>
<path d="M234.302 309.12L236.755 326.008L244.071 328.401" stroke="#020202" stroke-width="2" stroke-linecap="round" stroke-linejoin="round"/>
<path d="M190.521 218.883C192.608 218.883 194.3 216.865 194.3 214.374C194.3 211.883 192.608 209.865 190.521 209.865C188.434 209.865 186.742 211.883 186.742 214.374C186.742 216.865 188.434 218.883 190.521 218.883Z" fill="white"/>
<path d="M190.805 216.131C192.354 216.131 193.61 214.759 193.61 213.066C193.61 211.372 192.354 210 190.805 210C189.256 210 188 211.372 188 213.066C188 214.759 189.256 216.131 190.805 216.131Z" fill="#221F20"/>
<path d="M204.276 218.884C206.363 218.884 208.055 216.865 208.055 214.374C208.055 211.884 206.363 209.865 204.276 209.865C202.189 209.865 200.497 211.884 200.497 214.374C200.497 216.865 202.189 218.884 204.276 218.884Z" fill="white"/>
<path d="M204.416 216.132C205.965 216.132 207.221 214.76 207.221 213.067C207.221 211.373 205.965 210.001 204.416 210.001C202.866 210.001 201.61 211.373 201.61 213.067C201.61 214.76 202.866 216.132 204.416 216.132Z" fill="#221F20"/>
<path d="M204.889 222C204.889 225.097 201.332 227.608 196.945 227.608C192.557 227.608 189 225.097 189 222" stroke="black"/>
<path d="M189 222H204.889" stroke="black" stroke-linecap="round"/>
<path fill-rule="evenodd" clip-rule="evenodd" d="M112.982 64.1457C116.486 60.8441 118.91 56.8622 119.917 52.3288C123.748 35.0758 105.591 16.3685 79.3631 10.5448C53.1349 4.72106 28.7673 13.9863 24.9364 31.2392C21.1056 48.4921 39.2622 67.1994 65.4903 73.0232C73.7916 74.8664 81.9065 75.1981 89.2429 74.2434L114.499 82.2697C116.911 83.0362 119.178 80.7717 118.315 78.4569L112.982 64.1457Z" fill="#E0DDDD"/>
<path fill-rule="evenodd" clip-rule="evenodd" d="M265.581 72.8842C262.648 69.0824 260.876 64.7746 260.577 60.1404C259.44 42.5039 280.072 26.8173 306.66 25.1033C333.248 23.3894 355.724 36.2972 356.861 53.9337C357.998 71.5702 337.365 87.2569 310.777 88.9708C302.362 89.5132 294.359 88.591 287.314 86.5177L261.354 90.5559C258.865 90.9431 256.987 88.3561 258.188 86.1937L265.581 72.8842Z" fill="#E0DDDD"/>
<path fill-rule="evenodd" clip-rule="evenodd" d="M215.115 76.5457C218.396 74.892 221.034 72.5061 222.756 69.4087C229.307 57.6209 220.091 39.9916 202.171 30.0325C184.251 20.0734 164.413 21.5559 157.862 33.3437C151.311 45.1315 160.527 62.7608 178.447 72.7199C184.182 75.9073 190.114 77.9227 195.743 78.8034C195.901 78.9735 196.082 79.1303 196.287 79.2696L211.066 89.3033C213.159 90.7249 215.977 89.1995 215.809 86.7348L215.115 76.5457Z" fill="#E0DDDD"/>
</svg>
