<svg width="134" height="138" viewBox="0 0 134 138" fill="none" xmlns="http://www.w3.org/2000/svg">
<path d="M127.356 84.8054C127.356 84.8054 133.824 52.5209 107.109 47.5558" stroke="#020202" stroke-width="2" stroke-linecap="round" stroke-linejoin="round"/>
<path d="M1.68682 84.2495C1.68682 84.2495 -4.77367 51.965 21.9338 46.9999" stroke="#020202" stroke-width="2" stroke-linecap="round" stroke-linejoin="round"/>
<path d="M45.499 116L41.5037 132.586L34 134.285" stroke="#020202" stroke-width="2" stroke-linecap="round" stroke-linejoin="round"/>
<path d="M89.7734 116L92.2261 132.888L99.5424 135.281" stroke="#020202" stroke-width="2" stroke-linecap="round" stroke-linejoin="round"/>
<path d="M115.137 67.6356L114.622 68.1945L115.339 68.4461C120.514 70.2626 124.997 73.6401 128.168 78.1119C131.339 82.5837 133.042 87.9291 133.041 93.4097C133.041 100.424 130.253 107.152 125.289 112.112C120.325 117.072 113.592 119.859 106.571 119.859H32.6234C25.6029 119.859 18.8701 117.072 13.906 112.112C8.94192 107.152 6.1532 100.424 6.1532 93.4097C6.15364 88.5094 7.51695 83.7056 10.091 79.5344C12.6651 75.3632 16.3486 71.9888 20.7305 69.7879L21.3647 69.4694L20.8514 68.9794C16.5988 64.9202 14.2211 60.3094 14.2211 55.442C14.2211 49.6953 17.5093 44.3052 23.3015 39.7986L23.6851 39.5002L23.3977 39.1083C21.1394 36.0282 19.8958 32.3226 19.8392 28.505C19.8409 20.8821 25.0659 13.8921 33.7021 8.78036C42.3285 3.67432 54.2773 0.5 67.4992 0.5C80.7211 0.5 92.6679 3.67432 101.292 8.78034C109.927 13.8922 115.15 20.8824 115.151 28.5056C115.103 32.3939 113.829 36.1681 111.51 39.2912L111.221 39.6799L111.6 39.9809C117.24 44.4568 120.46 49.7783 120.46 55.442C120.46 59.7806 118.56 63.9196 115.137 67.6356Z" fill="#FACF63" stroke="white"/>
</svg>
