<svg width="151" height="153" viewBox="0 0 151 153" fill="none" xmlns="http://www.w3.org/2000/svg">
<path d="M144.155 93.8518C144.155 93.8518 151.313 58.1234 121.748 52.6287" stroke="#020202" stroke-width="2" stroke-linecap="round" stroke-linejoin="round"/>
<path d="M131.039 75.2254C134.896 71.0381 137.077 66.3296 137.077 61.3562C137.077 54.8616 133.382 48.8286 127.062 43.8124C129.699 40.2617 131.147 35.9706 131.202 31.5497C131.202 14.1256 107.341 0 77.9128 0C48.4847 0 24.6154 14.1256 24.6154 31.5497C24.6789 35.891 26.0927 40.105 28.6606 43.6073C22.1695 48.6577 18.398 54.7676 18.398 61.3562C18.398 66.9363 21.1261 72.1747 25.9068 76.7379C20.9659 79.2197 16.8123 83.0246 13.9098 87.728C11.0073 92.4315 9.46998 97.8483 9.46948 103.374V103.374C9.46948 111.284 12.6141 118.869 18.2115 124.462C23.809 130.055 31.4007 133.198 39.3167 133.198H121.153C129.069 133.198 136.661 130.055 142.258 124.462C147.855 118.869 151 111.284 151 103.374C151.001 97.1942 149.08 91.1667 145.505 86.1243C141.929 81.0819 136.874 77.2735 131.039 75.2254V75.2254Z" fill="#FACF63"/>
<path d="M1.76008 97.5243C1.76008 97.5243 -5.38957 61.7959 24.1669 56.3012" stroke="#020202" stroke-width="2" stroke-linecap="round" stroke-linejoin="round"/>
<path d="M39.4264 128.507L35.0049 146.862L26.7007 148.742" stroke="#020202" stroke-width="2" stroke-linecap="round" stroke-linejoin="round"/>
<path d="M118.642 128.507L121.356 147.196L129.453 149.844" stroke="#020202" stroke-width="2" stroke-linecap="round" stroke-linejoin="round"/>
<path d="M67.3578 40.9155C67.3578 37.1469 72.318 34.0791 78.4756 34.0791C84.6332 34.0791 89.5935 37.1384 89.5935 40.9155" stroke="#020202" stroke-linecap="round" stroke-linejoin="round"/>
<path d="M75 26C74.5 28 72.5376 30 69.5 30C66.4624 30 64.5 28.5 64 26" stroke="black" stroke-linecap="round"/>
<path d="M94 26C93.5 28 91.5376 30 88.5 30C85.4624 30 83.5 28.5 83 26" stroke="black" stroke-linecap="round"/>
</svg>
