<svg width="390" height="387" viewBox="0 0 390 387" fill="none" xmlns="http://www.w3.org/2000/svg">
<path d="M68.9213 109.597C60.6015 151.198 18.8157 193.932 7.05358 208.587C-100.773 342.932 -4.19194 477.764 35.3354 512.628C114.243 594.431 240.493 593.279 341.144 532.072C471.952 452.527 479.023 286.365 395.942 208.587C364.47 179.124 359.95 150.744 353.518 120.203C316.75 8.4859 245.689 3.53543 203.265 3.53516C118.416 5.30283 77.7597 65.4036 68.9213 109.597Z" fill="#7F8DA8"/>
<path d="M51.2447 106.062C42.9248 147.662 1.13908 190.397 -10.6231 205.052C-118.45 339.397 -21.8686 474.229 17.6587 509.093C96.5659 590.895 222.817 589.744 323.467 528.537C454.275 448.992 461.346 282.83 378.265 205.052C346.793 175.589 342.274 147.209 335.841 116.668C299.073 4.95074 228.013 0.000271307 185.588 0C100.74 1.76768 60.083 61.8685 51.2447 106.062Z" fill="#98A7C2"/>
<path d="M173.334 95.4548C171.566 102.525 164.628 109.596 153.889 109.596C143.15 109.596 136.213 104.293 134.445 95.4548" stroke="black" stroke-width="1.5" stroke-linecap="round"/>
<path d="M240.506 95.4548C238.738 102.525 231.8 109.596 221.061 109.596C210.322 109.596 203.384 104.293 201.617 95.4548" stroke="black" stroke-width="1.5" stroke-linecap="round"/>
<path d="M173.334 134.343C173.334 134.343 196.314 130.808 205.152 134.343" stroke="black" stroke-linecap="round"/>
<g filter="url(#filter0_f_1128_10746)">
<circle cx="228.132" cy="125.505" r="8.83839" fill="#E37B72"/>
</g>
<g filter="url(#filter1_f_1128_10746)">
<circle cx="146.819" cy="125.505" r="8.83839" fill="#E37B72"/>
</g>
<path fill-rule="evenodd" clip-rule="evenodd" d="M127.342 107.012C127.28 105.149 126.901 100.593 126.901 100.593C126.901 100.593 121.323 103.052 120.948 103.232C120.827 103.291 120.659 103.393 120.486 103.504C120.296 103.617 120.111 103.742 119.933 103.879C119.815 103.962 119.737 104.018 119.737 104.018L119.751 104.026C119.1 104.575 118.554 105.296 118.185 106.155C117.026 108.848 118.037 111.882 120.443 112.932C122.85 113.982 125.74 112.65 126.899 109.957C127.318 108.983 127.453 107.965 127.342 107.012Z" fill="white"/>
<path fill-rule="evenodd" clip-rule="evenodd" d="M105.324 143.076C105.247 140.732 104.77 135.003 104.77 135.003C104.77 135.003 97.7547 138.095 97.2833 138.322C97.1315 138.395 96.9198 138.524 96.7023 138.664C96.4631 138.805 96.2308 138.963 96.0071 139.136C95.8583 139.24 95.7609 139.311 95.7609 139.311L95.7779 139.321C94.9601 140.011 94.2735 140.917 93.8085 141.998C92.3511 145.384 93.6228 149.2 96.6489 150.52C99.675 151.84 103.31 150.165 104.767 146.778C105.294 145.554 105.464 144.274 105.324 143.076Z" fill="white"/>
<defs>
<filter id="filter0_f_1128_10746" x="215.293" y="112.667" width="25.6768" height="25.6768" filterUnits="userSpaceOnUse" color-interpolation-filters="sRGB">
<feFlood flood-opacity="0" result="BackgroundImageFix"/>
<feBlend mode="normal" in="SourceGraphic" in2="BackgroundImageFix" result="shape"/>
<feGaussianBlur stdDeviation="2" result="effect1_foregroundBlur_1128_10746"/>
</filter>
<filter id="filter1_f_1128_10746" x="133.98" y="112.667" width="25.6768" height="25.6768" filterUnits="userSpaceOnUse" color-interpolation-filters="sRGB">
<feFlood flood-opacity="0" result="BackgroundImageFix"/>
<feBlend mode="normal" in="SourceGraphic" in2="BackgroundImageFix" result="shape"/>
<feGaussianBlur stdDeviation="2" result="effect1_foregroundBlur_1128_10746"/>
</filter>
</defs>
</svg>
