<svg width="390" height="387" viewBox="0 0 390 387" fill="none" xmlns="http://www.w3.org/2000/svg">
<path d="M68.9209 109.597C60.6011 151.197 18.8155 193.931 7.05343 208.586C-100.773 342.93 -4.19204 477.761 35.3351 512.624C114.242 594.426 240.492 593.275 341.142 532.069C471.95 452.524 479.021 286.363 395.94 208.586C364.468 179.123 359.949 150.743 353.516 120.203C316.749 8.48635 245.688 3.53592 203.264 3.53564C118.416 5.30331 77.7592 65.4037 68.9209 109.597Z" fill="#7F8DA8"/>
<path d="M51.2442 106.061C42.9244 147.661 1.13882 190.396 -10.6233 205.05C-118.45 339.394 -21.8687 474.225 17.6584 509.089C96.5652 590.891 222.815 589.739 323.466 528.533C454.273 448.988 461.344 282.828 378.264 205.05C346.792 175.588 342.272 147.208 335.839 116.667C299.072 4.9507 228.011 0.000271305 185.587 0C100.739 1.76767 60.0825 61.868 51.2442 106.061Z" fill="#98A7C2"/>
<path d="M173.333 134.342C173.333 134.342 192.777 127.272 205.151 134.342" stroke="black" stroke-linecap="round"/>
<g filter="url(#filter0_f_1128_10657)">
<ellipse cx="228.13" cy="125.504" rx="8.83836" ry="8.83833" fill="#E37B72"/>
</g>
<g filter="url(#filter1_f_1128_10657)">
<ellipse cx="146.818" cy="125.504" rx="8.83836" ry="8.83833" fill="#E37B72"/>
</g>
<path d="M154.346 107.446C163.386 108.098 171.345 99.8752 172.124 89.0797C172.903 78.2843 166.206 69.0041 157.167 68.3519C148.128 67.6996 140.168 75.9223 139.389 86.7178C138.611 97.5132 145.307 106.793 154.346 107.446Z" fill="white"/>
<path d="M155.65 107.541C162.361 108.025 168.229 102.469 168.759 95.1301C169.289 87.7914 164.278 81.4497 157.568 80.9655C150.858 80.4814 144.989 86.038 144.459 93.3767C143.93 100.715 148.94 107.057 155.65 107.541Z" fill="#221F20"/>
<path d="M150.228 91.9964C151.054 91.9842 151.711 91.1888 151.697 90.2198C151.682 89.2507 151.002 88.4751 150.176 88.4872C149.351 88.4994 148.693 89.2948 148.708 90.2639C148.722 91.2329 149.403 92.0086 150.228 91.9964Z" fill="white"/>
<path fill-rule="evenodd" clip-rule="evenodd" d="M149.835 109.927C149.99 109.924 150.138 109.874 150.273 109.785C150.452 109.947 150.657 110.038 150.875 110.035C151.19 110.03 151.474 109.828 151.684 109.501C151.989 109.846 152.405 110.055 152.86 110.049C153.274 110.043 153.652 109.995 153.94 109.783C154.147 109.971 154.39 110.078 154.65 110.074C155.105 110.068 155.501 109.722 155.731 109.2C155.977 109.706 156.38 110.034 156.831 110.028C157.022 110.025 157.204 109.962 157.366 109.851C157.533 109.99 157.721 110.067 157.92 110.064C158.207 110.06 158.467 109.89 158.668 109.609C158.826 109.879 159.024 110.039 159.237 110.036C159.73 110.028 160.117 109.149 160.101 108.071C160.085 106.993 159.673 106.126 159.179 106.133C158.964 106.136 158.768 106.306 158.618 106.586C158.41 106.317 158.146 106.157 157.862 106.161C157.691 106.164 157.53 106.226 157.384 106.334C157.2 106.197 156.993 106.122 156.773 106.125C156.354 106.131 155.984 106.426 155.749 106.88C155.561 106.406 155.211 106.107 154.592 106.172C154.552 106.172 154.514 106.172 154.478 106.172C154.207 106.174 154.054 106.175 153.92 106.344C153.672 106.217 153.316 106.146 152.803 106.146C152.063 106.12 151.62 106.192 151.362 106.334C151.197 106.202 151.012 106.129 150.817 106.132C150.649 106.134 150.489 106.193 150.345 106.297C150.175 106.154 149.982 106.074 149.778 106.077C149.119 106.086 148.598 106.956 148.614 108.019C148.629 109.082 149.176 109.936 149.835 109.927Z" fill="white"/>
<path d="M221.447 107.654C230.509 107.566 237.771 98.7218 237.667 87.8988C237.563 77.0758 230.132 68.3728 221.069 68.4601C212.007 68.5474 204.745 77.3919 204.849 88.2149C204.953 99.038 212.385 107.741 221.447 107.654Z" fill="white"/>
<path d="M222.755 107.641C229.482 107.576 234.878 101.559 234.807 94.2014C234.737 86.8439 229.226 80.9321 222.498 80.9969C215.771 81.0617 210.375 87.0786 210.446 94.4361C210.517 101.793 216.028 107.705 222.755 107.641Z" fill="#221F20"/>
<path d="M227.859 91.9202C228.649 91.9051 229.274 91.1075 229.255 90.1385C229.237 89.1696 228.582 88.3962 227.792 88.4113C227.003 88.4263 226.378 89.224 226.396 90.1929C226.415 91.1619 227.07 91.9352 227.859 91.9202Z" fill="white"/>
<path fill-rule="evenodd" clip-rule="evenodd" d="M220.252 110.065C220.497 110.061 220.723 109.933 220.909 109.715C221.103 109.921 221.334 110.039 221.581 110.035C221.897 110.031 222.181 109.828 222.39 109.501C222.696 109.846 223.111 110.056 223.567 110.049C223.929 110.044 224.262 109.902 224.531 109.667C224.76 109.927 225.047 110.08 225.357 110.075C225.812 110.068 226.208 109.722 226.438 109.201C226.684 109.707 227.087 110.035 227.538 110.028C227.729 110.026 227.911 109.963 228.073 109.852C228.24 109.99 228.428 110.068 228.627 110.065C228.913 110.06 229.174 109.89 229.375 109.61C229.533 109.879 229.731 110.039 229.944 110.036C230.437 110.029 230.824 109.149 230.808 108.072C230.792 106.994 230.379 106.126 229.886 106.133C229.67 106.137 229.475 106.307 229.325 106.587C229.116 106.317 228.853 106.158 228.569 106.162C228.398 106.164 228.236 106.226 228.091 106.335C227.907 106.198 227.699 106.122 227.48 106.126C227.025 106.132 226.629 106.478 226.399 106.999C226.153 106.493 225.75 106.166 225.299 106.172C225.013 106.176 224.751 106.314 224.538 106.545C224.252 106.29 223.895 106.14 223.509 106.146C223.07 106.153 222.673 106.36 222.381 106.692C222.158 106.342 221.855 106.128 221.524 106.132C221.3 106.136 221.093 106.238 220.916 106.414C220.713 106.162 220.462 106.014 220.193 106.018C219.534 106.027 219.013 106.941 219.03 108.059C219.046 109.176 219.594 110.074 220.252 110.065Z" fill="white"/>
<defs>
<filter id="filter0_f_1128_10657" x="215.292" y="112.666" width="25.6767" height="25.6768" filterUnits="userSpaceOnUse" color-interpolation-filters="sRGB">
<feFlood flood-opacity="0" result="BackgroundImageFix"/>
<feBlend mode="normal" in="SourceGraphic" in2="BackgroundImageFix" result="shape"/>
<feGaussianBlur stdDeviation="2" result="effect1_foregroundBlur_1128_10657"/>
</filter>
<filter id="filter1_f_1128_10657" x="133.979" y="112.666" width="25.6767" height="25.6768" filterUnits="userSpaceOnUse" color-interpolation-filters="sRGB">
<feFlood flood-opacity="0" result="BackgroundImageFix"/>
<feBlend mode="normal" in="SourceGraphic" in2="BackgroundImageFix" result="shape"/>
<feGaussianBlur stdDeviation="2" result="effect1_foregroundBlur_1128_10657"/>
</filter>
</defs>
</svg>
