<svg width="145" height="133" viewBox="0 0 145 133" fill="none" xmlns="http://www.w3.org/2000/svg">
<path d="M10.1705 31.9199C10.1705 31.9199 4.5863 59.7923 27.6505 64.0788" stroke="#2855F6" stroke-width="1.5" stroke-linecap="round" stroke-linejoin="round"/>
<path d="M112.782 72.1779L112.267 72.7368L112.984 72.9884C117.439 74.552 121.297 77.4592 124.027 81.3083C126.756 85.1574 128.222 89.7585 128.222 94.4759C128.222 100.514 125.821 106.304 121.548 110.574C117.276 114.843 111.48 117.242 105.437 117.242H41.5956C35.5527 117.242 29.7573 114.843 25.4845 110.574C21.2116 106.304 18.8112 100.514 18.8112 94.4759C18.8116 90.258 19.9851 86.1231 22.2007 82.5328C24.4163 78.9424 27.587 76.0379 31.3587 74.1434L31.9929 73.8249L31.4795 73.3349C27.8173 69.8393 25.7765 65.8753 25.7765 61.697C25.7765 56.764 28.599 52.1284 33.5896 48.2455L33.9732 47.9471L33.6858 47.5552C31.7446 44.9076 30.6756 41.7224 30.6269 38.4409C30.6285 31.8939 35.1167 25.8779 42.5616 21.4712C49.9969 17.0702 60.3002 14.332 71.7051 14.332C83.1099 14.332 93.4116 17.0702 100.845 21.4712C108.289 25.878 112.775 31.8942 112.777 38.4415C112.735 41.7839 111.639 45.0281 109.646 47.7128L109.357 48.1015L109.737 48.4025C114.596 52.2589 117.36 56.8353 117.36 61.697C117.36 65.4215 115.729 68.979 112.782 72.1779Z" fill="#FFB1CE" stroke="#2855F6"/>
<path d="M133.378 29.2678C133.378 29.2678 138.091 57.2992 114.912 60.8711" stroke="#2855F6" stroke-width="1.5" stroke-linecap="round" stroke-linejoin="round"/>
<path d="M41.6811 114.082L38.2318 128.402L31.7536 129.868" stroke="#2855F6" stroke-width="1.5" stroke-linecap="round" stroke-linejoin="round"/>
<path d="M103.479 114.082L105.596 128.662L111.912 130.728" stroke="#2855F6" stroke-width="1.5" stroke-linecap="round" stroke-linejoin="round"/>
<path d="M70.5178 39.341C71.8554 39.341 72.9396 38.1561 72.9396 36.6944C72.9396 35.2328 71.8554 34.0479 70.5178 34.0479C69.1803 34.0479 68.096 35.2328 68.096 36.6944C68.096 38.1561 69.1803 39.341 70.5178 39.341Z" fill="#2855F6"/>
<path d="M80.0938 39.341C81.4313 39.341 82.5156 38.1561 82.5156 36.6944C82.5156 35.2328 81.4313 34.0479 80.0938 34.0479C78.7563 34.0479 77.672 35.2328 77.672 36.6944C77.672 38.1561 78.7563 39.341 80.0938 39.341Z" fill="#2855F6"/>
<path d="M6.19324 48.2472L11.5283 24.9092" stroke="#744C36" stroke-width="2" stroke-linecap="round"/>
<path d="M137.795 49.3106L132.473 25.9697" stroke="#744C36" stroke-width="2" stroke-linecap="round"/>
<circle cx="14.0179" cy="14.0179" r="11.704" transform="rotate(12.8765 14.0179 14.0179)" fill="#3BB44B"/>
<circle cx="129.989" cy="15.0776" r="11.704" transform="rotate(-12.8454 129.989 15.0776)" fill="#EE1C25"/>
<path d="M126.582 22.9397L134.694 8.51166M123.424 11.6699L137.852 19.7815" stroke="white" stroke-width="2" stroke-linecap="round"/>
<path d="M7.67586 13.114L11.4394 20.523L21.9455 10.3731" stroke="white" stroke-width="2" stroke-linecap="round"/>
<path d="M80.864 45.752C80.864 44.5789 78.2531 43.624 75.012 43.624C71.7709 43.624 69.16 44.5762 69.16 45.752" stroke="#2855F6" stroke-linecap="round" stroke-linejoin="round"/>
</svg>
