<svg width="205" height="173" viewBox="0 0 205 173" fill="none" xmlns="http://www.w3.org/2000/svg">
<path d="M129.367 47.3262C129.367 47.3262 125.916 30.0998 140.171 27.4505" stroke="#020202" stroke-linecap="round" stroke-linejoin="round"/>
<path d="M190.564 35.931L190.049 36.4899L190.766 36.7416C193.482 37.6948 195.834 39.4672 197.498 41.8139C199.162 44.1606 200.056 46.9656 200.056 49.8416C200.056 53.5225 198.592 57.0527 195.987 59.6557C193.382 62.2586 189.849 63.721 186.165 63.721H146.708C143.024 63.721 139.491 62.2586 136.886 59.6557C134.281 57.0527 132.817 53.5225 132.817 49.8417C132.817 47.2702 133.533 44.7494 134.884 42.5605C136.234 40.3716 138.167 38.6009 140.467 37.4459L141.101 37.1273L140.588 36.6374C138.35 34.5014 137.122 32.0984 137.122 29.5828C137.122 26.6129 138.821 23.7979 141.877 21.4198L142.261 21.1214L141.973 20.7295C140.797 19.1256 140.15 17.196 140.12 15.208C140.121 11.2569 142.831 7.59118 147.402 4.88572C151.963 2.18597 158.296 0.5 165.317 0.5C172.337 0.5 178.67 2.18597 183.23 4.88569C187.799 7.59126 190.509 11.2572 190.51 15.2086C190.485 17.2337 189.821 19.1994 188.613 20.826L188.324 21.2147L188.703 21.5157C191.679 23.8775 193.343 26.6562 193.343 29.5828C193.343 31.8253 192.361 33.9798 190.564 35.931Z" fill="#9B8CFF" stroke="#9B8CFF"/>
<path d="M203.434 9.54043C203.434 9.54043 206.347 26.8651 192.021 29.0727" stroke="#020202" stroke-linecap="round" stroke-linejoin="round"/>
<path d="M146.761 61.959L144.629 70.8091L140.625 71.7155" stroke="#020202" stroke-linecap="round" stroke-linejoin="round"/>
<path d="M184.955 61.959L186.263 70.9702L190.167 72.247" stroke="#020202" stroke-linecap="round" stroke-linejoin="round"/>
<path d="M163.497 16.7226C164.323 16.7226 164.994 15.9903 164.994 15.0869C164.994 14.1835 164.323 13.4512 163.497 13.4512C162.67 13.4512 162 14.1835 162 15.0869C162 15.9903 162.67 16.7226 163.497 16.7226Z" fill="#020202"/>
<path d="M169.415 16.7226C170.242 16.7226 170.912 15.9903 170.912 15.0869C170.912 14.1835 170.242 13.4512 169.415 13.4512C168.589 13.4512 167.918 14.1835 167.918 15.0869C167.918 15.9903 168.589 16.7226 169.415 16.7226Z" fill="#020202"/>
<path d="M167 21.4512C169.209 21.4512 171 20.7796 171 19.9512C171 19.1227 169.209 18.4512 167 18.4512C164.791 18.4512 163 19.1227 163 19.9512C163 20.7796 164.791 21.4512 167 21.4512Z" fill="#020202"/>
<path d="M68.8954 124.489C68.8954 124.489 72.2904 107.544 58.2683 104.938" stroke="#020202" stroke-width="2" stroke-linecap="round" stroke-linejoin="round"/>
<path d="M62.3072 115.316L61.7924 115.875L62.5094 116.126C65.1793 117.063 67.4919 118.806 69.1278 121.113C70.7638 123.42 71.6423 126.178 71.642 129.005C71.642 132.624 70.2034 136.094 67.6424 138.653C65.0815 141.212 61.608 142.65 57.9861 142.65H19.1728C15.5509 142.65 12.0774 141.212 9.51644 138.653C6.9555 136.094 5.51685 132.624 5.51685 129.005C5.51707 126.477 6.22038 123.999 7.5483 121.847C8.87623 119.695 10.7765 117.954 13.0372 116.819L13.6713 116.5L13.158 116.01C10.9579 113.91 9.75146 111.548 9.75146 109.077C9.75146 106.159 11.4205 103.392 14.4259 101.053L14.8094 100.755L14.5221 100.363C13.3662 98.7866 12.7296 96.8902 12.7003 94.9363C12.7019 91.0538 15.3651 87.4501 19.86 84.7896C24.3452 82.1347 30.5735 80.4766 37.4782 80.4766C44.3829 80.4766 50.6102 82.1347 55.0943 84.7896C59.5884 87.4502 62.2507 91.0541 62.252 94.937C62.2269 96.9273 61.5745 98.8592 60.3874 100.458L60.0988 100.847L60.478 101.148C63.404 103.47 65.0386 106.201 65.0386 109.077C65.0386 111.28 64.0742 113.397 62.3072 115.316Z" fill="#C3C7FF" stroke="#C3C7FF"/>
<path d="M1.36049 126.23C1.36049 126.23 -2.03045 109.285 11.9876 106.679" stroke="#020202" stroke-linecap="round" stroke-linejoin="round"/>
<path d="M19.225 140.925L17.128 149.631L13.1895 150.522" stroke="#020202" stroke-linecap="round" stroke-linejoin="round"/>
<path d="M56.7954 140.925L58.0828 149.789L61.9229 151.045" stroke="#020202" stroke-width="2" stroke-linecap="round" stroke-linejoin="round"/>
<path d="M37.4724 91.6692C38.2856 91.6692 38.9448 90.9488 38.9448 90.0602C38.9448 89.1716 38.2856 88.4512 37.4724 88.4512C36.6592 88.4512 36 89.1716 36 90.0602C36 90.9488 36.6592 91.6692 37.4724 91.6692Z" fill="#221F20"/>
<path d="M44.6921 91.6692C45.5053 91.6692 46.1645 90.9488 46.1645 90.0602C46.1645 89.1716 45.5053 88.4512 44.6921 88.4512C43.8789 88.4512 43.2197 89.1716 43.2197 90.0602C43.2197 90.9488 43.8789 91.6692 44.6921 91.6692Z" fill="#221F20"/>
<path d="M166.585 125.256C166.585 125.256 170.079 107.819 155.649 105.137" stroke="#020202" stroke-linecap="round" stroke-linejoin="round"/>
<path d="M159.816 115.826L159.302 116.385L160.019 116.637C162.769 117.602 165.151 119.397 166.836 121.774C168.521 124.15 169.426 126.991 169.426 129.903C169.426 133.631 167.944 137.206 165.306 139.842C162.668 142.478 159.09 143.959 155.359 143.959H115.419C111.688 143.959 108.11 142.478 105.472 139.842C102.834 137.206 101.352 133.631 101.352 129.903C101.352 127.299 102.077 124.746 103.444 122.53C104.812 120.313 106.77 118.52 109.099 117.35L109.733 117.032L109.219 116.542C106.953 114.379 105.709 111.945 105.709 109.396C105.709 106.387 107.43 103.536 110.525 101.128L110.909 100.83L110.621 100.438C109.43 98.8135 108.774 96.8591 108.744 94.8454C108.745 90.8429 111.491 87.1306 116.119 84.3915C120.737 81.658 127.148 79.9512 134.256 79.9512C141.363 79.9512 147.774 81.658 152.391 84.3914C157.018 87.1307 159.762 90.8432 159.763 94.8461C159.738 96.8973 159.065 98.8882 157.842 100.536L157.553 100.925L157.932 101.226C160.945 103.617 162.631 106.431 162.631 109.396C162.631 111.668 161.637 113.85 159.816 115.826Z" fill="#D0D3FF" stroke="#D0D3FF"/>
<path d="M97.0892 127.048C97.0892 127.048 93.5998 109.611 108.025 106.929" stroke="#020202" stroke-width="2" stroke-linecap="round" stroke-linejoin="round"/>
<path d="M115.473 142.169L113.315 151.127L109.262 152.045" stroke="#020202" stroke-width="2" stroke-linecap="round" stroke-linejoin="round"/>
<path d="M154.134 142.169L155.458 151.291L159.41 152.583" stroke="#020202" stroke-linecap="round" stroke-linejoin="round"/>
<path d="M133.515 92.7626C134.352 92.7626 135.03 92.0213 135.03 91.1069C135.03 90.1925 134.352 89.4512 133.515 89.4512C132.678 89.4512 132 90.1925 132 91.1069C132 92.0213 132.678 92.7626 133.515 92.7626Z" fill="#221F20"/>
<path d="M140.945 92.7626C141.782 92.7626 142.46 92.0213 142.46 91.1069C142.46 90.1925 141.782 89.4512 140.945 89.4512C140.108 89.4512 139.43 90.1925 139.43 91.1069C139.43 92.0213 140.108 92.7626 140.945 92.7626Z" fill="#221F20"/>
<path d="M117.185 143.145C117.185 143.145 120.759 125.304 105.997 122.561" stroke="#2855F6" stroke-linecap="round" stroke-linejoin="round"/>
<path d="M110.268 133.505L109.753 134.064L110.47 134.315C113.286 135.304 115.726 137.142 117.451 139.575C119.177 142.008 120.103 144.917 120.103 147.899C120.103 151.716 118.586 155.376 115.884 158.075C113.183 160.774 109.52 162.291 105.699 162.291H64.8362C61.016 162.291 57.3524 160.774 54.6512 158.075C51.95 155.376 50.4326 151.716 50.4326 147.899C50.4329 145.233 51.1747 142.619 52.5753 140.349C53.9759 138.079 55.9803 136.243 58.3647 135.046L58.9988 134.727L58.4855 134.237C56.1657 132.023 54.8909 129.53 54.8909 126.918C54.8909 123.835 56.6544 120.915 59.8224 118.45L60.2059 118.152L59.9186 117.76C58.6984 116.096 58.0264 114.094 57.9954 112.031C57.9971 107.931 60.8097 104.129 65.5462 101.326C70.2731 98.5279 76.8351 96.7812 84.1084 96.7812C91.3817 96.7812 97.9427 98.5279 102.668 101.326C107.404 104.129 110.216 107.931 110.217 112.032C110.191 114.133 109.502 116.172 108.249 117.86L107.96 118.249L108.339 118.55C111.424 120.998 113.151 123.88 113.151 126.918C113.151 129.246 112.132 131.482 110.268 133.505Z" fill="#FDEABC" stroke="#2855F6"/>
<path d="M46.0831 144.979C46.0831 144.979 42.5131 127.138 57.2715 124.395" stroke="#2855F6" stroke-linecap="round" stroke-linejoin="round"/>
<path d="M64.8912 160.448L62.6834 169.614L58.5369 170.552" stroke="#2855F6" stroke-linecap="round" stroke-linejoin="round"/>
<path d="M104.446 160.448L105.801 169.781L109.844 171.103" stroke="#2855F6" stroke-linecap="round" stroke-linejoin="round"/>
<path d="M80.0001 118.414C80.0001 116.532 82.4769 115 85.5515 115C88.6262 115 91.103 116.528 91.103 118.414" stroke="#2855F6" stroke-width="0.8" stroke-linecap="round" stroke-linejoin="round"/>
<path d="M77 105.158C77.5253 105.645 78.4111 106.166 79.7891 105.846C81.1671 105.526 81.6655 104.607 81.9902 104" stroke="#2855F6" stroke-width="0.8" stroke-linecap="round"/>
<path d="M89.3959 104.001C89.598 104.688 90.0922 105.589 91.4396 106.019C92.787 106.45 93.6859 105.915 94.2754 105.561" stroke="#2855F6" stroke-width="0.8" stroke-linecap="round"/>
<path fill-rule="evenodd" clip-rule="evenodd" d="M79.8947 113.189C79.8779 112.68 79.7743 111.435 79.7743 111.435C79.7743 111.435 78.2502 112.107 78.1478 112.156C78.1148 112.172 78.0688 112.2 78.0216 112.231C77.9696 112.261 77.9191 112.295 77.8706 112.333C77.8382 112.356 77.8171 112.371 77.8171 112.371L77.8207 112.373C77.6431 112.523 77.4939 112.72 77.3929 112.955C77.0762 113.691 77.3525 114.52 78.01 114.806C78.6674 115.093 79.4571 114.729 79.7737 113.993C79.8882 113.728 79.9252 113.449 79.8947 113.189Z" fill="white"/>
<path d="M83.7668 110.733C83.5501 109.867 82.6997 109 81.3834 109C80.0671 109 79.2167 109.65 79 110.733" stroke="#2855F6" stroke-width="0.8" stroke-linecap="round"/>
<path d="M91.9999 110.733C91.7832 109.867 90.9328 109 89.6165 109C88.3002 109 87.4498 109.65 87.2332 110.733" stroke="#2855F6" stroke-width="0.8" stroke-linecap="round"/>
<path d="M162.5 10.4512L165 11.9512" stroke="black" stroke-linecap="round"/>
<path d="M170.5 10.4512L168 11.9512" stroke="black" stroke-linecap="round"/>
</svg>
