<svg width="163" height="176" viewBox="0 0 163 176" fill="none" xmlns="http://www.w3.org/2000/svg">
<path d="M125.96 132.811C125.96 132.811 131.208 106.615 109.531 102.586" stroke="#2855F6" stroke-width="1.5" stroke-linecap="round" stroke-linejoin="round"/>
<path d="M115.976 118.816L115.461 119.375L116.178 119.627C120.359 121.094 123.98 123.822 126.542 127.435C129.104 131.047 130.479 135.366 130.479 139.793C130.479 145.46 128.226 150.894 124.216 154.901C120.206 158.908 114.767 161.16 109.095 161.16H49.0935C43.4221 161.16 37.983 158.908 33.9728 154.901C29.9626 150.894 27.7098 145.46 27.7098 139.793C27.7101 135.834 28.8115 131.954 30.8909 128.584C32.9703 125.215 35.946 122.489 39.4859 120.711L40.1201 120.392L39.6068 119.902C36.1689 116.62 34.2561 112.902 34.2561 108.986C34.2561 104.362 36.9016 100.013 41.5876 96.3672L41.9712 96.0688L41.6838 95.6769C39.8631 93.1937 38.8604 90.2062 38.8147 87.1284C38.8164 80.9902 43.0245 75.3444 50.0168 71.2056C56.9994 67.0725 66.6776 64.5 77.3919 64.5C88.1063 64.5 97.7828 67.0725 104.764 71.2056C111.755 75.3444 115.962 80.9905 115.963 87.129C115.924 90.264 114.896 93.3069 113.027 95.8249L112.738 96.2136L113.117 96.5146C117.68 100.136 120.271 104.429 120.271 108.986C120.271 112.477 118.742 115.814 115.976 118.816Z" fill="#FFB1CE" stroke="#2855F6"/>
<path d="M21.5573 135.504C21.5573 135.504 16.3152 109.308 37.9858 105.279" stroke="#2855F6" stroke-width="1.5" stroke-linecap="round" stroke-linejoin="round"/>
<path d="M49.174 158.221L45.9322 171.679L39.8436 173.057" stroke="#2855F6" stroke-width="1.5" stroke-linecap="round" stroke-linejoin="round"/>
<path d="M107.254 158.221L109.244 171.924L115.181 173.865" stroke="#2855F6" stroke-width="1.5" stroke-linecap="round" stroke-linejoin="round"/>
<path d="M73.2762 95.9748C74.5333 95.9748 75.5523 94.8611 75.5523 93.4874C75.5523 92.1136 74.5333 91 73.2762 91C72.0191 91 71 92.1136 71 93.4874C71 94.8611 72.0191 95.9748 73.2762 95.9748Z" fill="#2855F6"/>
<path d="M82.2762 95.9748C83.5333 95.9748 84.5523 94.8611 84.5523 93.4874C84.5523 92.1136 83.5333 91 82.2762 91C81.0191 91 80 92.1136 80 93.4874C80 94.8611 81.0191 95.9748 82.2762 95.9748Z" fill="#2855F6"/>
<path d="M16.5896 163.756L1.83925 139.988L31.227 121.971L36.8764 122.735L37.7305 124.135L49.1186 142.801L16.5896 163.756Z" fill="white"/>
<path d="M31.227 121.971L36.8764 122.735L37.7305 124.135M31.227 121.971L1.83925 139.988L16.5896 163.756L49.1186 142.801L37.7305 124.135M31.227 121.971L33.0066 127.788L37.7305 124.135" stroke="#894D2B"/>
<path d="M28.4135 143.375C28.5407 143.572 28.5804 143.781 28.5326 144.002C28.4849 144.223 28.3624 144.398 28.1652 144.525L19.0616 150.395C18.8554 150.528 18.6462 150.567 18.434 150.514C18.2128 150.466 18.0387 150.344 17.9115 150.146L13.9923 144.068C13.8594 143.862 13.8152 143.656 13.8598 143.449C13.8954 143.249 14.0118 143.085 14.209 142.958C14.3973 142.836 14.5901 142.801 14.7876 142.851C14.9851 142.902 15.1503 143.03 15.2832 143.236L18.7515 148.615L22.0191 146.508L19.5306 142.649C19.4035 142.451 19.3622 142.249 19.4067 142.043C19.4366 141.833 19.5456 141.668 19.7339 141.547C19.9221 141.425 20.1224 141.391 20.3346 141.445C20.532 141.495 20.6944 141.619 20.8215 141.816L23.31 145.675L27.2634 143.126C27.4606 142.999 27.6698 142.959 27.891 143.007C28.1122 143.055 28.2864 143.177 28.4135 143.375Z" fill="#EE6363"/>
<path d="M26 136L31 143.5" stroke="#EE6363" stroke-linecap="round"/>
<path d="M28 135L33 142.5" stroke="#EE6363" stroke-linecap="round"/>
<path d="M67 87.6194C67.7347 88.3004 68.9736 89.0289 70.901 88.5817C72.8283 88.1345 73.5254 86.8484 73.9796 86" stroke="#2855F6" stroke-linecap="round"/>
<path d="M82.5539 85.9997C82.8365 86.9608 83.5277 88.2208 85.4123 88.8234C87.2969 89.4259 88.5541 88.6779 89.3787 88.1816" stroke="#2855F6" stroke-linecap="round"/>
<path d="M70 105.012C70 102.249 73.6369 99.9994 78.1516 99.9994C82.6663 99.9994 86.3031 102.242 86.3031 105.012" stroke="#2855F6" stroke-linecap="round" stroke-linejoin="round"/>
<path d="M134.564 55.1283C149.787 55.1283 162.128 42.7874 162.128 27.5642C162.128 12.3409 149.787 0 134.564 0C119.341 0 107 12.3409 107 27.5642C107 42.7874 119.341 55.1283 134.564 55.1283Z" fill="#F5BF48"/>
<path d="M134.564 48.2442C145.985 48.2442 155.244 38.9856 155.244 27.5645C155.244 16.1434 145.985 6.88477 134.564 6.88477C123.143 6.88477 113.884 16.1434 113.884 27.5645C113.884 38.9856 123.143 48.2442 134.564 48.2442Z" fill="#FDEABC"/>
<path d="M133.361 29.2501C134.549 29.2501 135.513 28.2868 135.513 27.0987C135.513 25.9105 134.549 24.9473 133.361 24.9473C132.173 24.9473 131.21 25.9105 131.21 27.0987C131.21 28.2868 132.173 29.2501 133.361 29.2501Z" fill="black"/>
<path d="M131.5 13.3301L133.133 25.2374L134.248 28.1791L147.367 34.2381" stroke="black" stroke-miterlimit="10"/>
<path d="M131.5 13.8478L128.435 14.041L129.796 11.2925L131.166 8.53516L132.861 11.0905L134.564 13.6546L131.5 13.8478Z" fill="black"/>
<path d="M147.306 34.2377L148.473 31.4014L150.344 33.8338L152.223 36.2661L149.176 36.6701L146.138 37.0828L147.306 34.2377Z" fill="black"/>
<path d="M56.2917 62.0568L64.2978 38.1409C64.6242 37.4576 64.734 36.0173 62.563 35.7221L55.0322 36.0874C55.1059 33.9333 57.0453 29.4586 64.1875 28.6464C64.2498 28.6393 64.3125 28.6325 64.3755 28.626C65.265 28.4578 66.4273 28.3201 67.7211 28.2806C71.6081 28.1618 76.6827 28.9287 79.1173 32.4162L91.7699 59.8354L56.2917 62.0568Z" fill="#4B9AF9"/>
<path d="M64.3755 28.626C68.7226 28.1766 68.9244 28.1559 67.7211 28.2806C66.4273 28.3201 65.265 28.4578 64.3755 28.626Z" fill="#4B9AF9"/>
<path d="M64.3755 28.626C64.3125 28.6325 64.2498 28.6393 64.1875 28.6464M64.3755 28.626C71.6718 27.8716 67.2903 28.3253 64.1875 28.6464M64.3755 28.626C67.9374 27.9526 75.8724 27.7679 79.1173 32.4162L91.7699 59.8354L56.2917 62.0568L64.2978 38.1409C64.6242 37.4576 64.734 36.0173 62.563 35.7221L55.0322 36.0874C55.1059 33.9333 57.0453 29.4586 64.1875 28.6464" stroke="#4B9AF9" stroke-linecap="round"/>
<rect x="53.0052" y="60.9971" width="42.0068" height="10" rx="2" transform="rotate(-2.77669 53.0052 60.9971)" fill="#485FD3"/>
<ellipse cx="53.3078" cy="37.8309" rx="7.00113" ry="6.5" transform="rotate(-2.77669 53.3078 37.8309)" fill="#485FD3"/>
<ellipse cx="54.9942" cy="39.2511" rx="3.23129" ry="3" transform="rotate(-2.77669 54.9942 39.2511)" fill="#4B9AF9"/>
<path d="M65 49C64.6444 52.2941 62.1852 53.5098 61 53.7059C63.8444 54.1765 64.8519 57.4314 65 59C65.7111 55.2353 67.963 53.902 69 53.7059C66.1556 53.2353 65.1481 50.3725 65 49Z" fill="#F0CE5C"/>
<path d="M75.9049 34.8673C76.2719 38.1601 74.1346 39.88 73.0201 40.3284C75.8989 40.1711 77.588 43.1303 78.0726 44.6295C77.9508 40.8001 79.86 39.0104 80.8299 38.5941C77.9511 38.7514 76.347 36.1751 75.9049 34.8673Z" fill="#F0CE5C"/>
<path d="M80.9049 44.8673C81.2719 48.1601 79.1346 49.88 78.0201 50.3284C80.8989 50.1711 82.588 53.1303 83.0726 54.6295C82.9508 50.8001 84.86 49.0104 85.8299 48.5941C82.9511 48.7514 81.347 46.1751 80.9049 44.8673Z" fill="#F0CE5C"/>
<circle cx="76" cy="54.999" r="2" fill="#F0CE5C"/>
<circle cx="70" cy="45.999" r="2" fill="#F0CE5C"/>
<circle cx="70" cy="33" r="2" fill="#F0CE5C"/>
</svg>
