<svg width="214" height="167" viewBox="0 0 214 167" fill="none" xmlns="http://www.w3.org/2000/svg">
<path d="M148.824 98.1229L148.536 98.5117L148.915 98.8126C153.232 102.239 155.68 106.298 155.68 110.602C155.68 113.9 154.235 117.054 151.619 119.894L151.105 120.453L151.822 120.704C155.776 122.092 159.201 124.673 161.623 128.089C164.046 131.506 165.347 135.59 165.347 139.777C165.347 145.137 163.216 150.277 159.424 154.066C155.631 157.856 150.487 159.985 145.123 159.985H88.3C82.936 159.985 77.7919 157.856 73.9991 154.066C70.2064 150.277 68.0757 145.137 68.0757 139.778C68.076 136.033 69.1176 132.363 71.0843 129.176C73.051 125.989 75.8653 123.411 79.2133 121.73L79.8475 121.411L79.3341 120.921C76.082 117.817 74.2752 114.302 74.2752 110.602C74.2752 106.235 76.7742 102.123 81.208 98.6732L81.5916 98.3748L81.3042 97.983C79.5833 95.6358 78.6355 92.812 78.5922 89.9028C78.5939 84.1031 82.5702 78.7636 89.1878 74.8466C95.7958 70.9353 104.956 68.5 115.099 68.5C125.242 68.5 134.401 70.9353 141.007 74.8466C147.624 78.7637 151.599 84.1034 151.6 89.9034C151.563 92.8667 150.592 95.7429 148.824 98.1229Z" fill="#FFB1CE" stroke="#553CFD"/>
<path d="M102.37 126.58C102.37 126.58 77.3589 130.388 74.5001 109.711" stroke="#553CFD" stroke-linecap="round" stroke-linejoin="round"/>
<path d="M128.593 125.321C128.593 125.321 153.882 126.088 154.223 105.211" stroke="#553CFD" stroke-linecap="round" stroke-linejoin="round"/>
<path d="M111.276 101.186C112.533 101.186 113.552 100.072 113.552 98.6983C113.552 97.3246 112.533 96.2109 111.276 96.2109C110.019 96.2109 109 97.3246 109 98.6983C109 100.072 110.019 101.186 111.276 101.186Z" fill="#2855F6"/>
<path d="M120.276 101.186C121.533 101.186 122.552 100.072 122.552 98.6983C122.552 97.3246 121.533 96.2109 120.276 96.2109C119.019 96.2109 118 97.3246 118 98.6983C118 100.072 119.019 101.186 120.276 101.186Z" fill="#2855F6"/>
<path d="M105 92.8294C105.735 93.5104 106.973 94.2389 108.901 93.7917C110.828 93.3445 111.525 92.0584 111.979 91.21" stroke="#2855F6" stroke-linecap="round"/>
<path d="M120.554 91.2097C120.836 92.1707 121.528 93.4308 123.412 94.0333C125.297 94.6358 126.554 93.8879 127.379 93.3916" stroke="#2855F6" stroke-linecap="round"/>
<path d="M108 110.223C108 107.46 111.637 105.21 116.152 105.21C120.666 105.21 124.303 107.453 124.303 110.223" stroke="#2855F6" stroke-linecap="round" stroke-linejoin="round"/>
<path d="M80.9035 147.878L81.9133 162.568L73.4388 165.783" stroke="#553CFD" stroke-linecap="round" stroke-linejoin="round"/>
<path d="M136.619 147.878L137.629 162.568L129.154 165.783" stroke="#553CFD" stroke-linecap="round" stroke-linejoin="round"/>
<path d="M80.929 147.211L92.5364 153.015" stroke="#553CFD" stroke-linecap="round"/>
<path d="M136.645 147.211L148.252 153.015" stroke="#553CFD" stroke-linecap="round"/>
<g opacity="0.8" filter="url(#filter0_i_3146_1073)">
<path d="M179.466 43.4511C178.599 43.4609 177.736 43.5542 176.891 43.7294C176.891 43.7294 174.048 35.6166 163.86 39.6336C163.86 39.6336 161.212 25.885 144.204 32.8521C144.204 32.8521 139.95 21.2883 127.722 21.344C126.005 21.344 124.3 21.344 122.607 21.344C110.358 21.2883 106.124 32.8521 106.124 32.8521C89.07 25.885 86.4122 39.6336 86.4122 39.6336C76.2239 35.6166 73.3807 43.7294 73.3807 43.7294C72.5357 43.5542 71.6723 43.4609 70.8053 43.4511C65.4742 43.2191 67.0607 46.6192 67.0607 46.6192H183.216C183.216 46.6192 184.792 43.2191 179.466 43.4511Z" fill="#989595" fill-opacity="0.51"/>
</g>
<g opacity="0.8" filter="url(#filter1_i_3146_1073)">
<path d="M87.6973 37.1347C87.1 37.1415 86.5052 37.2057 85.9231 37.3264C85.9231 37.3264 83.9645 31.7377 76.9459 34.5049C76.9459 34.5049 75.1221 25.0337 63.4056 29.8332C63.4056 29.8332 60.4746 21.8671 52.051 21.9054C50.8682 21.9054 49.6937 21.9054 48.5275 21.9054C40.0896 21.8671 37.1729 29.8332 37.1729 29.8332C25.4244 25.0337 23.5935 34.5049 23.5935 34.5049C16.5749 31.7377 14.6163 37.3264 14.6163 37.3264C14.0342 37.2057 13.4394 37.1415 12.8421 37.1347C9.16961 36.9749 10.2625 39.3172 10.2625 39.3172H90.2805C90.2805 39.3172 91.3662 36.9749 87.6973 37.1347Z" fill="#989595"/>
</g>
<g opacity="0.8" filter="url(#filter2_i_3146_1073)">
<path d="M130.947 15.2294C130.349 15.2362 129.755 15.3005 129.172 15.4211C129.172 15.4211 127.214 9.83239 120.195 12.5996C120.195 12.5996 118.371 3.12844 106.655 7.92793C106.655 7.92793 103.724 -0.0382068 95.3002 0.000137986C94.1175 0.000137986 92.943 0.000137986 91.7767 0.000137986C83.3389 -0.0382068 80.4222 7.92793 80.4222 7.92793C68.6737 3.12844 66.8428 12.5996 66.8428 12.5996C59.8242 9.83239 57.8655 15.4211 57.8655 15.4211C57.2834 15.3005 56.6887 15.2362 56.0914 15.2294C52.4189 15.0697 53.5118 17.4119 53.5118 17.4119H133.53C133.53 17.4119 134.616 15.0697 130.947 15.2294Z" fill="#989595" fill-opacity="0.35"/>
</g>
<g opacity="0.8" filter="url(#filter3_i_3146_1073)">
<path d="M211.267 24.2158C210.669 24.2225 210.075 24.2868 209.492 24.4075C209.492 24.4075 207.534 18.8187 200.515 21.5859C200.515 21.5859 198.691 12.1148 186.975 16.9143C186.975 16.9143 184.044 8.94812 175.62 8.98647C174.438 8.98647 173.263 8.98647 172.097 8.98647C163.659 8.94812 160.742 16.9143 160.742 16.9143C148.994 12.1148 147.163 21.5859 147.163 21.5859C140.144 18.8187 138.186 24.4075 138.186 24.4075C137.604 24.2868 137.009 24.2225 136.411 24.2158C132.739 24.056 133.832 26.3982 133.832 26.3982H213.85C213.85 26.3982 214.936 24.056 211.267 24.2158Z" fill="#989595" fill-opacity="0.44"/>
</g>
<g opacity="0.8" filter="url(#filter4_i_3146_1073)">
<path d="M132.07 60.164C131.473 60.1708 130.878 60.235 130.296 60.3557C130.296 60.3557 128.337 54.767 121.318 57.5342C121.318 57.5342 119.495 48.063 107.778 52.8625C107.778 52.8625 104.847 44.8964 96.4235 44.9347C95.2407 44.9347 94.0663 44.9347 92.9 44.9347C84.4622 44.8964 81.5454 52.8625 81.5454 52.8625C69.797 48.063 67.9661 57.5342 67.9661 57.5342C60.9475 54.767 58.9888 60.3557 58.9888 60.3557C58.4067 60.235 57.812 60.1708 57.2147 60.164C53.5422 60.0042 54.635 62.3465 54.635 62.3465H134.653C134.653 62.3465 135.739 60.0042 132.07 60.164Z" fill="#989595" fill-opacity="0.8"/>
</g>
<g opacity="0.8" filter="url(#filter5_i_3146_1073)">
<path d="M77.5869 77.5761C76.9897 77.5829 76.3949 77.6471 75.8128 77.7678C75.8128 77.7678 73.8541 72.1791 66.8356 74.9463C66.8356 74.9463 65.0117 65.4751 53.2952 70.2746C53.2952 70.2746 50.3643 62.3085 41.9406 62.3468C40.7578 62.3468 39.5833 62.3468 38.4171 62.3468C29.9792 62.3085 27.0625 70.2746 27.0625 70.2746C15.3141 65.4751 13.4831 74.9463 13.4831 74.9463C6.46458 72.1791 4.50592 77.7678 4.50592 77.7678C3.92381 77.6471 3.32905 77.5829 2.73176 77.5761C-0.940741 77.4163 0.152139 79.7586 0.152139 79.7586H80.1701C80.1701 79.7586 81.2559 77.4163 77.5869 77.5761Z" fill="#989595" fill-opacity="0.4"/>
</g>
<g opacity="0.8" filter="url(#filter6_i_3146_1073)">
<path d="M194.978 74.7675C194.381 74.7743 193.786 74.8386 193.204 74.9592C193.204 74.9592 191.245 69.3705 184.227 72.1377C184.227 72.1377 182.403 62.6665 170.686 67.466C170.686 67.466 167.755 59.4999 159.332 59.5382C158.149 59.5382 156.974 59.5382 155.808 59.5382C147.37 59.4999 144.454 67.466 144.454 67.466C132.705 62.6665 130.874 72.1377 130.874 72.1377C123.856 69.3705 121.897 74.9592 121.897 74.9592C121.315 74.8386 120.72 74.7743 120.123 74.7675C116.45 74.6077 117.543 76.95 117.543 76.95H197.561C197.561 76.95 198.647 74.6077 194.978 74.7675Z" fill="#989595"/>
</g>
<defs>
<filter id="filter0_i_3146_1073" x="66.8398" y="21.3438" width="118.594" height="27.2754" filterUnits="userSpaceOnUse" color-interpolation-filters="sRGB">
<feFlood flood-opacity="0" result="BackgroundImageFix"/>
<feBlend mode="normal" in="SourceGraphic" in2="BackgroundImageFix" result="shape"/>
<feColorMatrix in="SourceAlpha" type="matrix" values="0 0 0 0 0 0 0 0 0 0 0 0 0 0 0 0 0 0 127 0" result="hardAlpha"/>
<feOffset dx="5" dy="10"/>
<feGaussianBlur stdDeviation="1"/>
<feComposite in2="hardAlpha" operator="arithmetic" k2="-1" k3="1"/>
<feColorMatrix type="matrix" values="0 0 0 0 0 0 0 0 0 0 0 0 0 0 0 0 0 0 0.25 0"/>
<feBlend mode="normal" in2="shape" result="effect1_innerShadow_3146_1073"/>
</filter>
<filter id="filter1_i_3146_1073" x="10.1104" y="21.9053" width="82.3203" height="19.4121" filterUnits="userSpaceOnUse" color-interpolation-filters="sRGB">
<feFlood flood-opacity="0" result="BackgroundImageFix"/>
<feBlend mode="normal" in="SourceGraphic" in2="BackgroundImageFix" result="shape"/>
<feColorMatrix in="SourceAlpha" type="matrix" values="0 0 0 0 0 0 0 0 0 0 0 0 0 0 0 0 0 0 127 0" result="hardAlpha"/>
<feOffset dx="5" dy="10"/>
<feGaussianBlur stdDeviation="1"/>
<feComposite in2="hardAlpha" operator="arithmetic" k2="-1" k3="1"/>
<feColorMatrix type="matrix" values="0 0 0 0 0 0 0 0 0 0 0 0 0 0 0 0 0 0 0.25 0"/>
<feBlend mode="normal" in2="shape" result="effect1_innerShadow_3146_1073"/>
</filter>
<filter id="filter2_i_3146_1073" x="53.3596" y="0" width="82.3203" height="19.4121" filterUnits="userSpaceOnUse" color-interpolation-filters="sRGB">
<feFlood flood-opacity="0" result="BackgroundImageFix"/>
<feBlend mode="normal" in="SourceGraphic" in2="BackgroundImageFix" result="shape"/>
<feColorMatrix in="SourceAlpha" type="matrix" values="0 0 0 0 0 0 0 0 0 0 0 0 0 0 0 0 0 0 127 0" result="hardAlpha"/>
<feOffset dx="5" dy="10"/>
<feGaussianBlur stdDeviation="1"/>
<feComposite in2="hardAlpha" operator="arithmetic" k2="-1" k3="1"/>
<feColorMatrix type="matrix" values="0 0 0 0 0 0 0 0 0 0 0 0 0 0 0 0 0 0 0.25 0"/>
<feBlend mode="normal" in2="shape" result="effect1_innerShadow_3146_1073"/>
</filter>
<filter id="filter3_i_3146_1073" x="133.68" y="8.98633" width="82.3203" height="19.4121" filterUnits="userSpaceOnUse" color-interpolation-filters="sRGB">
<feFlood flood-opacity="0" result="BackgroundImageFix"/>
<feBlend mode="normal" in="SourceGraphic" in2="BackgroundImageFix" result="shape"/>
<feColorMatrix in="SourceAlpha" type="matrix" values="0 0 0 0 0 0 0 0 0 0 0 0 0 0 0 0 0 0 127 0" result="hardAlpha"/>
<feOffset dx="5" dy="10"/>
<feGaussianBlur stdDeviation="1"/>
<feComposite in2="hardAlpha" operator="arithmetic" k2="-1" k3="1"/>
<feColorMatrix type="matrix" values="0 0 0 0 0 0 0 0 0 0 0 0 0 0 0 0 0 0 0.25 0"/>
<feBlend mode="normal" in2="shape" result="effect1_innerShadow_3146_1073"/>
</filter>
<filter id="filter4_i_3146_1073" x="54.4829" y="44.9346" width="82.3203" height="19.4121" filterUnits="userSpaceOnUse" color-interpolation-filters="sRGB">
<feFlood flood-opacity="0" result="BackgroundImageFix"/>
<feBlend mode="normal" in="SourceGraphic" in2="BackgroundImageFix" result="shape"/>
<feColorMatrix in="SourceAlpha" type="matrix" values="0 0 0 0 0 0 0 0 0 0 0 0 0 0 0 0 0 0 127 0" result="hardAlpha"/>
<feOffset dx="5" dy="10"/>
<feGaussianBlur stdDeviation="1"/>
<feComposite in2="hardAlpha" operator="arithmetic" k2="-1" k3="1"/>
<feColorMatrix type="matrix" values="0 0 0 0 0 0 0 0 0 0 0 0 0 0 0 0 0 0 0.25 0"/>
<feBlend mode="normal" in2="shape" result="effect1_innerShadow_3146_1073"/>
</filter>
<filter id="filter5_i_3146_1073" x="0" y="62.3467" width="82.3203" height="19.4121" filterUnits="userSpaceOnUse" color-interpolation-filters="sRGB">
<feFlood flood-opacity="0" result="BackgroundImageFix"/>
<feBlend mode="normal" in="SourceGraphic" in2="BackgroundImageFix" result="shape"/>
<feColorMatrix in="SourceAlpha" type="matrix" values="0 0 0 0 0 0 0 0 0 0 0 0 0 0 0 0 0 0 127 0" result="hardAlpha"/>
<feOffset dx="5" dy="10"/>
<feGaussianBlur stdDeviation="1"/>
<feComposite in2="hardAlpha" operator="arithmetic" k2="-1" k3="1"/>
<feColorMatrix type="matrix" values="0 0 0 0 0 0 0 0 0 0 0 0 0 0 0 0 0 0 0.25 0"/>
<feBlend mode="normal" in2="shape" result="effect1_innerShadow_3146_1073"/>
</filter>
<filter id="filter6_i_3146_1073" x="117.391" y="59.5381" width="82.3203" height="19.4121" filterUnits="userSpaceOnUse" color-interpolation-filters="sRGB">
<feFlood flood-opacity="0" result="BackgroundImageFix"/>
<feBlend mode="normal" in="SourceGraphic" in2="BackgroundImageFix" result="shape"/>
<feColorMatrix in="SourceAlpha" type="matrix" values="0 0 0 0 0 0 0 0 0 0 0 0 0 0 0 0 0 0 127 0" result="hardAlpha"/>
<feOffset dx="5" dy="10"/>
<feGaussianBlur stdDeviation="1"/>
<feComposite in2="hardAlpha" operator="arithmetic" k2="-1" k3="1"/>
<feColorMatrix type="matrix" values="0 0 0 0 0 0 0 0 0 0 0 0 0 0 0 0 0 0 0.25 0"/>
<feBlend mode="normal" in2="shape" result="effect1_innerShadow_3146_1073"/>
</filter>
</defs>
</svg>
