<svg width="204" height="190" viewBox="0 0 204 190" fill="none" xmlns="http://www.w3.org/2000/svg">
<g filter="url(#filter0_d_3146_916)">
<mask id="path-1-inside-1_3146_916" fill="white">
<path fill-rule="evenodd" clip-rule="evenodd" d="M56.0699 166.907C56.3458 163.569 54.0979 160.47 50.7343 159.765C47.9158 159.174 45.1398 160.438 43.6741 162.727C43.5346 162.688 43.393 162.654 43.2494 162.624C39.6064 161.86 36.0343 164.194 35.2709 167.837C34.8447 169.871 35.3839 171.883 36.5774 173.396C36.5452 173.512 36.5165 173.629 36.4915 173.749C35.8644 176.741 37.7819 179.675 40.7743 180.302C42.0152 180.563 43.246 180.385 44.3065 179.875C45.073 180.768 46.1292 181.425 47.3703 181.685C50.3271 182.305 53.227 180.44 53.9007 177.509C56.4399 177.48 58.7082 175.696 59.2506 173.108C59.7968 170.502 58.413 167.94 56.0699 166.907Z"/>
</mask>
<path fill-rule="evenodd" clip-rule="evenodd" d="M56.0699 166.907C56.3458 163.569 54.0979 160.47 50.7343 159.765C47.9158 159.174 45.1398 160.438 43.6741 162.727C43.5346 162.688 43.393 162.654 43.2494 162.624C39.6064 161.86 36.0343 164.194 35.2709 167.837C34.8447 169.871 35.3839 171.883 36.5774 173.396C36.5452 173.512 36.5165 173.629 36.4915 173.749C35.8644 176.741 37.7819 179.675 40.7743 180.302C42.0152 180.563 43.246 180.385 44.3065 179.875C45.073 180.768 46.1292 181.425 47.3703 181.685C50.3271 182.305 53.227 180.44 53.9007 177.509C56.4399 177.48 58.7082 175.696 59.2506 173.108C59.7968 170.502 58.413 167.94 56.0699 166.907Z" fill="#FFFEFC"/>
<path d="M56.0699 166.907L55.5716 166.866L55.5423 167.221L55.8683 167.365L56.0699 166.907ZM43.6741 162.727L43.5405 163.209L43.8961 163.307L44.0951 162.996L43.6741 162.727ZM36.5774 173.396L37.0591 173.53L37.127 173.286L36.97 173.086L36.5774 173.396ZM44.3065 179.875L44.686 179.549L44.4359 179.258L44.0898 179.424L44.3065 179.875ZM53.9007 177.509L53.895 177.009L53.5015 177.014L53.4134 177.397L53.9007 177.509ZM56.5682 166.949C56.8646 163.362 54.4503 160.033 50.8368 159.275L50.6317 160.254C53.7454 160.907 55.827 163.776 55.5716 166.866L56.5682 166.949ZM50.8368 159.275C47.8085 158.641 44.827 159.999 43.253 162.457L44.0951 162.996C45.4526 160.876 48.0232 159.707 50.6317 160.254L50.8368 159.275ZM43.8076 162.245C43.6579 162.203 43.506 162.166 43.3519 162.134L43.1468 163.113C43.28 163.141 43.4113 163.173 43.5405 163.209L43.8076 162.245ZM43.3519 162.134C39.4387 161.314 35.6016 163.822 34.7815 167.735L35.7602 167.94C36.467 164.567 39.7741 162.406 43.1468 163.113L43.3519 162.134ZM34.7815 167.735C34.3236 169.92 34.9036 172.081 36.1848 173.706L36.97 173.086C35.8643 171.685 35.3657 169.823 35.7602 167.94L34.7815 167.735ZM36.0956 173.262C36.0606 173.388 36.0294 173.516 36.0021 173.646L36.9809 173.851C37.0037 173.743 37.0298 173.635 37.0591 173.53L36.0956 173.262ZM36.0021 173.646C35.3184 176.909 37.4091 180.108 40.6718 180.792L40.8769 179.813C38.1547 179.243 36.4104 176.573 36.9809 173.851L36.0021 173.646ZM40.6718 180.792C42.0242 181.075 43.367 180.882 44.5233 180.325L44.0898 179.424C43.125 179.888 42.0062 180.05 40.8769 179.813L40.6718 180.792ZM43.9271 180.2C44.7627 181.174 45.9151 181.891 47.2678 182.175L47.4729 181.196C46.3433 180.959 45.3832 180.362 44.686 179.549L43.9271 180.2ZM47.2678 182.175C50.4916 182.85 53.6534 180.817 54.388 177.621L53.4134 177.397C52.8006 180.063 50.1625 181.76 47.4729 181.196L47.2678 182.175ZM58.7613 173.005C58.268 175.359 56.2047 176.983 53.895 177.009L53.9064 178.009C56.675 177.977 59.1485 176.033 59.74 173.21L58.7613 173.005ZM55.8683 167.365C57.9996 168.304 59.258 170.635 58.7613 173.005L59.74 173.21C60.3356 170.368 58.8263 167.575 56.2715 166.45L55.8683 167.365Z" fill="#23C289" mask="url(#path-1-inside-1_3146_916)"/>
</g>
<g filter="url(#filter1_d_3146_916)">
<mask id="path-3-inside-2_3146_916" fill="white">
<path fill-rule="evenodd" clip-rule="evenodd" d="M117.165 22.3586C127.963 25.4257 136.385 32.4076 140.766 40.8195C145.135 40.5744 149.702 41.0529 154.263 42.3484C173.143 47.7111 184.759 65.0422 180.21 81.0584C179.624 83.1221 178.798 85.0633 177.763 86.8678C184.365 94.4735 187.224 104.279 184.567 113.635C181.699 123.73 173.094 130.893 162.396 133.467C157.499 149.034 138.786 157.342 120.183 152.058C112.275 149.812 105.641 145.465 100.935 139.995C92.9823 149.715 78.18 154.055 63.4467 149.87C45.6899 144.827 34.3576 129.195 36.8578 114.029C21.3379 107.137 12.4022 91.7061 16.4847 77.3336C19.1847 67.8281 26.9722 60.922 36.8041 57.9991C36.8901 56.0088 37.2053 54.0135 37.7663 52.0383C42.2548 36.2365 60.8025 27.6183 79.4295 32.5403C87.3205 22.6056 102.278 18.1299 117.165 22.3586Z"/>
</mask>
<path fill-rule="evenodd" clip-rule="evenodd" d="M117.165 22.3586C127.963 25.4257 136.385 32.4076 140.766 40.8195C145.135 40.5744 149.702 41.0529 154.263 42.3484C173.143 47.7111 184.759 65.0422 180.21 81.0584C179.624 83.1221 178.798 85.0633 177.763 86.8678C184.365 94.4735 187.224 104.279 184.567 113.635C181.699 123.73 173.094 130.893 162.396 133.467C157.499 149.034 138.786 157.342 120.183 152.058C112.275 149.812 105.641 145.465 100.935 139.995C92.9823 149.715 78.18 154.055 63.4467 149.87C45.6899 144.827 34.3576 129.195 36.8578 114.029C21.3379 107.137 12.4022 91.7061 16.4847 77.3336C19.1847 67.8281 26.9722 60.922 36.8041 57.9991C36.8901 56.0088 37.2053 54.0135 37.7663 52.0383C42.2548 36.2365 60.8025 27.6183 79.4295 32.5403C87.3205 22.6056 102.278 18.1299 117.165 22.3586Z" fill="white"/>
<path d="M140.766 40.8195L139.879 41.2814L140.177 41.8541L140.822 41.8179L140.766 40.8195ZM177.763 86.8678L176.896 86.3704L176.542 86.9867L177.008 87.5233L177.763 86.8678ZM162.396 133.467L162.162 132.495L161.612 132.627L161.442 133.167L162.396 133.467ZM100.935 139.995L101.694 139.343L100.916 138.439L100.162 139.362L100.935 139.995ZM36.8578 114.029L37.8445 114.191L37.9702 113.428L37.2636 113.115L36.8578 114.029ZM36.8041 57.9991L37.0891 58.9576L37.7724 58.7545L37.8032 58.0422L36.8041 57.9991ZM79.4295 32.5403L79.1741 33.5072L79.806 33.6742L80.2126 33.1623L79.4295 32.5403ZM141.653 40.3576C137.137 31.6861 128.483 24.5339 117.438 21.3966L116.892 23.3205C127.442 26.3174 135.633 33.1292 139.879 41.2814L141.653 40.3576ZM154.536 41.3864C149.869 40.0607 145.19 39.5697 140.71 39.8211L140.822 41.8179C145.079 41.579 149.535 42.0451 153.99 43.3103L154.536 41.3864ZM181.172 81.3316C185.913 64.6419 173.793 46.8562 154.536 41.3864L153.99 43.3103C172.493 48.566 183.606 65.4424 179.248 80.7852L181.172 81.3316ZM178.631 87.3652C179.705 85.4911 180.563 83.4748 181.172 81.3316L179.248 80.7852C178.684 82.7695 177.89 84.6355 176.896 86.3704L178.631 87.3652ZM185.529 113.909C188.294 104.172 185.301 94.0263 178.518 86.2123L177.008 87.5233C183.429 94.9207 186.154 104.385 183.605 113.362L185.529 113.909ZM162.63 134.439C173.609 131.798 182.544 124.415 185.529 113.909L183.605 113.362C180.854 123.045 172.579 129.988 162.162 132.495L162.63 134.439ZM119.91 153.02C138.887 158.41 158.249 149.985 163.35 133.767L161.442 133.167C156.75 148.084 138.686 156.274 120.457 151.096L119.91 153.02ZM100.177 140.647C105.014 146.269 111.818 150.721 119.91 153.02L120.457 151.096C112.732 148.902 106.268 144.661 101.694 139.343L100.177 140.647ZM100.162 139.362C92.4986 148.727 78.131 153.002 63.72 148.908L63.1735 150.832C78.229 155.109 93.4659 150.703 101.709 140.628L100.162 139.362ZM63.72 148.908C46.328 143.968 35.4464 128.738 37.8445 114.191L35.8711 113.866C33.2688 129.652 45.0517 145.685 63.1735 150.832L63.72 148.908ZM15.5227 77.0604C11.27 92.0322 20.6016 107.905 36.452 114.943L37.2636 113.115C22.0742 106.37 13.5344 91.3799 17.4466 77.6069L15.5227 77.0604ZM36.5191 57.0405C26.4203 60.0428 18.3325 67.1687 15.5227 77.0604L17.4466 77.6069C20.0369 68.4876 27.5241 61.8012 37.0891 58.9576L36.5191 57.0405ZM36.8044 51.765C36.2217 53.8162 35.8943 55.8887 35.805 57.9559L37.8032 58.0422C37.8858 56.1288 38.1888 54.2108 38.7283 52.3115L36.8044 51.765ZM79.685 31.5735C60.6831 26.5524 41.4814 35.2995 36.8044 51.765L38.7283 52.3115C43.0282 37.1735 60.9218 28.6841 79.1741 33.5072L79.685 31.5735ZM117.438 21.3966C102.226 17.0757 86.8273 21.6187 78.6465 31.9184L80.2126 33.1623C87.8136 23.5926 102.33 19.1841 116.892 23.3205L117.438 21.3966Z" fill="#23C289" mask="url(#path-3-inside-2_3146_916)"/>
</g>
<path d="M125.188 47.7812L125.044 47.9756L125.234 48.1261C127.207 49.6926 128.323 51.5458 128.323 53.5084C128.323 55.012 127.665 56.4512 126.47 57.7487L126.212 58.0282L126.571 58.154C128.377 58.7881 129.942 59.9671 131.049 61.5281C132.156 63.089 132.75 64.955 132.75 66.868C132.75 69.3166 131.777 71.6649 130.044 73.3963C128.311 75.1278 125.961 76.1005 123.51 76.1005H97.49C95.0393 76.1005 92.6891 75.1278 90.9563 73.3963C89.2234 71.6649 88.25 69.3166 88.25 66.8681C88.2502 65.1575 88.726 63.4807 89.6246 62.0247C90.5231 60.5686 91.8089 59.3907 93.3385 58.6224L93.6556 58.4632L93.3989 58.2182C91.9125 56.7994 91.0888 55.1951 91.0888 53.5084C91.0888 51.5169 92.2281 49.6397 94.2554 48.0624L94.4472 47.9132L94.3035 47.7172C93.518 46.646 93.0855 45.3572 93.0657 44.0295C93.0665 41.3842 94.8803 38.9449 97.9073 37.1533C100.929 35.3645 105.12 34.25 109.762 34.25C114.403 34.25 118.593 35.3645 121.615 37.1533C124.641 38.9449 126.454 41.3842 126.455 44.0295C126.438 45.3821 125.995 46.6949 125.188 47.7812Z" fill="#FFB1CE" stroke="#2855F6" stroke-width="0.5"/>
<path d="M105.385 48.9913C105.385 48.9913 102.678 60.2556 93.4152 57.8947" stroke="#2855F6" stroke-width="0.5" stroke-linecap="round" stroke-linejoin="round"/>
<path d="M101.192 74.4013L101.474 78.506L99.1064 79.4043" stroke="#2855F6" stroke-width="0.5" stroke-linecap="round" stroke-linejoin="round"/>
<path d="M116.76 74.4013L117.042 78.506L114.674 79.4043" stroke="#2855F6" stroke-width="0.5" stroke-linecap="round" stroke-linejoin="round"/>
<path d="M101.199 74.2158L104.443 75.8374" stroke="#2855F6" stroke-width="0.5" stroke-linecap="round"/>
<path d="M116.767 74.2158L120.01 75.8374" stroke="#2855F6" stroke-width="0.5" stroke-linecap="round"/>
<path d="M106.967 50.7354C106.967 49.7103 108.128 48.8758 109.57 48.8758C111.012 48.8758 112.174 49.708 112.174 50.7354" stroke="#2855F6" stroke-width="0.5" stroke-linecap="round" stroke-linejoin="round"/>
<path d="M115.687 48.69C115.687 48.69 117.733 59.5747 126.82 57.6754" stroke="#2855F6" stroke-width="0.5" stroke-linecap="round" stroke-linejoin="round"/>
<path d="M108.334 45.9996C108.172 46.6482 107.536 47.2969 106.55 47.2969C105.565 47.2969 104.929 46.8104 104.767 45.9996" stroke="#2855F6" stroke-width="0.5" stroke-linecap="round"/>
<path d="M114.496 45.9996C114.334 46.6482 113.697 47.2969 112.712 47.2969C111.727 47.2969 111.091 46.8104 110.928 45.9996" stroke="#2855F6" stroke-width="0.5" stroke-linecap="round"/>
<path fill-rule="evenodd" clip-rule="evenodd" d="M102.998 49.4869C102.988 49.1979 102.93 48.4912 102.93 48.4912C102.93 48.4912 102.064 48.8726 102.006 48.9006C101.987 48.9096 101.961 48.9255 101.934 48.9428C101.905 48.9602 101.876 48.9796 101.849 49.0009C101.83 49.0138 101.818 49.0225 101.818 49.0225L101.82 49.0238C101.72 49.1089 101.635 49.2207 101.578 49.354C101.398 49.7717 101.555 50.2423 101.928 50.4051C102.301 50.5679 102.749 50.3613 102.929 49.9436C102.994 49.7926 103.015 49.6347 102.998 49.4869Z" fill="white"/>
<path fill-rule="evenodd" clip-rule="evenodd" d="M116.382 46.8705C116.158 46.8112 115.603 46.6933 115.603 46.6933C115.603 46.6933 115.696 47.4444 115.704 47.4954C115.706 47.5119 115.712 47.5355 115.72 47.5601C115.726 47.5867 115.734 47.6131 115.744 47.6392C115.75 47.6562 115.754 47.6674 115.754 47.6674L115.755 47.6661C115.797 47.7631 115.864 47.8537 115.952 47.9284C116.231 48.1625 116.628 48.1507 116.839 47.9022C117.05 47.6537 116.995 47.2625 116.716 47.0284C116.615 46.9438 116.499 46.8913 116.382 46.8705Z" fill="white"/>
<path d="M120.574 109.736C120.574 109.736 122.537 99.9388 114.43 98.432" stroke="#020202" stroke-width="0.5" stroke-linecap="round" stroke-linejoin="round"/>
<path d="M116.095 104.849L116.61 104.29C117.605 103.209 118.133 102.034 118.133 100.825C118.133 99.2491 117.238 97.7248 115.576 96.406L115.197 96.105L115.486 95.7163C116.145 94.8279 116.508 93.7546 116.522 92.6486C116.521 90.5087 115.052 88.4827 112.487 86.9643C109.932 85.4517 106.37 84.5 102.409 84.5C98.4481 84.5 94.8854 85.4517 92.3299 86.9643C89.7648 88.4826 88.2954 90.5084 88.2938 92.648C88.3104 93.7333 88.6642 94.7868 89.3063 95.6625L89.5936 96.0544L89.2101 96.3528C87.5033 97.6807 86.5888 99.2254 86.5888 100.825C86.5888 102.181 87.2494 103.495 88.4931 104.682L89.0064 105.172L88.3723 105.49C87.1001 106.129 86.0308 107.109 85.2835 108.32C84.5363 109.531 84.1405 110.925 84.1404 112.348L116.095 104.849ZM116.095 104.849L116.812 105.1M116.095 104.849L116.812 105.1M116.812 105.1C118.314 105.628 119.616 106.608 120.537 107.906C121.457 109.205 121.951 110.757 121.951 112.348C121.951 114.384 121.142 116.337 119.701 117.777C118.259 119.217 116.305 120.026 114.267 120.026H91.8252C89.7869 120.026 87.8322 119.217 86.3911 117.777C84.9499 116.337 84.1404 114.384 84.1404 112.348L116.812 105.1Z" fill="#9B8CFF" stroke="#9B8CFF"/>
<path d="M105.256 95.6416C105.256 96.6295 103.956 97.4338 102.342 97.4338C100.727 97.4338 99.427 96.6318 99.427 95.6416" stroke="#020202" stroke-width="0.5" stroke-linecap="round" stroke-linejoin="round"/>
<path d="M81.5263 110.743C81.5263 110.743 79.5657 100.946 87.6708 99.4388" stroke="#020202" stroke-width="0.5" stroke-linecap="round" stroke-linejoin="round"/>
<path d="M91.8553 119.239L90.6429 124.273L88.3657 124.788" stroke="#020202" stroke-width="0.5" stroke-linecap="round" stroke-linejoin="round"/>
<path d="M113.578 119.239L114.322 124.364L116.543 125.091" stroke="#020202" stroke-width="0.5" stroke-linecap="round" stroke-linejoin="round"/>
<path d="M100.278 94.9153C100.748 94.9153 101.13 94.4988 101.13 93.985C101.13 93.4712 100.748 93.0547 100.278 93.0547C99.8081 93.0547 99.427 93.4712 99.427 93.985C99.427 94.4988 99.8081 94.9153 100.278 94.9153Z" fill="#221F20"/>
<path d="M104.453 94.9153C104.923 94.9153 105.304 94.4988 105.304 93.985C105.304 93.4712 104.923 93.0547 104.453 93.0547C103.982 93.0547 103.601 93.4712 103.601 93.985C103.601 94.4988 103.982 94.9153 104.453 94.9153Z" fill="#221F20"/>
<path d="M94.528 129.559C94.528 129.559 96.4045 120.192 88.6541 118.752" stroke="#020202" stroke-width="0.5" stroke-linecap="round" stroke-linejoin="round"/>
<path d="M90.2072 124.896L90.722 124.337C91.6708 123.307 92.1726 122.188 92.1726 121.04C92.1726 119.542 91.3217 118.09 89.7364 116.832L89.3572 116.531L89.6458 116.142C90.2736 115.297 90.6188 114.275 90.6324 113.223C90.631 111.188 89.2341 109.257 86.7858 107.808C84.3473 106.364 80.9461 105.455 77.1627 105.455C73.3793 105.455 69.9775 106.364 67.5384 107.808C65.0897 109.257 63.6924 111.188 63.6907 113.222C63.7066 114.255 64.0433 115.258 64.6544 116.091L64.9417 116.483L64.5582 116.781C62.9298 118.048 62.0608 119.519 62.0608 121.04C62.0608 122.328 62.6885 123.578 63.8745 124.71L64.3878 125.2L63.7537 125.519C62.5412 126.128 61.522 127.061 60.8097 128.216C60.0975 129.37 59.7203 130.699 59.7202 132.055L90.2072 124.896ZM90.2072 124.896L90.9242 125.147M90.2072 124.896L90.9242 125.147M90.9242 125.147C92.3562 125.65 93.5966 126.584 94.474 127.822C95.3515 129.059 95.8226 130.538 95.8225 132.055C95.8225 133.995 95.0509 135.857 93.6774 137.229C92.3038 138.602 90.4407 139.373 88.498 139.373H67.0447C65.102 139.373 63.2389 138.602 61.8654 137.229C60.4918 135.857 59.7202 133.995 59.7202 132.055L90.9242 125.147Z" fill="#DBDDFC" stroke="#DBDDFC"/>
<path d="M57.1993 130.521C57.1993 130.521 55.325 121.155 63.0732 119.715" stroke="#020202" stroke-width="0.5" stroke-linecap="round" stroke-linejoin="round"/>
<path d="M67.0735 138.644L65.9144 143.455L63.7375 143.948" stroke="#020202" stroke-width="0.5" stroke-linecap="round" stroke-linejoin="round"/>
<path d="M87.8398 138.644L88.5514 143.543L90.674 144.237" stroke="#020202" stroke-width="0.5" stroke-linecap="round" stroke-linejoin="round"/>
<path d="M75.1468 112.425C75.5962 112.425 75.9606 112.027 75.9606 111.536C75.9606 111.045 75.5962 110.646 75.1468 110.646C74.6973 110.646 74.3329 111.045 74.3329 111.536C74.3329 112.027 74.6973 112.425 75.1468 112.425Z" fill="#221F20"/>
<path d="M79.1374 112.425C79.5868 112.425 79.9512 112.027 79.9512 111.536C79.9512 111.045 79.5868 110.646 79.1374 110.646C78.6879 110.646 78.3235 111.045 78.3235 111.536C78.3235 112.027 78.6879 112.425 79.1374 112.425Z" fill="#221F20"/>
<path d="M80.2249 113.889C80.2249 114.877 78.9245 115.681 77.3103 115.681C75.6961 115.681 74.3958 114.879 74.3958 113.889" stroke="#020202" stroke-width="0.5" stroke-linecap="round" stroke-linejoin="round"/>
<path d="M145.84 127.046C145.84 127.046 147.643 118.045 140.195 116.661" stroke="#020202" stroke-width="0.5" stroke-linecap="round" stroke-linejoin="round"/>
<path d="M141.653 122.574L142.168 122.015C143.077 121.028 143.557 119.957 143.557 118.86C143.557 117.428 142.743 116.038 141.223 114.832L140.844 114.531L141.132 114.142C141.733 113.333 142.063 112.355 142.076 111.348C142.075 109.402 140.739 107.552 138.389 106.161C136.05 104.775 132.785 103.902 129.152 103.902C125.519 103.902 122.253 104.775 119.913 106.161C117.562 107.552 116.226 109.402 116.224 111.347C116.24 112.335 116.562 113.295 117.147 114.093L117.434 114.484L117.051 114.783C115.489 115.998 114.658 117.407 114.658 118.86C114.658 120.091 115.258 121.288 116.395 122.373L116.908 122.863L116.274 123.181C115.112 123.765 114.135 124.66 113.453 125.766C112.77 126.872 112.409 128.146 112.409 129.445L141.653 122.574ZM141.653 122.574L142.37 122.825M141.653 122.574L142.37 122.825M142.37 122.825C143.742 123.307 144.931 124.203 145.772 125.389C146.613 126.574 147.064 127.992 147.064 129.445C147.064 131.305 146.325 133.089 145.008 134.404C143.692 135.719 141.907 136.458 140.045 136.458H119.428C117.566 136.458 115.781 135.719 114.465 134.404C113.148 133.089 112.409 131.305 112.409 129.445L142.37 122.825Z" fill="#C4C7FF" stroke="#C3C7FF"/>
<path d="M109.967 127.972C109.967 127.972 108.165 118.971 115.612 117.586" stroke="#020202" stroke-width="0.5" stroke-linecap="round" stroke-linejoin="round"/>
<path d="M119.456 135.776L118.342 140.401L116.25 140.874" stroke="#020202" stroke-width="0.5" stroke-linecap="round" stroke-linejoin="round"/>
<path d="M139.412 135.776L140.096 140.485L142.136 141.152" stroke="#020202" stroke-width="0.5" stroke-linecap="round" stroke-linejoin="round"/>
<path d="M127.114 110.544C127.546 110.544 127.896 110.162 127.896 109.69C127.896 109.218 127.546 108.835 127.114 108.835C126.682 108.835 126.332 109.218 126.332 109.69C126.332 110.162 126.682 110.544 127.114 110.544Z" fill="#221F20"/>
<path d="M130.949 110.544C131.381 110.544 131.731 110.162 131.731 109.69C131.731 109.218 131.381 108.835 130.949 108.835C130.517 108.835 130.167 109.218 130.167 109.69C130.167 110.162 130.517 110.544 130.949 110.544Z" fill="#221F20"/>
<path d="M131.829 112C131.829 112.988 130.529 113.792 128.915 113.792C127.3 113.792 126 112.99 126 112" stroke="#020202" stroke-width="0.5" stroke-linecap="round" stroke-linejoin="round"/>
<defs>
<filter id="filter0_d_3146_916" x="31.1262" y="159.62" width="32.2432" height="30.1836" filterUnits="userSpaceOnUse" color-interpolation-filters="sRGB">
<feFlood flood-opacity="0" result="BackgroundImageFix"/>
<feColorMatrix in="SourceAlpha" type="matrix" values="0 0 0 0 0 0 0 0 0 0 0 0 0 0 0 0 0 0 127 0" result="hardAlpha"/>
<feOffset dy="4"/>
<feGaussianBlur stdDeviation="2"/>
<feComposite in2="hardAlpha" operator="out"/>
<feColorMatrix type="matrix" values="0 0 0 0 0 0 0 0 0 0 0 0 0 0 0 0 0 0 0.25 0"/>
<feBlend mode="normal" in2="BackgroundImageFix" result="effect1_dropShadow_3146_916"/>
<feBlend mode="normal" in="SourceGraphic" in2="effect1_dropShadow_3146_916" result="shape"/>
</filter>
<filter id="filter1_d_3146_916" x="11.4981" y="20.7676" width="178.055" height="140.881" filterUnits="userSpaceOnUse" color-interpolation-filters="sRGB">
<feFlood flood-opacity="0" result="BackgroundImageFix"/>
<feColorMatrix in="SourceAlpha" type="matrix" values="0 0 0 0 0 0 0 0 0 0 0 0 0 0 0 0 0 0 127 0" result="hardAlpha"/>
<feOffset dy="4"/>
<feGaussianBlur stdDeviation="2"/>
<feComposite in2="hardAlpha" operator="out"/>
<feColorMatrix type="matrix" values="0 0 0 0 0 0 0 0 0 0 0 0 0 0 0 0 0 0 0.25 0"/>
<feBlend mode="normal" in2="BackgroundImageFix" result="effect1_dropShadow_3146_916"/>
<feBlend mode="normal" in="SourceGraphic" in2="effect1_dropShadow_3146_916" result="shape"/>
</filter>
</defs>
</svg>
