<svg width="217" height="193" viewBox="0 0 217 193" fill="none" xmlns="http://www.w3.org/2000/svg">
<path d="M158.303 86.9111C158.303 86.9111 161.769 69.433 147.456 66.7451" stroke="#2855F6" stroke-width="1.5" stroke-linecap="round" stroke-linejoin="round"/>
<path d="M151.585 77.4629L151.077 78.0193L151.787 78.271C154.513 79.238 156.876 81.0364 158.548 83.4186C160.22 85.8009 161.118 88.6491 161.117 91.5698C161.117 95.3082 159.647 98.8924 157.03 101.534C154.414 104.176 150.866 105.659 147.168 105.659H107.55C103.852 105.659 100.304 104.176 97.6876 101.534C95.0711 98.8924 93.6002 95.3082 93.6002 91.5699C93.6005 88.9584 94.3195 86.3987 95.6766 84.1765C97.0336 81.9544 98.9752 80.1574 101.284 78.9855L101.911 78.6675L101.405 78.1798C99.1577 76.0123 97.9227 73.5718 97.9227 71.015C97.9227 67.9965 99.6311 65.1382 102.7 62.7255L103.078 62.4281L102.796 62.0387C101.614 60.4101 100.963 58.4501 100.933 56.4303C100.934 52.4152 103.659 48.6942 108.248 45.9496C112.828 43.2104 119.186 41.5 126.235 41.5C133.283 41.5 139.641 43.2104 144.22 45.9496C148.807 48.6942 151.531 52.4156 151.533 56.431C151.507 58.4885 150.84 60.485 149.626 62.1366L149.342 62.5229L149.716 62.8228C152.704 65.219 154.377 68.0405 154.377 71.015C154.377 73.2943 153.39 75.4826 151.585 77.4629Z" fill="#FFB1CE" stroke="#2855F6"/>
<path d="M89.3679 88.708C89.3679 88.708 85.9067 71.2299 100.215 68.5419" stroke="#2855F6" stroke-width="1.5" stroke-linecap="round" stroke-linejoin="round"/>
<path d="M107.603 103.864L105.462 112.844L101.442 113.763" stroke="#2855F6" stroke-width="1.5" stroke-linecap="round" stroke-linejoin="round"/>
<path d="M145.952 103.864L147.266 113.007L151.186 114.303" stroke="#2855F6" stroke-width="1.5" stroke-linecap="round" stroke-linejoin="round"/>
<path d="M123.517 62.3339C124.347 62.3339 125.02 61.5908 125.02 60.6743C125.02 59.7577 124.347 59.0146 123.517 59.0146C122.687 59.0146 122.014 59.7577 122.014 60.6743C122.014 61.5908 122.687 62.3339 123.517 62.3339Z" fill="#2855F6"/>
<path d="M129.46 62.3339C130.29 62.3339 130.963 61.5908 130.963 60.6743C130.963 59.7577 130.29 59.0146 129.46 59.0146C128.63 59.0146 127.957 59.7577 127.957 60.6743C127.957 61.5908 128.63 62.3339 129.46 62.3339Z" fill="#2855F6"/>
<path d="M119.373 56.7602C119.858 57.2145 120.676 57.7006 121.949 57.4022C123.222 57.1039 123.682 56.2458 123.982 55.6797" stroke="#2855F6" stroke-linecap="round"/>
<path d="M129.643 55.6799C129.83 56.3212 130.286 57.1619 131.531 57.5639C132.775 57.9659 133.605 57.4669 134.149 57.1357" stroke="#2855F6" stroke-linecap="round"/>
<path d="M121.354 68.3633C121.354 66.5197 123.755 65.019 126.736 65.019C129.717 65.019 132.119 66.5156 132.119 68.3633" stroke="#2855F6" stroke-linecap="round" stroke-linejoin="round"/>
<path d="M107.303 134.034C107.303 134.034 110.585 117.652 97.0285 115.132" stroke="#020202" stroke-width="0.5" stroke-linecap="round" stroke-linejoin="round"/>
<path d="M100.921 125.154L100.406 125.713L101.123 125.965C103.701 126.87 105.934 128.552 107.514 130.78C109.093 133.007 109.942 135.67 109.941 138.4C109.941 141.894 108.552 145.245 106.08 147.716C103.607 150.187 100.253 151.575 96.7556 151.575H59.2314C55.7341 151.575 52.3802 150.187 49.9074 147.716C47.4347 145.245 46.0455 141.894 46.0455 138.4C46.0458 135.959 46.7248 133.566 48.007 131.488C49.2893 129.411 51.1241 127.73 53.307 126.633L53.9411 126.315L53.4278 125.825C51.303 123.797 50.1395 121.517 50.1395 119.134C50.1395 116.319 51.7491 113.649 54.6523 111.39L55.0358 111.091L54.7485 110.7C53.6331 109.178 53.0187 107.348 52.9904 105.463C52.9921 101.718 55.5612 98.2381 59.9042 95.6675C64.2375 93.1026 70.2559 91.5 76.9288 91.5C83.6018 91.5 89.6192 93.1026 93.9515 95.6674C98.2936 98.2382 100.862 101.718 100.863 105.463C100.839 107.384 100.209 109.248 99.0639 110.791L98.7753 111.18L99.1545 111.481C101.981 113.724 103.557 116.36 103.557 119.134C103.557 121.259 102.627 123.302 100.921 125.154Z" fill="#FFD15A" stroke="#FACF63"/>
<path d="M81.6893 110.467C81.6893 112.119 79.515 113.463 76.8158 113.463C74.1167 113.463 71.9424 112.122 71.9424 110.467" stroke="#020202" stroke-width="0.5" stroke-linecap="round" stroke-linejoin="round"/>
<path d="M41.4505 99.9082C41.4505 99.9082 38.0141 114.384 52.2199 116.61" stroke="#020202" stroke-width="0.5" stroke-linecap="round" stroke-linejoin="round"/>
<path d="M59.2818 149.924L57.2544 158.34L53.4467 159.202" stroke="#020202" stroke-width="0.5" stroke-linecap="round" stroke-linejoin="round"/>
<path d="M95.6044 149.924L96.849 158.494L100.562 159.708" stroke="#020202" stroke-width="0.5" stroke-linecap="round" stroke-linejoin="round"/>
<path d="M73.3659 109.252C74.152 109.252 74.7893 108.555 74.7893 107.696C74.7893 106.837 74.152 106.141 73.3659 106.141C72.5797 106.141 71.9424 106.837 71.9424 107.696C71.9424 108.555 72.5797 109.252 73.3659 109.252Z" fill="#221F20"/>
<path d="M80.3458 109.252C81.132 109.252 81.7693 108.555 81.7693 107.696C81.7693 106.837 81.132 106.141 80.3458 106.141C79.5596 106.141 78.9223 106.837 78.9223 107.696C78.9223 108.555 79.5596 109.252 80.3458 109.252Z" fill="#221F20"/>
<path d="M63.7507 167.179C63.7507 167.179 66.8885 151.517 53.9289 149.109" stroke="#020202" stroke-width="0.5" stroke-linecap="round" stroke-linejoin="round"/>
<path d="M57.6338 158.675L57.119 159.234L57.836 159.485C60.2962 160.349 62.4271 161.954 63.9346 164.08C65.442 166.206 66.2515 168.747 66.2513 171.352C66.2513 174.687 64.9257 177.885 62.5659 180.243C60.2061 182.601 57.0054 183.925 53.668 183.925H17.7957C14.4583 183.925 11.2576 182.601 8.89783 180.243C6.53804 177.885 5.2124 174.687 5.2124 171.352C5.21261 169.023 5.86067 166.739 7.08428 164.757C8.3079 162.774 10.0589 161.17 12.142 160.123L12.7762 159.805L12.2628 159.315C10.2345 157.379 9.12615 155.205 9.12615 152.934C9.12615 150.253 10.6596 147.705 13.4317 145.549L13.8153 145.25L13.5279 144.858C12.4644 143.408 11.8786 141.663 11.8515 139.865C11.8532 136.296 14.3019 132.975 18.4501 130.52C22.5887 128.07 28.3381 126.539 34.714 126.539C41.09 126.539 46.8384 128.07 50.9761 130.52C55.1235 132.975 57.5714 136.296 57.5728 139.866C57.5497 141.697 56.9493 143.475 55.857 144.946L55.5683 145.335L55.9476 145.636C58.6464 147.778 60.1482 150.292 60.1482 152.934C60.1482 154.959 59.2622 156.907 57.6338 158.675Z" fill="#FFECBA" stroke="#FFECBA"/>
<path d="M1.32879 133.312C1.32879 133.312 -1.76393 148.752 11.0213 151.127" stroke="#020202" stroke-width="0.5" stroke-linecap="round" stroke-linejoin="round"/>
<path d="M17.844 182.369L15.9058 190.415L12.2657 191.239" stroke="#020202" stroke-width="0.5" stroke-linecap="round" stroke-linejoin="round"/>
<path d="M52.5674 182.369L53.7572 190.562L57.3064 191.722" stroke="#020202" stroke-width="0.5" stroke-linecap="round" stroke-linejoin="round"/>
<path d="M149.876 128.858C149.876 128.858 152.972 143.334 140.184 145.561" stroke="#020202" stroke-width="0.5" stroke-linecap="round" stroke-linejoin="round"/>
<path d="M144.262 154.641L143.747 155.2L144.464 155.451C146.824 156.28 148.869 157.82 150.315 159.86C151.761 161.899 152.538 164.337 152.538 166.837C152.538 170.036 151.266 173.105 149.002 175.367C146.738 177.629 143.667 178.9 140.465 178.9H105.992C102.789 178.9 99.7185 177.629 97.4544 175.367C95.1903 173.105 93.9185 170.036 93.9185 166.837C93.9187 164.602 94.5404 162.411 95.7144 160.509C96.8884 158.606 98.5685 157.067 100.567 156.064L101.201 155.745L100.688 155.255C98.7413 153.397 97.6796 151.313 97.6796 149.137C97.6796 146.569 99.1486 144.126 101.81 142.055L102.193 141.757L101.906 141.365C100.886 139.974 100.325 138.301 100.299 136.578C100.3 133.157 102.647 129.972 106.63 127.614C110.604 125.262 116.126 123.791 122.25 123.791C128.374 123.791 133.895 125.262 137.868 127.614C141.851 129.972 144.196 133.157 144.198 136.578C144.176 138.334 143.6 140.038 142.553 141.449L142.264 141.838L142.643 142.139C145.234 144.195 146.673 146.606 146.673 149.137C146.673 151.077 145.824 152.945 144.262 154.641Z" fill="#FFECBA" stroke="#FFECBA"/>
<path d="M89.5657 164.524C89.5657 164.524 86.554 149.474 99.0045 147.159" stroke="#020202" stroke-width="0.5" stroke-linecap="round" stroke-linejoin="round"/>
<path d="M105.433 177.576L103.57 185.308L100.072 186.1" stroke="#020202" stroke-width="0.5" stroke-linecap="round" stroke-linejoin="round"/>
<path d="M138.802 177.576L139.945 185.449L143.356 186.565" stroke="#020202" stroke-width="0.5" stroke-linecap="round" stroke-linejoin="round"/>
<path d="M118.238 135.385C118.96 135.385 119.546 134.745 119.546 133.955C119.546 133.166 118.96 132.526 118.238 132.526C117.516 132.526 116.93 133.166 116.93 133.955C116.93 134.745 117.516 135.385 118.238 135.385Z" fill="#221F20"/>
<path d="M124.651 135.385C125.373 135.385 125.958 134.745 125.958 133.955C125.958 133.166 125.373 132.526 124.651 132.526C123.928 132.526 123.343 133.166 123.343 133.955C123.343 134.745 123.928 135.385 124.651 135.385Z" fill="#221F20"/>
<path d="M126.122 137.818C126.122 139.47 123.948 140.815 121.249 140.815C118.549 140.815 116.375 139.474 116.375 137.818" stroke="#020202" stroke-width="0.5" stroke-linecap="round" stroke-linejoin="round"/>
<path d="M116.801 137.767H125.709" stroke="black" stroke-width="0.5" stroke-linecap="round"/>
<path d="M217 22C217 34.1503 199.763 44 178.5 44C157.237 44 140 34.1503 140 22C140 9.84974 157.237 0 178.5 0C199.763 0 217 9.84974 217 22Z" fill="#FBF1F1"/>
<path d="M152.069 22L151.277 17.616H152.005L152.317 19.52C152.344 19.6747 152.371 19.8747 152.397 20.12C152.424 20.3653 152.456 20.656 152.493 20.992H152.517C152.565 20.7627 152.611 20.5573 152.653 20.376C152.701 20.1947 152.744 20.032 152.781 19.888C152.824 19.7387 152.861 19.608 152.893 19.496L153.429 17.616H154.013L154.557 19.496C154.589 19.608 154.624 19.7387 154.661 19.888C154.704 20.032 154.747 20.1947 154.789 20.376C154.837 20.5573 154.885 20.7627 154.933 20.992H154.965C154.997 20.656 155.027 20.3653 155.053 20.12C155.08 19.8747 155.107 19.6747 155.133 19.52L155.453 17.616H156.181L155.389 22H154.693L153.957 19.616C153.92 19.4827 153.883 19.344 153.845 19.2C153.813 19.056 153.781 18.8667 153.749 18.632H153.717C153.696 18.7867 153.672 18.9227 153.645 19.04C153.619 19.1573 153.592 19.2613 153.565 19.352C153.539 19.4427 153.512 19.5307 153.485 19.616L152.765 22H152.069ZM158.04 22.08C157.832 22.08 157.629 22.0587 157.432 22.016C157.24 21.9733 157.034 21.8933 156.816 21.776L157.04 21.232C157.157 21.3013 157.29 21.3627 157.44 21.416C157.589 21.464 157.762 21.488 157.96 21.488C158.354 21.488 158.661 21.344 158.88 21.056C159.104 20.7627 159.216 20.3413 159.216 19.792C159.216 19.2533 159.101 18.8427 158.872 18.56C158.648 18.272 158.301 18.128 157.832 18.128C157.661 18.128 157.488 18.1467 157.312 18.184C157.136 18.2213 156.981 18.2773 156.848 18.352V17.752C157.002 17.672 157.17 17.616 157.352 17.584C157.538 17.552 157.725 17.536 157.912 17.536C158.392 17.536 158.781 17.632 159.08 17.824C159.378 18.0107 159.597 18.272 159.736 18.608C159.874 18.944 159.944 19.3387 159.944 19.792C159.944 20.496 159.784 21.0533 159.464 21.464C159.149 21.8747 158.674 22.08 158.04 22.08ZM161.057 22V20.48C161.057 20.144 161.132 19.9013 161.281 19.752C161.431 19.5973 161.62 19.4907 161.849 19.432L161.857 19.408L160.977 19.072V18.808C160.977 18.5893 161.049 18.384 161.193 18.192C161.337 17.9947 161.543 17.8373 161.809 17.72C162.081 17.5973 162.404 17.536 162.777 17.536C163.103 17.536 163.404 17.5893 163.681 17.696C163.959 17.7973 164.18 17.96 164.345 18.184C164.516 18.4027 164.601 18.6907 164.601 19.048V22H163.889V19.12C163.889 18.7627 163.78 18.5093 163.561 18.36C163.348 18.2053 163.084 18.128 162.769 18.128C162.444 18.128 162.185 18.1973 161.993 18.336C161.801 18.4693 161.705 18.64 161.705 18.848L162.569 19.28L162.505 19.664C162.308 19.664 162.135 19.7307 161.985 19.864C161.841 19.992 161.769 20.1973 161.769 20.48V22H161.057ZM166.886 22.08C166.742 22.08 166.603 22.056 166.47 22.008C166.337 21.96 166.227 21.8747 166.142 21.752C166.057 21.6293 166.014 21.4587 166.014 21.24V17.616H166.726V21.152C166.726 21.2747 166.753 21.3627 166.806 21.416C166.859 21.4693 166.945 21.496 167.062 21.496C167.11 21.496 167.161 21.4907 167.214 21.48C167.267 21.4693 167.318 21.456 167.366 21.44L167.462 21.96C167.361 22.008 167.262 22.04 167.166 22.056C167.07 22.072 166.977 22.08 166.886 22.08ZM169.704 22.08C169.202 22.08 168.813 21.96 168.536 21.72C168.264 21.4747 168.128 21.1093 168.128 20.624V20.136C168.128 19.8693 168.165 19.6587 168.24 19.504C168.314 19.3493 168.394 19.216 168.48 19.104C168.57 18.9813 168.648 18.8747 168.712 18.784C168.781 18.6933 168.816 18.584 168.816 18.456C168.816 18.344 168.786 18.264 168.728 18.216C168.674 18.168 168.605 18.144 168.52 18.144C168.456 18.144 168.386 18.1547 168.312 18.176C168.242 18.1973 168.173 18.224 168.104 18.256L167.944 17.744C168.04 17.68 168.157 17.6347 168.296 17.608C168.44 17.5813 168.565 17.568 168.672 17.568C168.869 17.568 169.026 17.6027 169.144 17.672C169.266 17.7413 169.354 17.8373 169.408 17.96C169.461 18.0773 169.488 18.216 169.488 18.376C169.488 18.5733 169.453 18.736 169.384 18.864C169.32 18.992 169.242 19.1173 169.152 19.24C169.061 19.3733 168.986 19.5013 168.928 19.624C168.869 19.7467 168.84 19.9067 168.84 20.104V20.576C168.84 20.8213 168.88 21.0107 168.96 21.144C169.04 21.2773 169.146 21.3707 169.28 21.424C169.413 21.472 169.554 21.496 169.704 21.496C169.97 21.496 170.173 21.4347 170.312 21.312C170.456 21.184 170.528 20.9893 170.528 20.728V17.616H171.24V20.768C171.24 21.1787 171.109 21.5013 170.848 21.736C170.592 21.9653 170.21 22.08 169.704 22.08ZM173.775 22V18.888C173.775 18.6267 173.713 18.4347 173.591 18.312C173.473 18.1893 173.273 18.128 172.991 18.128C172.799 18.128 172.617 18.1547 172.447 18.208C172.281 18.256 172.121 18.3253 171.967 18.416V17.776C172.073 17.7227 172.225 17.6693 172.423 17.616C172.62 17.5627 172.855 17.536 173.127 17.536C173.404 17.536 173.644 17.576 173.847 17.656C174.049 17.736 174.207 17.8693 174.319 18.056C174.431 18.2373 174.487 18.48 174.487 18.784V22H173.775ZM177.337 22.08C176.889 22.08 176.542 21.9787 176.297 21.776C176.051 21.568 175.881 21.288 175.785 20.936C175.689 20.5787 175.641 20.1733 175.641 19.72C175.641 19.1973 175.689 18.776 175.785 18.456C175.886 18.136 176.033 17.904 176.225 17.76C176.417 17.6107 176.651 17.536 176.929 17.536C177.115 17.536 177.273 17.568 177.401 17.632C177.534 17.696 177.627 17.8027 177.681 17.952H177.713C177.766 17.7973 177.862 17.6907 178.001 17.632C178.139 17.568 178.302 17.536 178.489 17.536C178.835 17.536 179.102 17.6293 179.289 17.816C179.481 17.9973 179.577 18.2773 179.577 18.656V22H178.865V18.664C178.865 18.456 178.819 18.3147 178.729 18.24C178.638 18.1653 178.523 18.128 178.385 18.128C178.23 18.128 178.115 18.1653 178.041 18.24C177.971 18.3147 177.929 18.4373 177.913 18.608H177.465C177.443 18.4213 177.387 18.296 177.297 18.232C177.206 18.1627 177.105 18.128 176.993 18.128C176.779 18.128 176.619 18.2533 176.513 18.504C176.406 18.7493 176.353 19.1573 176.353 19.728C176.353 20.096 176.379 20.4107 176.433 20.672C176.491 20.9333 176.598 21.136 176.753 21.28C176.907 21.4187 177.131 21.488 177.425 21.488C177.531 21.488 177.619 21.4827 177.689 21.472C177.758 21.4613 177.825 21.448 177.889 21.432L177.961 21.976C177.881 22.0133 177.785 22.04 177.673 22.056C177.561 22.072 177.449 22.08 177.337 22.08ZM177.247 16.92V16.568C177.354 16.5467 177.463 16.5173 177.575 16.48C177.687 16.4373 177.781 16.384 177.855 16.32C177.93 16.2507 177.967 16.168 177.967 16.072C177.967 16.008 177.949 15.9547 177.911 15.912C177.869 15.864 177.805 15.84 177.719 15.84C177.666 15.84 177.613 15.8507 177.559 15.872C177.501 15.8933 177.45 15.912 177.407 15.928L177.247 15.488C177.354 15.4027 177.474 15.3467 177.607 15.32C177.735 15.2933 177.839 15.28 177.919 15.28C178.133 15.28 178.301 15.3387 178.423 15.456C178.541 15.5733 178.599 15.7227 178.599 15.904C178.599 16.0533 178.562 16.184 178.487 16.296C178.407 16.4027 178.317 16.488 178.215 16.552L178.135 16.36H179.727V16.92H177.247ZM182.423 22.08C181.847 22.08 181.415 21.9307 181.127 21.632C180.844 21.328 180.703 20.8533 180.703 20.208C180.703 20.1013 180.705 19.9867 180.711 19.864C180.721 19.736 180.732 19.6107 180.743 19.488H182.423V20.048H181.415V20.208C181.415 20.544 181.452 20.808 181.527 21C181.601 21.1867 181.711 21.3173 181.855 21.392C182.004 21.4667 182.188 21.504 182.407 21.504C182.647 21.504 182.855 21.4587 183.031 21.368C183.207 21.2773 183.343 21.112 183.439 20.872C183.535 20.632 183.583 20.288 183.583 19.84C183.583 19.4453 183.54 19.1227 183.455 18.872C183.369 18.6213 183.228 18.4347 183.031 18.312C182.839 18.1893 182.577 18.128 182.247 18.128C182.076 18.128 181.911 18.144 181.751 18.176C181.591 18.2027 181.436 18.2453 181.287 18.304C181.137 18.3573 180.991 18.4267 180.847 18.512V17.848C180.953 17.7893 181.084 17.7387 181.239 17.696C181.393 17.648 181.564 17.6107 181.751 17.584C181.937 17.552 182.132 17.536 182.335 17.536C182.804 17.536 183.183 17.632 183.471 17.824C183.764 18.0107 183.977 18.2773 184.111 18.624C184.244 18.9653 184.311 19.3707 184.311 19.84C184.311 20.3093 184.249 20.712 184.127 21.048C184.004 21.384 183.804 21.64 183.527 21.816C183.255 21.992 182.887 22.08 182.423 22.08ZM186.184 22L184.816 17.616H185.536L186.72 21.384H186.816C186.944 21.384 187.07 21.3547 187.192 21.296C187.315 21.232 187.419 21.152 187.504 21.056C187.664 20.88 187.782 20.6587 187.856 20.392C187.931 20.12 187.968 19.8533 187.968 19.592C187.968 19.1493 187.867 18.8027 187.664 18.552C187.467 18.296 187.192 18.168 186.84 18.168C186.771 18.168 186.702 18.1733 186.632 18.184C186.568 18.1947 186.515 18.208 186.472 18.224L186.296 17.656C186.408 17.624 186.512 17.6027 186.608 17.592C186.71 17.5813 186.8 17.576 186.88 17.576C187.147 17.576 187.384 17.616 187.592 17.696C187.806 17.7707 187.987 17.8827 188.136 18.032C188.323 18.2133 188.459 18.44 188.544 18.712C188.635 18.984 188.68 19.2853 188.68 19.616C188.68 20.032 188.616 20.4027 188.488 20.728C188.36 21.048 188.2 21.304 188.008 21.496C187.854 21.6507 187.664 21.7733 187.44 21.864C187.216 21.9547 186.931 22 186.584 22H186.184ZM191.273 22.08C190.959 22.08 190.687 22.0267 190.457 21.92C190.233 21.808 190.06 21.64 189.937 21.416C189.82 21.192 189.761 20.9013 189.761 20.544V17.616H190.473V20.504C190.473 20.824 190.553 21.0667 190.713 21.232C190.879 21.3973 191.116 21.48 191.425 21.48C191.799 21.48 192.087 21.36 192.289 21.12C192.497 20.88 192.601 20.5573 192.601 20.152V17.616H193.313V22H192.721L192.689 21.352H192.649C192.553 21.5653 192.385 21.7413 192.145 21.88C191.911 22.0133 191.62 22.08 191.273 22.08ZM189.908 16.92V16.608L190.492 16.352H193.308V16.92H189.908ZM196.18 22.08C195.865 22.08 195.593 22.0267 195.364 21.92C195.14 21.808 194.966 21.64 194.844 21.416C194.726 21.192 194.668 20.9013 194.668 20.544V17.616H195.38V20.504C195.38 20.824 195.46 21.0667 195.62 21.232C195.785 21.3973 196.022 21.48 196.332 21.48C196.705 21.48 196.993 21.36 197.196 21.12C197.404 20.88 197.508 20.5573 197.508 20.152V17.616H198.22V22H197.628L197.596 21.352H197.556C197.46 21.5653 197.292 21.7413 197.052 21.88C196.817 22.0133 196.526 22.08 196.18 22.08ZM199.598 22V17.616H200.094L200.222 18.312H200.254C200.344 18.072 200.51 17.8827 200.75 17.744C200.99 17.6053 201.28 17.536 201.622 17.536C201.942 17.536 202.214 17.592 202.438 17.704C202.667 17.8107 202.843 17.976 202.966 18.2C203.088 18.424 203.15 18.7147 203.15 19.072V22H202.438V19.112C202.438 18.792 202.358 18.5493 202.198 18.384C202.038 18.2187 201.8 18.136 201.486 18.136C201.235 18.136 201.022 18.1947 200.846 18.312C200.67 18.4293 200.536 18.5893 200.446 18.792C200.355 18.9893 200.31 19.2133 200.31 19.464V22H199.598ZM205.689 22V18.888C205.689 18.6267 205.627 18.4347 205.505 18.312C205.387 18.1893 205.187 18.128 204.905 18.128C204.713 18.128 204.531 18.1547 204.361 18.208C204.195 18.256 204.035 18.3253 203.881 18.416V17.776C203.987 17.7227 204.139 17.6693 204.337 17.616C204.534 17.5627 204.769 17.536 205.041 17.536C205.318 17.536 205.558 17.576 205.761 17.656C205.963 17.736 206.121 17.8693 206.233 18.056C206.345 18.2373 206.401 18.48 206.401 18.784V22H205.689ZM164.413 31.08C164.114 31.08 163.853 31.0293 163.629 30.928C163.41 30.8213 163.24 30.6613 163.117 30.448C163 30.2293 162.941 29.9493 162.941 29.608V28.496H163.645V29.552C163.645 29.8453 163.722 30.0747 163.877 30.24C164.032 30.4 164.264 30.48 164.573 30.48C164.952 30.48 165.245 30.3627 165.453 30.128C165.661 29.888 165.765 29.5733 165.765 29.184V28.464C165.765 28.112 165.712 27.84 165.605 27.648C165.504 27.456 165.357 27.3227 165.165 27.248C164.973 27.168 164.741 27.128 164.469 27.128C164.213 27.128 163.962 27.16 163.717 27.224C163.477 27.288 163.242 27.392 163.013 27.536V26.872C163.168 26.7813 163.381 26.704 163.653 26.64C163.93 26.5707 164.232 26.536 164.557 26.536C165.01 26.536 165.378 26.608 165.661 26.752C165.944 26.896 166.149 27.1067 166.277 27.384C166.41 27.6613 166.477 28.0053 166.477 28.416V31H165.893L165.853 30.352H165.821C165.73 30.5653 165.562 30.7413 165.317 30.88C165.077 31.0133 164.776 31.08 164.413 31.08ZM165.377 25.92C165.153 25.92 164.975 25.888 164.841 25.824C164.708 25.76 164.612 25.6773 164.553 25.576C164.489 25.4747 164.457 25.368 164.457 25.256C164.457 25.176 164.471 25.0907 164.497 25C164.519 24.904 164.548 24.8267 164.585 24.768L165.185 24.872C165.175 24.8933 165.164 24.9307 165.153 24.984C165.143 25.032 165.137 25.0773 165.137 25.12C165.137 25.1893 165.159 25.2507 165.201 25.304C165.244 25.352 165.316 25.376 165.417 25.376H167.441V25.92H165.377ZM169.281 31.08C168.966 31.08 168.694 31.0267 168.465 30.92C168.241 30.808 168.068 30.64 167.945 30.416C167.828 30.192 167.769 29.9013 167.769 29.544V26.616H168.481V29.504C168.481 29.824 168.561 30.0667 168.721 30.232C168.886 30.3973 169.124 30.48 169.433 30.48C169.806 30.48 170.094 30.36 170.297 30.12C170.505 29.88 170.609 29.5573 170.609 29.152V26.616H171.321V31H170.729L170.697 30.352H170.657C170.561 30.5653 170.393 30.7413 170.153 30.88C169.918 31.0133 169.628 31.08 169.281 31.08ZM174.227 31.08C173.651 31.08 173.219 30.9307 172.931 30.632C172.649 30.328 172.507 29.8533 172.507 29.208C172.507 29.1013 172.51 28.9867 172.515 28.864C172.526 28.736 172.537 28.6107 172.547 28.488H174.227V29.048H173.219V29.208C173.219 29.544 173.257 29.808 173.331 30C173.406 30.1867 173.515 30.3173 173.659 30.392C173.809 30.4667 173.993 30.504 174.211 30.504C174.451 30.504 174.659 30.4587 174.835 30.368C175.011 30.2773 175.147 30.112 175.243 29.872C175.339 29.632 175.387 29.288 175.387 28.84C175.387 28.4453 175.345 28.1227 175.259 27.872C175.174 27.6213 175.033 27.4347 174.835 27.312C174.643 27.1893 174.382 27.128 174.051 27.128C173.881 27.128 173.715 27.144 173.555 27.176C173.395 27.2027 173.241 27.2453 173.091 27.304C172.942 27.3573 172.795 27.4267 172.651 27.512V26.848C172.758 26.7893 172.889 26.7387 173.043 26.696C173.198 26.648 173.369 26.6107 173.555 26.584C173.742 26.552 173.937 26.536 174.139 26.536C174.609 26.536 174.987 26.632 175.275 26.824C175.569 27.0107 175.782 27.2773 175.915 27.624C176.049 27.9653 176.115 28.3707 176.115 28.84C176.115 29.3093 176.054 29.712 175.931 30.048C175.809 30.384 175.609 30.64 175.331 30.816C175.059 30.992 174.691 31.08 174.227 31.08ZM178.957 31.072C178.525 31.072 178.178 31.016 177.917 30.904C177.661 30.792 177.474 30.6347 177.357 30.432C177.245 30.2293 177.189 29.9893 177.189 29.712C177.189 29.4667 177.224 29.272 177.293 29.128C177.368 28.9787 177.458 28.8693 177.565 28.8C177.677 28.7307 177.792 28.6853 177.909 28.664V28.632C177.802 28.6 177.69 28.5467 177.573 28.472C177.456 28.3973 177.357 28.2933 177.277 28.16C177.202 28.0267 177.165 27.8587 177.165 27.656C177.165 27.4693 177.208 27.2933 177.293 27.128C177.378 26.9627 177.517 26.8267 177.709 26.72C177.901 26.6133 178.154 26.56 178.469 26.56C178.597 26.56 178.73 26.5707 178.869 26.592C179.008 26.608 179.114 26.6373 179.189 26.68L179.061 27.232C179.002 27.2107 178.925 27.192 178.829 27.176C178.738 27.1547 178.642 27.144 178.541 27.144C178.317 27.144 178.152 27.1973 178.045 27.304C177.938 27.4053 177.885 27.5413 177.885 27.712C177.885 27.8987 177.93 28.04 178.021 28.136C178.117 28.232 178.237 28.2987 178.381 28.336C178.53 28.368 178.685 28.384 178.845 28.384H178.997V28.904H178.845C178.525 28.904 178.288 28.9627 178.133 29.08C177.984 29.192 177.909 29.3813 177.909 29.648C177.909 29.8027 177.938 29.944 177.997 30.072C178.061 30.2 178.168 30.3013 178.317 30.376C178.472 30.4507 178.685 30.488 178.957 30.488C179.229 30.488 179.44 30.4507 179.589 30.376C179.744 30.3013 179.853 30.1947 179.917 30.056C179.981 29.912 180.013 29.7413 180.013 29.544V26.616H180.725V29.496C180.725 30.056 180.581 30.4587 180.293 30.704C180.01 30.9493 179.565 31.072 178.957 31.072ZM179.51 33.12C179.168 33.12 178.91 33.0507 178.734 32.912C178.552 32.7787 178.462 32.5867 178.462 32.336V32.2C178.462 32.1093 178.44 32.0533 178.398 32.032C178.35 32.016 178.286 32.0187 178.206 32.04L178.158 31.56C178.232 31.5387 178.307 31.5253 178.382 31.52C178.451 31.5147 178.504 31.512 178.542 31.512C178.734 31.512 178.872 31.5547 178.958 31.64C179.038 31.7253 179.078 31.8453 179.078 32V32.272C179.078 32.3733 179.11 32.4587 179.174 32.528C179.238 32.5973 179.347 32.632 179.502 32.632C179.662 32.632 179.774 32.5973 179.838 32.528C179.896 32.4587 179.926 32.3733 179.926 32.272V31.536H180.55V32.312C180.55 32.5733 180.462 32.7733 180.286 32.912C180.11 33.0507 179.851 33.12 179.51 33.12ZM180.01 25.92V24.232H180.714V25.92H180.01ZM183.011 31.08C182.867 31.08 182.728 31.056 182.595 31.008C182.462 30.96 182.352 30.8747 182.267 30.752C182.182 30.6293 182.139 30.4587 182.139 30.24V26.616H182.851V30.152C182.851 30.2747 182.878 30.3627 182.931 30.416C182.984 30.4693 183.07 30.496 183.187 30.496C183.235 30.496 183.286 30.4907 183.339 30.48C183.392 30.4693 183.443 30.456 183.491 30.44L183.587 30.96C183.486 31.008 183.387 31.04 183.291 31.056C183.195 31.072 183.102 31.08 183.011 31.08ZM185.37 31.08C185.226 31.08 185.088 31.056 184.954 31.008C184.821 30.96 184.712 30.8747 184.626 30.752C184.541 30.6293 184.498 30.4587 184.498 30.24V26.616H185.21V30.152C185.21 30.2747 185.237 30.3627 185.29 30.416C185.344 30.4693 185.429 30.496 185.546 30.496C185.594 30.496 185.645 30.4907 185.698 30.48C185.752 30.4693 185.802 30.456 185.85 30.44L185.946 30.96C185.845 31.008 185.746 31.04 185.65 31.056C185.554 31.072 185.461 31.08 185.37 31.08ZM188.203 31.08C187.888 31.08 187.616 31.0267 187.387 30.92C187.163 30.808 186.99 30.64 186.867 30.416C186.75 30.192 186.691 29.9013 186.691 29.544V26.616H187.403V29.504C187.403 29.824 187.483 30.0667 187.643 30.232C187.808 30.3973 188.046 30.48 188.355 30.48C188.728 30.48 189.016 30.36 189.219 30.12C189.427 29.88 189.531 29.5573 189.531 29.152V26.616H190.243V31H189.651L189.619 30.352H189.579C189.483 30.5653 189.315 30.7413 189.075 30.88C188.84 31.0133 188.55 31.08 188.203 31.08ZM189.525 25.92V24.232H190.229V25.92H189.525ZM194.365 32.608V27.592C194.365 27.4213 194.333 27.3013 194.269 27.232C194.211 27.1573 194.12 27.12 193.997 27.12C193.875 27.12 193.781 27.1573 193.717 27.232C193.659 27.3013 193.629 27.4213 193.629 27.592V27.936H193.029V27.592C193.029 27.4213 192.997 27.3013 192.933 27.232C192.869 27.1573 192.779 27.12 192.661 27.12C192.528 27.12 192.427 27.1813 192.357 27.304C192.293 27.4213 192.261 27.624 192.261 27.912C192.261 28.2373 192.301 28.4613 192.381 28.584C192.461 28.7067 192.581 28.768 192.741 28.768C192.789 28.768 192.84 28.7627 192.893 28.752C192.952 28.7413 193.008 28.7253 193.061 28.704L193.197 29.232C193.112 29.2693 193.024 29.3013 192.933 29.328C192.843 29.3493 192.744 29.36 192.637 29.36C192.269 29.36 192 29.2347 191.829 28.984C191.659 28.7333 191.573 28.3813 191.573 27.928C191.573 27.4213 191.664 27.064 191.845 26.856C192.027 26.6427 192.269 26.536 192.573 26.536C192.749 26.536 192.907 26.5707 193.045 26.64C193.184 26.704 193.283 26.808 193.341 26.952H193.365C193.429 26.808 193.528 26.704 193.661 26.64C193.8 26.5707 193.96 26.536 194.141 26.536C194.312 26.536 194.467 26.5653 194.605 26.624C194.744 26.6827 194.853 26.784 194.933 26.928C195.019 27.0667 195.061 27.2613 195.061 27.512V32.608H194.365Z" fill="#2855F6"/>
</svg>
