<svg width="121" height="123" viewBox="0 0 121 123" fill="none" xmlns="http://www.w3.org/2000/svg">
<path d="M100.133 37.1589L99.8447 37.5476L100.224 37.8486C105.556 42.0803 108.597 47.1082 108.597 52.4558C108.597 56.5524 106.802 60.4622 103.567 63.9744L103.052 64.5333L103.769 64.7849C108.66 66.5017 112.897 69.6939 115.894 73.9203C118.891 78.1467 120.5 83.1988 120.5 88.3785C120.5 95.0081 117.864 101.366 113.173 106.054C108.481 110.742 102.118 113.376 95.4825 113.376H25.5176C18.8824 113.376 12.519 110.742 7.82733 106.054C3.13567 101.366 0.5 95.0081 0.5 88.3786C0.500414 83.7472 1.78891 79.207 4.2217 75.2647C6.6545 71.3225 10.1359 68.1333 14.2774 66.0531L14.9115 65.7346L14.3982 65.2446C10.3783 61.4075 8.13333 57.0516 8.13333 52.4558C8.13333 47.0298 11.238 41.937 16.7143 37.6762L17.0978 37.3778L16.8105 36.986C14.6771 34.0764 13.5024 30.5758 13.4489 26.9695C13.4505 19.7706 18.3852 13.1645 26.5518 8.33062C34.7088 3.50245 46.0091 0.5 58.5149 0.5C71.0207 0.5 82.3191 3.50244 90.4743 8.33059C98.6393 13.1646 103.572 19.7709 103.574 26.9701C103.528 30.6433 102.324 34.2086 100.133 37.1589Z" fill="#FFB1CE" stroke="#2855F6"/>
<path d="M46.7467 40.3111C46.7467 40.3111 39.4664 70.5996 14.5609 64.2513" stroke="#2855F6" stroke-width="1.5" stroke-linecap="round" stroke-linejoin="round"/>
<path d="M35.4718 108.636L36.2305 119.673L29.8636 122.089" stroke="#2855F6" stroke-width="1.5" stroke-linecap="round" stroke-linejoin="round"/>
<path d="M77.331 108.636L78.0897 119.673L71.7227 122.089" stroke="#2855F6" stroke-width="1.5" stroke-linecap="round" stroke-linejoin="round"/>
<path d="M35.4912 108.136L44.2119 112.496" stroke="#2855F6" stroke-width="1.5" stroke-linecap="round"/>
<path d="M77.3496 108.136L86.0703 112.496" stroke="#2855F6" stroke-width="1.5" stroke-linecap="round"/>
<path d="M51 45C51 42.2437 54.1231 40 58 40C61.8769 40 65 42.2375 65 45" stroke="#2855F6" stroke-linecap="round" stroke-linejoin="round"/>
<path d="M74.4474 39.501C74.4474 39.501 79.95 68.7687 104.384 63.6616" stroke="#2855F6" stroke-width="1.5" stroke-linecap="round" stroke-linejoin="round"/>
<path d="M54.6762 32.2666C54.2402 34.0108 52.5288 35.7549 49.8799 35.7549C47.2309 35.7549 45.5195 34.4468 45.0835 32.2666" stroke="#2855F6" stroke-linecap="round"/>
<path d="M71.2448 32.2666C70.8088 34.0108 69.0974 35.7549 66.4485 35.7549C63.7995 35.7549 62.0881 34.4468 61.6521 32.2666" stroke="#2855F6" stroke-linecap="round"/>
<path fill-rule="evenodd" clip-rule="evenodd" d="M40.3274 41.6445C40.3018 40.8673 40.1437 38.967 40.1437 38.967C40.1437 38.967 37.8171 39.9926 37.6607 40.0679C37.6104 40.0922 37.5402 40.1348 37.4681 40.1814C37.3887 40.2282 37.3117 40.2803 37.2375 40.3377C37.1881 40.3724 37.1558 40.3958 37.1558 40.3958L37.1615 40.3991C36.8902 40.6281 36.6625 40.9286 36.5083 41.287C36.0249 42.4101 36.4467 43.6755 37.4503 44.1133C38.454 44.5511 39.6594 43.9956 40.1428 42.8725C40.3175 42.4664 40.374 42.0418 40.3274 41.6445Z" fill="white"/>
</svg>
