<svg width="149" height="158" viewBox="0 0 149 158" fill="none" xmlns="http://www.w3.org/2000/svg">
<path d="M123.398 45.7515L123.108 46.1406L123.489 46.4418C130.071 51.6575 133.842 57.8686 133.842 64.4896C133.842 69.5614 131.616 74.3946 127.618 78.7281L127.102 79.2874L127.82 79.539C133.866 81.6576 139.103 85.5968 142.807 90.8122C146.511 96.0276 148.501 102.262 148.5 108.653C148.5 116.834 145.242 124.68 139.443 130.465C133.644 136.25 125.779 139.5 117.578 139.5H31.4224C23.2209 139.5 15.3555 136.25 9.55654 130.465C3.75759 124.68 0.5 116.834 0.5 108.653C0.500512 102.938 2.09305 97.3359 5.09997 92.4712C8.1069 87.6065 12.41 83.6709 17.529 81.1039L18.1643 80.7853L17.6498 80.295C12.6841 75.5628 9.89972 70.1796 9.89972 64.4896C9.89972 57.7718 13.7502 51.4807 20.5107 46.2292L20.8951 45.9307L20.607 45.5384C17.9657 41.9419 16.5113 37.6149 16.4453 33.1573C16.447 24.2502 22.5617 16.0971 32.6368 10.1432C42.7022 4.19513 56.6386 0.5 72.0555 0.5C87.4724 0.5 101.407 4.19512 111.47 10.1432C121.543 16.0972 127.655 24.2505 127.657 33.1579C127.6 37.698 126.11 42.1048 123.398 45.7515Z" fill="#FFB1CE" stroke="#553CFD"/>
<path d="M55.9156 89.5298C55.9156 89.5298 17.9927 95.3032 13.6582 63.9519" stroke="#553CFD" stroke-width="1.5" stroke-linecap="round" stroke-linejoin="round"/>
<path d="M66.5 51C68.433 51 70 48.9853 70 46.5C70 44.0147 68.433 42 66.5 42C64.567 42 63 44.0147 63 46.5C63 48.9853 64.567 51 66.5 51Z" fill="#2855F6"/>
<path d="M79.5 51C81.433 51 83 48.9853 83 46.5C83 44.0147 81.433 42 79.5 42C77.567 42 76 44.0147 76 46.5C76 48.9853 77.567 51 79.5 51Z" fill="#2855F6"/>
<path d="M56.7433 37.6468C57.8574 38.6793 59.7357 39.7839 62.658 39.1059C65.5803 38.4278 66.6372 36.4778 67.3259 35.1914" stroke="#2855F6" stroke-linecap="round"/>
<path d="M80.3266 35.1907C80.755 36.648 81.8031 38.5584 84.6605 39.472C87.518 40.3856 89.4241 39.2515 90.6743 38.499" stroke="#2855F6" stroke-linecap="round"/>
<path d="M62 64C62 59.59 67.3538 56 74 56C80.6462 56 86 59.58 86 64" stroke="#2855F6" stroke-linecap="round" stroke-linejoin="round"/>
<path d="M102.612 62.5703L111.344 72.6682" stroke="black" stroke-width="5"/>
<circle cx="89.3244" cy="48.4478" r="19.0973" transform="rotate(28.9247 89.3244 48.4478)" fill="white" stroke="black" stroke-width="4"/>
<rect x="112.661" y="66.2139" width="29.1236" height="10.4745" rx="5.23726" transform="rotate(47.0354 112.661 66.2139)" fill="#2855F6"/>
<path d="M103.687 45.899C102.726 38.1948 95.3331 32.7748 87.1758 33.793" stroke="#2855F6" stroke-width="1.5" stroke-linecap="round"/>
<path d="M74.7792 52C74.7095 52 74.6527 51.978 74.6087 51.934C74.5647 51.89 74.5427 51.8332 74.5427 51.7635V47.941C74.5427 47.8713 74.5647 47.8145 74.6087 47.7705C74.6527 47.7265 74.7095 47.7045 74.7792 47.7045C74.8525 47.7045 74.913 47.7338 74.9607 47.7925L77.5182 51.164V47.941C77.5182 47.8713 77.5402 47.8145 77.5842 47.7705C77.6282 47.7265 77.685 47.7045 77.7547 47.7045C77.8207 47.7045 77.8757 47.7265 77.9197 47.7705C77.9673 47.8145 77.9912 47.8713 77.9912 47.941V51.7635C77.9912 51.8332 77.9673 51.89 77.9197 51.934C77.8757 51.978 77.8207 52 77.7547 52C77.7217 52 77.6887 51.9945 77.6557 51.9835C77.6227 51.9688 77.5952 51.9468 77.5732 51.9175L75.0157 48.546V51.7635C75.0157 51.8332 74.9918 51.89 74.9442 51.934C74.9002 51.978 74.8452 52 74.7792 52ZM79.3285 52C79.2588 52 79.202 51.978 79.158 51.934C79.114 51.89 79.092 51.8332 79.092 51.7635V47.941C79.092 47.8713 79.114 47.8145 79.158 47.7705C79.202 47.7265 79.2588 47.7045 79.3285 47.7045H81.8805C81.9465 47.7045 82.0015 47.7265 82.0455 47.7705C82.0895 47.8108 82.1115 47.864 82.1115 47.93C82.1115 47.9923 82.0895 48.0455 82.0455 48.0895C82.0015 48.1298 81.9465 48.15 81.8805 48.15H79.565V49.613H81.2425C81.3122 49.613 81.369 49.635 81.413 49.679C81.457 49.723 81.479 49.7762 81.479 49.8385C81.479 49.9045 81.457 49.9595 81.413 50.0035C81.369 50.0438 81.3122 50.064 81.2425 50.064H79.565V51.5545H81.8805C81.9465 51.5545 82.0015 51.5765 82.0455 51.6205C82.0895 51.6608 82.1115 51.7122 82.1115 51.7745C82.1115 51.8405 82.0895 51.8955 82.0455 51.9395C82.0015 51.9798 81.9465 52 81.8805 52H79.3285ZM84.8413 52.055C84.5443 52.055 84.2657 51.9982 84.0053 51.8845C83.7487 51.7708 83.5213 51.6132 83.3233 51.4115C83.129 51.2098 82.9768 50.977 82.8668 50.713C82.7605 50.4453 82.7073 50.1575 82.7073 49.8495C82.7073 49.5452 82.7605 49.261 82.8668 48.997C82.9768 48.7293 83.129 48.4965 83.3233 48.2985C83.5177 48.0968 83.7432 47.9392 83.9998 47.8255C84.2602 47.7082 84.5407 47.6495 84.8413 47.6495C85.109 47.6495 85.3492 47.688 85.5618 47.765C85.7745 47.8383 85.9817 47.9593 86.1833 48.128C86.2163 48.1537 86.2365 48.183 86.2438 48.216C86.2548 48.2453 86.2548 48.2747 86.2438 48.304C86.2365 48.3333 86.2237 48.359 86.2053 48.381C86.198 48.4213 86.176 48.4543 86.1393 48.48C86.1063 48.502 86.0642 48.513 86.0128 48.513C85.9652 48.513 85.9193 48.4947 85.8753 48.458C85.736 48.3333 85.5857 48.2417 85.4243 48.183C85.263 48.1207 85.0687 48.0895 84.8413 48.0895C84.6103 48.0895 84.3922 48.1372 84.1868 48.2325C83.9852 48.3242 83.8073 48.4507 83.6533 48.612C83.4993 48.7733 83.3783 48.9603 83.2903 49.173C83.206 49.3857 83.1638 49.6112 83.1638 49.8495C83.1638 50.0952 83.206 50.3243 83.2903 50.537C83.3783 50.7497 83.4993 50.9367 83.6533 51.098C83.8073 51.2593 83.9852 51.3858 84.1868 51.4775C84.3922 51.5692 84.6103 51.615 84.8413 51.615C85.0357 51.615 85.2208 51.582 85.3968 51.516C85.5728 51.45 85.7415 51.3565 85.9028 51.2355C85.9542 51.1952 86.0055 51.1787 86.0568 51.186C86.1118 51.1933 86.1577 51.2172 86.1943 51.2575C86.2347 51.2942 86.2548 51.3455 86.2548 51.4115C86.2548 51.4445 86.2493 51.4738 86.2383 51.4995C86.231 51.5252 86.2145 51.5527 86.1888 51.582C85.9982 51.7507 85.7873 51.8717 85.5563 51.945C85.329 52.0183 85.0907 52.055 84.8413 52.055ZM86.2548 51.4115L85.7983 51.318V50.2455H84.9678C84.9018 50.2455 84.845 50.2272 84.7973 50.1905C84.7533 50.1502 84.7313 50.0988 84.7313 50.0365C84.7313 49.9778 84.7533 49.9283 84.7973 49.888C84.845 49.8477 84.9018 49.8275 84.9678 49.8275H86.0238C86.0898 49.8275 86.1448 49.8495 86.1888 49.8935C86.2328 49.9375 86.2548 49.9943 86.2548 50.064V51.4115ZM86.9395 52C86.8478 52 86.78 51.9633 86.736 51.89C86.6957 51.813 86.692 51.736 86.725 51.659L88.32 47.864C88.3677 47.7577 88.4447 47.7045 88.551 47.7045C88.6573 47.7045 88.7307 47.7577 88.771 47.864L90.3715 51.6645C90.4082 51.7452 90.4027 51.8222 90.355 51.8955C90.311 51.9652 90.2468 52 90.1625 52C90.1148 52 90.0708 51.9872 90.0305 51.9615C89.9902 51.9358 89.959 51.901 89.937 51.857L88.474 48.271H88.639L87.154 51.857C87.1357 51.9047 87.1063 51.9413 87.066 51.967C87.0257 51.989 86.9835 52 86.9395 52ZM87.2805 50.999L87.462 50.5975H89.6675L89.8545 50.999H87.2805ZM91.8348 52C91.7688 52 91.7119 51.978 91.6643 51.934C91.6203 51.8863 91.5983 51.8295 91.5983 51.7635V47.7045H92.0713V51.7635C92.0713 51.8295 92.0493 51.8863 92.0053 51.934C91.9613 51.978 91.9044 52 91.8348 52ZM90.3333 48.139C90.2673 48.139 90.2141 48.1188 90.1738 48.0785C90.1334 48.0345 90.1133 47.9832 90.1133 47.9245C90.1133 47.8585 90.1334 47.8053 90.1738 47.765C90.2141 47.7247 90.2673 47.7045 90.3333 47.7045H93.3418C93.4078 47.7045 93.4609 47.7247 93.5013 47.765C93.5416 47.8053 93.5618 47.8585 93.5618 47.9245C93.5618 47.9832 93.5416 48.0345 93.5013 48.0785C93.4609 48.1188 93.4078 48.139 93.3418 48.139H90.3333ZM94.432 52C94.3623 52 94.3055 51.978 94.2615 51.934C94.2175 51.89 94.1955 51.8332 94.1955 51.7635V47.941C94.1955 47.8713 94.2175 47.8145 94.2615 47.7705C94.3055 47.7265 94.3623 47.7045 94.432 47.7045C94.5017 47.7045 94.5585 47.7265 94.6025 47.7705C94.6465 47.8145 94.6685 47.8713 94.6685 47.941V51.7635C94.6685 51.8332 94.6465 51.89 94.6025 51.934C94.5585 51.978 94.5017 52 94.432 52ZM97.2102 52C97.1112 52 97.0379 51.9505 96.9902 51.8515L95.3677 48.0675C95.3237 47.9575 95.3201 47.8695 95.3567 47.8035C95.3934 47.7375 95.4594 47.7045 95.5547 47.7045C95.6574 47.7045 95.7289 47.754 95.7692 47.853L97.2597 51.4115H97.1552L98.6457 47.8585C98.6714 47.7998 98.7007 47.7595 98.7337 47.7375C98.7704 47.7155 98.8162 47.7045 98.8712 47.7045C98.9666 47.7045 99.0307 47.7393 99.0637 47.809C99.0967 47.875 99.0949 47.952 99.0582 48.04L97.4192 51.8515C97.3972 51.9028 97.3679 51.9413 97.3312 51.967C97.2982 51.989 97.2579 52 97.2102 52ZM99.975 52C99.9053 52 99.8485 51.978 99.8045 51.934C99.7605 51.89 99.7385 51.8332 99.7385 51.7635V47.941C99.7385 47.8713 99.7605 47.8145 99.8045 47.7705C99.8485 47.7265 99.9053 47.7045 99.975 47.7045H102.527C102.593 47.7045 102.648 47.7265 102.692 47.7705C102.736 47.8108 102.758 47.864 102.758 47.93C102.758 47.9923 102.736 48.0455 102.692 48.0895C102.648 48.1298 102.593 48.15 102.527 48.15H100.211V49.613H101.889C101.959 49.613 102.015 49.635 102.059 49.679C102.103 49.723 102.125 49.7762 102.125 49.8385C102.125 49.9045 102.103 49.9595 102.059 50.0035C102.015 50.0438 101.959 50.064 101.889 50.064H100.211V51.5545H102.527C102.593 51.5545 102.648 51.5765 102.692 51.6205C102.736 51.6608 102.758 51.7122 102.758 51.7745C102.758 51.8405 102.736 51.8955 102.692 51.9395C102.648 51.9798 102.593 52 102.527 52H99.975Z" fill="#F0524A"/>
<path d="M115.046 83.4004C115.046 83.4004 127.806 81.4979 130.651 64.2697" stroke="#553CFD" stroke-width="1.5" stroke-linecap="round" stroke-linejoin="round"/>
<path d="M47.7036 139L44.3321 152.996L38 154.43" stroke="#553CFD" stroke-width="1.5" stroke-linecap="round" stroke-linejoin="round"/>
<path d="M108.107 139L110.177 153.251L116.351 155.271" stroke="#553CFD" stroke-width="1.5" stroke-linecap="round" stroke-linejoin="round"/>
</svg>
