<svg width="181" height="112" viewBox="0 0 181 112" fill="none" xmlns="http://www.w3.org/2000/svg">
<path d="M92 63L121 73" stroke="black" stroke-width="10"/>
<circle cx="49" cy="49" r="45.5" fill="white" stroke="black" stroke-width="7"/>
<rect x="115.984" y="58.6895" width="67.4013" height="24.2414" rx="9" transform="rotate(18.1108 115.984 58.6895)" fill="#2855F6"/>
<path d="M75.0656 27.5833C64.494 13.0539 43.4529 10.3496 28.0688 21.543" stroke="#2855F6" stroke-width="2" stroke-linecap="round"/>
<path d="M18.716 56C18.564 56 18.44 55.952 18.344 55.856C18.248 55.76 18.2 55.636 18.2 55.484V47.144C18.2 46.992 18.248 46.868 18.344 46.772C18.44 46.676 18.564 46.628 18.716 46.628C18.876 46.628 19.008 46.692 19.112 46.82L24.692 54.176V47.144C24.692 46.992 24.74 46.868 24.836 46.772C24.932 46.676 25.056 46.628 25.208 46.628C25.352 46.628 25.472 46.676 25.568 46.772C25.672 46.868 25.724 46.992 25.724 47.144V55.484C25.724 55.636 25.672 55.76 25.568 55.856C25.472 55.952 25.352 56 25.208 56C25.136 56 25.064 55.988 24.992 55.964C24.92 55.932 24.86 55.884 24.812 55.82L19.232 48.464V55.484C19.232 55.636 19.18 55.76 19.076 55.856C18.98 55.952 18.86 56 18.716 56ZM28.6418 56C28.4898 56 28.3658 55.952 28.2698 55.856C28.1738 55.76 28.1258 55.636 28.1258 55.484V47.144C28.1258 46.992 28.1738 46.868 28.2698 46.772C28.3658 46.676 28.4898 46.628 28.6418 46.628H34.2098C34.3538 46.628 34.4738 46.676 34.5698 46.772C34.6658 46.86 34.7138 46.976 34.7138 47.12C34.7138 47.256 34.6658 47.372 34.5698 47.468C34.4738 47.556 34.3538 47.6 34.2098 47.6H29.1578V50.792H32.8178C32.9698 50.792 33.0938 50.84 33.1898 50.936C33.2858 51.032 33.3338 51.148 33.3338 51.284C33.3338 51.428 33.2858 51.548 33.1898 51.644C33.0938 51.732 32.9698 51.776 32.8178 51.776H29.1578V55.028H34.2098C34.3538 55.028 34.4738 55.076 34.5698 55.172C34.6658 55.26 34.7138 55.372 34.7138 55.508C34.7138 55.652 34.6658 55.772 34.5698 55.868C34.4738 55.956 34.3538 56 34.2098 56H28.6418ZM40.6698 56.12C40.0218 56.12 39.4138 55.996 38.8458 55.748C38.2858 55.5 37.7898 55.156 37.3578 54.716C36.9338 54.276 36.6018 53.768 36.3618 53.192C36.1298 52.608 36.0138 51.98 36.0138 51.308C36.0138 50.644 36.1298 50.024 36.3618 49.448C36.6018 48.864 36.9338 48.356 37.3578 47.924C37.7818 47.484 38.2738 47.14 38.8338 46.892C39.4018 46.636 40.0138 46.508 40.6698 46.508C41.2538 46.508 41.7778 46.592 42.2418 46.76C42.7058 46.92 43.1578 47.184 43.5978 47.552C43.6698 47.608 43.7138 47.672 43.7298 47.744C43.7538 47.808 43.7538 47.872 43.7298 47.936C43.7138 48 43.6858 48.056 43.6458 48.104C43.6298 48.192 43.5818 48.264 43.5018 48.32C43.4298 48.368 43.3378 48.392 43.2258 48.392C43.1218 48.392 43.0218 48.352 42.9258 48.272C42.6218 48 42.2938 47.8 41.9418 47.672C41.5898 47.536 41.1658 47.468 40.6698 47.468C40.1658 47.468 39.6898 47.572 39.2418 47.78C38.8018 47.98 38.4138 48.256 38.0778 48.608C37.7418 48.96 37.4778 49.368 37.2858 49.832C37.1018 50.296 37.0098 50.788 37.0098 51.308C37.0098 51.844 37.1018 52.344 37.2858 52.808C37.4778 53.272 37.7418 53.68 38.0778 54.032C38.4138 54.384 38.8018 54.66 39.2418 54.86C39.6898 55.06 40.1658 55.16 40.6698 55.16C41.0938 55.16 41.4978 55.088 41.8818 54.944C42.2658 54.8 42.6338 54.596 42.9858 54.332C43.0978 54.244 43.2098 54.208 43.3218 54.224C43.4418 54.24 43.5418 54.292 43.6218 54.38C43.7098 54.46 43.7538 54.572 43.7538 54.716C43.7538 54.788 43.7418 54.852 43.7178 54.908C43.7018 54.964 43.6658 55.024 43.6098 55.088C43.1938 55.456 42.7338 55.72 42.2298 55.88C41.7338 56.04 41.2138 56.12 40.6698 56.12ZM43.7538 54.716L42.7578 54.512V52.172H40.9458C40.8018 52.172 40.6778 52.132 40.5738 52.052C40.4778 51.964 40.4298 51.852 40.4298 51.716C40.4298 51.588 40.4778 51.48 40.5738 51.392C40.6778 51.304 40.8018 51.26 40.9458 51.26H43.2498C43.3938 51.26 43.5138 51.308 43.6098 51.404C43.7058 51.5 43.7538 51.624 43.7538 51.776V54.716ZM45.2476 56C45.0476 56 44.8996 55.92 44.8036 55.76C44.7156 55.592 44.7076 55.424 44.7796 55.256L48.2596 46.976C48.3636 46.744 48.5316 46.628 48.7636 46.628C48.9956 46.628 49.1556 46.744 49.2436 46.976L52.7356 55.268C52.8156 55.444 52.8036 55.612 52.6996 55.772C52.6036 55.924 52.4636 56 52.2796 56C52.1756 56 52.0796 55.972 51.9916 55.916C51.9036 55.86 51.8356 55.784 51.7876 55.688L48.5956 47.864H48.9556L45.7156 55.688C45.6756 55.792 45.6116 55.872 45.5236 55.928C45.4356 55.976 45.3436 56 45.2476 56ZM45.9916 53.816L46.3876 52.94H51.1996L51.6076 53.816H45.9916ZM55.9282 56C55.7842 56 55.6602 55.952 55.5562 55.856C55.4602 55.752 55.4122 55.628 55.4122 55.484V46.628H56.4442V55.484C56.4442 55.628 56.3962 55.752 56.3002 55.856C56.2042 55.952 56.0802 56 55.9282 56ZM52.6522 47.576C52.5082 47.576 52.3922 47.532 52.3042 47.444C52.2162 47.348 52.1722 47.236 52.1722 47.108C52.1722 46.964 52.2162 46.848 52.3042 46.76C52.3922 46.672 52.5082 46.628 52.6522 46.628H59.2162C59.3602 46.628 59.4762 46.672 59.5642 46.76C59.6522 46.848 59.6962 46.964 59.6962 47.108C59.6962 47.236 59.6522 47.348 59.5642 47.444C59.4762 47.532 59.3602 47.576 59.2162 47.576H52.6522ZM61.5949 56C61.4429 56 61.3189 55.952 61.2229 55.856C61.1269 55.76 61.0789 55.636 61.0789 55.484V47.144C61.0789 46.992 61.1269 46.868 61.2229 46.772C61.3189 46.676 61.4429 46.628 61.5949 46.628C61.7469 46.628 61.8709 46.676 61.9669 46.772C62.0629 46.868 62.1109 46.992 62.1109 47.144V55.484C62.1109 55.636 62.0629 55.76 61.9669 55.856C61.8709 55.952 61.7469 56 61.5949 56ZM67.6565 56C67.4405 56 67.2805 55.892 67.1765 55.676L63.6365 47.42C63.5405 47.18 63.5325 46.988 63.6125 46.844C63.6925 46.7 63.8365 46.628 64.0445 46.628C64.2685 46.628 64.4245 46.736 64.5125 46.952L67.7645 54.716H67.5365L70.7885 46.964C70.8445 46.836 70.9085 46.748 70.9805 46.7C71.0605 46.652 71.1605 46.628 71.2805 46.628C71.4885 46.628 71.6285 46.704 71.7005 46.856C71.7725 47 71.7685 47.168 71.6885 47.36L68.1125 55.676C68.0645 55.788 68.0005 55.872 67.9205 55.928C67.8485 55.976 67.7605 56 67.6565 56ZM73.6887 56C73.5367 56 73.4127 55.952 73.3167 55.856C73.2207 55.76 73.1727 55.636 73.1727 55.484V47.144C73.1727 46.992 73.2207 46.868 73.3167 46.772C73.4127 46.676 73.5367 46.628 73.6887 46.628H79.2567C79.4007 46.628 79.5207 46.676 79.6167 46.772C79.7127 46.86 79.7607 46.976 79.7607 47.12C79.7607 47.256 79.7127 47.372 79.6167 47.468C79.5207 47.556 79.4007 47.6 79.2567 47.6H74.2047V50.792H77.8647C78.0167 50.792 78.1407 50.84 78.2367 50.936C78.3327 51.032 78.3807 51.148 78.3807 51.284C78.3807 51.428 78.3327 51.548 78.2367 51.644C78.1407 51.732 78.0167 51.776 77.8647 51.776H74.2047V55.028H79.2567C79.4007 55.028 79.5207 55.076 79.6167 55.172C79.7127 55.26 79.7607 55.372 79.7607 55.508C79.7607 55.652 79.7127 55.772 79.6167 55.868C79.5207 55.956 79.4007 56 79.2567 56H73.6887Z" fill="#F0524A"/>
<path d="M32.144 86C32.0427 86 31.96 85.968 31.896 85.904C31.832 85.84 31.8 85.7573 31.8 85.656V80.096C31.8 79.9947 31.832 79.912 31.896 79.848C31.96 79.784 32.0427 79.752 32.144 79.752H33.744C34.1387 79.752 34.488 79.84 34.792 80.016C35.1013 80.1867 35.3413 80.4267 35.512 80.736C35.6827 81.04 35.768 81.3947 35.768 81.8C35.768 82.1893 35.6827 82.536 35.512 82.84C35.3413 83.1387 35.1013 83.376 34.792 83.552C34.488 83.7227 34.1387 83.808 33.744 83.808H32.488V85.656C32.488 85.7573 32.456 85.84 32.392 85.904C32.328 85.968 32.2453 86 32.144 86ZM32.488 83.152H33.744C34.0053 83.152 34.2373 83.096 34.44 82.984C34.648 82.8667 34.8107 82.7067 34.928 82.504C35.0453 82.296 35.104 82.0613 35.104 81.8C35.104 81.5227 35.0453 81.28 34.928 81.072C34.816 80.864 34.656 80.7013 34.448 80.584C34.24 80.4613 34.0053 80.4 33.744 80.4H32.488V83.152ZM39.6099 86.08C39.1459 86.08 38.7192 86 38.3299 85.84C37.9405 85.68 37.6019 85.4587 37.3139 85.176C37.0312 84.888 36.8125 84.5493 36.6579 84.16C36.5032 83.7653 36.4259 83.336 36.4259 82.872C36.4259 82.408 36.5032 81.9813 36.6579 81.592C36.8125 81.2027 37.0312 80.8667 37.3139 80.584C37.6019 80.296 37.9405 80.072 38.3299 79.912C38.7192 79.752 39.1459 79.672 39.6099 79.672C40.0739 79.672 40.4979 79.752 40.8819 79.912C41.2712 80.072 41.6099 80.296 41.8979 80.584C42.1859 80.8667 42.4072 81.2027 42.5619 81.592C42.7165 81.9813 42.7939 82.408 42.7939 82.872C42.7939 83.336 42.7165 83.7653 42.5619 84.16C42.4072 84.5493 42.1859 84.888 41.8979 85.176C41.6099 85.4587 41.2712 85.68 40.8819 85.84C40.4979 86 40.0739 86.08 39.6099 86.08ZM39.6099 85.44C39.9725 85.44 40.3059 85.376 40.6099 85.248C40.9192 85.1147 41.1859 84.9333 41.4099 84.704C41.6392 84.4693 41.8152 84.1973 41.9379 83.888C42.0605 83.5733 42.1219 83.2347 42.1219 82.872C42.1219 82.5093 42.0605 82.1733 41.9379 81.864C41.8152 81.5493 41.6392 81.2773 41.4099 81.048C41.1859 80.8133 40.9192 80.632 40.6099 80.504C40.3059 80.376 39.9725 80.312 39.6099 80.312C39.2472 80.312 38.9112 80.376 38.6019 80.504C38.2925 80.632 38.0259 80.8133 37.8019 81.048C37.5779 81.2773 37.4019 81.5493 37.2739 81.864C37.1512 82.1733 37.0899 82.5093 37.0899 82.872C37.0899 83.2347 37.1512 83.5733 37.2739 83.888C37.4019 84.1973 37.5779 84.4693 37.8019 84.704C38.0259 84.9333 38.2925 85.1147 38.6019 85.248C38.9112 85.376 39.2472 85.44 39.6099 85.44ZM46.0251 86.08C45.6837 86.08 45.3637 86.0293 45.0651 85.928C44.7717 85.8267 44.5157 85.6853 44.2971 85.504C44.0784 85.3173 43.9157 85.1013 43.8091 84.856C43.7611 84.7653 43.7584 84.68 43.8011 84.6C43.8491 84.52 43.9264 84.4667 44.0331 84.44C44.1131 84.4187 44.1931 84.4293 44.2731 84.472C44.3531 84.5093 44.4117 84.5707 44.4491 84.656C44.5291 84.8053 44.6437 84.9413 44.7931 85.064C44.9477 85.1813 45.1291 85.2747 45.3371 85.344C45.5504 85.408 45.7797 85.44 46.0251 85.44C46.3024 85.44 46.5504 85.3947 46.7691 85.304C46.9877 85.2133 47.1611 85.0827 47.2891 84.912C47.4171 84.7413 47.4811 84.5333 47.4811 84.288C47.4811 83.9787 47.3637 83.7093 47.1291 83.48C46.8944 83.2453 46.5211 83.0987 46.0091 83.04C45.3744 82.9653 44.8757 82.7707 44.5131 82.456C44.1557 82.1413 43.9771 81.752 43.9771 81.288C43.9771 80.9573 44.0677 80.672 44.2491 80.432C44.4304 80.1867 44.6784 80 44.9931 79.872C45.3077 79.7387 45.6651 79.672 46.0651 79.672C46.3691 79.672 46.6411 79.72 46.8811 79.816C47.1211 79.9067 47.3291 80.0293 47.5051 80.184C47.6864 80.3387 47.8357 80.512 47.9531 80.704C48.0171 80.8 48.0384 80.8933 48.0171 80.984C48.0011 81.0693 47.9531 81.136 47.8731 81.184C47.7877 81.2267 47.6971 81.2347 47.6011 81.208C47.5104 81.176 47.4411 81.1173 47.3931 81.032C47.3131 80.904 47.2117 80.7867 47.0891 80.68C46.9717 80.568 46.8277 80.48 46.6571 80.416C46.4864 80.352 46.2837 80.3173 46.0491 80.312C45.6384 80.312 45.3024 80.3973 45.0411 80.568C44.7797 80.7387 44.6491 80.992 44.6491 81.328C44.6491 81.4987 44.6944 81.6613 44.7851 81.816C44.8811 81.9653 45.0384 82.0933 45.2571 82.2C45.4811 82.3067 45.7851 82.3867 46.1691 82.44C46.8304 82.5253 47.3264 82.7253 47.6571 83.04C47.9877 83.3547 48.1531 83.768 48.1531 84.28C48.1531 84.5733 48.0971 84.832 47.9851 85.056C47.8784 85.28 47.7264 85.4693 47.5291 85.624C47.3317 85.7733 47.1024 85.888 46.8411 85.968C46.5851 86.0427 46.3131 86.08 46.0251 86.08ZM49.7924 86C49.6911 86 49.6084 85.968 49.5444 85.904C49.4804 85.84 49.4484 85.7573 49.4484 85.656V80.096C49.4484 79.9947 49.4804 79.912 49.5444 79.848C49.6084 79.784 49.6911 79.752 49.7924 79.752C49.8938 79.752 49.9764 79.784 50.0404 79.848C50.1044 79.912 50.1364 79.9947 50.1364 80.096V85.656C50.1364 85.7573 50.1044 85.84 50.0404 85.904C49.9764 85.968 49.8938 86 49.7924 86ZM53.5615 86C53.4655 86 53.3828 85.968 53.3135 85.904C53.2495 85.8347 53.2175 85.752 53.2175 85.656V79.752H53.9055V85.656C53.9055 85.752 53.8735 85.8347 53.8095 85.904C53.7455 85.968 53.6628 86 53.5615 86ZM51.3775 80.384C51.2815 80.384 51.2042 80.3547 51.1455 80.296C51.0868 80.232 51.0575 80.1573 51.0575 80.072C51.0575 79.976 51.0868 79.8987 51.1455 79.84C51.2042 79.7813 51.2815 79.752 51.3775 79.752H55.7535C55.8495 79.752 55.9268 79.7813 55.9855 79.84C56.0442 79.8987 56.0735 79.976 56.0735 80.072C56.0735 80.1573 56.0442 80.232 55.9855 80.296C55.9268 80.3547 55.8495 80.384 55.7535 80.384H51.3775ZM57.3393 86C57.238 86 57.1553 85.968 57.0913 85.904C57.0273 85.84 56.9953 85.7573 56.9953 85.656V80.096C56.9953 79.9947 57.0273 79.912 57.0913 79.848C57.1553 79.784 57.238 79.752 57.3393 79.752C57.4406 79.752 57.5233 79.784 57.5873 79.848C57.6513 79.912 57.6833 79.9947 57.6833 80.096V85.656C57.6833 85.7573 57.6513 85.84 57.5873 85.904C57.5233 85.968 57.4406 86 57.3393 86ZM61.3804 86C61.2364 86 61.1297 85.928 61.0604 85.784L58.7004 80.28C58.6364 80.12 58.631 79.992 58.6844 79.896C58.7377 79.8 58.8337 79.752 58.9724 79.752C59.1217 79.752 59.2257 79.824 59.2844 79.968L61.4524 85.144H61.3004L63.4684 79.976C63.5057 79.8907 63.5484 79.832 63.5964 79.8C63.6497 79.768 63.7164 79.752 63.7964 79.752C63.935 79.752 64.0284 79.8027 64.0764 79.904C64.1244 80 64.1217 80.112 64.0684 80.24L61.6844 85.784C61.6524 85.8587 61.6097 85.9147 61.5564 85.952C61.5084 85.984 61.4497 86 61.3804 86ZM65.4018 86C65.3005 86 65.2178 85.968 65.1538 85.904C65.0898 85.84 65.0578 85.7573 65.0578 85.656V80.096C65.0578 79.9947 65.0898 79.912 65.1538 79.848C65.2178 79.784 65.3005 79.752 65.4018 79.752H69.1138C69.2098 79.752 69.2898 79.784 69.3538 79.848C69.4178 79.9067 69.4498 79.984 69.4498 80.08C69.4498 80.1707 69.4178 80.248 69.3538 80.312C69.2898 80.3707 69.2098 80.4 69.1138 80.4H65.7458V82.528H68.1858C68.2871 82.528 68.3698 82.56 68.4338 82.624C68.4978 82.688 68.5298 82.7653 68.5298 82.856C68.5298 82.952 68.4978 83.032 68.4338 83.096C68.3698 83.1547 68.2871 83.184 68.1858 83.184H65.7458V85.352H69.1138C69.2098 85.352 69.2898 85.384 69.3538 85.448C69.4178 85.5067 69.4498 85.5813 69.4498 85.672C69.4498 85.768 69.4178 85.848 69.3538 85.912C69.2898 85.9707 69.2098 86 69.1138 86H65.4018Z" fill="#2855F6"/>
<path d="M32.144 100C32.0427 100 31.96 99.968 31.896 99.904C31.832 99.84 31.8 99.7573 31.8 99.656V94.096C31.8 93.9947 31.832 93.912 31.896 93.848C31.96 93.784 32.0427 93.752 32.144 93.752H33.744C34.1387 93.752 34.488 93.84 34.792 94.016C35.1013 94.1867 35.3413 94.4267 35.512 94.736C35.6827 95.04 35.768 95.3947 35.768 95.8C35.768 96.1893 35.6827 96.536 35.512 96.84C35.3413 97.1387 35.1013 97.376 34.792 97.552C34.488 97.7227 34.1387 97.808 33.744 97.808H32.488V99.656C32.488 99.7573 32.456 99.84 32.392 99.904C32.328 99.968 32.2453 100 32.144 100ZM32.488 97.152H33.744C34.0053 97.152 34.2373 97.096 34.44 96.984C34.648 96.8667 34.8107 96.7067 34.928 96.504C35.0453 96.296 35.104 96.0613 35.104 95.8C35.104 95.5227 35.0453 95.28 34.928 95.072C34.816 94.864 34.656 94.7013 34.448 94.584C34.24 94.4613 34.0053 94.4 33.744 94.4H32.488V97.152ZM39.6099 100.08C39.1459 100.08 38.7192 100 38.3299 99.84C37.9405 99.68 37.6019 99.4587 37.3139 99.176C37.0312 98.888 36.8125 98.5493 36.6579 98.16C36.5032 97.7653 36.4259 97.336 36.4259 96.872C36.4259 96.408 36.5032 95.9813 36.6579 95.592C36.8125 95.2027 37.0312 94.8667 37.3139 94.584C37.6019 94.296 37.9405 94.072 38.3299 93.912C38.7192 93.752 39.1459 93.672 39.6099 93.672C40.0739 93.672 40.4979 93.752 40.8819 93.912C41.2712 94.072 41.6099 94.296 41.8979 94.584C42.1859 94.8667 42.4072 95.2027 42.5619 95.592C42.7165 95.9813 42.7939 96.408 42.7939 96.872C42.7939 97.336 42.7165 97.7653 42.5619 98.16C42.4072 98.5493 42.1859 98.888 41.8979 99.176C41.6099 99.4587 41.2712 99.68 40.8819 99.84C40.4979 100 40.0739 100.08 39.6099 100.08ZM39.6099 99.44C39.9725 99.44 40.3059 99.376 40.6099 99.248C40.9192 99.1147 41.1859 98.9333 41.4099 98.704C41.6392 98.4693 41.8152 98.1973 41.9379 97.888C42.0605 97.5733 42.1219 97.2347 42.1219 96.872C42.1219 96.5093 42.0605 96.1733 41.9379 95.864C41.8152 95.5493 41.6392 95.2773 41.4099 95.048C41.1859 94.8133 40.9192 94.632 40.6099 94.504C40.3059 94.376 39.9725 94.312 39.6099 94.312C39.2472 94.312 38.9112 94.376 38.6019 94.504C38.2925 94.632 38.0259 94.8133 37.8019 95.048C37.5779 95.2773 37.4019 95.5493 37.2739 95.864C37.1512 96.1733 37.0899 96.5093 37.0899 96.872C37.0899 97.2347 37.1512 97.5733 37.2739 97.888C37.4019 98.1973 37.5779 98.4693 37.8019 98.704C38.0259 98.9333 38.2925 99.1147 38.6019 99.248C38.9112 99.376 39.2472 99.44 39.6099 99.44ZM46.0251 100.08C45.6837 100.08 45.3637 100.029 45.0651 99.928C44.7717 99.8267 44.5157 99.6853 44.2971 99.504C44.0784 99.3173 43.9157 99.1013 43.8091 98.856C43.7611 98.7653 43.7584 98.68 43.8011 98.6C43.8491 98.52 43.9264 98.4667 44.0331 98.44C44.1131 98.4187 44.1931 98.4293 44.2731 98.472C44.3531 98.5093 44.4117 98.5707 44.4491 98.656C44.5291 98.8053 44.6437 98.9413 44.7931 99.064C44.9477 99.1813 45.1291 99.2747 45.3371 99.344C45.5504 99.408 45.7797 99.44 46.0251 99.44C46.3024 99.44 46.5504 99.3947 46.7691 99.304C46.9877 99.2133 47.1611 99.0827 47.2891 98.912C47.4171 98.7413 47.4811 98.5333 47.4811 98.288C47.4811 97.9787 47.3637 97.7093 47.1291 97.48C46.8944 97.2453 46.5211 97.0987 46.0091 97.04C45.3744 96.9653 44.8757 96.7707 44.5131 96.456C44.1557 96.1413 43.9771 95.752 43.9771 95.288C43.9771 94.9573 44.0677 94.672 44.2491 94.432C44.4304 94.1867 44.6784 94 44.9931 93.872C45.3077 93.7387 45.6651 93.672 46.0651 93.672C46.3691 93.672 46.6411 93.72 46.8811 93.816C47.1211 93.9067 47.3291 94.0293 47.5051 94.184C47.6864 94.3387 47.8357 94.512 47.9531 94.704C48.0171 94.8 48.0384 94.8933 48.0171 94.984C48.0011 95.0693 47.9531 95.136 47.8731 95.184C47.7877 95.2267 47.6971 95.2347 47.6011 95.208C47.5104 95.176 47.4411 95.1173 47.3931 95.032C47.3131 94.904 47.2117 94.7867 47.0891 94.68C46.9717 94.568 46.8277 94.48 46.6571 94.416C46.4864 94.352 46.2837 94.3173 46.0491 94.312C45.6384 94.312 45.3024 94.3973 45.0411 94.568C44.7797 94.7387 44.6491 94.992 44.6491 95.328C44.6491 95.4987 44.6944 95.6613 44.7851 95.816C44.8811 95.9653 45.0384 96.0933 45.2571 96.2C45.4811 96.3067 45.7851 96.3867 46.1691 96.44C46.8304 96.5253 47.3264 96.7253 47.6571 97.04C47.9877 97.3547 48.1531 97.768 48.1531 98.28C48.1531 98.5733 48.0971 98.832 47.9851 99.056C47.8784 99.28 47.7264 99.4693 47.5291 99.624C47.3317 99.7733 47.1024 99.888 46.8411 99.968C46.5851 100.043 46.3131 100.08 46.0251 100.08ZM49.7924 100C49.6911 100 49.6084 99.968 49.5444 99.904C49.4804 99.84 49.4484 99.7573 49.4484 99.656V94.096C49.4484 93.9947 49.4804 93.912 49.5444 93.848C49.6084 93.784 49.6911 93.752 49.7924 93.752C49.8938 93.752 49.9764 93.784 50.0404 93.848C50.1044 93.912 50.1364 93.9947 50.1364 94.096V99.656C50.1364 99.7573 50.1044 99.84 50.0404 99.904C49.9764 99.968 49.8938 100 49.7924 100ZM53.5615 100C53.4655 100 53.3828 99.968 53.3135 99.904C53.2495 99.8347 53.2175 99.752 53.2175 99.656V93.752H53.9055V99.656C53.9055 99.752 53.8735 99.8347 53.8095 99.904C53.7455 99.968 53.6628 100 53.5615 100ZM51.3775 94.384C51.2815 94.384 51.2042 94.3547 51.1455 94.296C51.0868 94.232 51.0575 94.1573 51.0575 94.072C51.0575 93.976 51.0868 93.8987 51.1455 93.84C51.2042 93.7813 51.2815 93.752 51.3775 93.752H55.7535C55.8495 93.752 55.9268 93.7813 55.9855 93.84C56.0442 93.8987 56.0735 93.976 56.0735 94.072C56.0735 94.1573 56.0442 94.232 55.9855 94.296C55.9268 94.3547 55.8495 94.384 55.7535 94.384H51.3775ZM57.3393 100C57.238 100 57.1553 99.968 57.0913 99.904C57.0273 99.84 56.9953 99.7573 56.9953 99.656V94.096C56.9953 93.9947 57.0273 93.912 57.0913 93.848C57.1553 93.784 57.238 93.752 57.3393 93.752C57.4406 93.752 57.5233 93.784 57.5873 93.848C57.6513 93.912 57.6833 93.9947 57.6833 94.096V99.656C57.6833 99.7573 57.6513 99.84 57.5873 99.904C57.5233 99.968 57.4406 100 57.3393 100ZM61.3804 100C61.2364 100 61.1297 99.928 61.0604 99.784L58.7004 94.28C58.6364 94.12 58.631 93.992 58.6844 93.896C58.7377 93.8 58.8337 93.752 58.9724 93.752C59.1217 93.752 59.2257 93.824 59.2844 93.968L61.4524 99.144H61.3004L63.4684 93.976C63.5057 93.8907 63.5484 93.832 63.5964 93.8C63.6497 93.768 63.7164 93.752 63.7964 93.752C63.935 93.752 64.0284 93.8027 64.0764 93.904C64.1244 94 64.1217 94.112 64.0684 94.24L61.6844 99.784C61.6524 99.8587 61.6097 99.9147 61.5564 99.952C61.5084 99.984 61.4497 100 61.3804 100ZM65.4018 100C65.3005 100 65.2178 99.968 65.1538 99.904C65.0898 99.84 65.0578 99.7573 65.0578 99.656V94.096C65.0578 93.9947 65.0898 93.912 65.1538 93.848C65.2178 93.784 65.3005 93.752 65.4018 93.752H69.1138C69.2098 93.752 69.2898 93.784 69.3538 93.848C69.4178 93.9067 69.4498 93.984 69.4498 94.08C69.4498 94.1707 69.4178 94.248 69.3538 94.312C69.2898 94.3707 69.2098 94.4 69.1138 94.4H65.7458V96.528H68.1858C68.2871 96.528 68.3698 96.56 68.4338 96.624C68.4978 96.688 68.5298 96.7653 68.5298 96.856C68.5298 96.952 68.4978 97.032 68.4338 97.096C68.3698 97.1547 68.2871 97.184 68.1858 97.184H65.7458V99.352H69.1138C69.2098 99.352 69.2898 99.384 69.3538 99.448C69.4178 99.5067 69.4498 99.5813 69.4498 99.672C69.4498 99.768 69.4178 99.848 69.3538 99.912C69.2898 99.9707 69.2098 100 69.1138 100H65.4018Z" fill="#2855F6"/>
<path d="M32.144 110C32.0427 110 31.96 109.968 31.896 109.904C31.832 109.84 31.8 109.757 31.8 109.656V104.096C31.8 103.995 31.832 103.912 31.896 103.848C31.96 103.784 32.0427 103.752 32.144 103.752H33.744C34.1387 103.752 34.488 103.84 34.792 104.016C35.1013 104.187 35.3413 104.427 35.512 104.736C35.6827 105.04 35.768 105.395 35.768 105.8C35.768 106.189 35.6827 106.536 35.512 106.84C35.3413 107.139 35.1013 107.376 34.792 107.552C34.488 107.723 34.1387 107.808 33.744 107.808H32.488V109.656C32.488 109.757 32.456 109.84 32.392 109.904C32.328 109.968 32.2453 110 32.144 110ZM32.488 107.152H33.744C34.0053 107.152 34.2373 107.096 34.44 106.984C34.648 106.867 34.8107 106.707 34.928 106.504C35.0453 106.296 35.104 106.061 35.104 105.8C35.104 105.523 35.0453 105.28 34.928 105.072C34.816 104.864 34.656 104.701 34.448 104.584C34.24 104.461 34.0053 104.4 33.744 104.4H32.488V107.152ZM39.6099 110.08C39.1459 110.08 38.7192 110 38.3299 109.84C37.9405 109.68 37.6019 109.459 37.3139 109.176C37.0312 108.888 36.8125 108.549 36.6579 108.16C36.5032 107.765 36.4259 107.336 36.4259 106.872C36.4259 106.408 36.5032 105.981 36.6579 105.592C36.8125 105.203 37.0312 104.867 37.3139 104.584C37.6019 104.296 37.9405 104.072 38.3299 103.912C38.7192 103.752 39.1459 103.672 39.6099 103.672C40.0739 103.672 40.4979 103.752 40.8819 103.912C41.2712 104.072 41.6099 104.296 41.8979 104.584C42.1859 104.867 42.4072 105.203 42.5619 105.592C42.7165 105.981 42.7939 106.408 42.7939 106.872C42.7939 107.336 42.7165 107.765 42.5619 108.16C42.4072 108.549 42.1859 108.888 41.8979 109.176C41.6099 109.459 41.2712 109.68 40.8819 109.84C40.4979 110 40.0739 110.08 39.6099 110.08ZM39.6099 109.44C39.9725 109.44 40.3059 109.376 40.6099 109.248C40.9192 109.115 41.1859 108.933 41.4099 108.704C41.6392 108.469 41.8152 108.197 41.9379 107.888C42.0605 107.573 42.1219 107.235 42.1219 106.872C42.1219 106.509 42.0605 106.173 41.9379 105.864C41.8152 105.549 41.6392 105.277 41.4099 105.048C41.1859 104.813 40.9192 104.632 40.6099 104.504C40.3059 104.376 39.9725 104.312 39.6099 104.312C39.2472 104.312 38.9112 104.376 38.6019 104.504C38.2925 104.632 38.0259 104.813 37.8019 105.048C37.5779 105.277 37.4019 105.549 37.2739 105.864C37.1512 106.173 37.0899 106.509 37.0899 106.872C37.0899 107.235 37.1512 107.573 37.2739 107.888C37.4019 108.197 37.5779 108.469 37.8019 108.704C38.0259 108.933 38.2925 109.115 38.6019 109.248C38.9112 109.376 39.2472 109.44 39.6099 109.44ZM46.0251 110.08C45.6837 110.08 45.3637 110.029 45.0651 109.928C44.7717 109.827 44.5157 109.685 44.2971 109.504C44.0784 109.317 43.9157 109.101 43.8091 108.856C43.7611 108.765 43.7584 108.68 43.8011 108.6C43.8491 108.52 43.9264 108.467 44.0331 108.44C44.1131 108.419 44.1931 108.429 44.2731 108.472C44.3531 108.509 44.4117 108.571 44.4491 108.656C44.5291 108.805 44.6437 108.941 44.7931 109.064C44.9477 109.181 45.1291 109.275 45.3371 109.344C45.5504 109.408 45.7797 109.44 46.0251 109.44C46.3024 109.44 46.5504 109.395 46.7691 109.304C46.9877 109.213 47.1611 109.083 47.2891 108.912C47.4171 108.741 47.4811 108.533 47.4811 108.288C47.4811 107.979 47.3637 107.709 47.1291 107.48C46.8944 107.245 46.5211 107.099 46.0091 107.04C45.3744 106.965 44.8757 106.771 44.5131 106.456C44.1557 106.141 43.9771 105.752 43.9771 105.288C43.9771 104.957 44.0677 104.672 44.2491 104.432C44.4304 104.187 44.6784 104 44.9931 103.872C45.3077 103.739 45.6651 103.672 46.0651 103.672C46.3691 103.672 46.6411 103.72 46.8811 103.816C47.1211 103.907 47.3291 104.029 47.5051 104.184C47.6864 104.339 47.8357 104.512 47.9531 104.704C48.0171 104.8 48.0384 104.893 48.0171 104.984C48.0011 105.069 47.9531 105.136 47.8731 105.184C47.7877 105.227 47.6971 105.235 47.6011 105.208C47.5104 105.176 47.4411 105.117 47.3931 105.032C47.3131 104.904 47.2117 104.787 47.0891 104.68C46.9717 104.568 46.8277 104.48 46.6571 104.416C46.4864 104.352 46.2837 104.317 46.0491 104.312C45.6384 104.312 45.3024 104.397 45.0411 104.568C44.7797 104.739 44.6491 104.992 44.6491 105.328C44.6491 105.499 44.6944 105.661 44.7851 105.816C44.8811 105.965 45.0384 106.093 45.2571 106.2C45.4811 106.307 45.7851 106.387 46.1691 106.44C46.8304 106.525 47.3264 106.725 47.6571 107.04C47.9877 107.355 48.1531 107.768 48.1531 108.28C48.1531 108.573 48.0971 108.832 47.9851 109.056C47.8784 109.28 47.7264 109.469 47.5291 109.624C47.3317 109.773 47.1024 109.888 46.8411 109.968C46.5851 110.043 46.3131 110.08 46.0251 110.08ZM49.7924 110C49.6911 110 49.6084 109.968 49.5444 109.904C49.4804 109.84 49.4484 109.757 49.4484 109.656V104.096C49.4484 103.995 49.4804 103.912 49.5444 103.848C49.6084 103.784 49.6911 103.752 49.7924 103.752C49.8938 103.752 49.9764 103.784 50.0404 103.848C50.1044 103.912 50.1364 103.995 50.1364 104.096V109.656C50.1364 109.757 50.1044 109.84 50.0404 109.904C49.9764 109.968 49.8938 110 49.7924 110ZM53.5615 110C53.4655 110 53.3828 109.968 53.3135 109.904C53.2495 109.835 53.2175 109.752 53.2175 109.656V103.752H53.9055V109.656C53.9055 109.752 53.8735 109.835 53.8095 109.904C53.7455 109.968 53.6628 110 53.5615 110ZM51.3775 104.384C51.2815 104.384 51.2042 104.355 51.1455 104.296C51.0868 104.232 51.0575 104.157 51.0575 104.072C51.0575 103.976 51.0868 103.899 51.1455 103.84C51.2042 103.781 51.2815 103.752 51.3775 103.752H55.7535C55.8495 103.752 55.9268 103.781 55.9855 103.84C56.0442 103.899 56.0735 103.976 56.0735 104.072C56.0735 104.157 56.0442 104.232 55.9855 104.296C55.9268 104.355 55.8495 104.384 55.7535 104.384H51.3775ZM57.3393 110C57.238 110 57.1553 109.968 57.0913 109.904C57.0273 109.84 56.9953 109.757 56.9953 109.656V104.096C56.9953 103.995 57.0273 103.912 57.0913 103.848C57.1553 103.784 57.238 103.752 57.3393 103.752C57.4406 103.752 57.5233 103.784 57.5873 103.848C57.6513 103.912 57.6833 103.995 57.6833 104.096V109.656C57.6833 109.757 57.6513 109.84 57.5873 109.904C57.5233 109.968 57.4406 110 57.3393 110ZM61.3804 110C61.2364 110 61.1297 109.928 61.0604 109.784L58.7004 104.28C58.6364 104.12 58.631 103.992 58.6844 103.896C58.7377 103.8 58.8337 103.752 58.9724 103.752C59.1217 103.752 59.2257 103.824 59.2844 103.968L61.4524 109.144H61.3004L63.4684 103.976C63.5057 103.891 63.5484 103.832 63.5964 103.8C63.6497 103.768 63.7164 103.752 63.7964 103.752C63.935 103.752 64.0284 103.803 64.0764 103.904C64.1244 104 64.1217 104.112 64.0684 104.24L61.6844 109.784C61.6524 109.859 61.6097 109.915 61.5564 109.952C61.5084 109.984 61.4497 110 61.3804 110ZM65.4018 110C65.3005 110 65.2178 109.968 65.1538 109.904C65.0898 109.84 65.0578 109.757 65.0578 109.656V104.096C65.0578 103.995 65.0898 103.912 65.1538 103.848C65.2178 103.784 65.3005 103.752 65.4018 103.752H69.1138C69.2098 103.752 69.2898 103.784 69.3538 103.848C69.4178 103.907 69.4498 103.984 69.4498 104.08C69.4498 104.171 69.4178 104.248 69.3538 104.312C69.2898 104.371 69.2098 104.4 69.1138 104.4H65.7458V106.528H68.1858C68.2871 106.528 68.3698 106.56 68.4338 106.624C68.4978 106.688 68.5298 106.765 68.5298 106.856C68.5298 106.952 68.4978 107.032 68.4338 107.096C68.3698 107.155 68.2871 107.184 68.1858 107.184H65.7458V109.352H69.1138C69.2098 109.352 69.2898 109.384 69.3538 109.448C69.4178 109.507 69.4498 109.581 69.4498 109.672C69.4498 109.768 69.4178 109.848 69.3538 109.912C69.2898 109.971 69.2098 110 69.1138 110H65.4018Z" fill="#2855F6"/>
</svg>
