<svg width="218" height="219" viewBox="0 0 218 219" fill="none" xmlns="http://www.w3.org/2000/svg">
<path d="M147.831 124.261L147.542 124.65L147.922 124.951C152.893 128.897 155.724 133.581 155.724 138.558C155.724 142.371 154.053 146.013 151.038 149.286L150.523 149.845L151.24 150.097C155.799 151.697 159.747 154.672 162.541 158.611C165.334 162.55 166.834 167.259 166.833 172.086C166.833 178.265 164.377 184.191 160.004 188.56C155.632 192.929 149.701 195.384 143.517 195.384H78.2164C72.0324 195.384 66.1017 192.929 61.7291 188.56C57.3564 184.191 54.9 178.265 54.9 172.086C54.9004 167.77 56.1013 163.538 58.3686 159.864C60.636 156.19 63.8806 153.218 67.7405 151.279L68.3746 150.96L67.8613 150.47C64.1139 146.893 62.0244 142.836 62.0244 138.558C62.0244 133.508 64.9142 128.763 70.0205 124.79L70.404 124.492L70.1167 124.1C68.1297 121.39 67.0355 118.13 66.9856 114.771C66.9873 108.069 71.5818 101.912 79.1987 97.4035C86.8059 92.9008 97.3468 90.0996 109.014 90.0996C120.681 90.0996 131.22 92.9008 138.826 97.4035C146.441 101.912 151.034 108.069 151.035 114.771C150.993 118.193 149.871 121.513 147.831 124.261Z" fill="#FFB1CE" stroke="#2855F6"/>
<path d="M98.0301 127.223C98.0301 127.223 91.2353 155.492 67.9901 149.567" stroke="#2855F6" stroke-width="1.5" stroke-linecap="round" stroke-linejoin="round"/>
<path d="M87.5071 190.994L88.2152 201.295L82.2727 203.549" stroke="#2855F6" stroke-width="1.5" stroke-linecap="round" stroke-linejoin="round"/>
<path d="M126.576 190.994L127.284 201.295L121.341 203.549" stroke="#2855F6" stroke-width="1.5" stroke-linecap="round" stroke-linejoin="round"/>
<path d="M87.5251 190.526L95.6644 194.596" stroke="#2855F6" stroke-width="1.5" stroke-linecap="round"/>
<path d="M126.593 190.526L134.732 194.596" stroke="#2855F6" stroke-width="1.5" stroke-linecap="round"/>
<path d="M102 131.6C102 129.027 104.915 126.933 108.533 126.933C112.152 126.933 115.067 129.021 115.067 131.6" stroke="#2855F6" stroke-linecap="round" stroke-linejoin="round"/>
<path d="M123.884 126.468C123.884 126.468 129.02 153.784 151.825 149.017" stroke="#2855F6" stroke-width="1.5" stroke-linecap="round" stroke-linejoin="round"/>
<path d="M105.431 119.715C105.024 121.343 103.427 122.971 100.954 122.971C98.4821 122.971 96.8848 121.75 96.4779 119.715" stroke="#2855F6" stroke-linecap="round"/>
<path d="M120.895 119.715C120.488 121.343 118.891 122.971 116.419 122.971C113.946 122.971 112.349 121.75 111.942 119.715" stroke="#2855F6" stroke-linecap="round"/>
<path fill-rule="evenodd" clip-rule="evenodd" d="M94.9243 126.118C94.9004 125.393 94.7529 123.62 94.7529 123.62C94.7529 123.62 92.5814 124.577 92.4354 124.648C92.3901 124.669 92.3273 124.707 92.2624 124.749C92.184 124.795 92.1079 124.846 92.035 124.903C91.992 124.933 91.9642 124.954 91.9642 124.954L91.9692 124.956C91.7162 125.17 91.5037 125.451 91.3598 125.785C90.9087 126.833 91.3023 128.014 92.2391 128.423C93.1758 128.831 94.3009 128.313 94.752 127.265C94.9151 126.886 94.9678 126.489 94.9243 126.118Z" fill="white"/>
<path fill-rule="evenodd" clip-rule="evenodd" d="M124.681 122.352C124.12 122.203 122.726 121.908 122.726 121.908C122.726 121.908 122.959 123.793 122.98 123.921C122.986 123.962 123.001 124.021 123.019 124.083C123.036 124.15 123.056 124.216 123.081 124.281C123.096 124.324 123.105 124.352 123.105 124.352L123.109 124.349C123.214 124.592 123.38 124.82 123.604 125.007C124.303 125.595 125.299 125.565 125.828 124.942C126.357 124.318 126.219 123.336 125.52 122.749C125.267 122.536 124.975 122.405 124.681 122.352Z" fill="white"/>
<g opacity="0.2" filter="url(#filter0_d_3146_810)">
<path d="M104.569 17.9326C171.52 17.9326 219.181 182.012 213.548 196.472C207.916 210.933 104.569 210.933 104.569 210.933C104.569 210.933 9.9059 210.342 4.70653 196.472C-0.492832 182.602 22.0378 17.9326 104.569 17.9326Z" fill="#312E2E" fill-opacity="0.56" shape-rendering="crispEdges"/>
</g>
<path fill-rule="evenodd" clip-rule="evenodd" d="M41.1516 42.1986C40.1917 42.4333 39.2089 42.5671 38.22 42.598C33.4012 42.9167 33.4906 40.3148 33.7323 39.2284C33.4457 37.9425 33.2485 34.8429 38.0767 35.023C39.066 35.0187 40.0536 35.1376 41.0225 35.3776C41.0225 35.3776 44.0396 23.3571 55.7746 29.0585C55.7746 29.0585 58.4113 8.7345 78.0085 18.6374C78.0085 18.6374 82.5394 1.49918 96.4907 1.31715L102.326 1.20669C116.297 0.860108 121.45 17.815 121.45 17.815C140.712 7.17648 144.127 27.3859 144.127 27.3859C155.638 21.2445 159.108 33.1421 159.108 33.1421C160.067 32.8656 161.049 32.7095 162.038 32.6763C166.509 32.34 166.761 34.9833 166.582 36.4034C166.959 37.2116 167.223 40.3932 162.182 40.2513C161.773 40.254 161.273 40.145 160.797 40.0411C160.122 39.8938 159.494 39.7567 159.237 39.9632C159.183 40.0064 159.097 40.1907 158.965 40.4721C158.02 42.4847 154.746 49.4625 144.466 45.3031C144.466 45.3031 141.756 62.3405 122.137 54.1042C122.137 54.1042 117.577 68.4774 103.603 68.6732L97.7679 68.7837C83.8194 69.1165 78.6954 54.9266 78.6954 54.9266C59.4555 63.8985 56.1138 46.9757 56.1138 46.9757C44.5848 52.1568 41.1516 42.1986 41.1516 42.1986Z" fill="#989595"/>
<path d="M96.9999 31.5211L86.7839 31.55L86.7493 25.1707L96.9999 31.5211Z" fill="white"/>
<path d="M90.85 31.2666C91.6995 31.2666 92.3881 30.578 92.3881 29.7285C92.3881 28.8791 91.6995 28.1904 90.85 28.1904C90.0006 28.1904 89.3119 28.8791 89.3119 29.7285C89.3119 30.578 90.0006 31.2666 90.85 31.2666Z" fill="black"/>
<path d="M102.125 31.5211L112.341 31.55L112.376 25.1707L102.125 31.5211Z" fill="#FFFEFE"/>
<path d="M108.275 31.2666C107.426 31.2666 106.737 30.578 106.737 29.7285C106.737 28.8791 107.426 28.1904 108.275 28.1904C109.125 28.1904 109.813 28.8791 109.813 29.7285C109.813 30.578 109.125 31.2666 108.275 31.2666Z" fill="black"/>
<circle cx="99.5626" cy="39.466" r="2.56267" fill="#030303"/>
<defs>
<filter id="filter0_d_3146_810" x="0" y="17.9326" width="218" height="201" filterUnits="userSpaceOnUse" color-interpolation-filters="sRGB">
<feFlood flood-opacity="0" result="BackgroundImageFix"/>
<feColorMatrix in="SourceAlpha" type="matrix" values="0 0 0 0 0 0 0 0 0 0 0 0 0 0 0 0 0 0 127 0" result="hardAlpha"/>
<feOffset dy="4"/>
<feGaussianBlur stdDeviation="2"/>
<feComposite in2="hardAlpha" operator="out"/>
<feColorMatrix type="matrix" values="0 0 0 0 0 0 0 0 0 0 0 0 0 0 0 0 0 0 0.25 0"/>
<feBlend mode="normal" in2="BackgroundImageFix" result="effect1_dropShadow_3146_810"/>
<feBlend mode="normal" in="SourceGraphic" in2="effect1_dropShadow_3146_810" result="shape"/>
</filter>
</defs>
</svg>
