<svg width="149" height="127" viewBox="0 0 149 127" fill="none" xmlns="http://www.w3.org/2000/svg">
<path d="M1.58101 81.9141C1.58101 81.9141 -3.87726 54.6704 18.6666 50.4806" stroke="#2855F6" stroke-width="1.5" stroke-linecap="round" stroke-linejoin="round"/>
<path d="M96.2296 67.0221L95.7147 67.581L96.4317 67.8326C100.784 69.3601 104.553 72.2003 107.22 75.9607C109.886 79.7211 111.318 84.2161 111.318 88.8247C111.318 94.7233 108.973 100.38 104.798 104.551C100.624 108.722 94.9624 111.066 89.0588 111.066H26.6572C20.7535 111.066 15.0918 108.722 10.9175 104.551C6.74312 100.38 4.39807 94.7233 4.39807 88.8248C4.39844 84.7041 5.54486 80.6645 7.7094 77.1569C9.87395 73.6494 12.9715 70.8118 16.6563 68.961L17.2904 68.6425L16.7771 68.1525C13.199 64.7371 11.2062 60.8654 11.2062 56.7853C11.2062 51.9682 13.9623 47.4401 18.8387 43.6461L19.2223 43.3477L18.9349 42.9558C17.0389 40.3699 15.9948 37.2588 15.9472 34.0536C15.9488 27.66 20.3319 21.7828 27.6072 17.4766C34.8727 13.1761 44.9416 10.5 56.0874 10.5C67.2333 10.5 77.3006 13.1761 84.5644 17.4766C91.8382 21.7829 96.2198 27.6603 96.2212 34.0542C96.1804 37.3189 95.1105 40.4876 93.1635 43.1097L92.8749 43.4985L93.2541 43.7994C98.0018 47.5676 100.701 52.0379 100.701 56.7853C100.701 60.4222 99.1083 63.8969 96.2296 67.0221Z" fill="#FFB1CE" stroke="#2855F6"/>
<path d="M116.369 25.0876C116.369 25.0876 120.976 52.4867 98.3199 55.978" stroke="#2855F6" stroke-width="1.5" stroke-linecap="round" stroke-linejoin="round"/>
<path d="M26.7407 107.989L23.3692 121.986L17.0371 123.419" stroke="#2855F6" stroke-width="1.5" stroke-linecap="round" stroke-linejoin="round"/>
<path d="M87.144 107.989L89.2138 122.241L95.3877 124.26" stroke="#2855F6" stroke-width="1.5" stroke-linecap="round" stroke-linejoin="round"/>
<path d="M54.927 34.9335C56.2344 34.9335 57.2942 33.7753 57.2942 32.3466C57.2942 30.9179 56.2344 29.7598 54.927 29.7598C53.6197 29.7598 52.5598 30.9179 52.5598 32.3466C52.5598 33.7753 53.6197 34.9335 54.927 34.9335Z" fill="#2855F6"/>
<path d="M64.2871 34.9335C65.5945 34.9335 66.6543 33.7753 66.6543 32.3466C66.6543 30.9179 65.5945 29.7598 64.2871 29.7598C62.9798 29.7598 61.9199 30.9179 61.9199 32.3466C61.9199 33.7753 62.9798 34.9335 64.2871 34.9335Z" fill="#2855F6"/>
<path d="M54 38.4805C54 39.6271 56.552 40.5605 59.7199 40.5605C62.8879 40.5605 65.4399 39.6297 65.4399 38.4805" stroke="#2855F6" stroke-linecap="round" stroke-linejoin="round"/>
<rect x="81.25" y="0.25" width="67.5" height="24.5" fill="white" stroke="#4360EC" stroke-width="0.5"/>
<path d="M92.176 18.12C91.664 18.12 91.176 18.04 90.712 17.88C90.248 17.72 89.844 17.496 89.5 17.208C89.156 16.92 88.904 16.588 88.744 16.212C88.664 16.044 88.664 15.888 88.744 15.744C88.832 15.6 88.976 15.508 89.176 15.468C89.32 15.436 89.46 15.46 89.596 15.54C89.74 15.612 89.848 15.724 89.92 15.876C90.016 16.076 90.172 16.26 90.388 16.428C90.612 16.596 90.88 16.732 91.192 16.836C91.504 16.94 91.832 16.992 92.176 16.992C92.56 16.992 92.912 16.932 93.232 16.812C93.56 16.692 93.824 16.52 94.024 16.296C94.224 16.064 94.324 15.78 94.324 15.444C94.324 15.02 94.156 14.64 93.82 14.304C93.492 13.968 92.948 13.76 92.188 13.68C91.196 13.584 90.416 13.292 89.848 12.804C89.28 12.316 88.996 11.712 88.996 10.992C88.996 10.464 89.144 10.016 89.44 9.648C89.736 9.28 90.136 9 90.64 8.808C91.152 8.616 91.72 8.52 92.344 8.52C92.832 8.52 93.256 8.588 93.616 8.724C93.984 8.86 94.304 9.048 94.576 9.288C94.848 9.528 95.084 9.812 95.284 10.14C95.396 10.316 95.44 10.484 95.416 10.644C95.4 10.796 95.324 10.916 95.188 11.004C95.036 11.1 94.872 11.12 94.696 11.064C94.52 11.008 94.388 10.904 94.3 10.752C94.172 10.52 94.016 10.324 93.832 10.164C93.648 10.004 93.432 9.88 93.184 9.792C92.936 9.696 92.644 9.648 92.308 9.648C91.716 9.64 91.22 9.752 90.82 9.984C90.42 10.208 90.22 10.556 90.22 11.028C90.22 11.268 90.28 11.5 90.4 11.724C90.528 11.94 90.756 12.128 91.084 12.288C91.42 12.448 91.9 12.56 92.524 12.624C93.476 12.72 94.216 13.012 94.744 13.5C95.28 13.98 95.548 14.616 95.548 15.408C95.548 15.864 95.452 16.26 95.26 16.596C95.076 16.932 94.824 17.216 94.504 17.448C94.192 17.672 93.832 17.84 93.424 17.952C93.024 18.064 92.608 18.12 92.176 18.12ZM98.0857 18C97.9097 18 97.7617 17.94 97.6417 17.82C97.5217 17.7 97.4617 17.552 97.4617 17.376V9.252C97.4617 9.068 97.5217 8.92 97.6417 8.808C97.7617 8.688 97.9097 8.628 98.0857 8.628C98.2697 8.628 98.4177 8.688 98.5297 8.808C98.6497 8.92 98.7097 9.068 98.7097 9.252V12.696H104.278V9.252C104.278 9.068 104.338 8.92 104.458 8.808C104.578 8.688 104.726 8.628 104.902 8.628C105.086 8.628 105.234 8.688 105.346 8.808C105.458 8.92 105.514 9.068 105.514 9.252V17.376C105.514 17.552 105.458 17.7 105.346 17.82C105.234 17.94 105.086 18 104.902 18C104.726 18 104.578 17.94 104.458 17.82C104.338 17.7 104.278 17.552 104.278 17.376V13.8H98.7097V17.376C98.7097 17.552 98.6497 17.7 98.5297 17.82C98.4177 17.94 98.2697 18 98.0857 18ZM112.247 18.12C111.543 18.12 110.899 18.004 110.315 17.772C109.731 17.532 109.227 17.2 108.803 16.776C108.387 16.344 108.063 15.836 107.831 15.252C107.599 14.66 107.483 14.012 107.483 13.308C107.483 12.604 107.599 11.96 107.831 11.376C108.063 10.792 108.387 10.288 108.803 9.864C109.227 9.432 109.731 9.1 110.315 8.868C110.899 8.628 111.543 8.508 112.247 8.508C112.951 8.508 113.591 8.628 114.167 8.868C114.751 9.1 115.255 9.432 115.679 9.864C116.103 10.288 116.431 10.792 116.663 11.376C116.895 11.96 117.011 12.604 117.011 13.308C117.011 14.012 116.895 14.66 116.663 15.252C116.431 15.836 116.103 16.344 115.679 16.776C115.255 17.2 114.751 17.532 114.167 17.772C113.591 18.004 112.951 18.12 112.247 18.12ZM112.247 16.992C112.767 16.992 113.243 16.9 113.675 16.716C114.115 16.524 114.495 16.264 114.815 15.936C115.135 15.6 115.379 15.208 115.547 14.76C115.723 14.312 115.811 13.828 115.811 13.308C115.811 12.788 115.723 12.304 115.547 11.856C115.379 11.408 115.135 11.02 114.815 10.692C114.495 10.356 114.115 10.096 113.675 9.912C113.243 9.728 112.767 9.636 112.247 9.636C111.727 9.636 111.247 9.728 110.807 9.912C110.375 10.096 109.999 10.356 109.679 10.692C109.367 11.02 109.123 11.408 108.947 11.856C108.771 12.304 108.683 12.788 108.683 13.308C108.683 13.828 108.771 14.312 108.947 14.76C109.123 15.208 109.367 15.6 109.679 15.936C109.999 16.264 110.375 16.524 110.807 16.716C111.247 16.9 111.727 16.992 112.247 16.992ZM122.89 18.192C122.122 18.192 121.442 18.052 120.85 17.772C120.258 17.484 119.794 17.088 119.458 16.584C119.13 16.08 118.966 15.504 118.966 14.856V9.252C118.966 9.068 119.026 8.92 119.146 8.808C119.266 8.688 119.414 8.628 119.59 8.628C119.774 8.628 119.922 8.688 120.034 8.808C120.154 8.92 120.214 9.068 120.214 9.252V14.856C120.214 15.288 120.326 15.672 120.55 16.008C120.782 16.336 121.098 16.596 121.498 16.788C121.906 16.972 122.37 17.064 122.89 17.064C123.394 17.064 123.838 16.972 124.222 16.788C124.614 16.596 124.918 16.336 125.134 16.008C125.358 15.672 125.47 15.288 125.47 14.856V9.252C125.47 9.068 125.53 8.92 125.65 8.808C125.77 8.688 125.918 8.628 126.094 8.628C126.278 8.628 126.426 8.688 126.538 8.808C126.65 8.92 126.706 9.068 126.706 9.252V14.856C126.706 15.504 126.542 16.08 126.214 16.584C125.894 17.088 125.446 17.484 124.87 17.772C124.294 18.052 123.634 18.192 122.89 18.192ZM129.714 18C129.538 18 129.39 17.94 129.27 17.82C129.158 17.7 129.102 17.552 129.102 17.376V9.252C129.102 9.076 129.162 8.928 129.282 8.808C129.402 8.688 129.546 8.628 129.714 8.628C129.89 8.628 130.038 8.688 130.158 8.808C130.278 8.928 130.338 9.076 130.338 9.252V16.752H134.682C134.858 16.752 135.006 16.812 135.126 16.932C135.246 17.052 135.306 17.2 135.306 17.376C135.306 17.552 135.246 17.7 135.126 17.82C135.006 17.94 134.858 18 134.682 18H129.714ZM137.426 18C137.25 18 137.102 17.94 136.982 17.82C136.862 17.7 136.802 17.552 136.802 17.376V9.252C136.802 9.068 136.862 8.92 136.982 8.808C137.102 8.688 137.25 8.628 137.426 8.628H139.598C140.286 8.628 140.91 8.744 141.47 8.976C142.038 9.2 142.53 9.524 142.946 9.948C143.362 10.364 143.682 10.856 143.906 11.424C144.13 11.992 144.242 12.62 144.242 13.308C144.242 13.996 144.13 14.628 143.906 15.204C143.682 15.772 143.362 16.268 142.946 16.692C142.53 17.108 142.038 17.432 141.47 17.664C140.91 17.888 140.286 18 139.598 18H137.426ZM138.05 16.896H139.598C140.27 16.896 140.862 16.744 141.374 16.44C141.894 16.128 142.302 15.704 142.598 15.168C142.894 14.624 143.042 14.004 143.042 13.308C143.042 12.604 142.894 11.984 142.598 11.448C142.302 10.912 141.894 10.492 141.374 10.188C140.862 9.884 140.27 9.732 139.598 9.732H138.05V16.896Z" fill="#16875E"/>
</svg>
