<svg width="208" height="196" viewBox="0 0 208 196" fill="none" xmlns="http://www.w3.org/2000/svg">
<path d="M203.802 57.5625C203.802 57.5625 208.192 35.649 190.059 32.2789" stroke="#553CFD" stroke-linecap="round" stroke-linejoin="round"/>
<path d="M192.917 26.5736L192.628 26.9623L193.007 27.2633C196.812 30.2831 198.961 33.8534 198.961 37.6319C198.961 40.5269 197.693 43.2991 195.39 45.7996L194.875 46.3585L195.592 46.6102C199.073 47.8321 202.088 50.1041 204.222 53.1123C206.355 56.1204 207.5 59.7162 207.5 63.4029C207.5 68.1215 205.624 72.6469 202.285 75.9835C198.945 79.3202 194.416 81.1948 189.694 81.1948H139.501C134.778 81.1948 130.249 79.3202 126.91 75.9835C123.57 72.6469 121.694 68.1215 121.694 63.403C121.695 60.1066 122.612 56.8752 124.343 54.0693C126.075 51.2634 128.553 48.9934 131.5 47.5129L132.134 47.1944L131.621 46.7044C128.756 43.9698 127.171 40.8795 127.171 37.6319C127.171 33.7977 129.364 30.1811 133.272 27.1405L133.656 26.8421L133.368 26.4503C131.855 24.3868 131.022 21.9044 130.984 19.3469C130.986 14.2529 134.478 9.55247 140.315 6.09799C146.141 2.64924 154.222 0.5 163.173 0.5C172.124 0.5 180.204 2.64924 186.029 6.09797C191.864 9.55254 195.356 14.2532 195.357 19.3475C195.324 21.9526 194.47 24.4812 192.917 26.5736Z" fill="#FFB1CE" stroke="#553CFD"/>
<path d="M116.466 59.8154C116.466 59.8154 112.081 37.9019 130.209 34.5318" stroke="#553CFD" stroke-linecap="round" stroke-linejoin="round"/>
<path d="M139.568 78.8184L136.856 90.0765L131.763 91.2296" stroke="#553CFD" stroke-linecap="round" stroke-linejoin="round"/>
<path d="M188.154 78.8184L189.819 90.2814L194.785 91.9056" stroke="#553CFD" stroke-linecap="round" stroke-linejoin="round"/>
<path d="M155.942 22.1623C156.993 22.1623 157.846 21.2306 157.846 20.0812C157.846 18.9318 156.993 18 155.942 18C154.89 18 154.037 18.9318 154.037 20.0812C154.037 21.2306 154.89 22.1623 155.942 22.1623Z" fill="#221F20"/>
<path d="M165.278 22.1633C166.33 22.1633 167.183 21.2315 167.183 20.0821C167.183 18.9327 166.33 18.001 165.278 18.001C164.226 18.001 163.374 18.9327 163.374 20.0821C163.374 21.2315 164.226 22.1633 165.278 22.1633Z" fill="#221F20"/>
<path d="M154 31.1934C154 28.882 157.042 27.0004 160.819 27.0004C164.596 27.0004 167.638 28.8767 167.638 31.1934" stroke="#020202" stroke-linecap="round" stroke-linejoin="round"/>
<path d="M132.465 128.209C132.465 128.209 136.396 108.587 120.159 105.57" stroke="#020202" stroke-linecap="round" stroke-linejoin="round"/>
<path d="M125.262 117.98C127.38 115.68 128.578 113.094 128.578 110.363C128.578 106.796 126.549 103.483 123.078 100.728C124.526 98.7783 125.322 96.4217 125.351 93.9938C125.351 84.4246 112.247 76.667 96.0859 76.667C79.9243 76.667 66.8155 84.4246 66.8155 93.9938C66.8504 96.3779 67.6268 98.6922 69.0371 100.616C65.4723 103.389 63.401 106.745 63.401 110.363C63.401 113.428 64.8993 116.305 67.5248 118.811C64.8112 120.174 62.5302 122.263 60.9361 124.846C59.3421 127.429 58.4978 130.404 58.4976 133.439C58.4976 137.783 60.2245 141.949 63.2986 145.02C66.3726 148.092 70.5419 149.818 74.8893 149.818H119.833C124.18 149.818 128.349 148.092 131.424 145.02C134.498 141.949 136.225 137.783 136.225 133.439C136.225 130.045 135.17 126.735 133.207 123.965C131.243 121.196 128.467 119.105 125.262 117.98Z" fill="#FDEABC"/>
<path d="M54.2636 130.227C54.2636 130.227 50.3371 110.605 66.5692 107.587" stroke="#020202" stroke-linecap="round" stroke-linejoin="round"/>
<path d="M74.9497 147.241L72.5215 157.322L67.9609 158.354" stroke="#020202" stroke-linecap="round" stroke-linejoin="round"/>
<path d="M118.454 147.241L119.945 157.505L124.391 158.96" stroke="#020202" stroke-linecap="round" stroke-linejoin="round"/>
<path d="M91.5572 100.282C92.4988 100.282 93.2622 99.4478 93.2622 98.4188C93.2622 97.3898 92.4988 96.5557 91.5572 96.5557C90.6156 96.5557 89.8523 97.3898 89.8523 98.4188C89.8523 99.4478 90.6156 100.282 91.5572 100.282Z" fill="#221F20"/>
<path d="M99.9173 100.282C100.859 100.282 101.622 99.4478 101.622 98.4188C101.622 97.3898 100.859 96.5557 99.9173 96.5557C98.9757 96.5557 98.2124 97.3898 98.2124 98.4188C98.2124 99.4478 98.9757 100.282 99.9173 100.282Z" fill="#221F20"/>
<path d="M76.1576 160.653C76.1576 160.653 79.9157 141.896 64.3938 139.011" stroke="#020202" stroke-linecap="round" stroke-linejoin="round"/>
<path d="M69.2717 150.874C71.2967 148.676 72.4416 146.204 72.4416 143.593C72.4416 140.183 70.5019 137.015 67.1838 134.382C68.568 132.518 69.3285 130.265 69.357 127.944C69.357 118.796 56.8299 111.38 41.3798 111.38C25.9297 111.38 13.3981 118.796 13.3981 127.944C13.4314 130.223 14.1736 132.435 15.5219 134.274C12.1139 136.926 10.1339 140.133 10.1339 143.593C10.1339 146.522 11.5662 149.272 14.0761 151.668C11.482 152.971 9.30136 154.969 7.7775 157.438C6.25365 159.907 5.44655 162.751 5.44629 165.652V165.652C5.44629 169.805 7.09724 173.788 10.036 176.724C12.9747 179.66 16.9604 181.31 21.1164 181.31H64.0812C68.2372 181.31 72.223 179.66 75.1617 176.724C78.1004 173.788 79.7513 169.805 79.7513 165.652C79.7516 162.408 78.7435 159.243 76.8662 156.596C74.989 153.949 72.3352 151.949 69.2717 150.874V150.874Z" fill="#C3C7FF"/>
<path d="M1.39905 162.581C1.39905 162.581 -2.35459 143.823 13.1629 140.938" stroke="#020202" stroke-linecap="round" stroke-linejoin="round"/>
<path d="M21.1743 178.847L18.853 188.484L14.4932 189.471" stroke="#020202" stroke-linecap="round" stroke-linejoin="round"/>
<path d="M62.7632 178.847L64.1882 188.659L68.4391 190.049" stroke="#020202" stroke-linecap="round" stroke-linejoin="round"/>
<path d="M37.8608 125.304C38.761 125.304 39.4907 124.507 39.4907 123.523C39.4907 122.54 38.761 121.742 37.8608 121.742C36.9607 121.742 36.231 122.54 36.231 123.523C36.231 124.507 36.9607 125.304 37.8608 125.304Z" fill="#221F20"/>
<path d="M45.8528 125.304C46.7529 125.304 47.4826 124.507 47.4826 123.523C47.4826 122.54 46.7529 121.742 45.8528 121.742C44.9526 121.742 44.2229 122.54 44.2229 123.523C44.2229 124.507 44.9526 125.304 45.8528 125.304Z" fill="#221F20"/>
<path d="M47.5126 129.272C47.5126 131.251 44.9084 132.862 41.6756 132.862C38.4428 132.862 35.8386 131.255 35.8386 129.272" stroke="#020202" stroke-linecap="round" stroke-linejoin="round"/>
<path d="M182.546 165.985C182.546 165.985 186.158 147.959 171.241 145.187" stroke="#020202" stroke-linecap="round" stroke-linejoin="round"/>
<path d="M175.929 156.589C177.875 154.476 178.975 152.1 178.975 149.591C178.975 146.314 177.111 143.271 173.923 140.74C175.253 138.948 175.984 136.783 176.011 134.553C176.011 125.762 163.972 118.635 149.125 118.635C134.277 118.635 122.234 125.762 122.234 134.553C122.266 136.743 122.98 138.869 124.275 140.636C121 143.184 119.098 146.267 119.098 149.591C119.098 152.407 120.474 155.049 122.886 157.352C120.393 158.604 118.297 160.524 116.833 162.897C115.369 165.27 114.593 168.003 114.593 170.791V170.791C114.593 174.781 116.179 178.609 119.003 181.431C121.828 184.252 125.658 185.838 129.652 185.838H170.941C174.935 185.838 178.765 184.252 181.589 181.431C184.413 178.609 186 174.781 186 170.791C186 167.673 185.031 164.632 183.227 162.088C181.423 159.543 178.873 157.622 175.929 156.589V156.589Z" fill="#D0D3FF"/>
<path d="M110.703 167.84C110.703 167.84 107.096 149.814 122.008 147.041" stroke="#020202" stroke-linecap="round" stroke-linejoin="round"/>
<path d="M129.707 183.471L127.476 192.732L123.287 193.68" stroke="#020202" stroke-linecap="round" stroke-linejoin="round"/>
<path d="M169.674 183.471L171.044 192.9L175.129 194.236" stroke="#020202" stroke-linecap="round" stroke-linejoin="round"/>
<path d="M144.527 132.42C145.392 132.42 146.093 131.654 146.093 130.709C146.093 129.763 145.392 128.997 144.527 128.997C143.661 128.997 142.96 129.763 142.96 130.709C142.96 131.654 143.661 132.42 144.527 132.42Z" fill="#221F20"/>
<path d="M152.207 132.42C153.072 132.42 153.773 131.654 153.773 130.709C153.773 129.763 153.072 128.997 152.207 128.997C151.342 128.997 150.641 129.763 150.641 130.709C150.641 131.654 151.342 132.42 152.207 132.42Z" fill="#221F20"/>
<path d="M100.907 102.573C100.907 104.576 98.607 106.2 95.7694 106.2C92.9319 106.2 90.6316 104.576 90.6316 102.573" stroke="black"/>
<path d="M90.6316 102.573H100.907" stroke="black" stroke-linecap="round"/>
<path d="M153.754 136.768C153.754 138.771 151.454 140.395 148.616 140.395C145.779 140.395 143.478 138.771 143.478 136.768" stroke="black"/>
<path d="M143.478 136.768H153.754" stroke="black" stroke-linecap="round"/>
<path fill-rule="evenodd" clip-rule="evenodd" d="M169.301 22.0923C168.7 21.9327 167.207 21.6159 167.207 21.6159C167.207 21.6159 167.456 23.6354 167.478 23.7726C167.485 23.8167 167.502 23.8804 167.521 23.9464C167.538 24.018 167.56 24.0891 167.587 24.1591C167.602 24.2049 167.613 24.2351 167.613 24.2351L167.617 24.2315C167.73 24.4922 167.908 24.736 168.147 24.9368C168.896 25.5661 169.963 25.5346 170.53 24.8663C171.097 24.1981 170.949 23.1462 170.2 22.5168C169.929 22.2893 169.616 22.1482 169.301 22.0923Z" fill="white"/>
</svg>
