<svg width="131" height="112" viewBox="0 0 131 112" fill="none" xmlns="http://www.w3.org/2000/svg">
<path d="M125.96 68.8105C125.96 68.8105 131.208 42.6147 109.531 38.586" stroke="#2855F6" stroke-width="1.5" stroke-linecap="round" stroke-linejoin="round"/>
<path d="M115.976 54.816L115.461 55.3749L116.178 55.6265C120.359 57.0939 123.98 59.8224 126.542 63.4349C129.104 67.0475 130.479 71.3657 130.479 75.7931C130.479 81.4597 128.226 86.8943 124.216 90.9013C120.206 94.9083 114.767 97.1595 109.095 97.1595H49.0935C43.4221 97.1595 37.983 94.9083 33.9728 90.9013C29.9626 86.8943 27.7098 81.4597 27.7098 75.7932C27.7101 71.8345 28.8115 67.9538 30.8909 64.5842C32.9703 61.2145 35.946 58.4885 39.486 56.7105L40.1201 56.392L39.6068 55.902C36.1689 52.6205 34.2561 48.9024 34.2561 44.9859C34.2561 40.362 36.9016 36.0131 41.5876 32.3672L41.9712 32.0688L41.6838 31.6769C39.8631 29.1937 38.8605 26.2062 38.8147 23.1284C38.8164 16.9902 43.0245 11.3444 50.0168 7.20558C56.9995 3.07251 66.6776 0.5 77.3919 0.5C88.1063 0.5 97.7828 3.07251 104.764 7.20555C111.755 11.3444 115.962 16.9905 115.963 23.129C115.924 26.264 114.896 29.3069 113.027 31.8249L112.738 32.2136L113.117 32.5146C117.68 36.1356 120.271 40.429 120.271 44.9859C120.271 48.477 118.742 51.8136 115.976 54.816Z" fill="#FFB1CE" stroke="#2855F6"/>
<path d="M21.5573 71.5039C21.5573 71.5039 16.3152 45.3081 37.9858 41.2794" stroke="#2855F6" stroke-width="1.5" stroke-linecap="round" stroke-linejoin="round"/>
<path d="M49.174 94.2207L45.9322 107.679L39.8436 109.057" stroke="#2855F6" stroke-width="1.5" stroke-linecap="round" stroke-linejoin="round"/>
<path d="M107.254 94.2207L109.244 107.924L115.181 109.865" stroke="#2855F6" stroke-width="1.5" stroke-linecap="round" stroke-linejoin="round"/>
<path d="M73.2762 31.9748C74.5333 31.9748 75.5523 30.8611 75.5523 29.4874C75.5523 28.1136 74.5333 27 73.2762 27C72.0191 27 71 28.1136 71 29.4874C71 30.8611 72.0191 31.9748 73.2762 31.9748Z" fill="#2855F6"/>
<path d="M82.2762 31.9748C83.5333 31.9748 84.5523 30.8611 84.5523 29.4874C84.5523 28.1136 83.5333 27 82.2762 27C81.0191 27 80 28.1136 80 29.4874C80 30.8611 81.0191 31.9748 82.2762 31.9748Z" fill="#2855F6"/>
<path d="M16.5896 99.7562L1.83925 75.988L31.227 57.9711L36.8764 58.7355L37.7305 60.1354L49.1186 78.8011L16.5896 99.7562Z" fill="white"/>
<path d="M31.227 57.9711L36.8764 58.7355L37.7305 60.1354M31.227 57.9711L1.83925 75.988L16.5896 99.7562L49.1186 78.8011L37.7305 60.1354M31.227 57.9711L33.0066 63.7877L37.7305 60.1354" stroke="#894D2B"/>
<path d="M28.4135 79.3746C28.5407 79.5718 28.5804 79.781 28.5326 80.0022C28.4849 80.2233 28.3624 80.3975 28.1652 80.5247L19.0616 86.3947C18.8554 86.5277 18.6462 86.5674 18.434 86.5139C18.2128 86.4661 18.0387 86.3436 17.9115 86.1464L13.9923 80.0684C13.8594 79.8622 13.8152 79.6559 13.8598 79.4495C13.8954 79.2488 14.0118 79.0849 14.209 78.9577C14.3973 78.8363 14.5901 78.8008 14.7876 78.8512C14.9851 78.9015 15.1503 79.0298 15.2832 79.236L18.7515 84.6148L22.0191 82.5078L19.5306 78.6485C19.4035 78.4513 19.3622 78.2495 19.4067 78.043C19.4366 77.8334 19.5456 77.6679 19.7339 77.5465C19.9221 77.4251 20.1224 77.3912 20.3346 77.4448C20.532 77.4951 20.6944 77.6189 20.8215 77.8161L23.31 81.6754L27.2634 79.1262C27.4606 78.999 27.6698 78.9593 27.891 79.0071C28.1122 79.0548 28.2864 79.1773 28.4135 79.3746Z" fill="#EE6363"/>
<path d="M26 72L31 79.5" stroke="#EE6363" stroke-linecap="round"/>
<path d="M28 71L33 78.5" stroke="#EE6363" stroke-linecap="round"/>
<path d="M67 23.6194C67.7347 24.3004 68.9736 25.0289 70.901 24.5817C72.8283 24.1345 73.5254 22.8484 73.9796 22" stroke="#2855F6" stroke-linecap="round"/>
<path d="M82.5539 21.9997C82.8365 22.9608 83.5277 24.2208 85.4123 24.8234C87.2969 25.4259 88.5541 24.6779 89.3787 24.1816" stroke="#2855F6" stroke-linecap="round"/>
<path d="M70 41.0117C70 38.2487 73.6369 35.9994 78.1516 35.9994C82.6663 35.9994 86.3031 38.2424 86.3031 41.0117" stroke="#2855F6" stroke-linecap="round" stroke-linejoin="round"/>
</svg>
